<?xml version="1.0" encoding="utf-8"?>
<!-- Generator: Adobe Illustrator 25.2.1, SVG Export Plug-In . SVG Version: 6.00 Build 0)  -->
<svg version="1.1" id="レイヤー_1" xmlns="http://www.w3.org/2000/svg" xmlns:xlink="http://www.w3.org/1999/xlink" x="0px"
	 y="0px" viewBox="0 0 110 110" style="enable-background:new 0 0 110 110;" xml:space="preserve">
<style type="text/css">
	.st0{fill:#1E1E28;}
</style>
<g>
	<g>
		<path class="st0" d="M45.8999,47.3989l-0.1001,11.7002C40,74.9663,30.2656,87.8989,16.6001,97.8989
			C13,93.2988,9.3999,89.0332,5.7998,85.0991c9.8003-6.0659,17.4658-13.9658,23-23.7002L7.7002,61.499v-14L45.8999,47.3989z
			 M69.2998,48.5991C77.4326,63.1333,89,74.3335,104,82.1992c-3.5342,4.5342-6.9346,9.4668-10.2002,14.7998
			c-11.8672-8-21.7002-18.0654-29.5-30.2002l0.1006,28.7002c-0.4004,4.5327-2.835,7.2002-7.3008,8
			c-5.4668,0.6655-11.4341,1-17.8994,1h-1.5c-1-5.3999-2.3003-10.7002-3.9004-15.8999c2.8003,0.1343,5,0.1997,6.6001,0.1997
			c1.5327,0,3.833-0.0654,6.8999-0.1997c1.0659-0.0659,1.6001-0.6655,1.6001-1.8003V42.1992h-28.5l0.1001-14h43.7998v9.7998
			c0.8662,2.7344,2.2002,5.6343,4,8.7002c7-6.0659,13.1006-12.6328,18.2998-19.7002c4.333,3.8672,8.8662,7.5,13.6006,10.8999
			C93.7998,45.4336,87,52.166,79.7998,58.0991C76.333,54.5664,72.833,51.3989,69.2998,48.5991z M69.7998,27.0991
			c-12.5996-3.333-25.6343-5.7002-39.0996-7.1001c2.7324-4.0654,5.3652-8.5654,7.8999-13.5
			c13.6655,1.6001,26.3657,3.5342,38.1001,5.7998C74.0332,17.2334,71.7324,22.166,69.7998,27.0991z"/>
	</g>
</g>
</svg>
