<?xml version="1.0" encoding="utf-8"?>
<!-- Generator: Adobe Illustrator 25.2.1, SVG Export Plug-In . SVG Version: 6.00 Build 0)  -->
<svg version="1.1" id="レイヤー_1" xmlns="http://www.w3.org/2000/svg" xmlns:xlink="http://www.w3.org/1999/xlink" x="0px"
	 y="0px" viewBox="0 0 110 110" style="enable-background:new 0 0 110 110;" xml:space="preserve">
<style type="text/css">
	.st0{fill:#1E1E28;}
</style>
<g>
	<g>
		<path class="st0" d="M13.3999,64.4028c-4.667,0-7-2.7656-7-8.2998c0-5.333,2.333-8,7-8h24c4.6001,0,7.6001,1.4673,9,4.3999
			v-7.2998L27.1001,45.103c-5.3999,0-8.0347-2.8999-7.8999-8.7002c0.0654-5.7998,2.6997-8.6997,7.8999-8.6997l31.6997,0.1001
			c5.4658,0,8.2002,2.8672,8.2002,8.5996v2.2002c1.4004,3.667,3.0332,6.8672,4.9004,9.6001c0.3994-1.2656,1.2324-2.3999,2.5-3.3999
			c4-3.0659,7.7656-6.5,11.2998-10.3003C89.166,30.7031,93.2656,30.8032,98,34.8032c4.5996,4,4.9658,8.0996,1.0996,12.2998
			c-3.5996,3.8672-7.8994,7.7998-12.8994,11.7998c-1.4678,1.2002-3.1348,1.6675-5,1.4004c5.0654,5.667,11.3994,11.4668,19,17.3999
			c2.665,2.1997,4,4.7671,4,7.6997c0,4.3345-2,7.666-6,10c-4.2676,2.4004-8.167,2.0332-11.7002-1.0996
			C78.3652,87.103,71.8652,80.2031,67,73.603v15.2002c0,7.8652-3.5674,12.2324-10.7002,13.0996
			c-2.1343,0.2656-4.2671,0.4004-6.3999,0.4004c-3,0-6.3999-0.2676-10.1997-0.8003c-5.7344-0.7998-8.2344-4.3345-7.5-10.6001
			c0.6655-6.1997,3.5654-8.7998,8.6997-7.7998c3.7329,0.7998,5.6001,0.7002,5.6001-0.2998l-0.1001-22.8003
			c-2.1997,8.5347-6.0669,16.0674-11.6001,22.6001C31.4658,86.4702,27.2002,90.3374,22,94.2031c-5,3.5327-9.3672,2.8657-13.1001-2
			c-1.6001-1.9331-2.2998-4.0659-2.1001-6.3999c0.1328-2.4004,1.333-4.4331,3.6001-6.1001
			c6.6655-4.8657,11.7656-9.9658,15.3003-15.3003H13.3999z M80.4004,12.8032c5.1992,1.2671,7,4.6997,5.3994,10.2998
			c-1.667,5.667-5.2002,7.7998-10.5996,6.3999c-7-1.6001-14.5-3.1328-22.5-4.6001c-0.6001-0.0654-6.7344-1.0327-18.4004-2.8999
			c-5-0.7329-7.0669-3.9653-6.1997-9.6997c0.7998-5.666,3.8999-8.166,9.2998-7.5C45,5.8032,52.0327,6.8701,58.5,8.0029
			C63.7656,9.0703,71.0654,10.6704,80.4004,12.8032z"/>
	</g>
</g>
</svg>
