<?xml version="1.0" encoding="utf-8"?>
<!-- Generator: Adobe Illustrator 25.2.1, SVG Export Plug-In . SVG Version: 6.00 Build 0)  -->
<svg version="1.1" id="レイヤー_1" xmlns="http://www.w3.org/2000/svg" xmlns:xlink="http://www.w3.org/1999/xlink" x="0px"
	 y="0px" viewBox="0 0 110 110" style="enable-background:new 0 0 110 110;" xml:space="preserve">
<style type="text/css">
	.st0{fill:#1E1E28;}
</style>
<g>
	<g>
		<path class="st0" d="M7,92.0352c-1.1343-1.6001-1.7002-3.2998-1.7002-5.1001c0-2.4653,1.1328-4.3999,3.4004-5.7998
			c7.9326-4.6655,14.2324-10.833,18.8999-18.5H14.2002c-4.7344,0.1343-7.1001-2.333-7.1001-7.3999
			c0.1328-4.7329,2.5-7.1001,7.1001-7.1001H39.5c6.6001,0,8.833,3.1997,6.7002,9.6001c-5.8003,15.3999-15.4346,27.5669-28.9004,36.5
			C13.2998,96.835,9.8657,96.1006,7,92.0352z M57.9004,28.0352H30.6001c-4.8672,0-7.2344,2.4673-7.1001,7.3999
			c0.1328,4.5347,2.333,6.8003,6.6001,6.8003H49v43.5c0,1.334-0.7671,1.9341-2.2998,1.7998c-2.6675-0.2002-4.8345-0.5327-6.5-1
			c-6-1.6001-9.5347,0.3999-10.6001,6c-1.1343,5.3999,0.8999,8.5654,6.1001,9.5c4.3999,0.7329,9,1.0654,13.7998,1
			C59.833,102.7007,65,98.1353,65,89.335v-24.5c6.9326,11.6001,15.833,21.4004,26.7002,29.4004
			c4.3994,3.3325,8.2324,2.5996,11.5-2.2002c0.9326-1.4658,1.3994-3.0327,1.3994-4.7002c0-2.6655-1.1992-4.8999-3.5996-6.6997
			c-10.2002-7.6655-18.6348-15.7002-25.2998-24.1001c2,0.5342,4,0.2002,6-1c6.3994-3.333,11.7324-6.7329,16-10.2002
			c3.333-2.5996,3.9326-5.7998,1.7998-9.5996c-2.667-4.666-6.4004-5.4331-11.2002-2.3003
			c-2.0674,1.3999-4.6338,2.9673-7.7002,4.7002c-3.667,2.0669-6.2666,3.5669-7.7998,4.5c-2.2002,1.3345-3.2344,3-3.0996,5
			c-1.7344-2.9331-2.9346-5.4658-3.6006-7.6001c-0.7344-1.7998-1.2344-3.6328-1.5-5.5
			C63.7998,30.2021,61.5654,28.0352,57.9004,28.0352z M39.1001,6.6353c10.6001,1.0669,21.1001,2.6001,31.4995,4.6001
			c5.6006,1.1343,7.7334,4.2998,6.4004,9.5c-1.334,4.334-4.3672,5.9341-9.0996,4.7998C63.5,24.6025,58.5,23.7021,52.8999,22.835
			c-3.3345-0.4653-8.3999-1.1655-15.1997-2.0996c-4.9346-0.6001-7.1001-3.2656-6.5-8C31.6655,8.335,34.2998,6.3022,39.1001,6.6353z"
			/>
	</g>
</g>
</svg>
