<?xml version="1.0" encoding="utf-8"?>
<!-- Generator: Adobe Illustrator 25.2.1, SVG Export Plug-In . SVG Version: 6.00 Build 0)  -->
<svg version="1.1" id="レイヤー_1" xmlns="http://www.w3.org/2000/svg" xmlns:xlink="http://www.w3.org/1999/xlink" x="0px"
	 y="0px" viewBox="0 0 110 110" style="enable-background:new 0 0 110 110;" xml:space="preserve">
<style type="text/css">
	.st0{fill:#1E1E28;}
</style>
<g>
	<g>
		<path class="st0" d="M44.1001,57.8003c-0.5347,0.6675-1.1343,1.5347-1.8003,2.6001c-0.1343,0.2002-0.3999,0.6343-0.7998,1.3003
			c-0.3345,0.5342-0.5674,0.8999-0.7002,1.0996c-0.334,0.5347-0.7998,1.4673-1.3999,2.8003c-0.7998,1.7344-1.3999,3-1.7998,3.7998
			c-1.8672,3.6675-3.8345,6.8345-5.8999,9.5c-6.4004,8.3345-14.7344,13.3003-25,14.8999c-1.2002,0.1328-1.833-0.1997-1.9004-1
			c0.0674-0.6655,0.4004-1.2656,1-1.7998c9.9331-7.7329,17.4331-17.6655,22.5-29.7998c-1.4668,0.334-2.834,0.7671-4.0996,1.2998
			C24,62.6348,23.6001,62.835,23,63.1006c-0.6001,0.3345-1.0342,0.5669-1.2998,0.6997c-1.5347,1-4.5674,0.1001-9.1001-2.6997
			C9.1328,58.9678,7.7656,57.4351,8.5,56.5005c0.2002-0.2656,1.0654-0.5327,2.6001-0.7998c2.9326-0.4658,5.4653-0.9658,7.6001-1.5
			c1.1997-0.2002,3.0996-0.666,5.6997-1.4004c2.5327-0.5996,4-0.9653,4.3999-1.0996c1.4004-0.2002,2.6328-0.9658,3.7002-2.3003
			c2.1328-2.7329,4.9326-2.4653,8.3999,0.8003C44.3657,53.7349,45.4326,56.2676,44.1001,57.8003z M99.5996,85.9004
			c2.7334,2.3345,4.1006,4.2344,4.1006,5.7002c0,2.1997-2.835,3.3999-8.5,3.6001c-6,0.1328-10.0342-0.2002-12.1006-1
			c-1.9336-0.6675-3.8994-2.3657-5.8994-5.1001c-3.667-4.6655-9.7002-13.9658-18.1006-27.8999
			c-0.0664,2.334-0.0664,5.9341,0,10.7998C59.0332,77.2676,59,81.4351,59,84.5005c0.0654,2.5342,0.0654,4.3345,0,5.3999
			c-0.4668,3.2002-1.6348,6.6001-3.5,10.2002c-1.4673,2.5327-3.167,3.8325-5.1001,3.8999c-2.3345-0.0674-4.6001-1.667-6.7998-4.7998
			c-1.7344-2.4004-3.9346-4.5674-6.6001-6.5c-2.9346-2-5.3345-4.2656-7.2002-6.8003c-1.1343-1.2656-0.8672-1.8325,0.8003-1.6997
			c4.2656,0.667,8.9326,0.8672,14,0.5996c0.7329,0,1.1655-0.4653,1.2998-1.3999c0.0659-10.7998,0.1655-19.1655,0.3003-25.1001
			c0-8.9326-0.0347-15.6997-0.1001-20.2998c-1.3999,0.2002-3.2671,0.6343-5.6001,1.2998c-0.8672,0.2676-1.9673,0.7344-3.2998,1.4004
			c-1.7344,0.7998-5.3003-0.166-10.7002-2.9004c-3.8672-1.8652-5.5342-3.4653-5-4.7998c0.1328-0.3999,2.2998-0.8657,6.5-1.3999
			c2.1328-0.1328,7.7998-1.1001,17-2.8999c1.6655-0.333,2.7998-0.9004,3.3999-1.7002c1.6655-2.1328,4.9658-1.4326,9.8999,2.1001
			c3.0654,2.2671,4.7656,4.2344,5.1006,5.8999c0.0654,1-0.3672,2.0342-1.3008,3.1001c-1.334,1.667-2.0664,3.7671-2.1992,6.2998
			c-0.1348,1.2671-0.2676,3.0347-0.4004,5.3003c2,2.1343,3.4658,3.667,4.4004,4.5996C69.9658,49.5005,74.833,44.9678,78.5,40.7007
			c1.0654-1.2002,1.0332-2.833-0.0996-4.9004c-1.6006-2.4653-0.8672-3.5327,2.1992-3.1997
			c5.6006,0.8672,10.1328,4.7344,13.6006,11.6001c1.7998,3.5342,1.1328,5.6343-2,6.2998c-2.7998,0.5342-4.7676,1.0342-5.9004,1.5
			c-0.8672,0.3345-2.0342,0.7671-3.5,1.2998c-2.334,0.8672-3.7344,1.4004-4.2002,1.6001c-3.7998,1.3999-7.3994,2.5674-10.7998,3.5
			c5.9326,6,12.1006,11.6001,18.5,16.8003c1.8662,1.5996,4.2656,3.5342,7.2002,5.7998
			C96.4326,83.4004,98.4658,85.0347,99.5996,85.9004z M59.7002,8.4004c1.665,1.3999,3.1328,2.9673,4.3994,4.7002
			c1.666,2.2671,1.4336,4.2998-0.6992,6.1001c-2.335,1.9341-5.7002,2.6343-10.1006,2.0996c-9.9341-1.1328-16.4341-5.7998-19.5-14
			c-0.2671-0.5996-0.334-1.0996-0.1997-1.5c0.0654-0.3325,0.3999-0.5,1-0.5c0.2656,0,0.6328,0.0347,1.1001,0.1001
			C42.2998,6.7349,47.5,7.1675,51.2998,6.7007C54.8999,6.2349,57.7002,6.8003,59.7002,8.4004z"/>
	</g>
</g>
</svg>
