<?xml version="1.0" encoding="utf-8"?>
<!-- Generator: Adobe Illustrator 25.2.1, SVG Export Plug-In . SVG Version: 6.00 Build 0)  -->
<svg version="1.1" id="レイヤー_1" xmlns="http://www.w3.org/2000/svg" xmlns:xlink="http://www.w3.org/1999/xlink" x="0px"
	 y="0px" viewBox="0 0 110 110" style="enable-background:new 0 0 110 110;" xml:space="preserve">
<style type="text/css">
	.st0{fill:#1E1E28;}
</style>
<g>
	<g>
		<path class="st0" d="M105.2998,44.7988c-5.2002,5.668-11.9346,11.9004-20.2002,18.7002
			c5.333,7.9346,9.7002,14.0674,13.1006,18.4004h7.0996v22.5H85.5996c-0.3994-0.6006-0.8994-1.3672-1.5-2.2998
			c-5.8672-8.8672-11.1992-17.6328-16-26.3008v28.7002H38.2002V86.7988H45.5V51.6992c-1.7998,6.9346-3.7671,14.4346-5.8999,22.5
			C36.3999,85.7334,33.5,95.832,30.8999,104.499H5.6001v-19h7c2.5327-6.9326,4.4653-13.665,5.7998-20.2002H5.5V47.499h40v-3.0996H10
			L9.8999,26.5996h58.1997v9.8994c1.8662,3.2002,3.666,6.2002,5.4004,9c4.4658-4.0654,8.0996-7.6328,10.9004-10.7002v-5.5996
			h20.8994V44.7988z M16,23.2988V6.0996L94.9004,5.999v17.4004L16,23.2988z"/>
	</g>
</g>
</svg>
