<?xml version="1.0" encoding="utf-8"?>
<!-- Generator: Adobe Illustrator 25.2.1, SVG Export Plug-In . SVG Version: 6.00 Build 0)  -->
<svg version="1.1" id="レイヤー_1" xmlns="http://www.w3.org/2000/svg" xmlns:xlink="http://www.w3.org/1999/xlink" x="0px"
	 y="0px" viewBox="0 0 110 110" style="enable-background:new 0 0 110 110;" xml:space="preserve">
<style type="text/css">
	.st0{fill:#1E1E28;}
</style>
<g>
	<g>
		<path class="st0" d="M64.0996,51.999c-0.1338,1.1348-0.1992,2.4346-0.1992,3.9004c-0.0674,2.4668-0.1006,3.7344-0.1006,3.7998
			c-0.1338,7.334-0.167,13.7344-0.0996,19.2002c0.0654,9.334,0.2998,16.6328,0.7002,21.8994l-17.6006,2.9004
			c0-0.1348,0.166-1.9004,0.5-5.2998l-15.3999-7l16-2.4004c0.4658-7,0.8657-15.165,1.2002-24.5
			c0-4.5996-0.0347-7.9658-0.1001-10.0996c-1.9346,4.5342-4.2671,9.5-7,14.8994c-0.6001,1.1348-1.9673,3.7002-4.1001,7.7002
			c-0.4673,0.7998-1.8999,2.7344-4.2998,5.7998c-2.3345,3-4,5.0352-5,6.1006c-0.8003,0.7998-4.1343,2.2666-10,4.3994
			C12.2002,95.6318,7.833,96.8994,5.5,97.0996c0.1328-0.2676,1.6001-1.9678,4.3999-5.1006c2.9331-3.2656,5.7656-7.0322,8.5-11.2998
			c0.0659-0.0654,0.2656-0.3652,0.6001-0.9004c0.3999-0.665,0.7329-1.1992,1-1.5996c1-1.5996,1.9326-3.166,2.7998-4.7002
			c2.666-4.7998,4.4004-9.0996,5.2002-12.8994c-1.1343,0.0664-3.5342,0.3994-7.2002,1c-2,0.334-4.7998,0.7998-8.3999,1.3994
			l-4.5-15.5c2.7329,0.1348,8.0659,0.0342,16-0.2998c9.6655-0.333,16.3003-0.833,19.8999-1.5l4.9004,2.4004
			c-0.3345-3.8662-0.6348-6.6328-0.9004-8.3008c-2.2671,0.0674-5.667,0.335-10.1997,0.8008
			c-5.3345,0.5996-9.8003,1.2344-13.3999,1.8994l-4.4004-16c5.4658,0.335,12.3657,0.3672,20.7002,0.1006
			c6.5327-0.2002,12.8999-0.5664,19.0996-1.1006c-3.7998-1-7.8994-1.833-12.2998-2.5c-5.5996-0.665-8.6997-1.0654-9.2998-1.2002
			L44.8999,5.999c19.1333,5,30.5659,9.335,34.3003,13l-3.6006,1.5l-4.5,9.1006c-1.2666-0.5332-3.0996-1.2656-5.5-2.2002
			c-0.334,5.1338-0.5,8.2998-0.5,9.5c2.4658,4.334,5.2334,8.5342,8.3008,12.5996c4.2656-5.9326,8.0322-12.8994,11.2998-20.8994
			L100,38.6992c-2.2676,2.5996-4.167,4.7344-5.7002,6.4004c-2.5342,2.8672-4.0996,4.5-4.7002,4.8994
			c-1.5996,1.335-5.334,3.335-11.1992,6c4.7998,5.7998,9.2656,10.5342,13.3994,14.2002c1.6006,1.5342,4.1006,3.5674,7.5,6.0996
			c2.7998,2.2002,4.5,3.6348,5.1006,4.3008l-3.5,0.3994L94.5,94.7988c-0.5996-0.2666-1.7344-0.7998-3.4004-1.5996
			c-1.8672-0.7324-3.2666-1.3652-4.1992-1.9004c-3.5352-1.5996-5.668-2.8994-6.4004-3.8994
			c-0.9346-1.0654-3.2002-5.2998-6.7998-12.7002C69.3652,65.9668,66.166,58.3994,64.0996,51.999z"/>
	</g>
</g>
</svg>
