<?xml version="1.0" encoding="utf-8"?>
<!-- Generator: Adobe Illustrator 25.2.1, SVG Export Plug-In . SVG Version: 6.00 Build 0)  -->
<svg version="1.1" id="レイヤー_1" xmlns="http://www.w3.org/2000/svg" xmlns:xlink="http://www.w3.org/1999/xlink" x="0px"
	 y="0px" viewBox="0 0 110 110" style="enable-background:new 0 0 110 110;" xml:space="preserve">
<style type="text/css">
	.st0{fill:#1E1E28;}
</style>
<g>
	<g>
		<path class="st0" d="M65.5,103.6992c-16.667-5.7998-31.2998-7.8672-43.8999-6.2002C29.3999,90.2334,38.0327,86.5996,47.5,86.5996
			v-27.5L8.5,98.499c-0.667-2.3994-0.9673-4.8672-0.8999-7.3994c-0.0674-17.333,8.3657-30.8662,25.2998-40.6006H8v-7.0996h39.5
			v-7.6006H20.2002v-7.6992h44.2002l-37.6006-8l8.9004-15.2002l9.3999,9.0996c7.4653-4.665,16.0327-5.3652,25.6997-2.0996
			c10.333,3.667,16.5332,10.834,18.6006,21.5L65.5,28.2988v9.7002l5.7998-2.2998L71,45.2988
			c2.5996,1.2002,5.2998,2.5674,8.0996,4.1006l11.8008-13.5l10.6992,7.5C100,48.666,96.7998,54.0996,92,59.6992
			c6.666,7.5996,10.0332,16.834,10.0996,27.7002c-0.0664,4.334-0.5996,9.0322-1.5996,14.0996l-35-45V103.6992z"/>
	</g>
</g>
</svg>
