<?xml version="1.0" encoding="utf-8"?>
<!-- Generator: Adobe Illustrator 25.2.1, SVG Export Plug-In . SVG Version: 6.00 Build 0)  -->
<svg version="1.1" id="レイヤー_1" xmlns="http://www.w3.org/2000/svg" xmlns:xlink="http://www.w3.org/1999/xlink" x="0px"
	 y="0px" viewBox="0 0 110 110" style="enable-background:new 0 0 110 110;" xml:space="preserve">
<style type="text/css">
	.st0{fill:#1E1E28;}
</style>
<g>
	<g>
		<path class="st0" d="M23.2998,68.3994c0.5332-1.1328,0.9331-2.0498,1.2002-2.75c0.2656-0.7002,0.6001-1.583,1-2.6504
			c0.1328-0.1328,0.2329-0.333,0.2998-0.5996c-1.8672,0-3.4497-0.0156-4.75-0.0498c-1.2998-0.0332-2.4844-0.083-3.5498-0.1504
			c-1.0674-0.0654-2.0845-0.1504-3.0498-0.25c-0.9673-0.0996-2.0503-0.2158-3.25-0.3496c-0.2002-0.666-0.3345-1.2334-0.4004-1.7002
			c-0.0669-0.4658-0.1343-0.9658-0.1997-1.5c-0.0674-0.5332-0.1001-1.2002-0.1001-2s0-1.833,0-3.1006
			c0-0.5322,0.0156-1.082,0.0498-1.6494c0.0332-0.5654,0.1157-1.3828,0.25-2.4502c1.6001-0.5332,3.1328-0.9326,4.6001-1.2002
			c1.4658-0.2656,3.1655-0.3994,5.1001-0.3994h3.3999l3.3999-0.1006h3.4004h1.1997c0.7329,0,1.5327-0.0322,2.3999-0.0996
			c0.1328,0,0.2329,0,0.3003,0c0.0654,0,0.1655,0,0.2998,0c0.2002,0,0.4829,0.0166,0.8501,0.0498
			c0.3657,0.0342,0.8828,0.084,1.5498,0.1504L39.5,47.7988c0.7329,0.0674,1.2656,0.1172,1.6001,0.1504
			c0.3325,0.0342,0.5654,0.0498,0.6997,0.0498c0.1328,0,0.2329,0.0176,0.3003,0.0498c0.0654,0.0352,0.2329,0.0508,0.5,0.0508
			c1,0.1338,1.5654,0.1836,1.6997,0.1494c0.1328-0.0322,0.5,0.0176,1.1001,0.1504c-0.1997,1.8672-0.5,3.9502-0.8999,6.25
			s-0.8672,4.75-1.3999,7.3496c-0.1343,0.667-0.3843,1.5674-0.75,2.7002c-0.3672,1.1348-0.8843,2.5996-1.5503,4.4004
			c-1,2.5996-1.7671,4.6172-2.2998,6.0498c-0.5342,1.4346-1.0342,2.6494-1.5,3.6494c-0.4673,1-0.9346,2-1.3999,3
			c-0.4673,1-1.1675,2.4004-2.1001,4.2002c-0.7998,1.6006-1.5342,3.0176-2.2002,4.25c-0.667,1.2344-1.334,2.4004-2,3.5
			c-0.667,1.1006-1.3843,2.2158-2.1499,3.3506C26.3828,98.2324,25.5,99.499,24.5,100.8994
			c-0.3999-0.2002-0.7842-0.3848-1.1499-0.5498c-0.3672-0.168-0.8003-0.4004-1.3003-0.7002s-1.1172-0.6846-1.8496-1.1504
			c-0.7344-0.4668-1.7002-1.0996-2.9004-1.8994c-0.7344-0.4678-1.3169-0.8506-1.75-1.1504
			c-0.4341-0.2998-0.7998-0.5674-1.0996-0.7998c-0.3003-0.2344-0.5674-0.4678-0.8003-0.7002
			c-0.2344-0.2344-0.5498-0.5498-0.9497-0.9502c0.1997-0.5322,0.3496-0.915,0.4497-1.1494c0.1001-0.2334,0.25-0.6162,0.4502-1.1504
			c0.5327-1.333,0.9829-2.4502,1.3501-3.3496c0.3652-0.9004,0.6152-1.416,0.75-1.5508l2.5-5.7998l2.5996-5.7998L23.2998,68.3994z
			 M20.5,30.6992c0-0.8652,0-1.4658,0-1.7998c0-0.333,0-0.5654,0-0.7002c0-0.2002,0.0156-0.3496,0.0498-0.4502
			c0.0332-0.0996,0.0503-0.3154,0.0503-0.6494c0.0654-0.7334,0.1001-1.2656,0.1001-1.6006c0-0.333,0-0.5996,0-0.7998
			c0-0.2656,0.0156-0.4824,0.0498-0.6504c0.0327-0.165,0.0498-0.3828,0.0498-0.6494c2.2656,1,3.9829,1.7666,5.1504,2.2998
			c1.1655,0.5342,2.1655,0.9668,3,1.2998c0.8325,0.335,1.6997,0.667,2.5996,1c0.9004,0.335,2.25,0.835,4.0503,1.5l-0.2002,0.2998
			c-1.2671,0.2002-2.2671,0.3672-3,0.5c-0.7344,0.1348-1.4341,0.2676-2.1001,0.4004c-0.667,0.1348-1.4497,0.2842-2.3496,0.4502
			c-0.9004,0.167-2.1846,0.417-3.8501,0.75c-0.8003,0.1338-1.3501,0.2344-1.6499,0.2998c-0.3003,0.0674-0.5,0.1172-0.6001,0.1504
			c-0.1001,0.0342-0.1846,0.0498-0.25,0.0498h-0.2002l-0.5,0.0996L20.5,32.5996V30.6992z M47.4502,53.249
			c0.1655-2.6328,0.3154-5.25,0.4497-7.8496c-3-0.1328-5.417-0.2334-7.25-0.2998c-1.8345-0.0664-3.3345-0.1504-4.5-0.25
			c-1.167-0.1006-2.167-0.2158-3-0.3506c-0.8345-0.1328-1.7842-0.2998-2.8501-0.5c-0.2671-1.1328-0.4341-2.0996-0.5-2.8994
			c-0.0669-0.8008-0.0996-1.7656-0.0996-2.9004c0-1,0.0327-1.9004,0.0996-2.7002c0.0659-0.7998,0.166-1.7998,0.3003-3
			c0.6655-0.333,1.7329-0.665,3.1997-1c1.4658-0.333,3.1157-0.6494,4.9502-0.9502c1.833-0.2998,3.7158-0.5498,5.6499-0.75
			c1.9331-0.1992,3.7002-0.332,5.3003-0.3994c0.1328,0,0.3325,0,0.5996,0c0.2656,0,0.5659-0.0332,0.9004-0.1006
			c-0.5347-0.1328-0.8848-0.2324-1.0503-0.2998c-0.167-0.0654-0.6172-0.2324-1.3501-0.5c-0.3999-0.1328-1.2998-0.3994-2.6997-0.7998
			c-2.2002-0.5996-4.3843-1.2832-6.5503-2.0498c-2.167-0.7656-4.5171-1.7158-7.0498-2.8506c0.0654-1.1328,0.2329-2.3652,0.5-3.6992
			c0.2656-1.333,0.6001-2.6504,1-3.9502s0.833-2.5,1.2998-3.6006c0.4658-1.0996,0.9004-1.9492,1.3003-2.5498
			C44.0327,9.7988,52,11.7666,60,14.8994c0.5996,0.2666,1,0.4346,1.2002,0.5c0.2002,0.0674,0.415,0.1494,0.6494,0.25
			c0.2334,0.0996,0.583,0.2344,1.0508,0.3994c0.4648,0.168,1.2998,0.4502,2.5,0.8506c0.5322,0.2002,0.9326,0.334,1.1992,0.3994
			c0.2656,0.0674,0.583,0.1846,0.9502,0.3506c0.3662,0.167,0.8506,0.3838,1.4502,0.6494c0.5996,0.2676,1.5332,0.668,2.7998,1.2002
			c0.7334,0.335,1.2656,0.585,1.6006,0.75c0.332,0.167,0.6152,0.2998,0.8496,0.4004c0.2324,0.0996,0.4326,0.1846,0.5996,0.25
			c0.166,0.0674,0.416,0.2002,0.75,0.3994c-0.2666,1.6006-0.6172,3.418-1.0498,5.4502c-0.4346,2.0342-0.917,3.8848-1.4502,5.5498
			c-0.2666,0.0674-0.584,0.1348-0.9492,0.2002c-0.3672,0.0674-0.8506,0.1348-1.4502,0.2002
			c-0.6006,0.0674-1.4004,0.0996-2.4004,0.0996c-0.9346,0-2.167,0-3.7002,0c0.1328,1.6006,0.25,2.8848,0.3506,3.8506
			c0.0996,0.9668,0.165,1.834,0.2002,2.5996c0.0322,0.7676,0.0654,1.585,0.0996,2.4502c0.0332,0.8672,0.0498,2.0342,0.0498,3.5
			c0.333-0.333,0.5654-0.5332,0.7002-0.5996c0.333-0.333,0.5654-0.5332,0.7002-0.6006c0.1328-0.0654,0.3994-0.2656,0.7998-0.5996
			c0.666-0.5332,1.6328-1.333,2.9004-2.4004c1.2656-1.0654,2.7656-2.3652,4.5-3.8994c1.1992-1,2.2822-1.9004,3.25-2.7002
			c0.9648-0.7998,1.9492-1.583,2.9492-2.3506c1-0.7656,2.083-1.5654,3.25-2.3994c1.166-0.833,2.583-1.8154,4.25-2.9502
			c0.2002,0.1348,0.3506,0.2344,0.4502,0.2998c0.1006,0.0674,0.2158,0.1504,0.3506,0.25c0.1328,0.1006,0.2998,0.25,0.5,0.4502
			c0.1992,0.2002,0.5,0.5,0.8994,0.9004C91,28.7988,91.2324,28.999,91.5,29.1992c0.5996,0.5342,1.083,0.9668,1.4502,1.2998
			c0.3652,0.335,0.7324,0.6846,1.0996,1.0498c0.3662,0.3672,0.75,0.7852,1.1504,1.25c0.3994,0.4678,0.9326,1.1006,1.5996,1.9004
			c-0.5342,1-1.0996,2.0176-1.7002,3.0498c-0.5996,1.0342-1.5342,2.5176-2.7998,4.4502c-1,1.5342-1.9844,2.9502-2.9502,4.25
			c-0.9668,1.2998-1.9336,2.5498-2.8994,3.75C85.4824,51.3994,84.5,52.5488,83.5,53.6494c-1,1.0996-2.0996,2.2168-3.2998,3.3496
			c0.2002,0.4004,0.3652,0.7002,0.5,0.9004c0.1328,0.2002,0.2822,0.4346,0.4502,0.7002c0.165,0.2666,0.3828,0.584,0.6494,0.9492
			c0.2656,0.3672,0.6328,0.918,1.1006,1.6504c0.1992,0.334,0.3496,0.5674,0.4492,0.7002c0.1006,0.1338,0.1836,0.25,0.25,0.3496
			c0.0664,0.1006,0.1504,0.2344,0.25,0.4004c0.1006,0.167,0.25,0.4502,0.4502,0.8496c0.7334,1.2002,1.2334,2.0674,1.5,2.6006
			c0.2656,0.4668,0.4502,0.7666,0.5498,0.8994c0.1006,0.1348,0.2002,0.2998,0.3008,0.5c0.0996,0.2002,0.2656,0.5176,0.5,0.9502
			c0.2324,0.4346,0.6152,1.1846,1.1494,2.25c0.5332,0.9346,0.833,1.4668,0.9004,1.5996c0.0654,0.1348,0.2324,0.4346,0.5,0.9004
			c1.2002,0.2676,2.1494,0.4668,2.8496,0.5996c0.7002,0.1348,1.416,0.2676,2.1504,0.4004c2.1328,0.4004,3.6328,0.6846,4.5,0.8496
			c0.8652,0.168,1.665,0.3506,2.3994,0.5508v0.8994c0,0.1348-0.0166,0.7344-0.0498,1.7998
			c-0.0342,1.0674-0.084,2.1006-0.1494,3.1006c-0.0674,0.8672-0.1172,1.584-0.1504,2.1494c-0.0342,0.5674-0.1172,1.168-0.25,1.8008
			c-0.1348,0.6338-0.2998,1.3994-0.5,2.2998c-0.2002,0.8994-0.4668,2.1494-0.7998,3.75h-1.1006
			c-0.1338,0-0.6172-0.0156-1.4492-0.0498c-0.835-0.0332-1.75-0.083-2.75-0.1504c-2-0.1328-3.75-0.2324-5.25-0.2998
			c-1.5-0.0654-2.8506-0.1504-4.0508-0.25c-1.1992-0.1006-2.3164-0.2002-3.3496-0.2998c-1.0342-0.1006-2.0498-0.2158-3.0498-0.3506
			c-0.4004-0.5996-0.7002-1.0654-0.9004-1.3994c-0.2002-0.333-0.4346-0.7334-0.7002-1.2002c-0.2666-0.4658-0.5996-1.1328-1-2
			c-0.3994-0.8662-1-2.166-1.7998-3.9004c-0.8672-1.9326-1.5342-3.3828-2-4.3496c-0.4668-0.9658-0.8672-1.9004-1.2002-2.7998
			c-0.334-0.9004-0.6992-1.9834-1.0996-3.25c-0.4004-1.2656-1-3.166-1.7998-5.7002c-0.335-1.0654-0.6006-1.8828-0.7998-2.4502
			c-0.2002-0.5654-0.335-1.0156-0.4004-1.3496c-0.0674-0.333-0.1172-0.6328-0.1504-0.9004c-0.0342-0.2656-0.084-0.5996-0.1494-1
			l-0.2998,0.0996c-0.0674,0.5352-0.1006,0.9004-0.1006,1.1006s0,0.4668,0,0.7998v1.2998c0,0.4678,0,0.7998,0,1
			s-0.0342,0.7344-0.0996,1.6006c0,0.0664,0,0.1992,0,0.3994s0,0.5,0,0.9004c0,0.3994-0.0176,0.9502-0.0498,1.6494
			c-0.0352,0.7002-0.0508,1.6172-0.0508,2.75c-0.0664,1.6006-0.1172,2.9502-0.1494,4.0508
			c-0.0342,1.0996-0.085,2.1338-0.1504,3.0996c-0.0674,0.9668-0.1338,1.917-0.2002,2.8496
			c-0.0664,0.9346-0.167,2.0674-0.2998,3.4004c-0.2002,2.5342-0.3994,4.667-0.5996,6.4004
			c-0.2002,1.7344-0.4678,3.7656-0.7998,6.0996C62.3652,97.332,61,97.4316,59.7998,97.499
			c-1.2002,0.0654-2.5996,0.1006-4.1997,0.1006c-4.1343,0-7.5347-0.1348-10.2002-0.4004c-2.667-0.2676-4.8672-0.7002-6.6001-1.2998
			c0-0.7344,0-1.335,0-1.7998c0-0.4004-0.0342-0.8672-0.0996-1.4004c-0.0674-1.2656-0.1172-2.4326-0.1504-3.5
			C38.5156,88.1338,38.5,87.3994,38.5,86.999c0-0.5322,0.0156-1.0322,0.0498-1.5c0.0332-0.4658,0.083-1.0654,0.1504-1.7998
			c0.2656-0.0654,0.4497-0.1152,0.5498-0.1504c0.1001-0.0322,0.2329-0.0654,0.3999-0.0996c0.1655-0.0332,0.4155-0.1152,0.75-0.25
			c0.333-0.1328,0.8999-0.333,1.7002-0.5996c0.7329-0.2656,1.4497-0.4658,2.1499-0.6006c0.7002-0.1328,1.6499-0.333,2.8501-0.5996
			v-5.2998l0.1001-14.9004C47.2002,58.5332,47.2827,55.8838,47.4502,53.249z M40.6001,22.1992
			c0.1328,0.0674,0.25,0.1172,0.3501,0.1504c0.0996,0.0342,0.3154,0.1172,0.6499,0.25c0.5327,0.2666,1.3999,0.6172,2.6001,1.0498
			c1.1997,0.4346,2.2324,0.7842,3.0996,1.0498c1.9331,0.5996,3.3003,1.0342,4.1001,1.2998c0.8003,0.2676,1.333,0.4502,1.6001,0.5498
			c0.2656,0.1006,0.3828,0.1348,0.3501,0.1006c-0.0347-0.0332,0.0498-0.0156,0.25,0.0498c0.3325,0.1348,0.5825,0.2168,0.75,0.25
			c0.1655,0.0342,0.2998,0.084,0.3999,0.1504s0.2329,0.1338,0.3999,0.1992c0.1655,0.0674,0.4502,0.168,0.8501,0.3008
			c0.1328-0.4658,0.2324-0.7334,0.2998-0.8008c0.2002-0.665,0.3154-1.0996,0.3506-1.2998c0.0322-0.2002,0.1152-0.5322,0.25-1
			c-0.6006-0.1328-1.0176-0.2158-1.2505-0.25c-0.2344-0.0322-0.5342-0.083-0.8999-0.1494
			c-0.3672-0.0664-0.8999-0.1836-1.6001-0.3506c-0.6997-0.165-1.75-0.415-3.1499-0.75c-0.3345-0.0654-0.6343-0.1328-0.8999-0.2002
			c-0.2671-0.0654-0.6499-0.1328-1.1499-0.1992s-1.1675-0.1504-2-0.25c-0.8345-0.1006-2.0176-0.25-3.5503-0.4502
			c0.0659,0-0.2344-0.0654-0.8999-0.2002h-0.7998L40.6001,22.1992z M60.7002,79.999c0.665-2.5996,1.1826-5.4658,1.5498-8.5996
			c0.3652-3.1328,0.583-6.4658,0.6504-10c-0.5352-0.1328-0.9844-0.2158-1.3506-0.25c-0.3672-0.0332-0.8174-0.1162-1.3496-0.25v1
			l-0.1006,0.5996v1.7998c0,0.335,0,0.5674,0,0.7002c0,0.0674,0,0.167,0,0.2998c0,0.1348-0.0166,0.3672-0.0498,0.7002
			C60.0156,66.334,60,66.8994,60,67.6992c0,1.334-0.0342,2.9004-0.0996,4.7002c0,1.1338,0.0498,2.4346,0.1494,3.8994
			c0.1006,1.4678,0.2158,2.668,0.3506,3.6006L60.7002,79.999z M87,32.3994c-1,0.667-1.9844,1.334-2.9502,2
			c-0.9668,0.667-1.9668,1.417-3,2.25c-1.0342,0.834-2.2002,1.7998-3.5,2.8994C76.25,40.6494,74.7324,41.9668,73,43.499
			c0.4658,0.4678,0.7832,0.7998,0.9502,1c0.165,0.2002,0.415,0.5674,0.75,1.1006c0.2002-0.1328,0.333-0.2334,0.3994-0.3008
			c0.0664-0.0654,0.1504-0.1494,0.25-0.25c0.1006-0.0996,0.2832-0.2656,0.5508-0.5c0.2656-0.2324,0.665-0.582,1.1992-1.0498
			c0.7334-0.5996,1.5332-1.333,2.4004-2.2002c0.8652-0.8652,1.75-1.75,2.6504-2.6494c0.8994-0.9004,1.7148-1.75,2.4492-2.5498
			c0.7334-0.8008,1.3008-1.4658,1.7002-2c0.0654-0.1328,0.1826-0.3164,0.3506-0.5508c0.165-0.2324,0.3496-0.5156,0.5498-0.8496
			L87,32.3994z M85.7998,60.999c-0.1338-0.2002-0.2344-0.3496-0.2998-0.4502c-0.0674-0.0996-0.3672-0.5156-0.9004-1.25L84,58.499
			c0.7998-0.7324,1.5-1.3828,2.0996-1.9502c0.6006-0.5654,1.0664-1.0498,1.4004-1.4492c0.666-0.7334,1.0498-1.166,1.1504-1.3008
			c0.0996-0.1328,0.3154-0.332,0.6494-0.5996c0.4658,1.7344,0.833,3.084,1.1006,4.0498c0.2656,0.9678,0.5,1.75,0.6992,2.3506
			c0.2002,0.5996,0.3828,1.1172,0.5508,1.5498c0.165,0.4346,0.3828,1.0166,0.6494,1.75c0.6006,1.5342,1.2334,3.0342,1.9004,4.5
			c0.665,1.4668,1.2656,2.9668,1.7998,4.5c-0.5342,0-0.834,0-0.9004,0s-0.5664-0.0332-1.5-0.1006c-0.1338,0-0.2998,0-0.5,0
			c-0.1338,0-0.334,0.0352-0.5996,0.1006c-0.2676-0.333-0.4668-0.6328-0.5996-0.9004c-0.1348-0.2656-0.2344-0.3994-0.3008-0.3994
			l-1.8994-3.2002l-2-3.2002L85.7998,60.999z"/>
	</g>
</g>
</svg>
