<?xml version="1.0" encoding="utf-8"?>
<!-- Generator: Adobe Illustrator 25.2.1, SVG Export Plug-In . SVG Version: 6.00 Build 0)  -->
<svg version="1.1" id="レイヤー_1" xmlns="http://www.w3.org/2000/svg" xmlns:xlink="http://www.w3.org/1999/xlink" x="0px"
	 y="0px" viewBox="0 0 110 110" style="enable-background:new 0 0 110 110;" xml:space="preserve">
<style type="text/css">
	.st0{fill:#1E1E28;}
</style>
<g>
	<g>
		<g>
			<path class="st0" d="M96.0996,68.4004c0,8.3999-2.7998,15.2173-8.3994,20.4502c-5.6006,5.2329-12.6348,7.8501-21.1006,7.8501
				c-3.7344,0-7-0.7344-9.7998-2.2002C53.2656,92.7007,51.5,90.0679,51.5,86.6006c0-2.1328,0.7324-3.9502,2.2002-5.4502
				c1.4658-1.5,3.2656-2.25,5.3994-2.25c2.1328,0,3.9658,0.6675,5.5,2c1.5332,1.3345,2.3008,3.0347,2.3008,5.1001
				c0,1.9346-0.8672,3.5498-2.6006,4.8501c-1.7344,1.2998-3.5996,1.8501-5.5996,1.6499c2,0.9326,3.9326,1.3999,5.7998,1.3999
				c6.0654,0,10.6328-3.0654,13.7002-9.1997c2.333-4.7329,3.5-10.4331,3.5-17.1001c0-4.6655-1-9-3-13
				c-2.2002-4.333-5.2344-7.5-9.1006-9.5c-4.9336,12.7998-11.0342,24.2173-18.2998,34.25
				c-7.2666,10.0342-15.167,15.0498-23.7002,15.0498c-4.8672,0-8.6338-1.9326-11.2998-5.7998c-2.334-3.333-3.5-7.5327-3.5-12.6001
				c0-6.7329,2.2998-13,6.9004-18.7998c4.2002-5.1328,9.5996-9.2002,16.2002-12.2002l-0.5-15.6001H14.5v-2.7998h20.7002
				l-0.5-13.1001h14.0996l0.1006,13.1001h42.7998v2.7998H48.9004l0.2998,11.7002C52.4004,40.3677,56,40.0005,60,40.0005
				c2.5332,0,5.2002,0.2002,8,0.6001c0.2002-0.5327,0.666-2.0659,1.4004-4.6001l0.5-1.7002L73,35.2007
				c-0.334,0.8672-0.9668,2.834-1.9004,5.8999c7.5332,1.4673,13.5,4.4341,17.9004,8.8999
				C93.7324,54.8677,96.0996,61.0005,96.0996,68.4004z M37.2998,88.1006L36,48.2007c-5.7998,2.9341-10.5,6.667-14.0996,11.1997
				c-4.0674,5.1343-6.1006,10.6675-6.1006,16.6001c0,4.0674,0.9326,7.5342,2.7998,10.3999c2.2002,3.3345,5.2334,5,9.1006,5
				C30.9004,91.4004,34.0996,90.3003,37.2998,88.1006z M66.9004,43.9004c-2.1348-0.6001-4.5674-0.8999-7.3008-0.8999
				c-4.4668,0-7.9336,0.2998-10.3994,0.8999l0.5996,32.3999C55.5332,69.1675,61.2324,58.3677,66.9004,43.9004z"/>
		</g>
	</g>
</g>
</svg>
