<?xml version="1.0" encoding="utf-8"?>
<!-- Generator: Adobe Illustrator 25.2.1, SVG Export Plug-In . SVG Version: 6.00 Build 0)  -->
<svg version="1.1" id="レイヤー_1" xmlns="http://www.w3.org/2000/svg" xmlns:xlink="http://www.w3.org/1999/xlink" x="0px"
	 y="0px" viewBox="0 0 110 110" style="enable-background:new 0 0 110 110;" xml:space="preserve">
<style type="text/css">
	.st0{fill:#1E1E28;}
</style>
<g>
	<g>
		<g>
			<path class="st0" d="M94.1001,68.0991c0,8.5342-2.8672,15.3672-8.6001,20.5c-5.3999,4.8657-12.0674,7.2998-20,7.2998
				c-3.5342,0-6.3999-0.6001-8.6001-1.7998c-2.3999-1.333-3.6001-3.1655-3.6001-5.5c0-1.2656,0.4658-2.3003,1.4004-3.1001
				c0.9326-0.7998,1.9653-1.2002,3.0996-1.2002c1.2656,0,2.333,0.4346,3.2002,1.3003c0.8657,0.8672,1.2998,1.8999,1.2998,3.1001
				c0,1.3999-0.6997,2.5996-2.0996,3.5996c1.1328,0.6001,2.5996,0.9004,4.3999,0.9004c5.9326,0,10.9653-2.1001,15.1001-6.3003
				C84.2329,82.2988,86.5,76.1992,86.5,68.5991c0-11.8003-5.2671-19.3999-15.7998-22.8003C66.2329,57.999,61,68.0991,55,76.0991
				c-8.2002,11-16.8999,16.5-26.1001,16.5c-4.1343,0-7.5171-1.4155-10.1499-4.25c-2.6343-2.833-3.9502-6.6499-3.9502-11.4502
				c0-6.6001,2.333-12.7827,7-18.5498c4.666-5.7656,10.9658-10.1499,18.9004-13.1499L40.1001,29.999H16.3999v-2.7998H40
				l-0.5-12.9004h7.1001l0.2998,12.9004h45.3003v2.7998H46.8999l0.3999,13.2002c3.9331-1,8.5-1.5,13.7002-1.5
				c2.6655,0,5.2329,0.1997,7.7002,0.5996c0.9326-2.5996,1.6328-5,2.0996-7.1997l3,0.7998
				c-0.3999,1.4673-1.0996,3.7671-2.0996,6.8999C86.6328,46.9336,94.1001,55.3662,94.1001,68.0991z M42.1001,85.1992
				l-1.3003-37.1001c-7.0669,2.8672-12.6841,6.8999-16.8496,12.1001c-4.1675,5.1997-6.25,10.7671-6.25,16.6997
				c0,3.8003,1.0654,6.9175,3.1997,9.3501c2.1328,2.4346,4.8003,3.6499,8,3.6499C33.4326,89.8989,37.833,88.3335,42.1001,85.1992z
				 M67.7998,45.0991c-2.2671-0.5327-4.5342-0.8003-6.7998-0.8003c-4.7344,0-9.2671,0.5674-13.6001,1.7002l0.8999,33.7998
				C56.0327,71.5332,62.5327,59.9663,67.7998,45.0991z"/>
		</g>
	</g>
</g>
</svg>
