<?xml version="1.0" encoding="utf-8"?>
<!-- Generator: Adobe Illustrator 25.2.1, SVG Export Plug-In . SVG Version: 6.00 Build 0)  -->
<svg version="1.1" id="レイヤー_1" xmlns="http://www.w3.org/2000/svg" xmlns:xlink="http://www.w3.org/1999/xlink" x="0px"
	 y="0px" viewBox="0 0 110 110" style="enable-background:new 0 0 110 110;" xml:space="preserve">
<style type="text/css">
	.st0{fill:#1E1E28;}
</style>
<g>
	<g>
		<g>
			<path class="st0" d="M95,68.4004c0,8.4673-2.7168,15.2847-8.1504,20.4502s-12.417,7.75-20.9492,7.75
				c-3.2676,0-6.1006-0.5347-8.5-1.6001c-3.1348-1.4673-4.7002-3.6328-4.7002-6.5c0-1.6001,0.5156-2.9326,1.5498-4
				c1.0332-1.0654,2.3496-1.6001,3.9502-1.6001c1.4658,0,2.75,0.5171,3.8496,1.5503c1.1006,1.0342,1.6504,2.2842,1.6504,3.75
				c0,2.5342-1.335,4.0669-4,4.5996c1.0654,0.7329,2.7324,1.1001,5,1.1001c6.5996,0,11.833-2.6655,15.7002-8
				C83.7998,81.1675,85.5,75.3677,85.5,68.5005c0-5.2002-1.2998-9.9155-3.9004-14.1499c-2.5996-4.2329-6.2666-7.2158-11-8.9502
				c-4.667,12.3999-9.8672,22.5674-15.5996,30.5c-8.4668,11.8003-17.4668,17.7002-27,17.7002c-4.5342,0-8.1348-1.6655-10.7998-5
				c-2.4678-3.1328-3.7002-7-3.7002-11.6001c0-7.2002,2.5654-13.7998,7.7002-19.7998C25.7998,51.9351,31.7324,47.8677,39,45.0005
				l-0.5-15.6001H15.2002v-2.7998h23.0996l-0.5-13.1001h9.2998L47.5,26.6006h45.0996v2.7998H47.5l0.0996,12.8999
				c4.666-0.9326,9.0332-1.3999,13.1006-1.3999c2.7324,0,5.3652,0.2671,7.8994,0.8003c0.4658-1.9331,1.166-4.2656,2.1006-7
				l3.0996,0.7998c-0.5996,1.667-1.2998,3.8999-2.0996,6.7002c7.0654,1.5996,12.6328,4.5342,16.7002,8.7998
				C92.7998,55.6006,95,61.4004,95,68.4004z M40.4004,86.5005l-1.3008-38.5c-6.4668,2.6001-11.7344,6.3345-15.7998,11.2002
				c-4.4668,5.334-6.7002,11.2671-6.7002,17.7998c0,3.667,0.9658,6.8345,2.9004,9.5c2.1328,2.9346,4.9658,4.3999,8.5,4.3999
				C32.4004,90.9004,36.5332,89.4351,40.4004,86.5005z M67.5,44.5005c-2.0674-0.6001-4.334-0.8999-6.7998-0.8999
				c-3.667,0-7.9346,0.5-12.7998,1.5L48.5,78.9004C55.9658,70.7676,62.2998,59.3003,67.5,44.5005z"/>
		</g>
	</g>
</g>
</svg>
