<?xml version="1.0" encoding="utf-8"?>
<!-- Generator: Adobe Illustrator 25.2.1, SVG Export Plug-In . SVG Version: 6.00 Build 0)  -->
<svg version="1.1" id="レイヤー_1" xmlns="http://www.w3.org/2000/svg" xmlns:xlink="http://www.w3.org/1999/xlink" x="0px"
	 y="0px" viewBox="0 0 110 110" style="enable-background:new 0 0 110 110;" xml:space="preserve">
<style type="text/css">
	.st0{fill:#1E1E28;}
</style>
<g>
	<g>
		<g>
			<path class="st0" d="M95.6001,68.4004c0,8.3999-2.75,15.2173-8.25,20.4502s-12.4844,7.8501-20.9502,7.8501
				c-3.667,0-6.7344-0.6348-9.1997-1.9004c-3.2002-1.667-4.8003-4.1328-4.8003-7.3999c0-1.7998,0.6001-3.25,1.8003-4.3501
				c1.1997-1.0996,2.6997-1.6499,4.5-1.6499c1.7998,0,3.3325,0.5,4.5996,1.5c1.2656,1,1.9004,2.3999,1.9004,4.2002
				c0,1.5342-0.6172,2.8501-1.8501,3.9497c-1.2344,1.1001-2.6172,1.6504-4.1499,1.6504c2.0654,0.7998,3.8999,1.1997,5.5,1.1997
				c6.3325,0,11.2324-2.8657,14.6997-8.6001c2.9331-4.7998,4.3999-10.5654,4.3999-17.2998c0-4.8657-1.167-9.3657-3.5-13.5
				c-2.5342-4.3999-5.9668-7.5-10.2998-9.2998c-4.6001,12.2671-9.7671,22.4668-15.5,30.5996
				c-8.4673,12.0674-17.3345,18.1001-26.6001,18.1001c-4.7344,0-8.4341-1.7656-11.1001-5.2998
				c-2.3999-3.2002-3.5996-7.2329-3.5996-12.1001c0-6.9326,2.4653-13.3657,7.3999-19.2998c4.3999-5.2656,10.0654-9.333,17-12.2002
				L37,29.4004H14.8999v-2.7998H37l-0.5-13.1001h11.3999l0.2002,13.1001h44v2.7998h-44L48.5,41.7007
				c3.8657-0.8003,7.8657-1.2002,12-1.2002c3,0,5.6001,0.2344,7.7998,0.7002c0.4004-1.4658,1.0659-3.7002,2-6.7002l3.1001,0.7002
				c-0.4673,1.4668-1.167,3.6343-2.1001,6.5c7.333,1.4668,13.1328,4.3999,17.4004,8.7998
				C93.2998,55.2349,95.6001,61.2007,95.6001,68.4004z M39.1001,87.2007l-1.3999-39.1001c-6.2002,2.667-11.2002,6.3672-15,11.1001
				c-4.3345,5.2671-6.5,11.0342-6.5,17.2998c0,3.9346,0.9326,7.2671,2.7998,10c2.2002,3.1343,5.1655,4.7002,8.8999,4.7002
				C31.3657,91.2007,35.1001,89.8677,39.1001,87.2007z M67.2002,44.1006c-2-0.4658-4.3345-0.7002-7-0.7002
				c-4.6001,0-8.5,0.3999-11.7002,1.2002L49,77.9004C55.6655,70.3003,61.7329,59.0347,67.2002,44.1006z"/>
		</g>
	</g>
</g>
</svg>
