<?xml version="1.0" encoding="utf-8"?>
<!-- Generator: Adobe Illustrator 25.2.1, SVG Export Plug-In . SVG Version: 6.00 Build 0)  -->
<svg version="1.1" id="レイヤー_1" xmlns="http://www.w3.org/2000/svg" xmlns:xlink="http://www.w3.org/1999/xlink" x="0px"
	 y="0px" viewBox="0 0 110 110" style="enable-background:new 0 0 110 110;" xml:space="preserve">
<style type="text/css">
	.st0{fill:#1E1E28;}
</style>
<g>
	<g>
		<g>
			<path class="st0" d="M99.1001,68.999c0,10.5342-3.7344,18.5342-11.2002,24c-6.667,4.8662-15.5342,7.2998-26.6001,7.2998
				L57,87.0996c-1.5342,1.5996-3.0674,3-4.6001,4.1992c-6.5342,5.333-13.4673,8-20.7998,8c-6.2671,0-11.2002-1.9336-14.8003-5.7998
				c-3.5996-3.8652-5.3999-8.8652-5.3999-15c0-7.9326,2.1655-14.9326,6.5-21c4.2656-5.8652,10.2329-10.3994,17.8999-13.5996
				c0.0659-1.2656,0.166-3.6006,0.3003-7c-6.8672,0.0674-13.7002,0-20.5-0.2002L15.2998,18.499
				c7.2656,0.5342,14.5659,0.835,21.9004,0.9004c0.1328-2.1328,0.3999-5.333,0.7998-9.6006l19.6001,0.7002
				c-0.3999,2.2002-0.8345,5.0342-1.3003,8.5c10.4004-0.4658,20.8657-1.3652,31.4004-2.7002L88,34.1992
				c-9.6001,1.0674-20.8999,1.834-33.8999,2.2998l-0.3003,3.1006C56,39.3994,58.3999,39.2988,61,39.2988
				c11.6655,0,20.7998,2.3672,27.3999,7.1006C95.5327,51.5332,99.1001,59.0664,99.1001,68.999z M35.6001,61.8994
				c-4.3345,3.7344-6.5,8.5996-6.5,14.5996c0,1.4678,0.3999,2.6006,1.1997,3.4004c0.8003,0.7998,1.666,1.2002,2.6001,1.2002
				c1.0659,0,2.2002-0.2334,3.3999-0.7002C35.8999,73.0664,35.6655,66.8994,35.6001,61.8994z M58.7002,54.6992
				c-1.8672,0.0674-3.9004,0.2344-6.1001,0.5c-0.2671,4.5342-0.3672,9.1348-0.3003,13.7998
				C54.7002,65.0664,56.833,60.2988,58.7002,54.6992z M61.1001,82.5996c7.2656-0.5332,12.3325-2.2656,15.1997-5.2002
				c2.0659-2.1328,3.1001-5.2656,3.1001-9.4004c0-4.2656-1.7671-7.5654-5.2998-9.8994
				C70.8999,67.6992,66.5654,75.8662,61.1001,82.5996z"/>
		</g>
	</g>
</g>
</svg>
