<?xml version="1.0" encoding="utf-8"?>
<!-- Generator: Adobe Illustrator 25.2.1, SVG Export Plug-In . SVG Version: 6.00 Build 0)  -->
<svg version="1.1" id="レイヤー_1" xmlns="http://www.w3.org/2000/svg" xmlns:xlink="http://www.w3.org/1999/xlink" x="0px"
	 y="0px" viewBox="0 0 110 110" style="enable-background:new 0 0 110 110;" xml:space="preserve">
<style type="text/css">
	.st0{fill:#1E1E28;}
</style>
<g>
	<g>
		<g>
			<path class="st0" d="M98.2998,66.6992c0,21.2676-14.0342,32.0996-42.0996,32.5V85.0996
				C48.6655,92.6338,40.6001,96.3994,32,96.3994c-5.7344,0-10.3672-1.7676-13.8999-5.2998
				c-4.2002-4.1328-6.3003-10.2334-6.3003-18.3008c0-6.2656,1.833-12.1328,5.5-17.5996c4.2656-6.333,10.4331-11,18.5-14l-0.0996-6
				H15.1001V19.0996h20.6001v-7.8008H52.5v7.8008H95V34.499H52.1001v3.2998c2.6001-0.1992,4.6655-0.2998,6.1997-0.2998
				c13.7329,0,24.0659,2.9678,31,8.9004C95.2998,51.4668,98.2998,58.2334,98.2998,66.6992z M39.7002,77.3994
				C38.1001,72.666,37,65.9336,36.3999,57.1992c-5.7344,3.9346-8.6001,9.1348-8.6001,15.5996c0,4.8008,1.9658,7.2002,5.9004,7.2002
				C35.3657,79.999,37.3657,79.1338,39.7002,77.3994z M60.2998,51.3994h-2.5996c-1.8672,0-3.6675,0.0996-5.4004,0.2998
				c0.2002,6.0674,0.4658,10.7344,0.8003,14C55.4326,61.8994,57.833,57.1338,60.2998,51.3994z M80.7002,66.3994
				c0-4.5332-1.8672-8.1006-5.6001-10.7002c-5.0674,11.334-10.5674,20.2998-16.5,26.9004
				C73.333,81.4668,80.7002,76.0664,80.7002,66.3994z"/>
		</g>
	</g>
</g>
</svg>
