<?xml version="1.0" encoding="utf-8"?>
<!-- Generator: Adobe Illustrator 25.2.1, SVG Export Plug-In . SVG Version: 6.00 Build 0)  -->
<svg version="1.1" id="レイヤー_1" xmlns="http://www.w3.org/2000/svg" xmlns:xlink="http://www.w3.org/1999/xlink" x="0px"
	 y="0px" viewBox="0 0 110 110" style="enable-background:new 0 0 110 110;" xml:space="preserve">
<style type="text/css">
	.st0{fill:#1E1E28;}
</style>
<g>
	<g>
		<g>
			<path class="st0" d="M96.5,67.9004c0,9-3.4673,16.3008-10.3999,21.9004c-5.4673,4.4004-12.3999,7.3652-20.8003,8.9004l-4.0996-11
				c5.4653-0.9336,10.3325-2.833,14.5996-5.7002c5.9331-3.9326,8.9004-8.7998,8.9004-14.6006
				c0-6.5322-3.4673-11.4648-10.4004-14.7998l-28.7998,44c-9.7344-0.2666-17.4673-2.5674-23.2002-6.8994
				c-5.9341-4.4004-8.8999-10.3662-8.8999-17.9004c0-6.7324,2.3003-12.8154,6.8999-18.25
				c4.6001-5.4326,10.8657-9.3496,18.8003-11.75v-8.2002C30.3657,33.7354,22.833,33.8008,16.5,33.8008l-0.2998-11.0996
				c7.7324,0.1992,15.4326,0.2666,23.0996,0.1992c0-2.332,0.0332-5.832,0.1001-10.5h11.3003
				c-0.0674,2.2676-0.1675,5.7002-0.3003,10.3008c13.1328-0.333,27.1001-1.0332,41.8999-2.1006l0.3003,11.4004
				c-13.1343,0.5996-27.2671,1.0674-42.3999,1.3994c-0.0674,3.668-0.1001,5.9678-0.1001,6.9004c3.1997-0.333,6.1328-0.5,8.7998-0.5
				c12.4658,0,22.0327,2.7676,28.7002,8.2998C93.5327,53.1006,96.5,59.7012,96.5,67.9004z M46.7002,74.501l-7.6001,0.0996v-22
				c-9.5347,3.7998-14.3003,9.9346-14.3003,18.4004c0,7.8672,4.9004,12.4346,14.7002,13.7002L46.7002,74.501z M63,49.501
				c-1.667-0.2002-3.3672-0.2998-5.1001-0.2998c-2.5342,0-5.2344,0.167-8.1001,0.5c0,0.8672-0.0342,3.8672-0.0996,9
				c0,4.9336,0,8.7998,0,11.5996L63,49.501z"/>
		</g>
	</g>
</g>
</svg>
