<?xml version="1.0" encoding="utf-8"?>
<!-- Generator: Adobe Illustrator 25.2.1, SVG Export Plug-In . SVG Version: 6.00 Build 0)  -->
<svg version="1.1" id="レイヤー_1" xmlns="http://www.w3.org/2000/svg" xmlns:xlink="http://www.w3.org/1999/xlink" x="0px"
	 y="0px" viewBox="0 0 110 110" style="enable-background:new 0 0 110 110;" xml:space="preserve">
<style type="text/css">
	.st0{fill:#1E1E28;}
</style>
<g>
	<g>
		<g>
			<path class="st0" d="M97.7002,66.5996c0,20.667-13.667,31.3652-41,32.0996V84.0996c16.9326-0.9336,25.3994-6.833,25.3994-17.7002
				c0-5.6006-2.5664-9.833-7.6992-12.7002c-5.4678,13.2002-11.668,23.3672-18.6006,30.5
				c-7.4668,7.7344-15.4346,11.5996-23.8994,11.5996c-5.5352,0-10-1.7666-13.4004-5.2998c-4-4-6-9.833-6-17.5
				c0-6.3994,1.8652-12.333,5.5996-17.7998C22.3652,48.9336,28.5,44.2988,36.5,41.2988c0-1.4648,0-3.7656,0-6.8994H15.7002V20.0996
				H36.5v-8.4004h14.9004v8.4004h43.1992V33.999H51v4.1006c2.7324-0.2656,5.2656-0.4004,7.5996-0.4004
				c13.333,0,23.4004,2.9004,30.2002,8.7002C94.7324,51.4668,97.7002,58.1992,97.7002,66.5996z M40.4004,78.1992
				C38.666,72.7334,37.5332,65.166,37,55.499c-6.7998,4.2002-10.2002,10.0342-10.2002,17.5c0,2.6006,0.6162,4.6172,1.8506,6.0498
				c1.2324,1.4346,2.8154,2.1504,4.75,2.1504C35.4658,81.1992,37.7998,80.1992,40.4004,78.1992z M61.0996,50.2988
				c-2-0.1328-3.0342-0.1992-3.0996-0.1992c-2.2002,0-4.4668,0.167-6.7998,0.5c0.2002,7.334,0.5654,13.1338,1.0996,17.3994
				C55.2998,63.334,58.2324,57.4336,61.0996,50.2988z"/>
		</g>
	</g>
</g>
</svg>
