<?xml version="1.0" encoding="utf-8"?>
<!-- Generator: Adobe Illustrator 25.2.1, SVG Export Plug-In . SVG Version: 6.00 Build 0)  -->
<svg version="1.1" id="レイヤー_1" xmlns="http://www.w3.org/2000/svg" xmlns:xlink="http://www.w3.org/1999/xlink" x="0px"
	 y="0px" viewBox="0 0 110 110" style="enable-background:new 0 0 110 110;" xml:space="preserve">
<style type="text/css">
	.st0{fill:#1E1E28;}
</style>
<g>
	<g>
		<g>
			<path class="st0" d="M94.5,71.0996c0,8.3994-3.0674,16.8994-9.2002,25.5l-6.8994-3.2002c6-8.2002,9-15.7334,9-22.6006
				c0-5-1.25-9.3652-3.75-13.0996c-2.5-3.7324-5.8848-6.5996-10.1504-8.5996c-5.8672,16.5996-13.9004,29.0342-24.0996,37.2998
				c0.332,2.7998,0.665,5.167,1,7.0996l-7,1.2002c-0.0674-0.8672-0.2002-2.2002-0.4004-4c-3.8672,2-7.667,3-11.4004,3
				c-4.7998,0-8.667-1.4658-11.5996-4.4004c-3.1348-3-4.7002-7.165-4.7002-12.5c0-7.3994,2.2656-14.0654,6.7998-20
				c4.8008-6.3994,11.5-10.9648,20.1006-13.6992C42.333,40.2988,42.5996,36.334,43,31.1992c-9.8672,0.1348-17.8672,0.334-24,0.5996
				V24.999c5.7998-0.2002,13.9658-0.3652,24.5-0.5c0.1328-1.7324,0.5332-5.5,1.2002-11.2998l7.2998,0.5
				c-0.5996,4.334-1.0674,7.9004-1.4004,10.7002c16.2656-0.2002,30.8662-0.2998,43.8008-0.2998v6.7998
				c-13.668,0-28.5,0.0996-44.5,0.2998C49.5,35.5332,49.2002,38.9336,49,41.3994c4-0.7334,7.9658-1.1006,11.9004-1.1006
				c2.3994,0,5,0.2344,7.7998,0.7002c0.2656-1,0.6328-2.5,1.0996-4.5l7,1.4004c-0.3994,1.5996-0.834,3.2344-1.2998,4.8994
				c6,2.2002,10.666,5.7344,14,10.6006C92.833,58.2666,94.5,64.166,94.5,71.0996z M41.9004,49.7988
				c-6.335,2.4678-11.2676,6.2002-14.8008,11.2002c-3.2666,4.667-4.8994,9.7676-4.8994,15.2998c0,3.1348,0.915,5.668,2.75,7.6006
				c1.833,1.9346,4.1494,2.8994,6.9502,2.8994c3.332,0,6.7998-1.1328,10.3994-3.3994c-0.4668-6.333-0.7002-12.7656-0.7002-19.2998
				C41.5996,59.5664,41.7002,54.7988,41.9004,49.7988z M66.9004,46.999c-2.0674-0.3994-4.168-0.5996-6.3008-0.5996
				c-4,0-8,0.4668-12,1.3994c-0.334,6-0.5,11.5352-0.5,16.6006c0,4.7344,0.166,9.3994,0.5,14
				C56.4004,70.7334,62.5,60.2666,66.9004,46.999z"/>
		</g>
	</g>
</g>
</svg>
