<?xml version="1.0" encoding="utf-8"?>
<!-- Generator: Adobe Illustrator 25.2.1, SVG Export Plug-In . SVG Version: 6.00 Build 0)  -->
<svg version="1.1" id="レイヤー_1" xmlns="http://www.w3.org/2000/svg" xmlns:xlink="http://www.w3.org/1999/xlink" x="0px"
	 y="0px" viewBox="0 0 110 110" style="enable-background:new 0 0 110 110;" xml:space="preserve">
<style type="text/css">
	.st0{fill:#1E1E28;}
</style>
<g>
	<g>
		<g>
			<path class="st0" d="M94.5996,67.8008c0,8.8672-3.3994,15.834-10.1992,20.9004c-5.668,4.2666-13.1006,6.832-22.3008,7.6992
				L59,89.2012c8.1328-0.6006,14.5996-2.6006,19.4004-6c5.4648-3.8008,8.1992-9.0332,8.1992-15.7002c0-10.333-5.334-16.666-16-19
				C66.0654,59.2354,60.5332,68.6006,54,76.6006c-8.7344,10.667-17.2344,16-25.5,16c-4.0674,0-7.2344-1.2998-9.5-3.8994
				c-2-2.333-3-5.333-3-9c0-7.333,2.2656-14.1328,6.7998-20.4004c4.2656-5.8652,10-10.4658,17.2002-13.7998
				c0.2002-4.0654,0.5332-8.4326,1-13.1006c-7.8672,0.335-15.167,0.3672-21.9004,0.1006l-0.2998-7.5
				c7.7334,0.4668,15.3662,0.5996,22.9004,0.3994c0.665-5.3994,1.2656-9.8652,1.7998-13.3994l7.7002,0.5
				c-0.7344,4.2002-1.4004,8.3994-2,12.5996c10.7998-0.5996,21.7998-1.9326,33-4l0.2998,7.5
				c-10.8672,1.667-22.2344,2.835-34.0996,3.5c-0.4004,3.2676-0.7344,6.9346-1,11c4.4648-1.3994,8.9648-2.0996,13.5-2.0996
				c10,0,17.8994,2,23.6992,6C91.2656,51.5352,94.5996,58.4678,94.5996,67.8008z M41,79.4004
				c-0.9346-8.2656-1.2998-17.0654-1.0996-26.3994c-4.9346,2.7344-8.9346,6.3994-12,11c-3.0674,4.5996-4.6006,9.5-4.6006,14.7002
				c0,1.7998,0.5156,3.334,1.5498,4.5996c1.0332,1.2676,2.3828,1.9004,4.0508,1.9004C32.6328,85.2012,36.666,83.2676,41,79.4004z
				 M63.5,47.501c-0.8672-0.0654-1.5996-0.1006-2.2002-0.1006c-4.7998,0-9.5674,0.835-14.2998,2.5
				c-0.334,8.2676-0.167,16.168,0.5,23.7002C54.2324,65.8682,59.5654,57.168,63.5,47.501z"/>
		</g>
	</g>
</g>
</svg>
