<?xml version="1.0" encoding="utf-8"?>
<!-- Generator: Adobe Illustrator 25.2.1, SVG Export Plug-In . SVG Version: 6.00 Build 0)  -->
<svg version="1.1" id="レイヤー_1" xmlns="http://www.w3.org/2000/svg" xmlns:xlink="http://www.w3.org/1999/xlink" x="0px"
	 y="0px" viewBox="0 0 110 110" style="enable-background:new 0 0 110 110;" xml:space="preserve">
<style type="text/css">
	.st0{fill:#1E1E28;}
</style>
<g>
	<g>
		<g>
			<path class="st0" d="M94.6001,67.8005c0,8.8672-3.3999,15.8345-10.2002,20.9004c-5.667,4.2671-13.1001,6.8325-22.2998,7.6997
				L59,89.2009c8.1328-0.6001,14.6001-2.6001,19.3999-6c5.4658-3.8003,8.2002-9.0332,8.2002-15.7002c0-10.333-5.3345-16.6655-16-19
				C66.0654,59.2351,60.5327,68.6008,54,76.6008c-8.7344,10.667-17.2344,16-25.5,16c-4.0674,0-7.2344-1.3003-9.5-3.8999
				c-2-2.333-3-5.333-3-9c0-7.333,2.2656-14.1328,6.7998-20.4004c4.2656-5.8652,10-10.4653,17.2002-13.7998
				c0.2002-4.0654,0.5327-8.4326,1-13.1001c-7.8672,0.3345-15.167,0.3672-21.8999,0.1001l-0.3003-7.5
				c7.7329,0.4673,15.3657,0.6001,22.9004,0.3999c0.6655-5.3999,1.2656-9.8657,1.7998-13.3999l7.7002,0.5
				c-0.7344,4.2002-1.4004,8.3999-2,12.6001c10.7998-0.6001,21.7998-1.9331,33-4l0.2998,7.5
				c-10.8672,1.667-22.2344,2.8345-34.1001,3.5c-0.3999,3.2671-0.7344,6.9341-1,11c4.4658-1.3999,8.9658-2.1001,13.5-2.1001
				c10,0,17.8999,2,23.7002,6C91.2656,51.5349,94.6001,58.468,94.6001,67.8005z M41,79.4006
				c-0.9346-8.2656-1.2998-17.0654-1.1001-26.3999c-4.9341,2.7344-8.9341,6.3999-12,11c-3.0669,4.6001-4.6001,9.5-4.6001,14.7002
				c0,1.7998,0.5156,3.334,1.5503,4.5996c1.0327,1.2676,2.3828,1.9004,4.0498,1.9004C32.6328,85.2009,36.6655,83.2678,41,79.4006z
				 M63.5,47.5007c-0.8672-0.0654-1.6001-0.1001-2.2002-0.1001c-4.7998,0-9.5669,0.8345-14.2998,2.5
				c-0.3345,8.2671-0.167,16.1675,0.5,23.7002C54.2329,65.8679,59.5654,57.1677,63.5,47.5007z"/>
		</g>
	</g>
</g>
</svg>
