<?xml version="1.0" encoding="utf-8"?>
<!-- Generator: Adobe Illustrator 25.2.1, SVG Export Plug-In . SVG Version: 6.00 Build 0)  -->
<svg version="1.1" id="レイヤー_1" xmlns="http://www.w3.org/2000/svg" xmlns:xlink="http://www.w3.org/1999/xlink" x="0px"
	 y="0px" viewBox="0 0 110 110" style="enable-background:new 0 0 110 110;" xml:space="preserve">
<style type="text/css">
	.st0{fill:#1E1E28;}
</style>
<g>
	<g>
		<g>
			<path class="st0" d="M95.2002,67.6992c0,8.2676-3.2676,15.167-9.8003,20.7002c-5.2671,4.3994-11.7671,7.3652-19.5,8.8994
				l-2.7998-7.1992c5.7998-1,11.0327-3.2002,15.6997-6.6006c5.9331-4.3994,8.9004-9.7324,8.9004-16
				c0-8.9326-4.8672-15-14.6001-18.2002L43.7002,94.999c-8.8672-0.334-15.9004-2.6152-21.1001-6.8496
				c-5.2002-4.2334-7.8003-9.7158-7.8003-16.4502c0-6.333,2.2656-12.0996,6.8003-17.2998
				c4.6655-5.4658,11.0327-9.3662,19.1001-11.7002c0.0654-2.4004,0.1328-6.0332,0.1997-10.9004
				c-3.7344,0.0674-11.6343,0.1348-23.6997,0.2002L17,24.7988c8.4658,0.1348,16.4658,0.1348,24,0l0.2002-11.1992h7.3999l-0.3999,11
				c14.3999-0.333,29.0327-0.9658,43.8999-1.9004l0.1997,7.4004C76.5,30.7666,61.7329,31.2666,48,31.5996
				c0,2.2666-0.0342,5.5996-0.1001,10c3.8003-0.666,7.5-1,11.1001-1c11.8657,0,21.0327,2.667,27.5,8
				C92.2998,53.4668,95.2002,59.834,95.2002,67.6992z M65.7002,47.2988c-2.6001-0.332-5.0347-0.5-7.3003-0.5
				c-3.667,0-7.2344,0.3008-10.6997,0.9004c0,14.2002,0.0327,23.0342,0.0996,26.5l-6.8999,0.0996
				c-0.1343-4.0654-0.1997-12.2998-0.1997-24.6992c-5.9346,2-10.5,4.9492-13.7002,8.8496s-4.7998,8.1846-4.7998,12.8496
				c0,4.4678,1.6655,8.168,5,11.1006c3.1328,2.7998,7.3652,4.4346,12.6997,4.8994l9.2002-13.6992L65.7002,47.2988z"/>
		</g>
	</g>
</g>
</svg>
