<?xml version="1.0" encoding="utf-8"?>
<!-- Generator: Adobe Illustrator 25.2.1, SVG Export Plug-In . SVG Version: 6.00 Build 0)  -->
<svg version="1.1" id="レイヤー_1" xmlns="http://www.w3.org/2000/svg" xmlns:xlink="http://www.w3.org/1999/xlink" x="0px"
	 y="0px" viewBox="0 0 110 110" style="enable-background:new 0 0 110 110;" xml:space="preserve">
<style type="text/css">
	.st0{fill:#1E1E28;}
</style>
<g>
	<g>
		<g>
			<path class="st0" d="M98.5996,69.6992c0,8.7998-3.0996,16.0674-9.2998,21.7998c-5.9346,5.4658-13.9346,8.9658-24,10.5
				l-9.2002-14.7998c16.333-2.4658,24.5-8.5654,24.5-18.2998c0-4.2656-1.834-7.7998-5.5-10.6006
				c-5.667,9.9346-13.0342,18.7676-22.0996,26.5c0.4658,2.7344,1.0332,5.5,1.7002,8.3008l-16,3.3994
				c-0.0674-0.5996-0.2002-1.5342-0.4004-2.7998c-4.334,1.7324-8.3672,2.5996-12.0996,2.5996c-4,0-7.4004-1.167-10.2002-3.5
				c-3.334-2.7998-5-6.665-5-11.5996c0-7.333,2.5332-14.166,7.5996-20.5c4.5332-5.7324,10.6328-10.4326,18.3008-14.0996
				c0.1328-1.6006,0.4326-4.833,0.8994-9.7002h-0.3994c-6.8008-0.0654-12.7002-0.666-17.7002-1.7998l2.5996-16.3008
				c4.7998,1.335,10.6006,2.0674,17.4004,2.2002c0.4658-3.0654,1.165-7.1328,2.0996-12.2002l17.6006,1.4004
				c-1.0674,3.667-1.9346,6.7676-2.6006,9.2998c6-1.2002,11.3662-3.0322,16.1006-5.5L75.5,29.7988
				c-6.1348,2.8672-13.4668,4.9004-22,6.1006c-0.334,1.9346-0.5996,3.7666-0.7998,5.5c3.5996-0.666,6.8994-1,9.8994-1
				c0.6006,0,1.833,0.0674,3.7002,0.2002c0.666-1.7334,1.2002-3.3008,1.6006-4.7002l15.5,4.2998
				c-0.6006,1.667-1.1348,3.0674-1.6006,4.2002C93,49.5996,98.5996,58.0332,98.5996,69.6992z M36.5,78.1992
				c-0.334-4.9326-0.4668-9.5332-0.4004-13.7998l0.1006-2c-6.335,4.7344-9.5,9.6338-9.5,14.7002
				c0,2.1338,1.0322,3.1992,3.0996,3.1992C31.333,80.2988,33.5654,79.5996,36.5,78.1992z M60.4004,53.8994h-0.8008
				c-2.334,0-5.0664,0.3994-8.1992,1.2002l-0.1006,5.7998c-0.0674,2.5996-0.0674,4.7002,0,6.2998
				C54.5654,63.5996,57.5996,59.166,60.4004,53.8994z"/>
		</g>
	</g>
</g>
</svg>
