<?xml version="1.0" encoding="utf-8"?>
<!-- Generator: Adobe Illustrator 25.2.1, SVG Export Plug-In . SVG Version: 6.00 Build 0)  -->
<svg version="1.1" id="レイヤー_1" xmlns="http://www.w3.org/2000/svg" xmlns:xlink="http://www.w3.org/1999/xlink" x="0px"
	 y="0px" viewBox="0 0 110 110" style="enable-background:new 0 0 110 110;" xml:space="preserve">
<style type="text/css">
	.st0{fill:#1E1E28;}
</style>
<g>
	<g>
		<g>
			<path class="st0" d="M96.4004,66.499c0,19.4004-12.9678,29.833-38.9004,31.2998V86.8994
				c18.2656-1.4658,27.4004-8.333,27.4004-20.6006c0-7.5996-4.0352-13-12.1006-16.1992c-5,13.7998-11.0674,24.6494-18.2002,32.5498
				C47.4658,90.5488,39.8652,94.499,31.7998,94.499c-5.1338,0-9.2998-1.7324-12.5-5.2002c-3.5996-3.7998-5.3994-9.1328-5.3994-16
				c0-6.5322,2-12.5654,6-18.0996c4.332-6.0654,10.3994-10.5654,18.1992-13.5C38.0332,36.2334,38,33.334,38,32.999H16.7002V22.2988
				H38v-9.5996h11.2002v9.5996h44.5996V32.999H48.9004v5.9004c3.1328-0.4658,6.5-0.7002,10.0996-0.7002
				c12.5332,0,22.0996,2.7998,28.7002,8.4004C93.5,51.5996,96.4004,58.2334,96.4004,66.499z M41.7002,79.7988
				c-1.8672-6.9326-3-16.0996-3.4004-27.5c-9.1338,4.8008-13.7002,11.8008-13.7002,21c0,3.2002,0.7832,5.7178,2.3506,7.5508
				c1.5654,1.834,3.5498,2.75,5.9502,2.75C35.7002,83.5996,38.6328,82.334,41.7002,79.7988z M62.7002,47.8994
				c-1.5342-0.1328-2.9346-0.2002-4.2002-0.2002c-3.2676,0-6.4346,0.2998-9.5,0.9004c0.2002,10.2666,0.7324,18.167,1.5996,23.6992
				C55.2656,65.8994,59.2998,57.7666,62.7002,47.8994z"/>
		</g>
	</g>
</g>
</svg>
