<?xml version="1.0" encoding="utf-8"?>
<!-- Generator: Adobe Illustrator 25.2.1, SVG Export Plug-In . SVG Version: 6.00 Build 0)  -->
<svg version="1.1" id="レイヤー_1" xmlns="http://www.w3.org/2000/svg" xmlns:xlink="http://www.w3.org/1999/xlink" x="0px"
	 y="0px" viewBox="0 0 110 110" style="enable-background:new 0 0 110 110;" xml:space="preserve">
<style type="text/css">
	.st0{fill:#1E1E28;}
</style>
<g>
	<g>
		<g>
			<path class="st0" d="M95.7002,66.3994c0,18.667-12.5347,28.9326-37.6001,30.7998v-9
				c18.7329-1.7324,28.1001-9.0332,28.1001-21.9004c0-8.7324-4.7676-14.6992-14.3003-17.8994
				C67.1001,62.5332,61.1328,73.6992,54,81.8994c-6.8672,7.8672-14.2671,11.7998-22.2002,11.7998c-4.9341,0-8.9341-1.7002-12-5.0996
				c-3.3999-3.666-5.0996-8.7334-5.0996-15.2002c0-6.6006,2.0327-12.7002,6.0996-18.2998
				c4.333-5.9336,10.3657-10.333,18.1001-13.2002c-0.0669-6.4004-0.1001-9.6328-0.1001-9.7002H17.3999v-8.7998h21.3999V13.2988
				h9.3003v10.1006h45.1001v8.7998H47.7998v7.2998c3.4004-0.5996,7.2002-0.8994,11.4004-0.8994
				c12.1328,0,21.3999,2.7344,27.7998,8.1992C92.7998,51.666,95.7002,58.1992,95.7002,66.3994z M42.3999,80.5996
				c-1.9341-7.7334-3.0669-17.7334-3.3999-30c-10.2671,5-15.3999,12.5996-15.3999,22.7998c0,3.4668,0.8657,6.2168,2.6001,8.25
				c1.7324,2.0342,3.8999,3.0498,6.5,3.0498C35.833,84.6992,39.0654,83.334,42.3999,80.5996z M63.3999,46.5996
				c-1.3999-0.1328-2.9341-0.2002-4.6001-0.2002c-3.7998,0-7.4668,0.3994-11,1.2002c0.0659,11.667,0.7002,20.6338,1.9004,26.8994
				C54.9658,67.834,59.5327,58.5332,63.3999,46.5996z"/>
		</g>
	</g>
</g>
</svg>
