<?xml version="1.0" encoding="utf-8"?>
<!-- Generator: Adobe Illustrator 25.2.1, SVG Export Plug-In . SVG Version: 6.00 Build 0)  -->
<svg version="1.1" id="レイヤー_1" xmlns="http://www.w3.org/2000/svg" xmlns:xlink="http://www.w3.org/1999/xlink" x="0px"
	 y="0px" viewBox="0 0 110 110" style="enable-background:new 0 0 110 110;" xml:space="preserve">
<style type="text/css">
	.st0{fill:#1E1E28;}
</style>
<g>
	<g>
		<g>
			<path class="st0" d="M97.2998,69.999c-0.0674,8.335-3.0996,15.2002-9.0996,20.6006c-5.667,5.1328-13.4004,8.4648-23.2002,10
				L57.7998,88.999c17-2.4658,25.5-9.0322,25.5-19.7002c0-6.2656-3.2666-10.7998-9.7998-13.5996
				C67.9004,65.9668,60.7002,75.0664,51.9004,82.999c0.3994,2.2002,1.0322,4.9004,1.8994,8.1006L41.2002,93.999
				c-0.1348-0.667-0.335-1.6328-0.6006-2.8994C35.4004,93.832,30.5332,95.1992,26,95.1992c-3.5996,0-6.6348-1.0674-9.0996-3.2002
				c-2.8008-2.4658-4.2002-5.8994-4.2002-10.2998c0-6.9326,2.5996-13.4326,7.7998-19.5c4.5996-5.4658,10.7324-9.9658,18.4004-13.5
				C39.166,44.499,39.5332,40.2666,40,35.999c-8.0674,0.335-14.3672,0.1348-18.9004-0.5996L23,22.5996
				c4.5996,0.9336,10.7998,1.2666,18.5996,1c0.666-4.4658,1.4336-9.0664,2.3008-13.8008l13.8994,1.2002
				c-1.0674,3.335-2.0674,7.0674-3,11.2002c6.4658-1.2002,12.1006-3.0332,16.9004-5.5l2,12.5
				c-5.7344,2.667-12.8672,4.5996-21.4004,5.7998c-0.4668,2.7998-0.8672,5.9346-1.2002,9.4004c4.1328-1,8.2656-1.5,12.4004-1.5
				h2.7998c0.8662-2.0654,1.6328-4.166,2.2998-6.2998l12.1006,3.6992c-0.4004,1.1348-1.0674,2.7676-2,4.9004
				c5.7998,2,10.333,5.0674,13.5996,9.2002C95.6328,58.7334,97.2998,63.9336,97.2998,69.999z M39,78.5996
				c-0.5342-5.7334-0.7344-11.5332-0.5996-17.4004v-0.5C29.4658,66.3662,25,72.3994,25,78.7988
				c0,2.6006,1.2998,3.9004,3.9004,3.9004C31.3652,82.6992,34.7324,81.334,39,78.5996z M61.2998,53.499h-0.0996
				c-3.335,0-6.9678,0.6006-10.9004,1.7998c-0.0674,1-0.0996,2.2344-0.0996,3.7002c-0.0674,3.4004,0,6.7676,0.2002,10.1006
				C54.333,64.834,57.9658,59.6338,61.2998,53.499z"/>
		</g>
	</g>
</g>
</svg>
