<?xml version="1.0" encoding="utf-8"?>
<!-- Generator: Adobe Illustrator 25.2.1, SVG Export Plug-In . SVG Version: 6.00 Build 0)  -->
<svg version="1.1" id="レイヤー_1" xmlns="http://www.w3.org/2000/svg" xmlns:xlink="http://www.w3.org/1999/xlink" x="0px"
	 y="0px" viewBox="0 0 110 110" style="enable-background:new 0 0 110 110;" xml:space="preserve">
<style type="text/css">
	.st0{fill:#1E1E28;}
</style>
<g>
	<g>
		<g>
			<path class="st0" d="M93.7998,67.6008c0,8.5342-3.3672,15.2998-10.0996,20.2998c-5.4678,4.1343-12.6348,6.7329-21.5,7.8003
				l-2.4004-5.2002c7.9326-0.7329,14.3662-2.833,19.2998-6.2998C85.0332,80.0681,88,74.468,88,67.4006
				c0-11.6001-6.1348-18.5-18.4004-20.6997c-4.334,10.4668-9.7998,19.834-16.3994,28.0996c-8.7344,11-17.1348,16.5-25.2002,16.5
				c-3.5342,0-6.334-1.2656-8.4004-3.7998c-1.8672-2.2002-2.7998-4.833-2.7998-7.8999c0-7.1328,2.2998-13.7656,6.9004-19.8999
				C28.0996,53.8352,33.8652,49.2351,41,45.9006c0.2656-5.1328,0.666-9.9326,1.2002-14.3999
				c-7.4004,0.3345-14.8672,0.3672-22.4004,0.1001L19.5,26.2009c8.1328,0.4668,15.9004,0.5669,23.2998,0.2998
				c0.7334-5.6655,1.4326-10.3657,2.1006-14.1001l5.5,0.5c-0.9346,4.9346-1.7002,9.3672-2.3008,13.3003
				c11.2656-0.666,22.3008-2.0332,33.1006-4.1001l0.2002,5.2998C70.1328,29.2009,58.833,30.468,47.5,31.2009
				c-0.5996,4.4668-1.0342,8.7344-1.2998,12.7998c5.0654-1.7998,10.1328-2.7002,15.2002-2.7002
				c9.5322,0,17.0654,1.9346,22.5996,5.8003C90.5332,51.5681,93.7998,58.4006,93.7998,67.6008z M42,79.3005
				c-1.1348-8.7324-1.5342-18.0654-1.2002-28C35.2656,54.2351,30.833,58.1008,27.5,62.9006
				c-3.5996,5.0674-5.4004,10.4673-5.4004,16.2002c0,1.9341,0.583,3.5845,1.75,4.9497c1.166,1.3672,2.6162,2.0503,4.3506,2.0503
				C32.4658,86.1008,37.0654,83.8352,42,79.3005z M64.5,46.1008c-1.7344-0.1328-2.7344-0.2002-3-0.2002
				c-5.1348,0-10.334,1.0347-15.5996,3.1001c-0.4004,8.7998-0.1348,17.4673,0.7998,26C54.166,66.7351,60.0996,57.1008,64.5,46.1008z
				"/>
		</g>
	</g>
</g>
</svg>
