<?xml version="1.0" encoding="utf-8"?>
<!-- Generator: Adobe Illustrator 25.2.1, SVG Export Plug-In . SVG Version: 6.00 Build 0)  -->
<svg version="1.1" id="レイヤー_1" xmlns="http://www.w3.org/2000/svg" xmlns:xlink="http://www.w3.org/1999/xlink" x="0px"
	 y="0px" viewBox="0 0 110 110" style="enable-background:new 0 0 110 110;" xml:space="preserve">
<style type="text/css">
	.st0{fill:#1E1E28;}
</style>
<g>
	<g>
		<g>
			<path class="st0" d="M96.8999,70.3994c0,9.8672-3.9341,19.4346-11.7998,28.7002l-12.2002-6C80.2998,84.6338,84,76.834,84,69.6992
				c0-6.2656-2.7002-11.2998-8.1001-15.0996c-5.7344,14-13.1997,24.7666-22.3999,32.2998c0.3999,2.667,0.8657,5.2998,1.3999,7.8994
				L42,96.8994c-0.0674-0.6006-0.2002-1.5674-0.3999-2.9004c-3.2002,1.2002-6.3003,1.7998-9.3003,1.7998
				c-5.3999,0-9.834-1.5342-13.2998-4.5996c-3.8672-3.4658-5.7998-8.2998-5.7998-14.5c0-7.7324,2.3828-14.7158,7.1499-20.9502
				c4.7656-6.2324,11.3828-10.7822,19.8501-13.6494c0.0654-1.9336,0.1997-4.8008,0.3999-8.6006
				C30.2656,33.6992,22.5654,33.9336,17.5,34.1992V21.7988c5.0654-0.1328,13.0327-0.2998,23.8999-0.5
				c0.2002-2.1328,0.5327-5.4326,1-9.8994l13.3999,0.5996c-0.334,2-0.7998,5.0342-1.3999,9.1006
				c19-0.2656,32.7002-0.4004,41.1001-0.4004V32.999c-13.9346,0-28.0674,0.1006-42.3999,0.2998
				c-0.1343,1.4004-0.3345,3.4678-0.6001,6.2002c2.4658-0.2656,4.9326-0.3994,7.3999-0.3994c2.9331,0,5.6328,0.167,8.1001,0.5
				c0.2002-0.7334,0.4658-1.8008,0.7998-3.2002l12.4004,2.2002c-0.3345,1.2666-0.7344,2.6992-1.2002,4.2998
				C91.2656,47.9668,96.8999,57.1338,96.8999,70.3994z M39.7998,54.2988c-4.5996,2.2676-8.1499,5.2676-10.6499,9
				c-2.5,3.7344-3.75,7.7344-3.75,12c0,2.4678,0.75,4.4346,2.25,5.9004c1.5,1.4668,3.3159,2.2002,5.4502,2.2002
				c2.1328,0,4.6001-0.7002,7.3999-2.1006c-0.4673-6.7324-0.7002-14-0.7002-21.7998V54.2988z M64.7002,50.1992
				c-1.6675-0.2656-3.5347-0.4004-5.6001-0.4004c-2.6675,0-5.1343,0.2002-7.3999,0.6006c-0.2002,3.8672-0.3003,8.667-0.3003,14.3994
				c0,2.5352,0.1001,5.0674,0.3003,7.6006C56.9658,66.5332,61.2998,59.1338,64.7002,50.1992z"/>
		</g>
	</g>
</g>
</svg>
