<?xml version="1.0" encoding="utf-8"?>
<!-- Generator: Adobe Illustrator 25.2.1, SVG Export Plug-In . SVG Version: 6.00 Build 0)  -->
<svg version="1.1" id="レイヤー_1" xmlns="http://www.w3.org/2000/svg" xmlns:xlink="http://www.w3.org/1999/xlink" x="0px"
	 y="0px" viewBox="0 0 110 110" style="enable-background:new 0 0 110 110;" xml:space="preserve">
<style type="text/css">
	.st0{fill:#1E1E28;}
</style>
<g>
	<g>
		<g>
			<path class="st0" d="M94.5996,67.6992c0,7.9346-3.1992,14.5996-9.5996,20c-5.1348,4.4004-11.4004,7.3652-18.7998,8.9004
				L64,91.2988c6-1,11.4004-3.3652,16.2002-7.0996c5.9326-4.5996,8.8994-10.166,8.8994-16.7002c0-4.665-1.417-8.7656-4.25-12.2998
				c-2.834-3.5332-6.9844-6.0654-12.4492-7.5996L42.7998,94.1992c-8.4668-0.4004-15.167-2.7324-20.0996-7
				C17.9004,83.1338,15.5,77.9336,15.5,71.5996c0-6.1328,2.2656-11.7656,6.7998-16.9004
				c4.7334-5.4004,11.1328-9.2656,19.2002-11.5996l0.2002-12.3008C30.9658,30.999,22.9004,31.1338,17.5,31.1992l-0.0996-5.4004
				c9.0654,0.0674,17.1992,0.0352,24.3994-0.0996L42,14.1992h5.5c-0.1348,3.7344-0.2676,7.5342-0.4004,11.4004
				C60.3652,25.2666,75.333,24.6338,92,23.6992l0.0996,5.5c-15.7344,0.667-30.7998,1.167-45.1992,1.5
				c-0.0674,2.2002-0.1348,6.0342-0.2002,11.5c3.665-0.7324,7.7656-1.0996,12.2998-1.0996c11.5996,0,20.5654,2.5996,26.9004,7.7998
				C91.7002,53.6992,94.5996,59.9668,94.5996,67.6992z M67,46.2988c-3-0.3994-5.7676-0.5996-8.2998-0.5996
				c-4.2002,0-8.2002,0.3672-12,1.0996c0,11.6006,0.0654,20.668,0.2002,27.2002l-5.2002,0.2002c-0.1348-4-0.2002-12.666-0.2002-26
				c-6.5996,2.1348-11.7002,5.2998-15.2998,9.5c-3.6006,4.2002-5.4004,8.7676-5.4004,13.7002c0,4.7344,1.7832,8.667,5.3506,11.7998
				c3.5654,3.1348,8.2148,4.9346,13.9492,5.4004l8.8008-13.6006L67,46.2988z"/>
		</g>
	</g>
</g>
</svg>
