<?xml version="1.0" encoding="utf-8"?>
<!-- Generator: Adobe Illustrator 25.2.1, SVG Export Plug-In . SVG Version: 6.00 Build 0)  -->
<svg version="1.1" id="レイヤー_1" xmlns="http://www.w3.org/2000/svg" xmlns:xlink="http://www.w3.org/1999/xlink" x="0px"
	 y="0px" viewBox="0 0 110 110" style="enable-background:new 0 0 110 110;" xml:space="preserve">
<style type="text/css">
	.st0{fill:#1E1E28;}
</style>
<g>
	<g>
		<g>
			<path class="st0" d="M97.9004,67.7988c0,9.8672-3.6348,17.6006-10.9004,23.2002c-5.667,4.4004-13.2344,7.2998-22.7002,8.7002
				l-5.7998-16.5L48.4004,97.999c-11.0674-0.2002-19.7676-2.3994-26.1006-6.5996c-7-4.6006-10.5-11.2334-10.5-19.9004
				c0-7.0654,2.2334-13.333,6.7002-18.7998c4.4658-5.4658,10.5-9.4326,18.0996-11.9004L36.5,36.0996
				c-4.667,0.1338-11.6348,0.2998-20.9004,0.5l-0.2998-16.8008c5.8662,0.0674,12.9004,0.0674,21.1006,0v-8.1992h17.2998
				c-0.0674,2.2666-0.1006,4.9336-0.1006,8c12.8662-0.2656,25.7656-0.8008,38.7002-1.6006l0.4004,16.9004
				c-9.4678,0.2666-22.5,0.5674-39.1006,0.8994v3.3008c1.6006-0.1328,3.3662-0.2002,5.3008-0.2002
				c13.1992,0,23.1992,2.8672,30,8.5996C94.9004,52.6338,97.9004,59.3994,97.9004,67.7988z M44.7002,74.499h-7.7998
				c-0.1348-4.1328-0.2002-9.7998-0.2002-17c-5.335,2.9346-8,7.167-8,12.7002c0,5.5996,3.9658,8.834,11.8994,9.7002L44.7002,74.499z
				 M60.0996,53.1992c-0.5342-0.0654-1.5342-0.0996-3-0.0996c-1.5342,0-2.8994,0.0342-4.0996,0.0996v10.7002L60.0996,53.1992z
				 M79.9004,66.8994c0-3.2656-1.5352-6.0332-4.6006-8.2998L58.5,83.0996c4.8652-0.7334,9.166-2.1006,12.9004-4.1006
				C77.0654,75.9336,79.9004,71.8994,79.9004,66.8994z"/>
		</g>
	</g>
</g>
</svg>
