<?xml version="1.0" encoding="utf-8"?>
<!-- Generator: Adobe Illustrator 25.2.1, SVG Export Plug-In . SVG Version: 6.00 Build 0)  -->
<svg version="1.1" id="レイヤー_1" xmlns="http://www.w3.org/2000/svg" xmlns:xlink="http://www.w3.org/1999/xlink" x="0px"
	 y="0px" viewBox="0 0 110 110" style="enable-background:new 0 0 110 110;" xml:space="preserve">
<style type="text/css">
	.st0{fill:#1E1E28;}
</style>
<g>
	<g>
		<g>
			<path class="st0" d="M94,70.6992c-0.1343,7.0674-2.9673,12.9004-8.5,17.5c-5.2002,4.334-12.2998,7.2324-21.2998,8.7002
				l-2.1001-3.1006c8.9326-1.2656,15.8657-3.9824,20.7998-8.1494c4.9331-4.166,7.3999-9.2832,7.3999-15.3506
				c0-5.2656-1.9844-9.5156-5.9497-12.75c-3.9673-3.2324-9.5845-4.9824-16.8501-5.25
				c-5.7998,10.1348-11.8999,18.7344-18.2998,25.8008c0.5996,2.8672,1.3325,5.4336,2.1997,7.6992l-3.6001,1.6006
				c-0.4668-1.7998-0.9341-3.9004-1.3999-6.2998c-7.5342,7.5342-14.5342,11.2998-21,11.2998c-2.1343,0-3.9673-0.666-5.5-2
				c-1.7344-1.5332-2.6001-3.7002-2.6001-6.5c0-6.333,2.8003-12.2334,8.4004-17.7002c4.7324-4.5996,10.9326-8.5,18.5996-11.7002
				v-1.8994c0.0659-4.666,0.6001-10.833,1.6001-18.5c-7.9341,1.5342-14.9673,2.2666-21.1001,2.1992l0.1001-3.5996
				c6.4658,0.2676,13.6001-0.333,21.3999-1.7998c0.8003-5.5332,1.833-11.666,3.1001-18.4004l4.2002,0.6006
				c-1.5347,4.1338-2.8999,9.834-4.1001,17.0996c7.6655-1.7324,13.9658-3.7998,18.8999-6.2002l0.5,3.6006
				c-4.3999,2-11.0342,3.9336-19.8999,5.7998c-1.0674,7.2666-1.667,13.9346-1.7998,20c6.9326-2.5332,13.0327-3.8662,18.2998-4
				c2.1328-4,3.7998-7.6006,5-10.7998l3.1001,2.1992c-1.4673,3.0674-2.9673,5.9678-4.5,8.7002
				c7.0654,0.4678,12.7998,2.2998,17.1997,5.5C91.5654,58.7334,94.1328,63.9668,94,70.6992z M45.7998,77.3994
				c-0.9341-6.2002-1.4341-12.833-1.5-19.9004c-6.7998,3-12.2671,6.6006-16.3999,10.7998
				c-4.7998,4.8672-7.1997,9.9346-7.1997,15.2002c0,3.667,1.8999,5.5,5.6997,5.5C32,88.999,38.4658,85.1338,45.7998,77.3994z
				 M63.8999,52.2988c-4.9341,0.2676-10.5,1.6006-16.6997,4c0,6.5352,0.4326,12.5352,1.2998,18
				C54.1655,67.6992,59.2998,60.3662,63.8999,52.2988z"/>
		</g>
	</g>
</g>
</svg>
