<?xml version="1.0" encoding="utf-8"?>
<!-- Generator: Adobe Illustrator 25.2.1, SVG Export Plug-In . SVG Version: 6.00 Build 0)  -->
<svg version="1.1" id="レイヤー_1" xmlns="http://www.w3.org/2000/svg" xmlns:xlink="http://www.w3.org/1999/xlink" x="0px"
	 y="0px" viewBox="0 0 110 110" style="enable-background:new 0 0 110 110;" xml:space="preserve">
<style type="text/css">
	.st0{fill:#1E1E28;}
</style>
<g>
	<g>
		<g>
			<path class="st0" d="M94.2002,66.2988c0,17.2002-11.6675,27.1006-35,29.7002v-5.0996c19.6655-2.333,29.5-10.5654,29.5-24.7002
				c0-5.1328-1.6001-9.583-4.8003-13.3496C80.7002,49.084,76.0654,46.4668,70,44.999
				c-4.4673,14.8672-10.2002,26.6006-17.2002,35.2002c-6.3999,7.9346-13.3672,11.9004-20.8999,11.9004
				c-4.4673,0-8.167-1.6836-11.1001-5.0508c-2.9341-3.3652-4.3999-7.8828-4.3999-13.5498c0-6.7998,2.1328-12.9824,6.3999-18.5498
				c4.2656-5.5654,10.166-9.7158,17.7002-12.4502V30.6992H18.7998v-5H40.5V14.5996h5.2998v11.0996h46.3003v5H45.7002v10.2002
				c4.3999-1.0654,9.0327-1.6006,13.8999-1.6006c11.3325,0,20.0654,2.6006,26.1997,7.8008
				C91.3999,51.8994,94.2002,58.2988,94.2002,66.2988z M43.7002,82.2988c-1.8672-9.4648-2.9004-21.0996-3.1001-34.8994
				c-5.9346,2.4668-10.6001,5.9844-14,10.5498C23.2002,62.5166,21.5,67.6992,21.5,73.499c0,4.1348,1.0156,7.417,3.0498,9.8506
				c2.0332,2.4336,4.583,3.6494,7.6504,3.6494C36.1328,86.999,39.9658,85.4336,43.7002,82.2988z M64.8999,44.1992
				c-1.8672-0.2002-3.7344-0.2998-5.6001-0.2998c-4.9341,0-9.4668,0.5674-13.5996,1.7002c0,13.9336,0.7656,24.9336,2.2998,33
				C54.7998,71.1992,60.4326,59.7334,64.8999,44.1992z"/>
		</g>
	</g>
</g>
</svg>
