<?xml version="1.0" encoding="utf-8"?>
<!-- Generator: Adobe Illustrator 25.2.1, SVG Export Plug-In . SVG Version: 6.00 Build 0)  -->
<svg version="1.1" id="レイヤー_1" xmlns="http://www.w3.org/2000/svg" xmlns:xlink="http://www.w3.org/1999/xlink" x="0px"
	 y="0px" viewBox="0 0 110 110" style="enable-background:new 0 0 110 110;" xml:space="preserve">
<style type="text/css">
	.st0{fill:#1E1E28;}
</style>
<g>
	<g>
		<g>
			<path class="st0" d="M94.9004,66.3994c0,17.8672-12.1006,27.9326-36.3008,30.2002V89.499
				c19.2002-2,28.8008-9.7656,28.8008-23.2998c0-4.666-1.418-8.7158-4.25-12.1504C80.3154,50.6162,76.2656,48.166,71,46.6992
				c-4.5996,14.4004-10.4668,25.834-17.5996,34.2998c-6.668,7.9346-13.835,11.9004-21.5,11.9004c-4.668,0-8.5-1.7002-11.5-5.1006
				c-3.2002-3.5322-4.8008-8.332-4.8008-14.3994c0-6.666,2.0664-12.7656,6.2002-18.2998
				c4.2656-5.8008,10.2334-10.1006,17.9004-12.9004V31.499H18.0996v-6.8994h21.6006V13.8994H47v10.7002h45.7002v6.8994h-46v8.7002
				c4.1328-0.8652,8.3652-1.2998,12.7002-1.2998c11.7324,0,20.7324,2.667,27,8C92.0654,51.7666,94.9004,58.2666,94.9004,66.3994z
				 M43.0996,81.3994c-1.9336-8.4004-3.0342-19.2002-3.2998-32.4004c-5.334,2.4004-9.5342,5.7178-12.5996,9.9502
				c-3.0674,4.2344-4.6006,9.0498-4.6006,14.4502c0,3.7998,0.9336,6.8174,2.8008,9.0498c1.8652,2.2344,4.1992,3.3496,7,3.3496
				C36,85.7988,39.5654,84.334,43.0996,81.3994z M64.2002,45.3994c-1.9346-0.2002-3.6348-0.2998-5.1006-0.2998
				c-4.1992,0-8.2998,0.5-12.2998,1.5c0.1328,13.2666,0.7998,23.2666,2,30C54.8652,69.4668,60,59.0664,64.2002,45.3994z"/>
		</g>
	</g>
</g>
</svg>
