<?xml version="1.0" encoding="utf-8"?>
<!-- Generator: Adobe Illustrator 25.2.1, SVG Export Plug-In . SVG Version: 6.00 Build 0)  -->
<svg version="1.1" id="レイヤー_1" xmlns="http://www.w3.org/2000/svg" xmlns:xlink="http://www.w3.org/1999/xlink" x="0px"
	 y="0px" viewBox="0 0 110 110" style="enable-background:new 0 0 110 110;" xml:space="preserve">
<style type="text/css">
	.st0{fill:#1E1E28;}
</style>
<g>
	<g>
		<g>
			<path class="st0" d="M98.6001,70.0996c0,11-4.5347,21.2344-13.6001,30.6992L69.3999,92.999c8.333-8.333,12.5-16.333,12.5-24
				c0-4.1328-1.6343-7.7002-4.8999-10.7002c-5.5342,12.2676-12.5,21.9346-20.8999,29c0.6001,3.2002,1.1655,6,1.6997,8.4004
				l-16.6997,2.7002l-0.3003-2.5c-2.8672,0.8652-5.5669,1.2998-8.0996,1.2998c-5.8003,0-10.6348-1.6348-14.5-4.9004
				c-4.3345-3.665-6.5-8.8994-6.5-15.6992c0-7.9336,2.3999-15.0156,7.1997-21.25c4.8003-6.2334,11.3999-10.8164,19.8003-13.75
				c0-1.5332,0.0654-3.8008,0.1997-6.8008c-7.5342,0.2002-15,0.5-22.3999,0.9004v-16c4.8657-0.1328,12.7002-0.333,23.5-0.5996
				c0.2656-3.1328,0.5654-6.1328,0.8999-9l17.3999,0.7998c-0.334,1.7344-0.7671,4.3672-1.2998,7.8994
				c17.2002-0.2656,30.2998-0.3994,39.2998-0.3994v15.7998c-14.667,0-28.3999,0.0996-41.1997,0.2998l-0.3999,3.9004
				c1.0654-0.0654,2.5654-0.1006,4.5-0.1006c2.9326,0,5.7998,0.168,8.5996,0.5c0.1328-0.5322,0.333-1.332,0.6001-2.3994
				l15.3003,2.7002c-0.2002,0.8672-0.5347,2.1338-1,3.7998C93.2998,48.0996,98.6001,57.166,98.6001,70.0996z M38.5,57.1992
				c-7.3345,4.2676-11,10.0996-11,17.5c0,2,0.6328,3.5996,1.8999,4.7998c1.2656,1.2002,2.7329,1.7998,4.3999,1.7998
				c1.4658,0,3.3003-0.4326,5.5-1.2998C38.833,73.2666,38.5654,65.666,38.5,57.1992z M63.3999,52.3994
				C61.5327,52.1338,59.7329,51.999,58,51.999c-1.7344,0-3.167,0.0674-4.2998,0.2002c-0.2676,4.9346-0.4004,10.1348-0.4004,15.5996
				v1.6006C57.2998,64.666,60.6655,58.999,63.3999,52.3994z"/>
		</g>
	</g>
</g>
</svg>
