<?xml version="1.0" encoding="utf-8"?>
<!-- Generator: Adobe Illustrator 25.2.1, SVG Export Plug-In . SVG Version: 6.00 Build 0)  -->
<svg version="1.1" id="レイヤー_1" xmlns="http://www.w3.org/2000/svg" xmlns:xlink="http://www.w3.org/1999/xlink" x="0px"
	 y="0px" viewBox="0 0 110 110" style="enable-background:new 0 0 110 110;" xml:space="preserve">
<style type="text/css">
	.st0{fill:#1E1E28;}
</style>
<g>
	<g>
		<g>
			<path class="st0" d="M95.9004,67.7988c0,8.6006-3.3672,15.7002-10.1006,21.3008c-5.3994,4.3994-12.1338,7.3652-20.2002,8.8994
				l-3.5-9.0996c5.6006-0.9326,10.666-3,15.2002-6.2002c5.9326-4.2002,8.9004-9.2998,8.9004-15.2998
				c0-7.7334-4.167-13.2334-12.5-16.5L44.5996,95.7988c-9.334-0.334-16.75-2.6494-22.25-6.9492
				c-5.5-4.3008-8.25-10.0156-8.25-17.1504c0-6.5332,2.3008-12.4824,6.9004-17.8496c4.5996-5.3662,10.9004-9.25,18.9004-11.6504
				c0-1.7998,0.0322-4.9658,0.0996-9.5c-7,0.1348-14.7344,0.2002-23.2002,0.2002l-0.2002-9.2002c8,0.1348,15.833,0.167,23.5,0.0996
				l0.2002-10.7998h9.2998l-0.2998,10.7002c12.2002-0.2656,26.5-0.9658,42.9004-2.0996l0.2002,9.5
				c-13,0.5996-27.4346,1.0664-43.3008,1.3994C49.0332,34.8994,49,37.6992,49,40.8994c3.2656-0.4658,6.5654-0.7002,9.9004-0.7002
				c12.1992,0,21.5654,2.7344,28.0996,8.2002C92.9326,53.2666,95.9004,59.7334,95.9004,67.7988z M47.7002,74.3994L40,74.499
				c-0.0674-2.0654-0.0996-9.8652-0.0996-23.3994c-5.2676,1.9336-9.3174,4.667-12.1504,8.1992
				c-2.834,3.5352-4.25,7.4678-4.25,11.8008c0,4.2666,1.5332,7.7344,4.5996,10.3994c2.8662,2.4678,6.7334,3.9678,11.6006,4.5
				L47.7002,74.3994z M64.2998,48.3994c-2.1338-0.2656-4.167-0.4004-6.0996-0.4004c-3.1348,0-6.2676,0.2344-9.4004,0.7002
				c0,0.7344-0.0342,4.5342-0.0996,11.4004c0,5.7344,0,10,0,12.7998l0.5-0.7998L64.2998,48.3994z"/>
		</g>
	</g>
</g>
</svg>
