<?xml version="1.0" encoding="utf-8"?>
<!-- Generator: Adobe Illustrator 25.2.1, SVG Export Plug-In . SVG Version: 6.00 Build 0)  -->
<svg version="1.1" id="レイヤー_1" xmlns="http://www.w3.org/2000/svg" xmlns:xlink="http://www.w3.org/1999/xlink" x="0px"
	 y="0px" viewBox="0 0 110 110" style="enable-background:new 0 0 110 110;" xml:space="preserve">
<style type="text/css">
	.st0{fill:#1E1E28;}
</style>
<g>
	<g>
		<g>
			<path class="st0" d="M98.3999,67.7988c0,18.2002-11.5,28.9336-34.5,32.2002l-5.1997-15l-9.4004,13.5
				c-11.5342-0.2002-20.5669-2.3672-27.0996-6.5c-7.3345-4.665-11-11.5322-11-20.5996c0-7.1328,2.2324-13.5,6.6997-19.1006
				c4.3999-5.3994,10.333-9.332,17.8003-11.7998v-3.5c-8.4004,0.2002-15.2002,0.3672-20.4004,0.5L15,18.7988
				c8.0654,0.0674,14.8999,0.0674,20.5,0l-0.1001-7.5h19.3003v7.2002c13.4653-0.2656,26-0.7324,37.5996-1.3994l0.4004,18.7998
				c-4.2676,0.1338-16.9346,0.3672-38,0.7002v2.0996c0.9326-0.0654,2.3325-0.0996,4.1997-0.0996
				c13.4658,0,23.6328,2.9336,30.5,8.7998C95.3999,52.4668,98.3999,59.2666,98.3999,67.7988z M44.1001,74.499h-8l-0.2002-15.3994
				C31.9658,61.6992,30,65.2988,30,69.8994c0,4.8672,3.6328,7.667,10.8999,8.3994L44.1001,74.499z M59.1001,54.499
				c-0.5347-0.0654-1.3003-0.0996-2.3003-0.0996h-2.6997v7.3994L59.1001,54.499z M61.5,80.8994
				c11.2002-2.5332,16.7998-7.2334,16.7998-14.1006c0-2.1992-0.8999-4.2656-2.6997-6.1992L61.5,80.8994z"/>
		</g>
	</g>
</g>
</svg>
