<?xml version="1.0" encoding="utf-8"?>
<!-- Generator: Adobe Illustrator 25.2.1, SVG Export Plug-In . SVG Version: 6.00 Build 0)  -->
<svg version="1.1" id="レイヤー_1" xmlns="http://www.w3.org/2000/svg" xmlns:xlink="http://www.w3.org/1999/xlink" x="0px"
	 y="0px" viewBox="0 0 110 110" style="enable-background:new 0 0 110 110;" xml:space="preserve">
<style type="text/css">
	.st0{fill:#1E1E28;}
</style>
<g>
	<g>
		<g>
			<path class="st0" d="M98,69.7988c0,8.5352-3.0674,15.6006-9.2002,21.2002c-5.8672,5.333-13.7671,8.7656-23.6997,10.2998
				L57,88.0996c16.6655-2.4658,25-8.8008,25-19c0-5.2656-2.5342-9.333-7.6001-12.2002C68.7998,67.0332,61.5,76.0332,52.5,83.8994
				c0.5327,3.2002,1.1001,5.9346,1.7002,8.2002L40,95.2988c-0.2002-1.0664-0.3672-2.0342-0.5-2.8994
				c-4.9346,2.2656-9.3999,3.3994-13.3999,3.3994c-3.8003,0-7-1.1338-9.6001-3.3994c-3.0674-2.6006-4.6001-6.2334-4.6001-10.9004
				c0-7.1328,2.5659-13.833,7.7002-20.0996c4.6001-5.6006,10.6997-10.2002,18.2998-13.7998c0.2002-2.8662,0.5327-6.5664,1-11.1006
				c-7.6001,0.1348-13.7671-0.2656-18.5-1.2002l2.2002-14.5996c4.6655,1.1348,10.6655,1.667,18,1.5996
				c0.5327-3.7998,1.2656-8.1328,2.1997-13l15.8003,1.3008c-1.0674,3.4668-2,6.8672-2.8003,10.1992
				c6.4004-1.2656,11.9004-3.0654,16.5-5.3994l2.3003,14.0996c-6.0674,2.8672-13.3003,4.8672-21.7002,6
				c-0.3345,2.2002-0.667,4.667-1,7.4004c4.0659-0.8662,7.8003-1.2998,11.2002-1.2998c-0.0674,0,1,0.0664,3.1997,0.1992
				c0.5332-1.4648,1.166-3.2998,1.9004-5.5l13.8999,3.9004c-0.0674,0.1348-0.7002,1.6348-1.8999,4.5
				c5.5327,2.2002,9.8828,5.4668,13.0498,9.7998C96.4155,58.834,98,63.9336,98,69.7988z M37.7998,78.499
				c-0.4668-5.3994-0.6343-10.6328-0.5-15.7002V61.499c-7.5996,5.2002-11.3999,10.667-11.3999,16.4004
				c0,2.3994,1.1655,3.5996,3.5,3.5996C31.4658,81.499,34.2656,80.499,37.7998,78.499z M60.8999,53.6992h-0.5
				c-2.7998,0-5.9673,0.5-9.5,1.5c-0.0669,1.0674-0.1343,2.6348-0.1997,4.7002c-0.0674,2.7998-0.0347,5.5342,0.0996,8.2002
				C54.6001,63.9668,57.9658,59.166,60.8999,53.6992z"/>
		</g>
	</g>
</g>
</svg>
