<?xml version="1.0" encoding="utf-8"?>
<!-- Generator: Adobe Illustrator 25.2.1, SVG Export Plug-In . SVG Version: 6.00 Build 0)  -->
<svg version="1.1" id="レイヤー_1" xmlns="http://www.w3.org/2000/svg" xmlns:xlink="http://www.w3.org/1999/xlink" x="0px"
	 y="0px" viewBox="0 0 110 110" style="enable-background:new 0 0 110 110;" xml:space="preserve">
<style type="text/css">
	.st0{fill:#1E1E28;}
</style>
<g>
	<g>
		<g>
			<path class="st0" d="M96.2002,68.1992c0,9.5342-3.4673,16.9004-10.4004,22.0996c-6.0669,4.5332-14.0669,7.0332-24,7.5
				l-4.3999-11.1992C75,85.8662,83.7998,79.5664,83.7998,67.6992c0-7.8652-3.7344-13.0654-11.1997-15.5996
				c-5,11.2666-10.7344,20.6338-17.2002,28.0996C46.8657,90.1338,38.2329,95.0996,29.5,95.0996
				c-10.1343,0-15.2002-5.0664-15.2002-15.2002c0-7.8662,2.166-14.9326,6.5-21.2002c4.2002-6,9.9658-10.6328,17.3003-13.9004
				c0.0654-2.9326,0.2329-6.4326,0.5-10.5c-7.0674,0.1348-14.0347,0.1006-20.8999-0.0996L17.3999,22.499
				C25,23.0332,32.3657,23.2666,39.5,23.1992c0.4658-4.9326,0.8657-8.9326,1.2002-12l12,0.5996
				c-0.4004,2.9346-0.8672,6.6006-1.4004,11c11-0.5322,21.9658-1.7324,32.9004-3.5996l0.5,11.7002
				c-10.6001,1.3994-22.1001,2.3994-34.5,3c-0.1348,1.5342-0.3003,4-0.5,7.3994c3.2656-0.5996,6.6655-0.8994,10.1997-0.8994
				c11,0,19.6001,2.1338,25.8003,6.3994C92.7002,51.5332,96.2002,58.666,96.2002,68.1992z M38.8999,79.5996
				C38.3657,72.1992,38.0654,64.499,38,56.499c-3.7344,2.335-6.7002,5.4844-8.8999,9.4502
				c-2.2002,3.9668-3.3003,7.9844-3.3003,12.0498c0,3.6006,1.4658,5.4004,4.4004,5.4004
				C32.8657,83.3994,35.7656,82.1338,38.8999,79.5996z M61.5,50.3994h-0.6001c-4.0669,0-7.9673,0.4668-11.6997,1.3994
				c-0.2002,6.8008-0.2002,13.1348,0,19C54.6001,63.7334,58.7002,56.9336,61.5,50.3994z"/>
		</g>
	</g>
</g>
</svg>
