<?xml version="1.0" encoding="utf-8"?>
<!-- Generator: Adobe Illustrator 25.2.1, SVG Export Plug-In . SVG Version: 6.00 Build 0)  -->
<svg version="1.1" id="レイヤー_1" xmlns="http://www.w3.org/2000/svg" xmlns:xlink="http://www.w3.org/1999/xlink" x="0px"
	 y="0px" viewBox="0 0 110 110" style="enable-background:new 0 0 110 110;" xml:space="preserve">
<style type="text/css">
	.st0{fill:#1E1E28;}
</style>
<g>
	<g>
		<g>
			<path class="st0" d="M97.7998,70.2012c0,10.3994-4.2344,20.2998-12.7002,29.6992l-14-6.7998
				c7.8662-8.4658,11.8008-16.3652,11.8008-23.7002c0-5.2656-2.1348-9.5996-6.4004-13
				c-5.667,13.1348-12.9004,23.3672-21.7002,30.7002c0.2656,1.4004,0.7998,4.1006,1.6006,8.1006l-14.8008,2.5
				c-0.0664-0.6006-0.1992-1.5-0.3994-2.7002c-2.9346,1-5.835,1.5-8.7002,1.5c-5.5996,0-10.2344-1.6006-13.9004-4.7998
				C14.5332,88.1006,12.5,83.0684,12.5,76.6006c0-7.7998,2.3652-14.7998,7.0996-21c4.7334-6.2002,11.333-10.7656,19.8008-13.7002
				c0.0654-1.7324,0.165-4.332,0.2998-7.7998C30.833,34.3008,23.2656,34.5684,17,34.9004V20.7012
				c4.1328-0.1328,12.0332-0.3008,23.7002-0.5c0.333-3.8662,0.6328-7.0332,0.8994-9.5L57,11.4004
				c-0.5342,3.1348-0.9668,6-1.2998,8.6006c18.0654-0.2656,31.4658-0.4004,40.2002-0.4004v14
				c-14.4004,0-28.335,0.1006-41.8008,0.2998l-0.5,5c1.6006-0.1328,3.5664-0.1992,5.9004-0.1992c2.9326,0,5.7324,0.167,8.4004,0.5
				c0.1328-0.6006,0.3652-1.5332,0.6992-2.8008l13.9004,2.5c-0.2676,0.8672-0.667,2.2002-1.2002,4
				C92.2998,48.1006,97.7998,57.2012,97.7998,70.2012z M39.0996,55.7012c-4.0664,2.1338-7.1836,4.917-9.3496,8.3496
				c-2.167,3.4346-3.25,7.084-3.25,10.9502c0,2.2002,0.7002,3.9668,2.0996,5.2998c1.4004,1.334,3.0332,2,4.9004,2
				c1.9326,0,4.0654-0.5332,6.4004-1.5996c-0.5352-7.8662-0.8008-15.8662-0.8008-24V55.7012z M64.0996,51.3008
				c-1.7344-0.2656-3.5664-0.4004-5.5-0.4004c-2.1338,0-4.0996,0.1348-5.8994,0.4004c-0.2676,5-0.4004,10-0.4004,15
				c0,1.5342,0.0654,3.0674,0.2002,4.5996C57.166,65.5684,61.0332,59.0352,64.0996,51.3008z"/>
		</g>
	</g>
</g>
</svg>
