<?xml version="1.0" encoding="utf-8"?>
<!-- Generator: Adobe Illustrator 25.2.1, SVG Export Plug-In . SVG Version: 6.00 Build 0)  -->
<svg version="1.1" id="レイヤー_1" xmlns="http://www.w3.org/2000/svg" xmlns:xlink="http://www.w3.org/1999/xlink" x="0px"
	 y="0px" viewBox="0 0 110 110" style="enable-background:new 0 0 110 110;" xml:space="preserve">
<style type="text/css">
	.st0{fill:#1E1E28;}
</style>
<g>
	<g>
		<g>
			<path class="st0" d="M96,70.1992c-0.0674,7.7998-3,14.2676-8.7998,19.4004c-5.5342,4.8652-13.0342,8.0322-22.5,9.5L59.5,90.8994
				c8.4004-1.2002,14.916-3.6162,19.5498-7.25C83.6826,80.0166,86,75.3662,86,69.6992c0-3.7998-1.25-7.1152-3.75-9.9502
				c-2.5-2.833-6.1172-4.7822-10.8496-5.8496c-5.7344,10.4668-12.5674,19.5674-20.5,27.2998
				c0.5322,2.8672,1.165,5.4668,1.8994,7.7998l-9,2.4004c-0.2002-0.7998-0.4668-2-0.7998-3.6006
				c-6.1348,4.2002-11.8672,6.3008-17.2002,6.3008c-3.0674,0-5.6338-0.9346-7.7002-2.8008c-2.3994-2.0654-3.5996-5-3.5996-8.7998
				c0-6.5996,2.666-12.833,8-18.7002C27.166,58.666,33.333,54.3994,41,50.999c0.333-5.5996,0.7656-10.833,1.2998-15.7002
				c-8.4668,0.8008-15.0342,0.9678-19.7002,0.5l1.1006-9.2998c5.1328,0.667,11.7324,0.6348,19.7998-0.0996
				c0.8652-6.333,1.7002-11.5332,2.5-15.6006l10.2002,1c-1.2676,3.9346-2.4346,8.4004-3.5,13.4004
				c6.9326-1.2656,12.833-3.1328,17.7002-5.5996l1.3994,9C66.5996,30.999,59.666,32.8662,51,34.1992
				c-0.5996,3.8672-1.0996,8.4004-1.5,13.5996c5.4004-1.5996,10.4004-2.3994,15-2.3994h1.5996c1.2002-2.7334,2.2656-5.4004,3.2002-8
				L78,40.499c-0.8672,1.9346-1.7998,3.9678-2.7998,6.1006c6.3994,1.4668,11.3994,4.0996,15,7.8994
				C94.1328,58.6338,96.0654,63.8662,96,70.1992z M41.5996,78.3994c-0.667-5.9326-0.9668-12.2998-0.8994-19.1006
				c-5.1348,2.8008-9.2344,6-12.2998,9.6006C25,72.834,23.2998,76.7334,23.2998,80.5996c0,3.0664,1.5332,4.5996,4.6006,4.5996
				C31.2998,85.1992,35.8652,82.9336,41.5996,78.3994z M62.2998,53.0996c-4.334,0.0664-8.7666,0.8994-13.2998,2.5v1.5
				c-0.1348,4.5342,0.0332,9.1992,0.5,14C54.2998,65.834,58.5654,59.834,62.2998,53.0996z"/>
		</g>
	</g>
</g>
</svg>
