<?xml version="1.0" encoding="utf-8"?>
<!-- Generator: Adobe Illustrator 25.2.1, SVG Export Plug-In . SVG Version: 6.00 Build 0)  -->
<svg version="1.1" id="レイヤー_1" xmlns="http://www.w3.org/2000/svg" xmlns:xlink="http://www.w3.org/1999/xlink" x="0px"
	 y="0px" viewBox="0 0 110 110" style="enable-background:new 0 0 110 110;" xml:space="preserve">
<style type="text/css">
	.st0{fill:#1E1E28;}
</style>
<g>
	<g>
		<g>
			<path class="st0" d="M93.8999,67.6006c0,7.5342-3.1001,14-9.2998,19.4004C79.5327,91.4004,73.5,94.3662,66.5,95.9004
				l-1.6001-3.3994c6.2656-1,11.8657-3.5,16.8003-7.5c5.9326-4.8662,8.8999-10.666,8.8999-17.4004
				c0-5.2002-1.5347-9.665-4.6001-13.3994c-3.2671-3.9336-8-6.666-14.2002-8.2002L41.8999,93.4004
				c-8.0669-0.3994-14.4341-2.7324-19.1001-7c-4.3999-3.9326-6.5996-8.8652-6.5996-14.7998c0-5.9326,2.2324-11.4326,6.6997-16.5
				c4.8003-5.333,11.2656-9.165,19.3999-11.5l0.3003-13.7002c-7.7344,0.2002-16,0.335-24.8003,0.4004v-3.4004
				c7,0,15.3003-0.0996,24.9004-0.2998l0.1997-11.7998h3.5C46.2656,16.9355,46.1328,20.8682,46,26.6006
				c13.9326-0.333,29.2329-0.9326,45.8999-1.7998v3.5c-15.5342,0.5996-30.8672,1.0996-46,1.5l-0.2998,13.0996
				C49.7998,41.9678,54.2656,41.501,59,41.501c11.2656,0,20.0327,2.5674,26.2998,7.7002
				C91.0327,53.8682,93.8999,60.001,93.8999,67.6006z M68.2998,45.2012c-3.4668-0.4658-6.5996-0.7002-9.3999-0.7002
				c-4.7344,0-9.167,0.4346-13.2998,1.2998c0,9.4668,0.1001,18.834,0.2998,28.0996l-3.2998,0.2002
				c-0.2002-6-0.3003-15.1328-0.3003-27.3994c-7.1997,2.1992-12.8672,5.667-17,10.3994C21.4326,61.501,19.5,66.335,19.5,71.6006
				c0,5,1.9155,9.2002,5.75,12.6006c3.833,3.3994,8.8501,5.2998,15.0498,5.6992L68.2998,45.2012z"/>
		</g>
	</g>
</g>
</svg>
