<?xml version="1.0" encoding="utf-8"?>
<!-- Generator: Adobe Illustrator 25.2.1, SVG Export Plug-In . SVG Version: 6.00 Build 0)  -->
<svg version="1.1" id="レイヤー_1" xmlns="http://www.w3.org/2000/svg" xmlns:xlink="http://www.w3.org/1999/xlink" x="0px"
	 y="0px" viewBox="0 0 110 110" style="enable-background:new 0 0 110 110;" xml:space="preserve">
<style type="text/css">
	.st0{fill:#1E1E28;}
</style>
<g>
	<g>
		<g>
			<path class="st0" d="M85.4004,94.999l-3.3008-1.3994c5.0664-7.6006,7.6006-14.9336,7.6006-22
				c0-6.333-1.6504-11.8008-4.9502-16.4004s-7.7168-7.7998-13.25-9.5996c-2.5342,8.1338-5.8672,15.6992-10,22.6992
				c-4.5996,7.8672-9.5674,13.8672-14.9004,18c0.1328,1.668,0.4004,3.8008,0.8008,6.4004l-3,0.5996
				c-0.1348-1.0654-0.335-2.7324-0.6006-5c-4.2002,2.668-8.4346,4-12.7002,4c-4.3994,0-7.917-1.3828-10.5498-4.1494
				c-2.6338-2.7656-3.9502-6.4834-3.9502-11.1504c0-7.1328,2.2334-13.665,6.7002-19.5996
				c4.8662-6.4658,11.6328-11.0332,20.2998-13.7002c0.4004-6.2002,0.7334-10.8652,1-14C34.0654,29.834,25.8652,29.999,20,30.1992v-3
				c5.9326-0.2002,14.2324-0.3652,24.9004-0.5c0.332-3.333,0.7656-7.4004,1.2998-12.2002l3.2002,0.2998
				c-0.5352,4.2002-1,8.168-1.4004,11.9004c17.2002-0.2002,32.4004-0.2998,45.5996-0.2998v3
				c-13.5342,0-28.834,0.0996-45.8994,0.2998c-0.4678,4.667-0.835,9.0674-1.1006,13.2002c4.6006-1.1328,9.6006-1.7002,15-1.7002
				c2.8008,0,5.333,0.2344,7.6006,0.7002c0.665-2.4004,1.0996-4.166,1.2998-5.2998l3.2002,0.7998
				c-0.4004,2-0.835,3.7666-1.2998,5.2998c6.2656,1.9346,11.1992,5.3672,14.7998,10.2998C91,58.1338,92.9004,64.334,92.9004,71.5996
				C92.9004,79.3994,90.4004,87.1992,85.4004,94.999z M43.4004,46.7988C35.8652,49.3994,30,53.5996,25.7998,59.3994
				c-3.9346,5.334-5.8994,11.2002-5.8994,17.5996c0,3.6006,1.0498,6.5342,3.1494,8.7998c2.1006,2.2676,4.7832,3.4004,8.0498,3.4004
				c4.2002,0,8.333-1.4004,12.4004-4.2002c-0.4668-5.8652-0.7002-12.2324-0.7002-19.0996C42.7998,60.3662,43,53.999,43.4004,46.7988
				z M68.4004,44.7988c-2.2002-0.4648-4.4678-0.6992-6.8008-0.6992c-5.667,0-10.7344,0.5996-15.1992,1.7998
				C46,52.5664,45.7998,59.1338,45.7998,65.5996c0,5.9336,0.2002,11.667,0.6006,17.1992c4.7324-4,9.1328-9.6328,13.1992-16.8994
				C63.2002,59.3662,66.1328,52.334,68.4004,44.7988z"/>
		</g>
	</g>
</g>
</svg>
