<?xml version="1.0" encoding="utf-8"?>
<!-- Generator: Adobe Illustrator 25.2.1, SVG Export Plug-In . SVG Version: 6.00 Build 0)  -->
<svg version="1.1" id="レイヤー_1" xmlns="http://www.w3.org/2000/svg" xmlns:xlink="http://www.w3.org/1999/xlink" x="0px"
	 y="0px" viewBox="0 0 110 110" style="enable-background:new 0 0 110 110;" xml:space="preserve">
<style type="text/css">
	.st0{fill:#1E1E28;}
</style>
<g>
	<g>
		<g>
			<path class="st0" d="M96.2002,68.1995c0,9.5342-3.4673,16.8999-10.4004,22.0996c-6.0669,4.5332-14.0669,7.0332-24,7.5
				l-4.3999-11.1997C75,85.8665,83.7998,79.5667,83.7998,67.6995c0-7.8657-3.7344-13.0659-11.1997-15.6001
				c-5,11.2671-10.7344,20.6343-17.2002,28.1001C46.8657,90.1335,38.2329,95.0994,29.5,95.0994
				c-10.1343,0-15.2002-5.0659-15.2002-15.2002c0-7.8657,2.166-14.9326,6.5-21.1997c4.2002-6,9.9658-10.6328,17.3003-13.9004
				c0.0654-2.9326,0.2329-6.4326,0.5-10.5c-7.0674,0.1348-14.0347,0.1001-20.8999-0.0996l-0.3003-11.7002
				C25,23.0334,32.3657,23.2664,39.5,23.1995c0.4658-4.9331,0.8657-8.9331,1.2002-12l12,0.5996
				c-0.4004,2.9346-0.8672,6.6001-1.4004,11c11-0.5327,21.9658-1.7324,32.9004-3.5996l0.5,11.6997
				c-10.6001,1.3999-22.1001,2.3999-34.5,3c-0.1348,1.5347-0.3003,4-0.5,7.3999c3.2656-0.5996,6.6655-0.8999,10.1997-0.8999
				c11,0,19.6001,2.1343,25.8003,6.3999C92.7002,51.5334,96.2002,58.6663,96.2002,68.1995z M38.8999,79.5994
				C38.3657,72.1995,38.0654,64.4993,38,56.4993c-3.7344,2.3345-6.7002,5.4844-8.8999,9.4502
				c-2.2002,3.9668-3.3003,7.9844-3.3003,12.0498c0,3.6001,1.4658,5.3999,4.4004,5.3999
				C32.8657,83.3992,35.7656,82.1335,38.8999,79.5994z M61.5,50.3992h-0.6001c-4.0669,0-7.9673,0.4673-11.6997,1.3999
				c-0.2002,6.8003-0.2002,13.1348,0,19C54.6001,63.7336,58.7002,56.9338,61.5,50.3992z"/>
		</g>
	</g>
</g>
</svg>
