<?xml version="1.0" encoding="utf-8"?>
<!-- Generator: Adobe Illustrator 25.2.1, SVG Export Plug-In . SVG Version: 6.00 Build 0)  -->
<svg version="1.1" id="レイヤー_1" xmlns="http://www.w3.org/2000/svg" xmlns:xlink="http://www.w3.org/1999/xlink" x="0px"
	 y="0px" viewBox="0 0 110 110" style="enable-background:new 0 0 110 110;" xml:space="preserve">
<style type="text/css">
	.st0{fill:#1E1E28;}
</style>
<g>
	<g>
		<g>
			<path class="st0" d="M93.7002,71.2988c0,8.0674-2.8003,16.2344-8.4004,24.5l-5.0996-2.2998
				C85.7329,85.5664,88.5,78.1338,88.5,71.1992c0-5.666-1.4673-10.6328-4.3999-14.9004c-2.8003-4.0654-6.6675-7.0654-11.6001-9
				C66.5654,65.0996,58.3999,78.1338,48,86.3994c0.2002,2.1338,0.5,4.3672,0.8999,6.7002l-5,0.8994
				c-0.1997-1.3994-0.3672-2.8994-0.5-4.5c-4.0669,2.335-8.0669,3.5-12,3.5c-4.6001,0-8.3345-1.4326-11.1997-4.2998
				c-2.8672-2.8652-4.3003-6.7998-4.3003-11.7998c0-7.2656,2.2656-13.8662,6.8003-19.7998
				c4.8652-6.4004,11.5996-10.9658,20.1997-13.7002c0.2656-4.333,0.5659-8.6328,0.8999-12.9004
				c-11.667,0.2002-19.7671,0.3672-24.2998,0.5v-4.8994c5.8657-0.2002,14.1001-0.3662,24.7002-0.5
				c0.3325-3.7334,0.7324-7.6328,1.1997-11.7002l5.3003,0.2998c-0.5347,3.8672-1,7.667-1.4004,11.4004
				C66.1001,25.3994,81,25.2988,94,25.2988v4.8008c-13.7344,0-28.7998,0.0996-45.2002,0.2998
				c-0.3999,4.3994-0.7344,8.2998-1,11.7002c4.0659-0.8662,8.5659-1.3008,13.5-1.3008c2.6001,0,5.166,0.2344,7.7002,0.7002
				c0.2002-0.7998,0.5654-2.4658,1.1001-5l5.1997,1.1006c-0.1343,0.667-0.5996,2.3672-1.3999,5.0996
				c6.1328,2.0674,10.9331,5.5342,14.3999,10.4004C91.8999,58.166,93.7002,64.2334,93.7002,71.2988z M42.6001,48.2988
				c-6.9346,2.5352-12.3345,6.5-16.2002,11.9004C22.7998,65.1338,21,70.5996,21,76.5996c0,3.3994,1,6.1494,3,8.25
				c2,2.0996,4.5,3.1494,7.5,3.1494c3.7329,0,7.5327-1.2656,11.3999-3.7998c-0.4673-6.1328-0.6997-12.5332-0.6997-19.2002
				C42.2002,59.4668,42.333,53.8994,42.6001,48.2988z M67.7002,45.8994c-2.2676-0.4658-4.4673-0.7002-6.6001-0.7002
				c-4.8003,0-9.3345,0.5342-13.6001,1.5996C47.1655,52.5996,47,58.666,47,64.999c0,5.8672,0.1655,11.0674,0.5,15.6006
				C56.1655,72.5996,62.8999,61.0332,67.7002,45.8994z"/>
		</g>
	</g>
</g>
</svg>
