<?xml version="1.0" encoding="utf-8"?>
<!-- Generator: Adobe Illustrator 25.2.1, SVG Export Plug-In . SVG Version: 6.00 Build 0)  -->
<svg version="1.1" id="レイヤー_1" xmlns="http://www.w3.org/2000/svg" xmlns:xlink="http://www.w3.org/1999/xlink" x="0px"
	 y="0px" viewBox="0 0 110 110" style="enable-background:new 0 0 110 110;" xml:space="preserve">
<style type="text/css">
	.st0{fill:#1E1E28;}
</style>
<g>
	<g>
		<g>
			<path class="st0" d="M97,66.6006c0,20-13.2998,30.5654-39.8999,31.7002V85.501C74.7002,84.3008,83.5,77.9004,83.5,66.3008
				c0-6.5332-3.2998-11.333-9.8999-14.4004C68.333,65.4355,62.2002,75.9678,55.2002,83.501
				C48,91.2354,40.2329,95.1006,31.8999,95.1006c-5.3345,0-9.667-1.7344-13-5.2002c-3.7998-3.9326-5.6997-9.5322-5.6997-16.7998
				c0-6.4658,1.9326-12.4658,5.7998-18c4.2656-6.1328,10.3657-10.665,18.2998-13.5996l-0.0996-7.7998h-21v-12.5h21v-9h13.0996v9
				h43.9004V33.501H50v5c2.7329-0.333,5.6655-0.5,8.7998-0.5c12.9331,0,22.7329,2.8672,29.4004,8.5996
				C94.0654,51.6006,97,58.2676,97,66.6006z M41,79.001c-1.7998-6.1328-2.9346-14.5-3.3999-25.1006
				c-7.9346,4.5352-11.8999,10.9346-11.8999,19.2002c0,2.8672,0.6997,5.1348,2.0996,6.7998c1.4004,1.668,3.2002,2.5,5.4004,2.5
				C35.5327,82.4004,38.1328,81.2676,41,79.001z M61.8999,49.1006c-1.7344-0.1328-2.9673-0.2002-3.6997-0.2002
				c-2.6675,0-5.3672,0.2344-8.1001,0.7002c0.1997,9.1348,0.6328,16,1.2998,20.6006C55.2656,64.5352,58.7656,57.501,61.8999,49.1006
				z"/>
		</g>
	</g>
</g>
</svg>
