<?xml version="1.0" encoding="utf-8"?>
<!-- Generator: Adobe Illustrator 25.2.1, SVG Export Plug-In . SVG Version: 6.00 Build 0)  -->
<svg version="1.1" id="レイヤー_1" xmlns="http://www.w3.org/2000/svg" xmlns:xlink="http://www.w3.org/1999/xlink" x="0px"
	 y="0px" viewBox="0 0 110 110" style="enable-background:new 0 0 110 110;" xml:space="preserve">
<style type="text/css">
	.st0{fill:#1E1E28;}
</style>
<g>
	<g>
		<g>
			<path class="st0" d="M92.8999,67.3992c0,8.2002-3.2998,14.7671-9.8999,19.7002c-5.3345,4-12.2344,6.6328-20.7002,7.8999
				L60.5,91.8992c7.7329-0.9326,14.1655-3.1328,19.2998-6.6001c6.4004-4.4653,9.6001-10.4326,9.6001-17.8999
				c0-12.8657-6.9673-20.3325-20.8999-22.3999c-4.0674,10.1343-9.3999,19.5-16,28.1001c-8.7998,11.3345-17.1343,17-25,17
				c-3,0-5.4673-1.2002-7.3999-3.6001c-1.6675-2.1328-2.5-4.4658-2.5-7c0-6.8657,2.3325-13.3657,7-19.5
				C29,54.2664,34.7656,49.6995,41.8999,46.2991c0.2656-5.0654,0.7656-10.2998,1.5-15.6997c-7.7998,0.4673-15.4673,0.5342-23,0.1997
				l-0.2998-3.2998c7.8657,0.4673,15.7656,0.5,23.6997,0.1001c0.666-4.6001,1.5-9.5327,2.5-14.8003l3.3003,0.5
				c-1.1343,5.4673-2,10.1675-2.6001,14.1001c11.2002-0.6655,22.2656-2.1001,33.2002-4.2998v3.1997
				c-11.7344,2-22.9346,3.3672-33.6001,4.1001c-0.6675,4.6001-1.1675,9.4346-1.5,14.5c5.6001-2.1997,11.1997-3.2998,16.7998-3.2998
				c9.0659,0,16.2329,1.8672,21.5,5.6001C89.7329,51.5994,92.8999,58.3337,92.8999,67.3992z M43.1001,79.0994
				c-1.3345-9.5327-1.8003-19.3999-1.3999-29.6001c-6.1348,3.1343-11.0674,7.2344-14.8003,12.2998
				c-4.0669,5.4673-6.1001,11.3672-6.1001,17.7002c0,2.0674,0.6504,3.8345,1.9502,5.2998c1.2998,1.4673,2.8828,2.2002,4.75,2.2002
				C32.2998,86.9993,37.5,84.3665,43.1001,79.0994z M65.3999,44.5994c-0.8672-0.0659-2.1343-0.1001-3.7998-0.1001
				c-5.4673,0-11.0347,1.2002-16.7002,3.6001c-0.5342,10.0669-0.2344,19.5,0.8999,28.2998c4.0659-4.3999,8.0659-9.8999,12-16.5
				C61,54.4338,63.5327,49.3337,65.3999,44.5994z"/>
		</g>
	</g>
</g>
</svg>
