<?xml version="1.0" encoding="utf-8"?>
<!-- Generator: Adobe Illustrator 25.2.1, SVG Export Plug-In . SVG Version: 6.00 Build 0)  -->
<svg version="1.1" id="レイヤー_1" xmlns="http://www.w3.org/2000/svg" xmlns:xlink="http://www.w3.org/1999/xlink" x="0px"
	 y="0px" viewBox="0 0 110 110" style="enable-background:new 0 0 110 110;" xml:space="preserve">
<style type="text/css">
	.st0{fill:#1E1E28;}
</style>
<g>
	<g>
		<g>
			<path class="st0" d="M94.7002,70.499c-0.0674,7.335-2.9346,13.4004-8.6006,18.2002c-5.2666,4.4658-12.5,7.4326-21.6992,8.9004
				l-3.2002-4.8008c8.7324-1.1992,15.5322-3.7998,20.3994-7.7998c4.8662-4,7.3008-8.9658,7.3008-14.8994
				c0-4.7334-1.7344-8.666-5.2002-11.8008c-3.4678-3.1328-8.4004-5-14.7998-5.5996c-5.668,10.1348-12.0352,18.9346-19.1006,26.4004
				c0.6006,3,1.2998,5.5996,2.1006,7.7998L46.5,88.6992c-0.5342-2.1328-0.9346-3.8652-1.2002-5.2002
				c-7.0674,6.335-13.667,9.5-19.7998,9.5c-2.4668,0-4.5342-0.7656-6.2002-2.2998c-1.9346-1.7324-2.8994-4.166-2.8994-7.2998
				c0-6.4004,2.7324-12.4004,8.1992-18c4.666-4.7334,10.833-8.7334,18.5-12c0.1328-5.2002,0.666-11.5,1.6006-18.9004
				c-8.2676,1.2676-15.1348,1.7998-20.6006,1.6006l0.4004-5.5c5.7998,0.3994,12.7656-0.0332,20.9004-1.3008
				c0.7998-5.665,1.7656-11.4648,2.8994-17.3994L54.5,12.6992c-1.4668,4.0674-2.7676,9.2998-3.9004,15.7002
				c7.4004-1.5332,13.5664-3.5,18.5-5.9004l0.8008,5.4004c-4.8008,2.2002-11.5352,4.0996-20.2002,5.7002
				c-0.9346,6.1338-1.5342,12.1338-1.7998,18c6.7324-2.333,12.6328-3.5,17.6992-3.5h0.2002c1.666-3.2002,3.1006-6.5,4.2998-9.9004
				l5,2.5c-0.9336,2.0674-2.2344,4.6348-3.8994,7.7002c6.8652,0.7998,12.3652,2.9346,16.5,6.3994
				C92.4326,58.7334,94.7656,63.9668,94.7002,70.499z M44.4004,77.8994c-0.8008-6-1.2344-12.6328-1.3008-19.9004
				c-6.1992,2.9346-11.1992,6.4004-15,10.4004c-4.334,4.5996-6.5,9.2998-6.5,14.0996c0,3.4678,1.7656,5.2002,5.3008,5.2002
				C31.7656,87.6992,37.5996,84.4336,44.4004,77.8994z M63.4004,52.499c-4.7344,0.2002-9.9346,1.3672-15.6006,3.5
				c-0.0674,6.0674,0.2656,11.7998,1,17.2002C54.2656,66.999,59.1328,60.0996,63.4004,52.499z"/>
		</g>
	</g>
</g>
</svg>
