<?xml version="1.0" encoding="utf-8"?>
<!-- Generator: Adobe Illustrator 25.2.1, SVG Export Plug-In . SVG Version: 6.00 Build 0)  -->
<svg version="1.1" id="レイヤー_1" xmlns="http://www.w3.org/2000/svg" xmlns:xlink="http://www.w3.org/1999/xlink" x="0px"
	 y="0px" viewBox="0 0 110 110" style="enable-background:new 0 0 110 110;" xml:space="preserve">
<style type="text/css">
	.st0{fill:#1E1E28;}
</style>
<g>
	<g>
		<g>
			<path class="st0" d="M96.7002,70.0996c-0.0674,8.0664-3.0674,14.7344-9,20c-5.6001,5.0654-13.2344,8.332-22.9004,9.7998
				l-6.1997-10c17.3325-2.5332,26-9.333,26-20.4004c0-7.2002-4.0347-12.0996-12.1001-14.7002
				C66.8999,65.0664,59.8657,74.166,51.3999,82.0996c0.4658,2.667,1.1001,5.334,1.8999,8l-10.8999,2.6992
				c-0.1343-0.5322-0.3345-1.5996-0.6001-3.1992c-5.667,3.3994-10.9668,5.0996-15.8999,5.0996c-3.3999,0-6.2344-1-8.5-3
				c-2.5342-2.333-3.7998-5.5654-3.7998-9.7002c0-6.7324,2.6001-13.0654,7.7998-19c4.6655-5.333,10.833-9.7324,18.5-13.2002
				c0.333-4.9326,0.7329-9.6328,1.2002-14.0996c-8.1343,0.5342-14.5674,0.5-19.3003-0.0996l1.5-11.1006
				c4.6001,0.7344,11,0.8672,19.2002,0.4004c0.7329-5.0654,1.5327-9.9326,2.3999-14.6006L57,11.3994
				c-1.3345,4.0674-2.4346,8.1338-3.2998,12.2002c6.8652-1.2656,12.6655-3.1006,17.3999-5.5l1.6997,10.7998
				c-5.5342,2.5996-12.5669,4.5-21.0996,5.7002c-0.6001,3.7344-1.0674,7.5342-1.4004,11.3994
				c4.7329-1.2656,9.3003-1.8994,13.7002-1.8994h2.2002c1-2.333,1.8999-4.7002,2.6997-7.1006l10.5,3.4004
				c-0.5342,1.3994-1.3345,3.2002-2.3999,5.3994c6.1328,1.7344,10.8999,4.6006,14.2998,8.6006
				C94.9658,58.666,96.7656,63.8994,96.7002,70.0996z M40.2998,78.499c-0.5996-6.333-0.8672-12.5-0.7998-18.5
				c-4.5342,2.667-8.167,5.7002-10.8999,9.1006c-2.9346,3.5996-4.3999,7.1338-4.3999,10.5996c0,2.7998,1.3999,4.2002,4.1997,4.2002
				C31.2002,83.8994,35.1655,82.0996,40.2998,78.499z M61.7002,53.2988c-3.8003,0.0674-7.8003,0.7676-12,2.1006
				c0,0.5996-0.0347,1.5-0.1001,2.7002c-0.0674,4.1992,0.0327,8.167,0.2998,11.8994
				C54.2329,65.2666,58.1655,59.6992,61.7002,53.2988z"/>
		</g>
	</g>
</g>
</svg>
