<?xml version="1.0" encoding="utf-8"?>
<!-- Generator: Adobe Illustrator 25.2.1, SVG Export Plug-In . SVG Version: 6.00 Build 0)  -->
<svg version="1.1" id="レイヤー_1" xmlns="http://www.w3.org/2000/svg" xmlns:xlink="http://www.w3.org/1999/xlink" x="0px"
	 y="0px" viewBox="0 0 110 110" style="enable-background:new 0 0 110 110;" xml:space="preserve">
<style type="text/css">
	.st0{fill:#1E1E28;}
</style>
<g>
	<g>
		<g>
			<path class="st0" d="M97.5,67.7988c0,9.5352-3.6001,17.1348-10.7998,22.8008c-5.6001,4.332-12.9673,7.2324-22.1001,8.6992
				l-5.2002-14.6992c5.0659-0.8008,9.5327-2.333,13.3999-4.6006C78.6001,76.666,81.5,72.3662,81.5,67.0996
				c0-4.4004-2.167-7.9004-6.5-10.5L47.3999,97.499c-10.6001-0.2666-18.9673-2.5-25.1001-6.7002
				c-6.667-4.5322-10-10.9326-10-19.1992c0-6.9336,2.25-13.1328,6.75-18.6006c4.5-5.4658,10.6157-9.4326,18.3501-11.8994v-5.8008
				l-21.5,0.3008l-0.2998-14.9004c7.6001,0.1348,14.8657,0.167,21.7998,0.0996v-9h15.3003c0,1.668-0.0347,4.6006-0.1001,8.8008
				c12.2656-0.2656,25.5-0.8662,39.6997-1.8008l0.4004,15.1006c-12.4673,0.4668-25.9004,0.834-40.3003,1.0996v4.5
				c2.1328-0.2002,4.3003-0.2998,6.5-0.2998c13,0,22.8657,2.834,29.6001,8.5C94.5,52.7666,97.5,59.4668,97.5,67.7988z
				 M45.3999,74.499h-7.7998C37.5327,72.4336,37.5,66.1992,37.5,55.7988c-6.7344,3.2002-10.1001,8.0674-10.1001,14.6006
				c0,6.3994,4.2656,10.0996,12.8003,11.0996L45.3999,74.499z M61.1001,51.999c-1.1343-0.1328-2.3672-0.2002-3.7002-0.2002
				c-2.0669,0-3.8672,0.0674-5.3999,0.2002c0,0.4004-0.0342,2.5342-0.1001,6.4004c0,3.667,0,6.2002,0,7.5996L61.1001,51.999z"/>
		</g>
	</g>
</g>
</svg>
