<?xml version="1.0" encoding="utf-8"?>
<!-- Generator: Adobe Illustrator 25.2.1, SVG Export Plug-In . SVG Version: 6.00 Build 0)  -->
<svg version="1.1" id="レイヤー_1" xmlns="http://www.w3.org/2000/svg" xmlns:xlink="http://www.w3.org/1999/xlink" x="0px"
	 y="0px" viewBox="0 0 110 110" style="enable-background:new 0 0 110 110;" xml:space="preserve">
<style type="text/css">
	.st0{fill:#1E1E28;}
</style>
<g>
	<g>
		<g>
			<path class="st0" d="M95.3999,70.3994c-0.0669,7.5996-3,13.8672-8.7998,18.7998c-5.3999,4.666-12.7671,7.7324-22.1001,9.2002
				l-4.1001-6.6006c8.6001-1.1992,15.2656-3.6992,20-7.5C85.1328,80.499,87.5,75.6992,87.5,69.8994
				c0-4.2656-1.5171-7.8828-4.5498-10.8506c-3.0347-2.9648-7.3174-4.8828-12.8501-5.75
				c-5.6675,10.335-12.2671,19.3008-19.8003,26.9004c0.4658,2.2676,1.166,4.834,2.1001,7.7002l-7.2998,2.2002
				c-0.2671-1.0664-0.5674-2.5-0.8999-4.3008c-6.5347,5.1348-12.7002,7.7002-18.5,7.7002c-2.8003,0-5.1348-0.833-7-2.5
				C16.5654,89.0664,15.5,86.3662,15.5,82.8994c0-6.5332,2.7002-12.6328,8.1001-18.2998C28.2656,59.666,34.3999,55.5332,42,52.1992
				c0.2002-5.0654,0.7002-10.833,1.5-17.2998c-8.3345,1.0674-15.0674,1.3994-20.2002,1l0.8003-7.2998
				C29.2329,29.0664,36,28.7988,44.3999,27.7988c0.6001-4.1992,1.5327-9.665,2.8003-16.3994l8.0996,0.7998
				c-1.334,3.9346-2.5669,8.7998-3.6997,14.5996c7.0654-1.332,13.1328-3.2656,18.1997-5.7998l1.1001,7.2002
				c-5.1997,2.4004-12.0342,4.2998-20.5,5.7002c-0.7998,5.2666-1.3672,10.5342-1.6997,15.7998
				c6.2656-2.0654,11.7324-3.0654,16.3999-3l0.7998,0.0996c1.5327-3.1992,2.8003-6.1992,3.8003-9L76.5,40.5996
				c-0.7998,1.7344-1.8999,4-3.2998,6.7998C79.8657,48.5332,85.1328,50.9336,89,54.5996
				C93.333,58.7334,95.4658,63.999,95.3999,70.3994z M43,78.1992c-0.7344-6-1.1001-12.5-1.1001-19.5
				c-5.667,2.8672-10.2344,6.2002-13.6997,10C24.3999,72.9668,22.5,77.2666,22.5,81.5996c0,3.1992,1.6328,4.7998,4.8999,4.7998
				C31.6001,86.3994,36.7998,83.666,43,78.1992z M62.7998,52.7988c-4.5342,0.1348-9.334,1.1348-14.3999,3v0.2002
				c-0.1343,5.6006,0.1001,10.9678,0.7002,16.1006C54.2329,66.4336,58.7998,59.999,62.7998,52.7988z"/>
		</g>
	</g>
</g>
</svg>
