<?xml version="1.0" encoding="utf-8"?>
<!-- Generator: Adobe Illustrator 25.2.1, SVG Export Plug-In . SVG Version: 6.00 Build 0)  -->
<svg version="1.1" id="レイヤー_1" xmlns="http://www.w3.org/2000/svg" xmlns:xlink="http://www.w3.org/1999/xlink" x="0px"
	 y="0px" viewBox="0 0 110 110" style="enable-background:new 0 0 110 110;" xml:space="preserve">
<style type="text/css">
	.st0{fill:#1E1E28;}
</style>
<g>
	<g>
		<g>
			<path class="st0" d="M59.7002,95.4004v-3.1992c20.1328-2.6006,30.2002-11.2656,30.2002-26c0-5.5332-1.668-10.3008-5-14.3008
				c-3.668-4.332-8.9678-7.165-15.9004-8.5c-4.4004,15.2676-10,27.2676-16.7998,36C46,87.335,39.2324,91.3008,31.9004,91.3008
				c-4.2676,0-7.7852-1.6328-10.5508-4.9004c-2.7666-3.2656-4.1494-7.5322-4.1494-12.7998c0-6.8652,2.1494-13.0654,6.4502-18.5996
				c4.2998-5.5332,10.1826-9.6328,17.6494-12.2998V30.001H19.5v-3.1006h21.7998V15.2012h3.4004v11.6992H91.5v3.1006H44.5996v11.7002
				c4.8008-1.333,9.8662-2,15.2002-2c10.9326,0,19.3662,2.5342,25.2998,7.5996c5.5332,4.7344,8.3008,11.0674,8.3008,19
				C93.4004,82.7012,82.166,92.4004,59.7002,95.4004z M41.4004,45.8008c-6.5352,2.5342-11.6504,6.25-15.3506,11.1504
				C22.3496,61.8506,20.5,67.4004,20.5,73.6006c0,4.4004,1.083,7.917,3.25,10.5498c2.166,2.6348,4.8828,3.9502,8.1504,3.9502
				c4.332,0,8.5-1.665,12.5-5c-1.1348-5.9326-1.9004-11.0996-2.3008-15.5C41.7002,62.7354,41.4658,55.4678,41.4004,45.8008z
				 M65.7002,42.9004c-1.7344-0.1992-3.7676-0.2998-6.1006-0.2998c-5.2666,0-10.2666,0.7002-15,2.1006
				c-0.0664,14.9336,0.7656,26.8672,2.5,35.7998C54.833,72.7012,61.0332,60.168,65.7002,42.9004z"/>
		</g>
	</g>
</g>
</svg>
