<?xml version="1.0" encoding="utf-8"?>
<!-- Generator: Adobe Illustrator 25.2.1, SVG Export Plug-In . SVG Version: 6.00 Build 0)  -->
<svg version="1.1" id="レイヤー_1" xmlns="http://www.w3.org/2000/svg" xmlns:xlink="http://www.w3.org/1999/xlink" x="0px"
	 y="0px" viewBox="0 0 110 110" style="enable-background:new 0 0 110 110;" xml:space="preserve">
<style type="text/css">
	.st0{fill:#1E1E28;}
</style>
<g>
	<g>
		<g>
			<path class="st0" d="M96.0996,70.6006c0,9.2676-3.667,18.5-11,27.7002l-10.5-5.0996C81.5332,84.7354,85,77.0352,85,70.1006
				c0-7.5322-3.2344-13.2998-9.7002-17.2998c-5.7998,14.8672-13.5342,26.2002-23.2002,34c0.2656,1.9346,0.7002,4.4668,1.3008,7.5996
				l-11,1.8008c-0.0674-0.7344-0.168-1.8008-0.3008-3.2002c-3.334,1.3994-6.667,2.0996-10,2.0996
				c-5.1992,0-9.4668-1.5342-12.7998-4.5996c-3.5996-3.2656-5.3994-7.8662-5.3994-13.7998c0-7.6006,2.3652-14.5156,7.0996-20.75
				c4.7324-6.2334,11.3652-10.75,19.9004-13.5508c0.1992-3.7324,0.3652-6.9326,0.5-9.5996c-9.2002,0.2002-17,0.4346-23.4004,0.7002
				V22.9004c5.7998-0.1992,13.8652-0.3652,24.2002-0.5c0.2002-2.4648,0.5-5.9326,0.8994-10.3994L54.5,12.6006
				c-0.4004,2.5342-0.834,5.7344-1.2998,9.6006c15.1328-0.2002,29.0996-0.3008,41.8994-0.3008v10.5
				c-18.4668,0-32.834,0.0674-43.0996,0.2002c-0.0674,0.7998-0.2676,3.2998-0.5996,7.5c3.0654-0.3994,6-0.5996,8.7998-0.5996
				c2.9326,0,5.5654,0.167,7.8994,0.5c0.2002-0.7998,0.5-2,0.9004-3.6006l10.9004,2c-0.2676,1-0.668,2.5-1.2002,4.5
				C90.2998,47.9004,96.0996,57.1348,96.0996,70.6006z M40.5,52.8008c-5.1348,2.334-9.0996,5.5498-11.9004,9.6504
				c-2.7998,4.0996-4.1992,8.4844-4.1992,13.1494c0,2.667,0.7998,4.8174,2.3994,6.4502c1.6006,1.6348,3.5654,2.4502,5.9004,2.4502
				c2.5996,0,5.3994-0.833,8.3994-2.5c-0.4668-6.666-0.6992-13.2334-0.6992-19.7002C40.4004,58.501,40.4326,55.335,40.5,52.8008z
				 M65.4004,49.2012c-1.9346-0.333-3.8672-0.5-5.8008-0.5c-2.8672,0-5.7998,0.2998-8.7998,0.8994
				c-0.2666,5.2676-0.3994,9.835-0.3994,13.7002c0,3.334,0.1328,6.9668,0.3994,10.9004
				C56.8652,67.668,61.7324,59.335,65.4004,49.2012z"/>
		</g>
	</g>
</g>
</svg>
