<?xml version="1.0" encoding="utf-8"?>
<!-- Generator: Adobe Illustrator 25.2.1, SVG Export Plug-In . SVG Version: 6.00 Build 0)  -->
<svg version="1.1" id="レイヤー_1" xmlns="http://www.w3.org/2000/svg" xmlns:xlink="http://www.w3.org/1999/xlink" x="0px"
	 y="0px" viewBox="0 0 110 110" style="enable-background:new 0 0 110 110;" xml:space="preserve">
<style type="text/css">
	.st0{fill:#1E1E28;}
</style>
<g>
	<g>
		<g>
			<path class="st0" d="M99.4004,69.8994c0,11.667-4.8008,22.2344-14.4004,31.7002L67.5996,92.999
				c8.8008-8.0654,13.2002-16.165,13.2002-24.2998c0-3.2002-1.0996-6.0332-3.2998-8.5
				c-5.4004,11.5342-12.0996,20.667-20.0996,27.4004c0.4648,2.3994,1.0996,5.2344,1.8994,8.5l-18.5996,3.0996
				c-0.0674-0.334-0.167-1.0996-0.2998-2.2998c-2.5352,0.665-5.0352,1-7.5,1c-6.0674,0-11.0674-1.667-15-5
				C13.2998,89.0996,11,83.666,11,76.5996c0-8.0664,2.3828-15.2158,7.1504-21.4502C22.916,48.916,29.5,44.2988,37.9004,41.2988
				c0.0654-1.332,0.1328-3.2656,0.1992-5.7998C29.6328,35.7666,22.2656,36.0664,16,36.3994V18.5996
				c4.7324-0.1328,12.4658-0.333,23.2002-0.6006c0.2002-2.333,0.5-5.165,0.8994-8.5L59.5,10.2988
				c-0.4668,2.8008-0.8672,5.2676-1.2002,7.4004c16.4004-0.2656,29.2002-0.4004,38.4004-0.4004v17.5
				c-14.8672,0-28.4004,0.1006-40.6006,0.3008l-0.2998,2.8994c1.6006-0.0654,2.6006-0.0996,3-0.0996c3,0,5.9658,0.167,8.9004,0.5
				c0.1328-0.4658,0.2998-1.1328,0.5-2l16.7998,3c-0.2002,0.7998-0.5342,2-1,3.5996
				C94.2656,48.2666,99.4004,57.2334,99.4004,69.8994z M37.9004,58.6992c-6.2676,4-9.4004,9.2344-9.4004,15.7002
				c0,1.7998,0.583,3.2168,1.75,4.25c1.166,1.0342,2.4824,1.5498,3.9502,1.5498c1.2002,0,2.7002-0.2998,4.5-0.9004
				C38.2998,73.499,38.0332,66.6338,37.9004,58.6992z M62.7002,53.3994C61.2324,53.1992,59.5,53.0996,57.5,53.0996
				c-1,0-1.9346,0.0342-2.7998,0.0996c-0.335,5.5996-0.5,10.4668-0.5,14.5996C57.4658,63.7988,60.2998,58.999,62.7002,53.3994z"/>
		</g>
	</g>
</g>
</svg>
