<?xml version="1.0" encoding="utf-8"?>
<!-- Generator: Adobe Illustrator 25.2.1, SVG Export Plug-In . SVG Version: 6.00 Build 0)  -->
<svg version="1.1" id="レイヤー_1" xmlns="http://www.w3.org/2000/svg" xmlns:xlink="http://www.w3.org/1999/xlink" x="0px"
	 y="0px" viewBox="0 0 110 110" style="enable-background:new 0 0 110 110;" xml:space="preserve">
<style type="text/css">
	.st0{fill:#1E1E28;}
</style>
<g>
	<g>
		<g>
			<path class="st0" d="M95.4004,67.9993c0,9.2002-3.4346,16.3672-10.3008,21.5C79.2324,93.8992,71.5332,96.4319,62,97.0994
				l-3.7998-9.2002c8.333-0.4653,14.833-2.3325,19.5-5.6001c5-3.5327,7.5-8.4326,7.5-14.6997
				c0-9.0659-4.5342-14.833-13.6006-17.3003c-4.7998,11-10.4336,20.3672-16.8994,28.1001
				C46.0996,88.6663,37.5332,93.7991,29,93.7991c-4.5996,0-8.0996-1.3325-10.5-4c-2.2002-2.4653-3.2998-5.7998-3.2998-10
				c0-7.5996,2.2002-14.5327,6.5996-20.7998c4.2656-6,10.0332-10.6328,17.2998-13.8999c0.2002-4.333,0.4336-8.2656,0.7002-11.8003
				c-7.5342,0.2002-14.667,0.2002-21.3994,0l-0.3008-9.5996c8.0664,0.5342,15.5664,0.7344,22.5,0.5996
				c0.5332-5.1328,1.0332-9.3652,1.5-12.6997l9.9004,0.5c-0.5996,3.6001-1.167,7.5342-1.7002,11.7998
				c10.8662-0.6001,21.833-1.8657,32.9004-3.7998l0.3994,9.6001c-11.0664,1.5996-22.5,2.6997-34.2998,3.2998
				c-0.2002,1.7344-0.4346,4.7998-0.7002,9.2002c3.8662-1,7.8008-1.5,11.8008-1.5c10.5322,0,18.7998,2.0669,24.7998,6.1997
				C92,51.5667,95.4004,58.5994,95.4004,67.9993z M40,79.4993c-0.7344-7.8657-1.0674-16.1328-1-24.7998
				c-4.334,2.5342-7.8174,5.9497-10.4502,10.25c-2.6338,4.2998-3.9502,8.75-3.9502,13.3496c0,1.7344,0.4502,3.1675,1.3506,4.3003
				c0.8994,1.1343,2.1152,1.6997,3.6494,1.6997C32.7998,84.2991,36.2656,82.6995,40,79.4993z M62.5,48.8992h-1.4004
				c-4.5342,0-8.8672,0.6343-13,1.8999c-0.2666,7.2002-0.167,14.3345,0.3008,21.4004C54.2656,65.0667,58.9658,57.2991,62.5,48.8992z
				"/>
		</g>
	</g>
</g>
</svg>
