<?xml version="1.0" encoding="utf-8"?>
<!-- Generator: Adobe Illustrator 25.2.1, SVG Export Plug-In . SVG Version: 6.00 Build 0)  -->
<svg version="1.1" id="レイヤー_1" xmlns="http://www.w3.org/2000/svg" xmlns:xlink="http://www.w3.org/1999/xlink" x="0px"
	 y="0px" viewBox="0 0 110 110" style="enable-background:new 0 0 110 110;" xml:space="preserve">
<style type="text/css">
	.st0{fill:#1E1E28;}
</style>
<g>
	<g>
		<g>
			<path class="st0" d="M95.2998,70.7988c0,8.9346-3.3672,17.835-10.0996,26.7002L76.5,93.2988
				c6.4658-8.332,9.7002-15.9326,9.7002-22.7998c0-8.8652-3.9346-15.3994-11.8003-19.5996
				c-5.8672,15.7344-13.7671,27.6338-23.6997,35.7002c0.2656,1.7998,0.6655,4.2666,1.1997,7.3994l-9,1.5
				c-0.1997-1.667-0.3345-2.8994-0.3999-3.7002c-3.667,1.7334-7.2002,2.6006-10.6001,2.6006c-5,0-9.0669-1.4658-12.1997-4.4004
				c-3.4004-3.2002-5.1001-7.5996-5.1001-13.2002c0-7.4648,2.2998-14.2324,6.8999-20.2998
				c4.8657-6.333,11.5654-10.8994,20.1001-13.7002c0.2656-4.7998,0.4653-8.3994,0.6001-10.7998
				c-8.2676,0.1348-16.1675,0.3672-23.7002,0.7002V23.999c5.7998-0.2002,13.8999-0.3652,24.2998-0.5
				c0.2002-2.4658,0.5659-6.0996,1.1001-10.8994l9.3003,0.5c-0.3345,2.0664-0.7676,5.4668-1.3003,10.1992
				c15.6655-0.1992,29.9331-0.2998,42.8003-0.2998v8.6006c-13.5347,0-28.1348,0.0996-43.8003,0.2998
				c-0.1343,1.2666-0.3672,4.2002-0.6997,8.7998c3.3999-0.5332,6.8652-0.7998,10.3999-0.7998c2.6001,0,5.1997,0.2002,7.7998,0.5996
				c0.2656-0.9326,0.6001-2.2998,1-4.0996l9,1.7002c-0.2671,1.0664-0.6997,2.6338-1.2998,4.6992
				C89.2329,47.666,95.2998,56.999,95.2998,70.7988z M41.2002,51.2988c-5.7344,2.4004-10.2002,5.9004-13.4004,10.5
				c-3,4.335-4.5,9.0352-4.5,14.1006c0,2.9346,0.8657,5.2998,2.6001,7.0996c1.7329,1.7998,3.8657,2.7002,6.3999,2.7002
				c2.9331,0,6.0659-1,9.4004-3C41.2329,76.166,41,69.666,41,63.1992C41,59.2666,41.0654,55.2988,41.2002,51.2988z M66.1001,48.0996
				c-2.2002-0.4004-4.2002-0.6006-6-0.6006c-3.2671,0-6.7344,0.4004-10.3999,1.2002c-0.2676,5-0.4004,10.0674-0.4004,15.2002
				c0,4.5342,0.1328,8.667,0.4004,12.3994C56.5654,69.166,62.0327,59.7666,66.1001,48.0996z"/>
		</g>
	</g>
</g>
</svg>
