<?xml version="1.0" encoding="utf-8"?>
<!-- Generator: Adobe Illustrator 25.2.1, SVG Export Plug-In . SVG Version: 6.00 Build 0)  -->
<svg version="1.1" id="レイヤー_1" xmlns="http://www.w3.org/2000/svg" xmlns:xlink="http://www.w3.org/1999/xlink" x="0px"
	 y="0px" viewBox="0 0 110 110" style="enable-background:new 0 0 110 110;" xml:space="preserve">
<style type="text/css">
	.st0{fill:#1E1E28;}
</style>
<g>
	<g>
		<g>
			<path class="st0" d="M99.2002,69.5996c0,9-3.1348,16.4668-9.4004,22.3994c-6,5.6006-14.1343,9.166-24.3999,10.7002
				L55.2998,86.2988c16-2.4648,24-8.332,24-17.5996c0-3.4004-1.1997-6.333-3.5996-8.7998c-5.6001,9.5342-13,18.0996-22.2002,25.7002
				c0.5327,3.334,1.0654,6.167,1.6001,8.5L37.5,97.7988c-0.0674-0.667-0.2002-1.6338-0.3999-2.8994
				c-3.8672,1.333-7.4673,2-10.8003,2c-4.1997,0-7.7998-1.2344-10.7998-3.7002c-3.6001-2.8652-5.3999-6.9326-5.3999-12.2002
				c0-7.5996,2.5-14.6328,7.5-21.0996c4.6001-5.8662,10.6997-10.666,18.2998-14.4004c0.2002-2.3994,0.4331-5.0996,0.7002-8.0996
				h-1.2002C29.7329,37.2666,24.2656,36.4668,19,34.999l2.8999-18.0996c5.2002,1.667,10.833,2.6338,16.8999,2.8994
				c0.666-4.3994,1.3003-8.2324,1.9004-11.5l19.5,1.5c-0.8672,2.9346-1.6348,5.7002-2.3003,8.3008
				C63.833,16.834,69.0327,15.0332,73.5,12.6992l2.8999,17.4004c-6.2671,3-13.7344,5.0996-22.3999,6.2998
				c0,0.2002-0.167,1.3672-0.5,3.5c2.9326-0.4658,5.7998-0.7002,8.6001-0.7002c1.1328,0,2.5327,0.0674,4.1997,0.2002
				c0.1328-0.4658,0.5332-1.7334,1.2002-3.7998l17.2002,4.5c-0.3345,0.8672-0.8345,2.1992-1.5,4
				C93.8657,49.7666,99.2002,58.2666,99.2002,69.5996z M35.2998,77.8994C35.0327,73.499,34.9326,69.5332,35,65.999l0.1001-2.5996
				C30.0327,67.5996,27.5,71.8662,27.5,76.1992c0,1.9346,0.9326,2.9004,2.7998,2.9004
				C31.5654,79.0996,33.2329,78.6992,35.2998,77.8994z M60,54.0996h-1.2002c-2,0-4.2671,0.2998-6.7998,0.8994
				c-0.0674,1.4678-0.1343,3.7344-0.2002,6.7998c0,1.335,0,2.8008,0,4.4004C54.7998,62.7988,57.5327,58.7666,60,54.0996z"/>
		</g>
	</g>
</g>
</svg>
