<?xml version="1.0" encoding="utf-8"?>
<!-- Generator: Adobe Illustrator 25.2.1, SVG Export Plug-In . SVG Version: 6.00 Build 0)  -->
<svg version="1.1" id="レイヤー_1" xmlns="http://www.w3.org/2000/svg" xmlns:xlink="http://www.w3.org/1999/xlink" x="0px"
	 y="0px" viewBox="0 0 110 110" style="enable-background:new 0 0 110 110;" xml:space="preserve">
<style type="text/css">
	.st0{fill:#1E1E28;}
</style>
<g>
	<g>
		<g>
			<path class="st0" d="M97.7002,68.5996c0,10-3.6001,17.667-10.8003,23c-6.3345,4.7324-14.7671,7.1992-25.2998,7.3994L56.5,84.6992
				c16.7329-0.333,25.1001-5.9658,25.1001-16.9004c0-5.9326-2.7671-10.165-8.3003-12.6992
				C69.0327,66.0332,63.6001,75.2666,57,82.7988c-8.3345,9.6006-17.1343,14.4004-26.3999,14.4004
				c-5.6675,0-10.0674-1.7002-13.2002-5.0996c-3-3.2002-4.5-7.5-4.5-12.9004c0-7.8652,2.1655-14.9004,6.5-21.0996
				c4.2656-6,10.1328-10.6006,17.6001-13.8008c0.0654-2.1992,0.2002-5.0996,0.3999-8.6992c-6.1997,0.0664-13.1001,0-20.6997-0.2002
				L16.3999,20.499c7.3999,0.5342,14.7329,0.7998,22,0.7998c0.333-3.9326,0.6655-7.5325,1-10.7996l15.8003,0.6001
				c-0.5347,3.5342-1,6.8-1.4004,9.8C64.2656,20.3662,75,19.2988,86,17.6992l0.3999,14.7998
				c-10.5342,1.335-21.9341,2.2344-34.1997,2.7002C52,37.666,51.8657,39.4336,51.7998,40.499
				C55,40.0332,57.8999,39.7988,60.5,39.7988c11.333,0,20.2002,2.2676,26.6001,6.8008
				C94.1655,51.5332,97.7002,58.8662,97.7002,68.5996z M37.6001,79.999c-0.4673-7.2656-0.7344-14.2002-0.8003-20.7998
				c-6.1997,4.4004-9.2998,10.4004-9.2998,18c0,3.334,1.3657,5,4.1001,5C33.4658,82.1992,35.4658,81.4668,37.6001,79.999z
				 M60.1001,52.5996c-3.3999,0-6.4673,0.2998-9.2002,0.8994c-0.2671,6.2002-0.3345,11.667-0.1997,16.4004
				C54.7002,64.2334,57.833,58.4668,60.1001,52.5996z"/>
		</g>
	</g>
</g>
</svg>
