<?xml version="1.0" encoding="utf-8"?>
<!-- Generator: Adobe Illustrator 25.2.1, SVG Export Plug-In . SVG Version: 6.00 Build 0)  -->
<svg version="1.1" id="レイヤー_1" xmlns="http://www.w3.org/2000/svg" xmlns:xlink="http://www.w3.org/1999/xlink" x="0px"
	 y="0px" viewBox="0 0 110 110" style="enable-background:new 0 0 110 110;" xml:space="preserve">
<style type="text/css">
	.st0{fill:#1E1E28;}
</style>
<g>
	<g>
		<g>
			<path class="st0" d="M98.9004,66.7988c0,21.9346-14.3672,32.9004-43.1006,32.9004V86.7988
				C48.333,93.665,40.4004,97.0996,32,97.0996c-5.8672,0-10.6348-1.8008-14.2998-5.4004c-4.4004-4.2002-6.6006-10.5332-6.6006-19
				c0-6.2002,1.7656-12,5.3008-17.4004C20.666,48.834,26.8652,44.0664,35,40.999l-0.0996-5.0996H14.5996V17.999h20.3008v-7.2002
				h18.6992v7.2002h41.8008v17H53.0996v2.4004c1.1328-0.0654,2.8008-0.1006,5-0.1006c14.1328,0,24.7334,3,31.8008,9
				C95.9004,51.4336,98.9004,58.2666,98.9004,66.7988z M35.7998,58.7988c-4.5996,3.5352-6.8994,8.168-6.8994,13.9004
				c0,4.0674,1.665,6.0996,5,6.0996c1.5322,0,3.2656-0.6992,5.1992-2.0996C37.5654,72.2988,36.4658,66.334,35.7998,58.7988z
				 M59.5,52.5996h-2.0996c-1.1348,0-2.4678,0.0664-4,0.1992c0.1328,3.7344,0.332,7.2344,0.5996,10.5
				C55.5996,60.499,57.4326,56.9336,59.5,52.5996z M61.2998,80.999c12-1.333,18-6.165,18-14.5c0-3.665-1.2002-6.5996-3.5996-8.7998
				C71.0332,67.2988,66.2324,75.0664,61.2998,80.999z"/>
		</g>
	</g>
</g>
</svg>
