<?xml version="1.0" encoding="utf-8"?>
<!-- Generator: Adobe Illustrator 25.2.1, SVG Export Plug-In . SVG Version: 6.00 Build 0)  -->
<svg version="1.1" id="レイヤー_1" xmlns="http://www.w3.org/2000/svg" xmlns:xlink="http://www.w3.org/1999/xlink" x="0px"
	 y="0px" viewBox="0 0 110 110" style="enable-background:new 0 0 110 110;" xml:space="preserve">
<style type="text/css">
	.st0{fill:#1E1E28;}
</style>
<g>
	<g>
		<g>
			<path class="st0" d="M98.4004,68.7988c0,10.2676-3.668,18.1006-11,23.5c-6.5352,4.8008-15.2002,7.2656-26,7.4004l-4.7002-14.2998
				c-8,8.5322-16.5342,12.7998-25.6006,12.7998c-6,0-10.667-1.7998-14-5.4004c-3.334-3.5996-5-8.2656-5-14
				c0-7.8652,2.166-14.8652,6.5-21c4.2656-5.9326,10.2002-10.5,17.8008-13.6992c0.0654-1.7334,0.165-4.3662,0.2998-7.9004
				c-8.2002,0.0674-15.0674,0.0342-20.6006-0.0996L15.7998,19.499c7,0.5342,14.333,0.7998,22,0.7998
				c0.2656-3.2656,0.5654-6.6653,0.9004-10.1995l17.7002,0.6997c-0.335,1.9346-0.8008,4.9673-1.4004,9.1003
				c10.7998-0.5332,21.4004-1.5,31.7998-2.9001l0.4004,16.4001c-10.0674,1.2002-21.4346,2.0342-34.1006,2.5
				c-0.1338,1.5996-0.2344,2.9668-0.2998,4.0996c2.2002-0.2656,4.833-0.3994,7.9004-0.3994c11.5322,0,20.5322,2.2998,27,6.8994
				C94.833,51.5664,98.4004,58.999,98.4004,68.7988z M36.9004,80.1992c-0.4004-6.5996-0.6348-13.166-0.7002-19.7002
				c-5.2676,4.0674-7.9004,9.5342-7.9004,16.4004c0,3.2002,1.2998,4.7998,3.9004,4.7998
				C33.5996,81.6992,35.166,81.1992,36.9004,80.1992z M59.4004,53.5996c-2.668,0.0664-5.2002,0.2998-7.6006,0.6992
				c-0.2666,5.9346-0.3672,10.9678-0.2998,15.1006C54.7002,64.5996,57.333,59.334,59.4004,53.5996z M58.2002,83.6992
				c8.3994-0.2656,14.3994-1.9326,18-5C79.0654,76.2334,80.5,72.6338,80.5,67.8994c0-5.0654-2.2676-8.833-6.7998-11.2998
				C69.9004,67.1338,64.7324,76.166,58.2002,83.6992z"/>
		</g>
	</g>
</g>
</svg>
