<?xml version="1.0" encoding="utf-8"?>
<!-- Generator: Adobe Illustrator 25.2.1, SVG Export Plug-In . SVG Version: 6.00 Build 0)  -->
<svg version="1.1" id="レイヤー_1" xmlns="http://www.w3.org/2000/svg" xmlns:xlink="http://www.w3.org/1999/xlink" x="0px"
	 y="0px" viewBox="0 0 110 110" style="enable-background:new 0 0 110 110;" xml:space="preserve">
<style type="text/css">
	.st0{fill:#1E1E28;}
</style>
<g>
	<g>
		<g>
			<path class="st0" d="M97,67.8994c0,9.2666-3.5342,16.7002-10.5996,22.2998C80.9326,94.5996,73.7998,97.5322,65,98.999
				l-4.7002-12.7998c5.2002-0.8652,9.8662-2.5996,14-5.2002c5.8662-3.665,8.7998-8.2656,8.7998-13.7998
				c0-5.4004-2.834-9.5996-8.5-12.5996L46.5,97.0996c-10.2002-0.2676-18.2676-2.5352-24.2002-6.8008
				c-6.2666-4.4648-9.3994-10.665-9.3994-18.5996c0-6.7998,2.2822-12.916,6.8496-18.3496
				c4.5654-5.4336,10.75-9.3828,18.5498-11.8506c0-0.8652-0.0342-2.0996-0.0996-3.7002c0-1.4648,0-2.5654,0-3.2998
				c-1.7344,0-9.0674,0.0674-22,0.2002l-0.2998-13c8.7324,0.2002,16.1992,0.2676,22.3994,0.2002
				c0-2.1328,0.0332-5.4004,0.1006-9.7998h13.2998l-0.2002,9.5c13.4658-0.333,27.0654-0.9658,40.7998-1.9004l0.2998,13.2998
				c-11.1992,0.4678-24.9668,0.8672-41.2998,1.2002v5.7002c2.666-0.2656,5.2002-0.4004,7.6006-0.4004
				c12.7324,0,22.4326,2.7998,29.0996,8.4004C94,52.9668,97,59.6338,97,67.8994z M46,74.499l-7.5996,0.1006
				c-0.0674-2.0664-0.1006-8.8662-0.1006-20.4004c-8.1338,3.4668-12.2002,8.9668-12.2002,16.5
				c0,7.1348,4.6006,11.2676,13.8008,12.4004L46,74.499z M62,50.6992c-1.1348-0.1328-2.5996-0.2002-4.4004-0.2002
				c-1.8672,0-4.0996,0.1348-6.6992,0.4004c0,0.667-0.0352,3.2344-0.1006,7.7002c0,4.334,0,7.5342,0,9.5996L62,50.6992z"/>
		</g>
	</g>
</g>
</svg>
