<?xml version="1.0" encoding="utf-8"?>
<!-- Generator: Adobe Illustrator 25.2.1, SVG Export Plug-In . SVG Version: 6.00 Build 0)  -->
<svg version="1.1" id="レイヤー_1" xmlns="http://www.w3.org/2000/svg" xmlns:xlink="http://www.w3.org/1999/xlink" x="0px"
	 y="0px" viewBox="0 0 110 110" style="enable-background:new 0 0 110 110;" xml:space="preserve">
<style type="text/css">
	.st0{fill:#1E1E28;}
</style>
<g>
	<g>
		<g>
			<path class="st0" d="M96.9004,68.3992c0,9.7344-3.5352,17.2344-10.6006,22.5c-6.2002,4.6655-14.3994,7.1655-24.5996,7.5
				L57,85.5994c17.1328-0.5327,25.7002-6.4658,25.7002-17.8003c0-6.9326-3.2344-11.6655-9.7002-14.1997
				c-4.5996,11.0669-10.2002,20.3672-16.7998,27.8999C47.7324,91.2336,39,96.0994,30,96.0994c-5.4004,0-9.4844-1.5-12.25-4.5
				c-2.7676-3-4.1504-7.0327-4.1504-12.1001c0-7.8657,2.166-14.8999,6.5-21.1001c4.2002-6,10-10.6001,17.4004-13.7998
				c0.0654-1.5327,0.2324-4.7656,0.5-9.7002c-7.4004,0.1343-14.334,0.1001-20.7998-0.1001l-0.2998-13.2998
				c7.0654,0.5342,14.3994,0.7671,22,0.7002C39.2998,17.7336,39.666,13.9338,40,10.7991l13.9004,0.7002
				c-0.5352,3.3999-1,6.8345-1.4004,10.2998c11.4004-0.5996,22.2656-1.6997,32.5996-3.2998L85.5,31.6995
				c-10.9346,1.3999-22.3672,2.3672-34.2998,2.8999c-0.1348,1.4673-0.2998,3.5669-0.5,6.2998
				c3.2656-0.5327,6.4326-0.7998,9.5-0.7998c11.1328,0,19.8652,2.1997,26.2002,6.6001
				C93.4004,51.4993,96.9004,58.7336,96.9004,68.3992z M38.2002,79.7991c-0.4678-6.7998-0.7344-14.1328-0.7998-22
				c-3.335,2.2002-5.9678,5.1001-7.9004,8.7002c-1.9346,3.6001-2.9004,7.2998-2.9004,11.1001c0,3.4673,1.4336,5.1997,4.3008,5.1997
				C33.0996,82.7991,35.5332,81.7991,38.2002,79.7991z M60.7998,51.4993c-4,0-7.5674,0.3672-10.7002,1.1001
				C49.9004,59.0667,49.8652,64.9666,50,70.2991C54.666,63.9666,58.2656,57.6995,60.7998,51.4993z"/>
		</g>
	</g>
</g>
</svg>
