<?xml version="1.0" encoding="utf-8"?>
<!-- Generator: Adobe Illustrator 25.2.1, SVG Export Plug-In . SVG Version: 6.00 Build 0)  -->
<svg version="1.1" id="レイヤー_1" xmlns="http://www.w3.org/2000/svg" xmlns:xlink="http://www.w3.org/1999/xlink" x="0px"
	 y="0px" viewBox="0 0 110 110" style="enable-background:new 0 0 110 110;" xml:space="preserve">
<style type="text/css">
	.st0{fill:#1E1E28;}
</style>
<g>
	<g>
		<g>
			<path class="st0" d="M94.2002,66.2988c0,16.4004-10.8003,26.168-32.4004,29.3008c-0.7344,0.1328-1.3999-0.0508-2-0.5508
				c-0.5996-0.5-0.8999-1.1494-0.8999-1.9492c0-1.4658,0.7002-2.3008,2.1001-2.5c18.4658-2.666,27.7002-10.8008,27.7002-24.4004
				c0-5.1328-1.5674-9.5332-4.7002-13.2002c-3.3345-3.9326-8.0342-6.5996-14.1001-8c-4.667,15.2002-10.3672,26.9346-17.1001,35.2002
				c-6.4668,7.9346-13.4341,11.9004-20.8999,11.9004c-4.4673,0-8.167-1.6836-11.1001-5.0508
				c-2.9341-3.3652-4.3999-7.8828-4.3999-13.5498c0-6.7998,2.1328-13,6.3999-18.5996c4.2656-5.6006,10.166-9.7656,17.7002-12.5
				c0,0.2002,0-3.7002,0-11.7002H21c-1.667,0-2.5-0.833-2.5-2.5c0-1.666,0.833-2.5,2.5-2.5h19.5v-8.7998
				c0-1.7334,0.8999-2.6006,2.7002-2.6006c1.7324,0,2.5996,0.8672,2.5996,2.6006v8.7998h44.1001c1.6655,0,2.5,0.834,2.5,2.5
				c0,1.667-0.8345,2.5-2.5,2.5H45.7002c0,0.7998,0,2.4668,0,5c-0.0674,2.5996-0.1001,4.334-0.1001,5.2002
				c4.3999-1.0654,9.0654-1.6006,14-1.6006c11.3325,0,20.0654,2.6006,26.1997,7.8008
				C91.3999,51.8994,94.2002,58.2988,94.2002,66.2988z M43.7002,82.2988c-1.8672-9.332-2.9004-20.9648-3.1001-34.8994
				c-5.9346,2.4668-10.6001,5.9844-14,10.5498C23.2002,62.5166,21.5,67.6992,21.5,73.499c0,4.0674,1.0156,7.335,3.0498,9.7998
				c2.0332,2.4678,4.583,3.7002,7.6504,3.7002C36.0654,86.999,39.8999,85.4336,43.7002,82.2988z M64.8999,44.1992
				c-1.8672-0.2002-3.7344-0.2998-5.6001-0.2998c-5,0-9.5669,0.5674-13.6997,1.7002c0,13.3994,0.7656,24.4336,2.2998,33.0996
				C54.7002,71.3662,60.3657,59.8662,64.8999,44.1992z"/>
		</g>
	</g>
</g>
</svg>
