<?xml version="1.0" encoding="utf-8"?>
<!-- Generator: Adobe Illustrator 25.2.1, SVG Export Plug-In . SVG Version: 6.00 Build 0)  -->
<svg version="1.1" id="レイヤー_1" xmlns="http://www.w3.org/2000/svg" xmlns:xlink="http://www.w3.org/1999/xlink" x="0px"
	 y="0px" viewBox="0 0 110 110" style="enable-background:new 0 0 110 110;" xml:space="preserve">
<style type="text/css">
	.st0{fill:#1E1E28;}
</style>
<g>
	<g>
		<g>
			<path class="st0" d="M95.3999,67.999c0,8.6001-3.0342,15.4346-9.1001,20.5c-5.1997,4.3999-12.2344,7.2002-21.0996,8.3999
				c-1.4004,0.2002-2.6504-0.1841-3.75-1.1499c-1.1001-0.9673-1.6504-2.1499-1.6504-3.5498c0-2.7329,1.333-4.333,4-4.8003
				c14.2656-2.3999,21.4004-9,21.4004-19.7998c0-9.0659-4.5347-14.833-13.6001-17.3003c-4.8003,11-10.4346,20.3672-16.8999,28.1001
				C46.1001,88.666,37.5327,93.7988,29,93.7988c-4.6001,0-8.1001-1.3325-10.5-4c-2.2671-2.4653-3.3999-5.7998-3.3999-10
				c0-7.5996,2.2329-14.5,6.6997-20.6997c4.2656-5.9331,10.0332-10.5659,17.3003-13.8999
				c0.1328-4.1328,0.3657-8.0659,0.6997-11.8003c-5.1343,0.1343-10.9341,0.1343-17.3999,0c-1.2671,0-2.3501-0.4653-3.25-1.3999
				c-0.8999-0.9326-1.3501-2.0327-1.3501-3.2998c0-1.2656,0.4829-2.3657,1.4502-3.3003c0.9658-0.9326,2.1157-1.3657,3.4502-1.2998
				c6.4653,0.2671,12.4326,0.3345,17.8999,0.1997c0-0.1997,0.3657-3.0327,1.1001-8.5c0.3999-2.9326,1.9653-4.3999,4.6997-4.3999
				c1.4658,0,2.7158,0.6001,3.75,1.8003c1.0327,1.1997,1.4502,2.4341,1.25,3.6997c-0.3345,2-0.7344,4.3345-1.1997,7
				c9.3999-0.5327,18.8325-1.5327,28.2998-3c1.3999-0.1997,2.6499,0.1675,3.75,1.1001c1.1001,0.9346,1.6499,2.1343,1.6499,3.6001
				c0,2.7344-1.3999,4.2671-4.1997,4.6001c-10.6001,1.334-20.7344,2.2671-30.4004,2.7998c-0.0669,0.6001-0.2998,3.667-0.6997,9.2002
				c3.9326-1,7.8657-1.5,11.7998-1.5c10.5327,0,18.8003,2.0669,24.8003,6.1997C92,51.5664,95.3999,58.5991,95.3999,67.999z
				 M40,79.499c-0.7998-8.7329-1.167-17-1.1001-24.7998c-4.2671,2.5996-7.7173,6.0498-10.3501,10.3496
				c-2.6343,4.3003-3.9497,8.75-3.9497,13.3501c0,3.9346,1.6328,5.8999,4.8999,5.8999C32.7656,84.2988,36.2656,82.6992,40,79.499z
				 M62.5,48.8989c-0.6001-0.0654-1.0674-0.0654-1.3999,0c-4-0.0654-8.3345,0.6001-13,2
				c-0.2671,6.9346-0.1675,14.0347,0.2998,21.3003C54.333,64.999,59.0327,57.2334,62.5,48.8989z"/>
		</g>
	</g>
</g>
</svg>
