<?xml version="1.0" encoding="utf-8"?>
<!-- Generator: Adobe Illustrator 25.2.1, SVG Export Plug-In . SVG Version: 6.00 Build 0)  -->
<svg version="1.1" id="レイヤー_1" xmlns="http://www.w3.org/2000/svg" xmlns:xlink="http://www.w3.org/1999/xlink" x="0px"
	 y="0px" viewBox="0 0 110 110" style="enable-background:new 0 0 110 110;" xml:space="preserve">
<style type="text/css">
	.st0{fill:#1E1E28;}
</style>
<g>
	<g>
		<g>
			<path class="st0" d="M92.9004,67.3989c0,8-3.168,14.4673-9.5,19.3999c-5.1348,4-11.8672,6.7002-20.2002,8.1001
				c-0.4678,0.1328-0.9004,0.0156-1.2998-0.3501c-0.4004-0.3672-0.6006-0.7842-0.6006-1.25c0-0.9326,0.4658-1.4653,1.4004-1.5996
				c7.3994-1.2656,13.3994-3.6328,18-7.1001c5.7998-4.3999,8.7002-10.1328,8.7002-17.2002c0-12.8657-6.9678-20.3325-20.9004-22.3999
				c-4.0674,10.1343-9.4004,19.5-16,28.1001c-8.7998,11.3345-17.1348,17-25,17c-3.0674,0-5.5342-1.2329-7.4004-3.7002
				c-1.667-2.0654-2.5-4.3657-2.5-6.8999c0-6.8657,2.333-13.3657,7-19.5C29,54.2661,34.7656,49.6992,41.9004,46.2988
				c0.332-5.3325,0.832-10.5654,1.5-15.6997c-7.2676,0.3999-14.5352,0.5-21.8008,0.2998c-1.0664,0-1.5996-0.5654-1.5996-1.6997
				c0-1.0659,0.5654-1.6001,1.7002-1.6001c3.7324,0.1997,7.4326,0.2998,11.0996,0.2998c3.666,0,7.333-0.1001,11-0.2998
				C44.2002,24.666,44.9326,20.1992,46,14.1992c0.2656-0.9331,0.833-1.4004,1.7002-1.4004c1.333,0,1.8652,0.6675,1.5996,2
				c-1.0674,5-1.834,9.2002-2.2998,12.6001c10.9326-0.7329,21.4658-2.0327,31.5996-3.8999c1.2002-0.2656,1.8008,0.2344,1.8008,1.5
				c0,0.8672-0.4346,1.3672-1.3008,1.5C67.833,28.3662,57,29.666,46.5996,30.3989c-0.7344,4.8003-1.2344,9.6343-1.5,14.5
				c5.666-2.1997,11.2656-3.2998,16.8008-3.2998c9.0654,0,16.2324,1.8345,21.5,5.5C89.7324,51.499,92.9004,58.2661,92.9004,67.3989z
				 M43.0996,79.0991c-1.334-9.5327-1.7998-19.3999-1.3994-29.6001c-6.1348,3.2002-11.0674,7.2998-14.7998,12.2998
				c-4.0674,5.4673-6.1006,11.3672-6.1006,17.7002c0,2.0674,0.6504,3.8345,1.9502,5.2998c1.2998,1.4673,2.8828,2.2002,4.75,2.2002
				C32.2998,86.999,37.5,84.3662,43.0996,79.0991z M65.4004,44.5991c-0.8672-0.0659-2.1348-0.1001-3.8008-0.1001
				c-5.4668,0-11.0342,1.2002-16.6992,3.6001c-0.5352,9.9341-0.2344,19.3672,0.8994,28.2998
				c4.0654-4.4653,8.0332-9.9653,11.9004-16.5C60.9658,54.4336,63.5332,49.3335,65.4004,44.5991z"/>
		</g>
	</g>
</g>
</svg>
