<?xml version="1.0" encoding="utf-8"?>
<!-- Generator: Adobe Illustrator 25.2.1, SVG Export Plug-In . SVG Version: 6.00 Build 0)  -->
<svg version="1.1" id="レイヤー_1" xmlns="http://www.w3.org/2000/svg" xmlns:xlink="http://www.w3.org/1999/xlink" x="0px"
	 y="0px" viewBox="0 0 110 110" style="enable-background:new 0 0 110 110;" xml:space="preserve">
<style type="text/css">
	.st0{fill:#1E1E28;}
</style>
<g>
	<g>
		<g>
			<path class="st0" d="M96,70.1992c-0.1343,7.7998-3.0674,14.2344-8.7998,19.2998C82.333,93.832,75.7656,96.8994,67.5,98.6992
				c-0.3999,0.0654-0.7671,0.0996-1.1001,0.0996c-1.3345,0-2.417-0.4844-3.25-1.4492c-0.8345-0.9678-1.25-2.085-1.25-3.3506
				c0-2.2002,1.1328-3.5996,3.3999-4.2002C79.1001,86.3994,86,79.6992,86,69.6992c0-7-3.5674-11.8652-10.7002-14.5996
				c-0.667-0.2656-1.2998-0.4004-1.8999-0.4004c-1.667,0-3.1001,1.0342-4.2998,3.0996
				c-4.2671,7.2002-9.3345,13.9678-15.2002,20.3008c-1.5342,1.667-2.2998,3.5342-2.2998,5.5996c0,0.5342,0.0327,1.167,0.1001,1.9004
				c0.4653,3.4668-0.9673,5.1992-4.3003,5.1992c-1.0669,0-1.9341-0.2324-2.6001-0.6992c-1.1343-0.8008-2.0342-1.2002-2.6997-1.2002
				c-0.5347,0-1.1343,0.2002-1.8003,0.5996c-5.0669,3.0674-9.8999,4.6006-14.5,4.6006c-3.4668,0-6.2168-1.0674-8.25-3.2002
				C15.5156,88.7666,14.5,85.9668,14.5,82.499c0-6.5322,2.6655-12.7656,8-18.7002c3.7329-4.1328,8.5654-7.7656,14.5-10.8994
				c2.7329-1.4004,4.1655-3.5,4.2998-6.2998c0.1328-2,0.3003-4.1328,0.5-6.4004c0.1328-1.5332-0.1997-2.7002-1-3.5
				c-0.7998-0.7998-1.9668-1.1328-3.5-1c-3.8672,0.2676-7.2671,0.4004-10.1997,0.4004c-1.2671,0-2.3174-0.4502-3.1499-1.3506
				c-0.8345-0.8994-1.25-1.9824-1.25-3.25c0-1.2656,0.4653-2.3652,1.3999-3.2998c0.9326-0.9326,2.0654-1.3652,3.3999-1.2998
				c3.6001,0.2002,7.5654,0.1338,11.8999-0.2002c2.333-0.1328,3.8999-1.5996,4.7002-4.4004c0.3999-2.5322,0.8154-5.082,1.25-7.6494
				c0.4326-2.5654,1.9497-3.8506,4.5498-3.8506c1.2656,0,2.3999,0.4346,3.3999,1.3008c1,0.8672,1.5,1.9668,1.5,3.2998
				c0,0.2666-0.0669,0.7344-0.1997,1.3994c-0.6675,2.1348-1,3.6348-1,4.5c0,1.9346,0.9653,2.9004,2.8999,2.9004
				c0.3999,0,0.833-0.0654,1.2998-0.2002c2.9331-0.665,5.6328-1.4658,8.1001-2.3994c0.5327-0.2002,1.0327-0.3008,1.5-0.3008
				c1.2002,0,2.25,0.4346,3.1499,1.3008c0.9004,0.8672,1.3501,1.8994,1.3501,3.0996c0,2.0674-1,3.4668-3,4.2002
				C64.7002,31.499,60.0654,32.7334,55,33.5996c-2.667,0.4668-4.167,1.9668-4.5,4.5l-0.6001,4.7998
				c-0.3345,2.4668,0.5659,3.7002,2.7002,3.7002c0.5327,0,1.1328-0.0332,1.7998-0.1006c2.6655-0.3994,5.25-0.665,7.75-0.7998
				c2.5-0.1328,4.25-1.333,5.25-3.5996l0.5-1.1006c0.8657-1.8652,2.2656-2.7998,4.2002-2.7998c1.2656,0,2.3325,0.4346,3.1997,1.2998
				c0.8657,0.8672,1.3003,1.9346,1.3003,3.2002c0,0.1348-0.0674,0.4668-0.2002,1c-0.5342,1.9346,0.0659,3.167,1.8003,3.7002
				c5.1328,1.5996,9.1328,3.9668,12,7.0996C94.1328,58.7666,96.0654,63.999,96,70.1992z M41.2002,74.1992
				c-0.2676-3.5996-0.4346-7.166-0.5-10.7002c0-1.7998-0.6348-2.7002-1.9004-2.7002c-0.5342,0-1.0996,0.2002-1.6997,0.6006
				c-9.2002,6-13.8003,12.3994-13.8003,19.2002c0,3.0664,1.5332,4.5996,4.6001,4.5996c2.6001,0,5.9658-1.3652,10.1001-4.0996
				C40.333,79.499,41.3999,77.1992,41.2002,74.1992z M59.8999,56.999c0.4658-0.7998,0.7002-1.4658,0.7002-2
				c0-1.2656-0.9673-1.7998-2.8999-1.5996c-1.4004,0.1338-3.0674,0.4668-5,1C50.2329,55.0664,49,56.7988,49,59.5996
				c0,1.0664,0.0654,3.0996,0.2002,6.0996c0.0654,1.7344,0.6655,2.5996,1.7998,2.5996c0.6001,0,1.2002-0.3652,1.7998-1.0996
				C55.3999,63.9336,57.7656,60.5332,59.8999,56.999z"/>
		</g>
	</g>
</g>
</svg>
