<?xml version="1.0" encoding="utf-8"?>
<!-- Generator: Adobe Illustrator 25.2.1, SVG Export Plug-In . SVG Version: 6.00 Build 0)  -->
<svg version="1.1" id="レイヤー_1" xmlns="http://www.w3.org/2000/svg" xmlns:xlink="http://www.w3.org/1999/xlink" x="0px"
	 y="0px" viewBox="0 0 110 110" style="enable-background:new 0 0 110 110;" xml:space="preserve">
<style type="text/css">
	.st0{fill:#1E1E28;}
</style>
<g>
	<g>
		<g>
			<path class="st0" d="M99.5,68.5991c0,7.667-2.9673,14.3345-8.8999,20c-6.6675,6.3999-16.2002,10.3999-28.6001,12
				c-1.3345,0.1997-2.3999-0.1343-3.2002-1c-0.7998-0.8672-1.1997-1.8672-1.1997-3c0-2.2671,1.1328-3.5347,3.3999-3.8003
				c10.1328-1.2656,17.9326-4.2998,23.3999-9.0996c4.8657-4.2656,7.3003-9.3003,7.3003-15.1001
				c0-4.5327-1.4004-8.6655-4.2002-12.3999c-3.1343-4.1328-7.6343-7.1001-13.5-8.9004
				C70.8657,58.499,64.7998,68.8989,55.7998,78.499C46.2002,88.6992,36.9326,93.7988,28,93.7988
				c-5.2002,0-9.4346-1.9653-12.7002-5.8999c-3.0669-3.7329-4.5996-8.1997-4.5996-13.3999c0-6,2.1328-11.9326,6.3999-17.7998
				C22.0327,50.0332,28.833,45.0991,37.5,41.8989c0.2656-5.7329,0.5-10,0.7002-12.7998H16.5c-1.2002,0-2.1499-0.3657-2.8501-1.1001
				c-0.6997-0.7329-1.0498-1.6001-1.0498-2.6001c0-2.5327,1.2998-3.7998,3.8999-3.7998h22.2002
				c0.1328-2.1328,0.3999-5.2002,0.7998-9.2002c0.2656-2.3999,1.5654-3.6001,3.8999-3.6001c1.1328,0,2.1001,0.3848,2.8999,1.1504
				c0.8003,0.7671,1.166,1.8169,1.1001,3.1499c-0.1997,1.8672-0.4673,4.6997-0.7998,8.5h41.7998
				c2.6001,0,3.8999,1.2671,3.8999,3.7998c0,2.4673-1.2998,3.7002-3.8999,3.7002H46l-0.6001,10.6001c4.5327-1,9.5327-1.5,15-1.5
				c12.7329,0,22.6655,3.167,29.8003,9.5C96.3999,53.2988,99.5,60.2661,99.5,68.5991z M39.7002,82.3989
				c-2.0674-11.1328-2.8345-21.9653-2.3003-32.5c-6.1343,2.8003-10.8999,6.6343-14.2998,11.5
				c-2.9346,4.2671-4.3999,8.6343-4.3999,13.1001c0,3.1343,0.8325,5.7998,2.5,8c1.7998,2.3999,4.1328,3.6001,7,3.6001
				C31.8657,86.0991,35.7002,84.8662,39.7002,82.3989z M66.7998,45.7988c-2.5342-0.2656-4.5996-0.3999-6.1997-0.3999
				c-5.3345,0-10.4673,0.6001-15.3999,1.8003c0,0.4668,0,1.1997,0,2.1997c-0.0674,1-0.1001,1.7671-0.1001,2.3003
				c0,9.5342,0.5654,18.0342,1.6997,25.5c4.4658-4,8.5-8.833,12.1001-14.5C62.5,57.0332,65.1328,51.3989,66.7998,45.7988z"/>
		</g>
	</g>
</g>
</svg>
