<?xml version="1.0" encoding="utf-8"?>
<!-- Generator: Adobe Illustrator 25.2.1, SVG Export Plug-In . SVG Version: 6.00 Build 0)  -->
<svg version="1.1" id="レイヤー_1" xmlns="http://www.w3.org/2000/svg" xmlns:xlink="http://www.w3.org/1999/xlink" x="0px"
	 y="0px" viewBox="0 0 110 110" style="enable-background:new 0 0 110 110;" xml:space="preserve">
<style type="text/css">
	.st0{fill:#1E1E28;}
</style>
<g>
	<g>
		<g>
			<path class="st0" d="M95.8999,67.7988c0,7.8008-2.8345,14.4004-8.5,19.8008c-4.5342,4.334-10.5,7.5322-17.8999,9.5996
				c-0.3999,0.1328-0.8345,0.2002-1.2998,0.2002c-1.3345,0-2.4844-0.4678-3.4502-1.4004c-0.9673-0.9346-1.4502-2.0996-1.4502-3.5
				c0-2.4658,1.1328-4.0322,3.4004-4.7002c5.2656-1.5996,9.5996-3.9326,13-7c4.3325-3.7998,6.5-8.2656,6.5-13.3994
				c0-7.7334-4.1675-13.2334-12.5-16.5L49.2998,88.499c-2.8672,4.4004-6.3672,6.6006-10.5,6.6006
				c-0.9341,0-1.8999-0.1006-2.8999-0.3008c-6.7998-1.3994-12.1343-4.1152-16-8.1494c-3.8672-4.0332-5.7998-9.0156-5.7998-14.9502
				c0-6.5332,2.3154-12.4824,6.9497-17.8496c4.6328-5.3662,10.916-9.25,18.8501-11.6504c0-1.333,0.0327-4.5,0.1001-9.5
				c-5.3999,0.0674-11.7998,0.1348-19.2002,0.2002c-1.2671,0-2.334-0.4326-3.1997-1.2998
				c-0.8672-0.8662-1.3003-1.9336-1.3003-3.2002c0-1.2656,0.4502-2.3506,1.3501-3.25c0.8999-0.9004,1.9829-1.3506,3.25-1.3506
				c6.5327,0.0674,12.9331,0.0674,19.2002,0l0.1001-6.6992c0-1.2656,0.4497-2.3506,1.3496-3.25
				c0.9004-0.9004,2.0156-1.3506,3.3501-1.3506c1.2656,0,2.3657,0.4844,3.3003,1.4502c0.9326,0.9668,1.3652,2.084,1.2998,3.3496
				l-0.1001,6.3008c13.4658-0.333,26.2656-0.8662,38.3999-1.6006c1.333-0.0654,2.5,0.3506,3.5,1.25c1,0.9004,1.5,2.0176,1.5,3.3506
				c0,1.2666-0.4341,2.334-1.2998,3.1992c-0.8672,0.8672-1.9346,1.335-3.2002,1.4004c-15,0.5996-28.0669,1.0342-39.1997,1.2998
				C49.0327,34.166,49,36.9668,49,40.8994c3.1328-0.4658,6.4326-0.7002,9.8999-0.7002c12.2002,0,21.5659,2.7344,28.1001,8.2002
				C92.9326,53.2666,95.8999,59.7334,95.8999,67.7988z M45.8999,76.999c-0.5342,0.2002-1.0342,0.2998-1.5,0.2998
				c-1.1997,0-2.2344-0.4326-3.1001-1.2998C40.4326,75.1338,40,74.0996,40,72.8994c-0.0674-7.4658-0.1001-14.7334-0.1001-21.7998
				c-5.2671,1.9336-9.3169,4.667-12.1499,8.1992c-2.8345,3.5352-4.25,7.4678-4.25,11.8008c0,7.5996,4.2656,12.3672,12.7998,14.2998
				c0.4658,0.1338,0.9004,0.2002,1.3003,0.2002c1.6001,0,2.9653-0.833,4.1001-2.5L45.8999,76.999z M64.2998,48.3994
				c-2.0669-0.2656-4.0996-0.4004-6.0996-0.4004c-3.2676,0-6.4004,0.2344-9.4004,0.7002c0,0.8672-0.0342,4.5342-0.0996,11
				c0,5.7998,0,10.167,0,13.0996C49.9658,70.8662,55.1655,62.7334,64.2998,48.3994z"/>
		</g>
	</g>
</g>
</svg>
