<?xml version="1.0" encoding="utf-8"?>
<!-- Generator: Adobe Illustrator 25.2.1, SVG Export Plug-In . SVG Version: 6.00 Build 0)  -->
<svg version="1.1" id="レイヤー_1" xmlns="http://www.w3.org/2000/svg" xmlns:xlink="http://www.w3.org/1999/xlink" x="0px"
	 y="0px" viewBox="0 0 110 110" style="enable-background:new 0 0 110 110;" xml:space="preserve">
<style type="text/css">
	.st0{fill:#1E1E28;}
</style>
<g>
	<g>
		<g>
			<path class="st0" d="M97.2998,67.8994c0,8.2002-2.8672,15.0674-8.5996,20.5996c-4.6001,4.5332-10.7344,7.8662-18.4004,10
				c-0.5996,0.1328-1.1997,0.2002-1.7998,0.2002c-1.7998,0-3.3672-0.6504-4.7002-1.9502c-1.334-1.2998-2-2.8838-2-4.75
				c0-3.2656,1.5-5.3994,4.5-6.3994c11.7329-3.9336,17.6001-10,17.6001-18.2002c0-6-3.1001-10.6006-9.2998-13.7998L51.5,88.8994
				c-3.3999,5.2002-7.5674,7.7998-12.5,7.7998c-1.0674,0-2.2002-0.1348-3.3999-0.4004c-7.1343-1.5342-12.7002-4.332-16.7002-8.3994
				c-4.1997-4.333-6.2998-9.7002-6.2998-16.1006c0-6.7998,2.3154-12.9648,6.9497-18.5c4.6328-5.5322,10.8828-9.5654,18.75-12.0996
				v-6.7998c-3.7998,0.0674-9.4668,0.1338-17,0.2002c-1.7344,0-3.2168-0.6162-4.4497-1.8506C15.6157,31.5166,15,30.0332,15,28.2988
				c0-1.7324,0.6328-3.2148,1.8999-4.4492c1.2656-1.2334,2.7656-1.8506,4.5-1.8506c6.7329,0.1348,12.4331,0.167,17.1001,0.1006
				v-4.7002c0-1.7334,0.6328-3.2334,1.8999-4.5C41.6655,11.6338,43.2002,10.999,45,10.999s3.3154,0.6504,4.5498,1.9502
				c1.2329,1.2998,1.8501,2.8496,1.8501,4.6504c0,0.5342-0.0342,1.9336-0.1001,4.1992c11.9331-0.332,23.8003-0.8652,35.6001-1.5996
				c1.8003-0.1328,3.3999,0.4502,4.8003,1.75c1.3999,1.2998,2.0996,2.8496,2.0996,4.6504c0,1.7344-0.5996,3.2168-1.7998,4.4492
				c-1.2002,1.2344-2.667,1.8848-4.3999,1.9502c-12.8003,0.5342-25,0.9346-36.6001,1.2002c0,1.2002-0.0342,2.9346-0.1001,5.2002
				c2.7329-0.2656,5.3999-0.4004,8-0.4004c12.6655,0,22.3999,2.835,29.2002,8.5C94.2329,52.6338,97.2998,59.4336,97.2998,67.8994z
				 M44.7002,75.8994h-0.3003c-1.7344,0.0674-3.1841-0.5156-4.3501-1.75c-1.167-1.2334-1.75-2.6826-1.75-4.3506v-16
				c-8.4668,3.668-12.6997,9.4004-12.6997,17.2002c0,6.4004,3.6328,10.5,10.8999,12.2998c1.6655,0.4004,3.0654-0.1992,4.2002-1.7998
				L44.7002,75.8994z M61.6001,50.1992c-1.5347-0.1328-2.7671-0.2002-3.7002-0.2002c-2.4673,0-4.8999,0.1348-7.2998,0.4004
				c0,0.5342,0,3.0342,0,7.5C50.5327,62.7666,50.5,65.9668,50.5,67.499L61.6001,50.1992z"/>
		</g>
	</g>
</g>
</svg>
