<?xml version="1.0" encoding="utf-8"?>
<!-- Generator: Adobe Illustrator 25.2.1, SVG Export Plug-In . SVG Version: 6.00 Build 0)  -->
<svg version="1.1" id="レイヤー_1" xmlns="http://www.w3.org/2000/svg" xmlns:xlink="http://www.w3.org/1999/xlink" x="0px"
	 y="0px" viewBox="0 0 110 110" style="enable-background:new 0 0 110 110;" xml:space="preserve">
<style type="text/css">
	.st0{fill:#1E1E28;}
</style>
<g>
	<g>
		<g>
			<path class="st0" d="M95.2998,70.8003c0,7.8672-2.6343,15.8003-7.8999,23.8003c-0.8672,1.3325-2.167,2-3.8999,2
				c-1.3345,0-2.4673-0.4673-3.3999-1.3999c-0.9346-0.9346-1.3999-2.0347-1.3999-3.3003c0-0.9326,0.2656-1.7998,0.7998-2.6001
				c4.4658-6.9326,6.7002-13.1997,6.7002-18.7998c0-8.8657-3.9346-15.3999-11.8003-19.6001
				c-5.8672,15.6001-13.7671,27.4673-23.6997,35.6001c0.1328,0.7998,0.3325,2,0.5996,3.6001
				c0.2002,1.3345-0.1499,2.5171-1.0498,3.5498s-2.0171,1.5503-3.3501,1.5503c-2.3345,0-3.7671-1.1348-4.2998-3.4004
				c-3.6675,1.7329-7.2344,2.6001-10.7002,2.6001c-5.0669,0-9.167-1.4653-12.2998-4.3999c-3.3345-3.2002-5-7.6001-5-13.2002
				c0-7.4653,2.2998-14.2324,6.8999-20.2998c4.8657-6.333,11.5654-10.8999,20.1001-13.7002
				c0.2656-4.8652,0.4653-8.4653,0.6001-10.7998c-7.2676,0.1343-13.8345,0.2998-19.7002,0.5
				c-1.2002,0.0674-2.2344-0.333-3.1001-1.2002c-0.8672-0.8652-1.2998-1.8999-1.2998-3.0996c0-1.2002,0.3999-2.2158,1.1997-3.0503
				c0.8003-0.8325,1.8003-1.25,3-1.25c5.9331-0.1328,12.7656-0.2656,20.5-0.3999c0.1328-1.6001,0.3657-3.8999,0.7002-6.8999
				c0.1328-1.1328,0.6328-2.1157,1.5-2.9502c0.8657-0.8325,1.8999-1.25,3.1001-1.25c1.3325,0,2.4653,0.5171,3.3999,1.5503
				c0.9326,1.0342,1.2998,2.2168,1.1001,3.5498c-0.0674,0.667-0.3003,2.6343-0.7002,5.8999l39-0.3999
				c1.2002,0,2.2158,0.4346,3.0503,1.2998c0.8325,0.8672,1.25,1.9004,1.25,3.1001c0,1.2002-0.4175,2.2002-1.25,3
				c-0.8345,0.8003-1.8501,1.2002-3.0503,1.2002c-11.5342,0-24.8345,0.1001-39.8999,0.2998
				c-0.2002,1.9346-0.4673,4.8672-0.7998,8.8003c3.3999-0.5332,6.8652-0.8003,10.3999-0.8003c2.6001,0,5.1997,0.2002,7.7998,0.6001
				l0.1001-0.5c0.6001-2.2002,2.0654-3.2998,4.3999-3.2998c1.2656,0,2.333,0.4497,3.2002,1.3496
				c0.8657,0.9004,1.2998,1.9502,1.2998,3.1504c0,0.4668-0.0669,0.8999-0.1997,1.2998l-0.1001,0.2998
				C89.2329,47.6006,95.2998,56.9351,95.2998,70.8003z M41.7002,82.7007C41.2329,76.3003,41,69.8003,41,63.2007
				c0-3.9331,0.0654-7.9004,0.2002-11.9004c-5.7344,2.4004-10.2002,5.9004-13.4004,10.5c-3,4.2676-4.5,8.9673-4.5,14.1001
				c0,2.9346,0.8657,5.3003,2.6001,7.1001c1.7329,1.7998,3.8657,2.7002,6.3999,2.7002
				C35.2329,85.7007,38.3657,84.7007,41.7002,82.7007z M66.1001,48.1006c-2.2671-0.3999-4.2671-0.6001-6-0.6001
				c-3.2671,0-6.7344,0.3999-10.3999,1.2002c-0.2676,5-0.4004,10.0669-0.4004,15.1997c0,4.3999,0.1328,8.5,0.4004,12.3003
				C56.6328,69.0005,62.1001,59.6348,66.1001,48.1006z"/>
		</g>
	</g>
</g>
</svg>
