<?xml version="1.0" encoding="utf-8"?>
<!-- Generator: Adobe Illustrator 25.2.1, SVG Export Plug-In . SVG Version: 6.00 Build 0)  -->
<svg version="1.1" id="レイヤー_1" xmlns="http://www.w3.org/2000/svg" xmlns:xlink="http://www.w3.org/1999/xlink" x="0px"
	 y="0px" viewBox="0 0 110 110" style="enable-background:new 0 0 110 110;" xml:space="preserve">
<style type="text/css">
	.st0{fill:#1E1E28;}
</style>
<g>
	<g>
		<g>
			<path class="st0" d="M96.7002,70.0991C96.6328,77.6333,94,83.9668,88.7998,89.0996c-4.9346,4.8652-11.7666,8.2998-20.5,10.2998
				C67.9004,99.4648,67.4658,99.499,67,99.499c-1.4668,0-2.75-0.5342-3.8496-1.5996C62.0498,96.832,61.5,95.5322,61.5,93.999
				c0-2.8652,1.3652-4.665,4.0996-5.3994c12.666-3.5332,19-9.9004,19-19.1006c0-7.2002-4.0342-12.1001-12.0996-14.7002
				c-5.667,10.3345-12.7002,19.4673-21.0996,27.4004l0.7998,4.5c0,1.4668-0.5176,2.7344-1.5498,3.7998
				c-1.0352,1.0674-2.3174,1.6006-3.8506,1.6006c-2.0674,0-3.6338-0.9004-4.7002-2.7002
				c-5.7998,3.5342-11.1992,5.2998-16.1992,5.2998c-3.4004,0-6.2344-1-8.5-3c-2.5352-2.333-3.8008-5.5654-3.8008-9.7002
				c0-6.7329,2.6006-13.0654,7.8008-19c4.665-5.333,10.832-9.7329,18.5-13.2002c0.2656-4.5327,0.665-9.2324,1.1992-14.0996
				c-5.1338,0.334-9.7344,0.4341-13.7998,0.2998c-1.4668-0.0654-2.7168-0.6157-3.75-1.6499C22.5156,33.3164,22,32.0332,22,30.499
				c0-1.5327,0.583-2.8657,1.75-4c1.166-1.1328,2.5498-1.6328,4.1504-1.5c4.0654,0.2671,8.8994,0.2344,14.5-0.1001
				c0.332-2.3325,0.8652-5.6328,1.5996-9.8999c0.2656-1.3999,0.9326-2.5498,2-3.4502c1.0654-0.8999,2.2998-1.3496,3.7002-1.3496
				c1.5322,0,2.8652,0.5669,4,1.6997c1.1328,1.1343,1.7002,2.4673,1.7002,4c0,0.1343-0.5352,2.7002-1.6006,7.7002
				c4.2002-0.7329,8.166-1.7656,11.9004-3.1001c0.5996-0.2002,1.2002-0.2998,1.7998-0.2998c1.4658,0,2.7158,0.5171,3.75,1.5498
				c1.0332,1.0342,1.5498,2.2842,1.5498,3.75c0,2.5342-1.5996,4.3345-4.7998,5.3999c-4.7344,1.6001-10.167,2.8345-16.2998,3.7002
				c-0.5342,3.667-1,7.4673-1.4004,11.3999c4.7334-1.2656,9.2998-1.8999,13.7002-1.8999h2.0996
				c0.5332-1.2002,0.9336-2.1655,1.2002-2.8999c0.8662-2.2656,2.5332-3.4004,5-3.4004c1.5332,0,2.8154,0.5176,3.8506,1.5503
				c1.0322,1.0342,1.5498,2.3169,1.5498,3.8501c0,0.7998-0.167,1.5342-0.5,2.1997L77,45.7988
				c6.1328,1.7344,10.9004,4.6001,14.2998,8.6001C94.9658,58.666,96.7656,63.8989,96.7002,70.0991z M40.2002,78.5991
				C39.5996,72.666,39.3652,66.4663,39.5,59.999c-4.5342,2.667-8.167,5.7002-10.9004,9.1001
				c-2.9336,3.6001-4.3994,7.1343-4.3994,10.6001c0,2.7998,1.3994,4.2002,4.2002,4.2002
				C31.2656,83.8994,35.2002,82.1333,40.2002,78.5991z M61.5996,53.2988c-3.7998,0.0674-7.7666,0.7676-11.8994,2.1001
				c0,0.6001-0.0342,1.5-0.1006,2.7002c-0.0664,3.9341,0.0332,7.8999,0.3008,11.8999
				C54.166,65.3335,58.0654,59.7661,61.5996,53.2988z"/>
		</g>
	</g>
</g>
</svg>
