<?xml version="1.0" encoding="utf-8"?>
<!-- Generator: Adobe Illustrator 25.2.1, SVG Export Plug-In . SVG Version: 6.00 Build 0)  -->
<svg version="1.1" id="レイヤー_1" xmlns="http://www.w3.org/2000/svg" xmlns:xlink="http://www.w3.org/1999/xlink" x="0px"
	 y="0px" viewBox="0 0 110 110" style="enable-background:new 0 0 110 110;" xml:space="preserve">
<style type="text/css">
	.st0{fill:#1E1E28;}
</style>
<g>
	<g>
		<g>
			<path class="st0" d="M94,70.6992c-0.0674,6.9341-2.7676,12.667-8.0996,17.1997c-5.0674,4.3345-12,7.3003-20.8008,8.8999
				c-1.334,0.2656-2-0.2671-2-1.5996c0-0.9346,0.4658-1.5,1.4004-1.7002c8.2656-1.5327,14.6328-4.333,19.0996-8.3999
				c4.4658-4.0659,6.7002-9,6.7002-14.8003c0-5.2656-1.9844-9.5156-5.9502-12.75c-3.9668-3.2324-9.584-4.9824-16.8496-5.25
				c-5.7998,10.1348-11.9004,18.7344-18.2998,25.8003c0.4658,2.2671,1.0322,4.3672,1.7002,6.2998
				c0.1992,0.6001,0.1152,1.1675-0.25,1.7002c-0.3672,0.5342-0.8848,0.7998-1.5508,0.7998c-0.9336,0-1.5342-0.5498-1.7998-1.6499
				c-0.2666-1.1001-0.5674-2.4829-0.8994-4.1499c-7.5352,7.5342-14.5352,11.2998-21,11.2998c-2.1348,0-3.9678-0.6655-5.5-2
				c-1.7344-1.5327-2.6006-3.6997-2.6006-6.5c0-6.3325,2.7998-12.2329,8.4004-17.6997c4.7324-4.6001,10.9326-8.5,18.5996-11.7002
				c0-0.3999,0-1.0327,0-1.8999c0.0654-4.8003,0.6006-10.9658,1.6006-18.5c-7.1348,1.3999-13.6348,2.1343-19.5,2.1997
				c-1.2002,0-1.8008-0.5996-1.8008-1.7998s0.6006-1.7998,1.8008-1.7998c6.332,0.0669,12.9648-0.5332,19.8994-1.8003
				c0.7998-5.7998,1.7334-11.3999,2.7998-16.7998c0.2002-1.0659,0.833-1.6001,1.9004-1.6001c0.666,0,1.2002,0.2671,1.5996,0.7998
				c0.4004,0.5347,0.5,1.1348,0.3008,1.8003c-1.2676,4-2.4004,9.0669-3.4004,15.1997c6.4004-1.4653,12.0654-3.2656,17-5.3999
				c0.2002-0.0654,0.4326-0.1001,0.7002-0.1001c1.2002,0,1.7998,0.5674,1.7998,1.7002c0,0.7344-0.3672,1.2671-1.0996,1.6001
				C63.5654,29.8989,57.2656,31.666,49,33.3989c-1.0674,7.2671-1.667,13.9346-1.7998,20c6.9326-2.5327,13.0322-3.8657,18.2998-4
				c1.7998-3.3325,3.2324-6.2998,4.2998-8.8999c0.333-0.7329,0.9004-1.1001,1.7002-1.1001c1.1328,0,1.7002,0.6001,1.7002,1.8003
				c0,0.667-1.3672,3.4341-4.1006,8.2998c7.0664,0.4673,12.8008,2.2671,17.2002,5.3999C91.5,58.6992,94.0654,63.9663,94,70.6992z
				 M45.7998,77.3989c-0.9346-6.1997-1.4346-12.8325-1.5-19.8999c-6.7998,3-12.2666,6.6001-16.3994,10.7998
				c-4.8008,4.8672-7.2002,9.9346-7.2002,15.2002c0,3.667,1.8994,5.5,5.7002,5.5C32,88.999,38.4658,85.1333,45.7998,77.3989z
				 M63.9004,52.2988c-4.9346,0.2676-10.5,1.6001-16.7002,4c0,6.5347,0.4326,12.5347,1.2998,18
				C54.166,67.7661,59.2998,60.4336,63.9004,52.2988z"/>
		</g>
	</g>
</g>
</svg>
