<?xml version="1.0" encoding="utf-8"?>
<!-- Generator: Adobe Illustrator 25.2.1, SVG Export Plug-In . SVG Version: 6.00 Build 0)  -->
<svg version="1.1" id="レイヤー_1" xmlns="http://www.w3.org/2000/svg" xmlns:xlink="http://www.w3.org/1999/xlink" x="0px"
	 y="0px" viewBox="0 0 110 110" style="enable-background:new 0 0 110 110;" xml:space="preserve">
<style type="text/css">
	.st0{fill:#1E1E28;}
</style>
<g>
	<g>
		<g>
			<path class="st0" d="M96,70.1992c-0.0674,7.334-2.7002,13.5-7.8999,18.5c-4.9346,4.7324-11.8003,8.0654-20.6001,10
				c-0.3999,0.0654-0.7998,0.0996-1.2002,0.0996c-1.334,0-2.3999-0.4668-3.1997-1.3994c-0.8003-0.9346-1.2002-2.0342-1.2002-3.2998
				c0-2.333,1.1328-3.7656,3.3999-4.3008C79.1001,86.334,86,79.6333,86,69.6992c0-3.8657-1.25-7.2002-3.75-10
				c-2.5-2.8003-6.1172-4.7329-10.8501-5.8003c-5.667,10.2671-12.5,19.3345-20.5,27.2002c0.6655,3.6001,1,5.3345,1,5.1997
				c0,1.2002-0.4341,2.25-1.2998,3.1504c-0.8672,0.9004-1.9346,1.3496-3.2002,1.3496c-2.1343,0-3.5669-1.0322-4.2998-3.0996
				c-6.2002,4.2676-11.9673,6.4004-17.3003,6.4004c-3.0669,0-5.667-0.9346-7.7998-2.8008c-2.3345-2.0654-3.5-5-3.5-8.7998
				c0-6.6001,2.6655-12.833,8-18.7002C27.1655,58.666,33.333,54.3989,41,50.999c0.333-5.4658,0.7656-10.7002,1.2998-15.7002
				c-6.334,0.6001-11.3999,0.8672-15.1997,0.8003c-1.2671,0-2.3174-0.4502-3.1499-1.3501c-0.8345-0.8999-1.25-1.9829-1.25-3.25
				c0-1.2656,0.4653-2.3657,1.3999-3.2998c0.9326-0.9331,2.0654-1.3657,3.3999-1.3003c4.6001,0.2671,9.8999,0.1001,15.8999-0.5
				c0.3999-2.8657,1.0327-6.7329,1.8999-11.6001c0.4658-2.6655,2-4,4.6001-4c1.2656,0,2.3999,0.4346,3.3999,1.3003
				c1,0.8672,1.5,1.9673,1.5,3.2998c0,0.4673-0.0669,0.9346-0.1997,1.3999C54,18.999,53.3657,21.7661,52.7002,25.0991
				c4.8652-0.9331,9.2656-2.1001,13.1997-3.5c0.5327-0.2002,1.0327-0.3003,1.5-0.3003c1.2002,0,2.25,0.4175,3.1499,1.25
				c0.9004,0.8345,1.3501,1.8848,1.3501,3.1504c0,2.0669-1,3.4668-3,4.1997c-4.8672,1.8003-10.7998,3.2344-17.7998,4.3003
				c-0.7344,4.667-1.2671,9.1997-1.6001,13.5996c5.3999-1.5996,10.3999-2.3999,15-2.3999H66
				c0.7998-1.7998,1.4326-3.2656,1.8999-4.3999c0.7329-1.8657,2.1328-2.7998,4.2002-2.7998c1.2656,0,2.3325,0.4341,3.1997,1.2998
				c0.8657,0.8672,1.3003,1.9346,1.3003,3.2002c0,0.7344-0.4673,2.0342-1.3999,3.8999c6.3999,1.4673,11.3999,4.1001,15,7.8999
				C94.1328,58.6992,96.0654,63.9336,96,70.1992z M41.6001,78.499c-0.6675-6-0.9673-12.3999-0.8999-19.2002
				c-5.1348,2.8003-9.2344,6-12.3003,9.6001C25,72.8335,23.2998,76.7334,23.2998,80.5991c0,3.0669,1.5332,4.6001,4.6001,4.6001
				C31.3657,85.1992,35.9326,82.9663,41.6001,78.499z M62.2002,53.0991c-4.2676,0.0669-8.6675,0.8999-13.2002,2.5v1.5
				c0,5.7344,0.1655,10.3999,0.5,14C54.1655,65.9663,58.3999,59.9663,62.2002,53.0991z"/>
		</g>
	</g>
</g>
</svg>
