<?xml version="1.0" encoding="utf-8"?>
<!-- Generator: Adobe Illustrator 25.2.1, SVG Export Plug-In . SVG Version: 6.00 Build 0)  -->
<svg version="1.1" id="レイヤー_1" xmlns="http://www.w3.org/2000/svg" xmlns:xlink="http://www.w3.org/1999/xlink" x="0px"
	 y="0px" viewBox="0 0 110 110" style="enable-background:new 0 0 110 110;" xml:space="preserve">
<style type="text/css">
	.st0{fill:#1E1E28;}
</style>
<g>
	<g>
		<g>
			<path class="st0" d="M94.2998,27.7007c0,1.5996-0.834,2.3999-2.5,2.3999c-13.1997,0-27.5342,0.1001-43,0.2998
				c-0.4668,4.6001-0.7998,8.5-1,11.7002c4.0659-0.8657,8.5659-1.3003,13.5-1.3003c2.8657,0,5.4004,0.2002,7.6001,0.6001
				c0.333-1.1997,0.5659-2.1001,0.7002-2.6997c0.3325-1.2656,1.1997-1.9004,2.6001-1.9004c0.8652,0,1.5498,0.3345,2.0498,1
				c0.5,0.6675,0.6499,1.4004,0.4502,2.2002c-0.2002,0.6001-0.4673,1.5-0.8003,2.7002c6.1328,2.0669,10.9331,5.5342,14.3999,10.3999
				c3.6001,5.0669,5.4004,11.1343,5.4004,18.1997c0,7.4673-2.4004,15.0674-7.2002,22.8003
				c-0.4673,0.7998-1.2344,1.1997-2.2998,1.1997c-1.8003,0-2.7002-0.8999-2.7002-2.6997c0-0.5327,0.1328-1,0.3999-1.3999
				c4.3999-7.0659,6.6001-13.7329,6.6001-20c0-5.666-1.4673-10.6328-4.3999-14.9004c-2.8003-4.0654-6.6675-7.0654-11.6001-9
				c-6,17.8003-14.167,30.8345-24.5,39.1001c0.1328,1.1343,0.333,2.6675,0.6001,4.6001c0.1328,0.7344-0.0503,1.3999-0.5503,2
				s-1.1499,0.8999-1.9497,0.8999c-1.4673,0-2.3003-0.7344-2.5-2.1997c-0.0674-0.4658-0.1343-1.2002-0.2002-2.2002
				c-4.0669,2.3345-8.0669,3.5-12,3.5c-4.6001,0-8.3345-1.4326-11.1997-4.2998c-2.8672-2.8657-4.3003-6.8003-4.3003-11.8003
				c0-7.2656,2.2656-13.8657,6.8003-19.7998c4.8652-6.3999,11.5996-10.9658,20.1997-13.7002
				c0.2656-4.1997,0.5659-8.5,0.8999-12.8999c-8.1343,0.1343-15.5,0.2998-22.0996,0.5c-1.6675,0.0674-2.5-0.7656-2.5-2.5
				c0-1.5327,0.7998-2.333,2.3999-2.3999c3.6001-0.1328,11.1328-0.2656,22.6001-0.3999c0-0.2656,0.3325-3.4658,1-9.6001
				c0.1997-1.6001,1.0654-2.3999,2.5996-2.3999c0.7329,0,1.3501,0.2998,1.8501,0.8999s0.7158,1.2671,0.6499,2
				c-0.1343,1.2671-0.4668,4.2671-1,9c15.0659-0.2002,29.2329-0.3003,42.5-0.3003C93.4658,25.3003,94.2998,26.1006,94.2998,27.7007z
				 M42.8999,84.2007c-0.4673-6.1328-0.6997-12.5332-0.6997-19.2002c0-4.1328,0.1655-9.7002,0.5-16.7002
				c-6.9346,2.6001-12.3672,6.5674-16.3003,11.9004C22.7998,65.1348,21,70.6006,21,76.6006c0,3.3999,1,6.1499,3,8.25
				s4.5,3.1499,7.5,3.1499C35.2998,88.0005,39.1001,86.7349,42.8999,84.2007z M67.6001,45.9004
				c-2.3345-0.4653-4.5-0.6997-6.5-0.6997c-4.8003,0-9.3345,0.5342-13.6001,1.5996C47.1655,52.5347,47,58.6006,47,65.0005
				c0,6.6001,0.1328,11.7998,0.3999,15.6001C56,72.6006,62.7329,61.0347,67.6001,45.9004z"/>
		</g>
	</g>
</g>
</svg>
