<?xml version="1.0" encoding="utf-8"?>
<!-- Generator: Adobe Illustrator 25.2.1, SVG Export Plug-In . SVG Version: 6.00 Build 0)  -->
<svg version="1.1" id="レイヤー_1" xmlns="http://www.w3.org/2000/svg" xmlns:xlink="http://www.w3.org/1999/xlink" x="0px"
	 y="0px" viewBox="0 0 110 110" style="enable-background:new 0 0 110 110;" xml:space="preserve">
<style type="text/css">
	.st0{fill:#1E1E28;}
</style>
<g>
	<g>
		<g>
			<path class="st0" d="M97,26.1992c0,1.8672-0.9004,2.7998-2.7002,2.7998c-19.2002,0-34.4668,0.1001-45.7998,0.2998
				c-0.334,3.9346-0.5996,7.9346-0.7998,12c4.2656-1,8.9326-1.5,14-1.5c2.8652,0,5.4658,0.2344,7.7998,0.7002
				c0.2656-1.0654,0.5654-2.2998,0.9004-3.7002c0.2656-1.1997,1.0654-1.7998,2.3994-1.7998c2.5332,0,3.6006,1,3.2002,3
				c-0.1348,0.7344-0.5,2.0674-1.0996,4c1.3994,0.4673,2.7656,1,4.0996,1.6001c5.5332,2.6001,9.7656,6.5,12.7002,11.6997
				c2.7998,4.8672,4.2002,10.4673,4.2002,16.8003c0,8.1997-2.5674,16.3345-7.7002,24.3999
				c-0.7344,1.2656-1.7002,1.8999-2.9004,1.8999c-0.8672,0-1.6494-0.2842-2.3496-0.8501c-0.7002-0.5669-1.0498-1.25-1.0498-2.0498
				c0-0.4673,0.1992-1.0342,0.5996-1.7002c5.0654-7.4653,7.5996-14.7324,7.5996-21.7998c0-8.333-3.0664-15.1001-9.1992-20.2998
				c-2.5352-2.2002-5.0674-3.7002-7.6006-4.5c-6.2002,18.5996-14.7002,32.1997-25.5,40.7998
				c0.1328,1.7344,0.3662,3.6001,0.7002,5.6001c0.2002,1-0.0342,1.7827-0.7002,2.3501c-0.667,0.5654-1.5,0.7827-2.5,0.6499
				c-1.5342-0.0674-2.2998-0.7344-2.2998-2c-0.0674-0.6675-0.2002-1.7002-0.4004-3.1001c-4.2666,2.4658-8.4336,3.7002-12.5,3.7002
				c-5.0664,0-9.0498-1.5845-11.9492-4.75c-2.9004-3.166-4.3506-7.3159-4.3506-12.4502c0-8.3999,2.7334-15.833,8.2002-22.2998
				c5.1328-6.0659,11.9004-10.4331,20.2998-13.1001c0.1328-3.6001,0.4004-8,0.7998-13.2002L19.4004,29.999
				C17.4658,30.0664,16.5,29.166,16.5,27.2988c0-1.8652,0.9658-2.8325,2.9004-2.8999l24-0.5
				c0.332-3.5327,0.6992-7.0654,1.0996-10.6001c0.2002-1.4653,1.2656-2.1997,3.2002-2.1997c2.1328,0,3.0654,0.8672,2.7998,2.6001
				c-0.2676,1.8672-0.7344,5.2344-1.4004,10.0996l45.2002-0.1997C96.0996,23.5991,97,24.4663,97,26.1992z M42,85.5991
				c-0.334-4.8657-0.5-10.4331-0.5-16.7002c0-6.1997,0.166-13.1001,0.5-20.6997c-6.7344,2.4668-12.0996,6.2344-16.0996,11.2998
				c-4.335,5.3999-6.5,11.5-6.5,18.2998c0,3.3345,0.9824,6.1348,2.9492,8.4004c1.9658,2.2671,4.583,3.3999,7.8506,3.3999
				C34.0654,89.5991,38,88.2661,42,85.5991z M67.9004,45.499c-1.9346-0.3999-4.0352-0.6001-6.3008-0.6001
				c-5.334,0-10.0996,0.6001-14.2998,1.8003c-0.334,6.7344-0.5,12.9668-0.5,18.6997c0,5.8003,0.166,11.1343,0.5,16
				C56.2998,72.7334,63.166,60.7661,67.9004,45.499z"/>
		</g>
	</g>
</g>
</svg>
