<?xml version="1.0" encoding="utf-8"?>
<!-- Generator: Adobe Illustrator 25.2.1, SVG Export Plug-In . SVG Version: 6.00 Build 0)  -->
<svg version="1.1" id="レイヤー_1" xmlns="http://www.w3.org/2000/svg" xmlns:xlink="http://www.w3.org/1999/xlink" x="0px"
	 y="0px" viewBox="0 0 110 110" style="enable-background:new 0 0 110 110;" xml:space="preserve">
<style type="text/css">
	.st0{fill:#1E1E28;}
</style>
<g>
	<g>
		<g>
			<path class="st0" d="M97.2998,26.1006c0,2.6001-1.2344,3.8999-3.6997,3.8999c-17.9346,0-32.5347,0.1001-43.8003,0.2998
				C49.5327,32.835,49.2656,36.2349,49,40.5005c4.0654-0.7329,8.1001-1.1001,12.1001-1.1001c2.9326,0,5.6001,0.2344,8,0.7002
				c0.1997-0.6001,0.4326-1.5659,0.6997-2.8999c0.2656-1.333,1.333-2,3.2002-2c1.0654,0,2.0327,0.2842,2.8999,0.8496
				c0.8657,0.5674,1.3003,1.3174,1.3003,2.25c0,0.2002-0.3345,1.4673-1,3.8003c7.0654,3.5342,12.0996,7.3345,15.0996,11.3999
				C94.7656,58.2349,96.5,64.335,96.5,71.8003c0,8.1348-2.7002,16.4004-8.1001,24.8003c-0.9341,1.4653-2.2344,2.1997-3.8999,2.1997
				c-1.1343,0-2.1343-0.3999-3-1.1997c-0.8672-0.8003-1.2998-1.7344-1.2998-2.8003c0-0.8672,0.2998-1.6343,0.8999-2.2998
				c5-7.4658,7.5-14.4658,7.5-21c0-8.1328-3.3003-14.6001-9.8999-19.3999c-1-0.7329-2.5347-1.7656-4.6001-3.1001
				C67.9658,66.335,59.7002,79.2676,49.2998,87.8003c0.2002,1.6001,0.4658,3.3345,0.8003,5.2002
				c0.2656,1.2656-0.0674,2.2827-1,3.0498c-0.9346,0.7656-2.0347,1.1157-3.3003,1.0503c-2.1343-0.1343-3.2998-1-3.5-2.6001
				c-0.0669-0.3999-0.167-1.0342-0.2998-1.8999c-3.8672,2-7.667,3-11.3999,3c-5.0674,0-9.1675-1.5347-12.3003-4.6001
				c-3.334-3.2002-5-7.6001-5-13.2002c0-7.7324,2.4004-14.7656,7.2002-21.0996c5.0654-6.666,12.0654-11.4658,21-14.4004
				c0.2002-4.4653,0.4326-8.4326,0.7002-11.8999c-3.4004,0.0674-10.7344,0.2671-22,0.6001
				c-2.7344,0.0674-4.1001-1.1655-4.1001-3.7002c0-2.4653,1.3657-3.7324,4.1001-3.7998l22.5996-0.5
				c0.2002-2.0654,0.5-5.1328,0.9004-9.2002c0.1997-2.0654,1.5996-3.0996,4.1997-3.0996c1.1328,0,2.083,0.3169,2.8501,0.9497
				c0.7656,0.6343,1.083,1.4844,0.9502,2.5503c-0.2676,1.9341-0.6348,4.834-1.1001,8.6997c11.4653-0.1997,25.7998-0.2998,43-0.2998
				C96.0654,22.6006,97.2998,23.7676,97.2998,26.1006z M41.3999,84.6006c-0.6001-8.3999-0.667-19.9658-0.1997-34.7002
				C34.7329,52.5005,29.6655,56.3677,26,61.5005c-3.3999,4.8672-5.1001,10.1343-5.1001,15.7998c0,3.2002,0.9502,5.7847,2.8501,7.75
				c1.8999,1.9673,4.2827,2.9502,7.1499,2.9502C34.1655,88.0005,37.6655,86.8677,41.3999,84.6006z M67.1001,46.7007
				c-1.8003-0.333-3.8672-0.5-6.2002-0.5c-4.3345,0.0669-8.4673,0.5669-12.3999,1.5c-0.6001,11.3999-0.6001,21.7671,0,31.0996
				C56.5654,70.8677,62.7656,60.1675,67.1001,46.7007z"/>
		</g>
	</g>
</g>
</svg>
