<?xml version="1.0" encoding="utf-8"?>
<!-- Generator: Adobe Illustrator 25.2.1, SVG Export Plug-In . SVG Version: 6.00 Build 0)  -->
<svg version="1.1" id="レイヤー_1" xmlns="http://www.w3.org/2000/svg" xmlns:xlink="http://www.w3.org/1999/xlink" x="0px"
	 y="0px" viewBox="0 0 110 110" style="enable-background:new 0 0 110 110;" xml:space="preserve">
<style type="text/css">
	.st0{fill:#1E1E28;}
</style>
<g>
	<g>
		<g>
			<path class="st0" d="M97.2002,66.499c0,18.335-11.3345,28.8662-34,31.6006c-1.8672,0.1992-3.5176-0.335-4.9502-1.6006
				c-1.4346-1.2666-2.1499-2.834-2.1499-4.7002c0-1.5322,0.5327-2.8994,1.6001-4.0996c1.0654-1.2002,2.3652-1.9004,3.8999-2.0996
				c15-2.1328,22.5-8.5664,22.5-19.3008c0-7.0654-3.6343-12.1328-10.8999-15.1992c-4.9346,13.5996-10.9346,24.2998-18,32.0996
				c-7.3345,8.0674-15.1348,12.0996-23.4004,12.0996c-5.3999,0-9.7671-1.7998-13.0996-5.3994
				c-3.7344-3.9326-5.6001-9.4658-5.6001-16.6006c0-6.665,1.9653-12.832,5.8999-18.5c4.333-6.1328,10.3999-10.6992,18.2002-13.6992
				v-7.3008H21.5c-1.7344,0-3.1846-0.5996-4.3501-1.7998c-1.167-1.2002-1.75-2.665-1.75-4.3994c0-1.666,0.583-3.1006,1.75-4.3008
				c1.1655-1.1992,2.6157-1.7998,4.3501-1.7998h15.7002v-3.7998c0-1.7324,0.6328-3.2324,1.8999-4.5
				c1.2656-1.2656,2.7656-1.9004,4.5-1.9004c1.7329,0,3.2329,0.6348,4.5,1.9004C49.3657,14.4668,50,15.9668,50,17.6992v3.7998h39
				c1.7329,0,3.2002,0.6006,4.3999,1.7998c1.2002,1.2002,1.8003,2.6348,1.8003,4.3008c0,1.7344-0.6001,3.1992-1.8003,4.3994
				c-1.1997,1.2002-2.667,1.7998-4.3999,1.7998H49.7002v4.2002c3-0.3994,6.0996-0.5996,9.2998-0.5996
				c12.7329,0,22.4658,2.8672,29.2002,8.5996C94.2002,51.1338,97.2002,57.9668,97.2002,66.499z M40.7998,79.3994
				C39,72.334,37.8999,63.7334,37.5,53.5996c-8.0674,4.667-12.1001,11.2344-12.1001,19.6992c0,3,0.7158,5.335,2.1499,7
				c1.4331,1.668,3.2158,2.5,5.3501,2.5C35.2998,82.7988,37.9326,81.666,40.7998,79.3994z M61.5,48.5996
				c-1.0674-0.0664-2.0674-0.1006-3-0.1006c-2.8672,0-5.7671,0.2676-8.7002,0.7998C50,56.4336,50.5,63.334,51.2998,69.999
				C55.1655,64.2666,58.5654,57.1338,61.5,48.5996z"/>
		</g>
	</g>
</g>
</svg>
