<?xml version="1.0" encoding="utf-8"?>
<!-- Generator: Adobe Illustrator 25.2.1, SVG Export Plug-In . SVG Version: 6.00 Build 0)  -->
<svg version="1.1" id="レイヤー_1" xmlns="http://www.w3.org/2000/svg" xmlns:xlink="http://www.w3.org/1999/xlink" x="0px"
	 y="0px" viewBox="0 0 110 110" style="enable-background:new 0 0 110 110;" xml:space="preserve">
<style type="text/css">
	.st0{fill:#1E1E28;}
</style>
<g>
	<g>
		<g>
			<path class="st0" d="M95.4004,70.3989c-0.0674,7.2002-2.7344,13.2344-8,18.1001c-5,4.6001-11.9004,7.7998-20.7002,9.6001
				c-1.1348,0.2656-2.1504,0.0327-3.0498-0.7002c-0.9004-0.7344-1.3506-1.667-1.3506-2.7998c0-2,0.9326-3.2002,2.7998-3.6001
				C80.0332,87.5991,87.5,80.5664,87.5,69.8989c0-4.2656-1.5-7.8828-4.5-10.8501c-3-2.9653-7.2998-4.8828-12.9004-5.75
				c-5.7344,10.3345-12.2998,19.2676-19.6992,26.8003c0.7998,4.1343,1.1992,6.0669,1.1992,5.7998c0,0.9346-0.3496,1.7671-1.0498,2.5
				C49.8496,89.1333,49,89.499,48,89.499c-1.7998,0-3-1.0327-3.5996-3.1001l-0.2002-0.6997
				c-6.6006,5.1997-12.7676,7.7998-18.5,7.7998c-2.7998,0-5.1348-0.833-7-2.5C16.5654,89.0664,15.5,86.3662,15.5,82.8989
				c0-6.5327,2.7002-12.6328,8.0996-18.2998C28.2002,59.666,34.333,55.5332,42,52.1992c0.2002-5,0.7002-10.7656,1.5-17.3003
				c-6.5342,0.8672-12.0674,1.2671-16.5996,1.2002c-1,0-1.8506-0.3501-2.5508-1.0503c-0.6992-0.6997-1.0498-1.5498-1.0498-2.5498
				s0.3828-1.8828,1.1504-2.6499c0.7656-0.7656,1.6826-1.1157,2.75-1.0503c5.2002,0.2002,10.9326-0.0996,17.2002-0.8999
				c0.5322-3.8657,1.2656-8.3325,2.1992-13.3999c0.4004-2.1328,1.6328-3.2002,3.7002-3.2002c1.0654,0,2,0.3501,2.7998,1.0503
				c0.8008,0.6997,1.2002,1.5845,1.2002,2.6499c0,0.3999-0.0674,0.7998-0.2002,1.2002c-1,3.667-1.834,7.167-2.5,10.5
				c5.5332-1.0659,10.3662-2.4004,14.5-4c0.4004-0.1328,0.833-0.2002,1.3008-0.2002c0.9326,0,1.75,0.3345,2.4492,1
				c0.7002,0.667,1.0508,1.5,1.0508,2.5c0,1.6001-0.7676,2.7002-2.3008,3.2998c-4.8672,1.8672-10.9336,3.4004-18.1992,4.6001
				c-0.8008,5.2002-1.3672,10.4673-1.7002,15.8003c6.3994-2.0659,11.2002-3.1001,14.3994-3.1001c0.666,0,1.333,0.0342,2,0.1001
				l0.8008,0.0996c1.1328-2.3999,2.0156-4.3652,2.6494-5.8999c0.6328-1.5327,1.75-2.2998,3.3506-2.2998
				c1,0,1.8496,0.3501,2.5498,1.0498c0.7002,0.7002,1.0498,1.5503,1.0498,2.5503c0,0.667-0.7344,2.3999-2.2002,5.1997
				c6.666,1.1343,11.9326,3.5347,15.7998,7.2002C93.3652,58.7334,95.4658,63.999,95.4004,70.3989z M43,78.1992
				c-0.7344-6.0659-1.0996-12.5659-1.0996-19.5c-5.668,2.8672-10.2344,6.1997-13.7002,10C24.4004,72.9663,22.5,77.2661,22.5,81.5991
				c0,3.1997,1.6328,4.7998,4.9004,4.7998C31.5996,86.3989,36.7998,83.666,43,78.1992z M62.7998,52.7988
				c-4.5342,0.1348-9.334,1.1348-14.3994,3v0.2002c0,6.6001,0.2324,11.9673,0.6992,16.1001
				C54.2324,66.3662,58.7998,59.9336,62.7998,52.7988z"/>
		</g>
	</g>
</g>
</svg>
