<?xml version="1.0" encoding="utf-8"?>
<!-- Generator: Adobe Illustrator 25.2.1, SVG Export Plug-In . SVG Version: 6.00 Build 0)  -->
<svg version="1.1" id="レイヤー_1" xmlns="http://www.w3.org/2000/svg" xmlns:xlink="http://www.w3.org/1999/xlink" x="0px"
	 y="0px" viewBox="0 0 110 110" style="enable-background:new 0 0 110 110;" xml:space="preserve">
<style type="text/css">
	.st0{fill:#1E1E28;}
</style>
<g>
	<g>
		<g>
			<path class="st0" d="M94.5996,67.7988c0,8.4004-3.0664,15.1001-9.1992,20.1001C80.1328,92.166,73.166,94.9316,64.5,96.1992
				c-1.0674,0.1328-2.0342-0.1675-2.9004-0.9004c-0.8672-0.7344-1.2998-1.667-1.2998-2.7998c0-2.1328,1.0654-3.3657,3.2002-3.7002
				c6.8652-1.1328,12.2998-3.3325,16.2998-6.5996c4.5332-3.8003,6.7998-8.7002,6.7998-14.7002c0-10.333-5.334-16.6655-16-19
				C66,59.2334,60.4658,68.5991,54,76.5991c-8.7344,10.667-17.2344,16-25.5,16c-4.0674,0-7.2344-1.3003-9.5-3.8999
				c-2-2.333-3-5.333-3-9c0-7.333,2.2656-14.1001,6.7998-20.3003c4.2656-5.9326,10-10.5654,17.2002-13.8999
				c0.2002-4.1328,0.5332-8.5,1-13.1001c-6.8672,0.2671-13.167,0.3345-18.9004,0.2002c-1,0-1.8496-0.3657-2.5498-1.1001
				C18.8496,30.7661,18.5,29.8989,18.5,28.8989s0.4004-1.8828,1.2002-2.6499c0.7998-0.7656,1.7002-1.1157,2.7002-1.0498
				c7.4648,0.334,13.8994,0.3999,19.2998,0.1997c0.333-2.9326,0.7998-6.3325,1.3994-10.1997
				c0.333-2.2656,1.6006-3.4004,3.8008-3.4004c1.1328,0,2.082,0.4502,2.8496,1.3501c0.7656,0.8999,1.0498,1.9175,0.8496,3.0503
				c-0.5342,3.0669-1,6.0342-1.3994,8.8999c9.8652-0.6001,19.665-1.7002,29.3994-3.3003c1.0664-0.1997,2.0156,0.0674,2.8506,0.8003
				c0.833,0.7344,1.25,1.667,1.25,2.7998c0,2.1343-1.0674,3.3345-3.2002,3.6001c-10.5342,1.4673-20.9004,2.5-31.0996,3.1001
				c-0.4004,3-0.7344,6.667-1,11c4.5322-1.3999,9.0322-2.1001,13.5-2.1001c10,0,17.8994,2,23.6992,6
				C91.2656,51.5332,94.5996,58.4663,94.5996,67.7988z M41,79.2988c-0.9346-8.3999-1.2998-17.1655-1.0996-26.2998
				C34.9658,55.7988,31,59.4336,28,63.8989c-3.1348,4.7344-4.7002,9.6675-4.7002,14.8003c0,1.8672,0.5156,3.417,1.5498,4.6499
				c1.0332,1.2344,2.3828,1.8501,4.0508,1.8501C32.5654,85.1992,36.5996,83.2334,41,79.2988z M63.5,47.499
				c-0.8672-0.0654-1.5996-0.1001-2.2002-0.1001c-4.7344,0-9.4668,0.8345-14.2002,2.5C46.7002,58.4336,46.833,66.3335,47.5,73.5991
				C54.2324,65.7988,59.5654,57.0991,63.5,47.499z"/>
		</g>
	</g>
</g>
</svg>
