<?xml version="1.0" encoding="utf-8"?>
<!-- Generator: Adobe Illustrator 25.2.1, SVG Export Plug-In . SVG Version: 6.00 Build 0)  -->
<svg version="1.1" id="レイヤー_1" xmlns="http://www.w3.org/2000/svg" xmlns:xlink="http://www.w3.org/1999/xlink" x="0px"
	 y="0px" viewBox="0 0 110 110" style="enable-background:new 0 0 110 110;" xml:space="preserve">
<style type="text/css">
	.st0{fill:#1E1E28;}
</style>
<g>
	<g>
		<g>
			<path class="st0" d="M95.4004,67.999c0,8.5342-3,15.335-9,20.4004c-5.2002,4.4668-12.2676,7.2998-21.2002,8.5
				c-1.4004,0.2002-2.6504-0.1846-3.75-1.1504c-1.1006-0.9668-1.6504-2.1494-1.6504-3.5498c0-2.7324,1.333-4.333,4-4.7998
				c14.2656-2.4658,21.4004-9.0654,21.4004-19.7998c0-7.4004-3.0342-12.6006-9.1006-15.6006
				c-0.7998-0.3994-1.5664-0.5996-2.2998-0.5996c-1.7344,0-3.1338,1.0996-4.2002,3.2998
				c-4.334,9.0674-9.2998,16.9668-14.8994,23.7002C46.0996,88.666,37.5332,93.7988,29,93.7988c-4.4004,0-7.8174-1.25-10.25-3.75
				c-2.4346-2.5-3.6504-5.915-3.6504-10.25c0-7.5996,2.2334-14.5,6.7002-20.6992C25.2002,54.3662,29.4326,50.499,34.5,47.499
				c3-1.7998,4.5996-4.2998,4.7998-7.5l0.1006-1.8994c0.1328-3.0664-1.3008-4.6006-4.3008-4.6006
				c-3.7344,0-7.9668-0.0322-12.6992-0.0996c-1.2676,0-2.3506-0.4658-3.25-1.4004c-0.9004-0.9326-1.3506-2.0322-1.3506-3.2998
				c0-1.2656,0.4834-2.3652,1.4502-3.2998c0.9658-0.9326,2.1152-1.3662,3.4502-1.2998c6.1328,0.2666,10.7002,0.3672,13.7002,0.2998
				c2.7324-0.0654,4.2998-1.5,4.6992-4.2998l0.6006-4.3008c0.3994-2.9326,1.9658-4.3994,4.7002-4.3994
				c1.3994,0,2.6328,0.5996,3.6992,1.7998s1.5,2.4346,1.3008,3.7002l-0.3008,1.8994c-0.2666,1.6006-0.0342,2.835,0.7002,3.7002
				c0.7334,0.8672,1.9004,1.2344,3.5,1.1006C62.166,23.0664,69.9004,22.166,78.5,20.8994c1.4004-0.2002,2.6504,0.167,3.75,1.0996
				c1.0996,0.9346,1.6504,2.1348,1.6504,3.6006c0,2.7344-1.4004,4.2666-4.2002,4.5996C69.2324,31.4668,60.666,32.2988,54,32.6992
				c-3.1348,0.2002-4.7998,1.6348-5,4.2998c-0.1348,1.6006,0.2158,2.75,1.0498,3.4502c0.833,0.7002,2.0498,0.9502,3.6504,0.75
				c2.5996-0.333,4.833-0.5,6.7002-0.5c10.1992,0,18.2998,1.9346,24.2998,5.7998C91.833,51.166,95.4004,58.334,95.4004,67.999z
				 M35.5,82.5996c3-1.6006,4.333-4.7656,4-9.5c-0.0674-3-0.1348-5.9658-0.2002-8.9004c-0.2666-4.666-1.1338-7-2.5996-7
				c-0.9346,0-2,0.5342-3.2002,1.5996c-2.5996,2.2676-4.7002,5.1348-6.2998,8.6006c-1.7344,3.667-2.6006,7.334-2.6006,11
				c0,3.9346,1.6328,5.8994,4.9004,5.8994C31.3652,84.2988,33.3652,83.7334,35.5,82.5996z M60.5996,53.0996
				c0.333-0.666,0.5-1.2656,0.5-1.8008c0-1.665-1.0342-2.4326-3.0996-2.2998c-3.0674,0.2002-5.334,0.7344-6.7998,1.6006
				c-2.0674,1.1992-3.1348,3.1992-3.2002,6c-0.0674,2.5342-0.0342,5.3994,0.0996,8.5996c0.0664,2,0.7656,3,2.1006,3
				c0.9326,0,1.7998-0.5654,2.5996-1.7002C55.7998,62.2988,58.4004,57.834,60.5996,53.0996z"/>
		</g>
	</g>
</g>
</svg>
