<?xml version="1.0" encoding="utf-8"?>
<!-- Generator: Adobe Illustrator 25.2.1, SVG Export Plug-In . SVG Version: 6.00 Build 0)  -->
<svg version="1.1" id="レイヤー_1" xmlns="http://www.w3.org/2000/svg" xmlns:xlink="http://www.w3.org/1999/xlink" x="0px"
	 y="0px" viewBox="0 0 110 110" style="enable-background:new 0 0 110 110;" xml:space="preserve">
<style type="text/css">
	.st0{fill:#1E1E28;}
</style>
<g>
	<g>
		<g>
			<path class="st0" d="M93.7002,67.5991c0,8.1997-3.1001,14.7998-9.3003,19.7998c-5.1997,4.1343-12.0342,6.8657-20.5,8.2002
				c-0.7998,0.1328-1.5171-0.0845-2.1499-0.6499c-0.6343-0.5674-0.9502-1.25-0.9502-2.0503c0-1.4653,0.7656-2.3325,2.3003-2.6001
				c7.1328-1.1997,12.8657-3.5,17.1997-6.8999C85.4326,79.3335,88,74.0332,88,67.499c0-11.5327-6.167-18.4326-18.5-20.7002
				c-4.3345,10.4673-9.7671,19.8345-16.2998,28.1001C44.4658,85.8335,36.0654,91.2988,28,91.2988
				c-3.5342,0-6.3345-1.2656-8.3999-3.7998c-1.8672-2.2002-2.8003-4.833-2.8003-7.8999c0-7.1328,2.3003-13.7656,6.9004-19.8999
				C28.0327,53.8335,33.7998,49.2334,41,45.8989c0.2656-5.1997,0.6655-10,1.2002-14.3999
				c-6.4673,0.3345-13.2344,0.3999-20.3003,0.2002c-1.7344-0.0659-2.6001-0.9658-2.6001-2.7002
				c0-0.7329,0.2656-1.3657,0.8003-1.8999c0.5327-0.5327,1.1655-0.7656,1.8999-0.7002c7.6001,0.3345,14.5,0.3672,20.7002,0.1001
				c0.1997-1.6001,0.8325-5.5327,1.8999-11.7998c0.2656-1.6001,1.1655-2.4004,2.6997-2.4004c0.8003,0,1.4829,0.3345,2.0503,1
				c0.5654,0.6675,0.7827,1.4004,0.6499,2.2002c-0.4673,2.5342-1.1001,6.1001-1.8999,10.7002
				c10.4653-0.666,20.6328-1.8657,30.5-3.6001c0.7998-0.1328,1.5,0.0669,2.1001,0.6001c0.5996,0.5342,0.8999,1.1997,0.8999,2
				c0,1.4668-0.7671,2.2998-2.3003,2.5c-12,1.7998-22.5996,3-31.7998,3.5996c-0.4673,3.5347-0.8672,7.7676-1.2002,12.7002
				c5.0659-1.7998,10.1001-2.7002,15.1001-2.7002c9.5327,0,17.0659,1.9346,22.6001,5.8003
				C90.4658,51.5664,93.7002,58.3989,93.7002,67.5991z M42.1001,79.1992c-1.2002-9.2002-1.6343-18.5332-1.3003-28
				c-5.5342,3-9.9668,6.8672-13.2998,11.5996c-3.6001,5.1348-5.3999,10.5674-5.3999,16.3003c0,1.9341,0.5825,3.5845,1.75,4.9497
				c1.1655,1.3672,2.6157,2.0503,4.3501,2.0503C32.4658,86.0991,37.1001,83.7988,42.1001,79.1992z M64.3999,45.999h-3
				c-5.1343,0-10.2671,1-15.3999,3c-0.4673,9-0.2344,17.667,0.7002,26C54.0327,66.7988,59.9326,57.1333,64.3999,45.999z"/>
		</g>
	</g>
</g>
</svg>
