<?xml version="1.0" encoding="utf-8"?>
<!-- Generator: Adobe Illustrator 25.2.1, SVG Export Plug-In . SVG Version: 6.00 Build 0)  -->
<svg version="1.1" id="レイヤー_1" xmlns="http://www.w3.org/2000/svg" xmlns:xlink="http://www.w3.org/1999/xlink" x="0px"
	 y="0px" viewBox="0 0 110 110" style="enable-background:new 0 0 110 110;" xml:space="preserve">
<style type="text/css">
	.st0{fill:#1E1E28;}
</style>
<g>
	<g>
		<g>
			<path class="st0" d="M95.2002,67.6992c0,7.5996-2.835,14.0674-8.5,19.4004c-4.6006,4.3994-10.5,7.5654-17.7002,9.5
				c-0.334,0.0654-0.667,0.0996-1,0.0996c-1.0674,0-1.9844-0.3672-2.75-1.0996c-0.7676-0.7344-1.1504-1.6348-1.1504-2.7002
				c0-1.8662,0.9004-3.0654,2.7002-3.6006c5.5332-1.5322,10.166-3.9648,13.9004-7.2998c4.665-4.1328,7-8.9658,7-14.5
				c0-8.9326-4.8672-15-14.6006-18.2002L47.9004,88.499c-2.5352,3.9346-5.668,5.9004-9.4004,5.9004
				c-0.7998,0-1.6348-0.1006-2.5-0.2998c-6.667-1.333-11.8672-3.9834-15.5996-7.9502c-3.7344-3.9658-5.6006-8.7832-5.6006-14.4502
				c0-6.333,2.3154-12.1504,6.9502-17.4502c4.6328-5.2998,10.9502-9.1494,18.9502-11.5498c0,0.5342,0.0654-3.0996,0.2002-10.9004
				C37.3652,31.8662,30.5,31.9336,20.2998,31.999c-1,0-1.8496-0.3496-2.5498-1.0498s-1.0498-1.5498-1.0498-2.5498
				s0.3652-1.8506,1.0996-2.5498c0.7334-0.7002,1.6006-1.0508,2.6006-1.0508H41c0-1.7998,0.0332-4.4648,0.0996-8
				c0-2.3994,1.2334-3.5996,3.7002-3.5996c1,0,1.8828,0.3848,2.6504,1.1504c0.7656,0.7666,1.1152,1.6494,1.0498,2.6494
				c-0.0674,1.667-0.167,4.2002-0.2998,7.6006c12.665-0.2656,26.165-0.833,40.5-1.7002c1-0.0654,1.8994,0.2666,2.7002,1
				c0.7998,0.7344,1.1992,1.6338,1.1992,2.7002c0,1-0.3496,1.8496-1.0498,2.5498s-1.5166,1.084-2.4502,1.1494
				C75.2998,30.834,61.5996,31.2666,48,31.5996c0,2.2666-0.0342,5.5996-0.0996,10c3.665-0.666,7.3652-1,11.0996-1
				c11.8652,0,21.0332,2.667,27.5,8C92.2998,53.4668,95.2002,59.834,95.2002,67.6992z M65.7002,47.2988
				c-2.4678-0.332-4.9004-0.5-7.2998-0.5c-3.8008,0-7.3672,0.3008-10.7002,0.9004c0,9.0674,0.0322,16.8672,0.0996,23.4004
				c0,1-0.3496,1.834-1.0498,2.5c-0.7002,0.667-1.5176,1-2.4502,1c-2.2002,0-3.334-1.1328-3.3994-3.4004
				c-0.1348-7.666-0.2002-14.8652-0.2002-21.5996c-5.9346,2-10.5,4.9492-13.7002,8.8496s-4.7998,8.1846-4.7998,12.8496
				c0,3.9346,1.2822,7.25,3.8496,9.9502c2.5654,2.7002,6.0156,4.5176,10.3506,5.4502c0.4648,0.1348,0.8994,0.2002,1.2998,0.2002
				c1.665,0,3.0654-0.8662,4.2002-2.6006l7.1992-10.7998L65.7002,47.2988z"/>
		</g>
	</g>
</g>
</svg>
