<?xml version="1.0" encoding="utf-8"?>
<!-- Generator: Adobe Illustrator 25.2.1, SVG Export Plug-In . SVG Version: 6.00 Build 0)  -->
<svg version="1.1" id="レイヤー_1" xmlns="http://www.w3.org/2000/svg" xmlns:xlink="http://www.w3.org/1999/xlink" x="0px"
	 y="0px" viewBox="0 0 110 110" style="enable-background:new 0 0 110 110;" xml:space="preserve">
<style type="text/css">
	.st0{fill:#1E1E28;}
</style>
<g>
	<g>
		<g>
			<path class="st0" d="M99.5,68.8994c0,7.5342-2.9668,14.1338-8.9004,19.7998C83.8652,95.0996,74.333,99.0645,62,100.5996
				c-0.9346,0.1328-1.7344-0.1348-2.4004-0.8008c-0.667-0.667-1-1.4336-1-2.2998c0-1.7344,0.8662-2.7002,2.6006-2.8994
				c10.5322-1.335,18.665-4.5,24.3994-9.5c5.2656-4.6006,7.9004-10,7.9004-16.2002c0-5-1.5674-9.5-4.7002-13.5
				c-3.4668-4.5332-8.4668-7.7002-15-9.5c-3,11.3994-9.0996,22.0996-18.2998,32.0996
				c-9.7344,10.4678-19.0996,15.7002-28.0996,15.7002c-5,0-9.0674-1.9004-12.2002-5.7002c-3-3.5996-4.5-7.9658-4.5-13.0996
				c0-6,2.165-11.9004,6.5-17.7002c5.0654-6.7324,12.0322-11.666,20.8994-14.7998c0.0664-3.5332,0.3008-8.4658,0.7002-14.7998
				H15.5996c-2,0-3-0.9658-3-2.9004c0-1.8652,1-2.7998,3-2.7998h23.6006c0.2002-2.333,0.5322-5.7998,1-10.4004
				c0.2002-1.7998,1.165-2.7002,2.8994-2.7002c0.8662,0,1.6328,0.335,2.3008,1c0.665,0.668,0.9326,1.4346,0.7998,2.3008
				c-0.0674,0.7344-0.3672,4-0.9004,9.7998h43.9004c2,0,3,0.9346,3,2.7998c0,1.9346-1,2.9004-3,2.9004H44.9004
				c-0.4004,5.5342-0.6348,9.8672-0.7002,13C49,39.3994,54.4326,38.7988,60.5,38.7988c12.7998,0,22.7324,3.168,29.7998,9.5
				C96.4326,53.834,99.5,60.6992,99.5,68.8994z M40.5,83.499c-1.7344-8.665-2.5996-19.2324-2.5996-31.7002
				c0-1.5322,0.0322-2.6992,0.0996-3.5c-6.8672,2.8672-12.2344,6.9678-16.0996,12.3008c-3.335,4.667-5,9.4336-5,14.2998
				c0,3.4668,0.9326,6.3994,2.7998,8.7998c2,2.667,4.6328,4,7.8994,4C31.7324,87.6992,36.0332,86.2988,40.5,83.499z
				 M68.2998,44.7988c-1.9346-0.332-4.4346-0.5-7.5-0.5c-6.2002,0-11.7998,0.668-16.7998,2c0,0.6006,0,1.5,0,2.7002
				c-0.0674,1.2002-0.0996,2.1006-0.0996,2.7002c0,10.5996,0.6992,19.8672,2.0996,27.7998c5-4.2002,9.5332-9.4824,13.5996-15.8496
				C63.666,57.2832,66.5654,50.999,68.2998,44.7988z"/>
		</g>
	</g>
</g>
</svg>
