<?xml version="1.0" encoding="utf-8"?>
<!-- Generator: Adobe Illustrator 25.2.1, SVG Export Plug-In . SVG Version: 6.00 Build 0)  -->
<svg version="1.1" id="レイヤー_1" xmlns="http://www.w3.org/2000/svg" xmlns:xlink="http://www.w3.org/1999/xlink" x="0px"
	 y="0px" viewBox="0 0 110 110" style="enable-background:new 0 0 110 110;" xml:space="preserve">
<style type="text/css">
	.st0{fill:#1E1E28;}
</style>
<g>
	<g>
		<g>
			<path class="st0" d="M96.2002,68.2007c0,8.7998-2.9678,15.7671-8.9004,20.8999c-5.2666,4.5327-12.4346,7.3657-21.5,8.5
				c-1.7344,0.1997-3.25-0.2847-4.5498-1.4502c-1.2998-1.167-1.9502-2.6172-1.9502-4.3501c0-1.3999,0.4658-2.6655,1.4004-3.7998
				c0.9326-1.1328,2.0996-1.7998,3.5-2c13.0654-2.2002,19.5996-8.2998,19.5996-18.2998c0-7.8657-3.7344-13.0659-11.2002-15.6001
				c-5.0664,11.2671-10.7998,20.6343-17.1992,28.1001C46.8652,90.1348,38.2324,95.1006,29.5,95.1006
				c-10.1348,0-15.2002-5.0659-15.2002-15.2002c0-7.8657,2.166-14.9326,6.5-21.1997c4.2002-6,9.9658-10.6328,17.2998-13.9004
				c0.0664-2.3325,0.2334-5.8325,0.5-10.5c-6,0.1348-11.334,0.1348-16,0c-1.5342-0.0654-2.8496-0.6499-3.9492-1.75
				C17.5498,31.4507,17,30.1348,17,28.6006c0-1.6001,0.5996-2.9658,1.7998-4.1001C20,23.3677,21.4004,22.835,23,22.9004
				c6.333,0.2671,11.833,0.3672,16.5,0.3003c0.2002-2.2002,0.4326-4.5,0.7002-6.9004c0.2002-1.5327,0.8496-2.8154,1.9502-3.8496
				C43.25,11.4175,44.5332,10.9004,46,10.9004c1.7998,0,3.2832,0.6846,4.4502,2.0503c1.165,1.3672,1.6494,2.917,1.4502,4.6499
				l-0.6006,5.1997c9.0654-0.5327,18.1328-1.4326,27.2002-2.6997c1.7324-0.2656,3.25,0.1841,4.5498,1.3501
				C84.3496,22.6177,85,24.0679,85,25.8003c0,1.4673-0.5,2.75-1.5,3.8501s-2.2002,1.7173-3.5996,1.8501
				c-9.6006,1.0674-19.5,1.8672-29.7002,2.3999c-0.0674,1.6001-0.2344,4.0674-0.5,7.3999c3.333-0.5996,6.7324-0.8999,10.2002-0.8999
				c11,0,19.5996,2.1343,25.7998,6.3999C92.7002,51.5347,96.2002,58.6675,96.2002,68.2007z M38.9004,79.6006
				C38.2998,71.6675,38,63.9678,38,56.5005c-3.7344,2.3999-6.7002,5.5674-8.9004,9.5c-2.1992,3.9346-3.2998,7.9346-3.2998,12
				c0,3.6001,1.4658,5.3999,4.4004,5.3999C32.8652,83.4004,35.7656,82.1348,38.9004,79.6006z M61.5,50.4004h-0.5996
				c-3.9346,0-7.835,0.4673-11.7002,1.3999c-0.0674,3.2002-0.1006,6.4004-0.1006,9.6001c0,3.1343,0.0332,6.2671,0.1006,9.3999
				C54.5996,63.8003,58.7002,57.0005,61.5,50.4004z"/>
		</g>
	</g>
</g>
</svg>
