<?xml version="1.0" encoding="utf-8"?>
<!-- Generator: Adobe Illustrator 25.2.1, SVG Export Plug-In . SVG Version: 6.00 Build 0)  -->
<svg version="1.1" id="レイヤー_1" xmlns="http://www.w3.org/2000/svg" xmlns:xlink="http://www.w3.org/1999/xlink" x="0px"
	 y="0px" viewBox="0 0 110 110" style="enable-background:new 0 0 110 110;" xml:space="preserve">
<style type="text/css">
	.st0{fill:#1E1E28;}
</style>
<g>
	<g>
		<g>
			<path class="st0" d="M94.7998,27.499c0,0.9346-0.334,1.7344-1,2.3999c-0.667,0.6675-1.4668,1-2.3994,1
				c-12.4004,0-26.2344,0.1001-41.5,0.3003C49.4326,35.7334,49.1328,39.1333,49,41.3989c4-0.7329,7.9658-1.1001,11.9004-1.1001
				c2.332,0,4.8994,0.2344,7.6992,0.7002c0.1328-0.3999,0.3008-0.9658,0.5-1.7002c0.4004-1.7324,1.5332-2.5996,3.4004-2.5996
				c1,0,1.833,0.3496,2.5,1.0498c0.666,0.7002,1,1.5171,1,2.4502c0,0.334-0.0342,0.667-0.0996,1L75.5,42.7988
				c6,2.2002,10.666,5.7344,14,10.6001c3.333,4.8672,5,10.7671,5,17.7002c0,7.667-2.5,15.3999-7.5,23.1997
				c-0.7344,1.1328-1.7676,1.7002-3.0996,1.7002c-1,0-1.8848-0.3672-2.6504-1.1001c-0.7676-0.7344-1.1504-1.6001-1.1504-2.6001
				c0-0.7998,0.2002-1.5,0.6006-2.0996c4.4658-7.0659,6.7002-13.5332,6.7002-19.4004c0-5-1.25-9.3652-3.75-13.0996
				c-2.5-3.7329-5.918-6.6001-10.25-8.6001c-5.9346,16.6001-13.9678,29.0342-24.1006,37.2998
				c0.0654,0.7344,0.2656,2.1343,0.6006,4.2002c0.1328,1.0669-0.1348,1.9844-0.8008,2.75c-0.667,0.7656-1.5342,1.1499-2.5996,1.1499
				c-2.0674,0-3.2002-1.0342-3.4004-3.1001L43,90.6992c-3.7998,2-7.5996,3-11.4004,3c-4.7998,0-8.667-1.4331-11.5996-4.3003
				c-3.1348-3.0654-4.7002-7.2656-4.7002-12.6001c0-7.3999,2.2656-14.0654,6.7998-20c4.8008-6.3999,11.5-10.9653,20.1006-13.6997
				C42.333,40.5664,42.5996,36.6333,43,31.2988l-20.9004,0.4004c-0.9336,0-1.7344-0.333-2.3994-1c-0.667-0.666-1-1.4658-1-2.4004
				c0-2.1328,1.0996-3.2324,3.2998-3.2998c4.5332-0.1328,11.7002-0.2656,21.5-0.3999c0.1328-1.2656,0.4004-4.0327,0.7998-8.3003
				c0.2002-2.1997,1.4004-3.2998,3.6006-3.2998c1.0654,0,1.9648,0.417,2.6992,1.25c0.7334,0.8345,1.0332,1.7842,0.9004,2.8501
				c-0.4004,2.9341-0.7002,5.3999-0.9004,7.3999l40.8008-0.3999c0.9326,0,1.7324,0.3345,2.3994,1
				C94.4658,25.7661,94.7998,26.5664,94.7998,27.499z M42.2998,83.3989c-0.4668-6.2656-0.7002-12.6997-0.7002-19.2998
				c0-4.6001,0.1006-9.3657,0.3008-14.3003c-6.335,2.4673-11.2676,6.2002-14.8008,11.2002
				c-3.2666,4.667-4.8994,9.7671-4.8994,15.2998c0,3.1348,0.915,5.6675,2.75,7.6001c1.833,1.9346,4.1494,2.8999,6.9502,2.8999
				C35.2324,86.7988,38.7002,85.666,42.2998,83.3989z M66.7998,46.999c-2.1338-0.3999-4.2002-0.6001-6.2002-0.6001
				c-4,0-8,0.4673-12,1.3999c-0.334,6-0.5,11.5347-0.5,16.6001c0,4.6001,0.166,9.2671,0.5,14
				C56.2656,70.7988,62.333,60.3335,66.7998,46.999z"/>
		</g>
	</g>
</g>
</svg>
