<?xml version="1.0" encoding="utf-8"?>
<!-- Generator: Adobe Illustrator 25.2.1, SVG Export Plug-In . SVG Version: 6.00 Build 0)  -->
<svg version="1.1" id="レイヤー_1" xmlns="http://www.w3.org/2000/svg" xmlns:xlink="http://www.w3.org/1999/xlink" x="0px"
	 y="0px" viewBox="0 0 110 110" style="enable-background:new 0 0 110 110;" xml:space="preserve">
<style type="text/css">
	.st0{fill:#1E1E28;}
</style>
<g>
	<g>
		<g>
			<path class="st0" d="M93.4004,66.3008c0,15.8672-10.7002,25.4668-32.1006,28.7998c-1.2002,0.2002-1.7998-0.2998-1.7998-1.5
				c0-0.9326,0.4326-1.4658,1.2998-1.5996c19.4004-2.7998,29.1006-11.4004,29.1006-25.7998c0-5.6006-1.668-10.3662-5-14.3008
				c-3.668-4.332-8.9678-7.165-15.9004-8.5c-4.4668,15.4004-10.0674,27.4004-16.7998,36C46,87.335,39.2324,91.3008,31.9004,91.3008
				c-4.2676,0-7.7852-1.6328-10.5508-4.9004c-2.7666-3.2656-4.1494-7.5322-4.1494-12.7998c0-6.8652,2.1494-13.0654,6.4502-18.5996
				c4.2998-5.5332,10.1826-9.6328,17.6494-12.2998V30.001h-20.5c-1,0-1.5-0.5332-1.5-1.6006c0-1,0.5-1.5,1.5-1.5h20.5V16.7012
				c0-1.1328,0.5654-1.7002,1.7002-1.7002c1.1328,0,1.7002,0.5674,1.7002,1.7002v10.1992h45.5c1,0,1.5,0.5,1.5,1.5
				c0,1.0674-0.5,1.6006-1.5,1.6006H44.5996c0,0.7998,0,2.7002,0,5.7002c-0.0664,2.7998-0.0996,4.7998-0.0996,6
				c4.7324-1.333,9.833-2,15.2998-2c10.9326,0,19.3662,2.5342,25.2998,7.5996C90.6328,52.0352,93.4004,58.3682,93.4004,66.3008z
				 M44.2998,83.2012c-1.7998-9.8662-2.7666-22.333-2.8994-37.4004c-6.4678,2.5342-11.5674,6.25-15.3008,11.1504
				C22.3652,61.8506,20.5,67.4004,20.5,73.6006c0,4.4004,1.083,7.917,3.25,10.5498c2.166,2.6348,4.8828,3.9502,8.1504,3.9502
				C36.2324,88.1006,40.3652,86.4678,44.2998,83.2012z M65.7002,42.9004c-1.7344-0.1992-3.7676-0.2998-6.1006-0.2998
				c-5.3994,0-10.4336,0.7002-15.0996,2.1006c0,15.2666,0.833,27.2344,2.5,35.8994C54.666,72.9355,60.9004,60.3682,65.7002,42.9004z
				"/>
		</g>
	</g>
</g>
</svg>
