<?xml version="1.0" encoding="utf-8"?>
<!-- Generator: Adobe Illustrator 25.2.1, SVG Export Plug-In . SVG Version: 6.00 Build 0)  -->
<svg version="1.1" id="レイヤー_1" xmlns="http://www.w3.org/2000/svg" xmlns:xlink="http://www.w3.org/1999/xlink" x="0px"
	 y="0px" viewBox="0 0 110 110" style="enable-background:new 0 0 110 110;" xml:space="preserve">
<style type="text/css">
	.st0{fill:#1E1E28;}
</style>
<g>
	<g>
		<g>
			<path class="st0" d="M96.8999,70.6006c0,8.0669-2.7998,16.2671-8.3999,24.6001c-1.3345,1.9326-3.1343,2.8999-5.3999,2.8999
				c-1.8003,0-3.3501-0.6343-4.6499-1.8999C77.1499,94.9331,76.5,93.4004,76.5,91.6006c0-1.2656,0.3657-2.4658,1.1001-3.6001
				C82,81.335,84.2002,75.3677,84.2002,70.1006c0-6.8657-2.8672-12.2329-8.6001-16.1001C69.7998,68.4004,62.2656,79.4351,53,87.1006
				c0.0654,0.5342,0.2002,1.3672,0.3999,2.5c0.2656,1.8672-0.2173,3.5156-1.4497,4.9497c-1.2344,1.4331-2.7847,2.1504-4.6504,2.1504
				c-2.1997,0-3.9341-0.9673-5.1997-2.9004c-3.4673,1.4004-6.8003,2.1001-10,2.1001c-5.4673,0-9.9346-1.6001-13.3999-4.7998
				c-3.7344-3.4658-5.6001-8.2656-5.6001-14.3999c0-7.7329,2.3657-14.75,7.1001-21.0503
				c4.7324-6.2998,11.3652-10.9155,19.8999-13.8501c0.1328-1.7998,0.2998-4.5327,0.5-8.1997
				c-5.6675,0.1343-11.5674,0.2998-17.7002,0.5c-1.667,0.0669-3.1172-0.5-4.3501-1.7002c-1.2344-1.1997-1.8496-2.6655-1.8496-4.3999
				c0-1.6001,0.5654-2.9829,1.6997-4.1499c1.1328-1.1655,2.5327-1.7827,4.2002-1.8501l18.7998-0.3999l0.3999-4.8999
				c0.1328-1.6001,0.8159-2.9658,2.0503-4.1001c1.2329-1.1328,2.6826-1.7002,4.3501-1.7002c1.8652,0,3.4497,0.7344,4.75,2.2002
				c1.2998,1.4673,1.8154,3.1343,1.5498,5c-0.0674,0.7344-0.2002,1.8672-0.3999,3.3999l36.2998-0.3999
				c1.6655,0,3.1001,0.6001,4.3003,1.7998c1.1997,1.2002,1.7998,2.6343,1.7998,4.3003c0,1.667-0.6001,3.084-1.7998,4.25
				c-1.2002,1.167-2.6348,1.75-4.3003,1.75c-14.8672,0-27.3999,0.0669-37.6001,0.1997c-0.1997,2.1343-0.3672,4.0347-0.5,5.7002
				c2.333-0.2656,4.9658-0.3999,7.9004-0.3999c2.3999,0,4.8999,0.167,7.5,0.5c1.1997-2.2002,3.0327-3.3003,5.5-3.3003
				c1.7998,0,3.2998,0.6499,4.5,1.9502c1.1997,1.2998,1.7656,2.8169,1.6997,4.5498C91.0654,47.6006,96.8999,57.0005,96.8999,70.6006
				z M40.2998,81.5005c-0.4668-6.6655-0.6997-13.0654-0.6997-19.2002c0-2.5327,0.0327-5.2324,0.1001-8.0996
				c-9.6675,4.9341-14.5,12.0669-14.5,21.3999c0,2.4673,0.7153,4.4341,2.1499,5.8999c1.4326,1.4673,3.2153,2.2002,5.3501,2.2002
				C34.9658,83.7007,37.5,82.9678,40.2998,81.5005z M64.2002,49.8003c-1.4004-0.1997-2.9346-0.2998-4.6001-0.2998
				c-2.5347,0-5.2344,0.2671-8.1001,0.7998c-0.2002,4.0674-0.2998,8.4004-0.2998,13c0,2.4673,0.0996,5.4346,0.2998,8.9004
				C56.6328,66.2676,60.8657,58.8003,64.2002,49.8003z"/>
		</g>
	</g>
</g>
</svg>
