<?xml version="1.0" encoding="utf-8"?>
<!-- Generator: Adobe Illustrator 25.2.1, SVG Export Plug-In . SVG Version: 6.00 Build 0)  -->
<svg version="1.1" id="レイヤー_1" xmlns="http://www.w3.org/2000/svg" xmlns:xlink="http://www.w3.org/1999/xlink" x="0px"
	 y="0px" viewBox="0 0 110 110" style="enable-background:new 0 0 110 110;" xml:space="preserve">
<style type="text/css">
	.st0{fill:#1E1E28;}
</style>
<g>
	<g>
		<g>
			<path class="st0" d="M97,68.1992c0,9-3.0674,16.167-9.2002,21.5c-5.3999,4.6655-12.6997,7.5654-21.8999,8.6997
				c-1.9341,0.2656-3.6499-0.2671-5.1499-1.6001c-1.5-1.334-2.25-3-2.25-5c0-1.5996,0.5498-3.0327,1.6499-4.2998
				c1.1001-1.2656,2.4155-2.0327,3.9502-2.2998C76.7002,83.0664,83,77.2334,83,67.6992c0-7.2002-3.3345-12.0659-10-14.6001
				c-5.1343,11.2671-10.8999,20.6001-17.2998,28C47.1001,90.9663,38.3657,95.8989,29.5,95.8989c-10.667,0-16-5.3325-16-16
				c0-7.9326,2.1655-15.0654,6.5-21.3999c4.2002-6.1328,9.9658-10.8657,17.2998-14.2002c0-0.5996,0.166-3.6655,0.5-9.1997
				c-5.8672,0.1343-10.9341,0.1343-15.1997,0c-1.8003-0.0659-3.3174-0.7329-4.5503-2c-1.2344-1.2656-1.8496-2.7656-1.8496-4.5
				c0-1.8003,0.6826-3.3501,2.0498-4.6499c1.3657-1.3003,2.9502-1.916,4.75-1.8501c5.9326,0.2671,11.2002,0.3672,15.7998,0.2998
				c0.1328-1.3325,0.333-3.3999,0.6001-6.1997c0.2002-1.7329,0.9155-3.1831,2.1499-4.3501c1.2329-1.1655,2.7158-1.75,4.4502-1.75
				c2,0,3.6826,0.7671,5.0498,2.2998c1.3657,1.5347,1.916,3.3003,1.6504,5.3003l-0.5,4.1997
				C61.2656,21.3662,70,20.499,78.3999,19.2988c1.9331-0.2656,3.6499,0.25,5.1499,1.5503c1.5,1.2998,2.25,2.9497,2.25,4.9497
				c0,1.6675-0.5669,3.1172-1.6997,4.3501c-1.1343,1.2344-2.5,1.9502-4.1001,2.1499c-9.667,1.1348-19.3672,1.9346-29.1001,2.4004
				c-0.0669,1.1997-0.167,3.0669-0.2998,5.5996c2.8657-0.4653,5.9653-0.6997,9.2998-0.6997c11.1328,0,19.8999,2.167,26.3003,6.5
				C93.3999,50.9663,97,58.3335,97,68.1992z M38.1001,79.1992c-0.5347-7.6001-0.8345-14.666-0.8999-21.2002
				c-3.2676,2.3999-5.8501,5.417-7.75,9.0498c-1.9004,3.6348-2.8501,7.2847-2.8501,10.9502c0,3.0674,1.1997,4.6001,3.6001,4.6001
				C32.6001,82.5991,35.2329,81.4663,38.1001,79.1992z M60.2998,51.1992C56.7002,51.2661,53.2656,51.666,50,52.3989
				c-0.2002,6.1343-0.2344,11.5-0.1001,16.1001C54.3657,62.4336,57.833,56.666,60.2998,51.1992z"/>
		</g>
	</g>
</g>
</svg>
