<?xml version="1.0" encoding="utf-8"?>
<!-- Generator: Adobe Illustrator 25.2.1, SVG Export Plug-In . SVG Version: 6.00 Build 0)  -->
<svg version="1.1" id="レイヤー_1" xmlns="http://www.w3.org/2000/svg" xmlns:xlink="http://www.w3.org/1999/xlink" x="0px"
	 y="0px" viewBox="0 0 110 110" style="enable-background:new 0 0 110 110;" xml:space="preserve">
<style type="text/css">
	.st0{fill:#1E1E28;}
</style>
<g>
	<g>
		<g>
			<path class="st0" d="M100,67.1992c0,9.7998-3.8999,17.8672-11.7002,24.1997c-6.7344,5.333-14.9668,8.5659-24.6997,9.7002
				c-0.6001,0.0654-1.5674,0.1001-2.8999,0.1001c-2.7344,0-4.9346-1-6.6001-3C52.7002,96.4648,52,94.499,52,92.2988
				c0-5.1997,2.833-8.2324,8.5-9.0996c14.6655-2.2656,22-7.6001,22-16c0-5.2002-2.4673-9.2002-7.3999-12
				c-4.0674,10.1997-10.0674,19.167-18,26.8999c-8.9346,8.667-17.7344,13-26.3999,13c-6.2676,0-11.3672-2.3999-15.3003-7.2002
				C11.7998,83.499,10,78.3662,10,72.499c0-6.0654,2-12,6-17.7998c4.3999-6.4004,10.4658-11.3657,18.2002-14.9004l0.0996-2.6997
				H20.5c-2.6001,0-4.7173-0.8657-6.3501-2.6001c-1.6343-1.7329-2.4497-3.7329-2.4497-6c0-2.2656,0.8154-4.25,2.4497-5.9502
				c1.6328-1.6997,3.75-2.5498,6.3501-2.5498h15c0.1328-0.7998,0.2998-1.9658,0.5-3.5c0.5327-5.333,3.3657-8,8.5-8
				c2.2002,0,4.1328,0.7002,5.7998,2.1001c2,1.667,3,3.8672,3,6.6001v0.8999l-0.1997,1.8999h31.7998
				c2.6001,0,4.7002,0.8672,6.3003,2.6001c1.5996,1.7344,2.3999,3.6997,2.3999,5.8999c0,2.2671-0.8003,4.2671-2.3999,6
				c-1.6001,1.7344-3.7002,2.6001-6.3003,2.6001h-8.6997C83.8657,39.499,89.7998,43.5332,94,49.1992
				C98,54.4663,100,60.4663,100,67.1992z M93,65.499c0-7.4658-2.7998-13.7002-8.3999-18.7002
				c-6.3345-5.6655-15.2002-8.5-26.6001-8.5c-5.0674,0-9.5342,0.4346-13.3999,1.3003c0.0654-2.2656,0.2329-5.4331,0.5-9.5h38
				c2.3325,0,3.5-1.1001,3.5-3.3003c0-2.1997-1.1675-3.2998-3.5-3.2998h-37.5c0.1997-1.7998,0.4653-4.5,0.7998-8.1001
				c0.0659-0.8657-0.2842-1.6499-1.0498-2.3501c-0.7671-0.6997-1.6172-1.0498-2.5503-1.0498c-2.1343,0-3.2998,1.0674-3.5,3.2002
				c-0.1343,1.7998-0.3672,4.5669-0.6997,8.2998H18.7002c-2.3345,0-3.5,1.1001-3.5,3.2998c0,2.2002,1.1655,3.3003,3.5,3.3003
				h19.3999l-0.6001,11.5c-7.7344,2.8672-13.7998,7.2998-18.2002,13.2998c-3.8672,5.2002-5.7998,10.5-5.7998,15.8999
				c0,4.6675,1.3999,8.6675,4.2002,12c2.9326,3.5347,6.6997,5.3003,11.2998,5.3003c8,0,16.2998-4.5659,24.8999-13.7002
				c8.0659-8.6655,13.5-18,16.3003-28c5.2656,1.6001,9.2998,4.2671,12.0996,8C84.7656,57.7334,86,61.4336,86,65.499
				c0,5.1343-2.2002,9.6343-6.6001,13.5c-4.8672,4.2671-11.8345,6.9673-20.8999,8.1001c-2,0.2671-3,1.4341-3,3.5
				c0,2.6655,1.2998,3.8325,3.8999,3.5c11-1.333,19.5-4.8999,25.5-10.7002C90.2998,78.3335,93,72.3662,93,65.499z M39.5,77.8989
				c-3.5342,2.1343-7,3.2002-10.3999,3.2002c-2.5347,0-4.5674-1.0156-6.1001-3.0503c-1.5342-2.0327-2.2998-4.4497-2.2998-7.25
				c0-4,1.3325-7.8999,4-11.6997c3-4.3999,7.2324-7.833,12.6997-10.3003v1.7002C37.3999,61.0332,38.1001,70.166,39.5,77.8989z
				 M35.5,76.6992c-0.7998-5.2656-1.2998-10.8003-1.5-16.6001c-4.2002,3.7344-6.2998,7.8672-6.2998,12.3999
				c0,3.3999,1.0654,5.1001,3.1997,5.1001C32.2998,77.5991,33.833,77.2988,35.5,76.6992z M63.7002,45.0991
				c-1.4673,5-3.8003,10.0342-7,15.1001c-3.2002,5.0669-6.8003,9.3999-10.8003,13c-1-6.4658-1.5-14.0659-1.5-22.8003v-4
				c3.8657-1.0654,8.4658-1.6001,13.8003-1.6001C60.2002,44.7988,62.0327,44.8989,63.7002,45.0991z M58,51.7988
				c-2.3999,0.0674-4.6001,0.2676-6.6001,0.6001c0,4.6001,0.0659,8,0.2002,10.2002C54.1328,59.1333,56.2656,55.5332,58,51.7988z"/>
		</g>
	</g>
</g>
</svg>
