<?xml version="1.0" encoding="utf-8"?>
<!-- Generator: Adobe Illustrator 25.2.1, SVG Export Plug-In . SVG Version: 6.00 Build 0)  -->
<svg version="1.1" id="レイヤー_1" xmlns="http://www.w3.org/2000/svg" xmlns:xlink="http://www.w3.org/1999/xlink" x="0px"
	 y="0px" viewBox="0 0 110 110" style="enable-background:new 0 0 110 110;" xml:space="preserve">
<style type="text/css">
	.st0{fill:#1E1E28;}
</style>
<g>
	<g>
		<g>
			<path class="st0" d="M94.9004,66.4004c0,16.9346-10.9004,26.8662-32.7002,29.8008c-1.0674,0.1328-2-0.1504-2.7998-0.8506
				c-0.8008-0.7002-1.2002-1.584-1.2002-2.6494c0-2.0664,1.0322-3.2334,3.0996-3.5c17.4004-2.4658,26.1006-10.1328,26.1006-23
				c0-4.7334-1.4346-8.8164-4.3008-12.25c-2.8672-3.4336-6.9336-5.8828-12.1992-7.3506
				c-4.8008,14.7998-10.585,26.2178-17.3506,34.25c-6.7666,8.0342-13.9844,12.0498-21.6494,12.0498c-4.668,0-8.5-1.665-11.5-5
				c-3.2002-3.5996-4.8008-8.4326-4.8008-14.5c0-6.7324,2.0664-12.832,6.2002-18.2998
				c4.2656-5.7998,10.2334-10.0996,17.9004-12.8994V31.501h-18.5c-2.2676,0-3.4004-1.166-3.4004-3.5c0-0.9326,0.333-1.7334,1-2.4004
				c0.666-0.665,1.4658-1,2.4004-1h18.5v-7.3994c0-1,0.3496-1.8662,1.0498-2.6006c0.7002-0.7324,1.5498-1.0996,2.5498-1.0996
				s1.8662,0.3672,2.6006,1.0996C46.6328,15.335,47,16.2012,47,17.2012v7.3994h42.5996c0.9336,0,1.75,0.335,2.4502,1
				c0.7002,0.667,1.0498,1.4678,1.0498,2.4004c0,1-0.3496,1.834-1.0498,2.5c-0.7002,0.667-1.5166,1-2.4502,1H46.7002v8.7002
				c4.2002-0.8662,8.4326-1.3008,12.7002-1.3008c11.7324,0,20.7324,2.668,27,8C92.0654,51.835,94.9004,58.335,94.9004,66.4004z
				 M43,81.4004c-1.9346-8.5322-3-19.332-3.2002-32.3994c-5.334,2.3994-9.5342,5.7168-12.5996,9.9502
				c-3.0674,4.2344-4.6006,9.0498-4.6006,14.4492c0,3.8008,0.9336,6.8174,2.8008,9.0508c1.8652,2.2344,4.1992,3.3496,7,3.3496
				C35.9326,85.8008,39.4658,84.335,43,81.4004z M64.2002,45.4004c-2-0.1992-3.7002-0.2998-5.1006-0.2998
				c-4.2666,0-8.3994,0.5-12.3994,1.5c0.1328,12.1348,0.833,22.1348,2.0996,30C54.9326,69.4678,60.0654,59.0684,64.2002,45.4004z"/>
		</g>
	</g>
</g>
</svg>
