<?xml version="1.0" encoding="utf-8"?>
<!-- Generator: Adobe Illustrator 25.2.1, SVG Export Plug-In . SVG Version: 6.00 Build 0)  -->
<svg version="1.1" id="レイヤー_1" xmlns="http://www.w3.org/2000/svg" xmlns:xlink="http://www.w3.org/1999/xlink" x="0px"
	 y="0px" viewBox="0 0 110 110" style="enable-background:new 0 0 110 110;" xml:space="preserve">
<style type="text/css">
	.st0{fill:#1E1E28;}
</style>
<g>
	<g>
		<g>
			<path class="st0" d="M96.4004,66.499c0,17.8672-11.1006,28.1328-33.3008,30.7998c-1.667,0.2002-3.1172-0.25-4.3496-1.3496
				c-1.2344-1.0996-1.8496-2.4844-1.8496-4.1504c0-1.332,0.4648-2.5156,1.3994-3.5498c0.9326-1.0322,2.0654-1.6494,3.4004-1.8496
				c15.4658-2.2002,23.2002-8.9004,23.2002-20.1006c0-7.665-4.0674-13.0654-12.2002-16.1992
				c-5,13.8672-11.0498,24.7344-18.1504,32.5996c-7.0996,7.8672-14.6846,11.7998-22.75,11.7998c-5.1338,0-9.2998-1.7324-12.5-5.2002
				c-3.5996-3.7998-5.3994-9.1328-5.3994-16c0-6.5996,1.9648-12.665,5.8994-18.1992c4.333-6,10.4004-10.4658,18.2002-13.4004V32.999
				H21.5c-1.4668,0-2.7168-0.5156-3.75-1.5498c-1.0342-1.0332-1.5498-2.3154-1.5498-3.8496c0-1.4658,0.5156-2.7158,1.5498-3.75
				c1.0332-1.0332,2.2832-1.5508,3.75-1.5508H38v-4.5996c0-1.5332,0.5498-2.8496,1.6504-3.9502
				c1.0996-1.0996,2.415-1.6494,3.9492-1.6494c1.5332,0,2.8506,0.5498,3.9502,1.6494c1.1006,1.1006,1.6504,2.417,1.6504,3.9502
				v4.5996H89c1.4658,0,2.7324,0.5176,3.7998,1.5508c1.0654,1.0342,1.6006,2.2842,1.6006,3.75c0,1.5342-0.5176,2.8164-1.5508,3.8496
				C91.8154,32.4834,90.5332,32.999,89,32.999H48.9004v5.9004c3.1328-0.4658,6.5-0.7002,10.0996-0.7002
				c12.5996,0,22.166,2.7998,28.7002,8.4004C93.5,51.5996,96.4004,58.2334,96.4004,66.499z M41.7998,79.6992
				c-2-7.5332-3.167-16.666-3.5-27.4004c-9.1338,4.8008-13.7002,11.8008-13.7002,21c0,3.2002,0.7832,5.7178,2.3506,7.5508
				c1.5654,1.834,3.5498,2.75,5.9502,2.75C35.7002,83.5996,38.666,82.2988,41.7998,79.6992z M62.5996,47.8994
				C61,47.7666,59.6328,47.6992,58.5,47.6992c-3.2676,0-6.4346,0.2998-9.5,0.9004c0.2002,9,0.7656,16.8672,1.7002,23.5996
				C55.3652,65.7334,59.333,57.6338,62.5996,47.8994z"/>
		</g>
	</g>
</g>
</svg>
