<?xml version="1.0" encoding="utf-8"?>
<!-- Generator: Adobe Illustrator 25.2.1, SVG Export Plug-In . SVG Version: 6.00 Build 0)  -->
<svg version="1.1" id="レイヤー_1" xmlns="http://www.w3.org/2000/svg" xmlns:xlink="http://www.w3.org/1999/xlink" x="0px"
	 y="0px" viewBox="0 0 110 110" style="enable-background:new 0 0 110 110;" xml:space="preserve">
<style type="text/css">
	.st0{fill:#1E1E28;}
</style>
<g>
	<g>
		<g>
			<path class="st0" d="M95.7002,66.3994c0,17.3994-11,27.5-33,30.2998c-1.3345,0.2002-2.5176-0.167-3.5503-1.0996
				c-1.0342-0.9346-1.5498-2.0674-1.5498-3.4004c0-2.5332,1.2998-4,3.8999-4.4004c16.4658-2.332,24.7002-9.5,24.7002-21.5
				c0-8.7998-4.8003-14.7998-14.4004-18c-4.9341,14.4678-10.8496,25.6504-17.75,33.5508
				c-6.8999,7.8994-14.3169,11.8496-22.25,11.8496c-4.9341,0-8.9341-1.7002-12-5.0996c-3.3999-3.666-5.0996-8.7334-5.0996-15.2002
				c0-6.6006,2.0327-12.7002,6.0996-18.2998c4.333-5.9336,10.3657-10.333,18.1001-13.2002c0-0.6006-0.0342-2.166-0.1001-4.7002
				c0-2.0654,0-3.7324,0-5h-17.5c-1.1997,0-2.2168-0.416-3.0498-1.25c-0.8345-0.833-1.25-1.8828-1.25-3.1504
				c0-1.1992,0.4155-2.2324,1.25-3.0996c0.833-0.8652,1.8501-1.2998,3.0498-1.2998h17.5v-6c0-1.2656,0.4658-2.3506,1.4004-3.25
				c0.9326-0.9004,2.0327-1.3506,3.2998-1.3506c1.2656,0,2.3501,0.4502,3.25,1.3506c0.8999,0.8994,1.3501,1.9844,1.3501,3.25v6
				h41.1997c1.2002,0,2.2329,0.4346,3.1001,1.2998c0.8657,0.8672,1.3003,1.9004,1.3003,3.0996c0,1.2676-0.4346,2.3174-1.3003,3.1504
				c-0.8672,0.834-1.8999,1.25-3.1001,1.25h-41.5v7.2998c3.4004-0.5996,7.2002-0.8994,11.4004-0.8994
				c12.1997,0,21.5,2.7344,27.8999,8.1992C92.833,51.666,95.7002,58.1992,95.7002,66.3994z M42.3999,80.5996
				c-2-8.1328-3.1343-18.1006-3.3999-29.9004c-10.2671,5-15.3999,12.5674-15.3999,22.7002c0,3.4668,0.8657,6.2168,2.6001,8.25
				c1.7324,2.0342,3.8999,3.0498,6.5,3.0498C35.833,84.6992,39.0654,83.334,42.3999,80.5996z M63.3999,46.5996
				c-1.3999-0.1328-2.9341-0.2002-4.6001-0.2002c-3.667,0-7.2998,0.3994-10.8999,1.2002
				c0.1328,10.5996,0.7656,19.5664,1.8999,26.8994C55.0654,67.7666,59.6001,58.4668,63.3999,46.5996z"/>
		</g>
	</g>
</g>
</svg>
