<?xml version="1.0" encoding="utf-8"?>
<!-- Generator: Adobe Illustrator 25.2.1, SVG Export Plug-In . SVG Version: 6.00 Build 0)  -->
<svg version="1.1" id="レイヤー_1" xmlns="http://www.w3.org/2000/svg" xmlns:xlink="http://www.w3.org/1999/xlink" x="0px"
	 y="0px" viewBox="0 0 110 110" style="enable-background:new 0 0 110 110;" xml:space="preserve">
<style type="text/css">
	.st0{fill:#1E1E28;}
</style>
<g>
	<g>
		<g>
			<path class="st0" d="M96.0996,70.5991c0,7.9341-2.7666,16-8.2998,24.1997c-1.1338,1.666-2.7002,2.5-4.7002,2.5
				c-1.5996,0-2.9668-0.5669-4.0996-1.6997c-1.1348-1.1343-1.7002-2.4673-1.7002-4c0-1.1328,0.333-2.2002,1-3.2002
				C82.7656,81.666,85,75.5664,85,70.0991c0-7.4658-3.2676-13.2329-9.7998-17.3003c-5.7998,14.8003-13.5,26.1001-23.1006,33.9004
				c0.1328,0.667,0.3008,1.667,0.5,3c0.2656,1.5996-0.1338,3.0342-1.1992,4.2998c-1.0674,1.2656-2.4346,1.8999-4.1006,1.8999
				c-2.2666,0-3.8994-1.0342-4.8994-3.1001c-3.5352,1.5332-6.9678,2.3003-10.3008,2.3003c-5.2666,0-9.5342-1.5-12.7998-4.5
				c-3.5996-3.333-5.3994-7.9658-5.3994-13.8999c0-7.6001,2.3652-14.5156,7.0996-20.75c4.7324-6.2329,11.3652-10.75,19.9004-13.5503
				c0.1328-3.5327,0.2998-6.7329,0.5-9.6001c-6.6006,0.1348-12.7676,0.3003-18.5,0.5c-1.4678,0.0674-2.7344-0.4326-3.8008-1.5
				C18.0332,30.7334,17.5,29.4663,17.5,27.999c0-1.3999,0.4824-2.6157,1.4502-3.6499c0.9658-1.0327,2.1826-1.5503,3.6494-1.5503
				l19.5-0.3999c0.1328-1.2656,0.3008-3.1328,0.5-5.6001c0.1328-1.3999,0.7334-2.5996,1.8008-3.5996c1.0654-1,2.332-1.5,3.7998-1.5
				c1.665,0,3.0498,0.6343,4.1494,1.8999c1.1006,1.2671,1.5508,2.7344,1.3506,4.3999c-0.1348,0.9346-0.2998,2.3672-0.5,4.2998
				l37.2002-0.3999c1.4648,0,2.7148,0.5171,3.75,1.5503c1.0322,1.0342,1.5498,2.2842,1.5498,3.75
				c0,1.4668-0.5176,2.6997-1.5498,3.6997c-1.0352,1-2.2852,1.5-3.75,1.5c-15.668,0-28.4678,0.0674-38.4004,0.2002
				c-0.0674,0.7344-0.2676,3.2344-0.5996,7.5c3.0654-0.3999,6-0.6001,8.7998-0.6001c2.9326,0,5.5654,0.167,7.8994,0.5
				c0.9336-2.2002,2.6328-3.2998,5.1006-3.2998c1.665,0,3.0322,0.6343,4.0996,1.8999c1.0654,1.2671,1.5,2.6997,1.2998,4.2998
				C90.2656,47.8989,96.0996,57.1333,96.0996,70.5991z M41.0996,81.999c-0.4668-6.5327-0.6992-13.1001-0.6992-19.7002
				c0-3.7998,0.0322-6.9653,0.0996-9.5c-5.1348,2.3345-9.0996,5.5503-11.9004,9.6504c-2.7998,4.0996-4.1992,8.4844-4.1992,13.1499
				c0,2.667,0.7998,4.8169,2.3994,6.4497c1.6006,1.6348,3.5654,2.4502,5.9004,2.4502C35.2998,84.499,38.0996,83.666,41.0996,81.999z
				 M65.2998,49.1992c-2-0.333-3.8994-0.5-5.7002-0.5c-2.8672,0-5.7998,0.2998-8.7998,0.8999
				c-0.2666,5.1997-0.3994,9.7671-0.3994,13.6997c0,3.4004,0.1328,7,0.3994,10.8003
				C56.8652,67.5664,61.7002,59.2661,65.2998,49.1992z"/>
		</g>
	</g>
</g>
</svg>
