<?xml version="1.0" encoding="utf-8"?>
<!-- Generator: Adobe Illustrator 25.2.1, SVG Export Plug-In . SVG Version: 6.00 Build 0)  -->
<svg version="1.1" id="レイヤー_1" xmlns="http://www.w3.org/2000/svg" xmlns:xlink="http://www.w3.org/1999/xlink" x="0px"
	 y="0px" viewBox="0 0 110 110" style="enable-background:new 0 0 110 110;" xml:space="preserve">
<style type="text/css">
	.st0{fill:#1E1E28;}
</style>
<g>
	<g>
		<g>
			<path class="st0" d="M97.5,70.1006c-0.0674,7.7344-2.7671,14.2344-8.1001,19.5c-5.0669,5-12.0342,8.5332-20.8999,10.6006
				c-0.4673,0.1328-0.9673,0.1992-1.5,0.1992c-1.667,0-3.1343-0.6172-4.3999-1.8496c-1.2671-1.2344-1.8999-2.75-1.8999-4.5498
				c0-3.2656,1.5654-5.333,4.6997-6.2002c12.2656-3.4004,18.3999-9.5,18.3999-18.2998c0-6.666-3.667-11.2656-11-13.7998
				c-5.7344,10.2666-12.5669,19.167-20.5,26.6992c0.5332,2.668,0.8003,4.1006,0.8003,4.3008c0,1.667-0.6172,3.1172-1.8501,4.3496
				c-1.2344,1.2344-2.7173,1.8496-4.4502,1.8496c-2,0-3.6343-0.7998-4.8999-2.3994c-5.667,3.333-11,5-16,5
				c-3.6001,0-6.6001-1.1006-9-3.2998c-2.7344-2.4004-4.1001-5.8008-4.1001-10.2002c0-6.8662,2.6328-13.2998,7.9004-19.2998
				c4.6655-5.333,10.8325-9.8008,18.5-13.4004c0.3325-5.4658,0.6655-9.7324,1-12.7998c-5.1348,0.334-9.4346,0.4346-12.9004,0.2998
				c-1.7344-0.0654-3.1841-0.7002-4.3496-1.9004c-1.1675-1.1992-1.75-2.665-1.75-4.3994c0-1.7998,0.6826-3.333,2.0498-4.6006
				c1.3657-1.2656,2.9502-1.832,4.75-1.6992c4.2002,0.2666,8.7656,0.2666,13.7002,0c0.3325-2.4004,0.8325-5.5,1.5-9.3008
				c0.2656-1.5322,1.0156-2.832,2.25-3.8994c1.2324-1.0654,2.6499-1.6006,4.25-1.6006c1.8652,0,3.4155,0.6504,4.6499,1.9502
				c1.2329,1.2998,1.8501,2.8506,1.8501,4.6504c0,0.1338-0.4673,2.334-1.4004,6.5996c3.5332-0.665,7.0659-1.6328,10.6001-2.8994
				c0.6655-0.2002,1.333-0.3008,2-0.3008c1.6655,0,3.1157,0.585,4.3501,1.75c1.2329,1.168,1.8501,2.6172,1.8501,4.3506
				c0,2.8672-1.3672,4.7998-4.1001,5.7998c-4.667,1.667-10.3672,3-17.1001,4c-0.4673,3-0.8672,6.2344-1.1997,9.7002
				C55.7329,43.8682,60,43.3008,64,43.3008h1.6001c0.1997-0.5332,0.5327-1.333,1-2.4004c1-2.5996,2.8999-3.8994,5.6997-3.8994
				c1.7329,0,3.2002,0.5996,4.4004,1.7998c1.1997,1.2002,1.7998,2.667,1.7998,4.4004c0,0.667-0.1343,1.3672-0.3999,2.0996
				c6.0654,1.8672,10.7656,4.834,14.1001,8.9004C95.7998,58.5352,97.5654,63.835,97.5,70.1006z M39.3999,78.2012
				c-0.5342-5.4004-0.7671-10.9336-0.6997-16.6006C29.5654,66.9355,25,72.9678,25,79.7012c0,2.2666,1.1328,3.3994,3.3999,3.3994
				C31,83.1006,34.6655,81.4678,39.3999,78.2012z M60.2002,54.2012c-2.9346,0.2666-6.1675,0.9668-9.7002,2.0996l-0.1001,1.7998
				c-0.1343,2.2002-0.0669,5.5342,0.2002,10C53.9326,64.2354,57.1328,59.6006,60.2002,54.2012z"/>
		</g>
	</g>
</g>
</svg>
