<?xml version="1.0" encoding="utf-8"?>
<!-- Generator: Adobe Illustrator 25.2.1, SVG Export Plug-In . SVG Version: 6.00 Build 0)  -->
<svg version="1.1" id="レイヤー_1" xmlns="http://www.w3.org/2000/svg" xmlns:xlink="http://www.w3.org/1999/xlink" x="0px"
	 y="0px" viewBox="0 0 110 110" style="enable-background:new 0 0 110 110;" xml:space="preserve">
<style type="text/css">
	.st0{fill:#1E1E28;}
</style>
<g>
	<g>
		<g>
			<path class="st0" d="M96.5,67.8994c0,8-2.7676,14.7002-8.2998,20.0996c-4.5342,4.335-10.5674,7.5654-18.1006,9.7002
				c-0.4668,0.1328-1,0.2002-1.5996,0.2002c-1.667,0-3.0674-0.585-4.2002-1.75c-1.1338-1.167-1.7002-2.5498-1.7002-4.1504
				c0-2.8652,1.333-4.7324,4-5.5996c12.0664-4,18.1006-10.333,18.1006-19c0-6.5332-3.4678-11.4658-10.4004-14.7998l-23.5,35.8994
				C47.5996,93.4316,43.666,95.8994,39,95.8994c-1,0-2.0674-0.1348-3.2002-0.4004c-7-1.4668-12.4346-4.2002-16.2998-8.2002
				c-4.0674-4.1328-6.0996-9.2998-6.0996-15.5c0-6.665,2.3154-12.7148,6.9492-18.1494c4.6328-5.4326,10.8828-9.3828,18.75-11.8506
				v-8.1992c-7.334,0.1338-13.2666,0.1992-17.7998,0.1992c-1.4668,0-2.75-0.5322-3.8496-1.5996
				c-1.1006-1.0654-1.6504-2.3652-1.6504-3.9004c0-1.4648,0.5498-2.75,1.6504-3.8496c1.0996-1.0996,2.415-1.6504,3.9502-1.6504
				c7.0654,0.1348,13,0.168,17.7998,0.1006l0.0996-5.5c0-1.5332,0.5498-2.8506,1.6504-3.9502
				c1.0996-1.0996,2.4502-1.6504,4.0498-1.6504c1.5332,0,2.8496,0.585,3.9502,1.75c1.0996,1.168,1.6494,2.5176,1.6494,4.0508
				L50.5,22.6992c10.9326-0.2656,23.0996-0.833,36.5-1.7002c1.5996-0.1328,3,0.3672,4.2002,1.5
				C92.4004,23.6338,93,24.999,93,26.5996c0,1.4668-0.5176,2.75-1.5498,3.8496c-1.0342,1.0996-2.3174,1.6846-3.8506,1.75
				c-12.4668,0.5342-24.9336,0.9346-37.3994,1.2002c-0.0674,2.8672-0.1006,5.167-0.1006,6.8994c3.1328-0.332,6.0664-0.5,8.8008-0.5
				c12.4648,0,22.0322,2.7676,28.6992,8.3008C93.5332,53.0996,96.5,59.6992,96.5,67.8994z M46.5996,74.5996
				c-0.7344,0.334-1.4668,0.5-2.1992,0.5c-1.4678,0-2.7178-0.5156-3.75-1.5508c-1.0352-1.0322-1.5508-2.2822-1.5508-3.75V52.5996
				c-9.5342,3.7344-14.2998,9.8672-14.2998,18.3994c0,6.8672,3.833,11.2344,11.5,13.1006c0.4658,0.1338,0.9004,0.1992,1.2998,0.1992
				c1.4658,0,2.7334-0.7656,3.8008-2.2998L46.5996,74.5996z M63,49.499c-1.5996-0.2002-3.2998-0.2998-5.0996-0.2998
				c-2.6006,0-5.3008,0.167-8.1006,0.5c0,0.7998,0,3.667,0,8.5996c-0.0674,4.9346-0.0996,8.7676-0.0996,11.5v0.5L63,49.499z"/>
		</g>
	</g>
</g>
</svg>
