<?xml version="1.0" encoding="utf-8"?>
<!-- Generator: Adobe Illustrator 25.2.1, SVG Export Plug-In . SVG Version: 6.00 Build 0)  -->
<svg version="1.1" id="レイヤー_1" xmlns="http://www.w3.org/2000/svg" xmlns:xlink="http://www.w3.org/1999/xlink" x="0px"
	 y="0px" viewBox="0 0 110 110" style="enable-background:new 0 0 110 110;" xml:space="preserve">
<style type="text/css">
	.st0{fill:#1E1E28;}
</style>
<g>
	<g>
		<g>
			<path class="st0" d="M94.6001,67.6992c0,7.4668-2.8672,13.834-8.6001,19.0996c-4.667,4.335-10.5342,7.4336-17.6001,9.3008
				c-0.8672,0.2656-1.6841,0.1152-2.4497-0.4502c-0.7676-0.5674-1.1504-1.3174-1.1504-2.25c0-1.4658,0.666-2.3662,2-2.7002
				c5.8003-1.4658,10.7329-4.0332,14.8003-7.7002c5-4.3994,7.5-9.5654,7.5-15.5c0-4.665-1.4175-8.7656-4.25-12.2998
				c-2.8345-3.5332-6.9844-6.0654-12.4502-7.5996l-26,41c-2.1343,3.334-4.8345,5-8.1001,5c-0.7344,0-1.5-0.0674-2.2998-0.2002
				c-6.4673-1.2656-11.5-3.8662-15.1001-7.7998s-5.3999-8.6006-5.3999-14c0-6.1328,2.2656-11.7656,6.7998-16.9004
				c4.7329-5.4004,11.1328-9.2656,19.2002-11.5996c0-1.4658,0.0654-5.5664,0.2002-12.3008l-21.9004,0.4004
				c-1.7344,0-2.5996-0.9004-2.5996-2.7002c0-1.7324,0.8652-2.5996,2.5996-2.5996c5.9331,0,13.2656-0.0654,22-0.2002L42,16.5996
				c0-1.8008,0.8999-2.7002,2.7002-2.7002c0.7324,0,1.3652,0.2842,1.8999,0.8496c0.5327,0.5674,0.7998,1.2178,0.7998,1.9502
				c-0.1343,2.667-0.2344,5.6348-0.2998,8.9004c13.3325-0.333,27.4653-0.9004,42.3999-1.7002
				c0.7329-0.0654,1.3828,0.167,1.9502,0.7002c0.5654,0.5342,0.8496,1.1992,0.8496,2c0,1.7344-0.834,2.6338-2.5,2.6992
				c-16.8672,0.668-31.167,1.1348-42.8999,1.4004c-0.0669,2.5996-0.1343,6.4346-0.1997,11.5
				c3.4653-0.7324,7.5654-1.0996,12.2998-1.0996c11.6001,0,20.5654,2.5996,26.8999,7.7998
				C91.7002,53.6992,94.6001,59.9668,94.6001,67.6992z M67,46.2988c-2.9346-0.3994-5.7002-0.5996-8.2998-0.5996
				c-4.4004,0-8.4004,0.3672-12,1.0996c0,8.0674,0.0654,16.4004,0.1997,25c0,1.7344-0.8672,2.6006-2.6001,2.6006
				c-1.667,0-2.5342-0.833-2.5996-2.5C41.5654,66.6992,41.5,58.7988,41.5,48.1992c-6.6001,2.0674-11.7002,5.2168-15.2998,9.4502
				c-3.6001,4.2344-5.4004,8.8174-5.4004,13.75c0,4.2002,1.416,7.7998,4.25,10.7998c2.833,3,6.6157,4.9668,11.3501,5.9004
				c0.4658,0.0664,0.8999,0.0996,1.3003,0.0996c1.7324,0,3.2324-0.9326,4.5-2.7998L49,74.999L67,46.2988z"/>
		</g>
	</g>
</g>
</svg>
