<?xml version="1.0" encoding="utf-8"?>
<!-- Generator: Adobe Illustrator 25.2.1, SVG Export Plug-In . SVG Version: 6.00 Build 0)  -->
<svg version="1.1" id="レイヤー_1" xmlns="http://www.w3.org/2000/svg" xmlns:xlink="http://www.w3.org/1999/xlink" x="0px"
	 y="0px" viewBox="0 0 110 110" style="enable-background:new 0 0 110 110;" xml:space="preserve">
<style type="text/css">
	.st0{fill:#1E1E28;}
</style>
<g>
	<g>
		<g>
			<path class="st0" d="M100.2002,66.499c0,9.2671-3.335,17.0342-10,23.2998c-6.0674,5.666-13.7676,9.166-23.1006,10.5
				c-3.7344,0.5332-5.9668,0.8003-6.6992,0.8003c-3.4678,0-6.2344-1.3003-8.3008-3.8999c-1.7344-2.2002-2.5342-4.7002-2.3994-7.5
				c-5.8672,3.7998-11.7344,5.6997-17.6006,5.6997c-6.7998,0-12.2998-2.6001-16.5-7.7998
				c-3.7998-4.6001-5.6992-9.9658-5.6992-16.1001c0-5.6001,1.6992-11.1328,5.0996-16.6001c3.5996-5.8657,8.5996-10.6655,15-14.3999
				h-7.7002c-3.2002,0-5.7842-1.0654-7.75-3.2002c-1.9668-2.1328-2.9502-4.5996-2.9502-7.3999c0-2.7998,0.9834-5.2656,2.9502-7.3999
				c1.9658-2.1328,4.5498-3.2002,7.75-3.2002h12l0.1006-1.1997c0.2656-3.0659,1.5322-5.5,3.7998-7.3003
				c2.0654-1.5996,4.3994-2.3999,7-2.3999c2.665,0,5.0654,0.8672,7.2002,2.6001c2.4648,2.0674,3.665,4.8345,3.5996,8.2998h27.4004
				c3.1328,0,5.6992,1.0674,7.6992,3.2002c2,2.1343,3,4.6001,3,7.3999c0,2.3999-0.75,4.5845-2.25,6.5503
				c-1.5,1.9668-3.5166,3.2168-6.0498,3.75C95.4004,46.5332,100.2002,55.2988,100.2002,66.499z M92,66.499
				c0-6.7998-2.5674-12.5-7.7002-17.1001C78.4326,44.1333,70.166,41.499,59.5,41.499c-4.5342,0-9.0342,0.5-13.5,1.5l0.5996-10.7998
				h36.8008c1.665,0,2.5-0.7656,2.5-2.3003c0-1.6001-0.835-2.3999-2.5-2.3999H47c0.0654-1.8657,0.2998-4.5654,0.7002-8.1001
				c0.1328-0.7998-0.0674-1.4497-0.6006-1.9497c-0.5342-0.5-1.167-0.75-1.8994-0.75c-1.5342,0-2.3672,0.7344-2.5,2.1997
				l-0.7998,8.6001H22.2998c-1.667,0-2.5,0.7998-2.5,2.3999c0,1.5347,0.833,2.3003,2.5,2.3003h19.2998
				C41.333,36.1333,41.1328,40.2334,41,44.499c-7.4004,2.667-13.2002,6.7671-17.4004,12.2998
				C20,61.666,18.2002,66.5664,18.2002,71.499c0,4.2671,1.2324,7.8672,3.7002,10.7998c2.665,3.2002,6.0654,4.8003,10.1992,4.8003
				c7.4658,0,15.2334-4.3657,23.3008-13.1001c7.665-8.2656,12.7324-17.1328,15.1992-26.6001C76,48.9336,80.1328,51.5664,83,55.2988
				c2.5996,3.3345,3.9004,7.0674,3.9004,11.2002c0,5.2002-2.168,9.7002-6.5,13.5c-4.8008,4.1343-11.5352,6.7344-20.2002,7.7998
				C58.7324,87.999,58,88.8335,58,90.2988c0,2,0.9326,2.8657,2.7998,2.6001c10.2656-1.3325,18.2002-4.6655,23.7998-10
				C89.5332,78.2334,92,72.7661,92,66.499z M43,78.6992c-3.7998,2.334-7.4004,3.5-10.7998,3.5c-2.667,0-4.7998-1.0659-6.4004-3.2002
				c-1.5996-2.1328-2.3994-4.6328-2.3994-7.5c0-4,1.3994-7.9658,4.1992-11.8999c3.1328-4.3999,7.5332-7.7656,13.2002-10.1001v2.8999
				C40.7998,62.666,41.5332,71.4336,43,78.6992z M35.4004,74.5991c-0.4678-8.8657-0.7002-13.6001-0.7002-14.2002
				c-3,3.8672-4.5,7.5347-4.5,11c0,2.4673,1.0322,3.7002,3.0996,3.7002C33.7002,75.0991,34.4004,74.9336,35.4004,74.5991z
				 M66,46.499c-1.4004,5.2002-3.7842,10.4346-7.1504,15.7002c-3.3672,5.2671-7.1494,9.667-11.3496,13.1997
				c-1.1348-6.7329-1.7002-14.4653-1.7002-23.1997c0-1.9331,0.0332-3.4004,0.1006-4.4004
				c4.1328-1.1328,8.7656-1.6997,13.8994-1.6997C62.2656,46.0991,64.333,46.2334,66,46.499z M57.5,51.7988
				c-0.9346-0.2656-2.834-0.1328-5.7002,0.4004c-0.2666,6.1343-0.334,10.2344-0.2002,12.2998c1-1.6655,1.8662-3.2329,2.6006-4.7002
				C56,56.3335,57.0996,53.666,57.5,51.7988z M78.7002,66.499c0-2.9326-1.335-5.6328-4-8.1001
				c-3.2676,8.0674-7.9346,15.2344-14,21.5c4.7324-0.7329,8.665-2.0654,11.7998-4C76.6328,73.4336,78.7002,70.2988,78.7002,66.499z"
				/>
		</g>
	</g>
</g>
</svg>
