<?xml version="1.0" encoding="utf-8"?>
<!-- Generator: Adobe Illustrator 25.2.1, SVG Export Plug-In . SVG Version: 6.00 Build 0)  -->
<svg version="1.1" id="レイヤー_1" xmlns="http://www.w3.org/2000/svg" xmlns:xlink="http://www.w3.org/1999/xlink" x="0px"
	 y="0px" viewBox="0 0 110 110" style="enable-background:new 0 0 110 110;" xml:space="preserve">
<style type="text/css">
	.st0{fill:#1E1E28;}
</style>
<g>
	<g>
		<g>
			<path class="st0" d="M93.7998,27.8989c0,1-0.5,1.5-1.5,1.5c-14,0-28.8672,0.1001-44.5996,0.3003
				c-0.4678,4.7998-0.835,9.1997-1.1006,13.1997c4.6006-1.1328,9.6006-1.6997,15-1.6997c2.7334,0,5.2656,0.2344,7.6006,0.6997
				c0.4658-1.6655,0.7998-2.9326,1-3.7998c0.2002-0.8657,0.7324-1.3003,1.5996-1.3003c1.4004,0,1.9326,0.6675,1.6006,2
				c-0.335,1.4673-0.668,2.7676-1,3.9004c6.2656,1.9341,11.1992,5.3672,14.7998,10.2998C91,58.1333,92.9004,64.3335,92.9004,71.5991
				c0,7.3999-2.2676,14.8345-6.8008,22.2998c-0.334,0.5327-0.834,0.8003-1.5,0.8003c-1.1338,0-1.6992-0.5674-1.6992-1.7002
				c0-0.3999,0.0654-0.7002,0.1992-0.8999c4.4004-7.2002,6.6006-14.0327,6.6006-20.5c0-6.333-1.6504-11.8003-4.9502-16.3999
				c-3.2998-4.6001-7.7168-7.8003-13.25-9.6001c-2.5342,8.1997-5.8672,15.7998-10,22.7998c-4.5996,7.8672-9.5674,13.8672-14.9004,18
				c0.1328,1.5347,0.333,3.2344,0.6006,5.1001c0.1328,1.1343-0.3672,1.7002-1.5,1.7002c-0.8672,0-1.3672-0.4658-1.5-1.4004
				c-0.1348-0.9326-0.2676-2.0996-0.4004-3.5c-4.2666,2.6675-8.5,4-12.7002,4c-4.3994,0-7.917-1.3652-10.5498-4.0996
				c-2.6338-2.7329-3.9502-6.4658-3.9502-11.2002c0-7.1328,2.2334-13.6328,6.7002-19.5
				c4.8662-6.4658,11.6328-11.0327,20.2998-13.7002c0.4004-6.0654,0.7334-10.7656,1-14.0996
				c-8.4668,0.1343-16.2344,0.2998-23.2998,0.5c-1,0-1.5-0.5-1.5-1.5s0.5-1.5,1.5-1.5c7-0.2002,14.8662-0.3657,23.6006-0.5
				c0.332-3.4004,0.6992-7,1.0996-10.8003c0.1328-1,0.666-1.5,1.5996-1.5c1.2002,0,1.7334,0.6001,1.6006,1.8003
				c-0.4678,3.7344-0.8672,7.2344-1.2002,10.5c16-0.2002,30.7656-0.3003,44.2998-0.3003
				C93.2998,26.3989,93.7998,26.8989,93.7998,27.8989z M43.5,84.999c-0.4668-5.9326-0.7002-12.2998-0.7002-19.1001
				c0-5.4653,0.2002-11.8325,0.6006-19.1001C35.8652,49.3989,30,53.5991,25.7998,59.3989
				c-3.9346,5.2671-5.8994,11.1343-5.8994,17.6001c0,3.6001,1.0498,6.5342,3.1494,8.7998c2.1006,2.2676,4.7832,3.4004,8.0498,3.4004
				C35.2998,89.1992,39.4326,87.7988,43.5,84.999z M68.4004,44.7988c-2.2002-0.4653-4.4678-0.6997-6.8008-0.6997
				c-5.667,0-10.7344,0.6001-15.1992,1.7998C46,52.5664,45.7998,59.1333,45.7998,65.5991c0,6.7344,0.166,12.4673,0.5,17.1997
				c4.7334-4,9.1328-9.6328,13.2002-16.8999C63.166,59.3662,66.1328,52.3335,68.4004,44.7988z"/>
		</g>
	</g>
</g>
</svg>
