<?xml version="1.0" encoding="utf-8"?>
<!-- Generator: Adobe Illustrator 25.2.1, SVG Export Plug-In . SVG Version: 6.00 Build 0)  -->
<svg version="1.1" id="レイヤー_1" xmlns="http://www.w3.org/2000/svg" xmlns:xlink="http://www.w3.org/1999/xlink" x="0px"
	 y="0px" viewBox="0 0 110 110" style="enable-background:new 0 0 110 110;" xml:space="preserve">
<style type="text/css">
	.st0{fill:#1E1E28;}
</style>
<g>
	<g>
		<g>
			<path class="st0" d="M94.7002,70.499c-0.0674,7.0674-2.7676,12.9673-8.1001,17.7002c-5,4.3999-11.8999,7.4653-20.7002,9.1997
				c-0.7998,0.1328-1.5342-0.0498-2.1997-0.5498c-0.6675-0.5-1-1.1499-1-1.9502c0-1.4673,0.6997-2.3325,2.0996-2.6001
				c7.7329-1.5996,13.6831-4.3154,17.8501-8.1499c4.1655-3.8325,6.25-8.5156,6.25-14.0498c0-4.8003-1.75-8.75-5.25-11.8501
				s-8.4497-4.9502-14.8501-5.5498c-5.7998,10.334-12.1343,19.1343-19,26.3999c0.0659,0.1997,0.3657,1.2998,0.9004,3.2998
				c0.3999,1.6001,0.5996,2.6343,0.5996,3.1001c0,1.7998-0.9341,2.7002-2.7998,2.7002c-1.4673,0-2.3672-0.7656-2.7002-2.3003
				c-0.1997-0.7998-0.3672-1.6001-0.5-2.3999c-7.1343,6.3345-13.7344,9.5-19.7998,9.5c-2.4673,0-4.5342-0.7656-6.2002-2.2998
				c-1.9341-1.7329-2.8999-4.166-2.8999-7.3003c0-6.3999,2.7329-12.3999,8.2002-18c4.6655-4.7329,10.8325-8.7329,18.5-12
				c0.1328-5.1328,0.6655-11.4326,1.6001-18.8999c-7,1.1343-13.0347,1.7002-18.1001,1.7002C24.8657,36.1992,24,35.2988,24,33.499
				c0-1.8657,0.9326-2.7656,2.7998-2.7002c5.6001,0.1348,11.8003-0.3325,18.6001-1.3999
				c0.8657-6.1328,1.6655-11.1655,2.3999-15.1001c0.2656-1.5996,1.2002-2.3999,2.8003-2.3999c2,0,3,0.9346,3,2.8003
				c0,0.334-0.0347,0.667-0.1001,1c-1.0674,3.5996-2.0342,7.834-2.8999,12.6997c6-1.2656,11.2329-2.7998,15.6997-4.6001
				c0.333-0.1328,0.666-0.1997,1-0.1997c1.8003,0,2.7002,0.8672,2.7002,2.6001c0,1.1997-0.6001,2.0342-1.7998,2.5
				c-4.6001,1.7998-10.7676,3.4341-18.5,4.8999c-0.9346,6.2671-1.5347,12.2344-1.8003,17.8999
				c6.5327-2.2656,12.4331-3.3999,17.7002-3.3999h0.1997c1.2656-2.4658,2.4004-4.9331,3.4004-7.3999
				c0.4653-1.1328,1.2998-1.7002,2.5-1.7002c1.7324,0,2.5996,0.8999,2.5996,2.7002c0,0.4668-0.0669,0.834-0.1997,1.0996
				c-1.2002,2.3345-2.1675,4.2002-2.8999,5.6001c6.8652,0.8003,12.3652,2.9346,16.5,6.3999
				C92.4326,58.7334,94.7656,63.9663,94.7002,70.499z M44.3999,77.8989c-0.8672-6.3325-1.2998-12.9326-1.2998-19.7998
				c-6.2671,2.9341-11.2671,6.3999-15,10.3999c-4.3345,4.5342-6.5,9.2002-6.5,14c0,3.4673,1.7656,5.2002,5.2998,5.2002
				C31.833,87.6992,37.6655,84.4336,44.3999,77.8989z M63.2998,52.5991c-4.667,0.1997-9.834,1.3672-15.5,3.5
				c-0.0669,6,0.2656,11.6997,1,17.1001C54.1328,67.1992,58.9658,60.3335,63.2998,52.5991z"/>
		</g>
	</g>
</g>
</svg>
