<?xml version="1.0" encoding="utf-8"?>
<!-- Generator: Adobe Illustrator 25.2.1, SVG Export Plug-In . SVG Version: 6.00 Build 0)  -->
<svg version="1.1" id="レイヤー_1" xmlns="http://www.w3.org/2000/svg" xmlns:xlink="http://www.w3.org/1999/xlink" x="0px"
	 y="0px" viewBox="0 0 110 110" style="enable-background:new 0 0 110 110;" xml:space="preserve">
<style type="text/css">
	.st0{fill:#1E1E28;}
</style>
<g>
	<g>
		<g>
			<path class="st0" d="M93.9004,67.5996c0,7.2666-2.9004,13.5342-8.7002,18.7998c-4.7344,4.334-10.5342,7.3994-17.4004,9.2002
				c-0.5342,0.1328-1.0498,0.0322-1.5498-0.3008c-0.5-0.334-0.75-0.7998-0.75-1.3994c0-0.9326,0.4658-1.5,1.4004-1.7002
				c6.0654-1.4004,11.332-4.0654,15.7998-8c5.2656-4.7324,7.8994-10.2656,7.8994-16.5996c0-5.2002-1.5342-9.666-4.5996-13.4004
				c-3.2676-3.9326-8-6.666-14.2002-8.2002L44.9004,88.5996c-1.8008,2.8672-4.1006,4.2998-6.9004,4.2998
				c-0.5996,0-1.2344-0.0654-1.9004-0.2002c-6.334-1.2002-11.2344-3.7324-14.6992-7.5996c-3.4678-3.8662-5.2002-8.3662-5.2002-13.5
				c0-5.9336,2.2656-11.4336,6.7998-16.5c4.7324-5.333,11.166-9.166,19.2998-11.5l0.2998-13.7002
				c-9,0.2002-16.7666,0.334-23.2998,0.3994c-1.1338,0-1.7002-0.5654-1.7002-1.6992c0-1.1328,0.5664-1.7002,1.7002-1.7002
				c9,0,16.7998-0.0654,23.4004-0.2002l0.2002-10.4004c0-1.1328,0.5654-1.6992,1.6992-1.6992c1.2002,0,1.7656,0.5996,1.7002,1.7998
				c-0.2002,3.7998-0.334,7.2002-0.3994,10.2002c14.1328-0.333,28.9326-0.9004,44.3994-1.7002
				c1.2002-0.0654,1.7998,0.5,1.7998,1.7002c0,1.1338-0.5342,1.7344-1.5996,1.7998c-15.4668,0.5996-30.334,1.0674-44.5996,1.3994
				l-0.3008,13.1006c4-0.9326,8.4658-1.4004,13.4004-1.4004c11.2656,0,20.0332,2.5674,26.2998,7.7002
				C91.0332,53.8662,93.9004,59.999,93.9004,67.5996z M68.2998,45.1992c-3.3994-0.4658-6.5342-0.7002-9.3994-0.7002
				c-4.9346,0-9.3672,0.4346-13.3008,1.2998c0,8.2676,0.1006,17.168,0.3008,26.7002c0,1.1348-0.5674,1.7002-1.7002,1.7002
				c-1,0-1.5342-0.5332-1.6006-1.5996c-0.1992-6-0.2998-14.6328-0.2998-25.9004c-7.2002,2.2002-12.8672,5.6348-17,10.2998
				C21.4326,61.4668,19.5,66.334,19.5,71.5996c0,4.3994,1.5332,8.2168,4.5996,11.4492c3.0664,3.2344,7.166,5.3506,12.3008,6.3506
				c0.4648,0.0674,0.8994,0.0996,1.2998,0.0996c1.9326,0,3.5-0.9658,4.7002-2.8994L68.2998,45.1992z"/>
		</g>
	</g>
</g>
</svg>
