<?xml version="1.0" encoding="utf-8"?>
<!-- Generator: Adobe Illustrator 25.2.1, SVG Export Plug-In . SVG Version: 6.00 Build 0)  -->
<svg version="1.1" id="レイヤー_1" xmlns="http://www.w3.org/2000/svg" xmlns:xlink="http://www.w3.org/1999/xlink" x="0px"
	 y="0px" viewBox="0 0 110 110" style="enable-background:new 0 0 110 110;" xml:space="preserve">
<style type="text/css">
	.st0{fill:#1E1E28;}
</style>
<g>
	<g>
		<g>
			<path class="st0" d="M94.0996,69.3994l-2.7998,11.3994l-6,10.3008l-10.5996,8.1992L61,95.8994L76.9004,84.499l5-8.7998l1.5-9.5
				l-3.8008-7.0996l-6.7998-4.5l-5.5996-0.6006l-3.6006,8.7998l-6.6992,10.5l-7.3008,7.3008l0.7002,10.1992l-10.3994,4.5
				l-0.2002-8.5996l-1.7998,1l-10.1006,2l-8-2.7998L16.5,81.1992l1.5996-10.2002l6.7002-10.7998L36,52.0996l5.2002-2.5
				l1.2002-13.1006l-5.1006,0.5l-13.2002,0.7998l-4.6992-10l14.2998-0.1992l9.3994-0.9004L44.4004,9.499L55.5,14.0996
				l-2.0996,11.6992l15.2998-2.6992l11.7002-2.9004l-2.1006,10.9004l-16,2.7998l-10.2002,1.5l-1.3994,11.5l5-1.5l5.3994-0.6006
				l1.7002-6.8994l8.9004,5.2998l-0.7998,1.7998l4.5,0.9004l9.7998,4.2998l7.8994,10.5L94.0996,69.3994z M40.2998,59.499
				l-6.7002,4.1006l-5.1992,7l-1.5,6.0996l2.6992,2.7998L36,78.6992l3.5996-2.0996L40.2998,59.499z M58.2002,53.3994l-8.5,2.2998
				L49,69.5996l4.7998-6.2002l3.5-6.6006L58.2002,53.3994z"/>
		</g>
	</g>
</g>
</svg>
