<?xml version="1.0" encoding="utf-8"?>
<!-- Generator: Adobe Illustrator 25.2.1, SVG Export Plug-In . SVG Version: 6.00 Build 0)  -->
<svg version="1.1" id="レイヤー_1" xmlns="http://www.w3.org/2000/svg" xmlns:xlink="http://www.w3.org/1999/xlink" x="0px"
	 y="0px" viewBox="0 0 110 110" style="enable-background:new 0 0 110 110;" xml:space="preserve">
<style type="text/css">
	.st0{fill:#1E1E28;}
</style>
<g>
	<g>
		<g>
			<path class="st0" d="M95.5996,68.4004c0,8.4004-2.75,15.2178-8.25,20.4502c-5.5,5.2334-12.4844,7.8506-20.9492,7.8506
				c-3.5352,0-6.6006-0.6348-9.2002-1.9004c-3.2002-1.667-4.7998-4.1328-4.7998-7.4004c0-1.7324,0.6152-3.165,1.8496-4.2998
				c1.2324-1.1328,2.7158-1.7002,4.4502-1.7002c1.7998,0,3.333,0.5176,4.5996,1.5508c1.2656,1.0342,1.9004,2.417,1.9004,4.1494
				c0,1.6006-0.6006,2.9346-1.7998,4c-1.2002,1.0674-2.6006,1.6006-4.2002,1.6006c2,0.7998,3.833,1.1992,5.5,1.1992
				c6.3994,0,11.333-2.832,14.7998-8.5c2.8652-4.7998,4.2998-10.5996,4.2998-17.3994c0-4.9326-1.167-9.4326-3.5-13.5
				C77.833,50.168,74.4004,47.0684,70,45.2012c-4.5996,12.2666-9.7676,22.4668-15.5,30.5996
				c-8.4668,12.0674-17.334,18.0996-26.5996,18.0996c-4.8008,0-8.5-1.7656-11.1006-5.2998
				c-2.3994-3.1328-3.5996-7.165-3.5996-12.0996c0-6.9326,2.4658-13.3662,7.3994-19.2998c4.4658-5.2656,10.1328-9.333,17-12.2002
				L37,29.4004H14.9004v-2.7998H37L36.5,13.501h11.4004l0.1992,13.0996h44v2.7998h-44L48.5,41.7012
				c4.0654-0.8008,8.0654-1.2002,12-1.2002c2.7324,0,5.333,0.2344,7.7998,0.7002c0.4004-1.4658,1.0654-3.7002,2-6.7002
				l3.1006,0.7002c-0.4678,1.4668-1.168,3.6338-2.1006,6.5c7.4004,1.5342,13.2334,4.4668,17.5,8.7998
				C93.333,55.168,95.5996,61.1348,95.5996,68.4004z M39.0996,87.2012l-1.3994-39.1006c-6.1348,2.667-11.1348,6.3672-15,11.1006
				c-4.335,5.334-6.5,11.0996-6.5,17.2998c0,4,0.9326,7.3672,2.7998,10.0996c2.2002,3.0674,5.166,4.6006,8.9004,4.6006
				C31.3652,91.2012,35.0996,89.8682,39.0996,87.2012z M67.2002,44.1006c-1.9346-0.4658-4.2676-0.7002-7-0.7002
				c-4.7344,0-8.6348,0.4004-11.7002,1.2002L49,77.9004C55.666,70.3682,61.7324,59.1006,67.2002,44.1006z"/>
		</g>
	</g>
</g>
</svg>
