<?xml version="1.0" encoding="utf-8"?>
<!-- Generator: Adobe Illustrator 25.2.1, SVG Export Plug-In . SVG Version: 6.00 Build 0)  -->
<svg version="1.1" id="レイヤー_1" xmlns="http://www.w3.org/2000/svg" xmlns:xlink="http://www.w3.org/1999/xlink" x="0px"
	 y="0px" viewBox="0 0 110 110" style="enable-background:new 0 0 110 110;" xml:space="preserve">
<style type="text/css">
	.st0{fill:#1E1E28;}
</style>
<g>
	<g>
		<g>
			<path class="st0" d="M95,69.499l-2.8999,11.6006L86,91.6992l-11.1001,8.5996l-16-4l17.3003-12.3994l4.7998-8.5l1.5-9l-4-7.5
				l-6-3.4004L69,54.5996l-5.1001,11.5L58,74.999l-7.5,7.5l0.7002,8.9004L39,96.6992l-0.2002-8.5l-0.5996,0.4004l-10.5,2l-8.5-3
				l-3.6001-6.2002l1.6001-10.7002l6.8999-11.0996L35.5,51.2988l4.7998-2.2998l1.1001-11.8994l-4,0.3994L23.5,38.2988L18,26.8994
				l15.7002-0.2002l8.5996-0.7998l1.3003-17.7002L56.5,13.499l-2,11.2002l14-2.5l13.1001-3.2002l-2.5,12.5l-16.7002,2.9004
				l-9.5,1.3994l-1.1001,9.8008L55.5,44.499l4.8999-0.5l1.8003-7.5L72,42.3994l-0.2002,1.8994l3.9004,0.7002l10.0996,4.5L94,60.3994
				L95,69.499z M39.2998,61.0996l-5.0996,3.1992l-5,6.7002l-1.3003,5.4004l2,2.2002l5.8003-0.8008l3-1.6992L39.2998,61.0996z
				 M57.7002,53.8994l-4.1001,1.0996l-3,1.4004L50,68.7988l3.3999-4.6992L56.5,57.6992L57.7002,53.8994z"/>
		</g>
	</g>
</g>
</svg>
