<?xml version="1.0" encoding="utf-8"?>
<!-- Generator: Adobe Illustrator 25.2.1, SVG Export Plug-In . SVG Version: 6.00 Build 0)  -->
<svg version="1.1" id="レイヤー_1" xmlns="http://www.w3.org/2000/svg" xmlns:xlink="http://www.w3.org/1999/xlink" x="0px"
	 y="0px" viewBox="0 0 110 110" style="enable-background:new 0 0 110 110;" xml:space="preserve">
<style type="text/css">
	.st0{fill:#1E1E28;}
</style>
<g>
	<g>
		<path class="st0" d="M98.9502,78.6006c-0.8672,3-2.5347,5.7344-5,8.2002c0.1328,0.667-0.1348,1.2998-0.8003,1.9004
			c-0.9341,0.8672-1.4673,1.5-1.6001,1.8994c-0.7998,1.7998-2.3999,3.4658-4.7998,5c-3.9346,2.4004-5.9673,3.666-6.1001,3.7998
			c-1.7998-0.1992-3.5845,0.4004-5.3501,1.8008c-1.7671,1.3994-3.0498,2.1328-3.8496,2.1992c-0.8672,0-1.3672,0-1.5,0
			c-0.5347,0.1328-0.8672,0.4658-1,1c-2.9346-2.2666-4.9346-4.3672-6-6.2998c-0.7344-0.1338-1.8848-0.7666-3.4502-1.8994
			c-1.5674-1.1348-2.7842-1.7002-3.6499-1.7002c-1,0-1.9346,0.5-2.8003,1.5c-0.334-0.1348-0.667-0.2002-1-0.2002
			c-0.5342,0-1.1841,0.2158-1.9497,0.6504c-0.7671,0.4326-1.3174,0.6494-1.6499,0.6494c-0.2002,0-0.4004-0.0342-0.6001-0.0996
			c-0.6001-0.1348-1.3174,0.0322-2.1499,0.5c-0.8345,0.4658-1.4175,0.7002-1.75,0.7002c-0.3345,0-0.7002-0.1348-1.1001-0.4004
			c-0.6001,0.0654-1.2344-0.25-1.8999-0.9502c-0.6675-0.7002-1.3345-0.9844-2-0.8496c-0.5347-0.6006-1.2002-0.9004-2-0.9004
			c-0.6675,0-1.5674,0.2656-2.7002,0.7998c-1.5342,0.666-2.4346,1.0332-2.7002,1.1006c-0.5996,0.333-1.4341,0.3994-2.5,0.2002
			c-1.4668-0.335-2.2998-0.5-2.5-0.5c-0.667,0-1.1997,0.2324-1.5996,0.6992c-0.5347-0.0664-1.5-0.3672-2.9004-0.8994
			c-1.1343-0.4004-2.1343-0.6006-3-0.6006c-0.3999,0-0.7998,0.0332-1.1997,0.1006c-4.2671-3.0654-6.2671-6.3662-6-9.9004
			c0-1-0.1846-2.5-0.5503-4.5c-0.3672-2-0.5498-3.5-0.5498-4.5c0-2.333,0.7329-4.2656,2.2002-5.7998
			c2.3999-6.1328,6.8325-12.3652,13.2998-18.7002c0.333,0.1348,0.6328,0.2002,0.8999,0.2002c1,0,1.8999-0.7656,2.7002-2.2998
			c2.1328-1.1328,4.2656-2.2656,6.3999-3.4004c2.3999-1.5996,3.5327-3.6328,3.3999-6.0996
			c0.0659-0.1328,0.1001-0.2656,0.1001-0.4004c0-0.3994-0.6343-1.0996-1.8999-2.0996c-0.6675-0.4658-1.5-0.7002-2.5-0.7002
			c-0.3999,0-1.0503,0.0498-1.9502,0.1504c-0.8999,0.0996-1.5498,0.1494-1.9497,0.1494c-0.9346,0-1.7002-0.2324-2.3003-0.7002
			c-0.2671-0.0654-0.5669-0.0996-0.8999-0.0996c-0.4673,0-1.0674,0.084-1.7998,0.25c-0.7344,0.167-1.2676,0.25-1.6001,0.25
			c-0.6675,0-1.2344-0.2656-1.7002-0.7998c-0.4673-0.5332-0.6997-1.333-0.6997-2.4004c0-0.2002,0.2324-1.7002,0.6997-4.5
			c-0.0669-0.665,0.0659-1.5,0.3999-2.5c-0.334-5.2002,0.5-8.9658,2.5-11.2998c0.4004,0,1.1001,0.2002,2.1001,0.5996
			c1,0.4004,1.7656,0.6006,2.3003,0.6006c0.2656,0,0.5327-0.0332,0.7998-0.1006c0.6655,0,1.75,0.2852,3.25,0.8506
			c1.5,0.5674,2.6157,0.8496,3.3501,0.8496c1.2656,0,2.2329-0.7002,2.8999-2.0996c0.4658-1,0.7002-2.583,0.7002-4.75
			c0-2.166,0.2324-3.75,0.6997-4.75c0.9331-0.9326,1.5659-1.4004,1.8999-1.4004c0.2656,0,0.4658,0.2344,0.6001,0.7002
			c0.2002-0.0654,1.2656,0.167,3.2002,0.7002c1.0654-0.2656,2.75-0.3828,5.0498-0.3506c2.3003,0.0352,4.0156-0.082,5.1499-0.3496
			C59.1826,7.4004,59.75,8.335,59.75,9.6006c0,0.4004-0.0498,0.9844-0.1499,1.75c-0.1001,0.7676-0.1499,1.3506-0.1499,1.75
			c0,1.0674,0.3325,1.9004,1,2.5c0.5327-0.7324,1.5996-1.2822,3.1997-1.6494c1.6001-0.3662,2.6655-1.0156,3.2002-1.9502
			c0.1997,0,1.5-0.4658,3.8999-1.4004c1.3999,0.7998,2.1655,2.4004,2.2998,4.7998c0.2002,2.8008,0.6001,4.6006,1.2002,5.4004
			c-0.2002,0.1348-0.1001,0.5996,0.2998,1.4004c-0.1343,0.7344-0.0669,1.7344,0.2002,3c0.2656,1.2666,0.333,2.167,0.2002,2.6992
			c0.1328,0.2676,0.0654,0.668-0.2002,1.2002c-0.3345,0.7998-0.5,1.2344-0.5,1.2998c-1.8672,0.2002-3.5,0.9004-4.8999,2.1006
			c-1.3345-0.5332-2.5347-0.2998-3.6001,0.7002c-0.6001-0.0664-1.4346,0.0664-2.5,0.3994c-1.0674,0.335-1.8672,0.5-2.3999,0.5
			c-0.3999,0-0.7671-0.0654-1.1001-0.2002c-1.4673,0.5352-3.1001,1.9346-4.8999,4.2002c0,0.0674,0.6001,0.7998,1.7998,2.2002
			c0.1328-0.2002,0.6001-0.0996,1.3999,0.2998c0.8657-0.9326,2.2002-1.3994,4-1.3994c0.333,0,0.8657,0.0342,1.6001,0.0996
			c0.7329,0,1.2656,0,1.6001,0c2.333,0,3.833-0.9658,4.5-2.9004c0.6655,0.2002,5.1001,1.0352,13.2998,2.5
			c0.7329,0.4678,1.3003,1.5352,1.7002,3.2002c-0.2002,0.2676-0.2998,0.5342-0.2998,0.7998c0,0.2676,0.1152,0.6504,0.3496,1.1504
			c0.2329,0.5,0.3501,0.8848,0.3501,1.1504c2,0.334,3.8657,1.5,5.6001,3.5c1.4658,1.7998,2.8999,3.5996,4.2998,5.3994
			c0.4658,1.2002,1.3003,2.9346,2.5,5.2002c0,1.0674,0.2832,2.6348,0.8501,4.7002c0.5659,2.0674,0.8501,3.5342,0.8501,4.3994
			c0,0.668-0.1001,1.2676-0.2998,1.8008V78.6006z M38.25,77.6006c0.2656-0.2656,0.3999-0.5322,0.3999-0.7998
			c0-0.333-0.1499-0.75-0.4497-1.25c-0.3003-0.5-0.4175-0.8496-0.3501-1.0498l-0.3003-4.6006
			c0.2656-0.332,0.4004-0.6992,0.4004-1.0996c0-0.2656-0.1172-0.7158-0.3501-1.3496c-0.2344-0.6328-0.3501-1.1504-0.3501-1.5508
			c-0.2002-0.4648-0.6001-0.6992-1.2002-0.6992l-1.5996,0.0996c-0.4004,1.5342-1.6675,3.4004-3.8003,5.5996c-1.8672,2-2.8672,4-3,6
			c-0.0669,0.8008,0.2827,1.4346,1.0503,1.9004c0.7656,0.4668,1.4824,0.9004,2.1499,1.2998c0.6655-0.665,1.6001-1,2.7998-1
			c0.2002,0,0.5327,0,1,0c0.3999,0,0.7002,0,0.8999,0C36.8154,79.1006,37.7158,78.6006,38.25,77.6006z M59.4502,57.2012
			c-1.0674-1.4004-2.3672-2-3.9004-1.8008c-1.4668,1.0674-2.167,2.3672-2.0996,3.9004c0.1997,0.2002,0.5327,0.7998,1,1.7998
			c0.2656,0.7344,0.7656,1.0674,1.5,1C58.1499,60.6348,59.3154,59.001,59.4502,57.2012z M78.8501,70.6006v-3.8994
			c-0.0674-0.1328-0.2344-0.6328-0.5-1.5c-0.1343-0.666-0.4346-0.9658-0.8999-0.9004c-0.0674-0.5332-0.5176-0.7832-1.3501-0.75
			c-0.8345,0.0342-1.3501-0.083-1.5503-0.3496c-0.9341,0.2666-1.7671,0.8672-2.5,1.7998c-0.5996,3-2.5669,6.0342-5.8999,9.0996
			c-4.8672,4.6006-7.4341,7.0674-7.6997,7.4004c0,0.3994-0.3345,0.9502-1,1.6494c-0.6675,0.7002-1,1.2178-1,1.5508
			c0,0.2666,0.0654,0.5,0.1997,0.6992c-0.3999,0.1348-0.4673,0.3174-0.1997,0.5508c0.2656,0.2344,0.1997,0.417-0.2002,0.5498
			c-0.1343,0.3994,0.1328,0.834,0.7998,1.2998l1.9004,0.0996c0.7324,0,1.2324-0.2324,1.5-0.6992
			c0.5327,0.1992,1.0996,0.2998,1.6997,0.2998s1.9331-0.333,4-1c0.6001-0.8662,1.6499-1.6504,3.1499-2.3506
			c1.5-0.6992,2.5503-1.4824,3.1504-2.3496c1.1997-0.1328,2.2656-0.9004,3.1997-2.2998c1.1328-1.7334,2.0659-2.7998,2.8003-3.2002
			c0.3999-0.666,0.4653-1.6328,0.1997-2.9004C78.3828,72.1348,78.4502,71.2012,78.8501,70.6006z"/>
	</g>
</g>
</svg>
