<?xml version="1.0" encoding="utf-8"?>
<!-- Generator: Adobe Illustrator 25.2.1, SVG Export Plug-In . SVG Version: 6.00 Build 0)  -->
<svg version="1.1" id="レイヤー_1" xmlns="http://www.w3.org/2000/svg" xmlns:xlink="http://www.w3.org/1999/xlink" x="0px"
	 y="0px" viewBox="0 0 110 110" style="enable-background:new 0 0 110 110;" xml:space="preserve">
<style type="text/css">
	.st0{fill:#1E1E28;}
</style>
<g>
	<g>
		<path class="st0" d="M100.7012,69.9004c0,8.4678-3.1348,15.8008-9.4004,22c-5.667,5.6006-13.334,9.8662-23,12.8008l-11-10.6006
			L40.4004,99.001c-0.0664-0.5342-0.1992-1.3174-0.3994-2.3506c-0.2002-1.0342-0.3672-1.8164-0.5-2.3496
			c-4.9346,2.1328-9.4346,3.2002-13.5,3.2002c-4.7344,0-8.6006-1.335-11.6006-4c-3.3994-2.9326-5.0996-7-5.0996-12.2002
			c0-7.2656,2.833-14.4326,8.5-21.5c5.1328-6.4004,11.6328-11.6328,19.5-15.7002c0.1328-1.4658,0.2656-3.7002,0.4004-6.7002h-1
			c-5.6006,0-10.8008-0.6328-15.6006-1.8994l2.7002-19.6006c4.7998,1.5352,9.9658,2.3672,15.5,2.5
			c0.4004-4.0654,0.9004-8.0322,1.5-11.8994l19.5996,1c-0.5996,2-1.334,4.7666-2.1992,8.2998
			c4.8652-1.333,9.3652-3.2324,13.5-5.7002l4,17.7002c-5.8672,3.334-12.7676,5.8672-20.7002,7.5996l-0.2998,3.1006
			c2.665-0.4004,5.832-0.6006,9.5-0.6006c1.0654,0,1.8652,0.0352,2.3994,0.1006c0.2002-0.5332,0.4502-1.333,0.75-2.4004
			c0.2998-1.0654,0.5156-1.8652,0.6504-2.3994l17.2002,5.5996c-0.1348,0.4004-0.3506,1-0.6504,1.7998s-0.5176,1.4004-0.6504,1.7998
			c5.2656,2.7344,9.3828,6.5,12.3506,11.3008C99.2168,58.501,100.7012,63.9004,100.7012,69.9004z M37.1006,76.8008
			c-0.334-4.1328-0.5674-8.7002-0.7002-13.7002c-2.667,2.2002-4.7998,4.6006-6.3994,7.2002c-1.4678,2.334-2.2002,4.334-2.2002,6
			c0,1.8672,0.9326,2.7998,2.7998,2.7998C32.2012,79.1006,34.3662,78.335,37.1006,76.8008z M59.6006,54.501H59.001
			c-1.4004,0-3.167,0.167-5.2998,0.5c0,3.8672,0.0322,6.7002,0.0996,8.5C55.8008,60.9678,57.7334,57.9678,59.6006,54.501z
			 M79.4004,69.2012c0-3.1328-1.3672-6-4.0996-8.6006C70.166,69.335,63.7012,77.0352,55.9004,83.7012
			c0.333,1.5996,0.7334,3.167,1.2002,4.6992c6.5332-2.1328,11.7334-4.7324,15.6006-7.7998
			C77.166,77.0684,79.4004,73.2676,79.4004,69.2012z"/>
	</g>
</g>
</svg>
