<?xml version="1.0" encoding="utf-8"?>
<!-- Generator: Adobe Illustrator 25.2.1, SVG Export Plug-In . SVG Version: 6.00 Build 0)  -->
<svg version="1.1" id="レイヤー_1" xmlns="http://www.w3.org/2000/svg" xmlns:xlink="http://www.w3.org/1999/xlink" x="0px"
	 y="0px" viewBox="0 0 110 110" style="enable-background:new 0 0 110 110;" xml:space="preserve">
<style type="text/css">
	.st0{fill:#1E1E28;}
</style>
<g>
	<g>
		<g>
			<path class="st0" d="M95,68.4004c0,8.4678-2.7173,15.2852-8.1499,20.4502c-5.4346,5.166-12.4175,7.75-20.9502,7.75
				c-3.2671,0-6.1001-0.5342-8.5-1.5996c-3.1343-1.4678-4.6997-3.6328-4.6997-6.5c0-1.6006,0.5327-2.9326,1.5996-4
				c1.0659-1.0654,2.3657-1.6006,3.9004-1.6006c1.5327,0,2.8325,0.5,3.8999,1.5c1.0654,1,1.6001,2.2676,1.6001,3.8008
				c0,2.5996-1.3345,4.1338-4,4.5996c1.0654,0.7324,2.7324,1.0996,5,1.0996c6.5996,0,11.7998-2.665,15.5996-8
				C83.7656,81.168,85.5,75.3682,85.5,68.501c0-5.2656-1.2671-9.9326-3.7998-14c-2.6675-4.333-6.3672-7.3662-11.1001-9.1006
				C66,57.668,60.7998,67.835,55,75.9004c-8.4673,11.8008-17.4673,17.7002-27,17.7002c-4.5342,0-8.1343-1.665-10.7998-5
				C14.7329,85.5352,13.5,81.668,13.5,77.001c0-7.2002,2.5654-13.7998,7.7002-19.7998C25.7998,51.8682,31.7329,47.8008,39,45.001
				l-0.5-15.6006H15.2002v-2.7998h23.0996l-0.5-13.0996h9.3003L47.5,26.6006h45.1001v2.7998H47.5l0.1001,12.9004
				c4.5327-0.9326,8.8999-1.4004,13.1001-1.4004c2.7998,0,5.4326,0.2676,7.8999,0.8008c0.5327-2,1.2329-4.333,2.1001-7
				l3.0996,0.7998c-0.667,1.667-1.3672,3.8994-2.0996,6.7002c7.1328,1.5996,12.6997,4.5342,16.6997,8.7998
				C92.7998,55.6006,95,61.4004,95,68.4004z M40.3999,86.501l-1.2998-38.5c-6.4673,2.5342-11.7344,6.2666-15.8003,11.2002
				c-4.4668,5.334-6.6997,11.2666-6.6997,17.7998c0,3.667,0.9653,6.834,2.8999,9.5c2.1328,2.9346,4.9658,4.3994,8.5,4.3994
				C32.333,90.9004,36.4658,89.4355,40.3999,86.501z M67.5,44.501c-2-0.6006-4.2671-0.9004-6.7998-0.9004
				c-3.8003,0-8.0674,0.5-12.8003,1.5L48.5,78.9004C55.9658,70.835,62.2998,59.3682,67.5,44.501z"/>
		</g>
	</g>
</g>
</svg>
