<?xml version="1.0" encoding="utf-8"?>
<!-- Generator: Adobe Illustrator 25.2.1, SVG Export Plug-In . SVG Version: 6.00 Build 0)  -->
<svg version="1.1" id="レイヤー_1" xmlns="http://www.w3.org/2000/svg" xmlns:xlink="http://www.w3.org/1999/xlink" x="0px"
	 y="0px" viewBox="0 0 110 110" style="enable-background:new 0 0 110 110;" xml:space="preserve">
<style type="text/css">
	.st0{fill:#1E1E28;}
</style>
<g>
	<g>
		<g>
			<path class="st0" d="M94.0996,68.0996c0,8.5342-2.8672,15.3994-8.5996,20.5996c-5.4004,4.7998-12.0674,7.2002-20,7.2002
				c-3.5342,0-6.4004-0.6006-8.5996-1.7998c-2.4004-1.333-3.6006-3.166-3.6006-5.5c0-1.2656,0.4658-2.3008,1.4004-3.1006
				c0.9326-0.7998,1.9658-1.2002,3.0996-1.2002c1.333,0,2.416,0.4346,3.25,1.3008c0.833,0.8672,1.25,1.8994,1.25,3.0996
				c0,1.4004-0.7002,2.5996-2.0996,3.5996c1.0654,0.6006,2.5322,0.9004,4.3994,0.9004c5.9336,0,10.9658-2.0996,15.1006-6.2998
				C84.2324,82.2334,86.5,76.1338,86.5,68.5996c0-11.8008-5.2676-19.4004-15.7998-22.8008C66.2324,58.0664,61,68.1992,55,76.1992
				c-8.2002,10.9346-16.9004,16.4004-26.0996,16.4004c-4.1348,0-7.5176-1.416-10.1504-4.25
				c-2.6348-2.833-3.9502-6.6504-3.9502-11.4502c0-6.6006,2.3506-12.7832,7.0498-18.5498
				c4.7002-5.7656,10.9834-10.1504,18.8506-13.1504L40.0996,29.999H16.4004v-2.7998H40l-0.5-12.9004h7.0996l0.3008,12.9004h45.2998
				v2.7998H46.9004l0.3994,13.2002c3.7998-1,8.3662-1.5,13.7002-1.5c2.666,0,5.2324,0.2002,7.7002,0.5996
				c0.9326-2.7998,1.6328-5.1992,2.0996-7.1992l3,0.7998c-0.7998,2.9346-1.5,5.2344-2.0996,6.8994
				C86.6328,46.9336,94.0996,55.3662,94.0996,68.0996z M42.0996,85.1992l-1.2998-37.0996
				c-7.0674,2.7998-12.6846,6.8164-16.8496,12.0498c-4.167,5.2344-6.25,10.8174-6.25,16.75c0,3.7998,1.0654,6.917,3.2002,9.3496
				c2.1328,2.4346,4.7998,3.6504,8,3.6504C33.4326,89.8994,37.833,88.334,42.0996,85.1992z M67.7998,45.0996
				C65.5996,44.5664,63.333,44.2988,61,44.2988c-4.5996,0-9.1348,0.5674-13.5996,1.7002l0.8994,33.7998
				C56.0332,71.5332,62.5332,59.9668,67.7998,45.0996z"/>
		</g>
	</g>
</g>
</svg>
