<?xml version="1.0" encoding="utf-8"?>
<!-- Generator: Adobe Illustrator 25.2.1, SVG Export Plug-In . SVG Version: 6.00 Build 0)  -->
<svg version="1.1" id="レイヤー_1" xmlns="http://www.w3.org/2000/svg" xmlns:xlink="http://www.w3.org/1999/xlink" x="0px"
	 y="0px" viewBox="0 0 110 110" style="enable-background:new 0 0 110 110;" xml:space="preserve">
<style type="text/css">
	.st0{fill:#1E1E28;}
</style>
<g>
	<g>
		<g>
			<path class="st0" d="M96.1001,68.4004c0,8.4678-2.7847,15.3008-8.3501,20.5c-5.5674,5.2002-12.6172,7.8008-21.1499,7.8008
				c-3.8003,0-7.1001-0.7344-9.8999-2.2002C53.2329,92.7012,51.5,90.0684,51.5,86.6006c0-2.1328,0.7329-3.9502,2.2002-5.4502
				c1.4653-1.5,3.2656-2.25,5.3999-2.25c2.1328,0,3.9653,0.6504,5.5,1.9502c1.5327,1.2998,2.2998,3.0176,2.2998,5.1504
				c0,2-0.8672,3.6338-2.6001,4.8994c-1.7344,1.2676-3.5996,1.8008-5.5996,1.6006c2,0.9326,3.9326,1.3994,5.7998,1.3994
				c6.0654,0,10.6001-3.0654,13.6001-9.1992c2.3999-4.666,3.6001-10.3662,3.6001-17.1006c0-4.665-1-9-3-13
				c-2.2002-4.3994-5.2344-7.5654-9.1001-9.5C64.7998,57.501,59.6001,67.7354,54,75.8008
				c-8.5342,12.4004-17.3345,18.5996-26.3999,18.5996c-4.8672,0-8.6343-1.9326-11.3003-5.7998c-2.334-3.3994-3.5-7.5996-3.5-12.5996
				c0-6.666,2.333-12.9004,7-18.7002c4.1328-5.2656,9.5-9.3652,16.1001-12.2998l-0.5-15.6006H14.5v-2.7998h20.7002l-0.5-13.0996
				h14.0996l0.1001,13.0996h42.8003v2.7998H48.8999l0.3003,11.7002C51.9326,40.3682,55.5327,40.001,60,40.001
				c2.6001,0,5.2656,0.2002,8,0.5996c0.2002-0.7324,0.5156-1.7998,0.9502-3.2002c0.4326-1.3994,0.75-2.4326,0.9497-3.0996
				L73,35.2012c-0.3999,1.334-1.0342,3.2998-1.8999,5.8994c7.5327,1.5342,13.5,4.5342,17.8999,9
				C93.7329,54.9004,96.1001,61.001,96.1001,68.4004z M37.2998,88.1006L36,48.2012c-5.7998,2.8672-10.5,6.5996-14.1001,11.1992
				c-4.0669,5.1348-6.1001,10.668-6.1001,16.6006c0,4.0674,0.9331,7.5342,2.8003,10.3994c2.1328,3.335,5.1655,5,9.1001,5
				C30.8999,91.4004,34.1001,90.3008,37.2998,88.1006z M66.8999,43.9004c-2.1343-0.5996-4.5669-0.8994-7.2998-0.8994
				c-5.1343,0-8.6001,0.2998-10.3999,0.8994l0.5996,32.4004C55.5327,69.168,61.2329,58.3682,66.8999,43.9004z"/>
		</g>
	</g>
</g>
</svg>
