<?xml version="1.0" encoding="utf-8"?>
<!-- Generator: Adobe Illustrator 25.2.1, SVG Export Plug-In . SVG Version: 6.00 Build 0)  -->
<svg version="1.1" id="レイヤー_1" xmlns="http://www.w3.org/2000/svg" xmlns:xlink="http://www.w3.org/1999/xlink" x="0px"
	 y="0px" viewBox="0 0 110 110" style="enable-background:new 0 0 110 110;" xml:space="preserve">
<style type="text/css">
	.st0{fill:#1E1E28;}
</style>
<g>
	<g>
		<g>
			<path class="st0" d="M92.2002,71.3994c0,0.7344-0.1006,1.334-0.2998,1.7998c0.0654,0.8672-0.1348,1.834-0.6006,2.9004
				c-0.5342,1.2666-0.834,2.1494-0.8994,2.6494c-0.0674,0.5-0.4346,1.25-1.1006,2.25c-0.334,0.8672-0.7168,1.7998-1.1494,2.7998
				c-0.4346,1-0.9844,1.7002-1.6504,2.1006c-0.7998,0.7344-1.9004,1.9346-3.2998,3.5996c-0.2002,0.667-0.9678,1.3672-2.2998,2.1006
				c-0.4004,0.3994-1.1006,1-2.1006,1.7998c-1,0.3994-1.75,0.915-2.25,1.5498c-0.5,0.6328-1.0498,1.0332-1.6494,1.2002
				c-0.6006,0.165-1.2002,0.3154-1.8008,0.4502c-0.5996,0.2656-1.1836,0.1992-1.75-0.2002c-0.5664-0.4004-0.8164-1.0674-0.75-2
				c0.0664-1.0674,0.666-2,1.8008-2.7998c0.8652-0.2002,1.8994-0.7656,3.0996-1.7002c1.2002-0.9326,2.1328-1.5332,2.7998-1.7998
				c0.7334-0.666,1.1006-1.0664,1.1006-1.2002c2.5322-2.1328,4.3994-4.6006,5.5996-7.4004c0.4658-0.665,0.9326-1.5996,1.4004-2.7998
				c0.5996-1.7998,0.9326-2.7656,1-2.9004c-0.2002-0.4648-0.2002-1,0-1.5996c0.1992-0.4658,0.3994-0.9326,0.5996-1.4004
				c0.2002-0.9326,0.1328-2.7998-0.2002-5.5996c-0.0674-0.4658-0.0342-0.9658,0.1006-1.5c-0.335-0.4658-0.7852-1.6328-1.3506-3.5
				c-0.5674-1.8652-1.2842-3.5332-2.1494-5c-0.4678-0.2656-1.0674-0.8652-1.8008-1.7998c-0.4668-0.666-0.9336-1.2998-1.3994-1.9004
				C80,50.8994,78.0996,49.7334,75.5,47.999c-1.0674-0.5322-2.7344-1.1328-5-1.7998c-1.7344,0-4.2676-0.2324-7.5996-0.7002
				c-2.1348,0.0674-5.2676,0.5342-9.4004,1.4004c-0.8672,0.1338-1.4346,0.2344-1.7002,0.2998c-0.5342,0.2002-1,0.5-1.3994,0.9004
				c0.0654,1.5996-0.0674,3.9668-0.4004,7.0996c0.333,4.5342,0.4326,7.2344,0.2998,8.0996c0.333,0.668,0.4326,1.7344,0.2998,3.2002
				c-0.1338,1.4678-0.0664,2.5,0.2002,3.1006c0.5332,0.1338,1.1504-0.3008,1.8506-1.3008c0.6992-1,1.582-2.165,2.6494-3.5
				c0.4658-0.1328,0.9004-0.7822,1.2998-1.9492c0.4004-1.166,1-1.9502,1.8008-2.3506c0.5996-1.0654,1.8994-2.833,3.8994-5.2998
				c0-0.333,0.2656-0.833,0.7998-1.5c0.5332-0.666,0.8662-1.2656,1-1.7998c0.333-1.2002,1.166-1.5,2.5-0.9004
				c1.0664,0.5342,1.666,1.2002,1.8008,2c0.0654,0.6006-0.25,1.25-0.9502,1.9502s-1.0498,1.25-1.0498,1.6504
				c-0.5352,0.8672-1.2852,1.8838-2.25,3.0498c-0.9678,1.167-1.7178,2.1846-2.25,3.0498c-1,0.9346-2.1006,2.2002-3.3008,3.7998
				c-0.334,0.7344-1.0664,1.9004-2.1992,3.5c-1.335,2.1348-3.168,4.0674-5.5,5.7998c0.3994,1.8672,0.5996,4.335,0.5996,7.4004
				c0.2002,0.2676,0.2656,0.667,0.2002,1.2002c-0.0674,0.5342,0.0322,0.9668,0.2998,1.2998v2.2998c0,0.9346-0.4346,1.6006-1.2998,2
				c-0.4004,0.2002-1.0498,0.085-1.9502-0.3496c-0.9004-0.4326-1.3848-1.3154-1.4502-2.6504
				c-0.0674-2.2002-0.1338-3.3994-0.2002-3.5996V81.499c0-1-0.1338-1.5-0.3994-1.5c-0.2002,0-0.4346,0.2344-0.7002,0.7002
				c-0.2676,0.4668-0.4668,0.7344-0.5996,0.7998C44.4658,82.0996,44,82.4336,44,82.499c-0.0674,0.335-0.4346,0.835-1.0996,1.5
				l-3.3008,2.5c-1,1.1348-2.1172,1.9502-3.3496,2.4502c-1.2344,0.5-2.4502,0.9502-3.6504,1.3496
				c-0.5342,0.4678-1.1992,0.7002-2,0.7002c-0.5342,0-1.3838-0.1328-2.5498-0.3994c-1.167-0.2656-2.0498-0.4004-2.6494-0.4004
				c-0.8008-0.5332-1.8008-1.4326-3-2.7002c-0.6006-1.0654-1.335-2.8994-2.2002-5.5c0-5.665,0.0654-8.8994,0.2002-9.7002
				c0.1328-0.7998,0.5654-1.9326,1.2998-3.3994c-0.0674-0.7334,0.25-1.75,0.9502-3.0498c0.6992-1.3008,1.0498-2.3506,1.0498-3.1504
				c0.665-1.0654,1.7998-2.5654,3.3994-4.5c-0.0664-0.7324,0.2656-1.166,1-1.2998c1-0.7998,2.2334-2.0654,3.7002-3.7998
				c1.9326-1.1328,4.7656-3.1328,8.5-6c0.8662,0.1992,1.4326,0.0342,1.7002-0.5c0.1328-0.1328,1-0.5332,2.5996-1.2002
				c1.1328-0.4658,1.7334-1.0332,1.8008-1.7002c0.0654-0.333-0.0674-0.7324-0.4004-1.2002c0.2656-0.7324,0.3154-1.8994,0.1504-3.5
				c-0.168-1.5996-0.085-2.833,0.25-3.7002c-0.1348-0.332-0.2002-1.0654-0.2002-2.1992c0-0.6006-0.1006-1-0.2998-1.2002
				c-1.5352,0.0674-3.8672,0.167-7,0.2998c-4.2002,0.2676-7.0352,0.2998-8.5,0.0996c-0.7344,0.4004-1.9502,0.6172-3.6504,0.6504
				c-1.7002,0.0342-2.8174,0.1504-3.3496,0.3496c-2.1348-0.1328-3.0352-1.0996-2.7002-2.8994
				c0.2656-1.4004,1.2002-2.1006,2.7998-2.1006c0.2656,0,0.75,0.0352,1.4502,0.1006c0.7002,0.0674,1.2158,0.0996,1.5498,0.0996
				c2.666-0.4658,4.6328-0.5654,5.9004-0.2998c1.5996,0.334,3.165,0.2344,4.6992-0.2998c1.1328,0.1338,2.666,0.0996,4.6006-0.1006
				c3-0.2656,4.5322-0.3994,4.5996-0.3994c0.2656-0.4658,0.333-1.25,0.2002-2.3506c-0.1348-1.0996-0.0996-1.8496,0.0996-2.25
				c0.1328-1.2656,0.166-1.9326,0.1006-2c-0.2676-2.3994-0.2344-4.1992,0.0996-5.3994c0.333-1.2002,1.1006-1.7998,2.2998-1.7998
				c0.8662,0,1.416,0.0996,1.6504,0.2998c0.2324,0.2002,0.5156,0.7666,0.8496,1.7002c0.2002,0.4668,0.1006,1.3994-0.2998,2.7998
				c-0.1338,0.4668-0.0996,1.167,0.1006,2.0996c-0.6006,1.335-0.7002,2.6006-0.3008,3.7998c-0.3994,0.2676-0.5664,0.6006-0.5,1
				c0.1328,0.4004,0.2656,0.8008,0.4004,1.2002c0.0654,0.4678,0.0654,0.7998,0,1c0.5996,0,1.333,0.0342,2.2002,0.1006
				c2.0654-0.2656,6.2002-0.5332,12.3994-0.8008c1.6006-0.1328,3.2002-0.2656,4.8008-0.3994
				c2.665-0.2002,4.2998-0.166,4.8994,0.0996c1.1328-0.1328,2.8662-0.3652,5.2002-0.7002c1.8652-0.332,3.2324-0.4648,4.0996-0.3994
				c1.6006,0.1338,2.666,0.7666,3.2002,1.8994c0.2002,0.335,0.2998,0.668,0.2998,1c0,1-1,1.8008-3,2.4004
				c-0.7344,0.2002-1.834,0.2676-3.2998,0.2002c-1.1338-0.1328-2.2666-0.2334-3.3994-0.2998c-0.335,0-0.835,0.0342-1.5,0.0996
				c-0.668,0.0674-1.1348,0.0996-1.4004,0.0996c-1.0674-0.0654-2.6348-0.0322-4.7002,0.1006c-2.0674,0.1338-5.167,0.2998-9.2998,0.5
				c-0.1348,0-0.7002,0.1338-1.7002,0.3994c-0.667,0.1348-1.2998,0.1006-1.8994-0.0996c-1.6006-0.2002-4-0.0996-7.2002,0.2998
				c-0.1348,1.0674-0.2344,2.4346-0.2998,4.1006c-0.0674,1.3994-0.0674,2.2344,0,2.5c0.1992,0.7998,0.1992,2.0664,0,3.7998
				c0.0654,0.2666,0.1992,0.5996,0.3994,1c0.666,0.0674,1.4658-0.1006,2.4004-0.5c0.9326-0.4004,1.7002-0.6006,2.2998-0.6006
				c0.333,0,0.7002,0.0352,1.0996,0.1006c0.333-0.2656,0.7832-0.333,1.3506-0.2002c0.5654,0.1348,1.0498,0,1.4502-0.4004
				c0.3994,0.2676,0.832,0.335,1.2998,0.2002c0.3994-0.0654,0.7998-0.165,1.2002-0.2998c2.0654-0.1328,4.4648,0,7.1992,0.4004
				c2.4004,0.4668,4.8008,0.8994,7.2002,1.2998c0.4004,0.3994,1.3662,0.9346,2.9004,1.5996c1.5322,0.667,2.5,1.2998,2.8994,1.9004
				c2.333,1.3994,4,3.1338,5,5.2002c1.1328,1.1992,2.1328,2.9336,3,5.1992c0.6006,1.5352,1.2002,3.1006,1.8008,4.7002
				c0.7324,3.667,0.7998,6.2676,0.1992,7.7998c0,0.1348,0.0332,0.4004,0.1006,0.8008
				C92.2002,70.9336,92.2002,71.1992,92.2002,71.3994z M46.7998,68.6992c-0.4668-0.666-0.5342-1.7998-0.2002-3.4004
				c0.333-1.5996,0.166-2.7656-0.5-3.5c0.4004-0.9326,0.4004-2.9326,0-6C46.3652,55.5332,46.333,53.9336,46,50.999
				c0.1328-0.5322,0.2002-1.0996,0.2002-1.7002c-1.2002,0.4004-2.8672,1.3008-5,2.7002C39.0654,53.3994,37.5,54.2988,36.5,54.6992
				c-0.7344,0.4668-1.5,1.1348-2.2998,2c-1.8672,1.334-3.2998,2.9346-4.2998,4.7998c-0.4678,0.335-0.9502,1-1.4502,2
				s-0.8848,1.6006-1.1504,1.7998c-0.334,0.5352-0.8994,1.9004-1.7002,4.1006l-0.6992,4.2998c-0.4004,0.5996-0.6006,1.2676-0.6006,2
				c0,0.4004,0.0498,0.9668,0.1504,1.7002c0.0996,0.7344,0.1494,1.2666,0.1494,1.5996c0,0.4004-0.0342,0.7676-0.0996,1.1006
				c0.2656,1,0.7998,2.3994,1.5996,4.1992c0.333,0.8672,1.6328,1.4678,3.9004,1.8008c0.7998-0.1328,2-0.3662,3.5996-0.7002
				c0.666-0.666,1.9004-1.4326,3.7002-2.2998c0.5332-0.5332,1.333-1.166,2.4004-1.9004c0.665-0.666,3-3.2656,7-7.7998
				C46.7002,72.334,46.7324,70.7666,46.7998,68.6992z"/>
		</g>
	</g>
</g>
</svg>
