<?xml version="1.0" encoding="utf-8"?>
<!-- Generator: Adobe Illustrator 25.2.1, SVG Export Plug-In . SVG Version: 6.00 Build 0)  -->
<svg version="1.1" id="レイヤー_1" xmlns="http://www.w3.org/2000/svg" xmlns:xlink="http://www.w3.org/1999/xlink" x="0px"
	 y="0px" viewBox="0 0 110 110" style="enable-background:new 0 0 110 110;" xml:space="preserve">
<style type="text/css">
	.st0{fill:#1E1E28;}
</style>
<g>
	<g>
		<g>
			<path class="st0" d="M93.2002,69.8994c0.0654,1.1338-0.1001,2.2666-0.5,3.3994c0.0654,0.8672-0.1348,1.835-0.6001,2.9004
				c-0.6001,1.334-0.9502,2.2842-1.0503,2.8496c-0.0996,0.5674-0.4341,1.3672-1,2.4004c-0.5669,1.0342-1.584,2.6172-3.0498,4.75
				c-0.7344,0.7998-1.7671,2-3.1001,3.5996c-0.2671,0.6006-0.7671,1.168-1.5,1.7002c-1.1343,0.7998-1.8169,1.3174-2.0498,1.5498
				c-0.2344,0.2334-0.6172,0.583-1.1499,1.0508c-0.4004,0.1328-1.1001,0.5996-2.1001,1.3994
				c-0.6001,0.666-1.2002,1.0654-1.8003,1.2002c-0.5996,0.1328-1.2344,0.2656-1.8999,0.4004
				c-0.2671,0.0654-0.5669,0.0996-0.8999,0.0996c-1.8672,0-2.7998-0.7002-2.7998-2.0996c0-0.2676,0.0327-0.5352,0.0996-0.8008
				c-0.0669-1.1338,0.7002-2.2656,2.3003-3.3994c0.6001-0.1328,2.25-1.2334,4.9497-3.2998c2.7002-2.0664,4.75-4.2002,6.1504-6.4004
				c0.7324-1.2002,1.8652-3.666,3.3999-7.4004c-0.1343-0.332-0.1001-0.7998,0.1001-1.3994
				c0.1997-0.6006,0.3999-1.2002,0.5996-1.7998C87.5,69.666,87.5654,68.5332,87.5,67.1992
				c-0.1343-1.0654-0.2671-2.166-0.3999-3.2998c-0.6001-1.8662-1.6675-4.6328-3.2002-8.2998
				c-0.5342-0.333-1.1001-0.8662-1.6997-1.6006c-0.7344-1-1.2344-1.6328-1.5-1.8994c-1-0.666-2.5347-1.833-4.6001-3.5
				c-1.3345-0.5332-3.2344-1.1328-5.7002-1.8008c-1.7344-0.0654-4.2671-0.2324-7.6001-0.5c-0.8672,0-2.3999,0.1006-4.5996,0.3008
				c-3.8672,0.4668-6.2344,1.0996-7.1001,1.8994c0,1.0674-0.0845,2.6006-0.25,4.6006c-0.1675,2-0.1846,3.3994-0.0503,4.1992
				c0.333,2.6006,0.4331,4.5674,0.3003,5.9004c0.2656,0.667,0.3325,1.5996,0.1997,2.7998c-0.1343,1.335-0.1343,2.2676,0,2.7998
				c0.7329-1.1992,1.8657-2.7656,3.4004-4.6992c0.4653-0.1328,0.9326-0.7656,1.3999-1.9004
				c0.4653-1.1328,1.0654-1.9004,1.7998-2.2998c0.7329-1.1328,1.9658-2.7998,3.7002-5c0.4653-0.666,1.0654-1.7334,1.7998-3.2002
				c0.4658-1.0654,1.2329-1.5996,2.3003-1.5996c0.7998,0,1.5498,0.2666,2.25,0.7998c0.6997,0.5342,1.0825,1.2002,1.1499,2
				c0.0654,0.8672-0.2344,1.6494-0.8999,2.3496c-0.6675,0.7002-1,1.2178-1,1.5498c-0.8003,1.0674-2,2.6348-3.6001,4.7002
				c-0.2002,0.4004-0.5674,0.9678-1.1001,1.7002c-0.2671,0.2676-0.667,0.6348-1.2002,1.0996
				c-1.1997,1.2676-2.2344,2.7002-3.0996,4.3008c-2.7344,3.3994-4.9004,5.8994-6.5,7.5c0,0.5342,0.0327,1.3164,0.0996,2.3496
				C51.8657,79.4834,51.9326,80.999,52,82.999c0,0.667,0.1655,1.5,0.5,2.5c-0.0674,0.335-0.0674,0.7344,0,1.2002
				c0.1328,0.667,0.2002,1.0996,0.2002,1.2998c0,1.8672-0.8672,2.7998-2.6001,2.7998c-0.3999,0-0.7671-0.0654-1.1001-0.1992
				c-1.3999-0.5332-2.167-1.5-2.2998-2.9004c-0.1348-1.4004-0.2344-2.7656-0.3003-4.0996c-0.1343-0.666-0.167-1.333-0.1001-2
				c-0.1343,0.1992-0.6997,0.6338-1.6997,1.2998c-0.2671,0.5996-1.7671,2-4.5,4.2002c-0.4673,0.4668-1.2671,1.0664-2.3999,1.7998
				c-1.0674,0.334-2.6348,1-4.7002,2c-0.9346,0.3994-1.8999,0.5996-2.8999,0.5996c0.1328,0-1.5347-0.2998-5-0.8994
				c-1-0.6006-2.2002-1.6328-3.6001-3.1006c-0.4673-0.9326-1.1343-2.7002-2-5.2998c0-0.5332-0.0342-1.666-0.1001-3.4004
				c-0.0669-1.4648-0.0669-2.6328,0-3.5c0-1.2656,0.1328-2.3994,0.3999-3.3994c0.0659-0.7334,0.4331-1.833,1.1001-3.2998
				c0-0.7334,0.3828-1.7656,1.1499-3.1006c0.7656-1.333,1.1504-2.3652,1.1504-3.0996c0.7324-1.0654,1.8652-2.5654,3.3999-4.5
				c0.1997-0.8662,0.5327-1.4004,1-1.6006c0.1997-0.1992,0.8657-0.7324,2-1.5996c0.8657-0.666,1.3657-1.333,1.5-2
				c2-1.1328,4.8657-3.0996,8.6001-5.9004c0.7998,0.2676,1.3652,0.0352,1.6997-0.6992c0.0659-0.0664,0.8657-0.4658,2.3999-1.2002
				c1.333-0.6006,1.9658-1.0332,1.9004-1.2998c-0.0674-0.6006-0.2002-1.2656-0.4004-2c0.333-0.8662,0.4004-2.1006,0.2002-3.7002
				c-0.2002-1.6006-0.167-2.7998,0.1001-3.6006c-0.1343-0.332-0.1675-1.1992-0.1001-2.5996c-1.667,0.0674-4.167,0.167-7.5,0.2998
				c-0.0674,0-1.2998,0.1348-3.7002,0.4004C32.7656,32.5996,31.5,32.6338,30.5,32.499c-1.667,0.4004-4.0342,0.6006-7.1001,0.6006
				c-2.3345,0-3.5-1.1006-3.5-3.3008c0-1.665,1.0327-2.5996,3.1001-2.7998c0.7329,0,1.8657,0,3.3999,0
				c3.0659-0.2002,5.1001-0.2324,6.1001-0.0996c1.2656,0.2002,2.7656,0,4.5-0.6006c1.2002,0.1348,2.6328,0.1006,4.2998-0.0996
				c2.7329-0.333,4.1328-0.5,4.2002-0.5c-0.0674-0.666-0.0342-1.7002,0.1001-3.0996c0.2656-1.2656,0.2329-2.0664-0.1001-2.4004
				c-0.1343-1-0.1343-2.166,0-3.5c0.2002-2.4658,1.2998-3.7324,3.2998-3.7998c1,0,1.666,0.1338,2,0.3994
				c0.333,0.2676,0.666,0.9346,1,2C51.9326,15.7666,52,16.2334,52,16.6992c0,0.4668-0.0845,1.0498-0.25,1.75
				c-0.167,0.7002-0.25,1.1504-0.25,1.3496c0,0.2676,0.0654,0.4678,0.2002,0.6006c-0.2676,1.334-0.3672,2.3994-0.3003,3.2002
				c-0.0669,0.1338-0.0342,0.8994,0.1001,2.2998c3.2002-0.2002,7.8999-0.4658,14.1001-0.7998c0.0654,0,1.5654-0.166,4.5-0.5
				c1.9326-0.2002,3.3657-0.166,4.2998,0.0996c3.8003-0.666,7.2329-1,10.3003-1c1,0,1.9497,0.334,2.8496,1
				c0.9004,0.667,1.3159,1.5,1.25,2.5c-0.1343,1.4004-1.2998,2.4004-3.5,3c-0.7344,0.2002-3.0342,0.2344-6.8999,0.0996
				c-2.5342-0.0654-5.0342,0.0674-7.5,0.4004c-2.0669-0.0654-5.1997,0-9.3999,0.2002c-0.1343,0-0.7344,0.1338-1.7998,0.3994
				c-0.6675,0.2002-1.3003,0.2002-1.9004,0c-1.4668,0-3.5996,0.168-6.3999,0.5C51.0654,34.3994,51,36.666,51.2002,38.5996
				c0.1997,0.7344,0.1997,2,0,3.7998c0.1328,0.4668,0.3999,0.5342,0.7998,0.2002c1.7329-0.6006,3.2002-0.9336,4.3999-1
				c0.333-0.2002,0.7827-0.2656,1.3501-0.2002c0.5654,0.0674,1.083-0.1328,1.5498-0.6006c0.4004,0.2676,1.2329,0.335,2.5,0.2002
				c0.666-0.0654,1.4004-0.0996,2.2002-0.0996c1.7329,0,3.8657,0.2344,6.3999,0.7002c2.1328,0.334,4.2329,0.6992,6.3003,1.0996
				c0.4653,0.4004,1.4653,0.9346,3,1.5996c1.3325,0.6006,2.2998,1.2676,2.8999,2c3.1328,1.9346,5.8657,5.3008,8.1997,10.1006
				C92.6001,60.0664,93.5,63.666,93.5,67.1992C93.5,68.1992,93.3999,69.0996,93.2002,69.8994z M46,74.0996
				c-0.0674-1.2656-0.0674-3,0-5.2002c-0.3999-0.8662-0.5171-2.1162-0.3501-3.75c0.1655-1.6328,0.1157-2.7158-0.1499-3.25
				c0.2656-1.2656,0.2002-3.4004-0.2002-6.4004c0-1.333,0.0332-3.1328,0.1001-5.3994c-0.1997,0.0664-2.1997,1.2666-6,3.5996
				c-0.5342,0.4004-1.3672,0.9502-2.5,1.6504c-1.1343,0.6992-1.8345,1.3164-2.1001,1.8496c-0.667,0.4668-1.4668,1.2998-2.3999,2.5
				c-0.9341,1.2002-1.6001,2-2,2.4004c-1.5342,1.4668-2.7344,3.6992-3.6001,6.6992c-0.2671,0.8672-0.6343,2.2676-1.0996,4.2002
				c-0.8672,1.667-0.9673,4.2998-0.3003,7.9004c0.3999,0.5996,0.7002,1.3994,0.8999,2.3994
				c0.1328,0.6006,0.5332,1.0674,1.2002,1.4004c0.6655,0.334,1.4658,0.5674,2.3999,0.7002
				c0.8003-0.0654,1.9331-0.2998,3.3999-0.7002c0.6001-0.5996,1.833-1.2998,3.7002-2.0996
				C39.3999,81.0664,42.3999,78.2334,46,74.0996z"/>
		</g>
	</g>
</g>
</svg>
