<?xml version="1.0" encoding="utf-8"?>
<!-- Generator: Adobe Illustrator 25.2.1, SVG Export Plug-In . SVG Version: 6.00 Build 0)  -->
<svg version="1.1" id="レイヤー_1" xmlns="http://www.w3.org/2000/svg" xmlns:xlink="http://www.w3.org/1999/xlink" x="0px"
	 y="0px" viewBox="0 0 110 110" style="enable-background:new 0 0 110 110;" xml:space="preserve">
<style type="text/css">
	.st0{fill:#1E1E28;}
</style>
<g>
	<g>
		<g>
			<path class="st0" d="M93.7002,70.499c0.0654,1.6006-0.167,3.167-0.7002,4.7002c-0.4004,2.9346-1.2676,5.334-2.5996,7.2002
				c-0.7344,1.9346-2.2676,4.167-4.6006,6.7002c-1.2002,1.0664-3,2.6992-5.3994,4.8994c-1.9346,1.8662-3.8008,3.2334-5.6006,4.1006
				c-0.667,0.4648-1.4668,0.6992-2.3994,0.6992c-1.4678,0-2.6348-0.5342-3.5-1.5996c-0.4004-0.5342-0.6006-1.2998-0.6006-2.2998
				c0-1.4004,0.333-2.333,1-2.7998c0.4004-0.2656,1.0654-0.7002,2-1.3008c1.333-0.665,3.0332-1.7656,5.1006-3.2998
				c2.332-1.7998,4.2324-3.8652,5.6992-6.2002c1.666-2.5996,2.7334-4.9326,3.2002-7c0.2002-0.7998,0.4658-1.9326,0.7998-3.3994
				c0.0664-0.666,0-2.7656-0.1992-6.2998c-0.668-3.4004-1.6348-6.0332-2.9004-7.9004c-0.667-0.8652-1.7344-2.1328-3.2002-3.7998
				c-0.1338-0.0654-1.667-1.1328-4.5996-3.2002c-1.2676-0.5332-3.0674-1.0996-5.4004-1.7002
				c-4.2002-0.3994-6.7002-0.5996-7.5-0.5996c-0.8672,0.0674-2.3496,0.2344-4.4502,0.5c-2.0996,0.2666-3.8164,0.6338-5.1494,1.0996
				c-0.667,0.2002-1.085,0.3848-1.25,0.5498c-0.167,0.168-0.25,0.5674-0.25,1.2002c0,0.6348-0.0342,1.6504-0.1006,3.0498
				c-0.0664,0.668-0.0342,1.9678,0.1006,3.9004v5.9004c0.0654,0.2666,0.0996,0.8994,0.0996,1.8994
				c0.0654,0.4004,0.2656,0.6006,0.6006,0.6006c0.332,0.0664,0.5654-0.0664,0.6992-0.4004c0.4658-0.7324,1-1.333,1.6006-1.7998
				c0.2656-0.0654,0.6826-0.6162,1.25-1.6504c0.5654-1.0322,1.1494-1.8154,1.75-2.3496c0.5996-1.1328,1.665-2.7656,3.2002-4.9004
				c0.4648-0.665,1.0322-1.7002,1.6992-3.0996c0.666-1.4004,1.7002-2.1006,3.1006-2.1006c1,0,1.9502,0.3848,2.8496,1.1504
				c0.9004,0.7676,1.3506,1.6846,1.3506,2.75c0,0.8672-0.3174,1.6504-0.9502,2.3496C67.8154,56.749,67.5,57.2334,67.5,57.499
				c-1,1.2002-2.4346,3.1006-4.2998,5.7002c-0.2676,0.4668-0.8174,1.167-1.6504,2.0996c-0.834,0.9346-1.917,2.335-3.25,4.2002
				c-1.1338,1.4004-2.8672,3.4678-5.2002,6.2002C52.2998,76.834,51.9326,77.9336,52,78.999c0.1328,0.9346,0.2998,2.3672,0.5,4.2998
				c0.333,0.668,0.5,2.4004,0.5,5.2002c0,2.4004-1.167,3.5674-3.5,3.5c-2.4004-0.0654-3.7344-1.165-4-3.2998
				c-0.0674-0.5332-0.0996-1.5996-0.0996-3.2002c0-0.9326-0.168-1.3994-0.5-1.3994c-0.1348,0-0.3008,0.0996-0.5,0.2998
				c-1.5352,1.5342-2.9678,2.7998-4.3008,3.7998c-1.8672,1.4004-3.3672,2.3672-4.5,2.9004c-0.7344,0.2666-1.7344,0.667-3,1.1992
				c-3.0664,0.8008-5.7998,0.6348-8.1992-0.5c-3.2676-2-5.2676-5-6-9c-0.668-3.7324-0.6006-7.2998,0.1992-10.6992
				c0.1328-1,0.5-2.4004,1.1006-4.2002c0.1328-0.7998,0.5156-1.75,1.1494-2.8506c0.6328-1.0996,1.0156-1.915,1.1504-2.4492
				c1.4004-2,3-4.1328,4.7998-6.4004c0.8662-0.7324,1.9658-1.8652,3.2998-3.4004c2.2002-1.5322,5.166-3.5996,8.9004-6.1992
				c1.1328-0.4658,2.4658-1.0664,4-1.8008c0.8652-0.4648,1.2998-1.0996,1.2998-1.8994c0.0654-0.8662,0-1.9004-0.2002-3.1006
				c0.2002-0.5996,0.2656-1.332,0.2002-2.1992c-0.0674-1.4004-0.0996-2.2656-0.0996-2.6006c0-0.5996-0.085-1.0654-0.25-1.3994
				c-0.167-0.333-0.585-0.4658-1.25-0.4004c-1.8672,0.0674-3.7344,0.167-5.6006,0.2998c-3.667,0.2676-6.0342,0.3672-7.0996,0.2998
				c-2,0.335-4.3672,0.5-7.0996,0.5c-2.335,0-3.7344-1.0322-4.2002-3.0996c-0.1348-2.7998,0.8994-4.2998,3.0996-4.5
				c0.9326,0,2.2656-0.0332,4-0.0996c1.4004,0,3.5-0.0664,6.2998-0.2002c0.8662,0.0674,2.3008-0.0332,4.3008-0.2998
				c1,0.1338,3.2324,0.0342,6.6992-0.3008c0.8008-0.1992,1.166-0.7324,1.1006-1.5996c0-2-0.0342-3.0654-0.1006-3.2002
				c0-1.333-0.0342-3.0996-0.0996-5.2998c0-0.8652,0.416-1.583,1.25-2.1504c0.833-0.5654,1.8496-0.8496,3.0498-0.8496
				c2.2656,0,3.5,0.9668,3.7002,2.9004c0,0.5996-0.0674,1.5996-0.2002,3c-0.0674,1-0.0674,1.6992,0,2.0996
				c-0.2002,1-0.2344,2.1348-0.0996,3.4004c-0.1348,0.334-0.085,0.667,0.1494,1c0.2334,0.334,0.583,0.4668,1.0508,0.3994
				c4.8652-0.333,8.9326-0.5654,12.1992-0.7002c0.6006,0,2.1006-0.0996,4.5-0.2998c1.9336-0.2002,3.3662-0.2656,4.3008-0.2002
				c2.7998-0.1992,6.5654-0.5,11.2998-0.8994c2.5322-0.2002,3.7998,1.1338,3.7998,4c0,1.5996-0.5674,2.7344-1.7002,3.3994
				c-0.8672,0.5352-2.2002,0.8008-4,0.8008h-5.3994c-1.668,0-4.1348,0.0996-7.4004,0.2998c-1.7998,0-4.5996,0.0674-8.4004,0.2002
				c-3,0.1992-4.6338,0.2998-4.8994,0.2998c-0.7998,0-2.2344,0.1338-4.2998,0.3994c-0.8008,0.2002-1.2344,0.7344-1.3008,1.6006
				c-0.1338,2.1338-0.1992,3.2666-0.1992,3.3994c0.0654,0.668,0.0996,1.7002,0.0996,3.1006c0,0.334,0.1504,0.5996,0.4502,0.7998
				s0.5498,0.2676,0.75,0.2002c0.665-0.2002,1.7656-0.3662,3.2998-0.5c0.4658-0.1328,2.2002-0.333,5.2002-0.6006
				c4.4658-0.332,9.5654,0.2676,15.2998,1.8008c1.5996,0.5996,3.7324,1.7344,6.4004,3.3994
				c3.4648,2.0674,6.2324,5.3672,8.2998,9.9004C93.1328,60.166,93.9658,65.0332,93.7002,70.499z M44.7998,72.5996
				c-0.0674-1.8008-0.0996-2.833-0.0996-3.1006c0-1.3994-0.1348-3.3994-0.4004-6c0.0654-0.7324,0.0332-2.5996-0.0996-5.5996
				l-0.1006-4.7998c0-0.8008-0.334-1.0332-1-0.7002c-1.3994,0.7998-2.667,1.5342-3.7998,2.2002
				c-2.5342,1.5342-4,2.7344-4.3994,3.5996c-1.335,1-2.8672,2.6348-4.6006,4.9004C28.0332,66.166,26.5,69.6338,25.7002,73.499
				c-0.2676,0.8672-0.4004,2.1348-0.4004,3.7998c0,1.7344,0.1006,2.9678,0.2998,3.7002c0.2002,0.7344,0.6162,1.5674,1.25,2.5
				c0.6328,0.9346,1.4502,1.4678,2.4502,1.6006c1.2656,0.1338,2.6006-0.166,4-0.9004c0.7998-0.4004,1.833-1,3.1006-1.7998
				c2.7324-2,5.165-4.2334,7.2998-6.7002C44.5,74.7666,44.8652,73.7334,44.7998,72.5996z"/>
		</g>
	</g>
</g>
</svg>
