<?xml version="1.0" encoding="utf-8"?>
<!-- Generator: Adobe Illustrator 25.2.1, SVG Export Plug-In . SVG Version: 6.00 Build 0)  -->
<svg version="1.1" id="レイヤー_1" xmlns="http://www.w3.org/2000/svg" xmlns:xlink="http://www.w3.org/1999/xlink" x="0px"
	 y="0px" viewBox="0 0 16 16" style="enable-background:new 0 0 16 16;" xml:space="preserve">
<style type="text/css">
	.st0{fill:#FFFFFF;}
	.st1{fill:#005AE6;}
	.st2{fill:#7828B4;}
	.st3{fill:#E61E50;}
	.st4{fill:#505064;}
	.st5{fill:#00966E;}
</style>
<g>
	<path class="st0" d="M8,0C1.25,0,0,1.25,0,8s1.25,8,8,8s8-1.25,8-8S14.75,0,8,0z"/>
</g>
<g>
	<path class="st1" d="M6.5889,6.5273v6.274c0,0.0644,0.0522,0.1167,0.1167,0.1167h0.6211c0.0644,0,0.1167-0.0522,0.1167-0.1167
		V7.145c0-0.0258,0.0209-0.0467,0.0467-0.0467h2.3294c0.0644,0,0.1167-0.0522,0.1167-0.1167V6.4107
		c0-0.0644-0.0522-0.1167-0.1167-0.1167H6.8223C6.6934,6.294,6.5889,6.3985,6.5889,6.5273z"/>
	<path class="st2" d="M11.5776,12.067V6.4107c0-0.0644-0.0522-0.1167-0.1167-0.1167h-0.6211c-0.0644,0-0.1167,0.0522-0.1167,0.1167
		v6.2739c0,0.1289,0.1045,0.2333,0.2333,0.2333h2.8768c0.0644,0,0.1167-0.0522,0.1167-0.1167v-0.5709
		c0-0.0644-0.0522-0.1167-0.1167-0.1167h-2.2091C11.5985,12.1137,11.5776,12.0928,11.5776,12.067z"/>
	<circle class="st3" cx="8.6897" cy="9.2596" r="0.8167"/>
	<path class="st4" d="M14.2005,6.0372l-5.933-4.1528c-0.1606-0.1125-0.3745-0.1125-0.5351,0L1.7995,6.0372
		C1.7371,6.0808,1.7,6.1522,1.7,6.2283V6.855c0,0.1289,0.0856,0.1734,0.1912,0.0995l5.9749-4.1823
		c0.0803-0.0562,0.1873-0.0562,0.2676,0l5.9751,4.1824C14.2144,7.0285,14.3,6.9839,14.3,6.8551V6.2283
		C14.3,6.1522,14.2629,6.0808,14.2005,6.0372z"/>
	<path class="st5" d="M5.5685,6.294H4.1482c-0.0644,0-0.1167,0.0522-0.1167,0.1167V7.009c0,0.0644,0.0522,0.1167,0.1167,0.1167
		h0.7662c0.0258,0,0.0467,0.0209,0.0467,0.0467v3.7394c-0.0002,0.3538-0.0921,0.6302-0.2732,0.8374
		c-0.1814,0.2067-0.4286,0.3189-0.7529,0.3372H3.1c-0.0644,0-0.1167,0.0522-0.1167,0.1167v0.6803C2.9833,12.9478,3.0356,13,3.1,13
		h0.8456c0.5665,0,1.1063-0.2418,1.4057-0.6253c0.3012-0.3636,0.4507-0.8385,0.4505-1.4175V6.5273
		C5.8018,6.3985,5.6974,6.294,5.5685,6.294z"/>
</g>
</svg>
