<?xml version="1.0" encoding="utf-8"?>
<!-- Generator: Adobe Illustrator 25.2.1, SVG Export Plug-In . SVG Version: 6.00 Build 0)  -->
<svg version="1.1" id="レイヤー_1" xmlns="http://www.w3.org/2000/svg" xmlns:xlink="http://www.w3.org/1999/xlink" x="0px"
	 y="0px" viewBox="0 0 40 30" style="enable-background:new 0 0 40 30;" xml:space="preserve">
<style type="text/css">
	.st0{fill:#F5F5C8;}
	.st1{fill:#F5F5FF;}
	.st2{fill:#F5FFFF;}
	.st3{fill:none;stroke:#0067BD;stroke-miterlimit:10;}
	.st4{fill:#0067BD;}
	.st5{fill:#005AE6;}
	.st6{fill:#7828B4;}
	.st7{fill:#E61E50;}
	.st8{fill:#505064;}
	.st9{fill:#00966E;}
	.st10{fill:#1E1E28;}
	.st11{fill:none;stroke:#CDCDE1;stroke-miterlimit:10;}
	.st12{fill:url(#SVGID_1_);}
	.st13{fill:url(#SVGID_2_);}
	.st14{fill:#FFFF84;}
	.st15{fill:#EFEFF9;stroke:#B3B3BD;stroke-width:0.5;stroke-miterlimit:10;}
	.st16{fill:#B3B3B3;}
	.st17{fill:#3232E5;}
	.st18{fill:none;stroke:#FFFFFF;}
	.st19{fill:#F07832;}
	.st20{fill:none;stroke:#1E1E1E;stroke-width:1.2;stroke-miterlimit:10;}
	.st21{fill:none;stroke:#1E1E1E;stroke-width:1.2;stroke-linecap:round;stroke-linejoin:round;stroke-miterlimit:10;}
	.st22{fill:#EF3C3C;}
	.st23{fill:none;}
	.st24{fill:#00958B;}
	.st25{fill:#1E1E1E;}
	.st26{opacity:0.8;}
	.st27{fill:#FFFFFF;stroke:#FFFFFF;stroke-width:0.5;stroke-miterlimit:10;}
</style>
<g>
	<path class="st5" d="M17.4802,10.9417v11.2035c0,0.1151,0.0933,0.2083,0.2083,0.2083h1.1091c0.1151,0,0.2083-0.0933,0.2083-0.2083
		V12.0446c0-0.046,0.0373-0.0833,0.0833-0.0833h4.1597c0.1151,0,0.2083-0.0933,0.2083-0.2083v-1.0195
		c0-0.1151-0.0933-0.2083-0.2083-0.2083h-5.3521C17.6668,10.525,17.4802,10.7116,17.4802,10.9417z"/>
	<path class="st6" d="M26.3885,20.8339V10.7334c0-0.1151-0.0933-0.2083-0.2083-0.2083h-1.1091
		c-0.1151,0-0.2083,0.0933-0.2083,0.2083v11.2035c0,0.2301,0.1865,0.4167,0.4167,0.4167h5.1372
		c0.1151,0,0.2083-0.0933,0.2083-0.2083v-1.0195c0-0.1151-0.0933-0.2083-0.2083-0.2083h-3.9448
		C26.4258,20.9173,26.3885,20.88,26.3885,20.8339z"/>
	<circle class="st7" cx="21.2316" cy="15.8208" r="1.4583"/>
	<path class="st8" d="M31.0723,10.0664L20.4777,2.6506c-0.2869-0.2009-0.6687-0.2008-0.9556,0L8.9277,10.0664
		C8.8163,10.1444,8.75,10.2718,8.75,10.4077v1.1191c0,0.2301,0.1528,0.3097,0.3414,0.1777l10.6695-7.4684
		c0.1434-0.1004,0.3345-0.1004,0.4779,0l10.6697,7.4685c0.1886,0.132,0.3414,0.0524,0.3414-0.1777v-1.1192
		C31.25,10.2718,31.1837,10.1444,31.0723,10.0664z"/>
	<path class="st9" d="M15.6581,10.525h-2.5363c-0.1151,0-0.2083,0.0933-0.2083,0.2083v1.0684c0,0.1151,0.0933,0.2083,0.2083,0.2083
		H14.49c0.046,0,0.0834,0.0373,0.0834,0.0834v6.6774c-0.0004,0.6318-0.1644,1.1253-0.4879,1.4954
		c-0.324,0.3692-0.7653,0.5695-1.3444,0.6022H11.25c-0.1151,0-0.2083,0.0933-0.2083,0.2083v1.2149
		c0,0.1151,0.0933,0.2083,0.2083,0.2083h1.51c1.0116,0,1.9755-0.4318,2.5102-1.1166c0.5379-0.6493,0.8049-1.4973,0.8045-2.5312
		v-7.9106C16.0747,10.7116,15.8882,10.525,15.6581,10.525z"/>
</g>
<g>
	<path class="st10" d="M5.3976,26.5567c0,0.2461-0.0831,0.4429-0.2492,0.5905c-0.1475,0.1292-0.3198,0.1968-0.5197,0.1968
		L3.669,27.3472c-0.2214,0-0.4029-0.0769-0.5506-0.2307C2.9709,26.9689,2.9,26.7813,2.9,26.5567v-1.5624
		c0-0.1015,0.0339-0.1877,0.1108-0.2522c0.0707-0.0677,0.1599-0.0984,0.2613-0.0984h1.7533c0.1046,0,0.1938,0.0307,0.2645,0.0984
		c0.0739,0.0646,0.1076,0.1507,0.1076,0.2522V26.5567z M5.1422,24.9943c0-0.0338-0.0122-0.0616-0.0307-0.0831
		c-0.0246-0.0216-0.0523-0.0338-0.0861-0.0338H3.2722c-0.0338,0-0.0615,0.0123-0.0831,0.0338
		c-0.0214,0.0215-0.0338,0.0492-0.0338,0.0831v1.5624c0,0.1968,0.0615,0.3445,0.1877,0.4429
		c0.0952,0.077,0.2029,0.1108,0.326,0.1108h0.9597c0.123,0,0.2306-0.0338,0.326-0.1108c0.126-0.0984,0.1875-0.2461,0.1875-0.4429
		V24.9943z M3.4199,25.8309h1.4578v0.2337H3.4199V25.8309z"/>
	<path class="st10" d="M7.9594,25.0465c0.0892,0,0.1631-0.0368,0.2214-0.1076c0.0555-0.0677,0.0831-0.1445,0.0831-0.2369h0.2583
		c0,0.16-0.0553,0.2953-0.1629,0.4061c-0.1076,0.1138-0.24,0.1722-0.3999,0.1722H7.3627v0.5506h0.446
		c0.2246,0,0.4061,0.0769,0.5506,0.2276c0.1445,0.1507,0.2184,0.3383,0.2184,0.5628v0.6613H8.3224v-0.6613
		c0-0.1968-0.0647-0.3445-0.1877-0.4429c-0.0922-0.0769-0.203-0.1107-0.326-0.1107h-0.446v0.5567h0.4398v0.2338H7.3627v0.5505
		H7.1044v-0.5505h-0.446v-0.2338h0.446v-0.5567h-0.446c-0.123,0-0.2338,0.0338-0.326,0.1107
		c-0.123,0.0984-0.1877,0.2461-0.1877,0.4429v0.6613H5.8895l-0.0032-0.6613c-0.003-0.2245,0.0709-0.4121,0.2184-0.5628
		c0.1477-0.1507,0.3292-0.2276,0.5536-0.2276h0.446v-0.5506H6.5014c-0.1567,0-0.2891-0.0584-0.3967-0.1722
		c-0.1108-0.1138-0.1661-0.2492-0.1661-0.4061H6.197c0,0.0923,0.0307,0.1692,0.0862,0.2369
		c0.0583,0.0708,0.1292,0.1076,0.2182,0.1076h0.6029v-0.4552h0.2583v0.4552H7.9594z"/>
	<path class="st10" d="M9.0665,25.1326h1.0641v0.2215H9.0665V25.1326z M9.0665,26.5691h1.0641v0.5044
		c0,0.1015-0.0338,0.1815-0.1014,0.2461c-0.0677,0.0584-0.1507,0.0891-0.2583,0.0891H9.4233c-0.1016,0-0.1847-0.0307-0.2553-0.0891
		c-0.0677-0.0646-0.1014-0.1445-0.1014-0.2461V26.5691z M10.0322,24.8774H9.1617v-0.2215h0.8704V24.8774z M10.0322,25.8309H9.1617
		v-0.2215h0.8704V25.8309z M9.1617,26.0861h0.8704v0.2215H9.1617V26.0861z M9.3095,27.0673c0,0.0338,0.0122,0.0615,0.0338,0.0831
		c0.0216,0.0247,0.0461,0.0369,0.08,0.0369h0.3476c0.0338,0,0.0615-0.0123,0.0831-0.0369c0.0216-0.0216,0.0307-0.0492,0.0307-0.0831
		v-0.2768H9.3095V27.0673z M11.8715,25.8401v0.2338h-1.664v-0.2338c0.2216-0.0831,0.3783-0.2245,0.4707-0.4214h-0.3446v-0.2215
		h0.4153c0.0216-0.0891,0.0338-0.1907,0.0369-0.3076h-0.5167v-0.2338h1.5379v0.2338h-0.766
		c-0.003,0.1107-0.0184,0.2153-0.0399,0.3106c0.1907,0.0092,0.3446,0.0738,0.4584,0.1846c0.1106,0.1107,0.1691,0.2645,0.1691,0.4552
		H11.8715z M11.7701,26.3445v0.566c0,0.3321-0.1661,0.4982-0.4983,0.4982H10.832c-0.3322,0-0.4983-0.1661-0.4983-0.4982v-0.566
		H11.7701z M11.5271,26.9105v-0.3322h-0.9505v0.3322c0,0.1784,0.0831,0.2645,0.2553,0.2645h0.4398
		C11.4409,27.175,11.5271,27.0889,11.5271,26.9105z M11.3856,25.8401c0-0.1354-0.0399-0.2399-0.1168-0.3137
		c-0.0831-0.0738-0.1908-0.1076-0.326-0.1076h-0.0062c-0.0677,0.1661-0.1661,0.3076-0.2985,0.4214H11.3856z"/>
	<path class="st10" d="M12.6188,26v1.218h-0.2583V26H12.6188z M14.1658,25.1665v1.5379c0,0.1754-0.0645,0.3291-0.1877,0.4522
		c-0.123,0.1261-0.2737,0.1907-0.452,0.1907c-0.1785,0-0.3322-0.0646-0.4552-0.1907c-0.1262-0.1231-0.1877-0.2768-0.1877-0.4522
		h0.2583c0,0.1108,0.0369,0.2061,0.1108,0.2861c0.0707,0.0831,0.1629,0.12,0.2737,0.12c0.1106,0,0.1999-0.0369,0.2767-0.12
		c0.0709-0.08,0.1076-0.1753,0.1076-0.2861v-1.5379H14.1658z M14.1567,24.6559v0.2338h-1.1534v-0.2338H14.1567z M14.9257,26v1.218
		h-0.2585V26H14.9257z"/>
	<path class="st10" d="M17.5855,26.8305c0.0001,0.1459-0.0544,0.2743-0.156,0.3757c-0.1014,0.1016-0.2297,0.1561-0.3757,0.1559
		h-0.3256v-0.2238h0.3256c0.0812-0.0002,0.1493-0.0312,0.2081-0.0925c0.0526-0.0617,0.0814-0.1339,0.0814-0.2154
		c-0.0001-0.0881-0.0288-0.1599-0.0814-0.2216c-0.0554-0.0578-0.1232-0.0861-0.2081-0.0863h-0.9045v0.8393l-0.0178,0.0003
		L15.91,27.3656v-0.843h-0.5137v-0.2239H15.91v-0.5421h-0.5137v-0.2238H15.91V25.176h0.2392l0,0.3569h0.6674v0.2238h-0.6674v0.5421
		h0.9045c0.1457-0.0001,0.2772,0.0511,0.3789,0.1529l0.0002,0.0002C17.5344,26.5564,17.5857,26.6848,17.5855,26.8305z
		 M17.3795,26.1134v-0.8359h-0.2392v0.8359H17.3795z"/>
	<path class="st10" d="M19.3359,26.4491c0-0.1476-0.0491-0.2737-0.1445-0.3783c-0.1014-0.1077-0.2214-0.1568-0.366-0.1568
		s-0.2645,0.0491-0.366,0.1568c-0.0984,0.1046-0.1477,0.2307-0.1477,0.3783v0.895h-0.2553v-2.6882h0.2553v1.2211
		c0.1445-0.1323,0.3168-0.1968,0.5137-0.1968c0.2152,0,0.3937,0.0738,0.5444,0.2245c0.1507,0.1507,0.2244,0.3291,0.2244,0.5444
		v0.2553c0,0.0923,0.0307,0.1692,0.0924,0.24c0.0583,0.0677,0.1352,0.1045,0.2276,0.1045c0.0922,0,0.1691-0.0368,0.2276-0.1045
		c0.0615-0.0708,0.0922-0.1476,0.0922-0.24h0.2553c0,0.16-0.0555,0.2984-0.1661,0.4091c-0.1108,0.1138-0.2492,0.1692-0.4091,0.1692
		c-0.1631,0-0.3015-0.0554-0.4123-0.1692c-0.1106-0.1107-0.1661-0.2491-0.1661-0.4091V26.4491z"/>
	<path class="st10" d="M21.215,27.0457c-0.2-0.1968-0.2985-0.4428-0.2985-0.7258c0-0.2861,0.0984-0.526,0.2985-0.729
		c0.1999-0.1968,0.4398-0.2953,0.7259-0.2953h0.0645v-0.6398h0.2583v0.6398h0.8305v0.2338h-0.8305v0.9658h-0.2583v-0.9658h-0.0645
		c-0.2154,0-0.3969,0.0769-0.5444,0.2307c-0.1507,0.1568-0.2246,0.3414-0.2246,0.5598c0,0.2183,0.0739,0.4029,0.2246,0.5567
		c0.1475,0.1568,0.329,0.2338,0.5444,0.2338h1.4516v0.2368l-1.4516-0.0031C21.6548,27.3441,21.4148,27.2426,21.215,27.0457z"/>
	<path class="st10" d="M26.0067,24.8466v0.2337h-2.3714v-0.2337H26.0067z M26.0067,25.9416c0,0.4244-0.1198,0.7658-0.3628,1.015
		c-0.2523,0.2614-0.5999,0.3906-1.0459,0.3906h-0.6427v-0.2307h0.6427c0.3691,0,0.6582-0.1138,0.8644-0.3383
		c0.1937-0.2122,0.2891-0.4921,0.2891-0.8366V25.837h-2.1162v-0.2338h2.3714V25.9416z"/>
	<path class="st10" d="M27.3136,25.8924c0.3382,0,0.6243-0.1262,0.8581-0.3783c0.2276-0.243,0.3414-0.5321,0.3414-0.8582h0.2553
		c0,0.2461-0.0615,0.4798-0.1785,0.7043c-0.12,0.2246-0.2861,0.406-0.4951,0.5413v1.4456h-0.2553v-1.3165
		c-0.1661,0.0616-0.3414,0.0954-0.5259,0.0954h-0.8181v-0.2338H27.3136z"/>
	<path class="st10" d="M31.435,25.9354c0,0.4244-0.123,0.7659-0.363,1.0181c-0.2522,0.2614-0.5997,0.3906-1.0457,0.3906h-0.5137
		v-0.2276h0.5137c0.3721,0,0.6582-0.1138,0.8643-0.3414c0.1938-0.2122,0.2891-0.4921,0.2891-0.8397v-0.7905h-1.9224v-0.2337h2.1777
		V25.9354z M31.4449,26.8951v0.449h-0.1907v-0.449H31.4449z M31.8294,26.8951v0.449h-0.1937v-0.449H31.8294z"/>
	<path class="st10" d="M34.498,24.8466v0.2337h-2.3714v-0.2337H34.498z M34.498,25.9416c0,0.4244-0.1198,0.7658-0.3628,1.015
		c-0.2523,0.2614-0.5999,0.3906-1.0459,0.3906h-0.6427v-0.2307h0.6427c0.3691,0,0.6582-0.1138,0.8644-0.3383
		c0.1937-0.2122,0.2891-0.4921,0.2891-0.8366V25.837h-2.1162v-0.2338h2.3714V25.9416z"/>
	<path class="st10" d="M35.2423,24.7851v1.3441H34.987v-1.3441H35.2423z M35.6452,27.1104c0.3352,0,0.6213-0.1262,0.8581-0.3783
		c0.2276-0.2431,0.3414-0.5291,0.3414-0.8582V24.782H37.1v1.0919c0,0.3875-0.1324,0.7228-0.3967,1.0119
		c-0.2831,0.3046-0.6337,0.4583-1.0581,0.4614h-0.3198v-0.2368H35.6452z"/>
</g>
</svg>
