<?xml version="1.0" encoding="utf-8"?>
<!-- Generator: Adobe Illustrator 25.2.1, SVG Export Plug-In . SVG Version: 6.00 Build 0)  -->
<svg version="1.1" id="レイヤー_1" xmlns="http://www.w3.org/2000/svg" xmlns:xlink="http://www.w3.org/1999/xlink" x="0px"
	 y="0px" viewBox="0 0 217 30" style="enable-background:new 0 0 217 30;" xml:space="preserve">
<style type="text/css">
	.st0{fill:#F5F5C8;}
	.st1{fill:#F5F5FF;}
	.st2{fill:#F5FFFF;}
	.st3{fill:none;stroke:#0067BD;stroke-miterlimit:10;}
	.st4{fill:#0067BD;}
	.st5{fill:#005AE6;}
	.st6{fill:#7828B4;}
	.st7{fill:#E61E50;}
	.st8{fill:#505064;}
	.st9{fill:#00966E;}
	.st10{fill:#1E1E28;}
	.st11{fill:none;stroke:#CDCDE1;stroke-miterlimit:10;}
	.st12{fill:url(#SVGID_1_);}
	.st13{fill:url(#SVGID_2_);}
	.st14{fill:#FFFF84;}
	.st15{fill:#EFEFF9;stroke:#B3B3BD;stroke-width:0.5;stroke-miterlimit:10;}
	.st16{fill:#B3B3B3;}
	.st17{fill:#3232E5;}
	.st18{fill:none;stroke:#FFFFFF;}
	.st19{fill:#F07832;}
	.st20{fill:none;stroke:#1E1E1E;stroke-width:1.2;stroke-miterlimit:10;}
	.st21{fill:none;stroke:#1E1E1E;stroke-width:1.2;stroke-linecap:round;stroke-linejoin:round;stroke-miterlimit:10;}
	.st22{fill:#EF3C3C;}
	.st23{fill:none;}
	.st24{fill:#00958B;}
	.st25{fill:#1E1E1E;}
	.st26{opacity:0.8;}
	.st27{fill:#FFFFFF;stroke:#FFFFFF;stroke-width:0.5;stroke-miterlimit:10;}
</style>
<g>
	<path class="st5" d="M13.6033,13.2859v12.3238c0,0.1266,0.1026,0.2292,0.2292,0.2292h1.22c0.1266,0,0.2292-0.1026,0.2292-0.2292
		V14.499c0-0.0506,0.041-0.0917,0.0917-0.0917h4.5756c0.1266,0,0.2292-0.1026,0.2292-0.2292v-1.1215
		c0-0.1266-0.1026-0.2292-0.2292-0.2292h-5.8873C13.8084,12.8275,13.6033,13.0327,13.6033,13.2859z"/>
	<path class="st6" d="M23.4023,24.1673V13.0567c0-0.1266-0.1026-0.2292-0.2292-0.2292h-1.22c-0.1266,0-0.2292,0.1026-0.2292,0.2292
		v12.3238c0,0.2531,0.2052,0.4583,0.4583,0.4583h5.6509c0.1266,0,0.2292-0.1026,0.2292-0.2292v-1.1215
		c0-0.1266-0.1026-0.2292-0.2292-0.2292H23.494C23.4434,24.259,23.4023,24.218,23.4023,24.1673z"/>
	<circle class="st7" cx="17.7298" cy="18.6529" r="1.6042"/>
	<path class="st8" d="M28.5545,12.323l-11.654-8.1573c-0.3156-0.2209-0.7356-0.2209-1.0512,0L4.1955,12.323
		C4.073,12.4088,4,12.5489,4,12.6985v1.231c0,0.2531,0.1681,0.3407,0.3755,0.1955L16.112,5.9097
		c0.1578-0.1104,0.3679-0.1104,0.5257,0l11.7367,8.2154c0.2075,0.1452,0.3755,0.0576,0.3755-0.1955v-1.2311
		C28.75,12.5489,28.677,12.4088,28.5545,12.323z"/>
	<path class="st9" d="M11.5989,12.8275H8.8089c-0.1266,0-0.2292,0.1026-0.2292,0.2292v1.1752c0,0.1266,0.1026,0.2292,0.2292,0.2292
		h1.5051c0.0506,0,0.0917,0.0411,0.0917,0.0917v7.3452c-0.0004,0.6949-0.1808,1.2379-0.5367,1.645
		c-0.3564,0.4061-0.8418,0.6264-1.4788,0.6624H6.75c-0.1266,0-0.2292,0.1026-0.2292,0.2292v1.3363C6.5208,25.8974,6.6234,26,6.75,26
		h1.661c1.1127,0,2.1731-0.4749,2.7612-1.2282c0.5917-0.7142,0.8853-1.6471,0.885-2.7843v-8.7016
		C12.0572,13.0327,11.852,12.8275,11.5989,12.8275z"/>
</g>
<g>
	<path class="st10" d="M47.9989,20.6827c0,1.2807-0.4323,2.3052-1.2968,3.0736c-0.7679,0.6723-1.6646,1.0245-2.7048,1.0245
		l-4.9948,0.0161c-1.1524,0-2.0969-0.4001-2.8658-1.2007C35.3688,22.8278,35,21.8516,35,20.6827v-8.1319
		c0-0.5284,0.1766-0.9767,0.5766-1.3129c0.3679-0.3522,0.8323-0.5123,1.3602-0.5123h9.1252c0.5445,0,1.0089,0.16,1.3768,0.5123
		c0.3844,0.3361,0.5601,0.7845,0.5601,1.3129V20.6827z M46.67,12.5507c0-0.1761-0.0635-0.3205-0.16-0.4323
		c-0.1278-0.1122-0.2722-0.1761-0.4479-0.1761h-9.1252c-0.1757,0-0.3201,0.0639-0.4323,0.1761
		c-0.1113,0.1117-0.1757,0.2561-0.1757,0.4323v8.1319c0,1.0245,0.3201,1.7929,0.9767,2.3052
		c0.4957,0.4005,1.0558,0.5766,1.6968,0.5766h4.9948c0.6401,0,1.2002-0.1761,1.6968-0.5766
		c0.6557-0.5123,0.9758-1.2807,0.9758-2.3052V12.5507z M37.7057,16.905h7.5875v1.2163h-7.5875V16.905z"/>
	<path class="st10" d="M61.3326,12.8225c0.4644,0,0.8489-0.1918,1.1524-0.5601c0.2888-0.3522,0.4323-0.7523,0.4323-1.2328h1.3446
		c0,0.8328-0.2879,1.5368-0.848,2.1135c-0.5601,0.5923-1.2489,0.8962-2.0813,0.8962h-3.1058v2.8658h2.3213
		c1.1689,0,2.1135,0.4001,2.8658,1.1846c0.7523,0.7845,1.1367,1.7607,1.1367,2.9292v3.4419h-1.329v-3.4419
		c0-1.0245-0.3366-1.7929-0.9767-2.3052c-0.4801-0.4001-1.0567-0.5762-1.6968-0.5762h-2.3213v2.8975h2.2891v1.2168h-2.2891v2.8653
		h-1.3446v-2.8653h-2.3213v-1.2168h2.3213v-2.8975h-2.3213c-0.6401,0-1.2168,0.1761-1.6968,0.5762
		c-0.6401,0.5123-0.9767,1.2807-0.9767,2.3052v3.4419h-1.328l-0.0166-3.4419c-0.0156-1.1685,0.3688-2.1447,1.1367-2.9292
		c0.7689-0.7845,1.7134-1.1846,2.8814-1.1846h2.3213v-2.8658h-3.138c-0.8158,0-1.5046-0.304-2.0647-0.8962
		c-0.5766-0.5923-0.8645-1.2968-0.8645-2.1135h1.3446c0,0.4805,0.16,0.8806,0.4488,1.2328
		c0.3035,0.3683,0.6723,0.5601,1.1358,0.5601h3.138v-2.3691h1.3446v2.3691H61.3326z"/>
	<path class="st10" d="M67.0945,13.2709h5.5384v1.1528h-5.5384V13.2709z M67.0945,20.747h5.5384v2.6253
		c0,0.5284-0.1757,0.9445-0.5279,1.2807c-0.3522,0.304-0.7845,0.464-1.3446,0.464h-1.809c-0.5288,0-0.9611-0.16-1.329-0.464
		c-0.3522-0.3361-0.5279-0.7523-0.5279-1.2807V20.747z M72.1206,11.9424h-4.5304v-1.1528h4.5304V11.9424z M72.1206,16.905h-4.5304
		v-1.1528h4.5304V16.905z M67.5902,18.2335h4.5304v1.1528h-4.5304V18.2335z M68.3591,23.3401c0,0.1761,0.0635,0.3201,0.1757,0.4323
		c0.1122,0.1283,0.24,0.1922,0.4166,0.1922h1.809c0.1757,0,0.3201-0.0639,0.4323-0.1922c0.1122-0.1122,0.16-0.2561,0.16-0.4323
		v-1.4407h-2.9936V23.3401z M81.6937,16.9528v1.2168H73.033v-1.2168c1.1533-0.4323,1.9691-1.1685,2.4501-2.193h-1.7934V13.607
		h2.1613c0.1122-0.464,0.1757-0.9923,0.1922-1.6007h-2.6892v-1.2168h8.0041v1.2168h-3.9869
		c-0.0156,0.5762-0.0956,1.1206-0.2078,1.6168c0.9923,0.0478,1.7934,0.384,2.3857,0.9606c0.5757,0.5762,0.8801,1.3768,0.8801,2.3691
		H81.6937z M81.1658,19.5781v2.9458c0,1.7286-0.8645,2.5931-2.5935,2.5931h-2.2891c-1.729,0-2.5935-0.8645-2.5935-2.5931v-2.9458
		H81.1658z M79.9012,22.5239v-1.729h-4.947v1.729c0,0.9284,0.4323,1.3768,1.329,1.3768h2.2891
		C79.4524,23.9007,79.9012,23.4523,79.9012,22.5239z M79.1645,16.9528c0-0.7045-0.2078-1.2485-0.6079-1.6329
		c-0.4323-0.384-0.9933-0.5601-1.6968-0.5601h-0.0322c-0.3522,0.8645-0.8645,1.6007-1.5534,2.193H79.1645z"/>
	<path class="st10" d="M85.5831,17.7852v6.3394h-1.3446v-6.3394H85.5831z M93.635,13.447v8.0041
		c0,0.9128-0.3357,1.7129-0.9767,2.3535c-0.6401,0.6562-1.4246,0.9923-2.3526,0.9923c-0.9289,0-1.729-0.3361-2.3691-0.9923
		c-0.6567-0.6406-0.9767-1.4407-0.9767-2.3535h1.3446c0,0.5766,0.1922,1.0728,0.5766,1.489
		c0.3679,0.4323,0.848,0.6245,1.4246,0.6245c0.5757,0,1.0402-0.1922,1.4402-0.6245c0.3688-0.4162,0.5601-0.9123,0.5601-1.489V13.447
		H93.635z M93.5872,10.7895v1.2168h-6.0028v-1.2168H93.5872z M97.5897,17.7852v6.3394h-1.3455v-6.3394H97.5897z"/>
	<path class="st10" d="M111.4332,22.1077c0.0007,0.7596-0.2834,1.4279-0.8121,1.9556c-0.5278,0.5288-1.1957,0.8123-1.9556,0.8116
		h-1.6945v-1.1646h1.6945c0.4228-0.0009,0.7773-0.1624,1.0832-0.4814c0.2737-0.3211,0.4234-0.6969,0.4237-1.1212
		c-0.0006-0.4585-0.1501-0.8321-0.4237-1.1534c-0.2881-0.3006-0.641-0.4482-1.0832-0.4493h-4.7076v4.3685l-0.0928,0.0014
		l-1.1524,0.0175V20.505h-2.6735V19.34h2.6735v-2.8213h-2.6735V15.354h2.6735v-1.8573h1.2452l-0.0001,1.8573h3.4738v1.1646h-3.4737
		V19.34h4.7076c0.7583-0.0006,1.4426,0.2657,1.9722,0.796l0.001,0.001C111.1672,20.681,111.434,21.3492,111.4332,22.1077z
		 M110.3608,18.3755v-4.3504h-1.2451v4.3504H110.3608z"/>
	<path class="st10" d="M120.5433,20.1226c0-0.7684-0.2557-1.4246-0.7523-1.9691c-0.5279-0.5606-1.1524-0.8162-1.9047-0.8162
		c-0.7523,0-1.3768,0.2557-1.9047,0.8162c-0.5123,0.5445-0.7689,1.2007-0.7689,1.9691v4.6582h-1.329V10.7895h1.329v6.3555
		c0.7523-0.6884,1.649-1.0245,2.6735-1.0245c1.1202,0,2.0491,0.384,2.8336,1.1685s1.168,1.7129,1.168,2.8336v1.3285
		c0,0.4805,0.16,0.8806,0.481,1.2489c0.3035,0.3522,0.7036,0.544,1.1846,0.544c0.4801,0,0.8801-0.1918,1.1846-0.544
		c0.3201-0.3683,0.4801-0.7684,0.4801-1.2489h1.329c0,0.8328-0.2888,1.5529-0.8645,2.1291
		c-0.5767,0.5923-1.2968,0.8806-2.1291,0.8806c-0.8489,0-1.569-0.2883-2.1456-0.8806c-0.5757-0.5762-0.8645-1.2963-0.8645-2.1291
		V20.1226z"/>
	<path class="st10" d="M130.3233,23.2279c-1.0411-1.0245-1.5534-2.3047-1.5534-3.7776c0-1.489,0.5123-2.7375,1.5534-3.7942
		c1.0402-1.0245,2.2891-1.5368,3.7781-1.5368h0.3357v-3.3297h1.3446v3.3297h4.3226v1.2168h-4.3226v5.0266h-1.3446V15.336h-0.3357
		c-1.1211,0-2.0656,0.4001-2.8336,1.2007c-0.7845,0.8162-1.1689,1.7768-1.1689,2.9136c0,1.1363,0.3844,2.0969,1.1689,2.8975
		c0.7679,0.8162,1.7125,1.2168,2.8336,1.2168h7.5553v1.2324l-7.5553-0.0161C132.6125,24.7808,131.3635,24.2524,130.3233,23.2279z"/>
	<path class="st10" d="M155.2626,11.7823v1.2163h-12.3423v-1.2163H155.2626z M155.2626,17.4812
		c0,2.2091-0.6236,3.9859-1.8881,5.2827c-1.3133,1.3607-3.1224,2.033-5.4437,2.033h-3.3449v-1.2007h3.3449
		c1.9212,0,3.4259-0.5923,4.4991-1.7607c1.008-1.1046,1.5046-2.5613,1.5046-4.3543v-0.5445h-11.0142V15.72h12.3423V17.4812z"/>
	<path class="st10" d="M162.0647,17.2251c1.7603,0,3.2493-0.6567,4.466-1.9691c1.1846-1.2646,1.7768-2.7697,1.7768-4.4665h1.3289
		c0,1.2807-0.3201,2.4974-0.9289,3.6659c-0.6245,1.1689-1.489,2.113-2.577,2.8175v7.524h-1.329v-6.8517
		c-0.8645,0.3205-1.7768,0.4966-2.737,0.4966h-4.2582v-1.2168H162.0647z"/>
	<path class="st10" d="M183.5156,17.449c0,2.2091-0.6401,3.9864-1.889,5.2988c-1.3124,1.3607-3.1214,2.033-5.4427,2.033h-2.6735
		v-1.1846h2.6735c1.9369,0,3.4259-0.5923,4.4982-1.7768c1.0089-1.1045,1.5046-2.5613,1.5046-4.3704v-4.1142h-10.0053v-1.2163
		h11.3343V17.449z M183.5669,22.4439v2.3369h-0.9924v-2.3369H183.5669z M185.5682,22.4439v2.3369h-1.008v-2.3369H185.5682z"/>
	<path class="st10" d="M199.4575,11.7823v1.2163h-12.3423v-1.2163H199.4575z M199.4575,17.4812
		c0,2.2091-0.6236,3.9859-1.8881,5.2827c-1.3133,1.3607-3.1223,2.033-5.4436,2.033h-3.3449v-1.2007h3.3449
		c1.9212,0,3.4259-0.5923,4.4991-1.7607c1.008-1.1046,1.5046-2.5613,1.5046-4.3543v-0.5445h-11.0142V15.72h12.3423V17.4812z"/>
	<path class="st10" d="M203.3313,11.4618v6.9956h-1.3289v-6.9956H203.3313z M205.4282,23.5645c1.7447,0,3.2336-0.6567,4.466-1.9691
		c1.1846-1.265,1.7769-2.7536,1.7769-4.4665v-5.6832H213v5.6832c0,2.0169-0.6888,3.762-2.0647,5.2666
		c-1.4733,1.5851-3.298,2.3852-5.5071,2.4013h-1.6646v-1.2324H205.4282z"/>
</g>
</svg>
