<?xml version="1.0" encoding="utf-8"?>
<!-- Generator: Adobe Illustrator 25.2.1, SVG Export Plug-In . SVG Version: 6.00 Build 0)  -->
<svg version="1.1" id="レイヤー_1" xmlns="http://www.w3.org/2000/svg" xmlns:xlink="http://www.w3.org/1999/xlink" x="0px"
	 y="0px" viewBox="0 0 40 30" style="enable-background:new 0 0 40 30;" xml:space="preserve">
<style type="text/css">
	.st0{fill:#F5F5C8;}
	.st1{fill:#F5F5FF;}
	.st2{fill:#F5FFFF;}
	.st3{fill:none;stroke:#0067BD;stroke-miterlimit:10;}
	.st4{fill:#0067BD;}
	.st5{fill:#005AE6;}
	.st6{fill:#7828B4;}
	.st7{fill:#E61E50;}
	.st8{fill:#505064;}
	.st9{fill:#00966E;}
	.st10{fill:#1E1E28;}
	.st11{fill:none;stroke:#CDCDE1;stroke-miterlimit:10;}
	.st12{fill:url(#SVGID_1_);}
	.st13{fill:url(#SVGID_2_);}
	.st14{fill:none;stroke:#1E1E1E;stroke-width:1.2;stroke-miterlimit:10;}
	.st15{fill:none;stroke:#1E1E1E;stroke-width:1.2;stroke-linecap:round;stroke-linejoin:round;stroke-miterlimit:10;}
	.st16{fill:#FFFF84;}
	.st17{fill:#EFEFF9;stroke:#B3B3BD;stroke-width:0.5;stroke-miterlimit:10;}
	.st18{fill:#B3B3B3;}
	.st19{fill:#3232E5;}
	.st20{fill:none;stroke:#FFFFFF;}
	.st21{fill:#F07832;}
	.st22{fill:#EF3C3C;}
	.st23{fill:#00958B;}
	.st24{fill:#1E1E1E;}
</style>
<g>
	<path class="st5" d="M17.4802,10.9417v11.2035c0,0.1151,0.0933,0.2083,0.2083,0.2083h1.1091c0.1151,0,0.2083-0.0933,0.2083-0.2083
		V12.0446c0-0.046,0.0373-0.0833,0.0833-0.0833h4.1597c0.1151,0,0.2083-0.0933,0.2083-0.2083v-1.0195
		c0-0.1151-0.0933-0.2083-0.2083-0.2083h-5.3521C17.6668,10.525,17.4802,10.7116,17.4802,10.9417z"/>
	<path class="st6" d="M26.3885,20.8339V10.7334c0-0.1151-0.0933-0.2083-0.2083-0.2083h-1.1091
		c-0.1151,0-0.2083,0.0933-0.2083,0.2083v11.2035c0,0.2301,0.1865,0.4167,0.4167,0.4167h5.1372
		c0.1151,0,0.2083-0.0933,0.2083-0.2083v-1.0195c0-0.1151-0.0933-0.2083-0.2083-0.2083h-3.9448
		C26.4258,20.9173,26.3885,20.88,26.3885,20.8339z"/>
	<circle class="st7" cx="21.2316" cy="15.8208" r="1.4583"/>
	<path class="st8" d="M31.0723,10.0664L20.4777,2.6506c-0.2869-0.2009-0.6687-0.2008-0.9556,0L8.9277,10.0664
		C8.8163,10.1444,8.75,10.2718,8.75,10.4077v1.1191c0,0.2301,0.1528,0.3097,0.3414,0.1777l10.6695-7.4684
		c0.1434-0.1004,0.3345-0.1004,0.4779,0l10.6697,7.4685c0.1886,0.132,0.3414,0.0524,0.3414-0.1777v-1.1192
		C31.25,10.2718,31.1837,10.1444,31.0723,10.0664z"/>
	<path class="st9" d="M15.6581,10.525h-2.5363c-0.1151,0-0.2083,0.0933-0.2083,0.2083v1.0684c0,0.1151,0.0933,0.2083,0.2083,0.2083
		H14.49c0.046,0,0.0834,0.0373,0.0834,0.0834v6.6774c-0.0004,0.6318-0.1644,1.1253-0.4879,1.4954
		c-0.324,0.3692-0.7653,0.5695-1.3444,0.6022H11.25c-0.1151,0-0.2083,0.0933-0.2083,0.2083v1.2149
		c0,0.1151,0.0933,0.2083,0.2083,0.2083h1.51c1.0116,0,1.9755-0.4318,2.5102-1.1166c0.5379-0.6493,0.8049-1.4973,0.8045-2.5312
		v-7.9106C16.0747,10.7116,15.8882,10.525,15.6581,10.525z"/>
</g>
<g>
	<path class="st10" d="M5.5108,26.5928c0,0.262-0.0884,0.4716-0.2653,0.6288c-0.1571,0.1375-0.3406,0.2096-0.5534,0.2096
		l-1.0219,0.0033c-0.2358,0-0.429-0.0818-0.5863-0.2456c-0.1571-0.1572-0.2326-0.3569-0.2326-0.5961v-1.6637
		c0-0.1081,0.0361-0.1998,0.118-0.2686c0.0753-0.0721,0.1703-0.1048,0.2783-0.1048h1.8669c0.1114,0,0.2064,0.0327,0.2817,0.1048
		c0.0787,0.0688,0.1146,0.1605,0.1146,0.2686V26.5928z M5.2389,24.9291c0-0.036-0.013-0.0656-0.0327-0.0884
		c-0.0262-0.023-0.0557-0.036-0.0916-0.036H3.2476c-0.0359,0-0.0655,0.0131-0.0884,0.036
		c-0.0228,0.0229-0.0359,0.0524-0.0359,0.0884v1.6637c0,0.2096,0.0655,0.3668,0.1998,0.4716c0.1014,0.0819,0.216,0.118,0.3472,0.118
		h1.0219c0.131,0,0.2455-0.036,0.3472-0.118c0.1342-0.1048,0.1996-0.262,0.1996-0.4716V24.9291z M3.4049,25.8199h1.5523v0.2488
		H3.4049V25.8199z"/>
	<path class="st10" d="M8.046,24.9847c0.095,0,0.1737-0.0392,0.2358-0.1146c0.0591-0.0721,0.0884-0.1539,0.0884-0.2522h0.2751
		c0,0.1704-0.0589,0.3144-0.1735,0.4324c-0.1146,0.1212-0.2555,0.1834-0.4258,0.1834H7.4106v0.5863h0.4749
		c0.2391,0,0.4324,0.0818,0.5863,0.2423s0.2326,0.3602,0.2326,0.5993v0.7042H8.4325v-0.7042c0-0.2096-0.0689-0.3668-0.1998-0.4716
		c-0.0982-0.0818-0.2162-0.1179-0.3472-0.1179H7.4106v0.5928h0.4683v0.2489H7.4106V27.5H7.1355v-0.5862H6.6606v-0.2489h0.4749
		v-0.5928H6.6606c-0.131,0-0.2489,0.036-0.3472,0.1179c-0.131,0.1048-0.1998,0.262-0.1998,0.4716v0.7042H5.8419l-0.0034-0.7042
		c-0.0032-0.2391,0.0755-0.4388,0.2326-0.5993c0.1573-0.1605,0.3505-0.2423,0.5895-0.2423h0.4749v-0.5863h-0.642
		c-0.1669,0-0.3078-0.0622-0.4224-0.1834c-0.118-0.1212-0.1769-0.2653-0.1769-0.4324h0.2751c0,0.0983,0.0327,0.1802,0.0918,0.2522
		c0.0621,0.0754,0.1375,0.1146,0.2324,0.1146h0.642V24.5h0.2751v0.4847H8.046z"/>
	<path class="st10" d="M9.0321,25.0764h1.1331v0.2359H9.0321V25.0764z M9.0321,26.606h1.1331v0.5371
		c0,0.1081-0.0359,0.1932-0.108,0.262C9.9852,27.4673,9.8967,27.5,9.7821,27.5H9.412c-0.1082,0-0.1966-0.0327-0.2719-0.0949
		c-0.0721-0.0688-0.108-0.1539-0.108-0.262V26.606z M10.0604,24.8046H9.1336v-0.2359h0.9269V24.8046z M10.0604,25.8199H9.1336
		v-0.2359h0.9269V25.8199z M9.1336,26.0917h0.9269v0.2359H9.1336V26.0917z M9.2909,27.1365c0,0.036,0.013,0.0655,0.0359,0.0884
		c0.023,0.0262,0.0491,0.0393,0.0852,0.0393h0.3701c0.0359,0,0.0655-0.0131,0.0884-0.0393c0.023-0.023,0.0327-0.0524,0.0327-0.0884
		v-0.2948H9.2909V27.1365z M12.019,25.8297v0.2489h-1.7719v-0.2489c0.236-0.0884,0.4028-0.2391,0.5013-0.4487h-0.3669v-0.2359
		h0.4422c0.023-0.0949,0.0359-0.203,0.0393-0.3275h-0.5502v-0.2489h1.6375v0.2489h-0.8157
		c-0.0032,0.1179-0.0196,0.2293-0.0425,0.3308c0.203,0.0098,0.3669,0.0786,0.4881,0.1965c0.1178,0.1179,0.1801,0.2817,0.1801,0.4847
		H12.019z M11.911,26.3668v0.6027c0,0.3536-0.1769,0.5305-0.5306,0.5305H10.912c-0.3537,0-0.5306-0.1769-0.5306-0.5305v-0.6027
		H11.911z M11.6523,26.9695v-0.3537h-1.0121v0.3537c0,0.1899,0.0884,0.2817,0.2719,0.2817h0.4683
		C11.5604,27.2512,11.6523,27.1594,11.6523,26.9695z M11.5015,25.8297c0-0.1441-0.0425-0.2554-0.1244-0.3341
		c-0.0884-0.0786-0.2032-0.1146-0.3472-0.1146h-0.0066c-0.0721,0.1769-0.1769,0.3275-0.3178,0.4487H11.5015z"/>
	<path class="st10" d="M12.622,26v1.297h-0.2751V26H12.622z M14.2693,25.1125V26.75c0,0.1867-0.0687,0.3504-0.1998,0.4815
		c-0.131,0.1343-0.2915,0.203-0.4813,0.203c-0.19,0-0.3537-0.0688-0.4847-0.203c-0.1343-0.1311-0.1998-0.2948-0.1998-0.4815h0.2751
		c0,0.118,0.0393,0.2195,0.118,0.3046c0.0753,0.0884,0.1735,0.1278,0.2915,0.1278c0.1178,0,0.2128-0.0393,0.2947-0.1278
		c0.0755-0.0851,0.1146-0.1867,0.1146-0.3046v-1.6375H14.2693z M14.2596,24.5688v0.2489h-1.2281v-0.2489H14.2596z M15.0784,26v1.297
		h-0.2753V26H15.0784z"/>
	<path class="st10" d="M17.718,26.8843c0.0001,0.1554-0.058,0.2921-0.1661,0.4001c-0.108,0.1082-0.2446,0.1662-0.4001,0.166h-0.3467
		v-0.2383h0.3467c0.0865-0.0002,0.159-0.0332,0.2216-0.0985c0.056-0.0657,0.0866-0.1426,0.0867-0.2294
		c-0.0001-0.0938-0.0307-0.1702-0.0867-0.236c-0.0589-0.0615-0.1311-0.0917-0.2216-0.0919h-0.9631v0.8938l-0.019,0.0003
		l-0.2358,0.0036v-0.8976h-0.547v-0.2384h0.547v-0.5772h-0.547v-0.2383h0.547v-0.38h0.2547l0,0.38h0.7107v0.2383h-0.7107v0.5772
		h0.9631c0.1551-0.0001,0.2951,0.0544,0.4035,0.1629l0.0002,0.0002C17.6636,26.5925,17.7182,26.7292,17.718,26.8843z
		 M17.4986,26.1208v-0.89h-0.2547v0.89H17.4986z"/>
	<path class="st10" d="M19.3891,26.4782c0-0.1572-0.0523-0.2915-0.1539-0.4028c-0.108-0.1147-0.2358-0.167-0.3897-0.167
		s-0.2817,0.0523-0.3897,0.167c-0.1048,0.1114-0.1573,0.2456-0.1573,0.4028v0.953h-0.2719v-2.8625h0.2719v1.3003
		c0.1539-0.1408,0.3374-0.2096,0.547-0.2096c0.2292,0,0.4192,0.0786,0.5797,0.2391s0.239,0.3504,0.239,0.5797V26.75
		c0,0.0983,0.0327,0.1802,0.0984,0.2555c0.0621,0.0721,0.1439,0.1113,0.2423,0.1113c0.0982,0,0.1801-0.0392,0.2423-0.1113
		c0.0655-0.0754,0.0982-0.1572,0.0982-0.2555h0.2719c0,0.1704-0.0591,0.3177-0.1769,0.4356
		c-0.118,0.1212-0.2653,0.1802-0.4356,0.1802c-0.1737,0-0.321-0.059-0.439-0.1802c-0.1178-0.1179-0.1769-0.2652-0.1769-0.4356
		V26.4782z"/>
	<path class="st10" d="M21.1973,27.1135c-0.213-0.2096-0.3178-0.4715-0.3178-0.7729c0-0.3046,0.1048-0.5601,0.3178-0.7762
		c0.2128-0.2096,0.4683-0.3144,0.773-0.3144h0.0687v-0.6812h0.2751V25.25h0.8843v0.2489h-0.8843v1.0284H22.039v-1.0284h-0.0687
		c-0.2294,0-0.4226,0.0818-0.5797,0.2456c-0.1605,0.167-0.2391,0.3635-0.2391,0.5961c0,0.2325,0.0787,0.429,0.2391,0.5928
		c0.1571,0.167,0.3504,0.2489,0.5797,0.2489h1.5457v0.2521l-1.5457-0.0033C21.6657,27.4312,21.4102,27.3231,21.1973,27.1135z"/>
	<path class="st10" d="M26.107,24.7719v0.2488h-2.5251v-0.2488H26.107z M26.107,25.9378c0,0.452-0.1276,0.8155-0.3863,1.0808
		c-0.2687,0.2784-0.6388,0.4159-1.1137,0.4159h-0.6843v-0.2456h0.6843c0.3931,0,0.7009-0.1212,0.9205-0.3602
		c0.2062-0.226,0.3078-0.524,0.3078-0.8908v-0.1114h-2.2534v-0.2489h2.5251V25.9378z"/>
	<path class="st10" d="M27.3059,25.8854c0.3601,0,0.6648-0.1343,0.9137-0.4028c0.2423-0.2587,0.3635-0.5666,0.3635-0.9138h0.2719
		c0,0.262-0.0655,0.5109-0.19,0.75c-0.1278,0.2392-0.3046,0.4323-0.5272,0.5764v1.5393h-0.2719v-1.4018
		c-0.1769,0.0656-0.3635,0.1016-0.56,0.1016h-0.8712v-0.2489H27.3059z"/>
	<path class="st10" d="M31.5019,25.9312c0,0.452-0.131,0.8156-0.3865,1.0841c-0.2685,0.2784-0.6386,0.4159-1.1135,0.4159h-0.547
		v-0.2423h0.547c0.3963,0,0.7009-0.1212,0.9203-0.3635c0.2064-0.226,0.3078-0.524,0.3078-0.8941v-0.8417h-2.047v-0.2488h2.3189
		V25.9312z M31.5124,26.9531v0.4781h-0.203v-0.4781H31.5124z M31.9218,26.9531v0.4781h-0.2062v-0.4781H31.9218z"/>
	<path class="st10" d="M34.5707,24.7719v0.2488h-2.5251v-0.2488H34.5707z M34.5707,25.9378c0,0.452-0.1276,0.8155-0.3863,1.0808
		c-0.2687,0.2784-0.6388,0.4159-1.1137,0.4159h-0.6843v-0.2456h0.6843c0.3931,0,0.7009-0.1212,0.9205-0.3602
		c0.2062-0.226,0.3078-0.524,0.3078-0.8908v-0.1114h-2.2534v-0.2489h2.5251V25.9378z"/>
	<path class="st10" d="M35.1706,24.7063v1.4312h-0.2719v-1.4312H35.1706z M35.5996,27.1824c0.3569,0,0.6616-0.1343,0.9137-0.4028
		c0.2424-0.2588,0.3635-0.5633,0.3635-0.9138V24.703h0.2719v1.1627c0,0.4126-0.1409,0.7697-0.4224,1.0775
		c-0.3014,0.3243-0.6747,0.488-1.1267,0.4913H35.259v-0.2521H35.5996z"/>
</g>
</svg>
