<?xml version="1.0" encoding="utf-8"?>
<!-- Generator: Adobe Illustrator 25.2.1, SVG Export Plug-In . SVG Version: 6.00 Build 0)  -->
<svg version="1.1" id="レイヤー_1" xmlns="http://www.w3.org/2000/svg" xmlns:xlink="http://www.w3.org/1999/xlink" x="0px"
	 y="0px" viewBox="0 0 217 30" style="enable-background:new 0 0 217 30;" xml:space="preserve">
<style type="text/css">
	.st0{fill:#F5F5C8;}
	.st1{fill:#F5F5FF;}
	.st2{fill:#F5FFFF;}
	.st3{fill:none;stroke:#0067BD;stroke-miterlimit:10;}
	.st4{fill:#0067BD;}
	.st5{fill:#005AE6;}
	.st6{fill:#7828B4;}
	.st7{fill:#E61E50;}
	.st8{fill:#505064;}
	.st9{fill:#00966E;}
	.st10{fill:#1E1E28;}
	.st11{fill:none;stroke:#CDCDE1;stroke-miterlimit:10;}
	.st12{fill:#EFEFF9;stroke:#B3B3BD;stroke-width:0.5;stroke-miterlimit:10;}
	.st13{fill:#EF3C3C;}
	.st14{fill:#B3B3B3;}
	.st15{fill:#3232E5;}
	.st16{fill:#00958B;}
	.st17{fill:#1E1E1E;}
	.st18{fill:url(#SVGID_1_);}
	.st19{fill:url(#SVGID_2_);}
	.st20{fill:none;stroke:#1E1E1E;stroke-width:1.2;stroke-miterlimit:10;}
	.st21{fill:none;stroke:#1E1E1E;stroke-width:1.2;stroke-linecap:round;stroke-linejoin:round;stroke-miterlimit:10;}
	.st22{fill:#FFFF84;}
	.st23{fill:none;stroke:#FFFFFF;}
	.st24{fill:#F07832;}
</style>
<g>
	<g>
		<path class="st5" d="M13.6033,13.2859v12.3238c0,0.1266,0.1026,0.2292,0.2292,0.2292h1.22c0.1266,0,0.2292-0.1026,0.2292-0.2292
			V14.499c0-0.0506,0.041-0.0917,0.0917-0.0917h4.5756c0.1266,0,0.2292-0.1026,0.2292-0.2292v-1.1215
			c0-0.1266-0.1026-0.2292-0.2292-0.2292h-5.8873C13.8084,12.8275,13.6033,13.0327,13.6033,13.2859z"/>
		<path class="st6" d="M23.4023,24.1673V13.0567c0-0.1266-0.1026-0.2292-0.2292-0.2292h-1.22c-0.1266,0-0.2292,0.1026-0.2292,0.2292
			v12.3238c0,0.2531,0.2052,0.4583,0.4583,0.4583h5.6509c0.1266,0,0.2292-0.1026,0.2292-0.2292v-1.1215
			c0-0.1266-0.1026-0.2292-0.2292-0.2292H23.494C23.4434,24.259,23.4023,24.218,23.4023,24.1673z"/>
		<circle class="st7" cx="17.7298" cy="18.6529" r="1.6042"/>
		<path class="st8" d="M28.5545,12.323l-11.654-8.1573c-0.3156-0.2209-0.7356-0.2209-1.0512,0L4.1955,12.323
			C4.073,12.4088,4,12.5489,4,12.6985v1.231c0,0.2531,0.1681,0.3407,0.3755,0.1955L16.112,5.9097
			c0.1578-0.1104,0.3679-0.1104,0.5257,0l11.7367,8.2154c0.2075,0.1452,0.3755,0.0576,0.3755-0.1955v-1.2311
			C28.75,12.5489,28.677,12.4088,28.5545,12.323z"/>
		<path class="st9" d="M11.5989,12.8275H8.8089c-0.1266,0-0.2292,0.1026-0.2292,0.2292v1.1752c0,0.1266,0.1026,0.2292,0.2292,0.2292
			h1.5051c0.0506,0,0.0917,0.0411,0.0917,0.0917v7.3452c-0.0004,0.6949-0.1808,1.2379-0.5367,1.645
			c-0.3564,0.4061-0.8418,0.6264-1.4788,0.6624H6.75c-0.1266,0-0.2292,0.1026-0.2292,0.2292v1.3363
			C6.5208,25.8974,6.6234,26,6.75,26h1.661c1.1127,0,2.1731-0.4749,2.7612-1.2282c0.5917-0.7142,0.8853-1.6471,0.885-2.7843v-8.7016
			C12.0572,13.0327,11.852,12.8275,11.5989,12.8275z"/>
	</g>
	<g>
		<path class="st10" d="M48.8027,20.8618c0,1.3599-0.459,2.4478-1.377,3.2637c-0.8154,0.7139-1.7676,1.0879-2.8721,1.0879
			L39.25,25.2305c-1.2236,0-2.2266-0.4248-3.043-1.2749C35.3916,23.1397,35,22.103,35,20.8618v-8.6348
			c0-0.561,0.1875-1.0371,0.6123-1.394c0.3906-0.374,0.8838-0.5439,1.4443-0.5439h9.6895c0.5781,0,1.0713,0.1699,1.4619,0.5439
			c0.4082,0.3569,0.5947,0.833,0.5947,1.394V20.8618z M47.3916,12.2271c0-0.187-0.0674-0.3403-0.1699-0.459
			c-0.1357-0.1191-0.2891-0.187-0.4756-0.187h-9.6895c-0.1865,0-0.3398,0.0679-0.459,0.187
			c-0.1182,0.1187-0.1865,0.272-0.1865,0.459v8.6348c0,1.0879,0.3398,1.9038,1.0371,2.4478
			c0.5264,0.4253,1.1211,0.6123,1.8018,0.6123h5.3037c0.6797,0,1.2744-0.187,1.8018-0.6123
			c0.6963-0.5439,1.0361-1.3599,1.0361-2.4478V12.2271z M37.873,16.8506h8.0566v1.2915H37.873V16.8506z"/>
		<path class="st10" d="M61.9609,12.5156c0.4932,0,0.9014-0.2036,1.2236-0.5947c0.3066-0.374,0.459-0.7988,0.459-1.3091h1.4277
			c0,0.8843-0.3057,1.6318-0.9004,2.2441c-0.5947,0.6289-1.3262,0.9517-2.21,0.9517h-3.2979v3.043h2.4648
			c1.2412,0,2.2441,0.4248,3.043,1.2578s1.207,1.8696,1.207,3.1104v3.6548h-1.4111v-3.6548c0-1.0879-0.3574-1.9038-1.0371-2.4478
			c-0.5098-0.4248-1.1221-0.6118-1.8018-0.6118h-2.4648v3.0767h2.4307v1.292h-2.4307v3.0425h-1.4277v-3.0425h-2.4648v-1.292h2.4648
			v-3.0767h-2.4648c-0.6797,0-1.292,0.187-1.8018,0.6118c-0.6797,0.5439-1.0371,1.3599-1.0371,2.4478v3.6548h-1.4102l-0.0176-3.6548
			c-0.0166-1.2407,0.3916-2.2773,1.207-3.1104c0.8164-0.833,1.8193-1.2578,3.0596-1.2578h2.4648v-3.043h-3.332
			c-0.8662,0-1.5977-0.3228-2.1924-0.9517c-0.6123-0.6289-0.918-1.377-0.918-2.2441h1.4277c0,0.5103,0.1699,0.9351,0.4766,1.3091
			c0.3223,0.3911,0.7139,0.5947,1.2061,0.5947h3.332V10h1.4277v2.5156H61.9609z"/>
		<path class="st10" d="M67.0791,12.9917H72.96v1.2241h-5.8809V12.9917z M67.0791,20.9302H72.96v2.7876
			c0,0.561-0.1865,1.0029-0.5605,1.3599c-0.374,0.3228-0.833,0.4927-1.4277,0.4927h-1.9209c-0.5615,0-1.0205-0.1699-1.4111-0.4927
			c-0.374-0.3569-0.5605-0.7988-0.5605-1.3599V20.9302z M72.416,11.5811h-4.8105v-1.2241h4.8105V11.5811z M72.416,16.8506h-4.8105
			v-1.2241h4.8105V16.8506z M67.6055,18.2612h4.8105v1.2241h-4.8105V18.2612z M68.4219,23.6836c0,0.187,0.0674,0.3398,0.1865,0.459
			c0.1191,0.1362,0.2549,0.2041,0.4424,0.2041h1.9209c0.1865,0,0.3398-0.0679,0.459-0.2041c0.1191-0.1191,0.1699-0.272,0.1699-0.459
			v-1.5298h-3.1787V23.6836z M82.5811,16.9014v1.292h-9.1963v-1.292c1.2246-0.459,2.0908-1.2407,2.6016-2.3286H74.082v-1.2241
			h2.2949c0.1191-0.4927,0.1865-1.0537,0.2041-1.6997h-2.8555v-1.292h8.499v1.292h-4.2334
			c-0.0166,0.6118-0.1016,1.1899-0.2207,1.7168c1.0537,0.0508,1.9043,0.4077,2.5332,1.02c0.6113,0.6118,0.9346,1.4619,0.9346,2.5156
			H82.5811z M82.0205,19.689v3.1279c0,1.8354-0.918,2.7534-2.7539,2.7534h-2.4307c-1.8359,0-2.7539-0.918-2.7539-2.7534V19.689
			H82.0205z M80.6777,22.8169V20.981h-5.2529v1.8359c0,0.9858,0.459,1.4619,1.4111,1.4619h2.4307
			C80.2012,24.2788,80.6777,23.8027,80.6777,22.8169z M79.8955,16.9014c0-0.748-0.2207-1.3257-0.6455-1.7339
			c-0.459-0.4077-1.0547-0.5947-1.8018-0.5947h-0.0342c-0.374,0.918-0.918,1.6997-1.6494,2.3286H79.8955z"/>
		<path class="st10" d="M85.7109,17.7852v6.7314h-1.4277v-6.7314H85.7109z M94.2607,13.1787v8.499
			c0,0.9692-0.3564,1.8188-1.0371,2.499c-0.6797,0.6968-1.5127,1.0537-2.498,1.0537c-0.9863,0-1.8359-0.3569-2.5156-1.0537
			c-0.6973-0.6802-1.0371-1.5298-1.0371-2.499h1.4277c0,0.6123,0.2041,1.1392,0.6123,1.5811
			c0.3906,0.459,0.9004,0.6631,1.5127,0.6631c0.6113,0,1.1045-0.2041,1.5293-0.6631c0.3916-0.4419,0.5947-0.9688,0.5947-1.5811
			v-8.499H94.2607z M94.21,10.3569v1.292h-6.374v-1.292H94.21z M98.46,17.7852v6.7314h-1.4287v-6.7314H98.46z"/>
		<path class="st10" d="M112.1595,22.375c0.0007,0.8065-0.3009,1.5162-0.8623,2.0765c-0.5604,0.5615-1.2697,0.8625-2.0765,0.8618
			h-1.7993v-1.2366h1.7993c0.449-0.001,0.8253-0.1725,1.1501-0.5112c0.2906-0.341,0.4496-0.74,0.45-1.1906
			c-0.0006-0.4869-0.1594-0.8836-0.45-1.2247c-0.3059-0.3192-0.6807-0.4759-1.1501-0.4771h-4.9987v4.6387l-0.0985,0.0015
			l-1.2236,0.0186v-4.6587h-2.8389v-1.2371h2.8389v-2.9958h-2.8389v-1.2366h2.8389v-1.9722h1.3221l-0.0001,1.9722h3.6886v1.2366
			h-3.6885v2.9958h4.9987c0.8052-0.0006,1.5319,0.2822,2.0941,0.8452l0.0011,0.0011
			C111.8771,20.8601,112.1604,21.5696,112.1595,22.375z M111.0209,18.412v-4.6194h-1.3221v4.6194H111.0209z"/>
		<path class="st10" d="M120.833,20.2671c0-0.8159-0.2715-1.5127-0.7988-2.0908c-0.5605-0.5952-1.2236-0.8667-2.0225-0.8667
			s-1.4619,0.2715-2.0225,0.8667c-0.5439,0.5781-0.8164,1.2749-0.8164,2.0908v4.9463h-1.4111V10.3569h1.4111v6.7485
			c0.7988-0.731,1.751-1.0879,2.8389-1.0879c1.1895,0,2.1758,0.4077,3.0088,1.2407s1.2402,1.8188,1.2402,3.0088v1.4106
			c0,0.5103,0.1699,0.9351,0.5107,1.3262c0.3223,0.374,0.7471,0.5776,1.2578,0.5776c0.5098,0,0.9346-0.2036,1.2578-0.5776
			c0.3398-0.3911,0.5098-0.8159,0.5098-1.3262h1.4111c0,0.8843-0.3066,1.6489-0.918,2.2607
			c-0.6123,0.6289-1.377,0.9351-2.2607,0.9351c-0.9014,0-1.666-0.3062-2.2783-0.9351c-0.6113-0.6118-0.918-1.3765-0.918-2.2607
			V20.2671z"/>
		<path class="st10" d="M130.2178,23.5645c-1.1055-1.0879-1.6494-2.4473-1.6494-4.0112c0-1.5811,0.5439-2.9067,1.6494-4.0288
			c1.1045-1.0879,2.4307-1.6318,4.0117-1.6318h0.3564v-3.5356h1.4277v3.5356h4.5898v1.292h-4.5898v5.3374h-1.4277v-5.3374h-0.3564
			c-1.1904,0-2.1934,0.4248-3.0088,1.2749c-0.833,0.8667-1.2412,1.8867-1.2412,3.0938c0,1.2065,0.4082,2.2266,1.2412,3.0767
			c0.8154,0.8667,1.8184,1.292,3.0088,1.292h8.0225v1.3086l-8.0225-0.0171C132.6484,25.2134,131.3223,24.6524,130.2178,23.5645z"/>
		<path class="st10" d="M155.6992,11.4111v1.2915h-13.1055v-1.2915H155.6992z M155.6992,17.4624
			c0,2.3457-0.6621,4.2324-2.0049,5.6094c-1.3945,1.4448-3.3154,2.1587-5.7803,2.1587h-3.5518v-1.2749h3.5518
			c2.04,0,3.6377-0.6289,4.7773-1.8696c1.0703-1.1729,1.5977-2.7197,1.5977-4.6235v-0.5781h-11.6953v-1.292h13.1055V17.4624z"/>
		<path class="st10" d="M161.9219,17.1904c1.8691,0,3.4502-0.6973,4.7422-2.0908c1.2578-1.3428,1.8867-2.9409,1.8867-4.7427h1.4111
			c0,1.3599-0.3398,2.6519-0.9863,3.8926c-0.6631,1.2412-1.5811,2.2437-2.7363,2.9917v7.9893h-1.4111v-7.2754
			c-0.918,0.3403-1.8867,0.5273-2.9062,0.5273h-4.5215v-1.292H161.9219z"/>
		<path class="st10" d="M183.6992,17.4282c0,2.3457-0.6797,4.2329-2.0059,5.6265c-1.3936,1.4448-3.3145,2.1587-5.7793,2.1587
			h-2.8389v-1.2578h2.8389c2.0566,0,3.6377-0.6289,4.7764-1.8867c1.0713-1.1729,1.5977-2.7197,1.5977-4.6406v-4.3687h-10.624
			v-1.2915h12.0352V17.4282z M183.7537,22.7319v2.4814H182.7v-2.4814H183.7537z M185.8787,22.7319v2.4814h-1.0703v-2.4814H185.8787z
			"/>
		<path class="st10" d="M199.627,11.4111v1.2915h-13.1055v-1.2915H199.627z M199.627,17.4624c0,2.3457-0.6621,4.2324-2.0049,5.6094
			c-1.3945,1.4448-3.3154,2.1587-5.7803,2.1587H188.29v-1.2749h3.5518c2.04,0,3.6377-0.6289,4.7773-1.8696
			c1.0703-1.1729,1.5977-2.7197,1.5977-4.6235v-0.5781h-11.6953v-1.292h13.1055V17.4624z"/>
		<path class="st10" d="M202.7402,11.0708v7.4282h-1.4111v-7.4282H202.7402z M204.9668,23.9219
			c1.8525,0,3.4336-0.6973,4.7422-2.0908c1.2578-1.3433,1.8867-2.9238,1.8867-4.7427v-6.0347h1.4111v6.0347
			c0,2.1416-0.7314,3.9946-2.1924,5.5923c-1.5645,1.6831-3.502,2.5327-5.8477,2.5498h-1.7676v-1.3086H204.9668z"/>
	</g>
</g>
</svg>
