<?xml version="1.0" encoding="utf-8"?>
<!-- Generator: Adobe Illustrator 25.2.1, SVG Export Plug-In . SVG Version: 6.00 Build 0)  -->
<svg version="1.1" id="レイヤー_1" xmlns="http://www.w3.org/2000/svg" xmlns:xlink="http://www.w3.org/1999/xlink" x="0px"
	 y="0px" viewBox="0 0 22 32" style="enable-background:new 0 0 22 32;" xml:space="preserve">
<style type="text/css">
	.st0{fill:#F5F5C8;}
	.st1{fill:#F5F5FF;}
	.st2{fill:#F5FFFF;}
	.st3{fill:none;stroke:#0067BD;stroke-miterlimit:10;}
	.st4{fill:#0067BD;}
	.st5{fill:#005AE6;}
	.st6{fill:#7828B4;}
	.st7{fill:#E61E50;}
	.st8{fill:#505064;}
	.st9{fill:#00966E;}
	.st10{fill:#1E1E28;}
	.st11{fill:none;stroke:#CDCDE1;stroke-miterlimit:10;}
	.st12{fill:url(#SVGID_1_);}
	.st13{fill:url(#SVGID_2_);}
	.st14{fill:#FFFF84;}
	.st15{fill:#EFEFF9;stroke:#B3B3BD;stroke-width:0.5;stroke-miterlimit:10;}
	.st16{fill:#B3B3B3;}
	.st17{fill:#3232E5;}
	.st18{fill:none;stroke:#FFFFFF;}
	.st19{fill:#F07832;}
	.st20{fill:none;stroke:#1E1E1E;stroke-width:1.2;stroke-miterlimit:10;}
	.st21{fill:none;stroke:#1E1E1E;stroke-width:1.2;stroke-linecap:round;stroke-linejoin:round;stroke-miterlimit:10;}
	.st22{fill:#EF3C3C;}
	.st23{fill:none;}
	.st24{fill:#00958B;}
	.st25{fill:#1E1E1E;}
	.st26{opacity:0.8;}
	.st27{fill:#FFFFFF;stroke:#FFFFFF;stroke-width:0.5;stroke-miterlimit:10;}
</style>
<g>
	<path class="st15" d="M1.9767,7.4v20.4c0,0.8837,0.7163,1.6,1.6,1.6h14.8467c0.8837,0,1.6-0.7163,1.6-1.6V12.6297
		c0-0.8473-0.336-1.6599-0.9343-2.2598l-3.6204-3.6297C14.8683,6.1383,14.0531,5.8,13.203,5.8H3.5767
		C2.693,5.8,1.9767,6.5163,1.9767,7.4z"/>
	<g>
		<path class="st24" d="M13.0609,12.7307h-0.2025c-0.0028,0-0.0056,0.0002-0.0084,0.0002l-0.1174,0.4394h0.0928
			c2.1424,0,2.6106,2.351,1.4941,6.5286c-1.1119,4.1605-2.7726,6.4608-4.8982,6.4608H9.2694c-0.0028,0-0.0054-0.0003-0.0083-0.0003
			l-0.1176,0.4399h0.1602c3.6945,0,6.9977-2.892,8.069-6.9004C18.4215,15.775,16.654,12.7307,13.0609,12.7307z"/>
		<path class="st25" d="M7.6696,19.6482c1.0758-4.0253,2.9121-6.4779,5.0376-6.4779h0.0254l0.1174-0.4394
			c-3.7585,0.0044-7.1386,2.9457-8.2046,6.9342c-1.0803,4.0422,0.6434,6.9342,4.4053,6.9342h0.0928l0.1176-0.4399
			C7.1089,26.1531,6.5816,23.7189,7.6696,19.6482z"/>
	</g>
</g>
<g>
	<g>
		<path class="st18" d="M4.5723,10.7119L2.5566,2.5972h1.5654l0.7441,3.4424c0.2344,1.0806,0.459,2.2817,0.5557,3.1294h0.0244
			c0.0977-0.8242,0.3945-2.0371,0.6221-3.0991l0.7188-3.4727h1.5205l-2.041,8.1147H4.5723z"/>
		<path class="st18" d="M9.751,8.6694l-0.4023,2.0425H7.8926l1.8799-8.1147h1.8857l1.8994,8.1147h-1.5244l-0.4043-2.0425H9.751z
			 M11.3701,7.4087c-0.3027-1.5532-0.5449-2.6885-0.6729-3.4634h-0.0342c-0.0986,0.7471-0.3555,1.9668-0.6543,3.4634H11.3701z"/>
		<path class="st18" d="M15.6953,7.252v3.46H14.251V2.5972h2.4844c1.4746,0,2.3115,0.769,2.3115,2.2168
			c0,1.1733-0.6289,1.6802-1.0527,1.8481c0.6289,0.2939,0.9258,0.8281,0.9258,2.0264v0.3237c0,0.9224,0.0439,1.2666,0.1094,1.6997
			H17.624c-0.1182-0.3716-0.1396-1.0142-0.1396-1.7129V8.7031c0-1.0845-0.249-1.4512-1.166-1.4512H15.6953z M15.6953,6.0752h0.6816
			c0.877,0,1.2207-0.3774,1.2207-1.1978c0-0.6987-0.334-1.1035-1.0781-1.1035h-0.8242V6.0752z"/>
	</g>
	<g>
		<path class="st19" d="M4.5723,10.7119L2.5566,2.5972h1.5654l0.7441,3.4424c0.2344,1.0806,0.459,2.2817,0.5557,3.1294h0.0244
			c0.0977-0.8242,0.3945-2.0371,0.6221-3.0991l0.7188-3.4727h1.5205l-2.041,8.1147H4.5723z"/>
		<path class="st19" d="M9.751,8.6694l-0.4023,2.0425H7.8926l1.8799-8.1147h1.8857l1.8994,8.1147h-1.5244l-0.4043-2.0425H9.751z
			 M11.3701,7.4087c-0.3027-1.5532-0.5449-2.6885-0.6729-3.4634h-0.0342c-0.0986,0.7471-0.3555,1.9668-0.6543,3.4634H11.3701z"/>
		<path class="st19" d="M15.6953,7.252v3.46H14.251V2.5972h2.4844c1.4746,0,2.3115,0.769,2.3115,2.2168
			c0,1.1733-0.6289,1.6802-1.0527,1.8481c0.6289,0.2939,0.9258,0.8281,0.9258,2.0264v0.3237c0,0.9224,0.0439,1.2666,0.1094,1.6997
			H17.624c-0.1182-0.3716-0.1396-1.0142-0.1396-1.7129V8.7031c0-1.0845-0.249-1.4512-1.166-1.4512H15.6953z M15.6953,6.0752h0.6816
			c0.877,0,1.2207-0.3774,1.2207-1.1978c0-0.6987-0.334-1.1035-1.0781-1.1035h-0.8242V6.0752z"/>
	</g>
</g>
</svg>
