<?xml version="1.0" encoding="utf-8"?>
<!-- Generator: Adobe Illustrator 25.2.1, SVG Export Plug-In . SVG Version: 6.00 Build 0)  -->
<svg version="1.1" id="レイヤー_1" xmlns="http://www.w3.org/2000/svg" xmlns:xlink="http://www.w3.org/1999/xlink" x="0px"
	 y="0px" viewBox="0 0 22 32" style="enable-background:new 0 0 22 32;" xml:space="preserve">
<style type="text/css">
	.st0{fill:#F5F5C8;}
	.st1{fill:#F5F5FF;}
	.st2{fill:#F5FFFF;}
	.st3{fill:none;stroke:#0067BD;stroke-miterlimit:10;}
	.st4{fill:#0067BD;}
	.st5{fill:#FFFFFF;}
	.st6{fill:#787882;}
	.st7{fill:#005AE6;}
	.st8{fill:#7828B4;}
	.st9{fill:#E61E50;}
	.st10{fill:#505064;}
	.st11{fill:#00966E;}
	.st12{fill:#1E1E28;}
	.st13{fill:none;stroke:#CDCDE1;stroke-miterlimit:10;}
	.st14{fill:url(#SVGID_1_);}
	.st15{fill:url(#SVGID_2_);}
	.st16{fill:#FFFF84;}
	.st17{fill:#EFEFF9;stroke:#B3B3BD;stroke-width:0.5;stroke-miterlimit:10;}
	.st18{fill:#B3B3B3;}
	.st19{fill:#3232E5;}
	.st20{fill:none;stroke:#FFFFFF;}
	.st21{fill:#F07832;}
	.st22{fill:none;stroke:#1E1E1E;stroke-width:1.2;stroke-miterlimit:10;}
	.st23{fill:none;stroke:#1E1E1E;stroke-width:1.2;stroke-linecap:round;stroke-linejoin:round;stroke-miterlimit:10;}
	.st24{fill:#EF3C3C;}
	.st25{fill:none;}
	.st26{fill:#00958B;}
	.st27{fill:#1E1E1E;}
	.st28{opacity:0.6;}
	.st29{fill:#FFFFFF;stroke:#FFFFFF;stroke-width:0.5;stroke-miterlimit:10;}
	.st30{opacity:0.5;}
</style>
<g>
	<path class="st17" d="M1.9767,7.4v20.4c0,0.8837,0.7163,1.6,1.6,1.6h14.8467c0.8837,0,1.6-0.7163,1.6-1.6V12.6297
		c0-0.8473-0.336-1.6599-0.9343-2.2598l-3.6204-3.6297C14.8683,6.1383,14.0531,5.8,13.203,5.8H3.5767
		C2.693,5.8,1.9767,6.5163,1.9767,7.4z"/>
	<path class="st24" d="M17.0441,13.9467l-2.3106,8.681c-0.1459,0.6342-0.1945,1.0974,0.219,1.0974
		c0.5107,0,1.435-1.3655,1.8971-2.2922l0.754,0.4876c-0.9243,1.9021-2.262,3.6579-4.3537,3.6579
		c-1.4107,0-1.9458-0.9511-1.3863-2.8288l0.5837-1.9751h-0.0487c-1.2404,2.219-3.1133,4.8039-5.7401,4.8039
		c-1.7268,0-2.262-1.3413-2.262-2.8532c0-3.0238,2.5295-8.9737,7.9777-8.9737c0.6568,0,1.3134,0.1707,1.7026,0.4145l0.0487-0.2193
		H17.0441z M12.5445,14.8734c-2.7971,0-4.8402,5.2428-4.8402,7.6326c0,0.8047,0.1703,1.2192,0.7054,1.2192
		c1.508,0,4.1348-4.8283,4.7671-6.7303c0.2433-0.6828,0.4378-1.2924,0.5595-1.7558C13.4201,14.9707,13.0066,14.8734,12.5445,14.8734
		z"/>
</g>
<g class="st28">
	<path class="st29" d="M1.9767,7.4v20.4c0,0.8837,0.7163,1.6,1.6,1.6h14.8467c0.8837,0,1.6-0.7163,1.6-1.6V12.6297
		c0-0.8473-0.336-1.6599-0.9343-2.2598l-3.6204-3.6297C14.8683,6.1383,14.0531,5.8,13.203,5.8H3.5767
		C2.693,5.8,1.9767,6.5163,1.9767,7.4z"/>
</g>
</svg>
