<?xml version="1.0" encoding="utf-8"?>
<!-- Generator: Adobe Illustrator 25.2.1, SVG Export Plug-In . SVG Version: 6.00 Build 0)  -->
<svg version="1.1" id="レイヤー_1" xmlns="http://www.w3.org/2000/svg" xmlns:xlink="http://www.w3.org/1999/xlink" x="0px"
	 y="0px" viewBox="0 0 22 32" style="enable-background:new 0 0 22 32;" xml:space="preserve">
<style type="text/css">
	.st0{fill:#F5F5C8;}
	.st1{fill:#F5F5FF;}
	.st2{fill:#F5FFFF;}
	.st3{fill:none;stroke:#0067BD;stroke-miterlimit:10;}
	.st4{fill:#0067BD;}
	.st5{fill:#005AE6;}
	.st6{fill:#7828B4;}
	.st7{fill:#E61E50;}
	.st8{fill:#505064;}
	.st9{fill:#00966E;}
	.st10{fill:#1E1E28;}
	.st11{fill:none;stroke:#CDCDE1;stroke-miterlimit:10;}
	.st12{fill:url(#SVGID_1_);}
	.st13{fill:url(#SVGID_2_);}
	.st14{fill:#FFFF84;}
	.st15{fill:#EFEFF9;stroke:#B3B3BD;stroke-width:0.5;stroke-miterlimit:10;}
	.st16{fill:#B3B3B3;}
	.st17{fill:#3232E5;}
	.st18{fill:none;stroke:#FFFFFF;}
	.st19{fill:#F07832;}
	.st20{fill:none;stroke:#1E1E1E;stroke-width:1.2;stroke-miterlimit:10;}
	.st21{fill:none;stroke:#1E1E1E;stroke-width:1.2;stroke-linecap:round;stroke-linejoin:round;stroke-miterlimit:10;}
	.st22{fill:#EF3C3C;}
	.st23{fill:none;}
	.st24{fill:#00958B;}
	.st25{fill:#1E1E1E;}
	.st26{opacity:0.8;}
	.st27{fill:#FFFFFF;stroke:#FFFFFF;stroke-width:0.5;stroke-miterlimit:10;}
</style>
<g>
	<path class="st15" d="M1.9767,7.4v20.4c0,0.8837,0.7163,1.6,1.6,1.6h14.8467c0.8837,0,1.6-0.7163,1.6-1.6V12.6297
		c0-0.8473-0.336-1.6599-0.9343-2.2598l-3.6204-3.6297C14.8683,6.1383,14.0531,5.8,13.203,5.8H3.5767
		C2.693,5.8,1.9767,6.5163,1.9767,7.4z"/>
	<g>
		<path class="st16" d="M13.5061,12.5575v2.9957H13.213c-0.1737-0.6912-0.3664-1.1877-0.578-1.4898
			c-0.2117-0.3019-0.5021-0.5428-0.8711-0.7223c-0.2063-0.0979-0.5672-0.1469-1.0828-0.1469H9.8588v8.5379
			c0,0.566,0.0311,0.9198,0.0937,1.0611c0.0623,0.1415,0.1844,0.2652,0.3663,0.3714c0.1818,0.106,0.4302,0.1592,0.745,0.1592h0.3664
			v0.3019H5.6497v-0.3019H6.016c0.3202,0,0.578-0.0572,0.7734-0.1715c0.1411-0.0761,0.2524-0.2067,0.3338-0.3918
			c0.0597-0.1306,0.0896-0.4734,0.0896-1.0285v-8.5379H6.415c-0.7436,0-1.2837,0.1579-1.6201,0.4734
			c-0.4722,0.4408-0.7708,1.0692-0.8956,1.8856H3.5899v-2.9957H13.5061z"/>
		<path class="st17" d="M18.4101,14.9175v2.9957H18.117c-0.1737-0.6912-0.3664-1.1877-0.578-1.4898
			c-0.2117-0.3019-0.5021-0.5428-0.8711-0.7223c-0.2063-0.0979-0.5672-0.1469-1.0828-0.1469h-0.8223v8.5379
			c0,0.566,0.0311,0.9198,0.0937,1.0611c0.0623,0.1415,0.1844,0.2652,0.3663,0.3714c0.1818,0.106,0.4302,0.1592,0.745,0.1592h0.3664
			v0.3019h-5.7804v-0.3019H10.92c0.3202,0,0.578-0.0572,0.7734-0.1715c0.1411-0.0761,0.2524-0.2067,0.3338-0.3918
			c0.0597-0.1306,0.0896-0.4734,0.0896-1.0285v-8.5379H11.319c-0.7436,0-1.2837,0.1579-1.6201,0.4734
			c-0.4722,0.4408-0.7708,1.0692-0.8956,1.8856H8.4939v-2.9957H18.4101z"/>
	</g>
</g>
</svg>
