<?xml version="1.0" encoding="utf-8"?>
<!-- Generator: Adobe Illustrator 25.2.1, SVG Export Plug-In . SVG Version: 6.00 Build 0)  -->
<svg version="1.1" id="レイヤー_1" xmlns="http://www.w3.org/2000/svg" xmlns:xlink="http://www.w3.org/1999/xlink" x="0px"
	 y="0px" viewBox="0 0 22 32" style="enable-background:new 0 0 22 32;" xml:space="preserve">
<style type="text/css">
	.st0{fill:#F2F2F2;}
	.st1{fill:url(#SVGID_1_);}
	.st2{fill:url(#SVGID_2_);}
	.st3{fill:url(#SVGID_3_);}
	.st4{fill:#3C3C3C;}
	.st5{fill:none;stroke:#DCDCDC;stroke-miterlimit:10;}
	.st6{fill:none;stroke:url(#SVGID_4_);stroke-miterlimit:10;}
	.st7{fill:#EFEFF9;stroke:#B3B3BD;stroke-width:0.5;stroke-miterlimit:10;}
	.st8{fill:#EF3C3C;}
	.st9{opacity:0.8;}
	.st10{fill:#FFFFFF;stroke:#FFFFFF;stroke-width:0.5;stroke-miterlimit:10;}
	.st11{fill:#B3B3B3;}
	.st12{fill:#3232E5;}
	.st13{fill:none;stroke:#5A5A5A;stroke-miterlimit:10;}
	.st14{fill:#5A5A5A;}
	.st15{fill:none;stroke:#C8C8C8;stroke-miterlimit:10;}
	.st16{fill:none;stroke:url(#SVGID_5_);stroke-miterlimit:10;}
	.st17{fill:url(#SVGID_6_);}
	.st18{fill:none;}
	.st19{fill:#00958B;}
	.st20{fill:#1E1E1E;}
	
		.st21{fill:none;stroke:url(#SVGID_7_);stroke-width:2;stroke-linecap:round;stroke-linejoin:round;stroke-miterlimit:10;stroke-dasharray:0,4;}
	
		.st22{fill:none;stroke:url(#SVGID_8_);stroke-width:2;stroke-linecap:round;stroke-linejoin:round;stroke-miterlimit:10;stroke-dasharray:0,4;}
	
		.st23{fill:none;stroke:url(#SVGID_9_);stroke-width:2;stroke-linecap:round;stroke-linejoin:round;stroke-miterlimit:10;stroke-dasharray:0,4;}
	
		.st24{fill:none;stroke:url(#SVGID_10_);stroke-width:2;stroke-linecap:round;stroke-linejoin:round;stroke-miterlimit:10;stroke-dasharray:0,4;}
	
		.st25{fill:none;stroke:url(#SVGID_11_);stroke-width:2;stroke-linecap:round;stroke-linejoin:round;stroke-miterlimit:10;stroke-dasharray:0,4;}
	
		.st26{fill:none;stroke:url(#SVGID_12_);stroke-width:2;stroke-linecap:round;stroke-linejoin:round;stroke-miterlimit:10;stroke-dasharray:0,4;}
	
		.st27{fill:none;stroke:url(#SVGID_13_);stroke-width:2;stroke-linecap:round;stroke-linejoin:round;stroke-miterlimit:10;stroke-dasharray:0,4;}
	
		.st28{fill:none;stroke:url(#SVGID_14_);stroke-width:2;stroke-linecap:round;stroke-linejoin:round;stroke-miterlimit:10;stroke-dasharray:0,4;}
	
		.st29{fill:none;stroke:url(#SVGID_15_);stroke-width:2;stroke-linecap:round;stroke-linejoin:round;stroke-miterlimit:10;stroke-dasharray:0,4;}
	
		.st30{fill:none;stroke:url(#SVGID_16_);stroke-width:2;stroke-linecap:round;stroke-linejoin:round;stroke-miterlimit:10;stroke-dasharray:0,4;}
	
		.st31{fill:none;stroke:url(#SVGID_17_);stroke-width:2;stroke-linecap:round;stroke-linejoin:round;stroke-miterlimit:10;stroke-dasharray:0,4;}
	
		.st32{fill:none;stroke:url(#SVGID_18_);stroke-width:2;stroke-linecap:round;stroke-linejoin:round;stroke-miterlimit:10;stroke-dasharray:0,4;}
	
		.st33{fill:none;stroke:url(#SVGID_19_);stroke-width:2;stroke-linecap:round;stroke-linejoin:round;stroke-miterlimit:10;stroke-dasharray:0,4;}
	
		.st34{fill:none;stroke:url(#SVGID_20_);stroke-width:2;stroke-linecap:round;stroke-linejoin:round;stroke-miterlimit:10;stroke-dasharray:0,4;}
	
		.st35{fill:none;stroke:url(#SVGID_21_);stroke-width:2;stroke-linecap:round;stroke-linejoin:round;stroke-miterlimit:10;stroke-dasharray:0,4;}
	
		.st36{fill:none;stroke:url(#SVGID_22_);stroke-width:2;stroke-linecap:round;stroke-linejoin:round;stroke-miterlimit:10;stroke-dasharray:0,4;}
	
		.st37{fill:none;stroke:url(#SVGID_23_);stroke-width:2;stroke-linecap:round;stroke-linejoin:round;stroke-miterlimit:10;stroke-dasharray:0,4;}
	
		.st38{fill:none;stroke:url(#SVGID_24_);stroke-width:2;stroke-linecap:round;stroke-linejoin:round;stroke-miterlimit:10;stroke-dasharray:0,4;}
	
		.st39{fill:none;stroke:url(#SVGID_25_);stroke-width:2;stroke-linecap:round;stroke-linejoin:round;stroke-miterlimit:10;stroke-dasharray:0,4;}
	
		.st40{fill:none;stroke:url(#SVGID_26_);stroke-width:2;stroke-linecap:round;stroke-linejoin:round;stroke-miterlimit:10;stroke-dasharray:0,4;}
	
		.st41{fill:none;stroke:url(#SVGID_27_);stroke-width:2;stroke-linecap:round;stroke-linejoin:round;stroke-miterlimit:10;stroke-dasharray:0,4;}
	
		.st42{fill:none;stroke:url(#SVGID_28_);stroke-width:2;stroke-linecap:round;stroke-linejoin:round;stroke-miterlimit:10;stroke-dasharray:0,4;}
	
		.st43{fill:none;stroke:url(#SVGID_29_);stroke-width:2;stroke-linecap:round;stroke-linejoin:round;stroke-miterlimit:10;stroke-dasharray:0,4;}
	.st44{fill:#3071B9;}
	.st45{fill:none;stroke:#96DCF0;stroke-width:0.105;stroke-miterlimit:10;}
	.st46{fill:none;stroke:#96DCF0;stroke-width:0.42;stroke-miterlimit:10;}
	.st47{fill:#96DCF0;}
	.st48{opacity:0.5;fill:#F2F2F2;stroke:url(#SVGID_30_);stroke-miterlimit:10;}
	.st49{fill:none;stroke:#FFFFFF;stroke-width:3;stroke-miterlimit:10;}
	.st50{fill:url(#SVGID_31_);}
	.st51{fill:#FFFFFF;}
	.st52{fill:none;stroke:#1E1E1E;stroke-width:1.2;stroke-miterlimit:10;}
	.st53{fill:none;stroke:#1E1E1E;stroke-width:1.2;stroke-linecap:round;stroke-linejoin:round;stroke-miterlimit:10;}
	
		.st54{fill:none;stroke:url(#SVGID_32_);stroke-width:2;stroke-linecap:round;stroke-linejoin:round;stroke-miterlimit:10;stroke-dasharray:0,4;}
	.st55{fill:none;stroke:#FFFFFF;}
	.st56{fill:#F07832;}
</style>
<g>
	<path class="st7" d="M1.9767,7.4v20.4c0,0.8837,0.7163,1.6,1.6,1.6h14.8467c0.8837,0,1.6-0.7163,1.6-1.6V12.6297
		c0-0.8473-0.336-1.6599-0.9343-2.2598l-3.6204-3.6297C14.8683,6.1383,14.0531,5.8,13.203,5.8H3.5767
		C2.693,5.8,1.9767,6.5163,1.9767,7.4z"/>
	<g>
		<path class="st11" d="M13.5061,12.5575v2.9957H13.213c-0.1737-0.6912-0.3664-1.1877-0.578-1.4898
			c-0.2117-0.3019-0.5021-0.5428-0.8711-0.7223c-0.2063-0.0979-0.5672-0.1469-1.0828-0.1469H9.8588v8.5379
			c0,0.566,0.0311,0.9198,0.0937,1.0611c0.0623,0.1415,0.1844,0.2652,0.3663,0.3714c0.1818,0.106,0.4302,0.1592,0.745,0.1592h0.3664
			v0.3019H5.6497v-0.3019H6.016c0.3202,0,0.578-0.0572,0.7734-0.1715c0.1411-0.0761,0.2524-0.2067,0.3338-0.3918
			c0.0597-0.1306,0.0896-0.4734,0.0896-1.0285v-8.5379H6.415c-0.7436,0-1.2837,0.1579-1.6201,0.4734
			c-0.4722,0.4408-0.7708,1.0692-0.8956,1.8856H3.5899v-2.9957H13.5061z"/>
		<path class="st12" d="M18.4101,14.9175v2.9957H18.117c-0.1737-0.6912-0.3664-1.1877-0.578-1.4898
			c-0.2117-0.3019-0.5021-0.5428-0.8711-0.7223c-0.2063-0.0979-0.5672-0.1469-1.0828-0.1469h-0.8223v8.5379
			c0,0.566,0.0311,0.9198,0.0937,1.0611c0.0623,0.1415,0.1844,0.2652,0.3663,0.3714c0.1818,0.106,0.4302,0.1592,0.745,0.1592h0.3664
			v0.3019h-5.7804v-0.3019H10.92c0.3202,0,0.578-0.0572,0.7734-0.1715c0.1411-0.0761,0.2524-0.2067,0.3338-0.3918
			c0.0597-0.1306,0.0896-0.4734,0.0896-1.0285v-8.5379H11.319c-0.7436,0-1.2837,0.1579-1.6201,0.4734
			c-0.4722,0.4408-0.7708,1.0692-0.8956,1.8856H8.4939v-2.9957H18.4101z"/>
	</g>
</g>
</svg>
