<?xml version="1.0" encoding="utf-8"?>
<!-- Generator: Adobe Illustrator 25.2.1, SVG Export Plug-In . SVG Version: 6.00 Build 0)  -->
<svg version="1.1" id="レイヤー_1" xmlns="http://www.w3.org/2000/svg" xmlns:xlink="http://www.w3.org/1999/xlink" x="0px"
	 y="0px" viewBox="0 0 22 32" style="enable-background:new 0 0 22 32;" xml:space="preserve">
<style type="text/css">
	.st0{fill:#F5F5C8;}
	.st1{fill:#F5F5FF;}
	.st2{fill:#F5FFFF;}
	.st3{fill:none;stroke:#0067BD;stroke-miterlimit:10;}
	.st4{fill:#0067BD;}
	.st5{fill:#005AE6;}
	.st6{fill:#7828B4;}
	.st7{fill:#E61E50;}
	.st8{fill:#505064;}
	.st9{fill:#00966E;}
	.st10{fill:#1E1E28;}
	.st11{fill:none;stroke:#CDCDE1;stroke-miterlimit:10;}
	.st12{fill:url(#SVGID_1_);}
	.st13{fill:url(#SVGID_2_);}
	.st14{fill:#FFFF84;}
	.st15{fill:#EFEFF9;stroke:#B3B3BD;stroke-width:0.5;stroke-miterlimit:10;}
	.st16{fill:#B3B3B3;}
	.st17{fill:#3232E5;}
	.st18{fill:none;stroke:#FFFFFF;}
	.st19{fill:#F07832;}
	.st20{fill:none;stroke:#1E1E1E;stroke-width:1.2;stroke-miterlimit:10;}
	.st21{fill:none;stroke:#1E1E1E;stroke-width:1.2;stroke-linecap:round;stroke-linejoin:round;stroke-miterlimit:10;}
	.st22{fill:#EF3C3C;}
	.st23{fill:none;}
	.st24{fill:#00958B;}
	.st25{fill:#1E1E1E;}
	.st26{opacity:0.8;}
	.st27{fill:#FFFFFF;stroke:#FFFFFF;stroke-width:0.5;stroke-miterlimit:10;}
</style>
<g>
	<path class="st15" d="M1.9767,7.4v20.4c0,0.8837,0.7163,1.6,1.6,1.6h14.8467c0.8837,0,1.6-0.7163,1.6-1.6V12.6297
		c0-0.8473-0.336-1.6599-0.9343-2.2598l-3.6204-3.6297C14.8683,6.1383,14.0531,5.8,13.203,5.8H3.5767
		C2.693,5.8,1.9767,6.5163,1.9767,7.4z"/>
	<g>
		<path class="st16" d="M13.5061,12.5575v2.9957H13.213c-0.1737-0.6912-0.3664-1.1877-0.578-1.4898
			c-0.2117-0.3019-0.5021-0.5428-0.8711-0.7223c-0.2063-0.0979-0.5672-0.1469-1.0828-0.1469H9.8588v8.5379
			c0,0.566,0.0311,0.9198,0.0937,1.0611c0.0623,0.1415,0.1844,0.2652,0.3663,0.3714c0.1818,0.106,0.4302,0.1592,0.745,0.1592h0.3664
			v0.3019H5.6497v-0.3019H6.016c0.3202,0,0.578-0.0572,0.7734-0.1715c0.1411-0.0761,0.2524-0.2067,0.3338-0.3918
			c0.0597-0.1306,0.0896-0.4734,0.0896-1.0285v-8.5379H6.415c-0.7436,0-1.2837,0.1579-1.6201,0.4734
			c-0.4722,0.4408-0.7708,1.0692-0.8956,1.8856H3.5899v-2.9957H13.5061z"/>
		<path class="st17" d="M18.4101,14.9175v2.9957H18.117c-0.1737-0.6912-0.3664-1.1877-0.578-1.4898
			c-0.2117-0.3019-0.5021-0.5428-0.8711-0.7223c-0.2063-0.0979-0.5672-0.1469-1.0828-0.1469h-0.8223v8.5379
			c0,0.566,0.0311,0.9198,0.0937,1.0611c0.0623,0.1415,0.1844,0.2652,0.3663,0.3714c0.1818,0.106,0.4302,0.1592,0.745,0.1592h0.3664
			v0.3019h-5.7804v-0.3019H10.92c0.3202,0,0.578-0.0572,0.7734-0.1715c0.1411-0.0761,0.2524-0.2067,0.3338-0.3918
			c0.0597-0.1306,0.0896-0.4734,0.0896-1.0285v-8.5379H11.319c-0.7436,0-1.2837,0.1579-1.6201,0.4734
			c-0.4722,0.4408-0.7708,1.0692-0.8956,1.8856H8.4939v-2.9957H18.4101z"/>
	</g>
</g>
<g>
	<g>
		<path class="st18" d="M3.9277,2.54h2.7656c1.4551,0,2.6543,0.7974,2.6543,2.438c0,1.6455-1.1035,2.5054-2.7832,2.5054H5.5059
			v3.2285H3.9277V2.54z M5.5059,6.231h0.9258c0.8555,0,1.3223-0.3618,1.3223-1.2441c0-0.8169-0.5059-1.1851-1.2578-1.1851H5.5059
			V6.231z"/>
		<path class="st18" d="M8.7676,10.9517l2.3516-8.4038h1.0723l-2.3398,8.4038H8.7676z"/>
		<path class="st18" d="M18.0195,4.3833l-1.0801,0.144c-0.0449-0.2339-0.082-0.4053-0.1445-0.6304h-0.1895
			c-0.1074,0.2251-0.207,0.3965-0.3418,0.6035v0.1709h2.0703v1.1343h-2.0703v0.3062h2.4492v1.1704H17.75v0.3149h0.918v1.1704H17.75
			V9.668c0,0.522-0.0098,1.1343-0.6934,1.1343H15.75l-0.2344-1.3687h0.9824c0.1445,0,0.1895-0.0088,0.1895-0.2339V8.7676h-2.1523
			c0.2422,0.3511,0.4941,0.7021,0.6758,1.0894l-0.9453,0.9185c-0.2715-0.5586-0.5859-1.0986-0.9453-1.5938l0.5215-0.4141h-1.0254
			V7.5972h3.8711V7.2822H12.752V6.1118h2.4395V5.8057H13.166V4.6982l-0.5312-0.855c0.4414-0.5132,0.6855-1.0264,0.875-1.6655
			l1.1328,0.1167c-0.0273,0.1084-0.0625,0.2163-0.0898,0.3154h1.1074v0.729c0.207-0.3872,0.3613-0.7563,0.4688-1.1792l1.0625,0.0898
			c-0.0273,0.126-0.0645,0.2432-0.0996,0.3604h1.6211V3.897h-0.8477C17.9199,4.0684,17.9648,4.2031,18.0195,4.3833z M15.2734,3.9062
			L15.291,3.897h-0.2793c0.0547,0.1802,0.082,0.2612,0.127,0.4414l-1.0176,0.144c-0.0352-0.1802-0.082-0.3691-0.127-0.5581
			c-0.1348,0.2607-0.2773,0.5132-0.4492,0.7471h1.6465V4.374h0.7578L15.2734,3.9062z"/>
	</g>
	<g>
		<path class="st19" d="M3.9277,2.54h2.7656c1.4551,0,2.6543,0.7974,2.6543,2.438c0,1.6455-1.1035,2.5054-2.7832,2.5054H5.5059
			v3.2285H3.9277V2.54z M5.5059,6.231h0.9258c0.8555,0,1.3223-0.3618,1.3223-1.2441c0-0.8169-0.5059-1.1851-1.2578-1.1851H5.5059
			V6.231z"/>
		<path class="st19" d="M8.7676,10.9517l2.3516-8.4038h1.0723l-2.3398,8.4038H8.7676z"/>
		<path class="st19" d="M18.0195,4.3833l-1.0801,0.144c-0.0449-0.2339-0.082-0.4053-0.1445-0.6304h-0.1895
			c-0.1074,0.2251-0.207,0.3965-0.3418,0.6035v0.1709h2.0703v1.1343h-2.0703v0.3062h2.4492v1.1704H17.75v0.3149h0.918v1.1704H17.75
			V9.668c0,0.522-0.0098,1.1343-0.6934,1.1343H15.75l-0.2344-1.3687h0.9824c0.1445,0,0.1895-0.0088,0.1895-0.2339V8.7676h-2.1523
			c0.2422,0.3511,0.4941,0.7021,0.6758,1.0894l-0.9453,0.9185c-0.2715-0.5586-0.5859-1.0986-0.9453-1.5938l0.5215-0.4141h-1.0254
			V7.5972h3.8711V7.2822H12.752V6.1118h2.4395V5.8057H13.166V4.6982l-0.5312-0.855c0.4414-0.5132,0.6855-1.0264,0.875-1.6655
			l1.1328,0.1167c-0.0273,0.1084-0.0625,0.2163-0.0898,0.3154h1.1074v0.729c0.207-0.3872,0.3613-0.7563,0.4688-1.1792l1.0625,0.0898
			c-0.0273,0.126-0.0645,0.2432-0.0996,0.3604h1.6211V3.897h-0.8477C17.9199,4.0684,17.9648,4.2031,18.0195,4.3833z M15.2734,3.9062
			L15.291,3.897h-0.2793c0.0547,0.1802,0.082,0.2612,0.127,0.4414l-1.0176,0.144c-0.0352-0.1802-0.082-0.3691-0.127-0.5581
			c-0.1348,0.2607-0.2773,0.5132-0.4492,0.7471h1.6465V4.374h0.7578L15.2734,3.9062z"/>
	</g>
</g>
</svg>
