<?xml version="1.0" encoding="utf-8"?>
<!-- Generator: Adobe Illustrator 25.2.1, SVG Export Plug-In . SVG Version: 6.00 Build 0)  -->
<svg version="1.1" id="レイヤー_1" xmlns="http://www.w3.org/2000/svg" xmlns:xlink="http://www.w3.org/1999/xlink" x="0px"
	 y="0px" viewBox="0 0 36 36" style="enable-background:new 0 0 36 36;" xml:space="preserve">
<style type="text/css">
	.st0{fill:#1E1E28;}
	.st1{fill:#FFFFFF;}
	.st2{fill:#3071B9;}
	.st3{fill:#D80C18;}
</style>
<path class="st2" d="M18,0C2.8125,0,0,2.8125,0,18s2.8125,18,18,18s18-2.8125,18-18S33.1875,0,18,0z"/>
<g>
	<g>
		<path class="st1" d="M12.875,8.4712h3.1025l-0.1543,2.75h6.5352v2.707h-6.6885l-0.1768,3.3447h0.7041
			c0.8584,0,2.0469-0.0439,2.9043-0.1543c0.8359-0.1104,1.5186-0.2861,2.2666-0.7041l0.9463,2.5078
			c-1.0117,0.5723-1.6289,0.7266-2.7725,0.8584c-1.1885,0.1318-2.4639,0.1758-3.6309,0.1758h-0.5059
			c0,3.9609,0.0439,4.709,4.2686,4.709c2.5957,0,4.5762-0.3076,4.5762-3.3887c0-1.6719-0.4395-2.9482-1.0996-4.4443l2.707-0.792
			c0.8789,1.7158,1.4082,3.5859,1.4082,5.5449c0,4.9941-3.5654,5.8965-7.79,5.8965c-2.75,0-5.9189-0.3076-6.6885-3.498
			c-0.3086-1.3203-0.3525-2.6846-0.3525-4.0273H8.6504v-2.6836h3.873l0.1309-3.3447H8.9805v-2.707h3.7842L12.875,8.4712z"/>
	</g>
</g>
</svg>
