<?xml version="1.0" encoding="utf-8"?>
<!-- Generator: Adobe Illustrator 25.2.1, SVG Export Plug-In . SVG Version: 6.00 Build 0)  -->
<svg version="1.1" id="レイヤー_1" xmlns="http://www.w3.org/2000/svg" xmlns:xlink="http://www.w3.org/1999/xlink" x="0px"
	 y="0px" viewBox="0 0 36 36" style="enable-background:new 0 0 36 36;" xml:space="preserve">
<style type="text/css">
	.st0{fill:#1E1E28;}
	.st1{fill:#FFFFFF;}
	.st2{fill:#3071B9;}
	.st3{fill:#D80C18;}
	.st4{fill:#FF0000;}
</style>
<path class="st4" d="M18,0C2.8125,0,0,2.8125,0,18s2.8125,18,18,18s18-2.8125,18-18S33.1875,0,18,0z"/>
<g>
	<g>
		<path class="st1" d="M25.2158,13.8198H15.0518c-0.792,4.415-1.8115,8.7559-3.0576,13.0244H8.7822
			c1.3936-4.1064,2.4854-8.4404,3.2783-13.002H9.002v-2.7725H12.5c0.1025-0.7627,0.2051-1.5469,0.3086-2.3535h3.0801l-0.3525,2.3535
			h9.6797V13.8198z M27.0645,26.5796c-1.9072,0.3223-3.8867,0.4844-5.9404,0.4844c-2.0244,0-3.5713-0.3594-4.6416-1.0781
			c-1.0117-0.6748-1.5186-1.6201-1.5186-2.8379c0-1.1582,0.4697-2.3467,1.4082-3.5645h3.2998
			c-1.1445,1.2324-1.7158,2.2373-1.7158,3.0146c0,1.0996,1.1436,1.6494,3.4326,1.6494c1.832,0,3.7246-0.2266,5.6758-0.6816V26.5796z
			 M26.6016,18.1323H16.1953v-2.6621h10.4062V18.1323z"/>
	</g>
</g>
</svg>
