<?xml version="1.0" encoding="utf-8"?>
<!-- Generator: Adobe Illustrator 25.2.1, SVG Export Plug-In . SVG Version: 6.00 Build 0)  -->
<svg version="1.1" id="レイヤー_1" xmlns="http://www.w3.org/2000/svg" xmlns:xlink="http://www.w3.org/1999/xlink" x="0px"
	 y="0px" viewBox="0 0 36 36" style="enable-background:new 0 0 36 36;" xml:space="preserve">
<style type="text/css">
	.st0{fill:#1E1E28;}
	.st1{fill:#FFFFFF;}
	.st2{fill:#3071B9;}
	.st3{fill:#D80C18;}
	.st4{fill:#FF0000;}
</style>
<path class="st3" d="M18,0C2.8125,0,0,2.8125,0,18s2.8125,18,18,18s18-2.8125,18-18S33.1875,0,18,0z"/>
<g>
	<g>
		<path class="st1" d="M14.5166,23.6025c0.0771-0.1035,0.1299-0.1299,0.1816-0.1299s0.0781,0.0518,0.0781,0.1045
			c0,0.0518,0,0.0781-0.0264,0.1299c-0.0781,0.1562-0.1299,0.3379-0.207,0.5195c0.5977,0,2.9893-0.0254,2.9893-0.5459
			c0-0.1816-0.3115-0.3896-1.0654-0.5977c-2.2109-0.624-3.7705-1.4043-3.7705-2.9385c0-1.6895,1.9238-3.8223,4.5498-5.5898
			c0.5986-0.416,0.9102-0.7021,0.9102-0.9619c0-0.1045-0.0518-0.2344-0.1562-0.3379c-1.0391-1.1182-2.625-1.5088-2.625-3.5361
			c0-0.0527,0-1.04,0.2598-1.04c0.0781,0,0.1562,0.1035,0.1562,0.2852c0,2.1582,4.2637,2.8086,5.252,4.9404
			c0.1035,0.2344,0.1562,0.4424,0.1562,0.624c0,0.4424-0.3389,0.7021-0.9365,0.7021c-0.1562,0-0.3115-0.0264-0.4941-0.0518
			c-0.1562-0.0264-0.3379-0.0518-0.5205-0.0518c-2.625,0-5.9795,3.3535-5.9795,4.8877c0,0.5205,0.2861,0.9365,0.9619,1.2227
			c0.9102,0.3633,2.2617,0.4932,3.4062,0.7012c1.8721,0.3379,2.834,1.0664,2.834,1.7168c0,0.6758-1.0664,1.2998-3.2246,1.2998
			c-0.1035,0-0.207,0-0.3379,0c-0.7539,0-1.6641-0.0781-2.5742-0.1562c-0.1299,0.3896-0.207,0.7539-0.207,1.0918
			c0,0.1826,0.0254,0.3389,0.0771,0.4688s0.0518,0.2334,0.0518,0.3379c0,0.4678-0.4941,0.624-1.0137,0.624
			c-1.248,0-3.5625-1.3525-3.5625-2.3398c0-0.7285,1.1699-0.7803,2.4961-0.7803c0.5986,0,1.248,0,1.873,0.0254L14.5166,23.6025z
			 M11.2656,24.5908c-0.6494,0-0.7793,0.1299-0.7793,0.2344c0,0.3115,1.1445,0.7539,1.9502,0.7539
			c0.5195,0,0.6494-0.1299,1.2217-0.832C12.7227,24.6689,11.8125,24.5908,11.2656,24.5908z M28.5049,23.1865
			c-0.4424-0.4414-1.2217-0.8574-2.2881-0.8574c-0.208,0-0.3379-0.0527-0.3379-0.1299c0-0.0527,0.0781-0.1045,0.2861-0.1299
			c0.7803-0.1309,1.1182-0.3906,1.1182-0.7021c0-0.6768-1.5078-1.5342-3.7188-1.5342c-0.3896,0-0.5459-0.0527-0.5459-0.1299
			c0-0.2861,1.8721-0.3125,2.1318-0.3125c3.4326,0,4.7852,1.6123,4.7852,2.8604c0,0.208-0.0527,1.1436-0.8848,1.1436
			C28.8428,23.3945,28.6348,23.3174,28.5049,23.1865z"/>
	</g>
</g>
</svg>
