<?xml version="1.0" encoding="utf-8"?>
<!-- Generator: Adobe Illustrator 25.2.1, SVG Export Plug-In . SVG Version: 6.00 Build 0)  -->
<svg version="1.1" id="レイヤー_1" xmlns="http://www.w3.org/2000/svg" xmlns:xlink="http://www.w3.org/1999/xlink" x="0px"
	 y="0px" viewBox="0 0 36 36" style="enable-background:new 0 0 36 36;" xml:space="preserve">
<style type="text/css">
	.st0{fill:#1E1E28;}
	.st1{fill:#FFFFFF;}
</style>
<path class="st0" d="M18,0C2.8125,0,0,2.8125,0,18s2.8125,18,18,18s18-2.8125,18-18S33.1875,0,18,0z"/>
<g>
	<g>
		<path class="st1" d="M15.3398,14.2759c-1.1484,0.2803-1.5962,0.3643-1.8481,0.3643c-0.7002,0-1.54-0.3916-2.0439-0.9795
			c-0.2241-0.2803-0.3081-0.5049-0.3359-0.9521c0.1118-0.0283,0.2236-0.0283,0.3076-0.0283c0.1685,0,0.1963,0.0283,0.6724,0.2803
			c0.252,0.1396,0.7559,0.2793,1.0356,0.2793c0.3364,0,1.4844-0.3359,2.1001-0.6436c0.168-0.084,0.2803-0.168,0.4482-0.3643
			c0.1118-1.0361,0.1118-1.0361,0.1118-1.2598c0-0.6162-0.1401-1.0361-0.3921-1.1484c-0.1958-0.1113-0.3359-0.1953-0.3359-0.2236
			c-0.084-0.168-0.084-0.168-0.252-0.3076c0.3081-0.6162,0.5322-0.7285,1.3159-0.7285c0.4482,0,0.896,0.168,1.8203,0.7559
			c0.1118,0.252,0.168,0.3643,0.168,0.5322s0,0.168-0.1401,0.5605v0.3076v0.252c0.2241-0.0283,0.4199-0.084,0.4761-0.1123
			l0.5039-0.1953c0.6719-0.0566,0.9521-0.084,0.9521-0.084c0.0557,0,0.1396,0.0273,0.2798,0.084
			c0.2798,0.1953,0.3359,0.252,0.4761,0.4756v0.168c0,0.4199-0.4482,0.7842-1.54,1.1758c-0.98,0.3359-1.1758,0.4482-1.9038,0.8682
			c-0.084,0.5879-0.084,0.6719-0.1401,1.2041c0.1401-0.0283,0.2798-0.0557,0.3081-0.0557c1.6519-0.4199,1.7637-0.4199,2.52-0.4199
			c1.624,0,3.1357,0.4199,4.0317,1.1475c1.3442,1.0361,2.1841,2.5762,2.1841,3.8926c0,1.1475-0.168,2.1836-0.4761,2.7432
			c-1.1201,2.1562-2.604,3.4727-4.8999,4.3125c-0.0562,0.0283-0.252,0.1123-0.4482,0.1963
			c-1.2876,0.5039-2.8838,0.9795-3.8359,1.0635l-0.1118-0.084v-0.3076c0.2241-0.084,0.3638-0.168,0.3921-0.168l1.2598-0.6445
			c2.4922-1.0918,2.4922-1.0918,3.0522-1.4561c0.9517-0.6436,1.9316-1.6797,2.688-2.8555c0.5601-0.8965,0.7837-1.5127,0.7837-2.3242
			c0-2.7441-1.6797-4.3398-4.6758-4.4521c0.3921,0.4482,0.6157,0.9521,0.6157,1.3164c0,0.5879-0.1118,0.8115-0.7559,1.5957
			l-0.1958,0.2236c-0.4761,0.5889-0.7559,0.8682-1.54,1.5684c-0.1963,0.1963-0.3921,0.3643-0.5039,0.5039l-0.3921,0.3926v0.3633
			v0.0566l0.1958,1.2314c-0.0278,0.3926-0.5601,0.7842-1.1196,0.7842c-0.3643,0-0.5322-0.1396-1.1484-0.7842
			c-0.3638,0.252-0.5879,0.3926-0.6997,0.4482l-0.8682,0.3916c-1.0078,0.5039-1.6519,0.7559-1.9878,0.7559
			c-0.728,0-1.5679-0.6992-1.5679-1.3154c0-1.5684,0.3916-2.6045,1.3716-3.752c0.4482-0.5322,1.4282-1.4561,1.876-1.792
			c1.7363-1.2881,1.7363-1.2881,2.1562-1.6523l0.0278-0.6162L15.3398,14.2759z M12.1758,22.1157
			c0.6157-0.0557,0.7559-0.1113,1.0918-0.3076c0.1401-0.1123,0.2803-0.1963,0.4199-0.252c0.896-0.5322,0.9521-0.5879,1.3442-1.1758
			c0.0557-0.2246,0.084-0.4482,0.084-0.5322s0-0.1963-0.0283-0.4482V18.98v-0.7002l0.0283-1.1758
			c-0.5039,0.0566-0.5039,0.0566-1.9883,1.2041c-0.98,0.7842-1.4839,1.5957-1.4839,2.5479c0,0.1406,0.0283,0.2803,0.084,0.4482
			l0.168,0.4199L12.1758,22.1157z M18.0557,15.1724c-0.5039,0-0.7842,0.1123-1.2041,0.5879
			c-0.1401,1.8477-0.1401,1.8477-0.1401,2.1279c0,0.1963,0,0.5322,0.0283,0.9521c1.5679-1.4004,2.0161-2.0439,2.0161-2.8564
			c0-0.2793-0.0845-0.4756-0.3921-0.8115H18.0557z"/>
	</g>
</g>
</svg>
