<?xml version="1.0" encoding="utf-8"?>
<!-- Generator: Adobe Illustrator 25.2.1, SVG Export Plug-In . SVG Version: 6.00 Build 0)  -->
<svg version="1.1" id="レイヤー_1" xmlns="http://www.w3.org/2000/svg" xmlns:xlink="http://www.w3.org/1999/xlink" x="0px"
	 y="0px" viewBox="0 0 36 36" style="enable-background:new 0 0 36 36;" xml:space="preserve">
<style type="text/css">
	.st0{fill:#1E1E28;}
	.st1{fill:#FFFFFF;}
</style>
<path class="st0" d="M18,0C2.8125,0,0,2.8125,0,18s2.8125,18,18,18s18-2.8125,18-18S33.1875,0,18,0z"/>
<g>
	<g>
		<path class="st1" d="M16.0215,14.9399c1.1001-0.2197,2.0903-0.3301,3.1904-0.3301c4.0483,0,8.0088,1.8047,8.0088,6.4248
			c0,2.7285-1.4302,4.4893-3.9604,5.4131c-1.3423,0.4844-2.7505,0.6387-4.1807,0.7041l-0.5059-1.8262
			c2.9702-0.0664,6.645-0.7256,6.645-4.4668c0-1.2764-0.5063-2.5518-1.5845-3.2998c-0.77-0.5508-1.584-0.8145-2.4863-1.0791
			c-0.7261,2.6406-1.8262,5.4131-3.8506,7.3496c-1.3643,1.2979-2.9702,2.2666-4.9067,2.2666c-2.2881,0-3.5425-1.8711-3.5425-4.0049
			c0-2.4209,1.3643-4.4668,3.4106-5.6992c0.6162-0.374,1.21-0.6377,1.8701-0.9014c-0.022-0.8809-0.022-1.7822-0.022-2.6631v-0.2422
			H9.4644v-1.8037h4.6426V8.5815h1.9585l-0.022,2.2002H26.561v1.8037H16.0215V14.9399z M14.1948,17.2944
			c-1.8921,0.8584-3.5645,2.5303-3.5645,4.7305c0,1.1885,0.6602,2.2451,1.9585,2.2451c0.9902,0,1.8262-0.375,2.6401-0.9248
			C14.5913,21.4976,14.3271,19.231,14.1948,17.2944z M19.4097,16.2603c-0.1318-0.0215-0.2861-0.0215-0.4399-0.0215
			c-0.9683,0-1.9805,0.1533-2.9263,0.418c0.0879,1.9355,0.1758,3.4102,0.6821,5.3027
			C18.0454,20.4634,18.8379,18.1528,19.4097,16.2603z"/>
	</g>
</g>
</svg>
