<?xml version="1.0" encoding="utf-8"?>
<!-- Generator: Adobe Illustrator 25.2.1, SVG Export Plug-In . SVG Version: 6.00 Build 0)  -->
<svg version="1.1" id="レイヤー_1" xmlns="http://www.w3.org/2000/svg" xmlns:xlink="http://www.w3.org/1999/xlink" x="0px"
	 y="0px" viewBox="0 0 36 36" style="enable-background:new 0 0 36 36;" xml:space="preserve">
<style type="text/css">
	.st0{fill:#1E1E28;}
	.st1{fill:#FFFFFF;}
</style>
<path class="st0" d="M18,0C2.8125,0,0,2.8125,0,18s2.8125,18,18,18s18-2.8125,18-18S33.1875,0,18,0z"/>
<g>
	<g>
		<path class="st1" d="M19.498,15.0718c2.0459,0,4.1362,0.4189,5.7646,1.7168c1.3203,1.0781,2.0244,2.75,2.0244,4.4229
			c0,3.3223-2.2227,5.1484-5.3252,5.9404c-0.7261,0.1758-1.8921,0.418-2.332,0.418c-0.5503,0-0.9023-0.418-0.9023-0.9678
			c0-0.5723,0.3081-0.7041,0.9902-0.792c2.6187-0.3301,5.6768-1.4746,5.6768-4.6426c0-2.0908-1.3862-3.543-3.3223-4.0928
			c-1.0562,2.7725-2.7065,5.3682-4.9287,7.3486c0.1318,0.374,0.396,1.1885,0.396,1.3428c0,0.4834-0.4619,0.8135-0.9023,0.8135
			c-0.5718,0-0.792-0.5713-0.9678-1.0117c-1.0122,0.6602-2.1567,1.1221-3.3887,1.1221c-2.2441,0-3.6523-1.54-3.6523-3.7627
			c0-3.4326,3.0801-5.8311,6.0068-6.9746c0.0439-0.9463,0.1758-1.8701,0.2856-2.8164c-0.8359,0-1.6719,0.0215-2.5303,0.0215
			c-0.5498,0-1.6943,0-2.1782-0.0879c-0.374-0.0654-0.5278-0.5059-0.5278-0.8584c0-0.5498,0.374-0.9238,0.9238-0.9238
			c1.0781,0,2.1562,0.0879,3.2344,0.0879h1.3423c0.1543-0.9023,0.3081-1.8037,0.5723-2.6621
			c0.1538-0.4619,0.3301-0.748,0.8579-0.748c0.4844,0,1.0122,0.2422,1.0122,0.7695c0,0.375-0.4839,2.0684-0.5942,2.5752
			c2.3545-0.1543,4.709-0.4404,7.019-0.8584c0.3081-0.0439,0.6162-0.1104,0.9023-0.1104c0.5278,0,0.8359,0.418,0.8359,0.9248
			c0,0.8135-0.7261,0.9014-1.98,1.0781c-2.3545,0.3301-4.731,0.5713-7.1289,0.7256c-0.1104,0.792-0.2202,1.584-0.3081,2.376
			C17.4077,15.2046,18.4414,15.0718,19.498,15.0718z M10.3887,22.8833c0,1.166,0.6157,2.0459,1.8481,2.0459
			c1.0562,0,2.0464-0.4619,2.9043-1.0557c-0.4399-1.8047-0.5942-3.6963-0.5942-5.5449v-0.5283
			C12.5669,18.7026,10.3887,20.5073,10.3887,22.8833z M16.2632,18.395c0,1.4082,0.1104,2.8379,0.374,4.2246
			c1.6284-1.6289,2.8608-3.6973,3.6528-5.8535c-0.2642-0.0215-0.5283-0.0215-0.8145-0.0215c-1.0781,0-2.1562,0.1758-3.2124,0.4395
			V18.395z"/>
	</g>
</g>
</svg>
