<?xml version="1.0" encoding="utf-8"?>
<!-- Generator: Adobe Illustrator 25.2.1, SVG Export Plug-In . SVG Version: 6.00 Build 0)  -->
<svg version="1.1" id="レイヤー_1" xmlns="http://www.w3.org/2000/svg" xmlns:xlink="http://www.w3.org/1999/xlink" x="0px"
	 y="0px" viewBox="0 0 36 36" style="enable-background:new 0 0 36 36;" xml:space="preserve">
<style type="text/css">
	.st0{fill:#1E1E28;}
	.st1{fill:#FFFFFF;}
</style>
<path class="st0" d="M18,0C2.8125,0,0,2.8125,0,18s2.8125,18,18,18s18-2.8125,18-18S33.1875,0,18,0z"/>
<g>
	<g>
		<path class="st1" d="M12.3662,12.6421c0.2759-0.0234,0.7817-0.0693,1.4717-0.1377c0.644-0.0459,0.8506-0.0459,1.9775-0.0928
			c0.1152-0.4824,0.1611-0.8965,0.1841-1.3564c0.0229-0.6895,0.0688-0.9658,0.1606-1.1035
			c0.1841-0.2529,0.5981-0.4141,1.0811-0.4141c0.5059,0,0.8047,0.1611,0.8047,0.4375c0,0.1602-0.0229,0.2988-0.207,0.8506
			c-0.1147,0.3672-0.207,0.6895-0.3906,1.5635l0.5747-0.0234h0.8047l0.8281-0.0225h0.7358h0.7588h1.3335
			c0.2988-0.0234,0.5518-0.0234,0.5981-0.0234c0.8965,0,1.4253,0.0234,1.6787,0.0693c0.3677,0.0693,0.4824,0.1377,0.4824,0.3447
			c0,0.5977-0.7124,1.2881-1.3335,1.2881c-0.0229,0-0.0688,0-0.1382-0.0234c-0.0688,0-0.2065,0-0.4136-0.0225
			c-0.1611,0-0.3452-0.0234-0.6211-0.0459c-0.0688,0-0.4829-0.0234-1.2188-0.0928l-0.8735-0.0684
			c-0.6899-0.0234-0.897-0.0234-1.1499-0.0234c-0.1841,0-0.437,0-0.7817,0.0234h-0.46h-0.6211l-0.4595,0.0225
			c-0.2764,1.1045-0.4141,1.9551-0.5063,3.0352c0.8052-0.2295,0.9893-0.2529,2.0239-0.2529l0.46-0.0225h0.3218
			c0.1147-0.2529,0.1377-0.3906,0.1377-0.6211c0-0.1152,0-0.1152-0.0229-0.2754c-0.0229-0.0693-0.0459-0.2305-0.0459-0.2998
			c0-0.2988,0.1611-0.4131,0.5752-0.459c0.6206,0.1143,0.8965,0.4824,0.8965,1.1953c0,0.1611,0,0.2529-0.0459,0.5518
			c1.5405,0.1611,2.5063,0.4365,3.5874,1.0352c1.4717,0.8271,2.1152,1.8623,2.1152,3.4258c0,1.6787-0.8047,3.0586-2.3452,4.0469
			c-1.1729,0.7822-2.7363,1.3115-3.7485,1.3115c-0.8965,0-1.2876-0.1387-2.0234-0.7588c-0.1841-0.2305-0.2759-0.4834-0.2759-0.6445
			c0-0.0918,0.0918-0.2295,0.1841-0.207l0.9199,0.0693c0.1147,0,1.7935-0.3447,2.0005-0.4365
			c2.2993-0.8057,3.4492-2.001,3.4492-3.5645c0-1.8164-1.4028-2.9668-4.1162-3.4033c-0.7588,1.6553-2.1157,3.748-3.1963,4.9902
			c0.3447,0.6201,0.5059,0.9658,0.5059,1.1953c0,0.3223-0.5518,0.7822-0.9658,0.7822c-0.1611,0-0.3447-0.0693-0.46-0.1611
			c-0.0459-0.0459-0.0918-0.0918-0.1606-0.1846c-0.1611-0.2295-0.1611-0.2295-0.2993-0.4131
			c-0.8506,0.9883-3.0352,2.1377-4.1157,2.1377c-1.541,0-2.6904-1.2871-2.6904-3.0117c0-1.4492,0.6895-2.668,2.2764-3.9326
			c1.0347-0.8271,1.9775-1.333,3.4722-1.8398c0.1147-1.0576,0.2988-2.2305,0.5059-3.2646
			c-1.5635,0.0459-2.5981,0.1836-4.1162,0.5977c-0.23,0.0693-0.4365,0.1152-0.5288,0.1377l-0.3677,0.1152l-0.1152,0.0234
			c-0.3447-0.0459-0.4136-0.1611-0.4136-0.8057c0-0.2295,0.3447-0.7354,0.6436-0.9883c0.23-0.1611,0.2759-0.1836,0.9888-0.1836
			h0.1382l0.3447-0.0459L12.3662,12.6421z M15.0107,18.4136c-2.5063,1.1035-4.0015,2.875-3.9321,4.5996v0.0918
			c0,0.6436,0.46,1.0576,1.1724,1.0576c0.9199,0,1.4951-0.3447,3.3574-1.9551c-0.437-1.333-0.5977-2.3223-0.5977-3.5176V18.4136z
			 M16.5972,17.9077c-0.0459,0.3447-0.0688,0.6904-0.0688,0.8506c0,0.7129,0.1377,1.541,0.3911,2.1621
			c0.7124-0.874,1.3105-1.7939,2.2534-3.4727C18.1377,17.4937,17.0112,17.7007,16.5972,17.9077z"/>
	</g>
</g>
</svg>
