<?xml version="1.0" encoding="utf-8"?>
<!-- Generator: Adobe Illustrator 25.2.1, SVG Export Plug-In . SVG Version: 6.00 Build 0)  -->
<svg version="1.1" id="レイヤー_1" xmlns="http://www.w3.org/2000/svg" xmlns:xlink="http://www.w3.org/1999/xlink" x="0px"
	 y="0px" viewBox="0 0 36 36" style="enable-background:new 0 0 36 36;" xml:space="preserve">
<style type="text/css">
	.st0{fill:#1E1E28;}
	.st1{fill:#FFFFFF;}
</style>
<path class="st0" d="M18,0C2.8125,0,0,2.8125,0,18s2.8125,18,18,18s18-2.8125,18-18S33.1875,0,18,0z"/>
<g>
	<g>
		<path class="st1" d="M15.9717,12.6597v-1.0801c0-1.417-0.2402-2.2568-1.0801-3.9365l0.1919-0.168
			c1.3203,0.6963,3.2163,2.1602,3.2163,2.4717c0,0.0967-0.0718,0.2158-0.168,0.3848c-0.3359,0.3838-0.5522,1.2715-0.6479,2.7119
			l1.6079-0.2158c1.9922-0.2646,2.8564-0.6484,3.8164-1.7529c1.104,0.9365,1.728,1.6328,1.728,1.873
			c0,0.1436,0,0.1436-2.9761,0.5273l-4.2246,0.5527c-0.0479,1.0078-0.0479,1.2236-0.0718,2.4717
			c0.8159-0.1201,0.936-0.1201,1.8003-0.2158c-0.144-0.6006-0.2402-0.8398-0.5522-1.584l0.168-0.1445
			c0.8164,0.4082,1.2002,0.7207,1.9683,1.6328c1.6084,0.2637,2.3765,0.5273,3.3604,1.1279c1.5122,0.9355,2.376,2.4482,2.376,4.1523
			c0,2.3037-1.4878,4.2002-4.3682,5.5918c-1.584,0.7441-2.8081,1.1045-4.9204,1.4648l-0.144-0.3359
			c1.9199-0.7207,2.8081-1.1289,3.9604-1.8242c2.4243-1.4883,3.6484-3.1445,3.6484-4.9932c0-1.1514-0.4082-2.1836-1.2002-2.9277
			c-0.6001-0.5762-1.1523-0.8643-2.3281-1.1523c-0.1924,0.3125-0.3604,0.6006-0.4082,0.6963L20.1719,19.02
			c-0.8398,1.6562-1.6079,2.7842-2.8081,4.1758c0.0479,0.9365,0.0479,1.2246,0.0962,1.5361
			c0.0239,0.2646,0.0479,0.5049,0.0479,0.624c0,0.3125-0.1919,0.5527-0.4561,0.5527c-0.3838,0-0.7681-0.2881-1.248-0.9365
			c-1.9683,1.584-2.6162,1.9688-3.3843,1.9688c-1.1284,0-2.04-1.5361-2.04-3.457c0-1.6562,0.5757-3.0723,1.728-4.3438
			c1.0322-1.1279,2.0161-1.7285,3.8164-2.3047l0.0239-2.5918l-2.1362,0.2881c-1.728,0.2393-2.2563,0.3359-3.0483,0.5518
			c-0.624-0.5039-1.0083-0.8877-1.248-1.248l0.0479-0.0957c0.3843,0.0234,0.6724,0.0234,0.8643,0.0234
			c0.624,0,2.7603-0.168,3.7681-0.3115l1.7524-0.2168L15.9717,12.6597z M11.9634,23.5083c0,1.2002,0.2881,1.9678,0.7441,1.9678
			c0.48,0,1.584-0.7676,2.8799-1.9922c0.144-2.3516,0.1685-2.832,0.2402-5.6641C13.3076,18.8276,11.9634,20.7964,11.9634,23.5083z
			 M17.3398,17.3638c-0.0962,1.9922-0.0962,2.2803-0.1201,4.0322c0.936-1.3916,1.4644-2.4961,1.9922-4.2959
			C18.4678,17.1235,18.1079,17.1714,17.3398,17.3638z"/>
	</g>
</g>
</svg>
