<?xml version="1.0" encoding="utf-8"?>
<!-- Generator: Adobe Illustrator 25.2.1, SVG Export Plug-In . SVG Version: 6.00 Build 0)  -->
<svg version="1.1" id="レイヤー_1" xmlns="http://www.w3.org/2000/svg" xmlns:xlink="http://www.w3.org/1999/xlink" x="0px"
	 y="0px" viewBox="0 0 36 36" style="enable-background:new 0 0 36 36;" xml:space="preserve">
<style type="text/css">
	.st0{fill:#1E1E28;}
	.st1{fill:#FFFFFF;}
</style>
<path class="st0" d="M18,0C2.8125,0,0,2.8125,0,18s2.8125,18,18,18s18-2.8125,18-18S33.1875,0,18,0z"/>
<g>
	<g>
		<path class="st1" d="M20.394,16.6001c3.2759,0,6.1597,0.8398,6.1597,4.5078c0,3.7246-4.0317,6.5527-7.8677,7.1123
			c1.1758-0.9238,2.3521-1.9043,3.3877-2.9961c1.2324-1.3164,2.2124-2.7998,2.2124-4.3682c0-2.1279-1.876-2.6318-3.5-2.6318
			c-0.252,0-0.5322,0.0283-0.896,0.0557c-0.5884,0.7285-3.6401,5.4326-3.8643,5.9082c0.084,0.3643,0.1963,0.7559,0.2803,1.1758
			c0.084,0.4209,0.168,0.8408,0.168,1.1768c0,0.3076-0.0562,0.6152-0.3081,0.9795c-0.812-0.0283-1.2319-0.6162-1.708-1.4561
			c-0.7559,0.6719-1.7358,1.2881-2.52,1.2881c-0.252,0-0.4199-0.0557-0.5879-0.1963c-0.2241-0.5312-0.728-0.8955-1.1479-1.2598
			c-0.4199-0.3916-0.7563-0.7559-0.7563-1.2881c0-2.7441,2.856-4.5361,4.9004-5.8516l0.4756-2.7441l-0.9517,0.168
			c-1.0083-0.168-1.96-0.7002-2.856-1.624h0.2798c1.4839,0,2.6318-0.1396,4.0601-1.2881c0.2241-1.1758,0.9238-4.3682,1.5122-5.1797
			c0.4199-0.1396,0.8398-0.3086,1.3159-0.3086c0.168,0,0.2798,0,0.3916,0.1123c-0.0557,0.1963-0.1118,0.3926-0.1118,0.5879
			c0,0.3086,0.0562,0.4766,0.168,0.7559c0.3643,0.7842,0.728,1.1484,1.1479,1.3721c0.3921,0.1963,0.8403,0.3359,1.4839,0.6719
			c0.084,0.1406,0.1123,0.2246,0.1123,0.3369c0,1.0078-4.144,3.0518-5.208,3.5c-0.168,1.0352-0.3081,1.876-0.4199,3.0518
			l2.4639-1.0361V17.02v-0.0557c0-0.0283,0.0278-0.084,0.0278-0.1406c0-0.3916-0.1958-0.6719-0.4199-0.9512l-0.1401-0.168
			c0.5601-0.2246,0.9805-0.3086,1.3721-0.3086c0.4761,0,0.8682,0.1963,1.3721,0.5322L20.394,16.6001z M14.1221,21.8364
			c0-0.3926,0-0.8125,0.0557-1.54c-1.5117,0.9795-3.4717,2.5479-3.4717,4.1719c0,0.7842,1.0078,1.3164,1.7642,1.4277
			c0.6997-0.168,1.3716-0.7559,1.8198-1.3721C14.1777,23.5444,14.1221,22.7046,14.1221,21.8364z M16.502,19.2603
			c-0.2798,0.1123-0.5322,0.252-0.8682,0.4482c0,0.7842,0.0562,1.3721,0.3081,2.4355c0.7842-1.0635,1.2881-2.1279,1.7642-3.3877
			C17.0898,19.0083,16.7817,19.1479,16.502,19.2603z M18.21,9.6284c-0.6719,1.0078-0.9521,1.7637-1.3159,2.9395
			c0.812-0.5039,1.3438-0.8672,1.792-1.3994C18.5459,10.6919,18.3779,10.356,18.21,9.6284z"/>
	</g>
</g>
</svg>
