<?xml version="1.0" encoding="utf-8"?>
<!-- Generator: Adobe Illustrator 25.2.1, SVG Export Plug-In . SVG Version: 6.00 Build 0)  -->
<svg version="1.1" id="レイヤー_1" xmlns="http://www.w3.org/2000/svg" xmlns:xlink="http://www.w3.org/1999/xlink" x="0px"
	 y="0px" viewBox="0 0 36 36" style="enable-background:new 0 0 36 36;" xml:space="preserve">
<style type="text/css">
	.st0{fill:#1E1E28;}
	.st1{fill:#FFFFFF;}
</style>
<path class="st0" d="M18,0C2.8125,0,0,2.8125,0,18s2.8125,18,18,18s18-2.8125,18-18S33.1875,0,18,0z"/>
<g>
	<g>
		<path class="st1" d="M15.0112,14.8315l-2.1841,0.4561c-0.144,0.0244-0.3359,0.0479-0.5039,0.0479
			c-0.5044,0-0.9844-0.2158-1.3921-0.4795c-0.3604-0.2402-0.5044-0.5762-0.5044-1.0322c0-0.0723,0-0.1201,0.0723-0.1924
			c0.3838,0.0479,0.792,0.0967,1.1758,0.0967c0.9844,0,2.6162-0.2881,3.5522-0.5527c0.144-0.0479,0.2163-0.1201,0.2402-0.2637
			l0.3359-2.6162c0.0483-0.4082,0.0962-0.8164,0.0962-1.2002c0-0.2881-0.0479-0.5518-0.1201-0.8164
			c0.1201-0.0713,0.2163-0.0957,0.3599-0.0957c0.8164,0,1.7046,0.8643,1.7046,1.6797c0,0.3125-0.1201,0.624-0.1924,0.9121
			c-0.2397,0.8408-0.3838,1.4404-0.3838,1.6807c0,0.0723,0,0.1436,0.0239,0.2158c0.7202,0,2.2563-0.624,2.9282-0.96
			c0.312-0.168,0.624-0.3125,1.0083-0.3125c0.5278,0,1.2241,0.3848,1.2241,0.9844c0,0.6006-0.7681,0.8398-1.2241,0.9844
			c-1.3442,0.4561-2.7603,0.7676-4.1523,1.0557l-0.1201,0.1445l-0.2163,1.9678c-0.0718,0.5283-0.144,1.0801-0.144,1.6084
			c0,0.1201,0.0244,0.2402,0.0483,0.3604l0.144,0.0234l1.9922-0.624c0.2397-0.0723,0.3599-1.0801,0.3599-1.2959
			c0-0.1924-0.0239-0.3838-0.0479-0.6006c0.0957-0.0234,0.168-0.0713,0.2637-0.0713c0.7441,0,1.5361,0.9355,1.6802,1.584
			c0.0239,0.0957,0.1201,0.1436,0.2881,0.168c0.2163,0.0244,0.5522,0.0479,0.8882,0.0957c0.8882,0.1445,1.728,0.5527,2.4722,1.0801
			c1.2002,0.8643,1.9204,2.1602,1.9204,3.6729c0,1.3682-0.5762,2.6875-1.5845,3.624c-1.0317,0.9844-2.6401,1.6562-4.0083,1.6562
			c-0.168,0-0.312,0-0.48-0.0244c-0.0239,0-0.0479-0.0234-0.0479-0.0479c0-0.0723,0.168-0.1436,0.3359-0.2158
			c0.6001-0.2637,1.1519-0.624,1.6802-1.0322c1.272-1.0078,2.1602-2.2803,2.1602-3.96c0-2.2803-1.9683-3.3848-4.0562-3.3848
			c-0.3364,0-0.4082,0.1445-0.6001,0.5283c-0.936,1.7041-1.7046,2.9043-2.9766,4.416c-0.1201,0.1445-0.2642,0.2646-0.2642,0.4082
			c0,0.0244,0,0.0479,0.0244,0.168l0.3599,1.7764c0.0239,0.0957,0.0239,0.2158,0.0239,0.3115
			c-0.0239,0.4805-0.2881,0.9609-0.8159,0.9609c-0.48,0-0.7681-0.3604-0.96-0.6963c-0.1685-0.3125-0.2642-0.6484-0.3843-0.9121
			h-0.1201c-1.0562,0.6719-2.1118,1.4883-3.4082,1.4883c-0.7202,0-1.248-0.4561-1.4639-1.1045l-0.5522-1.6797
			c-0.0479-0.1445-0.0718-0.2646-0.0718-0.4082c0-1.5605,3.7441-4.1045,4.8721-4.7285c0.2881-0.168,0.5522-0.2158,0.6001-0.4805
			c0.0723-0.4795,0.1919-2.376,0.2642-2.9756c0.0239-0.3125,0.0479-0.624,0.0479-0.9121c0-0.168-0.0239-0.3125-0.0239-0.4805
			H15.0112z M13.0913,22.2007c-0.6001,0.4561-1.9443,1.4639-1.9443,2.2803c0,0.3359,0.0962,0.8154,0.2642,1.1035
			c0.0957,0.168,0.312,0.2637,0.5039,0.2637c0.7441,0,1.4639-0.5273,2.0161-0.96c0.3359-0.2881,0.936-0.5996,0.936-1.0801
			c0-0.4561-0.0479-2.3516-0.1201-2.6875C14.1714,21.2886,13.5713,21.8159,13.0913,22.2007z M17.2676,21.144
			c0.2881-0.4795,0.6001-0.9355,0.7441-1.4639c-0.0483-0.0244-0.1201-0.0244-0.168-0.0244c-0.1685,0-0.312,0.0723-0.5044,0.1445
			c-0.1919,0.0723-0.3359,0.1201-0.5278,0.1914c-0.2402,0.0967-0.3604,0.1924-0.3604,0.4561v0.4561c0,0.3848,0,0.7441,0.0962,1.0801
			C16.7876,21.8882,17.0996,21.4321,17.2676,21.144z"/>
	</g>
</g>
</svg>
