<?xml version="1.0" encoding="utf-8"?>
<!-- Generator: Adobe Illustrator 25.2.1, SVG Export Plug-In . SVG Version: 6.00 Build 0)  -->
<svg version="1.1" id="レイヤー_1" xmlns="http://www.w3.org/2000/svg" xmlns:xlink="http://www.w3.org/1999/xlink" x="0px"
	 y="0px" viewBox="0 0 36 36" style="enable-background:new 0 0 36 36;" xml:space="preserve">
<style type="text/css">
	.st0{fill:#1E1E28;}
	.st1{fill:#FFFFFF;}
</style>
<path class="st0" d="M18,0C2.8125,0,0,2.8125,0,18s2.8125,18,18,18s18-2.8125,18-18S33.1875,0,18,0z"/>
<g>
	<g>
		<path class="st1" d="M16.394,26.9976c1.877-0.293,3.439-0.7441,4.686-1.3525c1.2466-0.6084,2.1851-1.3418,2.8159-2.2002
			c0.6304-0.8584,0.9458-1.8154,0.9458-2.8711c0-0.792-0.1836-1.5068-0.5498-2.1445c-0.3667-0.6387-0.8945-1.1406-1.584-1.5078
			c-0.6895-0.3662-1.5107-0.5498-2.4639-0.5498c-0.792,0-1.5586,0.1035-2.2993,0.3086s-1.5288,0.5352-2.3647,0.9893
			c-0.895,0.4844-1.6758,1.0645-2.3433,1.7383c-0.6675,0.6748-1.1846,1.3457-1.5508,2.0127
			c-0.3667,0.668-0.5498,1.2656-0.5498,1.793c0,0.25,0.0508,0.4336,0.1538,0.5508c0.1025,0.1172,0.2642,0.1758,0.4839,0.1758
			c0.396,0,0.8359-0.1025,1.3203-0.3076c0.4839-0.2061,0.9751-0.4736,1.4736-0.8037s0.9531-0.6855,1.3643-1.0664
			c0.4102-0.3672,0.8213-0.7852,1.2319-1.2539c0.4102-0.4697,0.8062-0.9648,1.188-1.4854c0.3813-0.5205,0.7148-1.0303,1.001-1.5293
			c0.2861-0.498,0.502-0.9453,0.6489-1.3418c0.1611-0.4102,0.1763-0.7441,0.0439-1.001c-0.1318-0.2568-0.4253-0.5244-0.8799-0.8027
			l0.1758-0.2861c0.4253,0.0732,0.8032,0.1758,1.1333,0.3076s0.605,0.3154,0.8247,0.5498c0.1323,0.1475,0.209,0.3047,0.231,0.4736
			c0.0225,0.1689,0.0039,0.3555-0.0547,0.5605c-0.2349,0.6895-0.605,1.4629-1.1108,2.3213c-0.5063,0.8584-1.0967,1.709-1.771,2.5518
			c-0.6748,0.8438-1.3789,1.6172-2.1123,2.3213c-0.8945,0.8506-1.8003,1.5-2.7168,1.9473c-0.917,0.4473-1.7642,0.6709-2.541,0.6709
			c-0.5283,0-0.9463-0.1543-1.2539-0.4619c-0.3081-0.3086-0.4624-0.7705-0.4624-1.3867c0-0.7764,0.1763-1.5283,0.5283-2.2549
			c0.3521-0.7256,0.8247-1.4043,1.4189-2.0352c0.5938-0.6299,1.2539-1.2021,1.98-1.7158c0.7261-0.5127,1.4629-0.9385,2.2109-1.2754
			c0.6743-0.3086,1.4263-0.5537,2.2549-0.7373s1.6831-0.2754,2.563-0.2754c1.3491,0,2.5005,0.2607,3.4541,0.7812
			c0.9531,0.5205,1.6865,1.1953,2.2002,2.0244c0.5132,0.8281,0.77,1.7197,0.77,2.6729c0,1.0996-0.2568,2.0459-0.77,2.8379
			c-0.5137,0.792-1.2358,1.4443-2.167,1.958c-0.9316,0.5127-2.0317,0.8945-3.3003,1.1436c-1.2686,0.25-2.6582,0.3887-4.1689,0.418
			L16.394,26.9976z M13.3799,14.1499c-0.5425,0-1.0049-0.084-1.3857-0.2529c-0.3818-0.1689-0.7041-0.4258-0.9683-0.7705
			c-0.2637-0.3438-0.5137-0.7803-0.748-1.3086l0.2861-0.2637c0.3813,0.2637,0.7334,0.4766,1.0562,0.6377
			c0.3223,0.1611,0.645,0.2754,0.9678,0.3408c0.3228,0.0664,0.6821,0.0996,1.0781,0.0996c0.4839,0,0.9678-0.0264,1.4521-0.0771
			c0.4839-0.0518,0.9458-0.1133,1.3857-0.1875c1.0703-0.1904,1.98-0.4209,2.728-0.6924s1.3384-0.5098,1.771-0.7158
			c0.4326-0.2051,0.7075-0.3076,0.8252-0.3076c0.4985,0,0.876,0.0732,1.1328,0.2197c0.2563,0.1475,0.3853,0.3525,0.3853,0.6162
			c0,0.2061-0.0552,0.374-0.165,0.5059c-0.1104,0.1318-0.29,0.25-0.5391,0.3525c-0.2642,0.1025-0.6196,0.2236-1.0669,0.3623
			c-0.4478,0.1396-0.9502,0.2832-1.5073,0.4297c-0.5576,0.1465-1.1475,0.2861-1.771,0.418s-1.2505,0.2422-1.8809,0.3301
			c-0.4839,0.0732-0.9902,0.1357-1.5181,0.1865C14.3701,14.1245,13.8638,14.1499,13.3799,14.1499z M16.9219,24.688
			c-0.3374,0-0.6309-0.1758-0.8799-0.5283c-0.2495-0.3516-0.4585-0.8135-0.627-1.3857c-0.1689-0.5723-0.2935-1.1992-0.374-1.8809
			c-0.0806-0.6826-0.1211-1.3535-0.1211-2.0137c0-0.6738,0.0474-1.4258,0.1431-2.2549c0.0952-0.8281,0.2051-1.6494,0.3301-2.4639
			c0.1245-0.8135,0.2383-1.5469,0.3408-2.2002c0.1025-0.6523,0.1543-1.1475,0.1543-1.4844c0-0.2051-0.0298-0.3486-0.0884-0.4297
			c-0.0586-0.0801-0.1758-0.1494-0.3516-0.209c-0.1763-0.0732-0.374-0.1318-0.5942-0.1758s-0.4399-0.0879-0.6602-0.1318v-0.374
			c0.2056-0.0879,0.4365-0.1719,0.6934-0.2529c0.2563-0.0801,0.48-0.1211,0.6709-0.1211c0.4253,0,0.8394,0.0664,1.2427,0.1982
			s0.7373,0.2969,1.001,0.4951c0.2642,0.1982,0.3965,0.3779,0.3965,0.5391c0,0.1758-0.0479,0.3262-0.1431,0.4512
			c-0.0957,0.124-0.1948,0.2676-0.2974,0.4287s-0.1904,0.374-0.2637,0.6377c-0.1177,0.4551-0.2422,0.9717-0.374,1.5508
			c-0.1323,0.5801-0.2529,1.1807-0.3633,1.8047c-0.1099,0.623-0.2017,1.2314-0.2749,1.8252
			c-0.0737,0.5947-0.1099,1.1484-0.1099,1.6611c0,0.792,0.0732,1.4629,0.2197,2.0137c0.1465,0.5498,0.3154,1.0264,0.5063,1.4297
			c0.1904,0.4033,0.3555,0.7666,0.4946,1.0889c0.1396,0.3232,0.209,0.6455,0.209,0.9678c0,0.2939-0.0806,0.5029-0.2417,0.627
			C17.3984,24.6255,17.186,24.688,16.9219,24.688z"/>
	</g>
</g>
</svg>
