<?xml version="1.0" encoding="utf-8"?>
<!-- Generator: Adobe Illustrator 25.2.1, SVG Export Plug-In . SVG Version: 6.00 Build 0)  -->
<svg version="1.1" id="レイヤー_1" xmlns="http://www.w3.org/2000/svg" xmlns:xlink="http://www.w3.org/1999/xlink" x="0px"
	 y="0px" viewBox="0 0 36 36" style="enable-background:new 0 0 36 36;" xml:space="preserve">
<style type="text/css">
	.st0{fill:#1E1E28;}
	.st1{fill:#FFFFFF;}
</style>
<path class="st0" d="M18,0C2.8125,0,0,2.8125,0,18s2.8125,18,18,18s18-2.8125,18-18S33.1875,0,18,0z"/>
<g>
	<g>
		<path class="st1" d="M20.3379,16.7124c3.1079,0.252,6.272,1.1191,6.272,4.5635c0,3.8359-2.772,6.8604-6.6362,6.8604
			c-0.1396,0-0.3076-0.0283-0.4756-0.0283c2.2119-1.5684,5.1519-4.0322,5.1519-7.0283c0-2.2676-2.8003-2.9395-4.564-2.9678
			c-1.0923,1.96-2.1562,3.8076-3.5,5.5723c0.0278,0.4756,0.1118,0.8955,0.1958,1.3154s0.168,0.8125,0.168,1.2324
			c0,0.1123-0.0278,0.1963-0.0557,0.3076c-0.0283,0-0.0562,0.0283-0.084,0.0283c-0.896,0-1.4844-0.9795-1.7642-2.0439
			c-0.896,0.9238-2.5762,2.5195-3.5562,2.5195c-0.7837,0-2.1001-2.2119-2.1001-3.0234c0-0.6445,0.8403-3.7236,5.292-6.3281
			c0.1123-1.1201,0.3081-2.1562,0.5884-3.3877c-1.0083,0.2793-1.792,0.5879-2.5762,0.8682
			c-0.6719-0.3926-1.1758-1.0361-1.5962-1.708c0.98-0.084,1.5684-0.084,2.1284-0.1963c0.6157-0.1396,1.2036-0.3926,2.2959-0.9805
			c0.2236-1.0078,0.5317-2.0156,0.5317-3.0518c0-0.5322-0.168-0.9795-0.4478-1.3721c0.9238,0.084,2.3799,0.4482,2.7437,1.0918
			c-0.084,0.3086-0.3359,0.5605-0.5317,0.7842c-0.084,0.1123-0.1401,0.2246-0.1958,0.3359
			c-0.1123,0.2246-0.2241,0.5322-0.2803,0.8125c-0.0562,0.2793-0.084,0.5596-0.168,0.9795c0.4761-0.0557,0.7842-0.168,1.0918-0.2793
			c0.3081-0.1123,0.5884-0.2803,0.896-0.4209c0.5884-0.3076,1.1484-0.5596,1.624-0.5596c0.644,0,1.9321,0.4756,1.9883,1.0918
			c-0.3081,0.4199-1.3999,0.9521-2.688,1.4004c-1.2881,0.4756-2.6602,0.8398-3.332,1.0635
			c-0.2803,1.0088-0.4482,1.9883-0.5601,3.1924l2.52-0.7559c0.3081-0.4766,0.4199-0.9521,0.4199-1.4844
			c0-0.168,0-0.3643-0.0278-0.5596c0.3081,0.1396,0.644,0.252,0.9238,0.4482c0.3359,0.2236,0.5601,0.4756,0.644,0.8398
			L20.3379,16.7124z M12.106,25.0562c1.0078-0.5605,1.876-1.2881,2.604-2.2119c-0.0562-0.5879-0.084-1.0645-0.084-1.5967
			c0-0.5039,0.0278-1.0361,0.084-1.7637c-1.624,0.9521-4.144,2.4355-4.144,4.4238c0,0.8965,0.6719,1.1484,1.3721,1.1484H12.106z
			 M16.0537,22.2563c1.0361-1.4561,1.7363-2.6045,2.4082-4.0605c-0.9243,0.168-1.5679,0.3643-2.2959,0.7002
			c-0.084,0.8682-0.1123,1.7363-0.1123,2.5195V22.2563z"/>
	</g>
</g>
</svg>
