<?xml version="1.0" encoding="utf-8"?>
<!-- Generator: Adobe Illustrator 25.2.1, SVG Export Plug-In . SVG Version: 6.00 Build 0)  -->
<svg version="1.1" id="レイヤー_1" xmlns="http://www.w3.org/2000/svg" xmlns:xlink="http://www.w3.org/1999/xlink" x="0px"
	 y="0px" viewBox="0 0 36 36" style="enable-background:new 0 0 36 36;" xml:space="preserve">
<style type="text/css">
	.st0{fill:#1E1E28;}
	.st1{fill:#FFFFFF;}
</style>
<path class="st0" d="M18,0C2.8125,0,0,2.8125,0,18s2.8125,18,18,18s18-2.8125,18-18S33.1875,0,18,0z"/>
<g>
	<g>
		<path class="st1" d="M16.2358,26.7852h-0.0483c-0.6958,0-1.272-0.5283-1.5601-1.1279c-0.5278,0.4561-1.3198,1.0557-2.0884,1.0557
			c-0.1919,0-0.5039-0.0957-0.7197-0.1201c-0.312-0.9355-1.6802-1.3916-1.6802-2.3037c0-1.9209,2.832-4.5371,4.3203-5.5693
			l0.1201-2.4238c-0.5762,0.0479-1.2002,0.1924-1.7764,0.1924c-0.6479,0-1.1758-0.2646-1.6318-0.6963
			c1.416-0.5039,3-1.0322,4.2241-1.9922c0.0479-0.7441,0.1919-1.4639,0.3843-2.1846c0.3599-1.3438,0.6001-2.4482,2.04-2.9521
			c1.104,0.5527-0.0239,3.2646,3,3.2646c-0.0957,0.5283-0.2876,1.0322-0.6719,1.416c-0.5039,0.5283-3.2642,1.8242-4.0322,2.208
			c-0.168,0.6484-0.312,1.3203-0.312,2.0166c0,0.168,0,0.3594,0.0239,0.5273c0.624-0.3359,1.272-0.6719,1.9199-0.96
			c0.0723-0.1201,0.1201-0.2881,0.1201-0.4316c0-0.2637-0.168-0.4805-0.3599-0.624c0.2642-0.3838,0.936-0.6484,1.3921-0.6484
			c0.3599,0,0.936,0.3604,1.1519,0.624l-0.0957,0.6963c0.6001-0.0957,1.2002-0.168,1.8242-0.168
			c2.2559,0,4.0801,1.4639,4.0801,3.8408c0,3.7676-4.0322,6.8398-7.5845,6.9121c2.064-1.6084,5.2563-4.3447,5.2563-7.2002
			c0-1.417-0.792-2.1367-2.1841-2.1367c-0.624,0-1.248,0.1445-1.8242,0.3838c-0.4321,0.9365-0.9121,1.8242-1.4399,2.7363
			c-0.4082,0.6963-0.8643,1.3447-1.2241,2.0645c-0.168,0.3604-0.2881,0.6484-0.2881,1.0801s0.0718,0.8877,0.0718,1.3438
			c0,0.3848-0.144,0.8408-0.312,1.1768H16.2358z M14.2915,20.5928c-0.7681,0.5518-2.6641,2.4961-2.6641,3.4082
			c0,0.624,0.8159,1.0078,1.3198,1.1035c0.5762-0.168,1.0562-0.6953,1.4883-1.1279L14.2915,20.5928z M17.0518,18.96
			c-0.4561,0.2646-0.8882,0.5527-1.2964,0.8887c-0.0479,0.3838-0.0718,0.792-0.0718,1.1758c0,0.4805,0.0239,0.9365,0.0962,1.416
			C16.2114,21.2646,16.8838,20.208,17.0518,18.96z M17.7959,10.752c-0.312,0.6719-0.624,1.3916-0.6963,2.1357
			c0.3604-0.2881,0.7441-0.5762,1.0562-0.96L17.7959,10.752z"/>
	</g>
</g>
</svg>
