<?xml version="1.0" encoding="utf-8"?>
<!-- Generator: Adobe Illustrator 25.2.1, SVG Export Plug-In . SVG Version: 6.00 Build 0)  -->
<svg version="1.1" id="レイヤー_1" xmlns="http://www.w3.org/2000/svg" xmlns:xlink="http://www.w3.org/1999/xlink" x="0px"
	 y="0px" viewBox="0 0 36 36" style="enable-background:new 0 0 36 36;" xml:space="preserve">
<style type="text/css">
	.st0{fill:#1E1E28;}
	.st1{fill:#FFFFFF;}
</style>
<path class="st0" d="M18,0C2.8125,0,0,2.8125,0,18s2.8125,18,18,18s18-2.8125,18-18S33.1875,0,18,0z"/>
<g>
	<g>
		<path class="st1" d="M17.5557,24.3965c0,0.1924-0.144,0.4561-0.2397,0.5996c-0.0239,0-0.2402,0.0967-0.2642,0.0967
			c-0.9839,0-1.2241-1.2002-1.9443-1.2725c-0.5278,0.4805-1.2241,0.7686-1.8242,1.1523c-0.48,0.3115-0.8638,0.792-1.3677,1.0557
			c-0.144,0.0723-0.2881,0.1445-0.4561,0.2168l-0.9365-0.0967c-0.7197-0.624-0.8638-1.584-0.8638-2.4961
			c0-0.9355,0.1919-2.6396,1.272-2.9766c0.0479,0.0723,0.0723,0.3125,0.0723,0.5527c0,0.2881-0.0244,0.624-0.0244,0.7676
			c0,0.7441,0.0483,1.8242,0.9121,2.1123c0.6963-0.168,2.2324-0.8398,2.4243-1.584c0.312-0.3125,0.8882-1.1523,0.8882-1.6318
			c0-0.0244,0-0.0244,0-0.0488c-0.0239-0.4795-0.0723-0.96-0.0962-1.4395c0-0.1924,0.0483-0.5527,0.0483-0.9121
			c0-0.3838-0.0483-0.792-0.2642-1.0078c-1.2241,0.0713-2.5444,1.7998-3.5283,2.4961c-0.1201-0.168-0.3843-0.4805-0.4082-0.6729
			c0.2642-1.7041,2.6885-3.0479,4.1763-3.5518v-0.1445v-0.1191c0-0.2402,0.0483-0.4805,0.0483-0.7207
			c0-0.792-0.3604-0.9834-1.0801-0.9834c-1.2241,0-2.4243,0.7197-3.6006,0.7197c-0.2881,0-0.7681-0.0479-0.7681-0.4326
			c0-0.624,0.5762-1.0801,1.1045-1.2236l0.5278,0.1201c1.248-0.4326,2.52-0.792,3.8164-0.9121
			c0.624-1.0322-0.1201-2.4482,1.2241-3.2168l0.8159,0.0967c0.4082,0.3838,1.0801,0.5762,1.0801,1.2236v0.0723l-0.0239,0.168
			l-0.7202,1.1045l0.2163,0.3838c0.9121-0.1924,2.5923-0.2881,3.5283-0.2881c0.168,0,0.3599,0.0957,0.5518,0.0957
			c0.4561,0,0.9121-0.1201,1.3682-0.1201c0.4082,0,0.7681,0.168,0.96,0.5283v0.4082l-0.5996,0.8164
			c-0.2163,0.0234-0.5283,0.0957-0.7441,0.0957c-0.3843,0-0.792-0.0723-1.1763-0.0723c-0.5278,0-1.0322,0.0723-1.5601,0.0723
			c-0.3359,0-0.6963-0.0479-1.0562-0.0723c-0.792,0.3359-2.0161-0.3115-2.0161,1.3926v0.0479l0.2397,0.5518l2.7603-0.1924
			c0.2642-0.3359,0.7202-0.9121,1.1763-0.9121c0.3843,0,0.792,0.5527,1.0083,0.793v0.2871l-0.144,0.3369
			c0.4316,0.4072,1.4878,0.5273,1.4878,1.2959c0,0.1201-0.0479,0.2881-0.0718,0.4082l-0.2402,0.0234h-0.1196
			c-0.4082,0-0.8164-0.0957-1.2241-0.0957c-1.5845,0-2.1123,2.6406-2.9282,3.0479l-0.8403,0.4326
			c0,0.6475-0.7202,1.4883-0.8643,2.208l0.2881,1.3682V24.3965z M17.3638,20.1006c0.4561-0.0723,1.272-1.4648,1.4883-1.8965
			c0.144-0.2637,0.0957-0.624,0.1201-0.8887c-0.0962-0.2637-0.3604-0.5039-0.6484-0.5039h-0.0479l-1.2241,0.1445
			c-0.2642,0.2881-0.3359,0.624-0.3359,1.0078c0,0.5518,0.168,1.1279,0.2642,1.6562L17.3638,20.1006z M23.8682,17.3154l0.144-0.2393
			l0.8643,0.3838c0.8882,0.9121,0.9839,1.2002,1.248,2.4238c0.0239,0.1924,0.2158,0.8164,0.2158,0.9365
			c0,2.208-0.9839,4.0078-2.7119,5.3525c-0.6724,0.5283-1.4644,0.9844-2.3525,0.9844c-0.3599,0-1.1997-0.0967-1.416-0.4082
			c-0.0718-0.1201-0.0957-0.5762-0.0957-0.7207c0-2.0635,4.416-1.8955,4.416-5.2559c0-0.6006-0.312-1.2246-0.312-1.752V17.3154z"/>
	</g>
</g>
</svg>
