<?xml version="1.0" encoding="utf-8"?>
<!-- Generator: Adobe Illustrator 25.2.1, SVG Export Plug-In . SVG Version: 6.00 Build 0)  -->
<svg version="1.1" id="レイヤー_1" xmlns="http://www.w3.org/2000/svg" xmlns:xlink="http://www.w3.org/1999/xlink" x="0px"
	 y="0px" viewBox="0 0 36 36" style="enable-background:new 0 0 36 36;" xml:space="preserve">
<style type="text/css">
	.st0{fill:#1E1E28;}
	.st1{fill:#FFFFFF;}
</style>
<path class="st0" d="M18,0C2.8125,0,0,2.8125,0,18s2.8125,18,18,18s18-2.8125,18-18S33.1875,0,18,0z"/>
<g>
	<g>
		<path class="st1" d="M22.5112,27.4639c-0.0522-0.0254-0.1304-0.0781-0.1562-0.1553v-0.0527
			c-0.0781-0.0254-0.1562-0.0254-0.2339-0.0254c-0.312,0-0.5723,0.2598-0.9102,0.3115c0.2603-0.5459,0.7021-0.9619,1.1699-1.3516
			c1.3784-1.1699,1.7422-1.4824,2.1582-3.2246c0.1558-0.624,0.3638-1.248,0.4941-1.8457c-0.1304-0.8066-0.3384-1.5342-0.52-2.3398
			c-0.8584-0.1309-1.6382-0.3379-2.5225-0.3379h-0.4678c-0.6499,0.9092-0.5981,2.3135-1.2998,3.3018
			c-0.7285,1.0137-1.6641,1.8975-2.2622,2.9902c0.416,1.1182,0.9619,2.1582,1.3521,3.2764l-0.1299,0.0254l-1.1182-1.0918
			l-0.0264,0.0781c0.0264,0.1562,0.1304,0.2861,0.1304,0.4678c-0.2861-0.5977-0.6499-1.1699-0.9883-1.7422
			c-0.3638,0.1045-0.7017,0.208-0.936,0.4941l-0.0781-0.0264c0-0.0254-0.0259-0.0254-0.0259-0.0518
			c0-0.0781,0.0522-0.208,0.0522-0.2334c-0.0781-0.0264-0.1562-0.0264-0.2603-0.0264c-0.312,0-0.5718,0.1299-0.7539,0.3643
			c-0.728,0-1.2222,0.5713-1.8979,0.6494l0.2861-0.2598c-0.1562-0.1299-0.3384-0.1562-0.5464-0.1562
			c-0.728,0-1.3779,0.1826-2.0542,0.3125c0.1304-0.1299,0.3643-0.2607,0.5205-0.3643c-1.4561-1.0664-0.8843-2.5479-1.1963-3.8223
			c-0.1299,0.0264-0.2598,0.0781-0.3901,0.0781c-0.2339,0-0.5718-0.0781-0.8062-0.1299c0.2603-0.1562,0.5205-0.416,0.8062-0.4678
			l-0.0518-0.1562l0.1299,0.0518l0.2861-0.2334c-0.0259-0.0781-0.0259-0.1309-0.0259-0.209c0-0.0771,0.0776-0.2334,0.1558-0.3115
			h0.104v0.1562c0.0259,0.0254,0.0781,0.0781,0.104,0.0781l1.4561-0.9365l-0.208-0.1035c1.1182-0.5205,2.1841-1.0664,3.2759-1.5859
			l-0.416-0.2344c0.4424-0.1045,0.8843-0.2861,1.3262-0.3643c0.2861-1.5342,0.104-3.1719,0.4683-4.6797l-0.104-0.1826
			c-0.624-0.0518-1.2744-0.1299-1.9243-0.1299c-0.2856,0-0.5718,0.208-0.7539,0.208c-1.4561,0-1.2739-0.7539-2.002-1.1182
			c1.6382-0.4414,3.4058-0.5977,5.0962-0.7803c0.0781-0.3633,0.104-0.6494,0.208-0.9873l-0.0522-0.2344
			c0.1304-0.2598,0.2339-1.2744,0.2339-1.5342c0-0.2861,0-0.624-0.1299-0.8574c0.7803,0.9355,0.9102,2.21,0.9883,3.3799
			c1.6641-0.4424,4.7319-0.3643,6.0059-1.1963l0.0522,0.208c-0.312,0.208-0.9102,0.5986-0.9619,0.9883
			c-0.624,0.0781-0.52,0.208-0.9624,0.5195l-0.1035,0.0781c-0.1821,0.0781-0.6763,0.3125-0.832,0.3379
			c-0.9102,0.8584-2.1323,0.6768-3.2246,1.04c-0.1558,0.7285-0.1816,1.4561-0.2598,2.1846c-0.0518,0.7539-0.208,1.4561-0.312,2.1836
			c0,0.0527-0.0522,0.0781-0.0522,0.1299l0.0264,0.0527c0.416-0.1045,0.728-0.1045,1.0918-0.3379
			c0.52-0.0527,1.04-0.0781,1.5601-0.1562c0.2603-0.3906,0.52-1.7158,0.7803-2.002c0.1821,0.3115,0.3901,0.624,0.3901,0.9883
			l0.416-0.9102c0.0259,0.2598,0.0259,0.5459,0.0259,0.8057s0,0.5205-0.0259,0.7803c0.0259,0.0254,0.1035,0.0254,0.1558,0.0254
			c0.312,0,0.5718-0.0781,0.8843-0.0781c0.1035,0,0.2339,0,0.3638,0.0264c-0.1558,0.0518-0.416,0.0781-0.4683,0.2344
			c0.6504,0.1299,1.4561,0.0518,2.0542,0.4414c0,0.0527,0,0.1045-0.0259,0.1299l0.0259,0.0527
			c0.7021,0.2861,1.4302,0.5723,2.0024,1.0918l0.0259,0.0264c-0.1562,0.208-0.0522,0.2861-0.1304,0.4678
			c0.0264,0.1035,0.0264,0.1816,0.0264,0.2598c0,0.0518,0,0.0781,0,0.1045c0,0.1299,0.0259,0.2598,0.0781,0.3633
			c-0.1045,0.3643-0.0522,0.7021-0.1304,1.0664c0.1304,0.3379,0.2603,0.624,0.3643,0.9883
			c-0.624,0.3379-0.5723,1.1699-0.9102,1.7158c-0.104,0.6504-1.5342,2.1318-2.0542,2.5742
			c-0.2861,0.3115-0.7021,0.4414-0.9102,0.832L22.5112,27.4639z M15.5166,22.0039c0-0.624,0.0522-1.2744,0.0781-1.8721
			c-1.4302,0.624-2.7563,1.5605-4.186,2.2363c0.312,1.0918,0.6758,2.1582,1.2739,3.1201c0.8843-0.7803,2.0278-1.3779,3.0679-1.9502
			C15.5947,23.0439,15.5166,22.5244,15.5166,22.0039z M19.3389,18.7539H19.313c-0.3901,0-2.0542,0.5723-2.1582,0.8584
			c-0.0518,0.1035-0.0518,0.208-0.0518,0.3379c0,0.1562,0,0.3379,0,0.5459c0,0.7539,0.0259,1.8203,0.3379,2.3135
			c0.2861-0.2852,1.144-1.2998,1.2217-1.6641c0.0781-0.3896,0.1304-0.6758,0.2861-1.0654c0.1562-0.4678,0.416-0.8838,0.5981-1.3262
			H19.3389z"/>
	</g>
</g>
</svg>
