<?xml version="1.0" encoding="utf-8"?>
<!-- Generator: Adobe Illustrator 25.2.1, SVG Export Plug-In . SVG Version: 6.00 Build 0)  -->
<svg version="1.1" id="レイヤー_1" xmlns="http://www.w3.org/2000/svg" xmlns:xlink="http://www.w3.org/1999/xlink" x="0px"
	 y="0px" viewBox="0 0 36 36" style="enable-background:new 0 0 36 36;" xml:space="preserve">
<style type="text/css">
	.st0{fill:#1E1E28;}
	.st1{fill:#FFFFFF;}
</style>
<path class="st0" d="M18,0C2.8125,0,0,2.8125,0,18s2.8125,18,18,18s18-2.8125,18-18S33.1875,0,18,0z"/>
<g>
	<g>
		<path class="st1" d="M11.6836,10.5688c0.6016-0.1289,1.1992-0.2793,1.7939-0.4512s1.1777-0.3789,1.751-0.623
			c0.2285-0.0859,0.4688-0.1504,0.7197-0.1934s0.4971-0.0498,0.7412-0.0215c0.7012,0.043,1.3887,0.1396,2.0625,0.29
			c0.6729,0.1504,1.3389,0.3545,1.998,0.6123c0.1143,0.0146,0.2148,0.0723,0.3008,0.1719c0.0859,0.1006,0.1357,0.2148,0.1504,0.3438
			c0,0.1289-0.0293,0.2471-0.0859,0.3545c-0.0576,0.1074-0.1504,0.1904-0.2793,0.2471c-0.1582,0.0859-0.3301,0.1504-0.5156,0.1934
			c-0.1865,0.043-0.373,0.0576-0.5586,0.043l-0.2148,0.5371c0.4297-0.1143,0.8594-0.2363,1.2891-0.3652s0.8662-0.2793,1.3105-0.4512
			c0.1289-0.0283,0.2256-0.1074,0.29-0.2363s0.0674-0.2646,0.0107-0.4082c0.4434,0.1436,0.8916,0.2578,1.3428,0.3438
			s0.9053,0.1582,1.3643,0.2148c0.2148,0.0146,0.4121,0.0752,0.5908,0.1826s0.333,0.2334,0.4619,0.376
			c0.0859,0.1152,0.1465,0.2363,0.1826,0.3652s0.0537,0.2656,0.0537,0.4082c0,0.1289-0.0176,0.2471-0.0537,0.3545
			s-0.0752,0.2188-0.1182,0.333c-0.0859,0.1582-0.1797,0.3086-0.2793,0.4512c-0.1006,0.1436-0.208,0.2793-0.3223,0.4082
			c-0.043,0.0576-0.1006,0.1074-0.1719,0.1504c-0.0723,0.043-0.1436,0.0791-0.2148,0.1074
			c-0.1582,0.0293-0.3008,0.0684-0.4297,0.1182c-0.1289,0.0508-0.2656,0.1045-0.4082,0.1611
			c0.1426,0.416,0.2256,0.8418,0.2471,1.2783c0.0215,0.4375-0.0254,0.8701-0.1396,1.2998c0.5723,0.3438,1.0596,0.7705,1.4609,1.2783
			c0.4004,0.5088,0.6943,1.085,0.8809,1.7295c0.1289,0.5449,0.1826,1.0996,0.1611,1.665c-0.0215,0.5664-0.1328,1.1143-0.333,1.6436
			c-0.1719,0.459-0.3975,0.8887-0.6768,1.2891c-0.2793,0.4014-0.6123,0.752-0.999,1.0527
			c-0.6309,0.5156-1.3281,0.9307-2.0947,1.2461c-0.7666,0.3145-1.5576,0.5156-2.374,0.6016
			c-0.6309,0.0713-1.2607,0.0781-1.8906,0.0215c-0.6309-0.0576-1.2539-0.1719-1.8691-0.3438
			c-0.459-0.1436-0.8887-0.3477-1.2891-0.6123c-0.4014-0.2656-0.7598-0.5762-1.0742-0.9346
			c-0.3867,0.1582-0.7773,0.2871-1.1709,0.3867c-0.3936,0.1006-0.792,0.1787-1.1924,0.2363
			c-0.3301,0.043-0.6621,0.0244-0.999-0.0537s-0.6484-0.2041-0.9346-0.376c-0.1006-0.0713-0.1895-0.1572-0.2686-0.2578
			c-0.0791-0.0996-0.1396-0.207-0.1826-0.3223c-0.0859-0.2715-0.1152-0.5508-0.0859-0.8379
			c0.0283-0.2861,0.1143-0.5439,0.2578-0.7734c-0.2012-0.0283-0.3867-0.1074-0.5586-0.2363s-0.3008-0.2793-0.3867-0.4512
			c0.0713-0.0713,0.1426-0.1504,0.2148-0.2363c0.0713-0.0859,0.1289-0.1641,0.1719-0.2363
			c-0.2012-1.2598,0.0469-2.4092,0.7412-3.4482c0.6943-1.0381,1.665-1.708,2.9111-2.0088l-0.1504-0.9453H11.168
			c-0.1865,0.0146-0.3652-0.0137-0.5371-0.0859c-0.1719-0.0713-0.3301-0.1719-0.4727-0.3008
			C10,15.7114,9.8711,15.5464,9.7715,15.3599c-0.1006-0.1855-0.1797-0.3789-0.2363-0.5801
			c-0.043-0.2148-0.0361-0.4258,0.0215-0.6338c0.0566-0.207,0.1572-0.3828,0.3008-0.5264c0.2861-0.3291,0.5977-0.6152,0.9346-0.8594
			c0.3369-0.2432,0.6982-0.4365,1.085-0.5801l0.4727,0.2793l0.5586,0.1074l0.2148-0.6875
			c-0.2012-0.0996-0.3975-0.1826-0.5908-0.2471s-0.3906-0.1182-0.5908-0.1611c-0.0146-0.1719-0.0469-0.3291-0.0967-0.4727
			C11.7949,10.856,11.7402,10.7124,11.6836,10.5688z M14.7988,21.8267c-0.1436-0.1855-0.2725-0.3828-0.3867-0.5908
			c-0.1152-0.207-0.2148-0.4189-0.3008-0.6338c-0.2012,0.2012-0.3438,0.4482-0.4297,0.7412
			c-0.0859,0.2939-0.0938,0.584-0.0215,0.8701c0.1855-0.0566,0.376-0.1143,0.5693-0.1719
			C14.4229,21.9849,14.6123,21.9126,14.7988,21.8267z M16.7109,24.7485c0.3867,0.0293,0.7656,0.0293,1.1387,0
			c0.3721-0.0283,0.7441-0.0996,1.1172-0.2148c-0.1865-0.043-0.3799-0.0967-0.5801-0.1611
			c-0.2012-0.0645-0.3799-0.1318-0.5371-0.2041c-0.2012,0.1006-0.3945,0.2012-0.5801,0.3008
			C17.083,24.5698,16.8965,24.6626,16.7109,24.7485z M18.623,16.1548c0.5869-0.0713,1.1855-0.0967,1.7939-0.0752
			s1.1992,0.0967,1.7725,0.2256c0.1572-0.1855,0.2832-0.3789,0.376-0.5801c0.0928-0.2002,0.1533-0.415,0.1826-0.6445
			c-0.6738,0.1719-1.3496,0.3262-2.0303,0.4619c-0.6807,0.1367-1.3574,0.2471-2.0303,0.333L18.623,16.1548z M19.7832,18.9478
			c-0.2012,0.0146-0.3975,0.04-0.5908,0.0752c-0.1934,0.0361-0.376,0.083-0.5479,0.1396l0.0645,0.666
			c0.1855-0.1426,0.3691-0.2861,0.5479-0.4297C19.4355,19.2563,19.6113,19.106,19.7832,18.9478z M21.1367,23.3735
			c0.3438-0.2861,0.5801-0.6475,0.709-1.085c0.1289-0.4365,0.1289-0.8701,0-1.2998c-0.2578,0.2725-0.5303,0.5371-0.8164,0.7949
			c-0.2871,0.2578-0.5879,0.5088-0.9023,0.752c0.1572,0.1582,0.3184,0.3086,0.4834,0.4512
			C20.7754,23.1304,20.9502,23.2593,21.1367,23.3735z"/>
	</g>
</g>
</svg>
