<?xml version="1.0" encoding="utf-8"?>
<!-- Generator: Adobe Illustrator 25.2.1, SVG Export Plug-In . SVG Version: 6.00 Build 0)  -->
<svg version="1.1" id="レイヤー_1" xmlns="http://www.w3.org/2000/svg" xmlns:xlink="http://www.w3.org/1999/xlink" x="0px"
	 y="0px" viewBox="0 0 36 36" style="enable-background:new 0 0 36 36;" xml:space="preserve">
<style type="text/css">
	.st0{fill:#1E1E28;}
	.st1{fill:#FFFFFF;}
</style>
<path class="st0" d="M18,0C2.8125,0,0,2.8125,0,18s2.8125,18,18,18s18-2.8125,18-18S33.1875,0,18,0z"/>
<g>
	<g>
		<path class="st1" d="M10.915,13.9956c0.5195-0.2324,1.0459-0.4512,1.5791-0.6562s1.0664-0.4033,1.5996-0.5947
			c0.2324-0.5742,0.4854-1.1309,0.7588-1.6709s0.5742-1.0703,0.9023-1.5898c-0.0137-0.1641-0.0039-0.3281,0.0303-0.4922
			S15.8779,8.6704,15.96,8.52c0.123-0.1094,0.2627-0.1709,0.4199-0.1846s0.3047,0.0137,0.4414,0.082
			c0.4512,0.1914,0.8408,0.4756,1.1689,0.8516s0.5674,0.7959,0.7178,1.2607c0.0137,0.0684,0.0166,0.1338,0.0098,0.1943
			c-0.0068,0.0625-0.0234,0.1201-0.0508,0.1748l-0.3691,0.5332c0.6016-0.1641,1.1992-0.3145,1.7939-0.4512
			s1.1934-0.2666,1.7949-0.3896c0.1641-0.0273,0.3145-0.082,0.4512-0.1641s0.2529-0.1914,0.3486-0.3281
			c0.1094-0.123,0.249-0.2051,0.4199-0.2461s0.3389-0.0273,0.5029,0.041c0.5605,0.2598,1.0762,0.5947,1.5479,1.0049
			s0.8721,0.8818,1.2002,1.415c0.1367,0.2324,0.1572,0.4756,0.0615,0.7285s-0.2734,0.4199-0.5332,0.502
			c-0.1777,0.0547-0.3662,0.0889-0.5645,0.1025s-0.3857,0-0.5635-0.041c-0.1777-0.0273-0.3486-0.041-0.5127-0.041
			s-0.335,0.0068-0.5127,0.0205c-1.2441,0.1777-2.4854,0.4072-3.7227,0.6875s-2.457,0.6113-3.6602,0.9941
			c-0.123,0.2734-0.2295,0.5508-0.3184,0.8301c-0.0889,0.2812-0.167,0.5645-0.2354,0.8516
			c0.8887-0.2734,1.7939-0.4746,2.7168-0.6055c0.9229-0.1289,1.8496-0.1807,2.7793-0.1533l0.4102-0.5127l0.0205-0.6973
			c0-0.1094,0.041-0.1982,0.123-0.2666s0.1777-0.0957,0.2871-0.082c0.4238,0.0273,0.8164,0.1504,1.1787,0.3691
			s0.667,0.5059,0.9131,0.8613c0.0957,0.1504,0.1533,0.3174,0.1738,0.5029c0.0205,0.1836-0.0029,0.3652-0.0713,0.543
			c0.4922,0.2461,0.9395,0.5605,1.3428,0.9434s0.7422,0.8135,1.0156,1.292c0.5879,1.0117,0.8711,2.0986,0.8506,3.2607
			s-0.3311,2.2422-0.9326,3.2402c-0.4238,0.7109-1.0186,1.2207-1.7842,1.5273c-0.7656,0.3086-1.5449,0.3662-2.3379,0.1748
			c-0.5605-0.1504-1.1143-0.3174-1.6611-0.5029c-0.5469-0.1836-1.0869-0.3857-1.6201-0.6045
			c-0.0684,0.1504-0.1572,0.2832-0.2666,0.3994s-0.2256,0.2227-0.3486,0.3184c-0.1504,0.082-0.3115,0.1299-0.4824,0.1436
			s-0.3379-0.0068-0.502-0.0615c-0.3008-0.0957-0.5986-0.2148-0.8926-0.3594c-0.2939-0.1426-0.5771-0.3037-0.8506-0.4814
			c-0.2734,0.2188-0.5537,0.4307-0.8408,0.6357s-0.5742,0.3965-0.8613,0.5742c-0.2324,0.1504-0.4854,0.2363-0.7588,0.2559
			c-0.2734,0.0215-0.5332-0.0303-0.7793-0.1533c-0.6426-0.3145-1.1934-0.752-1.6514-1.3125s-0.7822-1.1895-0.9736-1.8867
			c0.2188,0.0957,0.4375,0.1846,0.6562,0.2666s0.4443,0.1572,0.6768,0.2256c0.1641,0.041,0.3281,0.0518,0.4922,0.0303
			c0.1641-0.0195,0.3145-0.0781,0.4512-0.1738l1.2305-0.8613c-0.1777-0.2871-0.3389-0.5908-0.4824-0.9121
			s-0.2695-0.6533-0.3789-0.9951c-0.2188,0.1914-0.4346,0.3828-0.6465,0.5742s-0.4268,0.3828-0.6455,0.5742
			c-0.123,0.1094-0.2705,0.1816-0.4414,0.2158s-0.3311,0.0166-0.4814-0.0518c-0.4785-0.1914-0.8857-0.4746-1.2207-0.8506
			s-0.5776-0.8105-0.728-1.3027c-0.0273-0.1094-0.0068-0.2148,0.0615-0.3184c0.0684-0.1016,0.1641-0.1602,0.2871-0.1738
			l0.4927-0.0205c0.0957-0.0137,0.1914-0.0371,0.2871-0.0713s0.1846-0.0791,0.2666-0.1338
			c0.3965-0.3555,0.8066-0.6904,1.2305-1.0049s0.8613-0.6084,1.3125-0.8818c0.041-0.3281,0.0957-0.6523,0.1641-0.9736
			s0.1504-0.6465,0.2461-0.9746c-0.1777,0.0684-0.3555,0.0996-0.5332,0.0918c-0.1777-0.0059-0.3486-0.0508-0.5127-0.1328
			c-0.5059-0.2188-0.9502-0.5234-1.333-0.9121c-0.3828-0.3906-0.6836-0.8379-0.9023-1.3438
			c-0.041-0.082-0.0342-0.1602,0.0205-0.2363c0.0547-0.0742,0.123-0.1123,0.2051-0.1123c0.1094,0.0137,0.2119,0.0303,0.3076,0.0518
			c0.0957,0.0195,0.1914,0.0508,0.2871,0.0918c0.082,0.0273,0.1709,0.041,0.2666,0.041S10.8193,14.0229,10.915,13.9956z
			 M18.3799,19.4097c-0.5195,0.0957-1.0254,0.2188-1.5176,0.3691s-0.9775,0.3281-1.4561,0.5332
			c0.041,0.2598,0.0986,0.5166,0.1738,0.7695s0.1611,0.502,0.2568,0.748c0.4375-0.3828,0.8682-0.7754,1.292-1.1797
			C17.5527,20.2476,17.9697,19.8335,18.3799,19.4097z M23.958,21.9731c0.0684-0.5195-0.0244-1.0146-0.2773-1.4873
			c-0.2529-0.4707-0.6182-0.8164-1.0967-1.0352c-0.6973,0.875-1.4258,1.7266-2.1846,2.5527
			c-0.7588,0.8281-1.5479,1.6172-2.3682,2.3691l0.5947,0.3486c0.1641,0.082,0.3037,0.1982,0.4199,0.3486
			s0.1885,0.3145,0.2158,0.4922c1.1348,0.1504,2.1602-0.123,3.0762-0.8203S23.7939,23.1216,23.958,21.9731z"/>
	</g>
</g>
</svg>
