<?xml version="1.0" encoding="utf-8"?>
<!-- Generator: Adobe Illustrator 25.2.1, SVG Export Plug-In . SVG Version: 6.00 Build 0)  -->
<svg version="1.1" id="レイヤー_1" xmlns="http://www.w3.org/2000/svg" xmlns:xlink="http://www.w3.org/1999/xlink" x="0px"
	 y="0px" viewBox="0 0 36 36" style="enable-background:new 0 0 36 36;" xml:space="preserve">
<style type="text/css">
	.st0{fill:#1E1E28;}
	.st1{fill:#FFFFFF;}
</style>
<path class="st0" d="M18,0C2.8125,0,0,2.8125,0,18s2.8125,18,18,18s18-2.8125,18-18S33.1875,0,18,0z"/>
<g>
	<g>
		<path class="st1" d="M13.335,8.1777c0.2578,0.0293,0.5195,0.0293,0.7842,0c0.2646-0.0283,0.5195-0.0781,0.7627-0.1504
			c0.3154-0.0859,0.6377-0.1211,0.9668-0.1074c0.3291,0.0146,0.6445,0.0859,0.9453,0.2148c0.2002,0.0859,0.3799,0.1973,0.5371,0.333
			c0.1572,0.1367,0.2861,0.2979,0.3867,0.4834c0.1006,0.1719,0.1572,0.3516,0.1719,0.5371c0.0146,0.1865-0.0146,0.373-0.0859,0.5586
			c-0.0859,0.2012-0.1572,0.4121-0.2148,0.6338c-0.0576,0.2227-0.1074,0.4404-0.1504,0.6553
			c0.5586-0.1289,1.1172-0.2432,1.6758-0.3438c0.5586-0.0996,1.1172-0.1934,1.6758-0.2793c0.3008-0.043,0.6016-0.0322,0.9023,0.0322
			s0.5801,0.1826,0.8379,0.3545c0.1865,0.1289,0.3438,0.2832,0.4727,0.4619c0.1289,0.1797,0.2217,0.376,0.2793,0.5908
			c0.0576,0.2012,0.0752,0.4121,0.0537,0.6338c-0.0215,0.2227-0.082,0.4268-0.1826,0.6123
			c-0.1143,0.2578-0.2793,0.4766-0.4941,0.6553c-0.2148,0.1797-0.4512,0.3115-0.709,0.3975
			c-0.3867,0.1289-0.7734,0.2402-1.1602,0.333c-0.3867,0.0938-0.7803,0.1826-1.1816,0.2686
			c0.1436,0.0576,0.2861,0.1006,0.4297,0.1289c0.1436,0.0293,0.2939,0.0508,0.4512,0.0645c0.2295,0,0.458,0.0186,0.6875,0.0537
			c0.2295,0.0361,0.458,0.0967,0.6875,0.1826c0.1572,0.043,0.3008,0.1182,0.4297,0.2256s0.2295,0.2334,0.3008,0.376
			c1.1602,0.3438,2.1016,0.9961,2.8252,1.9551c0.7236,0.96,1.085,2.041,1.085,3.2441c0,0.4873-0.0605,0.9668-0.1826,1.4395
			s-0.3047,0.917-0.5479,1.332c-0.4443,0.7881-0.9844,1.4902-1.6221,2.1055s-1.3574,1.1309-2.1592,1.5469
			c-0.4727,0.2432-0.9775,0.3682-1.5146,0.376c-0.5371,0.0068-1.0488-0.1045-1.5361-0.333
			c-0.2148-0.1006-0.3799-0.2549-0.4941-0.4619c-0.1143-0.208-0.165-0.4336-0.1504-0.6768
			c0.0146-0.1436,0.0215-0.2832,0.0215-0.4189c0-0.1367-0.0068-0.2686-0.0215-0.3975c-0.1719,0.0293-0.3477,0.04-0.5264,0.0322
			c-0.1787-0.0068-0.3545-0.0391-0.5264-0.0967c-0.2578,0.2148-0.5303,0.4189-0.8164,0.6123s-0.5801,0.376-0.8809,0.5479
			c-0.5156,0.3008-1.0635,0.4902-1.6436,0.5693c-0.5801,0.0781-1.1562,0.0459-1.7295-0.0967
			c-0.3438-0.0859-0.6592-0.2295-0.9453-0.4297c-0.2861-0.2012-0.5371-0.4443-0.752-0.7305
			c-0.2002-0.2871-0.376-0.5908-0.5264-0.9131s-0.2686-0.6621-0.3545-1.0205c-0.1143-0.5293-0.1328-1.0635-0.0537-1.6006
			s0.2617-1.042,0.5479-1.5146c0.3867-0.6299,0.8379-1.2139,1.3535-1.751s1.0811-1.0205,1.6973-1.4502
			c-0.0713-0.3145-0.1221-0.6299-0.1504-0.9453c-0.0283-0.3145-0.0498-0.6367-0.0645-0.9668
			c-0.5303-0.1143-1.0029-0.3545-1.418-0.7197S10.7852,14.5156,10.585,14c-0.1143-0.3008-0.1758-0.6123-0.1826-0.9346
			s0.0322-0.6338,0.1182-0.9346c0.2148,0.1289,0.4473,0.2227,0.6982,0.2793c0.251,0.0576,0.498,0.0645,0.7412,0.0215l1.0957-0.1504
			c0.0146-0.4004,0.0537-0.7949,0.1182-1.1816s0.1543-0.7734,0.2686-1.1602c0.0859-0.2861,0.1182-0.5801,0.0967-0.8809
			S13.4492,8.4648,13.335,8.1777z M14.1084,21.9062c-0.1289,0.2012-0.2471,0.4121-0.3545,0.6338
			c-0.1074,0.2227-0.2109,0.4482-0.3115,0.6768c-0.043,0.0859-0.0576,0.1758-0.043,0.2686
			c0.0146,0.0938,0.0576,0.1689,0.1289,0.2256c0.0713,0.0723,0.1543,0.1113,0.2471,0.1182
			c0.0928,0.0078,0.1826-0.0176,0.2686-0.0752l0.6445-0.4512L14.1084,21.9062z M17.0088,15.5684l0.0645,0.5371
			c0.3438-0.0859,0.6943-0.1572,1.0527-0.2148c0.3584-0.0566,0.7158-0.0996,1.0742-0.1289l0.0215-0.6016
			c-0.3721,0.0859-0.7412,0.1611-1.1064,0.2256S17.3809,15.5117,17.0088,15.5684z M17.7178,19.8652
			c0.0713-0.0996,0.1396-0.207,0.2041-0.3223c0.0645-0.1143,0.125-0.2285,0.1826-0.3438c-0.0859,0-0.1758,0.0107-0.2686,0.0322
			s-0.1826,0.0537-0.2686,0.0967L17.7178,19.8652z M21.6279,19.8867c-0.2861,0.6445-0.6084,1.2715-0.9668,1.8799
			c-0.3584,0.6094-0.752,1.1855-1.1816,1.7295c0.0576,0.1865,0.0928,0.3799,0.1074,0.5801c0.0146,0.2012,0,0.4014-0.043,0.6016
			c0.5303-0.2578,0.9883-0.6016,1.375-1.0312s0.6807-0.9092,0.8809-1.4395c0.1289-0.3867,0.1787-0.7803,0.1504-1.1816
			C21.9219,20.625,21.8145,20.2451,21.6279,19.8867z"/>
	</g>
</g>
</svg>
