<?xml version="1.0" encoding="utf-8"?>
<!-- Generator: Adobe Illustrator 25.2.1, SVG Export Plug-In . SVG Version: 6.00 Build 0)  -->
<svg version="1.1" id="レイヤー_1" xmlns="http://www.w3.org/2000/svg" xmlns:xlink="http://www.w3.org/1999/xlink" x="0px"
	 y="0px" viewBox="0 0 36 36" style="enable-background:new 0 0 36 36;" xml:space="preserve">
<style type="text/css">
	.st0{fill:#1E1E28;}
	.st1{fill:#FFFFFF;}
</style>
<path class="st0" d="M18,0C2.8125,0,0,2.8125,0,18s2.8125,18,18,18s18-2.8125,18-18S33.1875,0,18,0z"/>
<g>
	<g>
		<path class="st1" d="M12.3906,26.8657c-2.2222,0-3.8945-2.6621-3.8945-4.6865c0-2.1562,2.2666-3.9609,3.8945-5.0391
			c0-0.3516,0.0884-1.8701,0.1982-2.1123c-0.418,0.0889-0.8359,0.1328-1.2544,0.1328c-0.418,0-0.8359-0.0664-1.2319-0.1768
			c-0.6821-0.1973-1.8042-0.8359-1.8042-1.6719c0-0.5938,0.6382-0.418,1.0122-0.418c0.5059,0,3.6963-1.21,4.2246-1.3867
			c0.0439-0.1758,0.2637-0.792,0.2637-0.9014c0-0.3525-0.9238-0.4844-0.9238-1.2764c0-0.7266,0.5059-0.9688,1.166-0.9688
			c1.0562,0,2.9922,0.6387,2.9922,1.9365c1.1006-0.3955,2.7725-0.9238,3.9609-0.9238c1.562,0,4.8408,0.4619,4.8408,2.6182
			c0,0.748-0.5503,0.9463-1.2104,0.9463c-0.7261,0-1.4302-0.3525-2.1562-0.3525c-0.5942,0-1.3203,0.1982-1.8921,0.3086
			c1.1221,0.0439,2.6182,1.7158,2.8604,2.7725c2.4424,1.0117,4.1362,3.4326,4.1362,6.0947c0,3.7842-2.75,5.8525-6.3369,5.8525
			c-0.7261,0-3.4102,0.0225-3.4102-1.1436c0-0.6387,1.7822-0.9023,2.2002-0.9902c2.3105-0.5283,3.9824-2.5303,3.9824-4.9287
			c0-1.166-0.374-2.2227-1.3643-2.9043c-1.4082,1.9795-3.0361,3.7617-4.8184,5.4346c0.1758,0.2637,0.4619,0.7041,0.4619,1.0342
			c0,0.9678-0.9902,1.6719-1.8921,1.6719c-0.418,0-0.8364-0.1543-1.1665-0.3955C14.5029,26.0083,13.3809,26.8657,12.3906,26.8657z
			 M12.6548,19.7808c-0.5503,0.4619-1.7603,1.4961-1.7603,2.2881c0,0.6162,0.4399,1.3203,1.1221,1.3203
			c0.3301,0,1.1445-0.5723,1.4302-0.748C13.1167,21.7173,12.853,20.7495,12.6548,19.7808z M19.498,13.7739
			c0-0.374,0.1978-0.6162,0.5278-0.7695c-1.4082,0.2852-2.7944,0.7041-4.1587,1.0996c-0.0879,0.5059-0.1978,1.0127-0.2197,1.5186
			c1.2759-0.418,3.2344-0.8799,4.5767-0.7041C19.9819,14.6323,19.498,14.1704,19.498,13.7739z M15.7134,17.8228
			c0.1099,0.8584,0.2861,1.7158,0.5718,2.5303c1.1006-1.0781,2.1787-2.2227,3.1685-3.3887
			C18.1558,17.0308,16.9014,17.3169,15.7134,17.8228z"/>
	</g>
</g>
</svg>
