<?xml version="1.0" encoding="utf-8"?>
<!-- Generator: Adobe Illustrator 25.2.1, SVG Export Plug-In . SVG Version: 6.00 Build 0)  -->
<svg version="1.1" id="レイヤー_1" xmlns="http://www.w3.org/2000/svg" xmlns:xlink="http://www.w3.org/1999/xlink" x="0px"
	 y="0px" viewBox="0 0 36 36" style="enable-background:new 0 0 36 36;" xml:space="preserve">
<style type="text/css">
	.st0{fill:#1E1E28;}
	.st1{fill:#FFFFFF;}
</style>
<path class="st0" d="M18,0C2.8125,0,0,2.8125,0,18s2.8125,18,18,18s18-2.8125,18-18S33.1875,0,18,0z"/>
<g>
	<g>
		<path class="st1" d="M19.3018,15.3652c0.126-0.5459,0.4409-2.54,1.1758-2.54c0.3569,0,0.4619,0.6504,0.4619,0.8809
			c0,0.5879-0.126,1.1348-0.2729,1.6797c0.6299,0.1055,1.2388,0.2109,1.8477,0.3359c3.1074,0.6309,4.1782,3.4229,4.1782,6.2363
			c0,3.3174-1.3857,5.375-4.9341,5.375c-0.3359,0-1.3438-0.1055-1.3438-0.6299c0-0.6299,1.3018-0.6719,1.7427-0.6924
			c0.5669-0.043,1.1128-0.1895,1.6377-0.4629c1.3018-0.7129,1.6587-2.1621,1.6587-3.6113c0-3.4844-1.8267-4.8496-5.0811-5.1855
			c-0.7139,2.5195-0.9658,6.2148-2.9185,8.125c0.4619,0.2949,1.7427,1.0078,1.7427,1.5752c0,0.084-0.021,0.1475-0.063,0.252
			c-0.147,0.126-0.2939,0.168-0.4409,0.168c-0.6089,0-1.7007-0.7354-2.2256-1.0713c-1.0078,0.7354-2.2466,1.3232-3.5483,1.3232
			c-2.6035,0-3.6113-2.751-3.6113-4.8506c0-2.7285,1.4277-4.7871,3.9263-5.7949c0.042-1.4277,0.189-3.2324,0.6299-4.6191
			c-1.1548,0.0215-2.3306,0.1895-3.4644,0.1895c-0.2939,0-1.0708-0.084-1.0708-0.5254c0-0.4609,1.1128-0.7764,2.3516-0.8809
			c1.0708-0.084,2.2256-0.084,2.7085-0.084c0.126-0.5039,0.4199-1.8906,1.0708-1.8906c0.3149,0,0.3989,0.3359,0.3989,0.5879
			c0,0.4199-0.105,0.8193-0.21,1.2188c1.2598-0.043,2.5405-0.0635,3.8003-0.0635c1.6587,0,3.3384,0,4.9971,0.126
			c0.4199,0.0215,1.6377,0.126,1.6377,0.7559c0,0.5459-0.8608,0.5664-1.2598,0.5664c-1.7217,0-3.4644-0.1465-5.207-0.1465
			c-1.4487,0-2.8975,0.042-4.3462,0.126c-0.5249,1.1758-0.6719,2.7715-0.7139,4.0947c1.4487-0.3994,2.9814-0.5674,4.4722-0.5674
			H19.3018z M13.2759,17.9482c-1.5537,1.0283-2.6665,2.2676-2.6665,4.1992c0,1.4482,0.7559,3.6523,2.3306,3.6523
			c0.8608,0,1.7007-0.4824,2.3936-1.0283c-1.3438-1.2598-2.0576-4.7236-2.0576-6.6553V17.9482z M18.5459,16.709
			c-1.3438,0-2.6875,0.1885-3.9473,0.6084c0.168,1.9746,0.3779,5.25,1.8896,6.7188c1.5957-1.6582,2.0786-5.123,2.5615-7.3271
			H18.5459z"/>
	</g>
</g>
</svg>
