<?xml version="1.0" encoding="utf-8"?>
<!-- Generator: Adobe Illustrator 25.2.1, SVG Export Plug-In . SVG Version: 6.00 Build 0)  -->
<svg version="1.1" id="レイヤー_1" xmlns="http://www.w3.org/2000/svg" xmlns:xlink="http://www.w3.org/1999/xlink" x="0px"
	 y="0px" viewBox="0 0 36 36" style="enable-background:new 0 0 36 36;" xml:space="preserve">
<style type="text/css">
	.st0{fill:#1E1E28;}
	.st1{fill:#FFFFFF;}
</style>
<path class="st0" d="M18,0C2.8125,0,0,2.8125,0,18s2.8125,18,18,18s18-2.8125,18-18S33.1875,0,18,0z"/>
<g>
	<g>
		<path class="st1" d="M18.0303,8.7163c-0.0776-0.2334-0.0259-0.3115,0-0.3379c0.0522-0.0518,0.416,0,0.5464,0.0518
			c0.1299,0.0781,0.1816,0.1562,0.2339,0.4424c0.0518,0.3125,0.104,0.4941,0.2339,0.7021c0.0518,0.1035,0.1562,0.3643,0.208,0.4941
			s0.1299,0.2861,0.1821,0.3643c0.1299,0.1816,0.5718,0.5195,0.8062,0.623c0.1035,0.0527,0.3638,0.0264,0.5977,0.0264
			c0.2603,0,0.52,0.1826,0.52,0.3643c0,0.5459-0.1558,0.7021-0.624,1.1699c-0.3638,0.3643-0.8838,0.4941-1.2222,0.624
			c-0.2339,0.0781-0.9355,0.5977-1.1436,0.7803c-0.1045,0.0781-0.2861,0.208-0.416,0.3379
			c-0.1821,0.1562-0.3643,0.2861-0.4941,0.4678c-0.2344,0.3379-0.3379,0.4678-0.3643,0.5723
			c-0.0259,0.1035-0.1558,0.416-0.312,0.624c-0.1299,0.1562-0.0776,0.3896-0.312,0.624c-0.104,0.1035-0.0518,0.1816-0.1299,0.4424
			c-0.1821,0.5713-0.4419,1.1436-0.4941,1.3516c0,0.0518-0.0259,0.2861-0.0518,0.3379c-0.0264,0.0518-0.0781,0.3379-0.104,0.416
			l-0.104,0.2861c-0.0522,0.1299-0.0522,0.624-0.0781,1.2998c0.0259,0.1299,0.0518,0.1562,0.208,0.1045
			c0.0781-0.0781,0.416-0.208,0.624-0.2344c0.0518,0,0.1299-0.0518,0.1562-0.0781c0.0776-0.0781,0.4419-0.2334,0.5718-0.2861
			c0.104-0.0518,0.208-0.0254,0.416,0c-0.0522-0.0518-0.0522-0.0781,0.208-0.1035c-0.0259,0.1035,0.0781,0.0781,0.1299-0.0264
			c0.0259-0.0518,0.0522-0.1299,0.1821-0.2598v-0.624c0-0.4678-0.0518-0.7803-0.0781-0.832
			c-0.0259-0.0518-0.0259-0.2344-0.0259-0.3896c0-0.1562,0-0.3643-0.0259-0.4424c0-0.0781-0.0264-0.2344-0.0264-0.3125
			l-0.0259-0.1553c0.104,0.0518,0.208,0.0781,0.3901-0.1045c0.104-0.1035,0.0781-0.1299,0.3901-0.1562
			c0.104,0,0.1821,0,0.2598,0.0264c0.104,0.0518,0.9624,0.7285,1.144,0.9365c0.1562,0.1816,0.312,0.4941,0.3643,0.7539
			c0.0259,0.1035,0.0518,0.2861,0.0518,0.5723c0.5459-0.0781,1.3003-0.0527,1.5859,0c0.5464,0.0771,1.6123,0.3896,1.7686,0.5195
			c0.1035,0.0781,0.416,0.2344,0.5718,0.3643c0.1558,0.1035,0.3901,0.3896,0.4683,0.4678c0.0776,0.0781,0.1816,0.1816,0.2339,0.208
			c0.0518,0.0264,0.1821,0.1045,0.2598,0.2344c0.0522,0.1035,0.2861,0.3379,0.3384,0.3633
			c0.0518,0.0264,0.0776,0.0781,0.1299,0.1826c0.0518,0.0254,0.104,0.0518,0.1299,0.1562c0.0259,0.0771,0.0518,0.1553,0.0781,0.207
			c0.0259,0.0264,0.1816,0.1045,0.1816,0.1562c0,0.0527,0.0522,0.1299,0.1045,0.1826c0.0518,0.0518,0.0776,0.1035,0.1035,0.2334
			c0,0.0781,0.1304,0.3125,0.208,0.5205c0.0781,0.208,0.0781,0.416,0.0781,0.4941c0,0.0518,0.0522,0.1553,0.0781,0.208
			c0.0781,0.1035,0.0781,0.2334,0.0259,0.3379c-0.0259,0.0518-0.0518,0.1035,0,0.208c0.0522,0.1299,0.0522,0.1553,0.0259,0.208
			c-0.0259,0.0781-0.0518,0.1035-0.0259,0.1299s0.0259,0.1562,0,0.1562c-0.0518,0-0.0518,0.1299,0,0.2334
			c0.0259,0.0527,0.0259,0.1299-0.0259,0.4688c-0.0518,0.3896-0.104,0.4932-0.2339,0.5459
			c0.0518,0.0518,0.0259,0.1299-0.0259,0.2334c-0.0264,0.0527-0.0522,0.1299-0.0522,0.208c0,0.1045-0.1299,0.1562-0.2339,0.2607
			c-0.0781,0.0771-0.104,0.1299-0.1299,0.1035c-0.0522-0.0518-0.1821-0.0264-0.2344,0.0264
			c-0.0518,0.0518-0.0518,0.0518,0.0522,0.1816c-0.0259,0.0264-0.0522,0-0.1304,0c-0.1035-0.0264-0.1299-0.0264-0.208,0.0264
			c-0.208,0.1553-0.6758,0.2598-1.0137,0.208c-0.1562-0.0264-0.5459,0-0.6763,0c-0.1821,0.0254-0.7017-0.1045-0.7798-0.1826
			c0.0781,0,0.0518-0.0518-0.0264-0.1035c-0.0259-0.0264-0.0776-0.0781-0.1035-0.1299c-0.0264-0.0527-0.0781-0.1299-0.1562-0.1826
			c-0.104-0.0781-0.104-0.0781-0.104-0.1562c0-0.1035,0-0.1553-0.1821-0.2334c-0.104-0.0518-0.52-0.3125-0.52-0.4424
			c0.104-0.0254,0.2861,0,0.312-0.1035l0.0264-0.1826c-0.1045-0.1035-0.1304-0.1553-0.3125-0.2598
			c-0.1299-0.0781-0.1558-0.1299-0.3115-0.3379c-0.0522-0.0781-0.1821-0.2344-0.1562-0.2861
			c0.0781-0.1299,0.1299-0.1299,0.208-0.1035c0.0518,0.0254,0.0781,0.0254,0.104-0.1309l0.104,0.0527
			c0.1562,0.0781,0.1821,0.0518,0.208,0c0.0518-0.0781,0.0781,0,0.1299,0.1816c0.0264,0.1045,0.1821,0.1816,0.2344,0.1816
			c0.0776,0,0.1299,0.0527,0.1816,0.0781c0.0522,0.0264,0.0264-0.0781,0-0.208c-0.0259-0.1035,0-0.1299,0-0.208
			c0.0522-0.0518,0.1562-0.0781,0.2344-0.0518c0.0518,0.0264,0.0518,0.1826,0.1035,0.208c0,0.1299,0.1045,0.1816,0.1304,0.3125
			l0.2598-0.0264c0.1821-0.0264,0.5723-0.1045,0.7544-0.2861c0.2339-0.2344,0.2598-0.8057,0.2339-1.248
			c-0.0259-0.416,0.0259-0.9619-0.312-1.2998c-0.0781-0.0781-0.1821-0.4424-0.312-0.6504c-0.2603-0.416-0.5464-0.5977-0.728-0.7803
			c-0.1821-0.1816-0.5723-0.3896-0.8584-0.4932c-0.2856-0.1045-0.4678-0.1299-0.5718-0.1299h-0.3901l0.2603-0.0781
			c0.2856-0.0781,0.4419-0.1045,0.3638-0.1562c-0.0518,0-0.3638-0.1816-0.4419-0.1816c-0.2339-0.0264-0.0259-0.1309,0.2603-0.1045
			c0.416,0.0264,0.8057,0.1562,1.4819,0.4941c0.1821,0.0781,0.312,0.1562,0.3379,0.1562c0.1299,0-0.624-0.4424-1.0142-0.624
			c-0.312-0.1562-0.4678-0.208-0.8579-0.1826c-0.3638,0.0264-0.5459,0.0518-0.5981,0.208
			c-0.0259,0.0781-0.0781,0.1045-0.2598,0.1299c-0.1299,0.0264-0.208,0.0527-0.2603,0.1826c-0.0259,0.0781,0,0.0781,0.0781,0.0518
			s0.5459,0,0.5718,0.1045c-0.1035,0.0771-0.208,0.1553-0.2339,0.1553c-0.104,0.0264-0.208,0-0.416,0
			c-0.1299,0-0.1821,0.0781-0.2856,0.1299c-0.0781,0.0264-0.0781,0.0781-0.1562,0.1309c-0.104,0.0518-0.1299,0.1035-0.1562,0.1553
			c-0.0259,0.1299-0.1816,0.2344-0.3115,0.3379l-0.1304,0.1045v0.1035c0,0.1826-0.0259,0.3125-0.208,0.4424l-0.1821,0.1299
			l-0.0518,0.2344c-0.0781,0.0254-0.1821,0.1816-0.2339,0.3379c-0.0259,0.1035-0.1821,0.1816-0.312,0.3115
			c-0.0781,0.0781-0.1821,0.1562-0.2344,0.1826c-0.0518,0.0254-0.1299,0.1299-0.208,0.2334
			c-0.5977,0.9365-0.7017,1.0928-1.1177,1.4561c-0.1821,0.1562-0.3384,0.3125-0.3384,0.3379c0,0.0264,0.3125,0.7803,0.3901,0.7021
			c0.0259-0.0518,0.0522-0.1553,0.0781-0.208l0.0522-0.1299h0.3379c0,0.0518,0.0518,0.3379,0.104,0.4941
			c0.0518,0.1826,0.0776,0.3125,0.0776,0.4424s0.0264,0.1816,0.1304,0.3896c0.1558,0.2598,0.3379,0.5723,0.312,0.8057
			c-0.104,0-0.2603,0.0527-0.312,0.209c-0.0259,0.0771-0.0522,0.1035-0.1562,0.1299c-0.1558,0.0518-0.3638,0.0254-0.728-0.1562
			c-0.4678-0.2344-0.624-0.416-0.9619-1.04c-0.3643-0.6758-0.3901-0.7021-0.4678-0.7021c-0.0522,0-0.1562,0.0518-0.5205,0.2598
			c-0.2339,0.1562-0.416,0.2344-0.5459,0.3379c-0.1299,0.0781-0.3638,0.208-0.4941,0.2607c-0.2598,0.1035-1.248,0.416-1.6377,0.5459
			c-0.1821,0.0518-0.2861,0.1035-0.3643,0.1816c-0.0518,0.0518-0.1558,0.1045-0.1816,0.1299
			c-0.0781,0.0527-0.1821,0.0264-0.2861-0.0254c-0.0522-0.0264-0.104-0.0527-0.1821-0.0264
			c-0.2603,0.0518-0.3638,0.0518-0.6763-0.1045c-0.4937-0.2598-1.3257-0.8838-1.2739-0.9355
			c0.0259-0.0264,0.0522-0.0264,0.104,0.0264c0.1299,0.1035,0.1821,0.0771,0.0522-0.1045c-0.208-0.3115-0.2603-0.4414-0.2603-0.624
			c0-0.208,0.0522-1.04,0.104-1.1182c0.0522-0.1035,0.416-0.4414,0.4683-0.4678c0.1299-0.0518,0.3379-0.1562,0.5459-0.3115
			c0.0518-0.0264,0.3379-0.2344,0.4941-0.3389c0.2339-0.1553,0.2598-0.1553,0.2861-0.1299
			c0.0518,0.0781,0.1299,0.0781,0.1816,0.0527c0.0264-0.0264,0.3643-0.3643,0.9619-0.7285c0.624-0.3896,1.2222-0.7285,1.4302-0.832
			c0.2339-0.1299,0.4941-0.1816,0.4683-0.2861c-0.1562-1.0918-0.1299-1.5596-0.1299-2.0537c0-0.5459,0.1035-0.9619,0.416-2.002
			c0.1299-0.4688,0.3379-1.1699,0.832-2.1064l0.1816-0.3379l-0.208-0.0518c-0.1299-0.0264-0.2861-0.1309-0.312-0.0781
			c-0.0259,0.0518-0.104,0-0.1558-0.1045c-0.0522,0.1562-0.104,0.1562-0.2344,0.1826c-0.1558,0.0254-0.2339-0.0264-0.2598-0.1562
			c0-0.0518-0.0518-0.0781-0.0781-0.0518c-0.0781,0.0518-0.1558,0.0771-0.3379-0.0527c-0.0259-0.0254-0.2339-0.1299-0.2861-0.1553
			c-0.1299-0.0527-0.2339-0.1309-0.2861-0.2344c-0.0259-0.0518-0.1035-0.1299-0.1816-0.1816
			c-0.0781-0.0527-0.1821-0.1562-0.2344-0.2344c-0.0518-0.0781-0.1816-0.2344-0.2598-0.3125
			c-0.1562-0.1816-0.2598-0.3896-0.2861-0.5713c0-0.1045-0.0259-0.1562-0.104-0.208c-0.1299-0.1299-0.1821-0.8584-0.1821-1.0664
			s0.0264-0.2598,0.3125-0.3643c0.2339-0.1035,0.416-0.1299,0.624-0.0771c0.1035,0.0254,0.1035,0.0254,0.208-0.0781
			c0.0776-0.0781,0.1035-0.1309,0.1299-0.1309c0.0259,0,0.52,0.2344,0.624,0.2861c0.0518,0.0264,0.1558,0.1562,0.208,0.2344
			c0.0781,0.1045,0.1299,0.1045,0.1558,0.1045s0.0781-0.0264,0.1304-0.0264c0.0776-0.0264,0.1035,0,0.1299,0.0781
			c0.104,0.1553,0.1558,0.208,0.2861,0.2334c0.0776,0.0781,0.208,0.1045,0.5195,0.1309c0.1045,0,0.3643,0.0771,0.624,0.0771
			c0.5464,0.0264,0.624,0,0.7285-0.1553c0.0776-0.1309,0.208-0.5205,0.3115-1.2744c0.1045-0.832,0.1821-1.0918,0.2344-1.248
			c0.0781-0.1816,0.312-0.416,0.5718-0.624L18.0303,8.7163z M15.1182,24.9937l-0.104-0.2344
			c-0.208-0.4941-0.3896-1.0137-0.3896-1.0918c0-0.0527,0.0259-0.0264,0.1299,0.2334c0.0781,0.1826,0.1558,0.3643,0.208,0.416
			c0.0259-0.0254-0.0522-0.2334-0.1821-0.624c-0.104-0.3379-0.1821-0.624-0.2861-0.5723c0.0259,0.0264-0.0776,0.0264-0.1299,0
			c-0.0259-0.0254-0.0522,0-0.0781,0.0781c0,0.0264-0.0776,0-0.1821,0.0527c-0.0776,0.0254-0.1558,0.1035-0.1558,0.1299
			c0,0.0254-0.0781,0.0781-0.1299,0.1035c-0.0522,0.0264-0.104,0.1045-0.0522,0.1826c-0.0518,0-0.0781,0.0518-0.1558,0.0254
			c-0.0259,0-0.1304,0.1045-0.2603,0.208c-0.1299,0.1045-0.312,0.2344-0.3638,0.2607c-0.104,0.0518-0.2339,0.1299-0.416,0.3115
			c-0.1562,0.1562-0.3643,0.3643-0.4683,0.4424c-0.312,0.2598-0.5718,0.5977-0.5718,0.832c0,0.1553,0.0259,0.208,0.104,0.1816
			c0.0518-0.0264,0.0518-0.0264,0.0518,0.0518c0,0.0518,0.0522,0.1045,0.0522,0.1562c0.0259,0.0781,0.0518,0.0781,0.104,0.0781
			c0.0518,0,0.208,0.0781,0.2861,0.0518c0.0776-0.0254,0.2339-0.0781,0.3896-0.1035c0.2344-0.0264,0.52-0.1562,0.6504-0.1826
			c0.208-0.0781,0.416-0.1553,0.4678-0.1553s0.1299-0.0527,0.1562-0.0781c0.0776-0.1045,0.7275-0.3643,0.8579-0.3906
			c0.104-0.0254,0.1299-0.1562,0.3379-0.2861L15.1182,24.9937z M13.5845,11.2905h-0.0522c-0.0259,0-0.0781-0.0518-0.104-0.0518
			c-0.0518-0.0264-0.0781,0.0264-0.0259,0.0781c0.0259,0.0518,0.0518,0.0518,0.1299,0.0254L13.5845,11.2905z M14.52,23.2251
			c0.0264,0,0.0264,0.0781,0.0264,0.1299s0.0259,0.0781,0,0.0781c-0.0264,0-0.0522-0.0781-0.0522-0.1299
			C14.4941,23.2251,14.4941,23.1987,14.52,23.2251z M14.52,21.3267v0.1299c0,0.0527,0.0264,0.1309,0.0264,0.1562
			c0.0259,0.0527,0.0518,0.0264,0.0518-0.0518c0-0.0518,0-0.1045-0.0259-0.1562L14.52,21.3267z M14.6763,23.1206
			c0.0781,0.3125,0.1562,0.3906,0.1821,0.416c0.0259,0,0.0259,0,0.0259-0.1035c0-0.1562-0.0259-0.208-0.1299-0.3125
			C14.728,23.0688,14.7021,23.0435,14.6763,23.1206z M14.8843,21.1187l-0.1562,0.0781c0.0522,0.1045,0.1562,0.2344,0.208,0.2344
			c0.1045,0,0.1304-0.0781,0.1045-0.5205c-0.0264-0.3379-0.0522-0.416-0.0781-0.416c-0.0264,0-0.0264,0.0781-0.0264,0.3125
			L14.8843,21.1187z M15.0405,22.8091c-0.0264,0-0.0522,0.0518-0.0522,0.1045c0,0.0254,0,0.1035,0.0259,0.1816
			c0.0264,0.0518,0.0522,0.1562,0.0781,0.2598c0.0259,0.0781,0.0518,0.208,0.0781,0.2344c0.0259,0.0254,0.104,0.1562,0.1299,0.2598
			c0.0781,0.208,0.1821,0.4424,0.2339,0.4424c0.0259,0-0.104-0.3389-0.2339-0.7549S15.0664,22.8091,15.0405,22.8091z
			 M15.0405,23.9009c-0.0522-0.0518-0.0522-0.0518-0.0522,0.0264s0.0259,0.1299,0.0781,0.0781
			C15.0923,23.979,15.0923,23.9272,15.0405,23.9009z M15.2222,24.5249c-0.0259,0-0.0259,0.0264,0,0.0527
			c0.0264,0.0254,0.0264,0.0518,0.0522,0.0254C15.3003,24.5776,15.2485,24.4995,15.2222,24.5249z M17.7446,21.3013
			c-0.0522,0.0518-0.1045,0.1035-0.1562,0.1035s-0.104,0.0264-0.1562,0.0781c-0.0518,0.0518-0.1035,0.1045-0.1299,0.1045
			c-0.0259,0-0.1299,0.0254-0.208,0.0781c-0.104,0.0518-0.1558,0.0771-0.208,0.0771c-0.0518,0-0.104-0.0254-0.1299,0.0264
			c-0.0259,0.0264-0.1299,0.1299-0.2861,0.2344c-0.1299,0.1035-0.2861,0.208-0.3379,0.2334
			c-0.0518,0.0264-0.104,0.0518-0.1821,0.0781c0,0.0518,0.0522,0.1045-0.0259,0.1045s-0.1299,0-0.1299,0.1553
			c0,0.1826,0.0518,0.5459,0.1558,0.8584c0.0781,0.2344,0.312,0.7539,0.3643,0.8057c0.0259,0.0264,0.104-0.0254,0.4678-0.4414
			c0.2861-0.3379,0.312-0.3906,0.2861-0.4678c0-0.0527,0-0.1309,0.0522-0.2607c0.0518-0.0781,0.0776-0.1299,0.1035-0.1553
			c0.0264-0.0264,0.0522-0.0781,0.1304-0.2344c0.0518,0,0.0776-0.0781,0.0776-0.1816c0-0.0527,0.0264-0.1309,0.0522-0.1826
			s0.1558-0.3115,0.1821-0.416c0.0518-0.1816,0.1299-0.3643,0.1558-0.416c0.0522-0.0781,0.0522-0.1035,0.0259-0.2598
			L17.7446,21.3013z M16.8081,23.6411c-0.0259,0.0518-0.2339,0.208-0.2339,0.1816c0-0.0518,0.0781-0.1299,0.1562-0.208
			C16.8345,23.5366,16.8604,23.5366,16.8081,23.6411z M16.8081,20.7026c-0.0518,0-0.1816,0-0.208,0.2607
			c0.0781,0.1035,0.1304,0.1035,0.1562-0.0264c0.0259-0.0518,0.0518-0.1562,0.0518-0.1816
			C16.8345,20.729,16.8345,20.7026,16.8081,20.7026z M17.4844,22.9136c0-0.0264-0.1821,0.1035-0.1821,0.207
			c0.0522,0.0527,0.0522,0.0527,0.104,0c0.0259-0.0254,0.0781-0.1035,0.0781-0.1299C17.4844,22.9653,17.5103,22.939,17.4844,22.9136
			z M17.8223,22.3149c0.0259,0.0781-0.0259,0.1299-0.0518,0.0781c-0.0259-0.0264-0.1304-0.0518-0.1562,0
			c-0.0259,0.0264,0,0.0518,0.0522,0.1045l0.0518,0.0518l0.104-0.1045c0.0522-0.0518,0.0781-0.1035,0.0781-0.1299H17.8223z
			 M18.8623,11.9927c0.1562-0.0264,0.624-0.0781,0.7544-0.1299c0.1558-0.0264,0.3115-0.1816,0.3115-0.2598
			c0-0.0264,0.1045,0,0.2344-0.1309c0-0.0254-0.4683-0.1035-0.6504-0.2334c-0.1299-0.0781-0.208-0.208-0.3379-0.1562
			c-0.0518,0.0264-0.104,0.1299-0.1299,0.208c-0.0518,0.1299-0.1299,0.2344-0.2598,0.2598
			c-0.0781,0.0264-0.2344,0.2607-0.3125,0.4941L18.8623,11.9927z M19.2524,10.6665c-0.0781,0.1299,0.0259,0.208,0.1299,0.2344
			c0.2603,0.0518,0.312,0,0.0264-0.2344C19.3306,10.6147,19.2783,10.5884,19.2524,10.6665z M21.4624,19.7407
			c0,0.0264-0.2861,0.1045-0.3379,0.0781c-0.0518,0,0.0781-0.1035,0.1299-0.1299C21.3843,19.689,21.4624,19.7153,21.4624,19.7407z"
			/>
	</g>
</g>
</svg>
