<?xml version="1.0" encoding="utf-8"?>
<!-- Generator: Adobe Illustrator 25.2.1, SVG Export Plug-In . SVG Version: 6.00 Build 0)  -->
<svg version="1.1" id="レイヤー_1" xmlns="http://www.w3.org/2000/svg" xmlns:xlink="http://www.w3.org/1999/xlink" x="0px"
	 y="0px" viewBox="0 0 36 36" style="enable-background:new 0 0 36 36;" xml:space="preserve">
<style type="text/css">
	.st0{fill:#1E1E28;}
	.st1{fill:#FFFFFF;}
</style>
<path class="st0" d="M18,0C2.8125,0,0,2.8125,0,18s2.8125,18,18,18s18-2.8125,18-18S33.1875,0,18,0z"/>
<g>
	<g>
		<path class="st1" d="M16.1636,13.6787c-0.126,0.666-0.2158,1.3506-0.27,2.0342c1.1523-0.3057,2.3408-0.4863,3.5293-0.5039
			c0.0718-0.5225,0.3062-0.9727,0.918-0.9727c0.4863,0,0.8823,0.3965,0.8823,0.8828c0,0.0723,0,0.1436-0.0181,0.2158
			c1.3506,0.1982,2.791,0.6846,3.7451,1.7109c1.0444,1.1162,1.7646,2.5928,1.7646,4.1406c0,2.6113-1.9268,4.5918-4.2134,5.5459
			c-0.126,0.0537-0.2339,0.0723-0.3599,0.0723c-0.4863,0-0.8823-0.3965-0.8823-0.8828c0-0.3594,0.1982-0.666,0.522-0.8096
			c1.6387-0.793,3.1509-1.9453,3.1509-3.9434c0-1.0986-0.54-2.125-1.2783-2.917c-0.6841-0.7207-1.8003-1.0449-2.7549-1.1709
			c-0.5762,2.4854-1.8003,5.168-3.4927,7.1123c0.5581,0.6309,1.4761,0.793,1.4761,1.5488c0,0.4863-0.396,0.8818-0.8818,0.8818
			c-0.5942,0-1.4946-0.792-1.873-1.2061c-0.7739,0.5938-1.7285,1.0439-2.7188,1.0439c-2.3047,0-3.3848-2.3047-3.3848-4.3389
			c0-2.791,1.5845-4.6094,4.0332-5.7441c0.0537-0.9004,0.1621-1.7998,0.3062-2.7002h-0.5044c-1.7104,0-3.8169-1.6924-4.5552-3.1689
			c-0.0723-0.1445-0.1079-0.2705-0.1079-0.4326c0-0.4863,0.396-0.8818,0.8818-0.8818c0.3423,0,0.6123,0.1797,0.7925,0.4678
			c0.522,0.8828,1.8906,2.2324,2.9888,2.2324h0.8643c0.1621-0.7021,0.3604-1.458,0.6484-2.124
			c0.144-0.3604,0.4502-0.5762,0.8281-0.5762c0.4863,0,0.8823,0.3955,0.8823,0.8818c0,0.2881-0.4321,1.4404-0.54,1.8184h5.2393
			c1.1704,0,2.7729-1.2236,3.3491-2.2139c0.1621-0.2881,0.4321-0.4863,0.792-0.4863c0.4863,0,0.8823,0.3955,0.8823,0.8818
			c0,0.1445-0.0356,0.2705-0.0898,0.3965c-0.7563,1.5664-3.187,3.2051-4.9336,3.2051H16.1636z M14.021,18.4141
			c-1.4404,0.8643-2.2148,1.998-2.2148,3.7266c0,0.9727,0.3784,2.5566,1.6025,2.5566c0.6123,0,1.2964-0.3955,1.7466-0.7734
			C14.3452,22.249,14.0752,20.25,14.021,18.4141z M15.8037,18.0361c0,1.4756,0.1621,3.0781,0.6841,4.4834
			c1.2246-1.585,2.1064-3.584,2.6108-5.5098c-1.0806,0-2.2866,0.2695-3.2949,0.6123V18.0361z"/>
	</g>
</g>
</svg>
