<?xml version="1.0" encoding="utf-8"?>
<!-- Generator: Adobe Illustrator 25.2.1, SVG Export Plug-In . SVG Version: 6.00 Build 0)  -->
<svg version="1.1" id="レイヤー_1" xmlns="http://www.w3.org/2000/svg" xmlns:xlink="http://www.w3.org/1999/xlink" x="0px"
	 y="0px" viewBox="0 0 36 36" style="enable-background:new 0 0 36 36;" xml:space="preserve">
<style type="text/css">
	.st0{fill:#1E1E28;}
	.st1{fill:#FFFFFF;}
</style>
<path class="st0" d="M18,0C2.8125,0,0,2.8125,0,18s2.8125,18,18,18s18-2.8125,18-18S33.1875,0,18,0z"/>
<g>
	<g>
		<path class="st1" d="M18.7969,27.6401c-0.2666,0-0.4883-0.21-0.5-0.479c0-0.0068,0-0.0137,0-0.0205
			c0-0.2671,0.21-0.4888,0.4785-0.5c0.6152-0.0259,1.251-0.0532,1.8564-0.1592c0.7676-0.1309,1.5674-0.4048,2.377-0.8149
			c0.9014-0.4507,1.5508-0.937,1.9883-1.4878c0.457-0.5688,0.7764-1.3149,0.9248-2.1602c0.0615-0.334,0.0918-0.6572,0.0918-0.9688
			c0.001-0.3535-0.0391-0.6914-0.1172-1.0122c-0.1592-0.6719-0.499-1.3193-0.9844-1.8765
			c-0.4434-0.5127-1.0098-0.9448-1.6562-1.2656c-0.623,0.8071-1.2471,1.6118-1.8828,2.4082
			c-0.7803,0.9785-1.4385,1.7642-2.0703,2.4722c-0.918,1.0298-1.6719,1.7617-2.4424,2.373
			c-0.0039,0.0029-0.0078,0.0059-0.0117,0.0083c-0.501,0.3989-1.0615,0.7871-1.7637,1.2217
			c-0.5801,0.3628-1.2695,0.7676-2.0703,0.9561c-0.667,0.1616-1.2607,0.144-1.7578-0.0562
			c-0.6523-0.2471-1.2314-0.8745-1.5391-1.6753c-0.1641-0.4199-0.2471-0.8794-0.2461-1.375c0-0.5483,0.1006-1.1411,0.3027-1.7729
			c0.0029-0.0098,0.0068-0.0195,0.0098-0.0293c0.3154-0.9873,0.8105-1.8921,1.4736-2.6875c0-0.0005,0-0.0005,0-0.0005
			c0.0117-0.0137,0.0234-0.0278,0.0352-0.0415c0.6045-0.7261,1.3799-1.3926,2.3057-1.9819c0.0029-0.002,0.0068-0.0039,0.0098-0.0063
			c0.0518-0.0327,0.1045-0.0654,0.1572-0.0977c0.6328-0.3911,1.2295-0.6831,1.8164-0.8867
			c-0.0049-0.353-0.0078-0.7031-0.0078-1.0488c0-0.3115,0.002-0.6196,0.0059-0.9233c0.0059-0.5059,0.0176-1.0112,0.0332-1.5171
			l-6.2256-0.0293c-0.2754-0.0015-0.498-0.2246-0.498-0.499c0-0.001,0-0.0024,0-0.0034c0.001-0.2754,0.2246-0.4976,0.5-0.4976
			c0.001,0,0.002,0,0.002,0l6.2559,0.0298c0.0107-0.2812,0.0215-0.562,0.0322-0.8428l0.0996-2.3862
			c0.0117-0.2686,0.2334-0.4785,0.5-0.4785c0.0068,0,0.0137,0,0.0215,0.0005c0.2686,0.0117,0.4785,0.2324,0.4785,0.4985
			c0,0.0073,0,0.0151,0,0.0225l-0.0996,2.3833c-0.0107,0.2686-0.0215,0.5366-0.0322,0.8052h9.3701c0.2764,0,0.5,0.2236,0.5,0.5
			s-0.2236,0.5-0.5,0.5h-9.4043c-0.0146,0.5088-0.0273,1.0176-0.0332,1.5269c-0.0039,0.2998-0.0059,0.604-0.0059,0.9111
			c0,0.2568,0.001,0.5161,0.0039,0.7769c0.4014-0.0825,0.7822-0.1333,1.0996-0.1704c1.2383-0.1499,2.2617-0.1714,3.2256-0.0669
			c0.8721,0.0938,1.6709,0.293,2.374,0.5923c0.0137,0.0049,0.0264,0.0103,0.0391,0.0161c0.9209,0.3872,1.7344,0.9688,2.3506,1.6816
			c0.5908,0.6777,1.0068,1.4731,1.2012,2.2983c0.0977,0.3965,0.1465,0.8125,0.1465,1.2441c0,0.3721-0.0361,0.7554-0.1094,1.1479
			c-0.1758,1.0063-0.5664,1.9092-1.127,2.6069c-0.5283,0.6655-1.2871,1.2407-2.3203,1.7573
			c-0.8975,0.4541-1.791,0.7593-2.6562,0.9067c-0.668,0.1172-1.3369,0.1455-1.9834,0.1729
			C18.8105,27.6401,18.8037,27.6401,18.7969,27.6401z M10.4688,23.229c0,0.3682,0.0605,0.7046,0.1816,1.0132
			c0.2051,0.5337,0.5762,0.9561,0.9697,1.105c0.3828,0.1543,0.8428,0.0933,1.1631,0.0151c0.6553-0.1543,1.2354-0.4961,1.7744-0.8325
			c0.5732-0.3555,1.0449-0.6758,1.4648-0.9961c-0.0869-1.0278-0.1738-2.0562-0.2422-3.085
			c-0.0762-1.1074-0.1328-2.2183-0.167-3.3291c-0.0029-0.1123-0.0068-0.2241-0.0098-0.3354
			c-0.4209,0.1704-0.8545,0.3945-1.3135,0.6777c-0.9238,0.5679-1.6846,1.2114-2.2607,1.9136
			c-0.5889,0.7075-1.0264,1.5083-1.3018,2.3828C10.5547,22.2998,10.4688,22.7876,10.4688,23.229z M16.7881,20.5317
			c0.0508,0.7402,0.1104,1.4795,0.1719,2.2183c0.4941-0.4507,1.0088-0.9805,1.5967-1.6401
			c0.6201-0.6938,1.2666-1.4658,2.0352-2.4297c0.5732-0.7183,1.1367-1.4429,1.6982-2.1699
			c-0.4609-0.1426-0.9609-0.2432-1.4941-0.3008c-0.8818-0.0942-1.8359-0.0737-3,0.0659c-0.3447,0.04-0.7676,0.0977-1.2002,0.1968
			c0.0049,0.2046,0.0107,0.4102,0.0176,0.6162c0.0342,1.0986,0.0898,2.1968,0.165,3.293
			C16.7812,20.4316,16.7852,20.4814,16.7881,20.5317z"/>
	</g>
</g>
</svg>
