<?xml version="1.0" encoding="utf-8"?>
<!-- Generator: Adobe Illustrator 25.2.1, SVG Export Plug-In . SVG Version: 6.00 Build 0)  -->
<svg version="1.1" id="レイヤー_1" xmlns="http://www.w3.org/2000/svg" xmlns:xlink="http://www.w3.org/1999/xlink" x="0px"
	 y="0px" viewBox="0 0 36 36" style="enable-background:new 0 0 36 36;" xml:space="preserve">
<style type="text/css">
	.st0{fill:#1E1E28;}
	.st1{fill:#FFFFFF;}
</style>
<path class="st0" d="M18,0C2.8125,0,0,2.8125,0,18s2.8125,18,18,18s18-2.8125,18-18S33.1875,0,18,0z"/>
<g>
	<g>
		<path class="st1" d="M19.0576,18.021c-0.3076,0-0.418-0.2422-0.418-0.5283c0-0.6162,0.5723-0.792,1.54-0.792h0.8584
			c0.2197-0.418,0.3301-0.6387,0.3301-0.792c0-0.0439-0.0439-0.1328-0.1104-0.2646c-0.0439-0.0654-0.0879-0.1758-0.0879-0.2422
			c0-0.2852,0.1104-0.5059,0.3301-0.6377c0.1543-0.1104,0.4395-0.1543,0.8359-0.1543c0.3086,0,0.5059,0.3301,0.5059,0.6162
			c0,0.1543-0.5059,1.2764-0.6602,1.584c2.0684,0.3301,4.4238,1.8486,4.4238,4.1592c0,2.002-1.5625,3.498-3.0811,4.5322
			c-1.1885,0.8145-2.5967,1.54-3.7627,1.8926c-0.418,0.1318-0.8799,0.3076-1.1221,0.4844
			c-0.2861,0.1973-0.3955,0.2412-0.6602,0.2412c-0.3076,0-0.748-0.792-0.748-0.9893c0-0.3086,0.2646-0.8145,0.6162-0.8145
			c0.0439,0,0.1543,0.0215,0.2197,0.0439c0.0664,0.0225,0.3076,0.0879,0.374,0.0879c0.5059,0,2.0469-0.6602,2.707-0.9902
			c1.4736-0.7256,4.2676-2.376,4.2676-4.2686s-2.1562-2.9482-3.7402-3.2344c-0.8145,1.6279-1.8701,2.8828-3.2344,4.0928
			c0.0664,0.1104,0.1104,0.2637,0.1104,0.3516c0,0.3086-0.2861,0.6826-0.6162,0.6826c-0.1758,0-0.3301-0.1318-0.418-0.2646
			c-1.5625,1.167-3.4326,1.8711-5.3906,1.8711c-1.3867,0-2.9492-0.5283-2.9492-2.2012c0-1.0557,0.3965-1.7598,1.0352-2.376
			c0.8135-0.7695,2.2441-1.6064,3.3662-2.2002c0.1533-0.0879,0.2412-0.1318,0.2861-0.1318c0.3516,0,0.6152,0.3076,0.6152,0.6162
			c0,0.3955-0.2412,0.5938-0.7031,0.792c-0.8359,0.3516-1.6953,0.792-2.4434,1.4082c-0.5488,0.4619-0.9668,0.9238-0.9668,1.6943
			c0,0.9463,1.209,1.1436,1.9355,1.1436c1.6504,0,3.2783-0.748,4.6211-1.6494c-1.1445-2.4209-1.4531-4.6211-1.4531-7.2832
			c0-0.3525,0.0225-0.8584,0.0449-1.1006c-1.123,0-3.4336,0.0439-5.0391,0.0879c-0.5723,0.0225-0.9238,0.0664-1.4746,0.1758
			C8.8047,13.7085,8.6289,13.73,8.54,13.73c-0.3301,0-0.6377-0.2637-0.6377-0.6162c0-0.374,0.1094-0.5938,0.8359-1.2324
			c0.1758-0.1533,0.3516-0.1973,0.6387-0.1973c0.1309,0,0.2188,0.0654,0.3955,0.2637c0.1758,0.1982,0.2422,0.2422,0.4404,0.2422
			h5.3682c0.0225-0.3301,0.1318-1.4521,0.1982-1.8262c0.0215-0.1104,0.0439-0.2646,0.0439-0.3301
			c0-0.1104-0.0654-0.1758-0.1533-0.2207c-0.1992-0.1094-0.2871-0.2197-0.2871-0.3955c0-0.2422,0.0449-0.5283,0.5059-0.792
			c0.3086-0.1758,0.4404-0.2646,0.6826-0.4619c0.1104-0.0879,0.1982-0.1328,0.3301-0.1328c0.3076,0,0.5947,0.2861,0.5947,0.5947
			c0,0.1094-0.2207,0.8135-0.3301,1.0996c-0.1992,0.5283-0.3301,1.6504-0.375,2.4424c3.917-0.1094,6.9756-0.2197,9.4844-0.4834
			c0.2637-0.0225,0.373-0.0664,0.5713-0.2207c0.0889-0.0654,0.2422-0.1533,0.3076-0.1533c0.3301,0,0.5723,0.3076,0.5723,0.6377
			c0,0.0439,0,0.0879-0.0215,0.1543c-0.0215,0.0654-0.0439,0.1533-0.0439,0.2197c0,0.0879,0.0225,0.1982,0.0225,0.2637
			c0,0.3301-0.2871,0.7266-0.6387,0.7266c-0.0879,0-0.2207-0.0664-0.4844-0.2197c-0.1543-0.0879-0.5723-0.1104-0.8145-0.1104
			c-0.3955,0-1.6719,0.0664-2.6396,0.1318c-2.1123,0.1543-4.29,0.2646-6.4033,0.2646c-0.0215,0.5273-0.0215,0.792-0.0215,1.1875
			c0,2.3105,0.2852,4.335,1.2539,6.4248c0.9902-0.8574,1.8477-1.958,2.4863-3.124C20.0039,17.9331,19.2998,18.021,19.0576,18.021z"
			/>
	</g>
</g>
</svg>
