<?xml version="1.0" encoding="utf-8"?>
<!-- Generator: Adobe Illustrator 25.2.1, SVG Export Plug-In . SVG Version: 6.00 Build 0)  -->
<svg version="1.1" id="レイヤー_1" xmlns="http://www.w3.org/2000/svg" xmlns:xlink="http://www.w3.org/1999/xlink" x="0px"
	 y="0px" viewBox="0 0 36 36" style="enable-background:new 0 0 36 36;" xml:space="preserve">
<style type="text/css">
	.st0{fill:#1E1E28;}
	.st1{fill:#FFFFFF;}
</style>
<path class="st0" d="M18,0C2.8125,0,0,2.8125,0,18s2.8125,18,18,18s18-2.8125,18-18S33.1875,0,18,0z"/>
<g>
	<g>
		<path class="st1" d="M12.792,10.7275c0.6963-0.1445,1.752-0.3125,2.9043-0.4316c0.1924-1.3926,0.3838-2.0889,0.6963-2.0889
			c0.3359,0,0.959,0.3838,1.2236,0.7207c0.4561,0.624,1.3447,1.0312,1.5596,1.248c0.3359,0.4072,0.5527,1.0078,0.4082,1.3193
			C19.3926,11.9033,18.3604,11.832,17.208,12c-0.0957,0.8633-0.168,1.9434-0.2637,2.9756c0.792-0.1914,1.584-0.3115,2.3994-0.3359
			c0.3125-0.6963,0.6006-1.3203,0.8887-1.3438c0.3125-0.0244,1.1279,0.5762,1.1758,1.5117c0.9121,0.168,1.7764,0.5039,2.4727,1.0078
			c1.248,0.9121,1.8477,2.3525,1.8477,3.9609c0,0.9121-0.1914,1.8965-0.5996,2.8799c-1.1035,2.6641-3.457,4.585-4.4648,5.041
			c-0.1914,0.0957-0.2871,0.0957-0.3838,0.0957c-0.6719,0-1.6084-0.8643-1.6084-1.3203c0-0.3594,0.6973-0.6963,1.3926-1.2002
			c2.377-1.752,4.4648-4.8486,3.4082-7.2725c-0.4082-0.9121-1.3438-1.416-2.4961-1.6084c-0.4561,1.1289-1.3203,2.7607-2.8809,4.6328
			c-1.9199,2.3037-4.7998,3.96-5.7363,3.96c-1.0078,0-1.8711-1.4883-2.0391-2.4717c-0.0254-0.1445-0.0488-0.4082-0.0488-0.624
			c0-0.8643,0.2637-1.8242,0.7676-2.7363c0.625-1.1045,1.8008-2.6162,4.249-3.624c0.0479-1.1045,0.1201-2.2324,0.2158-3.2412
			c-0.9844,0.1689-2.2324,0.6006-2.6641,0.5527c-0.5273-0.0723-1.2246-1.0801-1.2246-1.4639
			C11.6152,11.0156,12.2158,10.8477,12.792,10.7275z M15.0723,21.1445c0.0234-0.5518,0.0723-1.9443,0.1191-3.6006
			c-1.0312,0.5762-1.8477,1.3203-2.4961,2.3281c-0.623,0.9844-0.8877,2.6406-0.5039,2.9043
			C12.4805,22.9922,13.2959,22.7041,15.0723,21.1445z M16.8008,16.8477c-0.0723,1.1523-0.1211,2.1602-0.1445,2.9521
			c0.6953-0.9355,1.416-2.1113,2.1123-3.4082C18.0723,16.4883,17.1602,16.7275,16.8008,16.8477z"/>
	</g>
</g>
</svg>
