<?xml version="1.0" encoding="utf-8"?>
<!-- Generator: Adobe Illustrator 25.2.1, SVG Export Plug-In . SVG Version: 6.00 Build 0)  -->
<svg version="1.1" id="レイヤー_1" xmlns="http://www.w3.org/2000/svg" xmlns:xlink="http://www.w3.org/1999/xlink" x="0px"
	 y="0px" viewBox="0 0 36 36" style="enable-background:new 0 0 36 36;" xml:space="preserve">
<style type="text/css">
	.st0{fill:#1E1E28;}
	.st1{fill:#FFFFFF;}
</style>
<path class="st0" d="M18,0C2.8125,0,0,2.8125,0,18s2.8125,18,18,18s18-2.8125,18-18S33.1875,0,18,0z"/>
<g>
	<g>
		<path class="st1" d="M22.0283,25.9634c1.1006-1.3857,1.6064-2.5742,1.6279-3.6963v-0.3076c0-0.3525-0.0215-0.6826-0.1318-0.9688
			c-2.6406,3.8291-5.6768,5.7432-8.4932,6.1836c-0.5723,0.0879-1.0996,0.1318-1.584,0.1318c-2.7734,0-4.2246-1.4082-4.2471-4.2031
			v-0.0439c0-2.6836,1.6064-5.1924,4.4668-6.6006l-0.1104-1.8701l-3.4541,0.1318l-0.1543-2.9268l3.4541-0.1318
			c-0.043-0.8584-0.0654-1.5625-0.0654-2.1123l3.3447-0.1104c0,0.5508,0.0215,1.2324,0.0439,2.0908l8.4268-0.3086l0.1543,2.9268
			l-8.4492,0.3301l0.0439,1.0566c0.4844-0.0664,0.9678-0.0889,1.4961-0.0889c1.6504,0,3.0811,0.2646,4.2686,0.749l0.375-0.8584
			l2.8379,1.2539c-0.1758,0.3965-0.4404,0.9463-0.6602,1.3203c1.2324,1.2324,1.5625,2.7061,1.5625,4.5547
			c0,1.6064-0.6172,3.2783-1.6289,4.7305L22.0283,25.9634z M14.3711,23.7417c-0.1758-1.21-0.3086-2.5303-0.4395-4.1367
			c-0.9688,0.792-1.541,1.8701-1.541,3.0146c0,1.1875,0.4844,1.6943,1.541,1.6943h0.1973c0.8145-0.0439,2.2891-0.5283,3.0371-1.0127
			L14.3711,23.7417z M18.3535,18.1743c-0.4395,0-0.8574,0.0225-1.2539,0.0879c0.1318,1.7168,0.3086,3.3232,0.5059,4.665
			c1.3418-0.9238,2.5967-2.332,3.7402-4.2021C20.4658,18.3511,19.4316,18.1743,18.3535,18.1743z"/>
	</g>
</g>
</svg>
