<?xml version="1.0" encoding="utf-8"?>
<!-- Generator: Adobe Illustrator 25.2.1, SVG Export Plug-In . SVG Version: 6.00 Build 0)  -->
<svg version="1.1" id="レイヤー_1" xmlns="http://www.w3.org/2000/svg" xmlns:xlink="http://www.w3.org/1999/xlink" x="0px"
	 y="0px" viewBox="0 0 36 36" style="enable-background:new 0 0 36 36;" xml:space="preserve">
<style type="text/css">
	.st0{fill:#1E1E28;}
	.st1{fill:#FFFFFF;}
</style>
<path class="st0" d="M18,0C2.8125,0,0,2.8125,0,18s2.8125,18,18,18s18-2.8125,18-18S33.1875,0,18,0z"/>
<g>
	<g>
		<path class="st1" d="M22.3447,15.7197c3.2402,0.3125,4.7275,2.665,4.7275,5.2324c0,2.0889-1.2236,4.6328-2.1836,4.6328
			c-0.2158,0-0.4082-0.1201-0.5273-0.2881c0.7676-1.4639,1.1514-2.9043,1.1514-4.1523c0-0.9121-0.1924-3.7441-3.4326-4.0566
			c-1.3203,5.2812-4.9199,10.1289-9.4082,10.1289c-0.9609,0-2.1602-1.0322-2.1602-2.7119c0-1.9443,1.6318-4.8242,4.3682-6.6729
			c-0.0713-0.7197-0.0967-1.4883-0.0967-2.2559c0-0.7197,0.0254-1.416,0.0967-2.1367l-0.2402-0.2158
			c-1.752,0.5283-3.4082,1.0801-4.9678,1.7041c-0.0967,0.0479-0.1924,0.0479-0.2646,0.0479c-0.2881,0-0.4795-0.2158-0.4795-0.5752
			c0-0.2168,0.0723-0.5049,0.2402-0.8164c1.6797-0.624,3.7441-1.2246,5.9043-1.7764c0.1436-0.9121,0.3594-1.7764,0.6475-2.5918
			c0.1436-0.3125,0.3369-0.4326,0.5049-0.4326c0.3828,0,0.7441,0.4805,0.9121,1.0322c-0.1445,0.4326-0.2646,0.8887-0.3848,1.3447
			l0.2168,0.1914c1.5352-0.3594,3.0469-0.6719,4.4395-0.9355c0.1201,0.0957,0.168,0.2393,0.168,0.4072
			c0,0.3369-0.2402,0.7441-0.7197,0.8643c-1.5127,0.3359-3.001,0.6484-4.417,1.0322c-0.1914,1.2002-0.2637,2.4004-0.2637,3.5527
			c0,0.168,0,0.3115,0,0.4795l0.2881,0.1445c1.417-0.6719,2.9766-1.0801,4.5605-1.1768l0.1436-0.9355
			c0.2891-0.168,0.6006-0.2881,0.8398-0.2881c0.2646,0,0.457,0.1436,0.457,0.4795c0,0.0723,0,0.1445-0.0244,0.2168L22.3447,15.7197z
			 M14.7598,19.3926c-2.3281,1.9199-2.7119,4.1758-2.7119,5.1846c0,0.6475,0.1436,1.1035,0.3604,1.3438
			c0.1436,0.0244,0.2637,0.0244,0.4082,0.0244c1.4395,0,2.9277-0.8887,4.0801-1.9922c-1.0566-0.8643-1.5127-2.4248-1.8242-4.417
			L14.7598,19.3926z M17.9043,22.8252c1.1035-1.4648,2.0156-3.2891,2.6875-5.4492l-0.2871-0.2637
			c-1.416,0.168-2.8086,0.5762-4.0332,1.248c0.2402,2.2324,0.6484,3.6006,1.2969,4.416L17.9043,22.8252z"/>
	</g>
</g>
</svg>
