<?xml version="1.0" encoding="utf-8"?>
<!-- Generator: Adobe Illustrator 25.2.1, SVG Export Plug-In . SVG Version: 6.00 Build 0)  -->
<svg version="1.1" id="レイヤー_1" xmlns="http://www.w3.org/2000/svg" xmlns:xlink="http://www.w3.org/1999/xlink" x="0px"
	 y="0px" viewBox="0 0 36 36" style="enable-background:new 0 0 36 36;" xml:space="preserve">
<style type="text/css">
	.st0{fill:#1E1E28;}
	.st1{fill:#FFFFFF;}
</style>
<path class="st0" d="M18,0C2.8125,0,0,2.8125,0,18s2.8125,18,18,18s18-2.8125,18-18S33.1875,0,18,0z"/>
<g>
	<g>
		<path class="st1" d="M15.6475,10.606c0-0.6826-0.3965-1.2324-0.8584-1.6943c0.2861-0.3965,0.7695-0.5947,1.2764-0.5947
			c0.8135,0,2.3984,0.7266,2.3984,1.6729c0,0.2197-0.0889,0.374-0.2861,0.6816c-0.1543,0.2646-0.2422,0.5283-0.3301,0.8145
			c0.5938-0.1543,1.1875-0.3525,1.7598-0.5498c0.375-0.1328,0.7705-0.2646,1.1445-0.2646c0.6387,0,1.4521,0.418,1.4521,1.1445
			c0,0.7041-0.7256,1.0996-1.2979,1.3203c-1.1445,0.3955-2.377,0.6602-3.5645,0.8574c-0.0879,0.4844-0.1328,0.9688-0.1758,1.4521
			c1.166-0.374,2.376-0.5938,3.6074-0.5938c1.3867,0,2.8164,0.2861,3.8945,1.2324c1.2109,1.0342,1.7832,2.6406,1.7832,4.2021
			c0,2.8389-1.6064,4.9072-4.0928,6.0957c-1.6729,0.7695-3.4766,1.2314-5.3027,1.3633l-0.0664-0.2197
			c1.6943-0.748,3.3447-1.54,4.7314-2.7939c1.2314-1.1221,2.0898-2.5527,2.0898-4.2686c0-2.2666-1.2539-4.2031-3.6973-4.2031
			c-0.1309,0-0.2637,0-0.3955,0.0225c-0.4834,1.8037-1.1885,3.4102-2.332,4.9062c0.0654,0.4619,0.1533,0.9463,0.1533,1.4307
			c0,0.6602-0.2637,1.5615-1.0557,1.5615c-0.5283,0-0.9023-0.4395-1.0781-0.8799c-1.0342,0.9238-3.0811,2.4648-4.5107,2.4648
			c-1.1875,0-1.5176-1.0342-1.5176-2.0469c0-3.0586,3.3652-6.1826,5.8965-7.4805c0.0215-0.6602,0.0879-1.3203,0.1543-1.9805
			c-0.418,0.0439-0.8145,0.0654-1.2324,0.0654c-0.9463,0-1.8262-0.3301-2.5312-0.9678c-0.418-0.374-0.748-0.8359-0.748-1.4297
			c0-0.1104,0-0.1982,0.0225-0.3086c0.9248,0.2861,1.8926,0.418,2.8604,0.418c0.5938,0,1.1885-0.0215,1.7822-0.1094
			C15.6035,11.4858,15.6475,11.0454,15.6475,10.606z M11.6865,22.9937c0,0.1318,0.0439,0.2861,0.2197,0.2861
			c0.793,0,2.5967-1.5186,3.2129-2.0684c0-0.3525,0-0.7041,0-1.0781c0-0.7705,0-1.5186,0.0439-2.2891
			C13.9316,18.769,11.6865,21.3872,11.6865,22.9937z M17.0781,17.4702c0,0.5508,0.0215,1.1006,0.0654,1.6504
			c0.6162-0.8135,1.0342-1.7158,1.2539-2.7285c-0.4404,0.1104-0.8799,0.2207-1.3193,0.374
			C17.0781,17.0083,17.0781,17.229,17.0781,17.4702z"/>
	</g>
</g>
</svg>
