<?xml version="1.0" encoding="utf-8"?>
<!-- Generator: Adobe Illustrator 25.2.1, SVG Export Plug-In . SVG Version: 6.00 Build 0)  -->
<svg version="1.1" id="レイヤー_1" xmlns="http://www.w3.org/2000/svg" xmlns:xlink="http://www.w3.org/1999/xlink" x="0px"
	 y="0px" viewBox="0 0 36 36" style="enable-background:new 0 0 36 36;" xml:space="preserve">
<style type="text/css">
	.st0{fill:#1E1E28;}
	.st1{fill:#FFFFFF;}
</style>
<path class="st0" d="M18,0C2.8125,0,0,2.8125,0,18s2.8125,18,18,18s18-2.8125,18-18S33.1875,0,18,0z"/>
<g>
	<g>
		<path class="st1" d="M8.3643,19.9126H9.75v-1.3643h1.3652v-1.3643h1.3418v-1.3418h2.7285v-3.8506H9.75v-1.6064h5.4355V7.6792
			h1.584v2.7061h9.5273v1.6064h-9.5273v2.4863h4.0918v1.3643h1.123V14.478h1.3418v-1.3643h1.6064v1.6064h-1.3643v1.1221h1.3643
			v1.3418h1.3643v1.3643h1.3418v5.6768h-1.3418v1.3643h-1.3643v1.3867h-1.3643v1.3643h-4.3125v-1.6289h4.0703v-1.3633h1.3643
			v-1.3428h1.3643v-5.2148h-1.3643v-1.3643h-2.4863v1.3643h-1.3428v2.7285H19.498v1.3428h-1.3643v1.3633h-1.3643v1.123h1.3643
			v1.6279h-1.585v-1.3867h-2.4863v1.3867H9.75v-1.3867H8.3643V19.9126z M13.8203,25.3481v-1.3428h1.3652v-6.5791h-2.4863v1.3643
			H11.334v1.3643H9.9922v5.1934H13.8203z M17.8916,22.6411v-1.3643h1.3643v-2.7285h1.3643V16.062h-3.8506v6.5791H17.8916z"/>
	</g>
</g>
</svg>
