<?xml version="1.0" encoding="utf-8"?>
<!-- Generator: Adobe Illustrator 25.2.1, SVG Export Plug-In . SVG Version: 6.00 Build 0)  -->
<svg version="1.1" id="レイヤー_1" xmlns="http://www.w3.org/2000/svg" xmlns:xlink="http://www.w3.org/1999/xlink" x="0px"
	 y="0px" viewBox="0 0 36 36" style="enable-background:new 0 0 36 36;" xml:space="preserve">
<style type="text/css">
	.st0{fill:#1E1E28;}
	.st1{fill:#FFFFFF;}
</style>
<path class="st0" d="M18,0C2.8125,0,0,2.8125,0,18s2.8125,18,18,18s18-2.8125,18-18S33.1875,0,18,0z"/>
<g>
	<g>
		<path class="st1" d="M12.5098,26.8667c-1.166,0-2.2666-0.4619-3.0586-1.3193c-0.8359-0.9463-1.1445-2.1123-1.1445-3.3672
			c0-2.002,0.6162-3.5645,2.0469-4.9941c0.9238-0.9248,2.0234-1.585,3.2344-2.0244l0.0215-1.0127l-2.1113,0.2422
			c-0.2207,0.4844-0.6602,0.8799-1.2109,0.8799c-1.0781,0-1.8262-1.2314-1.8262-2.2217c0-1.1006,0.8145-1.8701,1.5625-2.5967
			c0.3076-0.2861,0.5723-0.5723,0.8145-0.9238c0.0879,0.3301,0.0879,0.6816,0.4834,0.6816c0.7705,0,1.5186-0.0654,2.2666-0.0879
			c0.0215-0.4619,0-0.7041-0.5059-0.792c-0.1758-0.0215-0.3965-0.0439-0.3965-0.2637c0-0.1328,0.0879-0.2861,0.2422-0.2861
			c0.0439,0,0.0879,0.0215,0.1318,0.0215c0.1768,0.0225,0.3525,0.0439,0.5283,0.0439c0.418,0,0.792-0.2422,1.166-0.4395
			c0.4619-0.2422,0.9688-0.3965,1.5176-0.3965c0.7705,0,2.4863,0.418,2.4863,1.4082c0,0.0879-0.0215,0.1982-0.043,0.2861
			c1.0332-0.0664,2.8379-0.1758,3.7842-0.4404c0.418-0.1094,0.5723-0.3955,0.7256-0.7695c0.6826,0.5498,1.3867,1.0781,2.0908,1.6064
			c0.7256,0.5498,1.3203,1.2754,1.3203,2.2217c0,1.0566-0.792,2.0469-1.8926,2.0469c-0.8799,0-1.6279-0.5508-2.3096-1.0127
			l-4.3789,0.4404v0.4619c0.5498-0.0879,1.0996-0.1318,1.6719-0.1318c4.0273,0,7.9648,2.2881,7.9648,6.6885
			c0,2.1123-0.9453,4.2031-2.6182,5.5234c-1.4521,1.1436-3.4766,1.6504-5.3252,1.6504c-0.9238,0-1.4512-0.374-1.4512-1.3428
			c0-0.0215,0.0215-0.0654,0.0215-0.1104c0-0.5713-0.4395-0.5938-1.1875-0.7041c-0.1328-0.0215-0.2871-0.0654-0.2871-0.2412
			c0-0.1328,0.1104-0.1768,0.2422-0.1768c0.2422,0,0.4844,0.0439,0.748,0.0664c0.3525,0.0215,0.7051,0.0439,1.0566,0.0439
			c0.2422,0,0.6816-0.0225,0.6816-0.374c0-0.1543-0.1973-0.2422-0.3301-0.2637c-0.5273-0.0439-1.0557-0.0439-1.584-0.0664
			C16.25,25.8989,14.3359,26.8667,12.5098,26.8667z M11.1895,25.6792c0-0.1543-0.1318-0.2422-0.2422-0.3301
			c-1.2324-0.8145-1.5625-1.8926-1.5625-3.3447c0-0.5283,0.0879-1.0342,0.1982-1.54c0.0225-0.0664,0.0225-0.1104,0.0225-0.1758
			c0-0.1328-0.1104-0.2422-0.2422-0.2422c-0.4844,0-0.5283,1.6504-0.5283,2.0244c0,1.1221,0.2646,2.3096,1.0557,3.1465
			c0.1992,0.1973,0.748,0.7041,1.0566,0.7041C11.0801,25.9214,11.1895,25.8325,11.1895,25.6792z M10.9912,24.1167
			c0-0.1318-0.0654-0.2422-0.1104-0.374c-0.2422-0.5283-0.3955-1.1221-0.3955-1.6943c0-0.3076,0.0439-0.5723,0.1318-0.8584v-0.1318
			c0-0.1758-0.1094-0.3076-0.2861-0.3076c-0.4404,0-0.3955,0.9238-0.3955,1.1875c0,0.4404,0.1973,2.4863,0.792,2.4863
			C10.9033,24.4243,10.9912,24.2925,10.9912,24.1167z M11.6953,13.3354c-0.1318,0.0215-0.2422,0.1094-0.2422,0.2637
			c0,0.1318,0.1104,0.2197,0.2422,0.2197c0.3301,0,0.6602-0.0654,0.9902-0.1094c0.2861-0.0225,1.166-0.0225,1.166-0.3525
			c0-0.1758-0.1973-0.2197-0.3301-0.2197C12.9277,13.1372,12.2891,13.2251,11.6953,13.3354z M13.4551,19.562
			c-0.5713,0.374-1.2539,1.0342-1.2539,1.7822c0,0.418,0.2646,0.8584,0.7266,0.8584c0.1318,0,0.2861-0.0439,0.418-0.0879
			C13.3672,21.2563,13.4121,20.3979,13.4551,19.562z M17.7461,9.5942c0.0664,0.0664,0.1328,0.1104,0.2207,0.1104
			c0.1318,0,0.2637-0.1104,0.2637-0.2637c0-0.6162-1.6504-0.9023-2.1123-0.9023c-0.1982,0-0.4844,0.0215-0.4844,0.2861
			c0,0.1758,0.1318,0.2422,0.2861,0.2422h0.1758C16.6465,9.0669,17.3281,9.1987,17.7461,9.5942z M19.5068,22.3784
			c0-0.1758-0.1318-0.2637-0.2861-0.2637c-0.1758,0-0.2637,0.1094-0.374,0.2197c-0.5498,0.6377-1.2324,1.21-1.9805,1.6504
			c-0.1533,0.0879-0.3525,0.1982-0.3525,0.3955c0,0.1543,0.1104,0.2646,0.2422,0.2646
			C17.2402,24.645,19.5068,22.8188,19.5068,22.3784z M16.668,20.0024c0,0.1758,0.0664,0.374,0.2861,0.374
			c0.1768,0,0.2861-0.1768,0.2861-0.3301c0-0.1768-0.0215-0.3525-0.0215-0.5283s0.0215-0.3516,0.0215-0.5283
			c0-0.1533-0.1094-0.2861-0.2637-0.2861C16.5586,18.7036,16.668,19.5845,16.668,20.0024z M17.7461,19.8696
			c0.2207-0.1973,0.6816-0.6377,0.6816-0.9453c0-0.0225,0-0.0664-0.0215-0.0879V18.77c0-0.1758,0.3086-0.1318,0.418-0.1543
			c0.2637-0.0215,0.5508-0.0215,0.8145-0.0215c0.8574,0,2.0898,0.2197,2.0898,1.3203c0,1.0781-1.4297,2.6621-2.1777,3.3662
			c0.1543,0.0215,0.3076,0.0215,0.4619,0.0215c1.4736,0,2.9922-1.2979,2.9922-2.8164c0-0.748-0.3955-1.4297-1.0117-1.8477
			c-0.7266-0.5059-1.6064-0.6387-2.4639-0.6387c-0.5947,0-1.1895,0.0225-1.7607,0.1982L17.7461,19.8696z M19.2871,24.4028
			c0.2197,0,0.6602-0.0439,0.6602-0.374s-0.7051-0.2637-0.9248-0.2637c-0.2422,0.2197-0.5059,0.418-0.792,0.6152
			C18.582,24.3804,18.9346,24.4028,19.2871,24.4028z M18.7803,13.1812c0.6162,0,2.3105-0.2197,2.9707-0.3076
			c0.1758-0.0449,0.4404-0.0889,0.4404-0.3301c0-0.1768-0.1758-0.2646-0.3301-0.2646c-0.3965,0-2.751,0.3086-3.2129,0.3965
			c-0.1318,0.0215-0.2861,0.1094-0.2861,0.2422C18.3623,13.1372,18.627,13.1812,18.7803,13.1812z M22.3887,27.0435
			c0.2861,0,0.8584-0.2646,1.123-0.3965c1.1875-0.5283,2.1777-1.4521,2.7939-2.6182c0.374-0.6826,0.8135-1.8701,0.8135-2.6406
			c0-0.1543-0.0879-0.2861-0.2637-0.2861c-0.1973,0-0.2637,0.1758-0.2852,0.3525c-0.0449,0.792-0.2871,1.584-0.6826,2.2656
			c-0.7705,1.3867-1.915,2.2666-3.4111,2.751c-0.1533,0.0654-0.3301,0.1104-0.3301,0.3076
			C22.1465,26.9106,22.2568,27.0435,22.3887,27.0435z M24.9414,24.1392c0.374-0.4629,0.9688-1.4307,0.9688-2.0244
			c0-0.1768-0.1328-0.3525-0.3086-0.3525s-0.2422,0.1318-0.2861,0.2646c-0.3076,1.3193-1.1436,2.3975-2.3105,3.0576
			c-0.1533,0.0889-0.3301,0.1543-0.3301,0.3525c0,0.1543,0.1104,0.2637,0.2422,0.2637
			C23.4453,25.7007,24.6113,24.5571,24.9414,24.1392z M24.2812,15.9312c-0.1318,0-0.2422,0.1104-0.2422,0.2422
			c0,0.1104,0.0664,0.1982,0.1543,0.2422c0.7266,0.4844,1.3418,1.1006,1.7383,1.8701c0.0664,0.1543,0.1543,0.2422,0.3301,0.2422
			c0.1318,0,0.2422-0.1318,0.2422-0.2637C26.5039,17.6694,24.8975,15.9312,24.2812,15.9312z M26.0859,12.3667
			c0-1.21-1.3428-2.1338-1.6289-2.1338c-0.1318,0-0.2637,0.1318-0.2637,0.2861c0,0.1318,0.1094,0.2422,0.1973,0.3076
			c0.5293,0.3965,1.123,0.8584,1.123,1.5625c0,0.1758-0.0449,0.3301-0.1104,0.5059c-0.0225,0.0439-0.0225,0.0879-0.0225,0.1104
			c0,0.1533,0.1104,0.2637,0.2422,0.2637C26.0195,13.269,26.0859,12.6528,26.0859,12.3667z"/>
	</g>
</g>
</svg>
