<?xml version="1.0" encoding="utf-8"?>
<!-- Generator: Adobe Illustrator 25.2.1, SVG Export Plug-In . SVG Version: 6.00 Build 0)  -->
<svg version="1.1" id="レイヤー_1" xmlns="http://www.w3.org/2000/svg" xmlns:xlink="http://www.w3.org/1999/xlink" x="0px"
	 y="0px" viewBox="0 0 36 36" style="enable-background:new 0 0 36 36;" xml:space="preserve">
<style type="text/css">
	.st0{fill:#1E1E28;}
	.st1{fill:#FFFFFF;}
</style>
<path class="st0" d="M18,0C2.8125,0,0,2.8125,0,18s2.8125,18,18,18s18-2.8125,18-18S33.1875,0,18,0z"/>
<g>
	<g>
		<path class="st1" d="M19.2598,27.4424v-3.8809h6.4414v-0.3809h-6.4414v-3.9004h6.4414v-2.5205h-0.3799v2.1406h-6.4414v2.1406
			h-8.5615v0.3799h8.5615v3.9004h-8.5615v0.3604h8.5615v1.7607H8.5371v-3.8809h8.582v-0.3809h-8.582v-3.9004h8.582v-0.3799h-8.582
			v-3.9209h8.582v-0.3799h-8.582v-3.9014h6.4414v-0.3799H8.5371V8.5576h8.2021v3.9014h-6.4209v0.3799h6.8008V8.5576h1.7607v4.2812
			h6.8213V12.459h-6.4414V8.5576h8.2021v1.7607h-6.4414v0.3799h6.4414v3.9014h-8.582v0.3799h4.6611v-0.2002h1.7803v0.2002h2.1406
			v6.0615h-6.4414v0.3799h6.4414v3.9004h-6.4414v0.3604h6.4414v1.7607H19.2598z M17.1191,16.7598h-6.8008v0.3799h6.8008V16.7598z
			 M23.541,16.7598h-4.6611v0.3799h4.6611V16.7598z"/>
	</g>
</g>
</svg>
