<?xml version="1.0" encoding="utf-8"?>
<!-- Generator: Adobe Illustrator 25.2.1, SVG Export Plug-In . SVG Version: 6.00 Build 0)  -->
<svg version="1.1" id="レイヤー_1" xmlns="http://www.w3.org/2000/svg" xmlns:xlink="http://www.w3.org/1999/xlink" x="0px"
	 y="0px" viewBox="0 0 36 36" style="enable-background:new 0 0 36 36;" xml:space="preserve">
<style type="text/css">
	.st0{fill:#1E1E28;}
	.st1{fill:#FFFFFF;}
</style>
<path class="st0" d="M18,0C2.8125,0,0,2.8125,0,18s2.8125,18,18,18s18-2.8125,18-18S33.1875,0,18,0z"/>
<g>
	<g>
		<path class="st1" d="M25.7236,23.9619c-0.1006,0.459-0.2148,0.8848-0.3438,1.2783c-0.1289,0.3945-0.2764,0.749-0.4404,1.0635
			c-0.165,0.3145-0.3184,0.5654-0.4619,0.752L22.501,25.96c0.7305-1.1025,1.0957-2.3203,1.0957-3.6523
			c0-0.6299-0.1221-1.2061-0.3652-1.7295c-0.2432-0.5225-0.5801-0.9697-1.0098-1.3428c-0.4297-0.3721-0.9492-0.6621-1.5576-0.8701
			c-0.6094-0.207-1.2715-0.3115-1.9873-0.3115c-0.1436,0-0.3154,0-0.5156,0c-0.1865,0-0.3584,0.0146-0.5156,0.043v3.3086
			l1.8906-1.1172l0.9883,1.7617l-2.8789,1.6543v3.2227h-2.2129v-2.041l-3.459,1.9766c-0.4873-0.4863-0.917-1.0635-1.2891-1.7295
			s-0.5586-1.4785-0.5586-2.4385c0-1.4893,0.4658-2.7744,1.3965-3.8564c0.9307-1.0811,2.2344-1.8867,3.9102-2.417v-2.6855h-3.8242
			v-1.9336h3.8242V8.9443h2.2129v2.8574h5.4355v1.9336h-5.4355v2.2988c0.2002-0.0283,0.4014-0.0459,0.6016-0.0537
			c0.2002-0.0068,0.3584-0.0107,0.4727-0.0107c1.0459,0,2.001,0.1582,2.8682,0.4727c0.8662,0.3154,1.6152,0.7627,2.2451,1.3428
			s1.1279,1.2676,1.4932,2.0625s0.5479,1.6865,0.5479,2.6748C25.874,23.0244,25.8242,23.5039,25.7236,23.9619z M15.4326,18.6982
			c-0.8877,0.373-1.6221,0.8779-2.2021,1.5146c-0.5801,0.6377-0.8701,1.4219-0.8701,2.3525c0,0.2578,0.0459,0.5234,0.1396,0.7949
			c0.0928,0.2725,0.2041,0.5234,0.333,0.752l2.5996-1.5254V18.6982z"/>
	</g>
</g>
</svg>
