<?xml version="1.0" encoding="utf-8"?>
<!-- Generator: Adobe Illustrator 25.2.1, SVG Export Plug-In . SVG Version: 6.00 Build 0)  -->
<svg version="1.1" id="レイヤー_1" xmlns="http://www.w3.org/2000/svg" xmlns:xlink="http://www.w3.org/1999/xlink" x="0px"
	 y="0px" viewBox="0 0 36 36" style="enable-background:new 0 0 36 36;" xml:space="preserve">
<style type="text/css">
	.st0{fill:#1E1E28;}
	.st1{fill:#FFFFFF;}
</style>
<path class="st0" d="M18,0C2.8125,0,0,2.8125,0,18s2.8125,18,18,18s18-2.8125,18-18S33.1875,0,18,0z"/>
<g>
	<g>
		<path class="st1" d="M14.7656,13.4878v-0.9023h-3.6963v-1.8037h3.6963V8.5591h1.7607l-0.0225,2.2227h8.4062v1.8037h-8.4062v0.2646
			c0,0.5283-0.0215,0.8584-0.0215,1.5625c0,0.1973,0,0.374,0,0.5713c0.8359-0.2197,1.54-0.3301,2.3984-0.3301
			c4.0264,0,6.5781,2.4209,6.5781,6.4912c0,4.291-2.7715,5.7871-6.6445,6.2051l-0.4619-1.7822
			c3.2119-0.0879,5.3467-1.0781,5.3467-4.6426c0-2.2227-1.0342-3.7852-3.1904-4.4004c-0.5723,2.7061-1.4082,5.6104-3.2783,7.7227
			c-0.9463,1.0781-2.2227,2.0244-3.7188,2.0244c-2.1777,0-2.9707-2.2002-2.9707-4.0488c0-2.9268,1.6504-5.3691,4.2695-6.6445
			C14.7881,14.896,14.7656,14.1919,14.7656,13.4878z M14.8535,17.4048c-1.6504,1.0557-2.7285,2.7285-2.7285,4.708
			c0,0.9688,0.3301,2.3984,1.541,2.3984c0.8145,0,1.4746-0.4619,2.0459-0.9902C15.1406,21.563,14.9414,19.4507,14.8535,17.4048z
			 M19.0127,16.2827c-0.9463,0-1.6279,0.0879-2.5303,0.374c0.0439,1.6719,0.1543,3.7188,0.5059,5.3467
			C18.2207,20.0669,18.5283,18.439,19.0127,16.2827z"/>
	</g>
</g>
</svg>
