<?xml version="1.0" encoding="utf-8"?>
<!-- Generator: Adobe Illustrator 25.2.1, SVG Export Plug-In . SVG Version: 6.00 Build 0)  -->
<svg version="1.1" id="レイヤー_1" xmlns="http://www.w3.org/2000/svg" xmlns:xlink="http://www.w3.org/1999/xlink" x="0px"
	 y="0px" viewBox="0 0 36 36" style="enable-background:new 0 0 36 36;" xml:space="preserve">
<style type="text/css">
	.st0{fill:#1E1E28;}
	.st1{fill:#FFFFFF;}
</style>
<path class="st0" d="M18,0C2.8125,0,0,2.8125,0,18s2.8125,18,18,18s18-2.8125,18-18S33.1875,0,18,0z"/>
<g>
	<g>
		<path class="st1" d="M27.5566,12.1064c0,0.1123-0.0352,0.2285-0.1055,0.3467c-0.0703,0.1191-0.1328,0.2314-0.1895,0.3359
			c-0.0557,0.1055-0.1885,0.1895-0.3984,0.252c-0.21,0.0635-0.3359,0.1719-0.3779,0.3262h-0.1475
			c-0.3779,0.3916-0.749,0.7842-1.1133,1.1758c-0.4609,0.4619-0.8809,0.7695-1.2598,0.9238
			c-0.125,0.3086-0.3916,0.5879-0.7979,0.8398c-0.5039,0.2939-0.833,0.5322-0.9873,0.7139c-0.1543,0.0146-0.3281-0.042-0.5244-0.168
			c-0.3076-0.168-0.4756-0.2588-0.5039-0.2725c-0.084-0.1396-0.2588-0.168-0.5254-0.084c-0.3359,0.2383-0.5039,0.6504-0.5039,1.2383
			c-0.0146,0.6309-0.1191,1.0645-0.3154,1.3027c-0.1113,0.6299-0.4336,1.5049-0.9648,2.625
			c-0.1406,0.3643-0.4141,0.8818-0.8203,1.5537v0.2314c-0.1816,0.126-0.3848,0.3564-0.6084,0.6924
			c-0.2666,0.3779-0.4551,0.623-0.5674,0.7354c-0.3916,0.6582-0.707,1.127-0.9443,1.4072
			c-0.4346,0.5039-0.8896,0.8047-1.3652,0.9023c-0.126,0.0283-0.249-0.0352-0.3682-0.1885
			c-0.1191-0.1543-0.2197-0.2383-0.3037-0.252c-0.1826-0.042-0.4971-0.1826-0.9453-0.4199c-0.3779-0.21-0.6787-0.3223-0.9033-0.3359
			c-0.4902-0.3926-0.7129-0.7148-0.6719-0.9668c0.043-0.0273,0.0703-0.126,0.084-0.2939c0.0137-0.1113,0.084-0.1602,0.2109-0.1465
			c0.1387-0.252,0.4375-0.5498,0.8926-0.8926c0.4541-0.3428,0.7305-0.6475,0.8291-0.9141c0.3496-0.3213,0.6719-0.7344,0.9658-1.2383
			c0.2656-0.4619,0.5312-0.917,0.7979-1.3652c0.0137-0.2656,0.1367-0.5742,0.3682-0.9238c0.2305-0.3496,0.3594-0.6436,0.3887-0.8818
			l0.1465-0.1475c0.0137-0.0557,0.084-0.4268,0.21-1.1133c0.084-0.4336,0.21-0.7559,0.3779-0.9658
			c0.084-0.4199,0.1328-0.6504,0.1465-0.6924c0.0703-0.252,0.1963-0.4209,0.3789-0.5049c0.168,0.0146,0.3418,0.0283,0.5244,0.042
			c0.1826,0.0146,0.3213,0.0986,0.4199,0.2529c0.0146,0,0.3574-0.0283,1.0293-0.084c0.4053-0.043,0.665-0.2178,0.7764-0.5254
			c0.0283-0.0137,0.2871-0.168,0.7773-0.4619c0.3223-0.1816,0.4834-0.3994,0.4834-0.6514c0-0.084-0.0283-0.1787-0.084-0.2832
			c-0.0557-0.1055-0.2031-0.2061-0.4414-0.3047c-0.1963,0.1123-0.4971,0.1963-0.9033,0.252
			c-0.3359,0.0283-0.6787,0.0635-1.0283,0.1055c-0.042-0.0703-0.0947-0.1016-0.1572-0.0947
			c-0.0635,0.0068-0.1094-0.0107-0.1367-0.0527c-0.1123,0.0703-0.3154,0.1152-0.6094,0.1367
			c-0.2939,0.0205-0.5117,0.0811-0.6504,0.1787c-0.0703,0.0137-0.1406,0.0205-0.2109,0.0205c-0.0977,0-0.248-0.0176-0.4512-0.0527
			c-0.2031-0.0342-0.3535-0.0518-0.4512-0.0518c-0.252,0-0.4551,0.1045-0.6094,0.3145c-0.084-0.0693-0.1953-0.1045-0.3359-0.1045
			c-0.084,0-0.2246,0.0176-0.4199,0.0518c-0.1963,0.0352-0.3438,0.0527-0.4414,0.0527c-0.084,0-0.1543,0-0.209,0
			c-0.168,0.0801-0.4873,0.123-0.9561,0.1289c-0.4697,0.0068-0.8154,0.083-1.04,0.2285c-0.125-0.0557-0.2656-0.084-0.4199-0.084
			c-0.0977,0-0.2412,0.0205-0.4297,0.0625c-0.1895,0.042-0.3262,0.0635-0.4102,0.0635c-0.209,0-0.3916-0.0908-0.5459-0.2734
			c-0.0137-0.1113-0.0205-0.2305-0.0205-0.3564c0-0.1396,0.0137-0.3574,0.041-0.6514c0.0293-0.2939,0.043-0.5107,0.043-0.6514
			c0-0.3359-0.0703-0.6299-0.2109-0.8818c0.0146-0.0693,0.0215-0.1465,0.0215-0.2305c0-0.0977-0.0137-0.249-0.042-0.4521
			C10.0137,10.3818,10,10.2314,10,10.1328c0-0.1396,0.0215-0.2588,0.0625-0.3574c0.168-0.0273,0.417-0.0654,0.7461-0.1152
			c0.3281-0.0488,0.5781-0.0801,0.7461-0.0947c0.168,0.0986,0.3496,0.1475,0.5449,0.1475c0.084,0,0.2139-0.0137,0.3887-0.042
			c0.1758-0.0283,0.3047-0.042,0.3887-0.042c0.1963,0,0.3789,0.0488,0.5469,0.1465c0.0273-0.0557,0.0762-0.0762,0.1465-0.0625
			h0.1465l0.0635,0.0625c0.2236,0,0.5674-0.0488,1.0283-0.1465c0.4629-0.0977,0.8057-0.1475,1.0293-0.1475
			c0.3496,0,0.6582,0.0771,0.9238,0.2314c0.2656-0.1543,0.5957-0.2314,0.9873-0.2314c0.1396,0,0.3564,0.0146,0.6514,0.042
			c0.2939,0.0283,0.5107,0.042,0.6504,0.042c0.3223,0,0.6016-0.0488,0.8398-0.1465c0.0977,0.0283,0.2344-0.0029,0.4102-0.0947
			c0.1748-0.0908,0.2969-0.1367,0.3672-0.1367c0.0977,0,0.1895,0.0498,0.2734,0.1475c0.2236,0,0.4473-0.0068,0.6719-0.0215
			c0.3076-0.0137,0.5254-0.1045,0.6504-0.2725c0.084,0.042,0.1816,0.0625,0.2949,0.0625c0.0693,0,0.1816-0.0137,0.3359-0.042
			c0.1533-0.0273,0.2725-0.042,0.3564-0.042c0.0703,0,0.1338,0.0078,0.1885,0.0215c0.0986,0.0557,0.1895,0.084,0.2734,0.084
			c0.1123,0,0.2656-0.0488,0.4629-0.1475c0.1953-0.0977,0.3281-0.1533,0.3984-0.168c0.6016,0.0283,1.127,0.4766,1.5742,1.3447
			c0.2812,0.3223,0.5537,0.6436,0.8203,0.9658C27.3594,11.582,27.5566,11.9111,27.5566,12.1064z"/>
	</g>
</g>
</svg>
