<?xml version="1.0" encoding="utf-8"?>
<!-- Generator: Adobe Illustrator 25.2.1, SVG Export Plug-In . SVG Version: 6.00 Build 0)  -->
<svg version="1.1" id="レイヤー_1" xmlns="http://www.w3.org/2000/svg" xmlns:xlink="http://www.w3.org/1999/xlink" x="0px"
	 y="0px" viewBox="0 0 36 36" style="enable-background:new 0 0 36 36;" xml:space="preserve">
<style type="text/css">
	.st0{fill:#1E1E28;}
	.st1{fill:#FFFFFF;}
</style>
<path class="st0" d="M18,0C2.8125,0,0,2.8125,0,18s2.8125,18,18,18s18-2.8125,18-18S33.1875,0,18,0z"/>
<g>
	<g>
		<path class="st1" d="M13.7227,14.9644c-1.3105,0-2.5518-0.5518-3.1504-1.7246l0.0928-0.0918
			c1.0342,0.2529,1.54,0.3223,2.3916,0.3223c0.5518,0,1.0117-0.0459,1.9766-0.1377l0.207-1.748
			c0.1152-0.7822,0.1152-1.0117,0.1152-1.4258c0-0.7129-0.0684-1.0117-0.3906-1.6094l0.0684-0.1377
			c0.1846-0.0693,0.3691-0.0928,0.4834-0.0928c0.7129,0,2.0469,1.1504,2.0469,1.7705c0,0.1152-0.0459,0.3223-0.1611,0.5527
			c-0.2529,0.6201-0.5059,1.4023-0.7363,2.3906c1.2656-0.2988,2.5293-0.8271,3.1055-1.3105
			c0.3672-0.2988,0.5059-0.3672,0.7812-0.3672c0.7129,0,1.3105,0.3672,1.3105,0.8047c0,0.3213-0.207,0.5283-0.9434,0.9424
			c-1.2412,0.6436-2.4824,1.0576-4.5752,1.5176c-0.2529,1.4492-0.3223,2.1152-0.3682,2.9668
			c1.2871-0.4375,1.8633-0.5986,2.9893-0.8047c0.0225-0.2998,0.0225-0.6445,0.0225-1.0352l0.0928-0.1152
			c0.6436,0.0459,0.8506,0.207,1.2881,1.0117c1.54,0.0234,2.4824,0.207,3.4717,0.667c1.7939,0.8281,2.6904,2.1621,2.6904,3.9551
			c0,2.1846-1.2188,4.0703-3.4492,5.3125c-1.4258,0.8047-2.668,1.1035-4.6221,1.1035l-0.0225-0.2305
			c4.1387-1.4258,6.3691-3.6104,6.3691-6.3232c0-1.1963-0.667-2.2764-1.7705-2.8516c-0.6904-0.3447-1.3564-0.5059-2.5068-0.5518
			c0,0.5518-2.2529,3.7939-4.0234,5.5645c0.5742,1.1729,0.666,1.4033,0.666,1.6562c0,0.5518-0.4141,1.1494-0.8047,1.1494
			c-0.459,0-0.8506-0.4824-1.2412-1.5635c-1.8398,1.334-3.2197,2.0469-4.001,2.0469c-0.874,0-1.6562-1.1729-1.6562-2.5068
			s0.7129-2.8057,1.8857-3.9326c0.8975-0.8271,1.6787-1.3564,3.1729-2.1377l0.3223-3.1279
			C14.4131,14.9419,13.999,14.9644,13.7227,14.9644z M14.459,19.3794c-2.3457,1.5869-3.7246,3.1963-3.7246,4.3691
			c0,0.5518,0.3438,1.1045,0.7129,1.1045c0.6201,0,2.1611-0.7598,3.3105-1.6562C14.5273,21.6099,14.459,20.8052,14.459,19.3794z
			 M18.6895,17.8853c-1.3555,0.2754-1.8164,0.4141-2.8506,0.9199c0,1.1494,0.0918,2.1846,0.2988,3.0352
			C17.2188,20.644,18.1152,19.2192,18.6895,17.8853z"/>
	</g>
</g>
</svg>
