<?xml version="1.0" encoding="utf-8"?>
<!-- Generator: Adobe Illustrator 25.2.1, SVG Export Plug-In . SVG Version: 6.00 Build 0)  -->
<svg version="1.1" id="レイヤー_1" xmlns="http://www.w3.org/2000/svg" xmlns:xlink="http://www.w3.org/1999/xlink" x="0px"
	 y="0px" viewBox="0 0 36 36" style="enable-background:new 0 0 36 36;" xml:space="preserve">
<style type="text/css">
	.st0{fill:#1E1E28;}
	.st1{fill:#FFFFFF;}
</style>
<path class="st0" d="M18,0C2.8125,0,0,2.8125,0,18s2.8125,18,18,18s18-2.8125,18-18S33.1875,0,18,0z"/>
<g>
	<g>
		<path class="st1" d="M27.5977,21.0034c0,1.7773-0.6582,3.3174-1.9746,4.6191c-1.1895,1.1768-2.8008,2.0723-4.8301,2.6885
			l-2.3105-2.2256l-3.5488,1.0283c-0.0137-0.1123-0.041-0.2764-0.084-0.4932c-0.041-0.2178-0.0762-0.3818-0.1045-0.4932
			c-1.0361,0.4473-1.9814,0.6719-2.835,0.6719c-0.9941,0-1.8066-0.2803-2.4355-0.8398c-0.7148-0.6162-1.0723-1.4707-1.0723-2.5625
			c0-1.5254,0.5957-3.0312,1.7852-4.5146c1.0781-1.3447,2.4434-2.4434,4.0957-3.2969c0.0273-0.3086,0.0557-0.7773,0.084-1.4072
			h-0.21c-1.1768,0-2.2686-0.1328-3.2764-0.3994l0.5664-4.1162c1.0088,0.3223,2.0938,0.4971,3.2559,0.5254
			c0.084-0.8535,0.1895-1.6865,0.3145-2.499l4.1162,0.21c-0.126,0.4199-0.2803,1.001-0.4619,1.7432
			c1.0215-0.2803,1.9668-0.6787,2.835-1.1973l0.8408,3.7168C21.1152,12.8618,19.666,13.394,18,13.7583l-0.0625,0.6504
			c0.5586-0.084,1.2246-0.126,1.9941-0.126c0.2246,0,0.3926,0.0078,0.5039,0.0215c0.043-0.1123,0.0947-0.2803,0.1582-0.5039
			c0.0625-0.2236,0.1074-0.3916,0.1367-0.5039l3.6113,1.1758c-0.0273,0.084-0.0732,0.21-0.1367,0.3779
			c-0.0625,0.168-0.1084,0.2939-0.1367,0.3779c1.1064,0.5742,1.9707,1.3652,2.5938,2.373S27.5977,19.7427,27.5977,21.0034z
			 M14.2412,22.4517c-0.0703-0.8672-0.1191-1.8262-0.1475-2.877c-0.5605,0.4619-1.0078,0.9658-1.3438,1.5127
			c-0.3086,0.4902-0.4619,0.9102-0.4619,1.2598c0,0.3916,0.1963,0.5879,0.5879,0.5879
			C13.2119,22.9351,13.667,22.7739,14.2412,22.4517z M18.9658,17.769h-0.126c-0.2939,0-0.665,0.0352-1.1133,0.1045
			c0,0.8125,0.0078,1.4072,0.0215,1.7852C18.168,19.1274,18.5742,18.4976,18.9658,17.769z M23.124,20.856
			c0-0.6582-0.2871-1.2598-0.8604-1.8057c-1.0791,1.834-2.4365,3.4512-4.0742,4.8506c0.0693,0.3359,0.1533,0.665,0.252,0.9873
			c1.3711-0.4482,2.4629-0.9941,3.2754-1.6377C22.6543,22.5083,23.124,21.7104,23.124,20.856z"/>
	</g>
</g>
</svg>
