<?xml version="1.0" encoding="utf-8"?>
<!-- Generator: Adobe Illustrator 25.2.1, SVG Export Plug-In . SVG Version: 6.00 Build 0)  -->
<svg version="1.1" id="レイヤー_1" xmlns="http://www.w3.org/2000/svg" xmlns:xlink="http://www.w3.org/1999/xlink" x="0px"
	 y="0px" viewBox="0 0 36 36" style="enable-background:new 0 0 36 36;" xml:space="preserve">
<style type="text/css">
	.st0{fill:#1E1E28;}
	.st1{fill:#FFFFFF;}
</style>
<path class="st0" d="M18,0C2.8125,0,0,2.8125,0,18s2.8125,18,18,18s18-2.8125,18-18S33.1875,0,18,0z"/>
<g>
	<g>
		<path class="st1" d="M24.5254,27.0352c-0.0254,0-0.0254-0.0518-0.0254-0.0781c0.8574-2.5479,0.4941-5.6416-0.5977-7.0195
			c-1.1963-1.4824-2.9385-1.8203-4.3945-1.6123c-0.8066,1.3262-1.5078,2.5225-2.4707,4.1084c0,0.2334,0.3125,0.3896,0.1055,0.6494
			c-1.3262,0.1045-2.0293,2.1064-2.7568,3.2764c-0.3115,0.1045-0.4424,0-0.9873-0.0781c-0.4941-1.8203-2.5742-0.5977-3.6152-1.6641
			c0.0264-1.1953,0.6758-2.5742,0.9365-3.4316c1.4033-1.4561,2.8857-2.4707,4.3936-3.3281c0.1562-1.4561,0.416-2.3398,0.5205-3.7969
			c-1.04-0.8838-2.1318-1.1436-1.7422-2.4697c1.1963-0.3379,2.4189-0.624,3.1455-2.626c0.6504,0,1.248,0.6758,1.6133,1.4561
			c0.1035,0.3643,2.2617,0.4424,2.1582,1.2217c-0.1309,0.624-0.9365,1.5342-2.8086,1.9766
			c-1.0137,0.7021-1.4824,2.0537-1.6641,3.7695c0.7012-0.1816,1.9492-0.416,2.626-0.5459c0.1826-0.0254,1.1436-2.1572,1.2744-2.21
			c0.3115,0.1299,0.0781,1.3008-0.1045,2.1846c0.1045,0,0.2607,0,0.3896,0.0254c2.627,0.1045,5.1484,1.4824,5.668,4.9404
			c0.0273,0.2344,0.0273,0.4424,0.0273,0.6504c0,2.21-0.7285,3.6396-1.6133,4.5498C24.5781,27.0098,24.5527,27.0352,24.5254,27.0352
			z M14.5156,23.6816c0.3643-0.3643,0.6504-0.7285,0.9355-1.3262c-0.3887-0.8066-0.416-2.0801-0.4414-2.9385
			c-0.3633,0.1562-0.7539,0.2607-1.4043,0.6504c-1.0918,0.6494-1.8984,1.6904-2.2363,2.626
			c-0.1289,0.3896,0.1045,0.6758,0.2598,1.0664C12.4355,23.7334,13.2676,24.2793,14.5156,23.6816z M18.3906,18.4814
			c-0.7812,0.0781-1.4307,0.3379-2.0547,0.5195c-0.1562,0.4424-0.208,1.6641,0.0518,2.2627
			C17.168,20.1455,17.6621,19.7031,18.3906,18.4814z"/>
	</g>
</g>
</svg>
