<?xml version="1.0" encoding="utf-8"?>
<!-- Generator: Adobe Illustrator 25.2.1, SVG Export Plug-In . SVG Version: 6.00 Build 0)  -->
<svg version="1.1" id="レイヤー_1" xmlns="http://www.w3.org/2000/svg" xmlns:xlink="http://www.w3.org/1999/xlink" x="0px"
	 y="0px" viewBox="0 0 36 36" style="enable-background:new 0 0 36 36;" xml:space="preserve">
<style type="text/css">
	.st0{fill:#1E1E28;}
	.st1{fill:#FFFFFF;}
</style>
<path class="st0" d="M18,0C2.8125,0,0,2.8125,0,18s2.8125,18,18,18s18-2.8125,18-18S33.1875,0,18,0z"/>
<g>
	<g>
		<path class="st1" d="M19.7051,15.1821c3.7412,0,7.4814,1.6943,7.4814,5.9629c0,4.4883-3.8291,6.0293-7.6787,6.3809l-0.6162-1.7598
			c2.8164-0.1982,6.3809-1.166,6.3809-4.6426c0-2.0469-1.3203-3.3447-3.1904-3.917c-0.9463,2.332-2.2227,4.5547-3.9824,6.3809
			c-1.541,1.584-3.5869,2.9922-5.8535,2.9922c-0.9238,0-1.9141-0.3955-2.5518-1.0996s-0.8799-1.6504-0.8799-2.5742
			c0-2.0908,1.209-3.873,2.7939-5.1494c1.0557-0.8574,2.0244-1.3418,3.2998-1.7822c0.0449-0.7695,0.1328-2.0244,0.2207-2.75
			c-0.7266,0.0215-1.4521,0.0439-2.1777,0.0439c-0.9688,0-1.9375-0.0439-2.9043-0.0664l0.0215-1.8916
			c1.4082,0.0879,2.7949,0.1318,4.2031,0.1318c0.373,0,0.7256,0,1.0781-0.0225c0.1533-1.0342,0.3301-2.0684,0.5059-3.1025
			l1.958,0.2207c-0.2422,0.9463-0.4404,1.8701-0.6162,2.8164c2.7949-0.1768,5.4346-0.5068,8.1631-1.1006l0.1533,1.8926
			c-2.8594,0.4834-5.7207,0.8135-8.5801,0.9902c-0.1104,0.7695-0.1982,1.5615-0.2646,2.332
			C17.6816,15.27,18.6934,15.1821,19.7051,15.1821z M10.5957,22.9272c0,1.1006,0.6826,1.8486,1.7832,1.8486
			c1.0332,0,2.0234-0.4404,2.8594-1.0127c-0.3076-1.8037-0.418-3.6299-0.418-5.4561c0-0.1768,0-0.3525,0-0.5283
			C12.7744,18.6812,10.5957,20.4849,10.5957,22.9272z M16.5586,18.4829c0,1.3418,0.0879,2.6621,0.2646,3.96
			c1.5615-1.584,2.7061-3.5205,3.5205-5.5889c-0.2861-0.0215-0.5723-0.0215-0.8359-0.0215c-0.9902,0-1.9805,0.1318-2.9268,0.3516
			C16.5586,17.6245,16.5586,18.0649,16.5586,18.4829z"/>
	</g>
</g>
</svg>
