<?xml version="1.0" encoding="utf-8"?>
<!-- Generator: Adobe Illustrator 25.2.1, SVG Export Plug-In . SVG Version: 6.00 Build 0)  -->
<svg version="1.1" id="レイヤー_1" xmlns="http://www.w3.org/2000/svg" xmlns:xlink="http://www.w3.org/1999/xlink" x="0px"
	 y="0px" viewBox="0 0 36 36" style="enable-background:new 0 0 36 36;" xml:space="preserve">
<style type="text/css">
	.st0{fill:#1E1E28;}
	.st1{fill:#FFFFFF;}
</style>
<path class="st0" d="M18,0C2.8125,0,0,2.8125,0,18s2.8125,18,18,18s18-2.8125,18-18S33.1875,0,18,0z"/>
<g>
	<g>
		<path class="st1" d="M25.3281,9.8354l1.2324,1.2324v4.708h-2.0459l1.2764,1.2549c1.1445,1.166,1.7158,2.6846,1.7158,4.3125
			c0,2.6846-1.6064,4.5322-4.0479,5.4785c-1.4971,0.5723-3.0586,0.792-4.6426,0.9463l-1.2324-1.2324l-0.1982-0.7256
			c-0.9902,0.5723-2.1123,0.9238-3.2783,0.9238c-1.2109,0-2.3545-0.4619-3.2129-1.3203l-1.0342-1.0342
			c-0.9463-0.9463-1.4082-2.2217-1.4082-3.5645c0-1.9365,0.9463-3.8066,2.4209-5.0391h-0.6602l-1.2324-1.2314v-4.709h3.4766V8.3608
			l4.9727,0.0889l1.2324,1.2314l-0.0225,0.1543H25.3281z M9.8604,10.7153v2.9482h3.4541c0.0225,0.5508,0.0449,1.0791,0.0664,1.6289
			c-2.2656,1.0117-4.0488,2.9258-4.0488,5.5225c0,2.1787,1.3643,3.8066,3.5869,3.8066c2.1562,0,4.0703-1.4297,5.3906-3.0361
			c1.0127-1.21,1.7158-2.6406,2.1338-4.1592c1.0127,0.3525,1.7607,1.2109,1.7607,2.3105c0,2.4209-2.8818,3.0361-4.7959,3.0146
			l0.8135,2.8164c1.5615-0.1543,3.2119-0.3965,4.5771-1.21c1.6504-0.9902,2.5957-2.2666,2.5957-4.2471
			c0-1.6504-0.7041-3.1904-2.0469-4.1807c-1.5391-1.1436-3.542-1.4082-5.4121-1.4082c-0.5273,0-1.0566,0.0225-1.584,0.0664
			l0.0215-0.9248h8.0762v-2.9482h-7.9883l0.0449-1.3857l-3.1689-0.0664v1.4521H9.8604z M13.293,21.937
			c-0.8359,0-1.2109-0.5938-1.2109-1.3857c0-1.0342,0.749-1.8486,1.541-2.4424c0.1318,1.21,0.3301,2.3984,0.7695,3.542
			C14.041,21.8052,13.667,21.937,13.293,21.937z M16.3955,17.0747c0.5059-0.0664,1.0127-0.0879,1.5186-0.0879
			c-0.3086,0.9014-0.6826,1.7383-1.2324,2.5078C16.5488,18.7026,16.4609,17.8882,16.3955,17.0747z"/>
	</g>
</g>
</svg>
