<?xml version="1.0" encoding="utf-8"?>
<!-- Generator: Adobe Illustrator 25.2.1, SVG Export Plug-In . SVG Version: 6.00 Build 0)  -->
<svg version="1.1" id="レイヤー_1" xmlns="http://www.w3.org/2000/svg" xmlns:xlink="http://www.w3.org/1999/xlink" x="0px"
	 y="0px" viewBox="0 0 36 36" style="enable-background:new 0 0 36 36;" xml:space="preserve">
<style type="text/css">
	.st0{fill:#1E1E28;}
	.st1{fill:#FFFFFF;}
</style>
<path class="st0" d="M18,0C2.8125,0,0,2.8125,0,18s2.8125,18,18,18s18-2.8125,18-18S33.1875,0,18,0z"/>
<g>
	<g>
		<path class="st1" d="M21.082,13.9697c0.1094,0.2969,0.2207,0.5742,0.2207,1.2471c1.7383,0.2383,2.9473,0.5742,4.1797,1.6836
			c1.8047,1.585,1.8926,3.3271,1.8926,4.0801c0,6.1201-7.877,6.2588-10.3193,6.2588l-0.0439-0.7324
			c0.2637,0.0195,0.5273,0.0391,0.9238,0.0391c2.8379,0,8.207-1.208,8.207-5.6641c0-3.1299-2.9482-4.7539-4.8848-4.9717
			c-0.0439,0.2178-0.1318,0.7129-0.418,1.208c-1.3203,2.3174-3.6963,4.7539-4.4883,5.4863c0.1318,0.2178,0.2197,0.416,0.2197,0.832
			c0,0.5547-0.3076,0.7725-0.418,0.7725c-0.0879,0-0.374-0.0596-0.792-0.6738c-0.5059,0.4951-2.7725,2.5156-4.3574,2.5156
			c-1.0557,0-2.6621-0.9111-2.6621-3.208c0-2.9512,2.7734-5.3477,6.0293-6.6152c0.1318-1.3271,0.2422-2.1787,0.3516-3.0703
			c-1.4736,0.0596-2.2441,0.0791-2.6182,0.0791c-2.0244,0-2.6396-0.5547-3.124-1.3662l0.1543-0.4561
			c1.0557,0.7725,1.584,0.9902,3.5645,0.9902c1.0996,0,1.6504-0.0391,2.1338-0.0791c0.0225-0.2373,0.2861-2.2969,0.2861-2.3564
			c0-0.2979-0.374-0.3369-0.5723-0.3369c-0.418,0-0.8145,0.1191-1.0996,0.1777c0.1543-0.4746,0.2637-0.8906,0.3955-0.9697
			c0.0889-0.0596,0.4404-0.0791,0.5723-0.0791c0.9248,0,2.3105,0.3955,2.3105,1.1875c0,0.1387-0.3076,0.6738-0.3525,0.793
			c-0.0215,0.0195-0.1973,0.5547-0.418,1.4854c1.0117-0.04,5.8965-0.5947,6.7773-0.9707c0.2637-0.0986,0.748-0.2969,0.792-0.3369
			c0.2422-0.1582,0.2646-0.1777,0.3076-0.1777c0.3965,0,1.4961,0.3564,1.4961,0.8115c0,0.3965-0.6602,0.5146-0.8789,0.5547
			c-3.7412,0.6533-7.9434,0.9512-8.6914,0.9902c-0.1768,0.9307-0.2871,1.5254-0.3965,2.7725
			c0.8359-0.2373,2.7949-0.8115,5.2363-0.7129c0.0225-0.1182,0.0879-0.4551,0.0879-0.7324c0-0.1387-0.0215-0.3174-0.043-0.4551
			H21.082z M14.3271,17.0195c-1.0342,0.4551-4.8623,2.1787-4.8623,6.0205c0,1.9414,1.0557,2.2383,1.3418,2.2383
			c1.2324,0,3.6309-2.0996,4.1367-2.5547C14.1729,20.7627,14.2832,17.9902,14.3271,17.0195z M15.2285,18.2471
			c0,0.6543,0,2.4561,0.6172,3.6045c2.2881-2.376,3.8496-4.1787,4.5762-6.04c-1.6719-0.0791-3.8066,0.3359-5.127,0.8311
			C15.2285,17.4355,15.2285,18.0098,15.2285,18.2471z"/>
	</g>
</g>
</svg>
