<?xml version="1.0" encoding="utf-8"?>
<!-- Generator: Adobe Illustrator 25.2.1, SVG Export Plug-In . SVG Version: 6.00 Build 0)  -->
<svg version="1.1" id="レイヤー_1" xmlns="http://www.w3.org/2000/svg" xmlns:xlink="http://www.w3.org/1999/xlink" x="0px"
	 y="0px" viewBox="0 0 40 40" style="enable-background:new 0 0 40 40;" xml:space="preserve">
<style type="text/css">
	.st0{fill:#F5F5C8;}
	.st1{fill:#F5F5FF;}
	.st2{fill:#F5FFFF;}
	.st3{fill:none;stroke:#0067BD;stroke-miterlimit:10;}
	.st4{fill:#0067BD;}
	.st5{fill:#FFFFFF;}
	.st6{fill:#787882;}
	.st7{fill:#005AE6;}
	.st8{fill:#7828B4;}
	.st9{fill:#E61E50;}
	.st10{fill:#505064;}
	.st11{fill:#00966E;}
	.st12{fill:#1E1E28;}
	.st13{fill:none;stroke:#CDCDE1;stroke-miterlimit:10;}
	.st14{fill:url(#SVGID_1_);}
	.st15{fill:url(#SVGID_2_);}
	.st16{fill:#FFFF84;}
	.st17{fill:#EFEFF9;stroke:#B3B3BD;stroke-width:0.5;stroke-miterlimit:10;}
	.st18{fill:#B3B3B3;}
	.st19{fill:#3232E5;}
	.st20{fill:none;stroke:#FFFFFF;}
	.st21{fill:#F07832;}
	.st22{fill:none;stroke:#1E1E1E;stroke-width:1.2;stroke-miterlimit:10;}
	.st23{fill:none;stroke:#1E1E1E;stroke-width:1.2;stroke-linecap:round;stroke-linejoin:round;stroke-miterlimit:10;}
	.st24{fill:#EF3C3C;}
	.st25{fill:#00958B;}
	.st26{fill:#1E1E1E;}
	.st27{opacity:0.6;}
	.st28{fill:#FFFFFF;stroke:#FFFFFF;stroke-width:0.5;stroke-miterlimit:10;}
	.st29{opacity:0.5;}
	.st30{fill:#5A5A64;}
	.st31{fill:none;stroke:#1E1E28;stroke-miterlimit:10;}
	.st32{fill:#EC0000;}
</style>
<g>
	<g>
		<path class="st8" d="M20,0C3.125,0,0,3.125,0,20s3.125,20,20,20s20-3.125,20-20S36.875,0,20,0z"/>
	</g>
	<g>
		<g>
			<path class="st5" d="M20.6841,19.6016c0,0-0.0259,0-0.0259,0.0264c0,0,0.0259,0,0.0259,0.0254
				c0.1558,0.7803-0.1299,0.5459-0.2861,1.1182c0,0,0.0259,0.0518,0,0.0518c-0.5981-0.1035-1.8721-0.2598-1.9238-0.2861
				c-0.5464-0.2598-0.1562-0.9092-0.104-1.3779c0.0518-0.3115,0.0781-0.9883,0.0518-1.0137c-0.0259-0.0264-1.6118,0-1.6377,0
				c-0.1045,0-0.0264,0.624,0.0259,1.2998c0.0776,0.7539,0.104,1.5859-0.312,1.7158c-0.4683,0.1562-1.6123,0.0781-1.6382,0.0527
				c-0.3379-0.0781-1.248,0-1.3779-0.1562c-0.0259-0.0781-0.104-0.7021-0.1304-0.9365c-0.0259-0.5459,0.0781-1.8721,0.0781-1.8721
				c-0.0259-0.1035-1.1699-0.0781-1.1699,0.1562c0.0259,0.2598,0.2339,1.1445,0.2861,1.6387c0.0259,0.1553,0.0518,0.4414,0,0.4678
				c-0.0264,0-0.9619,0.0254-1.4561,0.0781c-1.1699,0.1035-1.2744,0.2598-1.3779,0.2334c-0.2603-0.1299-0.0781-0.8838-0.2603-1.4814
				c-0.0781-0.3389-0.2339-2.2627-0.208-2.3145s0.7021-0.0518,1.0659-0.1562c0.0522-0.0254,0.0781-0.0781,0.1562-0.1035
				c1.2739-0.1826,2.8857-0.1299,2.9121-0.1299c0.0259-0.0264,0.0518-1.1963,0.0518-1.2227c-0.0781,0-0.5718-0.0781-0.7021-0.1299
				c-0.3896-0.0264-1.6899-0.0781-1.7939-0.0781c-0.1558-0.0254-0.0259-0.4414-0.104-0.9619c0-0.1299-0.104-0.5195-0.104-0.624
				c0.0264-0.208,0.104-0.2598,0.8062-0.2334c0.5459,0.0518,1.9243,0.1816,1.9502,0.1816c-0.0259-1.0664,0.0518-1.0137-0.4683-1.04
				c-0.1558,0-0.2598,0-0.624-0.0264l-2.5742-0.0254c-0.3115-0.2861-0.1558,0.0254-0.1299-0.6504l0.1299-2.9385
				c0.3901-0.0518,1.3784,0.0781,1.4561,0.1045c0.4424,0.0254,1.3003,0.0781,1.3262,0.0781
				c0.0522,0.0254,0.104,0.5195,0.1299,0.7539c0.0264,0.3379,0.0522,0.9619,0.0781,0.9619c0.0264,0.0518,0.5981,0,0.624,0
				c0.0264-0.0264,0.0522-0.3896,0.0264-0.624c0-0.3379-0.1045-0.9619-0.1045-1.0137c0.0264-0.1562,0.3643-0.1045,0.7803-0.1826
				c0.104,0,0.208-0.1035,0.3379-0.1035c1.248-0.1045,1.7163-0.0781,1.8721,0c0.1821,0.0781,0.0522,0.208,0.0264,0.3896
				c0,0.3906,0.1558,1.3525,0.1558,1.4297c0.0522,0,0.9619,0.0264,1.0923,0c0.1035-0.0254,0.1816-0.1299,0.2598-0.1035
				c0.3379,0.0781,0.4419,0.3379,0.4419,0.4678c0,0.2344-0.1558,1.5605-0.1558,1.5859c-0.0522,0.1299-0.2603,0.1299-0.3901,0.1562
				c-0.0522,0.0264-0.104-0.0518-0.1558-0.0518c-0.0264,0-0.8062,0.0781-0.8062,0.0781c-0.0522,0-0.104-0.1045-0.104-0.0781
				c0,0.2344,0,1.1182,0.0259,1.1436c0.0259,0,1.6118,0.0264,1.7163,0.0781c0.208,0.0518,0.1035,0.1045,0.0259,0.7803
				c0,0.1035,0.0259,0.6504,0.0259,0.832c-0.0259,0.0264-1.7939,0-1.8203,0c-0.0518,0.0264-0.0518,0.6758,0,0.6758
				c2.1582-0.1562,3.3281-0.1299,3.4585-0.0518c0.1299,0.0781,0.3638,0.0518,0.3901,0.1562
				c0.2339,0.9102-0.0522,2.9902,0.208,2.7559c0,0.0264-0.0781,0.3379-0.0781,0.3896c0,0.0264,0.0781-0.0254,0.0781,0
				C20.7622,19.5234,20.71,19.5498,20.6841,19.6016z M28.7964,23.3721c0,0.3379,0,0.4932-0.0522,0.832
				c-0.0518,0.5713,0,0.7539-1.9756,0.5977c-0.4683-0.0518-1.8984-0.1045-3.0942-0.1045c-1.0923,0-1.9502,0.0264-1.8721-0.1299
				c-0.0781,0.0527-0.416,0.2344-0.312,0c-0.1299,0.1562-0.416,0.0264-1.0923,0c-0.312-0.0254-0.9097-0.0254-0.936,0
				c0,0.208,0.0522,0.7539,0.104,1.3262c0.0522,0.4424,0.104,0.8838,0.1304,1.0918c0.0776,0.3906,0.0776,1.1699,0.1035,1.1963
				c0.7803-0.0781,0.832,0.1299,1.0923,0c0.208-0.1299,0.3638-0.1816,0.4683-0.0518c0.1035,0.1035,0.1816,0.3643,0.2339,0.9102
				c0.1299,1.2998,0,0.9619,0.1821,1.2998c-0.2861,0.0781-0.0264,0.0264-0.2603,0c-0.1558-0.0264-1.3779,0.1299-1.7163,0.2344
				c-0.1035,0.0254-0.1816,0.1299-0.2856,0.1553c-0.0781,0.0264-1.1704,0.1309-1.6123,0.1309
				c-0.3901-0.0264-1.0659,0.2334-1.1177,0.207c-0.0522,0-0.0264-0.0771-0.0522-0.1299c-0.0522-0.0254-0.1558,0.0527-0.1558,0
				l-0.1821-3.4316c0,0-0.4683,0.8057-0.7544,1.1699c-0.3379,0.4424-0.7539,0.8584-1.1436,1.2998
				c-0.0781,0.0781-0.1045,0.2598-0.208,0.3379c-0.1562,0.0781-1.4043-0.7012-1.6904-0.8838
				c-0.1558-0.0781-0.3379-0.0781-0.4941-0.1816c-0.2856-0.208-0.0518-0.416,0.1045-0.5723
				c0.0518-0.0264,0.3115-0.416,0.5718-0.9365c0.2603-0.5195,0.5718-1.1436,0.7798-1.6377c0.1821-0.416,0.2861-0.7275,0.3125-0.7803
				c0.1816-0.416,0.2339-0.4414,0.1299-0.5459c-0.0264,0,0,0.0518-0.0264,0.0518l-2.7559,0.1826
				c-0.2861-0.2861-0.1821-0.0518-0.1562-0.5723c-0.0259-0.5459-0.1035-1.7939-0.0776-1.7939c0-0.0264,1.1699-0.0781,1.7681-0.1299
				c0.416,0,1.1958,0,1.2217,0c0.0264,0-0.0259-0.0781,0-0.1045c0.1045,0.0527,0.1304,0.0527,0.1304,0.1045
				c0.0518-0.1299,0.7017-0.1299,2.21-0.2344c0.8062-0.0781,2.9644-0.208,3.1982-0.2334c0.5718-0.0527,1.8462-0.0781,1.8462-0.0781
				c0.0259-0.0264,0.1816-1.8721,0.1816-1.8984c0.0264-0.0781,0.208,0,0.3379-0.0254c0.5205,0,1.5605-0.0527,1.5864-0.0527
				c0.1821,0.0264,0.104,0.1826,0.2598,0.9365c0.0781,0.3115,0.1562,0.5713,0.2339,0.832c0.0264,0.0254-0.0259,0.1035,0,0.1035
				c2.9644,0.2607,4.7065-0.1816,4.8887,0.3379C28.8486,22.3838,28.8223,22.9814,28.7964,23.3721z M25.3643,16.3252
				c-0.312,0.0264-0.5981-0.0254-0.8838,0.0264c-0.208,0.0254-0.416,0.1035-0.6504,0.1299
				c-0.0518,0.0254-0.1299-0.0518-0.208-0.0264c-0.728,0.0264-0.9619,0.0781-1.0137,0.0264c-0.0781-0.0264,0-0.1299-0.1045-0.3379
				c-0.0259-0.0527-0.1035-0.0781-0.1299-0.1562c-0.0259-0.4424,0.2603-2.3926,0.208-2.8857c0-0.1045-0.0781-0.208-0.0781-0.3389
				c0-0.0771,0.0264-0.207,0.1045-0.207c0.5977-0.1309,2.314-0.2344,2.4438-0.1309c0.1299,0.1309,0.0259,0.5469,0.0781,1.1182
				c0.104,0.9102,0.3379,2.0801,0.3901,2.3145c0,0.1299,0.0776,0.3379,0.0776,0.3896
				C25.5464,16.2471,25.3901,16.3252,25.3643,16.3252z M30.6426,28.8057c-0.0522,0.0518-0.1299,0.0518-0.1821,0.1045
				c-0.0781,0.1553-0.0781,0.3115-0.1558,0.4414c0,0.0264-0.3643,0.5205-0.4683,0.7539c-0.1299,0.208-0.2861,0.4424-0.4419,0.6768
				c-0.0522,0.0518-0.1821,0.0781-0.2344,0.1299c-0.0518,0.0781-0.0518,0.208-0.1558,0.2598
				c-0.2603,0.1562-0.5459-0.2861-0.7021-0.3896c-0.0518-0.0264-0.1299,0-0.1558-0.0264c-0.0781-0.0518-0.0781-0.1562-0.1562-0.208
				c-0.0781-0.0781-0.208-0.0781-0.312-0.1562c-0.0259-0.0254-0.0259-0.0781-0.0518-0.1299
				c-0.2861-0.208-1.144-0.9619-1.3003-1.0654c-0.0259-0.0264-0.312-0.2344-0.4419-0.3389c-0.0259-0.0254-0.52-0.416-0.728-0.5713
				c-0.9883-1.0928-1.5078-1.2227-1.3521-1.5342c0.0522-0.0781,0.1821-0.1826,0.3638-0.3643
				c0.1821-0.2344,0.3643-0.5459,0.5723-0.832c0-0.0518,0.0781-0.0518,0.104-0.0781c0.0522-0.0781,0.0522-0.1816,0.1299-0.2344
				c0.3901-0.1816,0.8062,0.3389,1.04,0.5205c0.3901,0.2598,1.6382,0.9883,1.6641,0.9883c0.1304,0.0518,0.312-0.2607,0.6763-0.832
				c0.1558-0.2607,0.416-0.7539,0.4678-0.8066c0.0781-0.0518,0.3901,0.0781,0.7021,0.3125
				c0.4678,0.3643,0.8579,0.3896,0.9619,0.5459c0.104,0.1816-0.0781,0.4678-0.7021,1.3262c-0.0776,0.1299-0.1299,0.3115-0.208,0.416
				c-0.0259,0.0254-0.0776,0.0254-0.0518,0.0254c1.4819,0.7285,1.2739,0.7021,1.144,1.0146
				C30.6685,28.7539,30.6426,28.7803,30.6426,28.8057z M30.1226,19.4453c0,0.2861-0.0781,0.8057-0.104,0.832
				c-0.1299,0.0781-2.1323,0.2344-2.2622,0.1826c-0.0781,0-0.104-0.1562-0.208-0.1826c-0.2603-0.0518-0.7798-0.0518-1.0659-0.1299
				c-0.3643-0.1035,0.0259-1.04,0.208-2.4697c0.0518-0.3643,0.0518-0.6768,0.0781-1.0928c0.0259-0.4941,0.0518-1.4561,0.0776-2.3135
				c0.0259-1.3262-0.0518-2.5742-0.104-2.8086c-0.0259-0.208-0.0781-0.3643-0.104-0.5713c0-0.0527-0.208-0.2607,1.248-0.1562
				c0.7021,0,1.9761-0.0527,1.9761-0.0527c0.0781,0,0.0781,0.832,0.104,0.9883c-0.0259,0.5205,0,1.0146-0.0259,1.5342
				c-0.0259,0.7539,0.0781,2.7559,0.0259,3.042c0.0259,0.208,0.1562,0.9619,0.1562,1.4307
				C30.1484,18.1973,30.1226,19.3672,30.1226,19.4453z"/>
		</g>
	</g>
</g>
</svg>
