<?xml version="1.0" encoding="utf-8"?>
<!-- Generator: Adobe Illustrator 25.2.1, SVG Export Plug-In . SVG Version: 6.00 Build 0)  -->
<svg version="1.1" id="レイヤー_1" xmlns="http://www.w3.org/2000/svg" xmlns:xlink="http://www.w3.org/1999/xlink" x="0px"
	 y="0px" viewBox="0 0 40 40" style="enable-background:new 0 0 40 40;" xml:space="preserve">
<style type="text/css">
	.st0{fill:#F5F5C8;}
	.st1{fill:#F5F5FF;}
	.st2{fill:#F5FFFF;}
	.st3{fill:none;stroke:#0067BD;stroke-miterlimit:10;}
	.st4{fill:#0067BD;}
	.st5{fill:#FFFFFF;}
	.st6{fill:#787882;}
	.st7{fill:#005AE6;}
	.st8{fill:#7828B4;}
	.st9{fill:#E61E50;}
	.st10{fill:#505064;}
	.st11{fill:#00966E;}
	.st12{fill:#1E1E28;}
	.st13{fill:none;stroke:#CDCDE1;stroke-miterlimit:10;}
	.st14{fill:url(#SVGID_1_);}
	.st15{fill:url(#SVGID_2_);}
	.st16{fill:#FFFF84;}
	.st17{fill:#EFEFF9;stroke:#B3B3BD;stroke-width:0.5;stroke-miterlimit:10;}
	.st18{fill:#B3B3B3;}
	.st19{fill:#3232E5;}
	.st20{fill:none;stroke:#FFFFFF;}
	.st21{fill:#F07832;}
	.st22{fill:none;stroke:#1E1E1E;stroke-width:1.2;stroke-miterlimit:10;}
	.st23{fill:none;stroke:#1E1E1E;stroke-width:1.2;stroke-linecap:round;stroke-linejoin:round;stroke-miterlimit:10;}
	.st24{fill:#EF3C3C;}
	.st25{fill:#00958B;}
	.st26{fill:#1E1E1E;}
	.st27{opacity:0.6;}
	.st28{fill:#FFFFFF;stroke:#FFFFFF;stroke-width:0.5;stroke-miterlimit:10;}
	.st29{opacity:0.5;}
	.st30{fill:#5A5A64;}
	.st31{fill:none;stroke:#1E1E28;stroke-miterlimit:10;}
	.st32{fill:#EC0000;}
</style>
<g>
	<g>
		<path class="st11" d="M20,0C3.125,0,0,3.125,0,20s3.125,20,20,20s20-3.125,20-20S36.875,0,20,0z"/>
	</g>
	<g>
		<g>
			<path class="st5" d="M30.1353,16.9844c-0.104,0.1299-0.4678,0.416-0.6758,0.5459c-0.0522,0.0781-0.0522,0.208-0.1299,0.3115
				c-0.6763,0.9102-0.9102,1.1963-1.4043,0.8584c-0.2598-0.1562-0.5723-0.3643-1.0659-0.832
				c-0.2603-0.2598-1.2739-1.1699-1.4819-1.3525c-0.4424-0.3896-0.7803-0.7012-1.0923-1.0137s-0.6499-0.7803-0.8579-0.9883
				c-0.6504-0.7021-0.832-1.0654-1.144-1.1436c-0.3643-0.1045-0.728,0.208-1.6641,0.624c-0.3643,0.1562-0.7021,0.3633-1.0659,0.4941
				c-0.1821,0.0781-0.3901,0.0254-0.5981,0.0781c-0.1562,0.0518-0.2861,0.3896-0.4419,0.4414
				c-0.2861,0.0781-0.6763,0.0781-0.8584,0.1299c-0.0259,0-0.0259,0.0781-0.0781,0.1045c-1.4297,0.5459-5.5898,1.6641-5.7979,1.6377
				c-0.0522,0,0.0259,0.0781,0,0.1045c-0.104-0.0527,0.1816-0.0527,0.208-0.1045c-0.104,0.0518-0.1299,0.0518-0.104,0.1045
				c-0.0259-0.0264-0.104-0.1045-0.1304-0.1045c-0.0776,0.0264-0.1299,0.1045-0.208,0.1045
				c-1.5596,0.1299-1.3257-0.0264-1.3516-0.1045c-0.0522-0.2334-0.0781-0.4424-0.0522-0.6758
				c0.0522-1.0664,0.0781-1.0146-0.1821-1.3779c-0.1816-0.2344-0.1299-1.0664-0.1558-1.5859
				c-0.0522-0.5986-0.208-0.5986-0.0522-0.7285c0.0264,0,0.8584,0.0518,1.2744,0.0781c0.1558,0,0.7017-0.1562,0.8057-0.1299
				c0.1299,0.0264,0.2603,0.1035,0.3901,0.1035c0.104,0,0.1821-0.1035,0.312-0.1299c0.416-0.0781,0.728-0.0781,1.7422-0.2334
				c1.3521-0.1826,2.8081-0.5459,3.3281-0.7021c0.6758-0.1826,2.3921-0.832,2.834-1.1963c0.1299-0.0518,0.52-0.1562,0.7803-0.2598
				c0.2339-0.0781,0.5459-0.3906,0.7275-0.3906c0.2861-0.0254,0.2861,0.0527,0.9624,0.5723c0.2598,0.208,0.5718,0.624,0.8062,0.832
				c0.2339,0.1562,0.3896,0.416,0.5977,0.5986c0.3643,0.2852,0.8062,0.7012,1.144,1.0137c0.4419,0.3379,1.6641,1.248,1.9243,1.4561
				c0.1816,0.1299,1.144,0.9102,1.4297,1.1182c0.3643,0.2598,0.7803,0.7021,1.1445,0.9619c0.1299,0.0781,0.208,0.2334,0.3115,0.3115
				c0,0.0264,0.0522,0,0.0522,0C30.2915,16.5938,30.1875,16.9316,30.1353,16.9844z M27.0415,30.3486
				c-0.1045,0.0264-1.0142-0.0781-1.2222-0.1826c-0.5981-0.3115-2.5483-0.0518-4.8623-0.207
				c-0.4683-0.0264-0.936,0.0518-1.4038,0.0254c-0.5464-0.0518-2.2363-0.208-2.5483-0.1816l-4.498,0.2598
				c-0.0522,0-0.0522,0.1035-0.104,0.1035c-0.3901-0.4414-0.2344-0.0771-0.208-1.2998c0.0259-0.4414-0.0264-1.04,0-1.248
				c0-0.0518,0.0259-0.1035,0.0781-0.1035c0.1558-0.0264,1.2998,0.0254,1.3257,0.0254c0.0522,0-0.0259-0.1035,0-0.1035
				c0.1304,0.0518,0.1304,0.0518,0.1304,0.1035c0.0776-0.1553,0.7539-0.0254,2.2881-0.1299l2.4438-0.1816
				c0.0259,0,0.104-1.7422,0.104-1.7422c-2.314,0.1816-2.21-0.0264-2.314,0.1816c-0.4683-0.5195-0.5464-1.8975-0.5464-1.9492
				c0.0264-0.1309-0.1816-0.1562,1.0923-0.2607c0.5718-0.0518,1.6382-0.1035,1.6641-0.1299
				c0.0522-0.0518-0.0781-2.3916-0.1299-2.4443l-2.9121-0.0771c-0.3901,0.0254-0.5981,0.0518-0.7021-0.0781
				c-0.1299-0.1309-0.1299-0.1562-0.1299-0.7539c0-0.7803,0.0518-1.3008,0.1558-1.3262c0.3643-0.1309,3.1201-0.2344,4.0562-0.3379
				c0.2861-0.0264,2.4961-0.2861,3.3022-0.3389l2.3662,0.1826c0.312,0.0518,0.4941,0,0.5977,0.208
				c0.1045,0.208,0.1304,0.6758,0.0781,1.7939c-0.0781,1.3779-0.1299,1.0137-0.2861,1.0664l-2.3398,0.0254
				c-0.0518,0.4678-0.104,1.4043-0.104,1.5342c1.1699-0.1045,1.6641-0.0781,1.8721,0.0518
				c0.2339,0.1299,0.1558,0.3906,0.1558,0.7539c0,0.5469-0.0776,1.7168-0.0776,1.7422c-0.104-0.0254-0.2339-0.0518-0.208-0.1035
				c-0.208,0.0518-0.5981,0.1562-0.52,0c-0.0264,0.0518-0.0264,0.0518-0.0264,0.1035c-0.1035-0.0518-0.1035-0.0518-0.1299-0.1035
				c-0.0259,0.0518-0.0259,0.0518-0.0259,0.1035c-0.4683-0.1035-0.7539-0.2334-0.9102-0.1035
				c-0.1558,0.1035-0.1558,0.2598-0.0776,1.1436c0.0259,0.3906,0.0259,0.5723,0.1816,0.624
				c0.1821,0.0781,0.5723-0.0254,1.3521-0.0518l3.2505-0.1045c0.2339,0.1562,0.2339,0.0527,0.2339,1.6641
				C27.4834,28.7627,27.4312,30.2705,27.0415,30.3486z"/>
		</g>
	</g>
</g>
</svg>
