<?xml version="1.0" encoding="utf-8"?>
<!-- Generator: Adobe Illustrator 25.2.1, SVG Export Plug-In . SVG Version: 6.00 Build 0)  -->
<svg version="1.1" id="レイヤー_1" xmlns="http://www.w3.org/2000/svg" xmlns:xlink="http://www.w3.org/1999/xlink" x="0px"
	 y="0px" viewBox="0 0 40 40" style="enable-background:new 0 0 40 40;" xml:space="preserve">
<style type="text/css">
	.st0{fill:#F5F5C8;}
	.st1{fill:#F5F5FF;}
	.st2{fill:#F5FFFF;}
	.st3{fill:none;stroke:#0067BD;stroke-miterlimit:10;}
	.st4{fill:#0067BD;}
	.st5{fill:#FFFFFF;}
	.st6{fill:#787882;}
	.st7{fill:#005AE6;}
	.st8{fill:#7828B4;}
	.st9{fill:#E61E50;}
	.st10{fill:#505064;}
	.st11{fill:#00966E;}
	.st12{fill:#1E1E28;}
	.st13{fill:none;stroke:#CDCDE1;stroke-miterlimit:10;}
	.st14{fill:url(#SVGID_1_);}
	.st15{fill:url(#SVGID_2_);}
	.st16{fill:#FFFF84;}
	.st17{fill:#EFEFF9;stroke:#B3B3BD;stroke-width:0.5;stroke-miterlimit:10;}
	.st18{fill:#B3B3B3;}
	.st19{fill:#3232E5;}
	.st20{fill:none;stroke:#FFFFFF;}
	.st21{fill:#F07832;}
	.st22{fill:none;stroke:#1E1E1E;stroke-width:1.2;stroke-miterlimit:10;}
	.st23{fill:none;stroke:#1E1E1E;stroke-width:1.2;stroke-linecap:round;stroke-linejoin:round;stroke-miterlimit:10;}
	.st24{fill:#EF3C3C;}
	.st25{fill:#00958B;}
	.st26{fill:#1E1E1E;}
	.st27{opacity:0.6;}
	.st28{fill:#FFFFFF;stroke:#FFFFFF;stroke-width:0.5;stroke-miterlimit:10;}
	.st29{opacity:0.5;}
	.st30{fill:#5A5A64;}
	.st31{fill:none;stroke:#1E1E28;stroke-miterlimit:10;}
	.st32{fill:#EC0000;}
</style>
<g>
	<g>
		<path class="st7" d="M20,0C3.125,0,0,3.125,0,20s3.125,20,20,20s20-3.125,20-20S36.875,0,20,0z"/>
	</g>
	<g>
		<g>
			<path class="st5" d="M16.4512,22.0576c-0.5464,0.0518-1.4561-0.0518-1.4824-0.0264c0.0522,1.3262,0.312,5.0449,0.3643,5.5381
				c0,0.0527-0.104-0.0254-0.104,0c0.0776,0.1562,0.104,0.1309,0.0518,0.2607l0.104,2.4697
				c-0.7539,0.1299-1.7158,0.2344-2.4438,0.2344c-0.832,0.0254-1.4561-0.0781-1.5083-0.3379
				c-0.0781-0.416,0.1821-2.3408,0.0781-2.8604c-1.144,0.3379-1.8203,0.5723-2.2363,0.6758
				c-0.624,0.1562-0.624,0.0518-0.5977-0.3896c0-0.208,0-0.4688-0.0522-0.832c-0.0518-0.1826-0.3901-1.4307-0.416-2.002
				c1.7163,0.1299,3.1724-0.2344,3.3022-0.3379c0.1821-0.1309,0-0.9629-0.0518-1.8984c0-0.208,0.0259-0.6504,0-0.6758
				c-0.2603-0.1045-1.7422,0.0518-2.1582-0.1309c-0.4424-0.1816,0-0.9873-0.0781-1.6113c0-0.1045-0.1562-0.2598-0.104-0.2598
				c0,0,2.1582,0.0254,2.1841,0c0.0518,0,0.1299-0.3643,0.104-0.5723l-0.2339-2.6523c0.0259-0.1299,0.2339-0.2861,0.3638-0.3125
				l2.9121-0.1299c0.0522,0,0.104,0.0264,0.104,0.0781l0.1821,3.3545c1.4302,0.1035,2.1323-0.1299,2.2358,0.2861
				c0.0522,0.3643,0.0522,0.7275,0.0522,1.0918c0,0,0,0.0264,0,0.0518c-0.0259,0.0527,0.0259,0.416,0.0259,0.5459
				C17.0488,21.9541,17.127,22.0059,16.4512,22.0576z M12.5767,14.1533c-1.2222,1.0918-2.4702,1.7676-2.7817,1.6641
				c-0.0264,0-0.9624-1.7422-1.3003-2.5225c-0.1299-0.2861-0.2339-0.4678-0.2603-0.5713c-0.0776-0.2607,0.1562-0.1826,1.2222-0.5205
				c1.8203-0.5977,3.2241-1.8721,3.354-2.0537c0.0781-0.0527,0.0781-0.1562,0.1304-0.208c0.0259-0.0264,0.0776-0.0264,0.104-0.0518
				c0.0781-0.0781,0.104-0.209,0.1816-0.2861c0.208-0.2344,0.4941,0.2861,1.2744,1.0918c0.52,0.5459,0.6758,0.4941,0.3638,0.9619
				C14.3711,12.4629,13.4609,13.373,12.5767,14.1533z M18.895,26.1914c-0.1821,0.0781-0.3638,0.1826-0.5459,0.2607
				c-1.8979,0.9102-1.2739,0.9355-2.0283-1.0146c-0.8838-2.3135-1.8462-1.4561,0.3901-2.3135
				c0.2598-0.1045,0.728-0.2607,0.7803-0.2861c0.0259,0,0-0.0518,0-0.0518c0.0259,0.0254,0.3379,0.1035,0.416,0.2598l1.1958,2.9375
				C18.9473,26.166,18.9731,26.1396,18.895,26.1914z M31.2197,24.502c-0.1045,0.0254-0.3125,0.0781-0.416,0.0781
				c-0.1562,0-1.7686-0.0527-2.3926,0.0771c-0.1035,0.0264-0.208,0.1309-0.3115,0.1045c-0.1821,0-0.5464-0.1562-0.5723-0.1299
				c0,0.1035-0.0518,0.5459,0.0259,0.7021c0.0522,0.1299,0.208-0.0264,0.5981-0.0518c0.2598-0.0264,0.8838-0.1309,0.9883-0.1826
				c0.0776,0.4941,0.2339,1.8721,0.3115,2.0537c-0.0259,0-1.9238,0.0781-1.9497,0.0781c-0.0259,0.0264,0,1.0146,0.0259,1.0146
				l3.666-0.2344c0.208,0.416,0.208,2.9902,0.104,3.0684c-0.104,0.1035-0.4678-0.208-2.7559-0.208h-4.7842l-3.9004,0.0518
				c-0.104,0-0.1558-0.2598-0.1558-0.3896c-0.0264-0.3125,0.0518-1.9766,0.0518-2.0283s0.0781-0.0264,0.104-0.0518
				c0-0.0264-0.0259-0.0527,0-0.0527c0.9883,0.2861,4.186,0.2607,4.2642,0.1562c0.0264-0.0254,0.0781-1.0137,0.0522-1.0137
				c0,0-2.1323,0.1299-2.1841,0.1299c-0.0264,0-0.104-0.2344-0.0781-0.3643c-0.0259-0.2334-0.1562-0.7793-0.1562-1.04
				c0-0.5459,1.248-0.1816,2.1323-0.5195c0.0781-0.0518,0.2339,0.0254,0.2339-0.0781c0.0264-0.0264,0.0264-0.8838,0-0.9102
				c-0.0518-0.0518-3.874,0.0781-3.978,0.0518c-0.0781-0.1562-0.3901-1.4561-0.4419-3.0156
				c-0.0522-1.1963-0.0264-2.4443-0.0264-3.2246c0-0.4678,0.0522-0.7275,0.0522-0.7793c0.0259-0.0527,0.1299-0.1562,0.1821-0.1826
				c5.98-0.5977,1.9238-0.0518,4.2383-0.4424l0.0259-1.1699l-0.9883,0.0264l-2.2881,0.0781
				c-1.8721,0.3643-1.9497,0.1562-2.0278-0.1045c-0.0264-0.2852-0.1299-1.6113-0.1299-1.6377
				c0.0259-0.1045,1.7417,0.0264,4.9922-0.4678c0.1299-0.0264,0.3896-0.0264,0.3896-0.0781
				c0.0264-0.0264-0.0781-1.1963-0.0781-1.2227c0.0264-0.0518,0.208,0.0264,0.2603,0c0.0259-0.0254-0.0259-0.1035,0-0.1035
				c0.8579,0.0781,0.8062,0.1299,1.1958-0.0264c0.0264,0-0.0259,0.1045,0,0.1045c0.0522,0,0.1562-0.1299,0.2603-0.1299
				c1.5601-0.1562,1.6118,0.0781,1.6641,0.1816c0.0522,0.1299,0.0259,0.7803,0.0522,0.8057c0.0259,0,1.04-0.0518,1.5859-0.0518
				c1.8721-0.208,1.8721,0,1.8198,0.2607c-0.0259,0.0254,0.0259,0.623,0.0259,1.1436c0.0264,0.5459,0,1.1182-0.0776,1.2217
				c-0.3384,0.416-1.7163-0.2852-3.3281-0.0254c0,0.0254,0.0518,1.1182,0.0776,1.1182l2.4702-0.0264
				c0.832,0.0781,1.248-0.0264,1.3521,0.208c0.0781,0.208-0.0259,0.8057,0.104,2.1846c0.0259,0.3633,0.1304,0.7012,0.1821,1.0391
				c0.0259,0.5469,0.104,2.0029,0.104,2.2109C31.7393,25.3594,31.4536,24.5273,31.2197,24.502z M27.7612,11.0068
				c-0.208,0.1309-1.2998,0.3125-1.6118,0.4424c-1.144,0.416-3.7183,0.8838-3.7964,0.9102
				c-0.0518,0.0264-0.0518,0.1035-0.104,0.1035c-0.2861,0.0781-1.1699,0.2861-1.1958,0.3125c-0.0259,0,0,0.0518,0,0.0518
				c-0.3643-0.3379-0.1304,0-0.3643-0.6504c0-0.0518-0.312-1.9756-0.2598-2.7559c0.2598-0.0254,1.0918,0.0527,1.9761-0.0518
				c1.0918-0.1562,2.314,0.0264,2.834-0.0781c1.1182-0.2334,1.6641-0.3643,1.9238-0.3896c0.3643-0.0264,0.2603,0.1562,0.4424,0.7021
				c0.1299,0.3896,0.3379,1.248,0.1816,1.3516C27.7871,10.9814,27.7612,11.0068,27.7612,11.0068z M23.9395,21.8496
				c-0.1821,0.0264-0.8062,0-0.8584,0.0264c-0.0259,0.0518-0.0259,0.6494,0,0.6494c0,0.0264,1.1182,0.0518,1.144,0.0518
				C24.2251,21.668,24.1992,21.7979,23.9395,21.8496z M24.1733,19.6133c-0.0259-0.3643-0.3901-0.2334-1.0923-0.1816
				c0,0.0264,0,0.832,0,0.8584c0.0264,0.0254,1.04,0.0254,1.04,0C24.1475,20.0557,24.1733,19.7432,24.1733,19.6133z
				 M29.0093,19.2754c-0.0518-0.0264-0.832-0.0781-1.248-0.1035c-0.0518,0-0.1558-0.0264-0.1558,0.0254
				c0,0.0264-0.0264,0.9619,0,0.9883c0.0259,0.0518,0.5977,0.0264,0.6499,0.0781c0.0259,0.0264,0.1558,0.6758,0.1821,1.0137
				c0.104,0.5723-0.5981,0.1826-0.7803,0.3643c-0.0259,0.0264-0.0781,0.7803-0.0518,0.8057
				c1.1958-0.208,1.5078-0.1035,1.5078-0.1035c0.208-0.1045,0.0781-2.1846,0-2.5225
				C29.0874,19.6133,29.0874,19.3018,29.0093,19.2754z"/>
		</g>
	</g>
</g>
</svg>
