<?xml version="1.0" encoding="utf-8"?>
<!-- Generator: Adobe Illustrator 25.2.1, SVG Export Plug-In . SVG Version: 6.00 Build 0)  -->
<svg version="1.1" id="レイヤー_1" xmlns="http://www.w3.org/2000/svg" xmlns:xlink="http://www.w3.org/1999/xlink" x="0px"
	 y="0px" viewBox="0 0 1040 80" style="enable-background:new 0 0 1040 80;" xml:space="preserve">
<style type="text/css">
	.st0{fill:#1E1E28;}
</style>
<g>
	<g>
		<path class="st0" d="M17.1396,44.6797c2.6797,2.2002,5.2402,4.041,7.6807,5.5205c-1.6406,6.96-3.96,13.6797-6.96,20.1592
			c-2.4404-2.4395-4.9004-4.6406-7.3799-6.5996C13.3604,57.8408,15.5801,51.4805,17.1396,44.6797z M26.2002,33.7598
			c-1.7998,3-3.3408,5.8799-4.6201,8.6396c-3.4004-2.2393-7.041-4.2197-10.9199-5.9395c2.1191-3.2402,3.7998-6.0801,5.04-8.5205
			C19.3799,29.7402,22.8789,31.6807,26.2002,33.7598z M27.4004,17.7402c-2.2412,2.7998-4.1611,5.5195-5.7607,8.1592
			c-3-2.5195-6.3799-4.8193-10.1396-6.8994c2.1602-2.4004,4.2002-4.9199,6.1201-7.5605
			C20.9395,13.3203,24.1992,15.4209,27.4004,17.7402z M66.6396,60.04h2.7607l-0.0605,8.6396l-46.5,0.0605L22.7803,60.04h2.9395
			V41.4395l40.9805-0.0596L66.6396,60.04z M64.7803,12.5195l-0.0605,26.8203H27.8203l0.0596-26.7598L64.7803,12.5195z
			 M36.9404,60.04V49.5996h-2.8809L34,60.04H36.9404z M55.6602,22.3594v-2.0996H36.2803v2.0996H55.6602z M36.2803,32.0195h19.3799
			l-0.0605-2.6396H36.2803V32.0195z M47.3799,60.04l0.0605-10.4404h-2.8203L44.5596,60.04H47.3799z M58.1201,60.04l0.0596-10.4404
			h-2.8193L55.2998,60.04H58.1201z"/>
		<path class="st0" d="M94.1201,42.9395v7.2607C90.2393,58.4404,84.1992,64.6396,76,68.7998
			c-1.6406-2.7207-3.4805-5.2803-5.5195-7.6797c5.1992-2.0801,9.459-5.3193,12.7793-9.7207H71.6797l-0.0596-8.46H94.1201z
			 M116.6201,53.9199c3.9199,2.8408,8.0791,5.001,12.4795,6.4795c-1.8398,2.8398-3.3799,5.7197-4.6191,8.6406
			c-8.3613-3.2012-15.041-8.54-20.04-16.0205l-0.1201,10.2002V63.46c0,3.8398-1.8809,5.9395-5.6406,6.2998
			c-1.7197,0.1201-4.3398,0.2197-7.8594,0.2998c-0.9209-3.2402-1.9004-6.2402-2.9404-9c1.5195,0.0811,2.7002,0.1201,3.54,0.1201
			c1.2002,0,2.0996-0.0195,2.7002-0.0596c0.8398-0.04,1.2598-0.4805,1.2598-1.3203l0.0605-18.7197H76.2402l0.0596-25.2002H94
			c0.5596-1.6797,1.0195-3.2793,1.3799-4.7998c3.3193,0.4404,6.7803,0.7402,10.3799,0.8994
			c-0.4795,1.4014-0.96,2.7002-1.4395,3.9004L123.4004,16l-0.0605,25.2002h-3.4199c1.6797,1.8398,3.7998,3.8398,6.3604,6
			C122.9199,49.9209,119.6992,52.1602,116.6201,53.9199z M85.1201,33.8799L114.4004,34v-2.1602l-29.2207-0.1201L85.1201,33.8799z
			 M85.2402,23.2598l-0.0605,2.04l29.2803,0.0596v-2.04L85.2402,23.2598z M105.8203,41.0801
			c1.1992,2.3604,2.6396,4.5205,4.3193,6.4795c2.9199-1.8389,5.6406-3.96,8.1602-6.3594L105.8203,41.0801z"/>
		<path class="st0" d="M134.9199,69.5195c-1.2803-2.7207-2.8799-5.7002-4.7998-8.9395c2.5195-1.2393,4.9199-2.6201,7.2002-4.1406
			l0.0596-12.8994h-6.3604l0.0605-9.2998h14.5195l0.0605,19.1396c0.1201,2.1201,1.1592,3.5996,3.1201,4.4395
			c2.6396,1.2002,5.3789,1.8008,8.2197,1.8008c3.5195,0.0801,6.1797,0.1201,7.9805,0.1201c8.3594,0,16.5391-0.2402,24.5391-0.7207
			c-0.96,3.4004-1.6406,6.5596-2.0391,9.4805c-6.4805,0.2402-13.1016,0.3594-19.8604,0.3594c-4.6797,0-9.2607-0.0596-13.7402-0.1797
			c-4.4004-0.2002-8.1807-1.7607-11.3398-4.6797C139.9795,66.0791,137.4404,67.9199,134.9199,69.5195z M143.0195,27.0996
			c-4-3.1201-7.9795-5.7598-11.9395-7.9199c2.2803-2.7197,4.2598-5.2803,5.9395-7.6797c4.1201,2.2002,8.1006,4.6602,11.9404,7.3799
			C146.8398,21.4805,144.8594,24.2197,143.0195,27.0996z M146.2598,34.4795c3.2793-7.4795,6-15.3389,8.1602-23.5801
			c2.6797,1.0801,5.5996,2.04,8.7598,2.8809C160.8594,20.2998,158.1191,27,154.96,33.8799
			c3.1201,6.8008,5.7998,13.7207,8.04,20.7598c-3,1.1611-5.8799,2.4209-8.6396,3.7803
			C152.2793,50.1006,149.5801,42.1201,146.2598,34.4795z M157.5996,33.8799c3.7207-7.4404,6.8799-15.0996,9.4805-22.9805
			c2.7988,1.2402,5.6396,2.3203,8.5195,3.2402c-2.5596,6.3604-5.54,12.8604-8.9395,19.5c3.4795,6.6807,6.4795,13.4805,9,20.4004
			c-3.1602,1.2402-6.0605,2.5801-8.7002,4.0195C164.5195,49.5801,161.3994,41.5205,157.5996,33.8799z M169.4199,33.6396
			c4.04-7.3203,7.4404-14.8799,10.2002-22.6797c2.7598,1.2803,5.6396,2.4209,8.6396,3.4199
			c-2.9199,6.7598-5.9395,13.1006-9.0596,19.0195c3.6396,6.4805,6.7998,13.0801,9.4795,19.8008
			c-2.9199,1.3193-5.7207,2.7998-8.3994,4.4395C177.5195,49.3203,173.8994,41.3193,169.4199,33.6396z"/>
		<path class="st0" d="M226,12.3994c6.0801,0,10.1602,1.5811,12.2402,4.7402c2.1602,3.3604,3.2998,10.1006,3.4199,20.2197
			c0.0791,8.5205-1.7803,15.2402-5.5801,20.1602c-3,3.8809-7.2002,6.7207-12.5996,8.5205
			c-4.2412,1.3594-11.2012,2.2998-20.8809,2.8193c-1.04-3.5605-2.2002-6.8398-3.4795-9.8398
			c4.2393,0.3213,8.3789,0.2998,12.4199-0.0596c4.5195-0.3604,8.1201-1.1191,10.7998-2.2803c4-1.6396,6.7803-4.4795,8.3398-8.5195
			c1.2002-3.1201,1.7402-7.2607,1.6201-12.4199c-0.2002-9.7207-2.3799-14.6406-6.54-14.7607
			c-5.8799,0-10.5801,3.4609-14.0996,10.3799c-2.6807,5.2412-4.3203,11.3809-4.9199,18.4209
			c-3.6006-0.1201-6.8809-0.1602-9.8398-0.1201c-0.1611-3.1201-0.2207-6.3008-0.1807-9.54c-0.04-9.04,0.4404-18.2197,1.4404-27.54
			c4.6396,0.4404,7.6396,0.6807,9,0.7197c-0.8809,5.2803-1.4004,10.4404-1.5605,15.4805c0.7998-4.4404,3.1602-8.2803,7.0801-11.5205
			C216.6396,14.0195,221.0801,12.3994,226,12.3994z"/>
		<path class="st0" d="M280.54,13c6.7598,0,12.3799,1.46,16.8604,4.3799c4.999,3.3203,8.3594,8.3604,10.0801,15.1201
			c0.6797,2.7598,1.0391,5.54,1.0791,8.3398c-0.04,4.4404-0.8799,8.4805-2.5195,12.1201c-2.1602,4.7197-5.46,8.3604-9.9004,10.9199
			c-4.5205,2.5996-9.3594,4.1797-14.5195,4.7402c-1.3203-3.1602-2.9209-6.4199-4.7998-9.7803c4.5596,0,8.5801-0.7393,12.0596-2.2197
			c4.1191-1.7598,7.04-4.6396,8.7598-8.6406c1.7197-3.9189,1.9805-8.3193,0.7803-13.1992c-0.96-4.2402-3.2607-7.4404-6.9004-9.6006
			c-2.1592-1.2393-4.46-2.1191-6.8994-2.6396c-1.3203,10.4395-3.8604,20.4805-7.6201,30.1201
			c-1.5596,4.1602-4.041,7.7607-7.4404,10.7998c-3.5195,2.6797-7.0195,2.6797-10.5,0c-2.2002-1.7998-3.8398-3.8799-4.9199-6.2402
			c-2.2793-4.3203-3.4404-9.0801-3.4795-14.2803c0-7.3594,2.2803-13.8994,6.8398-19.6201
			c2.7598-3.3984,6.1201-5.9395,10.0801-7.6191C271.6602,13.8994,275.9805,13,280.54,13z M266.9199,51.3398
			c4.2002-9,6.8799-18.5195,8.04-28.5596c-5.001,1.1201-8.9805,3.7998-11.9404,8.0391c-2.2002,3.4414-3.2998,7.3604-3.2998,11.7607
			c0,2.6396,0.4404,5.2002,1.3203,7.6797c0.3994,1.3604,1.0596,2.541,1.9795,3.54c0.6797,0.6406,1.3594,0.6211,2.04-0.0596
			C265.9004,53.0195,266.5195,52.2197,266.9199,51.3398z"/>
		<path class="st0" d="M322.5996,59.0801c-2.2402,3.04-4.7598,5.8594-7.5596,8.46c-1.4805-2.8008-3.2002-5.6797-5.1602-8.6406
			c4.04-2.7197,7.6797-6.1191,10.9199-10.1992l-10.0195-0.0605v-8.04h11.8193v-3L310.8398,37.54v-8.1602h6.4199
			c-0.4004-2-1.0605-3.8799-1.9795-5.6396h-3.4805l0.1201-8.1602h11.2197v-4.7402h9.4805l-0.0605,4.7402h9.6006v8.1602h-3.2998
			c-0.5605,2.4395-1.041,4.3193-1.4404,5.6396h4.7402v8.4004l-10.1406-0.0605l-0.0596,2.9404h9.6602v8.1592l-8.3398-0.0596
			c2.1602,1.6797,4.5391,3.1797,7.1396,4.5l-4.4395,7.3799c-1.6006-1.2393-3-2.4199-4.2002-3.54v13.3203h-9.1807V59.0801z
			 M330.4004,23.7402h-6.4805c0.7998,2.1201,1.4404,4,1.9199,5.6396h3.1797C329.5801,27.5,330.04,25.6201,330.4004,23.7402z
			 M369.6396,20.2002c-5.5195,1.1992-11.2598,2.0996-17.2197,2.6992l-0.1201,7.1406l16.6807,0.0596l-0.0605,9.2402h-5.2803v31.0801
			h-8.46V39.2803l-3-0.0605c-0.1602,3.3604-0.3594,6.3203-0.5996,8.8799c-0.9209,8.4404-4.2002,15.8193-9.8398,22.1406
			c-1.9609-2.4004-4.2812-4.7803-6.96-7.1406c2.8398-2.6396,4.9795-5.7598,6.4199-9.3594c0.9199-2.3193,1.5391-4.6807,1.8594-7.0801
			c0.2803-2.9199,0.46-5.8594,0.54-8.8203l0.2402-23.6396c7.7197-0.04,15.0996-1,22.1406-2.8809
			C366.8594,14.04,368.0801,17,369.6396,20.2002z"/>
		<path class="st0" d="M370.7197,22H382.54c0.4795-4.3594,0.7998-8.1797,0.96-11.46c4.04,0.2402,7.4189,0.4004,10.1396,0.4795
			c-0.4404,4.1201-0.8799,7.7402-1.3193,10.8604c3.0391-0.0391,7.1396-0.1797,12.2998-0.4199
			c-0.1201,2.1201-0.1406,3.7402-0.0605,4.8594c5-0.3594,12.6797-0.5186,23.04-0.4795c-0.1602,2.7207-0.2002,6-0.1191,9.8398
			c-7.8809-0.8789-16.1016-0.7998-24.6602,0.2402c0-0.0801,0.0391-0.8799,0.1201-2.4004C402.9795,32.6006,403,31.8203,403,31.1797
			c-5.4805,0-9.5205-0.0195-12.1201-0.0596c-2.5605,13.2803-6.1406,26.1201-10.7402,38.5195
			c-3.5605-1.6797-6.96-3.0801-10.1992-4.2002c2.959-6.1201,5.2988-11.8594,7.0195-17.2197c1.2393-3.999,2.6602-9.6797,4.2598-17.04
			c-4.7197,0.1602-8.2002,0.3408-10.4395,0.54C370.7803,27.3994,370.7598,24.1602,370.7197,22z M415.5996,58.8398
			c4.3203,0,8.7002-0.5996,13.1406-1.7998c0,4.3193,0.1396,7.8193,0.4199,10.5c-5.0801,0.6387-9.9404,0.96-14.5801,0.96
			c-6.8398,0-12.0605-0.5801-15.6602-1.7402c-4.041-1.7607-6.0596-4.8193-6.0596-9.1797c0-3.6006,0.7588-7.3203,2.2793-11.1602
			c2.6797,0.2803,5.6201,0.4199,8.8203,0.4199c-1.2803,2.3203-2.001,4.5205-2.1602,6.5996c-0.2002,2.2412,0.3398,3.54,1.6201,3.9004
			C407.0996,58.3398,411.1602,58.8398,415.5996,58.8398z"/>
		<path class="st0" d="M463.1797,29.4395c-3.5605-0.1201-7.2207-0.1797-10.9795-0.1797
			c-3.5205,11.2803-8.0605,22.1611-13.6201,32.6396c-2.5205-1.8389-5.3604-3.6797-8.5205-5.5195
			c5.3604-8.5996,9.6797-17.6191,12.96-27.0605c-4.1992,0-7.8594,0.0811-10.9795,0.2402C432,28.5605,432,27.04,432.04,25
			c-0.04-2-0.0596-3.5-0.0596-4.5c1.1191,0.04,3.459,0.0596,7.0195,0.0596c1.8398,0,3.9395,0,6.2998,0
			c1.2393-4.1592,2.04-7.5391,2.4004-10.1396c2.6396,0.4404,5.8193,0.8398,9.54,1.2002c-0.8008,3.5195-1.6006,6.4795-2.4004,8.8799
			c1.1191,0,2.5205-0.0195,4.2002-0.0605c0.1592,0,0.8594-0.0195,2.0996-0.0596c0.7998,0,1.4795-0.0195,2.04-0.0605V29.4395z
			 M489.1602,20.8594l-1.6797,9.1807c-3.1201-0.5195-6.6211-1.2598-10.5-2.2207l-0.0605,19.9805
			c4.3594,1.8809,8.4199,4.2002,12.1797,6.96c-1.8799,3.5605-3.3398,6.5801-4.3799,9.0596
			c-2.4404-2.1592-5.0205-4.0195-7.7393-5.5791c0,3.2393-0.9404,5.7393-2.8203,7.5c-2.4404,2.1592-6.4004,3.2393-11.8799,3.2393
			c-5.8408,0-10.0605-1.8203-12.6602-5.46c-1.5605-2.2393-2.3398-4.6797-2.3398-7.3193c0-4.6807,2.2197-8.0605,6.6602-10.1406
			c3.5996-1.5996,8.2793-1.9795,14.04-1.1396V25.5996c-0.6406-0.1592-1.1211-0.2998-1.4404-0.4199
			c0.9199-3.1201,1.6592-5.9189,2.2197-8.3994C476.4795,18.9805,483.2803,20.3408,489.1602,20.8594z M462.7598,60.3994
			c3.5195,0,5.2803-1.3594,5.2803-4.0801v-2.5195c-2.5605-0.7197-4.5811-1.0801-6.0596-1.0801
			c-3.9609,0-5.9404,1.2402-5.9404,3.7197C456.04,59.0801,458.2793,60.3994,462.7598,60.3994z"/>
		<path class="st0" d="M497.3799,49.8994h11.5205c0.0791,4.4014,0.7588,7.0801,2.04,8.04c1.0391,0.8809,4.0391,1.3408,9,1.3799
			c4.6797,0.0811,7.7588-0.4395,9.2393-1.5596c1.2002-0.9199,1.8799-2.8398,2.04-5.7598c0.2002-5.1602-2.5-7.7402-8.0996-7.7402
			h-10.5l-0.0605-9.54h9.96c5.2402,0.0811,7.9404-2.0996,8.1006-6.54c0.0791-4.3994-3.3809-6.5996-10.3799-6.5996
			c-4.3604,0.04-7.1201,0.6602-8.2803,1.8594c-0.9209,0.96-1.54,3.3008-1.8604,7.0205h-11.7598
			c0.2002-7.5195,1.8799-12.5,5.04-14.9404c2.9199-2.2793,8.8594-3.4395,17.8203-3.4795c8.2393,0,13.8594,1,16.8594,3
			c2.96,2.0801,4.4199,5.9805,4.3809,11.7002c-0.0811,7.0791-2.541,11.2402-7.3809,12.4795c2.8398,0.9209,4.8398,2.1602,6,3.7197
			c1.4004,2.0811,2.0605,5.3008,1.9805,9.6602c-0.2002,6.1201-1.8604,10.3594-4.9805,12.7197
			c-3.4795,2.5596-9.7598,3.8203-18.8398,3.7803c-9.1602-0.04-15.1602-1.4395-18-4.2002
			C498.6602,62.46,497.3799,57.46,497.3799,49.8994z"/>
		<path class="st0" d="M550,36.6396c2.04-3.5195,3.6797-6.54,4.9199-9.0596c4.2002,1.7607,8.1992,3.8203,12,6.1797
			c-1.6006,2.6396-3.2002,5.6807-4.7998,9.1201C558.2803,40.1201,554.2393,38.04,550,36.6396z M550.0596,63.5801
			c3.4805-5.96,6-12.2793,7.5605-18.96c2.3193,1.3193,5.2588,2.7998,8.8203,4.4395c-1.9609,7.1201-4.5,13.8398-7.6201,20.1602
			C554.7402,66.5391,551.8193,64.6602,550.0596,63.5801z M591.6396,20.2002l15.96,0.0596l-0.0596,50.04l-8.6396,0.0596v-1.6797
			l-22.0801-0.0596v1.7393l-9.1201-0.0596v-48.54c-1.6807,2.2803-3.0605,4.3408-4.1406,6.1797
			c-3.5605-2.7988-7.4199-5.0996-11.5791-6.8994c1.8789-2.5596,3.8193-5.4395,5.8193-8.6406
			c3.9199,1.9199,7.7793,4.2812,11.5801,7.0801c-0.1201,0.2012-0.3398,0.4609-0.6602,0.7803l12.7207,0.0596
			c0.8789-3.1191,1.5986-6.2998,2.1592-9.5391c2.4805,0.3203,6,0.6396,10.5605,0.96
			C593.4404,14.5801,592.5996,17.4004,591.6396,20.2002z M576.8203,39.2197l22.0195,0.0605l0.0605-10.1406h-22.0801V39.2197z
			 M598.9004,59.7998V47.8594h-22.0801l0.0596,11.9404H598.9004z"/>
		<path class="st0" d="M610.8398,33.7002l18.7803,0.0596V23.6201l-14.7598-0.0605l-0.0605-9.2998l49.8604,0.1797v9.2402h-24.7197
			v10.0801h28.1992v9.54l-28.2598-0.0596l-0.0596,12.2393v0.1807c0,1.2803,0.6191,1.9199,1.8594,1.9199
			c0.0801,0,0.1396-0.0195,0.1807-0.0605c1.2393,0.0811,3.1396,0.1201,5.6992,0.1201c5.8809,0.0811,11.8809-0.2998,18-1.1396v3.4199
			c0,1.6006,0.04,3.9199,0.1201,6.96c-5,0.3994-10.3799,0.5996-16.1396,0.5996c-4.9199,0-9.3809-0.1406-13.3799-0.4199
			c-4.4404-0.3594-6.6807-2.7402-6.7197-7.1396l0.1191-16.6201l-18.7197-0.1797V33.7002z"/>
		<path class="st0" d="M728.2598,30.5195V40l-21.0596-0.1201c-0.3604,7.7998-2.6406,14.1406-6.8398,19.0195
			c-2.2803,2.2803-4.541,4.0996-6.7803,5.46c-1.96,1.1602-5.3604,2.8809-10.2002,5.1602c-2.1602-3.2803-4.4609-6.2803-6.8994-9
			c6.0391-1.7188,10.7588-3.7793,14.1592-6.1797c3.4805-2.6797,5.6797-7.5195,6.6006-14.5205l-27.1201-0.0596v-9.3604
			L728.2598,30.5195z M722.9199,20.8594l-5.4004,2.1006c-0.7998-2.3193-1.7197-4.7402-2.7598-7.2598l-0.0596,7.1992l-37.9199-0.1191
			v-9.3604l37.9795,0.1797v0.8398l4.7402-1.7393C720.6602,15.0996,721.7998,17.8203,722.9199,20.8594z M721.1797,12.3994
			l5.1602-1.9199c1.2393,2.4805,2.3799,5.2002,3.4199,8.1602l-5.3994,2.1006C723.5596,18.1396,722.5,15.3604,721.1797,12.3994z"/>
		<path class="st0" d="M739,32.6201l-0.0596-20.8203l10.0195,0.0596l-0.0596,22.0205c0,5.1602-0.6006,10.1396-1.8008,14.9395
			C745.2598,56.46,742.0195,63.5195,737.3799,70c-0.8799-1.1201-2.1406-2.6201-3.7803-4.5
			c-0.2803-0.3213-0.9395-1.041-1.9795-2.1602c-0.7607-0.8398-1.3203-1.4795-1.6797-1.9199
			c3.7197-5.3594,6.2793-10.7793,7.6797-16.2598C738.54,41.4395,739,37.2607,739,32.6201z M775.4805,43.7197
			c2.2393-4.1592,3.8193-8.9795,4.7393-14.46c1.96,1.6006,4.9404,3.7197,8.9404,6.3604c-1.2402,7-4,13.2402-8.2803,18.7197
			c-6.5605,8.2803-15.0205,13.3994-25.3799,15.3604l-0.1797-58.8604l10.0801-0.1201v43.5605
			C769.5996,51.7207,772.96,48.2002,775.4805,43.7197z"/>
		<path class="st0" d="M825.5801,13.4199c7.1191,0.04,11.8799,1.0605,14.2803,3.0596c2.7197,2.4004,3.999,7.2812,3.8398,14.6406
			c-0.2012,7.4004-1.6006,12.1797-4.2002,14.3398c-2.2002,1.8809-6.7803,2.7998-13.7402,2.7598h-18.7793l0.0596,20.6396h-11.3398
			v-55.5L825.5801,13.4199z M832.7803,30.8799c0.0791-4.959-2.001-7.4404-6.2402-7.4404l-19.5-0.0596l-0.0596,14.6396
			l19.4395,0.0605C830.5,38.0801,832.6201,35.6797,832.7803,30.8799z"/>
		<path class="st0" d="M859.1201,69.04V12.6396h11.46v46.2598h30.6602V69.04H859.1201z"/>
		<path class="st0" d="M932.6201,11.9795h14.04l21.7803,56.9404h-13.0801l-3.6602-10.6797h-24.4805L923.5,68.9795l-12.6602-0.0596
			L932.6201,11.9795z M930.6396,48.3398h17.6406l-8.7002-25.6797L930.6396,48.3398z"/>
		<path class="st0" d="M974.7998,68.9199l-0.1797-56.2803l13.8604-0.0596l25.5,39.96l-0.1807-40.0801h11.5801l0.1201,56.3994
			l-14.0996,0.0605l-26.1602-41.1006l0.1797,41.1006H974.7998z"/>
	</g>
</g>
</svg>
