<?xml version="1.0" encoding="utf-8"?>
<!-- Generator: Adobe Illustrator 25.2.1, SVG Export Plug-In . SVG Version: 6.00 Build 0)  -->
<svg version="1.1" id="レイヤー_1" xmlns="http://www.w3.org/2000/svg" xmlns:xlink="http://www.w3.org/1999/xlink" x="0px"
	 y="0px" viewBox="0 0 1040 80" style="enable-background:new 0 0 1040 80;" xml:space="preserve">
<style type="text/css">
	.st0{fill:#1E1E28;}
</style>
<g>
	<g>
		<path class="st0" d="M19.1201,40.0596c-1.4404-0.8398-3.501-1.959-6.1797-3.3594c-1.6807-0.7998-2.541-2.1201-2.5801-3.96
			c-0.0811-0.7598,0.1201-1.54,0.5996-2.3408c1.3994-2.6396,3.5195-3.2793,6.3604-1.9199c2.6396,1.3203,4.8994,2.5605,6.7793,3.7207
			c2.04,1.3193,2.46,3.1797,1.2607,5.5801C23.7998,40.8994,21.7197,41.6602,19.1201,40.0596z M15.4004,46.1797
			c0.5186-2.5996,2.2988-3.5596,5.3398-2.8799c2.5596,0.6406,3.5791,2.2803,3.0596,4.9199
			c-1.3193,6.2012-2.7803,11.8408-4.3799,16.9199c-0.6807,1.8799-2.0205,2.8594-4.0195,2.9404
			c-0.5605-0.0811-1.1211-0.1807-1.6807-0.2998c-1.3193-0.5205-2.2002-1.2207-2.6396-2.1006
			c-0.6406-1.1602-0.7002-2.3799-0.1797-3.6602C12.46,58.0205,13.96,52.7402,15.4004,46.1797z M19.1201,23.5596
			c-0.7197-0.4795-2.7002-1.7402-5.9404-3.7793c-1.3604-0.7598-2.1396-1.8008-2.3398-3.1201
			c-0.2803-1.1201-0.04-2.2402,0.7197-3.3604c0.9199-1.4795,2.2207-2.2197,3.9004-2.2197c0.7197,0,1.5801,0.2607,2.5801,0.7793
			c3.6797,2.2012,5.8594,3.5615,6.54,4.0801C26.5,17.7402,26.6992,19.7598,25.1797,22
			C23.46,24.7998,21.4395,25.3203,19.1201,23.5596z M65.9199,44.9199v14.1602c2.8398,0,4.1797,1.5205,4.0205,4.5596
			c-0.2012,2.7598-1.541,4.1406-4.0205,4.1406h-41.04c-2.7207,0-3.9805-1.5605-3.7803-4.6807c0-2.6787,1.3203-4.0195,3.96-4.0195
			V44.9199c0-2.7998,1.4004-4.2002,4.2002-4.2002h32.4004C64.5,40.7197,65.9199,42.1201,65.9199,44.9199z M59.7402,38.6201H31.3604
			c-2.8008,0-4.2002-1.3594-4.2002-4.0801l0.0596-18.2998c0-2.7998,1.4199-4.2002,4.2607-4.2002h28.2598
			c2.7988,0,4.2002,1.4004,4.2002,4.2002v18.1797C63.9404,37.2197,62.5391,38.6201,59.7402,38.6201z M33.46,59.0801h2.7598V48.8799
			H33.46V59.0801z M54.7002,19.96H35.9199v2.2197h18.7803V19.96z M54.7002,28.6602H35.9199v2.2197h18.7803V28.6602z
			 M43.9004,59.0801h2.7598V48.8799h-2.7598V59.0801z M54.5195,59.0801h2.8203V48.8799h-2.8203V59.0801z"/>
		<path class="st0" d="M73.0596,58.8398c4.2002-2.0791,7.6602-4.8193,10.3809-8.2197h-8.1602c-3.2803,0-4.7402-1.5996-4.3799-4.8008
			c0.2793-2.3994,1.6797-3.5996,4.1992-3.5996l15.7207,0.0605c4.5596,0,5.7598,2.1201,3.5996,6.3594
			c-3.9209,7.7607-9.5801,13.7803-16.9795,18.0605c-2.6406,1.4395-4.6807,0.8789-6.1201-1.6807
			c-0.4004-0.7197-0.5811-1.46-0.54-2.2197C70.7393,61.1201,71.5,59.7998,73.0596,58.8398z M127.2402,58.1201
			c1.999,0.7598,3.0195,2.1201,3.0596,4.0801c-0.04,0.7588-0.2197,1.5195-0.54,2.2793c-1.3193,2.7998-3.3809,3.6201-6.1797,2.46
			c-7.7607-3.0801-13.96-8.0596-18.5996-14.9395v10.0195c0,4.1602-2.3613,6.4805-7.0801,6.96
			c-2.1602,0.1201-4.7207-0.04-7.6807-0.4795c-3.0801-0.5205-4.2002-2.3604-3.3594-5.5205
			c0.6797-2.6787,2.3193-3.7588,4.9199-3.2393c0.7588,0.2002,1.5986,0.3203,2.5195,0.3594
			c0.9199,0.0811,1.3799-0.3994,1.3799-1.4395V40.4795H81.46c-2.6807,0-4.041-1.2988-4.0801-3.8994V19.4795
			c0.0391-2.5996,1.4404-3.8994,4.2002-3.8994l12.6602-0.0605l0.96-2.46c0.6396-1.8389,2.2393-2.7598,4.7998-2.7598
			c0.4805,0,0.9795,0.04,1.5,0.1201c2,0.4404,3.2402,1.3203,3.7197,2.6396c0.2402,0.6406,0.2197,1.3408-0.0596,2.1006l-0.2402,0.54
			h14.04c2.6797,0,4.0205,1.2803,4.0205,3.8398v17.04c0,2.6006-1.3408,3.8994-4.0205,3.8994h-12.4795
			c1.6396,2.4404,3.2393,4.541,4.7998,6.3008c3.7588-1.7598,7.4395-3.7598,11.04-6c2.3994-1.4795,4.3994-1.1006,6,1.1396
			c0.7197,1.04,1.0195,2.1406,0.8994,3.2998c-0.1602,1.2803-0.8203,2.2197-1.9795,2.8203c-3.6006,2.04-6.8203,3.6602-9.6602,4.8594
			C119.9805,54.8604,123.1992,56.6006,127.2402,58.1201z M86.6797,23.0195v1.8604h26.9404v-1.8604H86.6797z M86.6797,33.2803
			h26.9404v-1.8604H86.6797V33.2803z"/>
		<path class="st0" d="M156.5195,59.3193c3.7207,0.3213,8.4609,0.4004,14.2207,0.2402c3.4795-0.0391,8.2393-0.2188,14.2793-0.54
			C188.3398,58.8604,190,60.3799,190,63.5801c0.0391,3-1.4805,4.5791-4.5596,4.7393c-1.9609,0-4.9609,0.0996-9,0.3008
			c-3,0-5.001,0.0596-6,0.1797c-4.9209,0-9.7012-0.0811-14.3408-0.2402c-5.5596-0.4004-9.7402-2.0605-12.54-4.9795
			c-2.5195,2.1602-4.1992,3.5596-5.04,4.2002c-1.1992,0.7197-2.2793,1.1592-3.2393,1.3193c-1.5605-0.1602-2.7402-0.8008-3.54-1.9199
			c-0.96-1.1201-1.3408-2.3203-1.1406-3.5996c0.0801-1.4004,0.8193-2.5205,2.2207-3.3604c1.9199-1.1592,3.6797-2.4795,5.2793-3.96
			L138.04,43.2402h-3.6602c-2.7598,0-4.0195-1.6807-3.7803-5.04c0.04-2.7998,1.46-4.2002,4.2607-4.2002h6.7793
			c3.2793,0,4.9199,1.5801,4.9199,4.7402v14.1592c0,1.8408,1.1201,3.3408,3.3604,4.5
			C151.6797,58.5605,153.8799,59.2002,156.5195,59.3193z M148.54,23.7998c-1.96,3.0811-4.3799,3.54-7.2598,1.3799
			c-2.1602-1.4795-4.6807-3.1201-7.5605-4.9199c-1.3604-0.7598-2.1807-1.8193-2.46-3.1797c-0.2002-1.1201,0.0605-2.2998,0.7803-3.54
			c0.6797-1.2002,1.6201-1.96,2.8203-2.2803c1.1191-0.2793,2.46,0,4.0195,0.8398c3.3193,1.8408,6.1592,3.5801,8.5205,5.2197
			C149.6396,19.2002,150.0195,21.3604,148.54,23.7998z M162.8799,51.5801c1.04,3.2002,0.3193,5.3008-2.1602,6.2998
			c-3.3203,1.4004-5.5,0.3203-6.54-3.2402c-0.5195-1.3594-1.04-2.9795-1.5596-4.8594c-0.1602-0.3994-0.4004-1.1797-0.7197-2.3408
			c-0.3604-0.999-0.6211-1.7998-0.7803-2.3994c-1.1611-3.4805-2.2803-6.5801-3.3604-9.2998
			c-0.4795-1.2002-0.46-2.3408,0.0605-3.4209c2.2393-5.3594,4.3594-11.5586,6.3594-18.5996c0.6006-2.2803,2.04-3.4199,4.3203-3.4199
			c0.3994,0,0.7598,0.04,1.0801,0.1201c3.2402,0.6807,4.2598,2.5801,3.0596,5.7002c-2.4404,7.4805-4.5996,13.4004-6.4795,17.7598
			C158.7598,40.0801,160.999,45.9805,162.8799,51.5801z M167.7402,33.46c3.7197,7.7998,6.3994,14,8.04,18.5996
			c0.8398,2.8008,0.0596,4.6602-2.3398,5.5801c-3.0811,1.2002-5.1602,0.2012-6.2402-3c-2.6807-7.5195-5.1602-13.7188-7.4404-18.5996
			c-0.6807-1.2002-0.6396-2.6602,0.1201-4.3799c2.9199-6.7207,5.2998-12.7207,7.1396-18c0.8408-2.5205,2.6797-3.4805,5.5205-2.8799
			c3.0801,0.7998,3.999,2.6992,2.7598,5.6992C172.9004,22.3203,170.3799,27.9805,167.7402,33.46z M179.7402,33.0996
			c3.2402,6,6.1592,11.9609,8.7598,17.8799c1.1602,2.6807,0.5596,4.6406-1.7998,5.8799c-3.1201,1.6006-5.3203,0.7412-6.6006-2.5791
			c-1.6406-4.2402-3.04-7.5996-4.1992-10.0801c-1.4805-3.1201-3.0215-6.1201-4.6201-9c-0.7207-1.2803-0.7803-2.5205-0.1807-3.7207
			c3.1201-5.7197,5.9004-11.7197,8.3408-18c0.3994-1.1992,1.2197-2.0596,2.46-2.5801c0.9189-0.3994,1.999-0.4199,3.2393-0.0596
			c2.7607,1.041,3.6006,2.9004,2.5205,5.5801C185.0996,22.6201,182.46,28.1797,179.7402,33.0996z"/>
		<path class="st0" d="M205.8398,68.1396c-3.3203-0.1602-4.9199-1.6406-4.7998-4.4395c0-3.2402,1.6201-4.7793,4.8604-4.6201
			c5.1191,0.2393,9.5791,0.04,13.3799-0.6006c4.999-0.8789,8.7393-2.6396,11.2197-5.2793c2.7998-2.9199,4.46-7.9805,4.9805-15.1807
			c0.3193-4.1191-0.0605-8.0996-1.1406-11.9395c-1.3203-4.2803-3.2998-6.5801-5.9395-6.9004
			c-2.9209-0.2793-6.1406,1.3604-9.6602,4.9199c-3,3.04-6.0205,7.2002-9.0605,12.4805c-2.3994,4.2002-4.1201,7.6797-5.1602,10.4395
			c-0.9199,2.3613-2.6201,3.3809-5.0996,3.0605c-2.4004-0.2002-3.6406-1.5996-3.7197-4.2002
			c-0.1602-2.5996-0.2207-5.2998-0.1807-8.0996c-0.04-8.3203,0.4805-15.9805,1.5605-22.9805
			c0.4795-2.9189,2.2393-4.2197,5.2803-3.9004c2.8799,0.4414,4.0391,2.1211,3.4795,5.04c-0.96,4.5605-1.5596,9.8809-1.7998,15.96
			c3.4795-7.0801,7.0996-12.2998,10.8604-15.6592c4.3994-3.6797,9.2793-5.3604,14.6396-5.04
			c5.3193,0.5195,9.1992,3.2803,11.6396,8.2793c2,4.1211,3,10.041,3,17.7607c0,9.0801-2.3799,16.2998-7.1396,21.6592
			c-3.3604,3.7607-7.9199,6.3604-13.6797,7.8008C218.9199,67.6992,213.0791,68.1787,205.8398,68.1396z"/>
		<path class="st0" d="M261.9404,20.4395c5.3594-4.5596,11.7197-6.8398,19.0791-6.8398c7.6406,0,13.96,2.3203,18.9609,6.96
			c5.5195,5.1211,8.1592,12,7.9199,20.6406c-0.3213,8.6006-3.2803,15.1797-8.8809,19.7393c-4.4395,3.6006-9.9199,5.5996-16.4395,6
			c-2.7207,0.0801-4.3008-1.1201-4.7402-3.5996c-0.5996-3.2402,0.6992-4.9805,3.9004-5.2197
			c11.2393-0.7998,17.0195-6.3203,17.3398-16.5605c0.1592-5.9189-1.4609-10.7598-4.8604-14.5195
			c-2.8799-3.1592-6.0205-4.7402-9.4199-4.7402c-1.0801,12.6807-3.2002,22.8604-6.3594,30.54
			c-3.5205,8.4004-8.2207,12.5195-14.1006,12.3604c-8.1201-0.4004-12.1797-7.8203-12.1797-22.2607
			C252.1602,33.46,255.4199,25.96,261.9404,20.4395z M265.2402,56.9199c1.6797,0,3.499-2.4395,5.46-7.3203
			c2.2803-5.7598,4.0996-14.7197,5.46-26.8799c-9.3604,1.9199-14.5205,7.7012-15.4805,17.3398
			C259.5195,51.3008,261.04,56.9199,265.2402,56.9199z"/>
		<path class="st0" d="M314.5596,37.2998c-1.4795,0-2.6006-0.5195-3.3594-1.5596c-0.6807-0.9199-0.9404-2-0.7803-3.2402
			c0.2793-2.1992,1.5605-3.2998,3.8398-3.2998h2.8203l-0.96-5.5205h-1.2598c-2.6006,0-3.8408-1.4189-3.7207-4.2598
			c0.04-2.5205,1.2393-3.7803,3.6006-3.7803h8.5195v-1.5596c0-2.4795,1.5605-3.7207,4.6807-3.7207
			c3.1191,0,4.6797,1.2607,4.6797,3.7803v1.5h6.6602c2.4795,0,3.7197,1.3408,3.7197,4.0205s-1.1396,4.0195-3.4199,4.0195h-0.54
			l-1.3799,5.5205H340c0.8789,0,1.6201,0.2002,2.2197,0.5996c0.6797,0.4805,1.1797,1.1602,1.5,2.04V18.5801
			c0-2.7607,1.4004-4.2607,4.2002-4.5l1.4404-0.1201c5.5996-0.4395,10.459-1.1191,14.5801-2.04
			c3.0391-0.6006,4.8594,0.6201,5.46,3.6602c0.5596,3.1201-0.6807,4.8799-3.7207,5.2793c-3.6807,0.5205-8.1807,1.041-13.5,1.5605
			v7.5h13.4404c2.8799,0,4.3203,1.5,4.3203,4.5c-0.0811,3.04-1.5,4.5596-4.2607,4.5596l-2.2197-0.0596v27.3604
			c0,2.3193-1.2998,3.5186-3.9004,3.5996c-3.04,0.0801-4.5596-1.2402-4.5596-3.96V38.7998h-3.0596
			c-0.0811,11.7207-2.8809,21.2402-8.4004,28.5596c-0.96,1.1602-2.0996,1.7598-3.4199,1.8008
			c-1.2002,0.0391-2.2803-0.3604-3.2402-1.2002c-2.3203-2.001-2.5-4.2402-0.54-6.7197l1.3799-1.8604
			c-0.5605,0.2803-1.2002,0.3809-1.9199,0.2998c-0.9209-0.0791-1.7002-0.4395-2.3398-1.0801l-1.6201-1.2598V65.5
			c0,2.7197-1.4004,4.1191-4.2002,4.2002c-3.2002,0-4.7998-1.4014-4.7998-4.2002v-7.0801c-0.96,1.2402-2.46,2.8408-4.5,4.7998
			c-2.7207,2.4395-5.0205,2.3398-6.8994-0.2998c-0.6807-0.9199-0.96-1.96-0.8408-3.1201c0.1201-1.2002,0.7207-2.2197,1.8008-3.0596
			c3.4395-2.6797,6.2998-5.54,8.5801-8.5801h-6.6602c-2.8008,0-4.0801-1.4199-3.8398-4.2607c0.1191-2.3594,1.3994-3.54,3.8398-3.54
			h8.5195v-3.0596H314.5596z M330.8203,23.7402h-6.7207l1.0205,5.46h4.3203L330.8203,23.7402z M331.7803,37.2998v3.0596h8.0996
			c0.8398,0,1.5391,0.1611,2.1006,0.4805c0.5596,0.3203,0.999,0.8604,1.3193,1.6201c0.1201-2.7197,0.1592-5.1797,0.1201-7.3799
			c-0.3203,0.7197-0.7402,1.2803-1.2598,1.6797c-0.6006,0.3604-1.3008,0.54-2.1006,0.54H331.7803z M340.5996,54.8193
			c1.1201-2.3193,1.8994-4.9795,2.3408-7.9795c-0.2803,0.5205-0.6602,0.8604-1.1406,1.0195
			c-0.4004,0.2012-0.96,0.3008-1.6797,0.3008h-6.7197c1.6797,1.3193,3.4795,2.54,5.3994,3.6592
			c0.5195,0.4414,0.9004,0.8613,1.1406,1.2607C340.2197,53.5596,340.4395,54.1396,340.5996,54.8193z"/>
		<path class="st0" d="M395.8604,15.2803l-0.7207,3.8994h28.5c2.96,0,4.4199,1.4609,4.3799,4.3799
			c-0.0801,2.8008-1.5596,4.2002-4.4395,4.2002l-29.8203-0.0596C390.96,40.1797,387.04,52.8398,382,65.6797
			c-0.8398,1.7197-2.2197,2.5801-4.1396,2.5801c-0.7207,0-1.3799-0.1201-1.9805-0.3604c-2.8408-1.0801-3.5801-3.0996-2.2197-6.0596
			c4.6396-10.7598,8.2588-22.0596,10.8594-33.9004h-8.3994c-2.8008,0-4.2002-1.3994-4.2002-4.1992S373.2793,19.54,376,19.54h9.9004
			c0.2793-1.7197,0.54-3.54,0.7793-5.46c0.2402-2.3604,1.6201-3.54,4.1406-3.54c0.3594,0,0.7588,0.0205,1.1992,0.0596
			C394.9795,11,396.2598,12.5605,395.8604,15.2803z M401.7402,55c-2.4004,0.96-3.6006,1.9199-3.6006,2.8799
			c0,1.2803,1.96,2.001,5.8799,2.1602c2.7607,0.1602,6.0205,0.04,9.7803-0.3604c3.6396-0.2402,6.6396-0.6396,9-1.2002
			c3.3203-0.6797,5.1797,0.3604,5.5801,3.1201c0.3193,2.7598-0.8799,4.4404-3.5996,5.04
			c-3.7207,0.8398-7.9609,1.3203-12.7207,1.4404c-6.4404,0.1201-11.2402-0.1602-14.3994-0.8398
			c-5.3604-1.1611-8.04-3.9209-8.04-8.2803c0-4.8398,2.7988-8.3193,8.3994-10.4404c2.5205-0.8398,4.2998-0.2598,5.3408,1.7402
			C404.4404,52.5801,403.9004,54.1602,401.7402,55z M418.8398,41.0195c0.5195-0.3594,0.4805-0.6191-0.1201-0.7793
			c-2.3604-0.3994-5.5-0.54-9.4199-0.4209c-1.96,0.1201-5.2402,0.501-9.8398,1.1406c-3.2803,0.4795-5.04-0.8398-5.2803-3.96
			c-0.2002-2.5596,1.2002-4,4.2002-4.3203c6.6396-0.7588,12.5195-0.8789,17.6396-0.3604
			c7.3594,0.8809,11.2598,3.1201,11.7002,6.7207c0.2793,2.5605-0.8799,4.9004-3.4795,7.0195
			c-2.001,1.7207-4.541,3.1201-7.6201,4.2002c-2.8008,0.96-4.6406,0.3809-5.5205-1.7402c-1.1201-2.4795-0.4404-4.1787,2.04-5.0996
			C415.8193,42.54,417.7197,41.7402,418.8398,41.0195z"/>
		<path class="st0" d="M461.5596,27.9395h-9.4199c-2.4404,9.6807-6.7197,19.6406-12.8398,29.8799
			c-1.6797,2.8008-3.8008,3.4209-6.3594,1.8604c-1.5605-0.8398-2.3408-2.0596-2.3408-3.6602c0-0.7197,0.2197-1.459,0.6602-2.2197
			c6.2793-10.5996,10.2598-19.2197,11.9404-25.8604h-7.6807c-2.7998,0-4.1992-1.5195-4.1992-4.5596
			c0-2.5596,1.4189-3.8398,4.2598-3.8398h9.7803c0.2793-1.3203,0.6387-3.2402,1.0801-5.7598c0.1992-1.4404,0.6992-2.4395,1.5-3
			c0.4795-0.3604,1.2793-0.5605,2.3994-0.6006c0.4395,0.04,0.9004,0.0811,1.3799,0.1201c2.7197,0.3604,3.8193,1.9404,3.2998,4.7402
			c-0.3203,1.4004-0.6592,2.8408-1.0195,4.3193h7.5596c2.8809,0,4.3203,1.4404,4.3203,4.3203
			C465.8799,26.5205,464.4404,27.9395,461.5596,27.9395z M488.4404,54.7002c0.1592,1.1602-0.041,2.2998-0.6006,3.4199
			c-1.5596,2.6396-3.4199,3.2998-5.5801,1.9795c-3-1.6797-4.8398-2.7002-5.5195-3.0596c0,2.2793-0.501,4.3604-1.5,6.2402
			c-2.001,3.4395-6.2607,5.1592-12.7803,5.1592c-11.4805,0-17.2197-4.2803-17.2197-12.8398c0-3.5596,1.5195-6.459,4.5596-8.7002
			c2.6797-1.8789,6-2.8994,9.96-3.0596c3.3203-0.0391,6.1592,0.2002,8.5205,0.7197V32.2598c0-2.8799,1.5391-4.2393,4.6201-4.0801
			c2.7598,0.2402,4.1396,1.4805,4.1396,3.7197v16.0205c3.7998,1.6406,6.8789,3.0596,9.2402,4.2598
			C487.4805,52.8203,488.2002,53.6602,488.4404,54.7002z M462.04,60.5195c2.4395-0.0391,4.1396-0.6602,5.0996-1.8594
			c0.7598-0.9199,1.1406-2.7002,1.1406-5.3408c-2.001-0.7988-4.3604-1.1992-7.0801-1.1992c-4.8408-0.04-7.2812,1.2207-7.3203,3.7793
			C453.7998,59.1006,456.5195,60.6396,462.04,60.5195z M489.1602,26.5596c-0.0811,0.9209-0.2998,1.7012-0.6602,2.3398
			c-1.5205,2.4814-3.4404,2.9805-5.7598,1.5c-4.041-2.4395-8.3203-4.6992-12.8398-6.7793c-2.7207-1.1201-3.3213-3.04-1.8008-5.7607
			c1.2002-2.1992,2.9795-2.7988,5.3408-1.7998c4.3594,1.9609,8.9395,4.3203,13.7393,7.0801
			C488.4189,23.9404,489.0791,25.0801,489.1602,26.5596z"/>
		<path class="st0" d="M538.7197,63.8799c-3.96,3.7998-9.8799,5.7002-17.7598,5.7002c-7.6406,0-13.5-1.6807-17.5801-5.04
			c-3.4404-2.7598-5.3994-6.46-5.8799-11.1006c-0.2402-2.5996,1.0596-4.2393,3.9004-4.9199c3.1992-0.6797,5.1387,0.54,5.8193,3.6602
			c1,5.6396,5.7002,8.46,14.1006,8.46c8.4395,0,12.6602-3.0791,12.6602-9.2402c0-2.9189-1.1611-5.1992-3.4805-6.8398
			c-1.9199-1.2002-4.3203-1.8799-7.2002-2.04c-2.2803-0.0391-4.9199-0.0195-7.9199,0.0605
			c-2.9609,0.0801-4.4395-1.4795-4.4395-4.6807c0-3.0791,1.5596-4.5986,4.6797-4.5596c3.7588,0.2002,7.0195,0.1797,9.7803-0.0596
			c2.2393-0.0801,4.0391-0.6006,5.3994-1.5605c1.7998-1.2002,2.7002-3.0996,2.7002-5.7002c0-4.5596-3.6602-6.8398-10.9805-6.8398
			c-7.7197,0-12.2002,1.9404-13.4395,5.8203c-0.3203,1.0801-1.0205,1.8398-2.0996,2.2803
			c-1.2002,0.5605-2.5205,0.5996-3.9609,0.1191c-2.7598-0.9189-3.6396-2.8594-2.6396-5.8193
			c2.3594-7.4795,9.7803-11.2207,22.2598-11.2207c13.7197,0,20.5801,5.04,20.5801,15.1201c0,6.4414-2.5195,10.7402-7.5596,12.9004
			c5.2393,2.4404,7.8594,6.8604,7.8594,13.2598C543.5195,56.6797,541.9199,60.7598,538.7197,63.8799z"/>
		<path class="st0" d="M552.7598,36.8799c-1.7607-0.8799-2.6396-2.2803-2.6396-4.2002c0-0.5596,0.0996-1.1191,0.2998-1.6797
			c0.999-3,3.0391-3.96,6.1201-2.8799c2.4004,0.9199,5.0996,2.3203,8.0996,4.1992c2.4004,1.4805,2.7998,3.5811,1.2002,6.3008
			c-1.5205,2.5596-3.5205,3.1602-6,1.7998c-0.9209-0.4395-2.0996-1.04-3.54-1.7998
			C554.6201,37.8604,553.4395,37.2803,552.7598,36.8799z M563.9805,44.0801c2.5586,1.2002,3.3789,3.2393,2.46,6.1201
			c-1.8809,5.96-4.0205,11.2793-6.4209,15.96c-0.96,1.8389-2.3799,2.7793-4.2598,2.8193c-0.9199-0.04-1.7803-0.2803-2.5801-0.7197
			c-1.1201-0.6406-1.8799-1.5205-2.2793-2.6396c-0.5205-1.2402-0.4609-2.5205,0.1797-3.8398
			c2.6396-5.9199,4.7197-10.96,6.2402-15.1201C558.4395,43.5,560.6592,42.6396,563.9805,44.0801z M565.7803,16.4199
			c2.2793,1.4805,2.7002,3.54,1.2598,6.1797c-1.5205,2.6807-3.54,3.3408-6.0596,1.9805c-0.8408-0.4404-2.1006-1.0996-3.7803-1.9805
			c-1.6807-0.8398-2.9404-1.4795-3.7803-1.9199c-1.2803-0.5996-2.0801-1.5195-2.4004-2.7598
			c-0.3594-1.0801-0.2803-2.2197,0.2402-3.4199c1.1602-2.7598,3.1396-3.6006,5.9404-2.5205
			C559.6797,12.9395,562.54,14.4199,565.7803,16.4199z M572.3799,68.4395c-3.2402,0-4.8604-1.6201-4.8604-4.8594V24.2803
			c0-3.1201,1.6406-4.6807,4.9209-4.6807H581.5l1.6201-5.5801c0.6396-2.3594,2.3193-3.5596,5.04-3.5996
			c0.5596,0.04,1.1191,0.1201,1.6797,0.2402c2.96,0.8799,4.0205,2.7803,3.1797,5.6992l-1.0791,3.3008h11.3994
			c3.2402,0,4.8604,1.6201,4.8604,4.8594v39.0605c0,3.2393-1.6201,4.8594-4.8604,4.8594H572.3799z M576.9404,28.5996v10.1406
			h22.3193V28.5996H576.9404z M576.9404,47.7998v11.46h22.3193v-11.46H576.9404z"/>
		<path class="st0" d="M663.04,17.6201c0.0391,2.96-1.4004,4.4395-4.3203,4.4395h-19.2002v10.8604l25.6201-0.0605
			c2.96,0,4.4404,1.5215,4.4404,4.5605c-0.1201,3-1.6006,4.5-4.4404,4.5H639.46l0.0596,13.7998
			c0,1.0801,0.5605,1.6406,1.6807,1.6797c7.0801,0.5605,13.7188,0.3604,19.9199-0.5996c2.8398-0.3193,4.46,1.1006,4.8604,4.2598
			c0.3594,3.2402-0.8613,5.0195-3.6602,5.3398c-5.2002,0.5605-10.041,0.8604-14.5205,0.9004
			c-2.5605-0.04-4.9795-0.1406-7.2598-0.2998c-3.04-0.2012-5.4209-0.8604-7.1396-1.9805c-2.2803-1.4395-3.4199-3.499-3.4199-6.1797
			V41.9199h-14.8809c-3.0801,0-4.6191-1.5605-4.6191-4.6797c0.0391-2.96,1.5791-4.4404,4.6191-4.4404h14.8809V22.0596H618.46
			c-3.0811,0-4.6406-1.459-4.6797-4.3799c-0.0811-2.8799,1.459-4.3203,4.6201-4.3203l40.6191-0.0596
			C661.6992,13.2998,663.04,14.7402,663.04,17.6201z"/>
		<path class="st0" d="M680.2002,59.9795c7.2793-1.7188,12.0996-4.4395,14.46-8.1602c1.5596-2.3594,2.4795-6.7588,2.7598-13.1992
			h-22.4395c-3,0-4.5-1.5605-4.5-4.6807c0-3.0791,1.5-4.6201,4.5-4.6201h49.5c2.959,0,4.4395,1.541,4.4395,4.6201
			c0,3.1201-1.4609,4.6807-4.3799,4.6807h-17.9404c-0.3203,8.5596-1.9795,14.9805-4.9795,19.2598
			c-3.8008,5.1191-9.9805,8.8398-18.54,11.1602c-0.5605,0.0791-0.96,0.1396-1.2002,0.1797
			c-2.1201-0.0801-3.5205-1.2402-4.2002-3.4795C676.5996,62.6201,677.4404,60.7002,680.2002,59.9795z M710.6201,13.3594
			c0.7588,0,1.2988,0.2402,1.6201,0.7207c0.3193-0.5195,0.8994-1.0205,1.7402-1.5c1.8389-0.7598,3.2188-0.3398,4.1396,1.2598
			c1.1592,2.7207,2.1797,5.0801,3.0596,7.0801c0.6797,1.7607,0.0605,2.9805-1.8594,3.6602c-2.04,0.9199-3.4414,0.4199-4.2002-1.5
			c-0.6807-1.4404-1.1006-2.4004-1.2598-2.8799c-0.2402,0.6807-0.6006,1.1602-1.0801,1.4395
			c-0.7207,0.5205-1.541,0.7803-2.46,0.7803h-31.0205c-2.8408,0-4.2598-1.5195-4.2598-4.5605c0-3,1.46-4.5,4.3799-4.5H710.6201z
			 M729.1602,20.4395c-0.2402,0.8809-0.9209,1.5605-2.04,2.04c-2.0801,0.8008-3.4004,0.2402-3.96-1.6797
			c-0.5605-1.3594-1.4805-3.3994-2.7598-6.1201c-1.001-1.7197-0.501-3.0391,1.5-3.96c0.5186-0.1592,1.0195-0.2793,1.5-0.3604
			c1.1191,0.0811,1.9795,0.7207,2.5801,1.9209c0.8789,1.6797,1.8389,3.7197,2.8799,6.1191c0.2793,0.5605,0.4199,1.001,0.4199,1.3203
			C729.2803,19.96,729.2393,20.2002,729.1602,20.4395z"/>
		<path class="st0" d="M738.2803,22.8398l0.1201-5.7598c0-3.2002,1.5791-4.7998,4.7393-4.7998
			c3.0801-0.04,4.6201,1.5205,4.6201,4.6797v5.46c0,6.4795-0.2607,12.2002-0.7793,17.1602
			c-1.2002,9.8799-3.7803,18.7598-7.7402,26.6396c-0.6006,1.1191-1.541,1.8398-2.8203,2.1602
			c-1.2002,0.2793-2.3203,0.1797-3.3604-0.2998c-1.8799-0.9209-2.8193-2.3203-2.8193-4.2002c0-0.5996,0.1396-1.1191,0.4199-1.5605
			c3.7998-7.1592,6.1592-14.8193,7.0801-22.9795C738.0996,35.7002,738.2803,30.2002,738.2803,22.8398z M764.9199,15.0996v42.4805
			c8.8398-4.5195,14.04-11.9199,15.5996-22.2002c0.3203-2.7197,2.1602-3.7803,5.5205-3.1797
			c2.8398,0.7197,4.0996,2.3994,3.7803,5.04c-2.8408,16.1602-12.1201,26.6396-27.8398,31.4395
			c-0.7207,0.1592-1.2207,0.2402-1.5,0.2402c-3.3604,0-5.001-1.7607-4.9209-5.2803V15.1602c0-2.9199,1.5605-4.4199,4.6807-4.5
			C763.3604,10.6201,764.9199,12.0996,764.9199,15.0996z"/>
		<path class="st0" d="M827.0195,11.8594c10.5605,0,15.7402,5.8408,15.54,17.5205c-0.1602,11.2803-5.3398,16.9199-15.54,16.9199
			h-21.5391v18.96c0,2.9189-1.6406,4.3799-4.9209,4.3799c-3.2002,0.0801-4.7998-1.2803-4.7998-4.0801l0.0605-47.3994
			c0-4.1602,1.8789-6.2402,5.6396-6.2402L827.0195,11.8594z M825.46,37.3594c5.0791,0,7.6201-2.8799,7.6201-8.6396
			c0.0391-5.3193-2.4404-8.0195-7.4404-8.0996h-20.2793v16.7393H825.46z"/>
		<path class="st0" d="M862.6602,10.2998c3.1201,0,4.6797,1.5596,4.6797,4.6797v44.46h29.5801c3.2402,0,4.8193,1.541,4.7402,4.6201
			c-0.1602,2.8799-1.7402,4.3203-4.7402,4.3203l-33.54-0.0605c-3.6807,0-5.4805-2.0801-5.3994-6.2393V15.0996
			C857.9805,11.9004,859.54,10.2998,862.6602,10.2998z"/>
		<path class="st0" d="M947.0195,14.4395l19.2002,48.54c0.2793,0.7207,0.4199,1.46,0.4199,2.2207
			c0,1.9199-0.8994,3.2998-2.6992,4.1396c-0.6807,0.2793-1.3809,0.4199-2.1006,0.4199c-2.3203,0-3.8994-1.1396-4.7402-3.4199
			l-3.4795-9.54h-26.2803l-3.5996,9.4805c-0.9209,2.3193-2.5205,3.4795-4.7998,3.4795c-0.7607,0-1.4609-0.1406-2.1006-0.4199
			c-1.8809-0.8799-2.7998-2.2402-2.7598-4.0801c-0.04-0.6807,0.0996-1.3604,0.4199-2.04l20.2197-48.9004
			c1-2.3994,2.96-3.6797,5.8799-3.8398C943.7998,10.3594,945.9404,11.6797,947.0195,14.4395z M931,47.9795h19.0801l-9.5996-24.54
			L931,47.9795z"/>
		<path class="st0" d="M1023.7002,64.96c0,2.5195-1.3008,4.0801-3.9004,4.6797c-0.4004,0.0801-0.8008,0.1201-1.2002,0.1201
			c-0.7998,0-1.5205-0.1602-2.1592-0.4795c-0.8008-0.3604-1.4209-0.8613-1.8604-1.5l-28.8604-39.4209l0.0605,36.96
			c0,3-1.6201,4.5-4.8604,4.5c-3.1602,0-4.7402-1.5-4.7402-4.5V15.04c0-2.4395,1.2197-4,3.6602-4.6807
			c2.0791-0.5186,3.7998,0.0215,5.1602,1.6201l29.2803,39.1807V14.5596c0-2.959,1.5791-4.4395,4.7393-4.4395
			c3.1201,0,4.6807,1.4805,4.6807,4.4395V64.96z"/>
	</g>
</g>
</svg>
