<?xml version="1.0" encoding="utf-8"?>
<!-- Generator: Adobe Illustrator 25.2.1, SVG Export Plug-In . SVG Version: 6.00 Build 0)  -->
<svg version="1.1" id="レイヤー_1" xmlns="http://www.w3.org/2000/svg" xmlns:xlink="http://www.w3.org/1999/xlink" x="0px"
	 y="0px" viewBox="0 0 1040 80" style="enable-background:new 0 0 1040 80;" xml:space="preserve">
<style type="text/css">
	.st0{fill:#1E1E28;}
</style>
<g>
	<g>
		<path class="st0" d="M12.6396,27.8799c1.6396-1.5605,3.5-1.9199,5.5801-1.0801c2.96,1.3203,5.2402,2.4805,6.8398,3.4805
			c1.7197,1.1992,2.4199,2.8799,2.1006,5.0391c-0.3604,2.2012-1.3799,3.8203-3.0605,4.8604
			c-1.7598,1.2002-3.5605,1.2207-5.3994,0.0605c-0.5605-0.3203-2.4209-1.4199-5.5801-3.3008c-1.96-1.0801-2.8008-2.7598-2.5205-5.04
			C10.7598,30.3398,11.4404,29,12.6396,27.8799z M12.8203,65.7998c-1.3203-1.4404-1.6201-3.1201-0.9004-5.04
			c1.4404-4.0801,2.8994-8.9189,4.3799-14.5195c0.4805-1.9209,1.7998-3,3.96-3.2402c1.8398-0.1592,3.46,0.3398,4.8604,1.5
			c1.4395,1.2002,2,2.7002,1.6797,4.5c-0.9209,4.4004-2.3008,9.46-4.1396,15.1797c-0.7607,2.4004-2.3604,3.6396-4.7998,3.7197
			C15.7393,67.9395,14.0596,67.2402,12.8203,65.7998z M29.0801,17.0801c0.1201-3.3994,1.8604-5.1006,5.2197-5.1006h24.7803
			c3.8398,0,5.7598,1.7207,5.7598,5.1602v14.2197c0,3.6807-1.6602,5.5205-4.9795,5.5205H34.1201c-3.3604,0-5.04-1.7197-5.04-5.1602
			v-10.5c-0.6807,1.7998-1.7402,3.0605-3.1797,3.7803c-1.5605,0.8398-3.1201,0.7197-4.6807-0.3604
			C20.5391,24.2002,18.6602,23,15.5801,21.04c-1.8809-1.1191-2.5605-2.7803-2.04-4.9805c0.3604-1.6797,1.2598-3.0391,2.7002-4.0801
			c0.96-0.7588,1.9795-1.1396,3.0596-1.1396c0.6797,0,1.3594,0.1602,2.04,0.4795c1.9199,1.001,3.9395,2.2412,6.0605,3.7207
			C28.1201,15.5605,28.6797,16.2402,29.0801,17.0801z M69.1602,65.9199c-0.6807,1.3203-1.6406,1.9795-2.8799,1.9795H27.7598
			c-1.3604,0-2.3398-0.7402-2.9395-2.2197c-1.001-2.2002-0.96-4.3594,0.1201-6.4795c0.6797-1.3594,1.6191-2.04,2.8193-2.04h0.7207
			V43.7197c0-3.6396,1.9199-5.46,5.7598-5.46h25.5596c3.8799,0,5.8203,1.8604,5.8203,5.5801v13.3203h0.6602
			c1.2393,0,2.1992,0.6201,2.8799,1.8594c0.5195,0.96,0.7998,2.1006,0.8398,3.4199C69.96,63.7598,69.6797,64.9199,69.1602,65.9199z
			 M38.9805,57.1602v-9.4805H37.54v9.4805H38.9805z M39.7598,19.5996v1.2002h14.2207v-1.2002H39.7598z M39.7598,27.6396v1.2002
			h14.2207v-1.2002H39.7598z M47.6797,57.1602v-9.4805h-1.3193v9.4805H47.6797z M56.5596,57.1602v-9.4805h-1.5v9.4805H56.5596z"/>
		<path class="st0" d="M127.1201,55.8398c1.6797,1.0801,2.54,2.541,2.5801,4.3799c-0.04,2.2402-1.001,4.0996-2.8799,5.5801
			c-2.04,1.5195-4.0605,1.6396-6.0605,0.3604c-1.7197-1.0801-3.8994-2.7207-6.54-4.9199c-2.6006-2.0801-4.7197-3.9395-6.3594-5.5801
			v5.0996c0,5.4004-2.5801,8.1797-7.7402,8.3398c-4.2002,0.0801-7.4805-0.0596-9.8398-0.4199c-2.001-0.2803-3.3213-1.5-3.96-3.6602
			c-0.4805-1.5596-0.2803-3.2793,0.5996-5.1602c-2.04,1.8008-5.0996,3.8604-9.1797,6.1807
			c-2.001,1.1191-3.7803,1.0801-5.3398-0.1201c-1.4404-1.1201-2.1602-2.6396-2.1602-4.5605c0-1.959,0.8594-3.3789,2.5801-4.2598
			c4.2793-2.1602,7.0586-3.8594,8.3398-5.0996h-6.2998c-2.7607,0-4.1611-1.5605-4.2002-4.6807
			c-0.0811-3.0791,1.2197-4.6191,3.8994-4.6191h17.46c1.6406,0.0801,2.8203,0.6807,3.54,1.7998v-3.7197H94.96H81.2803
			c-3.6006,0-5.4004-1.8008-5.4004-5.4004V21.46c0-3.6006,1.7998-5.4004,5.4004-5.4004h11.5195
			c0.3604-0.7197,0.8193-1.6592,1.3799-2.8193c0.7998-1.9209,2.8594-2.9004,6.1807-2.9404c5.2793,0.04,7.5391,1.6201,6.7793,4.7402
			c-0.1602,0.4795-0.2607,0.8203-0.2998,1.0195h13.4404c3.7197,0,5.5801,1.8213,5.5801,5.46v13.5605
			c-0.0811,3.8008-2.04,5.7002-5.8799,5.7002h-12.1201v0.7793c1.7188,1.6006,3.5791,3.1807,5.5801,4.7402
			c3.5996-2.04,6.0596-3.459,7.3799-4.2598c2.4395-1.5195,4.5791-0.96,6.4199,1.6797c1.7998,2.6396,1.5,4.7012-0.9004,6.1797
			c-1.3604,0.8408-2.8799,1.6807-4.5596,2.5205c0.9189,0.6807,1.959,1.3604,3.1201,2.04
			C126.2598,55.3398,127,55.8008,127.1201,55.8398z M87.46,23.7998v1.3203h26.5205v-1.3203H87.46z M87.46,33.1602h26.5205v-1.5
			H87.46V33.1602z M95.5596,57.7002v-7.9199c-0.2803,1.04-0.7402,1.9795-1.3799,2.8193c-1.4004,1.7607-3.1406,3.6807-5.2197,5.7598
			c0.7197-0.3193,1.5-0.4199,2.3398-0.2998C94.1396,58.6201,95.5596,58.5,95.5596,57.7002z"/>
		<path class="st0" d="M184.6602,57.46c3.4395-0.1592,5.1797,1.6602,5.2197,5.46c-0.04,3.1992-1.5596,4.8994-4.5596,5.0996
			c-8.2412,0.3604-17.1211,0.3994-26.6406,0.1201c-2.3203-0.0801-4.3398-0.3203-6.0596-0.7197
			c-3.1602-0.7607-6.0605-2.1211-8.7002-4.0801c-1,0.96-2.6396,2.3193-4.9199,4.0801c-1,0.6797-2.0605,1.0195-3.1797,1.0195
			c-3.9209,0-5.8799-2-5.8799-6c0-1.999,1.0391-3.6797,3.1191-5.04c0.7998-0.5186,1.8604-1.3389,3.1807-2.46V42.2803h-1.6807
			c-2.96,0-4.3604-1.8398-4.1992-5.5205c0.1201-3.6797,1.6992-5.5195,4.7393-5.5195h5.8809c3.7988,0,5.6992,1.5801,5.6992,4.7393
			v16.2002c2.5596,2.5605,5.3398,4,8.3398,4.3203c-1.3594-0.4805-2.2402-1.5195-2.6396-3.1201
			c-0.1602-0.5195-0.4404-1.6396-0.8398-3.3604c-0.4004-1.5596-0.7402-2.8799-1.0205-3.96
			c-0.9199-3.3994-1.96-6.7393-3.1191-10.0195c-0.6006-1.5195-0.54-2.9795,0.1797-4.3799c3.2402-7.7197,5.6592-13.7197,7.2598-18
			c0.7998-2.1602,2.3799-3.2402,4.7402-3.2402c4.7598,0,6.3604,2.0996,4.7998,6.2998c-2.4805,6.4404-4.7998,11.9609-6.96,16.5605
			c2.1992,5.9199,4.1396,11.9004,5.8203,17.9395c0.7197,3.0811-0.4004,5.1406-3.3604,6.1797
			c3.7598,0.2402,8.0791,0.3408,12.96,0.3008C177.5596,57.7402,181.5,57.6602,184.6602,57.46z M133.1201,21.3994
			c-1.2803-0.999-1.9199-2.2393-1.9199-3.7197c-0.04-1.3203,0.459-2.5596,1.5-3.7197c0.9199-1.1191,2.0791-1.8604,3.4795-2.2197
			c1.5195-0.3604,2.96-0.1201,4.3203,0.7197c1.4795,1,3.1396,2.3604,4.9805,4.0801c2.4385,2.3604,2.3193,4.9404-0.3604,7.7402
			c-2.7207,2.7998-5.1807,3.1602-7.3799,1.0791C137.2998,25,135.7598,23.6797,133.1201,21.3994z M176.7998,16.5996
			c-2.6396,6.6807-4.96,12.1201-6.96,16.3203c2.3193,6.3203,4.2598,12.2002,5.8203,17.6396c0.8789,3.3604-0.4199,5.46-3.9004,6.2998
			c-3.5205,0.8809-5.7002-0.2188-6.54-3.2998c-2.0801-7.8389-3.8799-13.8193-5.3994-17.9395
			c-0.5605-1.4004-0.5205-2.8398,0.1201-4.3203c3.3994-7.959,5.8389-13.8398,7.3193-17.6396
			c0.4805-1.3594,1.4004-2.2998,2.7598-2.8203c1.1602-0.4805,2.4004-0.54,3.7207-0.1797
			C176.9395,11.6201,177.96,13.5996,176.7998,16.5996z M179.1396,14.0801c0.4805-1.3594,1.3799-2.2998,2.7002-2.8203
			c1.1602-0.4795,2.4004-0.54,3.7197-0.1797c3.2002,0.8799,4.2607,2.8193,3.1807,5.8193
			c-2.1602,5.8809-4.3604,11.2803-6.6006,16.2002c2.5205,6.3213,4.5605,12.0811,6.1201,17.2803
			c0.96,3.2402-0.2998,5.3203-3.7793,6.2402c-3.4805,0.96-5.6611-0.0801-6.54-3.1201c-2.1211-7.3203-4.041-13.2002-5.7607-17.6406
			c-0.6807-1.3994-0.6602-2.7988,0.0605-4.1992C175.2402,24.3398,177.54,18.4805,179.1396,14.0801z"/>
		<path class="st0" d="M229.4805,12.6396c5.4795,0.4805,9.5186,3.2402,12.1191,8.2803c1.96,3.96,2.9404,8.9609,2.9404,15
			c0,1.04-0.0205,2.0605-0.0596,3.0596c-0.4414,8.0811-2.7412,14.46-6.9004,19.1406c-3.3604,3.6396-7.8809,6.1396-13.5605,7.5
			c-4.2402,0.96-9.7598,1.3994-16.5596,1.3193c-4-0.0801-6-2.2598-6-6.54c0-3.6387,1.9199-5.46,5.7598-5.46
			c5.4004,0.1201,9.4805-0.0195,12.2402-0.4199c4.2002-0.5596,7.2998-1.8594,9.2998-3.8994c2.5205-2.5596,4-6.6602,4.4404-12.3008
			C233.5195,34.4404,233.2197,31,232.2998,28c-1.0801-3.2793-2.6396-4.9805-4.6797-5.1006
			c-3.4404-0.1191-7.4209,2.9805-11.9404,9.3008c-4.0801,5.7598-6.4404,10.5801-7.0801,14.46
			c-0.4795,2.7998-2.3203,4.1992-5.5195,4.1992c-4.2402,0-6.4404-1.7588-6.5996-5.2793c-0.1201-2.1992-0.1611-4.4199-0.1201-6.6602
			c-0.041-6.8398,0.4395-13.8398,1.4395-21c0.4395-3.5596,2.5996-5.2803,6.4805-5.1602c4.3193,0.2402,6.0791,2.1211,5.2793,5.6396
			c-0.3203,1.4404-0.7002,4.0205-1.1396,7.7402c2.6396-4.3203,5.4199-7.5791,8.3398-9.7803
			C220.5596,13.5605,224.7998,12.3203,229.4805,12.6396z"/>
		<path class="st0" d="M284.6201,54.7598c4.7197-0.0391,8.1396-2.1992,10.2598-6.4795c1.3203-2.6797,1.9805-5.54,1.9805-8.5801
			c0-2.4805-0.4414-4.7793-1.3203-6.9004c-1.8809-4.5195-5.001-7.1191-9.3604-7.7998c-0.5996,5.8408-1.2207,10.54-1.8594,14.0996
			c-1.001,5.2002-2.3398,9.7412-4.0205,13.6201c-3.6396,8.3203-8.7002,12.4805-15.1797,12.4805
			c-6.3604,0-10.5811-4.9404-12.6602-14.8203c-0.5605-2.8398-0.8398-5.4795-0.8398-7.9199c0-8.7998,3.1592-15.9004,9.4795-21.2998
			c5.6406-4.8398,12.3994-7.2607,20.2803-7.2607c11.5596,0,19.6592,4.6406,24.2998,13.9199c1.8008,3.6807,2.7002,7.6807,2.7002,12
			c0,5.04-1.0801,9.6807-3.2402,13.9209c-4.2402,8.4805-10.8594,12.7197-19.8594,12.7197h-0.4805
			c-0.96-0.0811-1.6797-0.1797-2.1602-0.2998c-2.6006-0.8008-3.9404-2.5605-4.0195-5.2803v-0.1797
			c-0.04-0.0801-0.0605-0.1602-0.0605-0.2402C278.5596,56.7402,280.5791,54.8408,284.6201,54.7598z M269.7402,47.9795
			c2.2393-5.4795,3.9795-12.9189,5.2197-22.3193c-8.1201,2.6396-12.1797,8.5-12.1797,17.5801c0,1.4004,0.1592,2.9004,0.4795,4.5
			c0.8398,3.6807,1.7598,5.5195,2.7598,5.5195C267.0596,53.2598,268.2998,51.5,269.7402,47.9795z"/>
		<path class="st0" d="M364.96,28.96c3,0,4.5195,1.9199,4.5596,5.7598c-0.04,3.6807-1.46,5.5-4.2598,5.46V64.96
			c0,3.1592-1.8809,4.7188-5.6396,4.6797c-3.7607-0.0801-5.6396-1.6006-5.6396-4.5596V40.4795h-1.9209
			c-0.1602,4.2812-0.46,8.0205-0.8994,11.2207c-0.1201,0.7197-0.2998,1.9404-0.54,3.6592
			c-0.2012,1.5215-0.3604,2.6807-0.4805,3.4805c-0.4404,2.5605-1,4.8389-1.6797,6.8398c-1.041,3-3.3604,3.999-6.96,3
			c-3.5996-1.04-5.04-3.1006-4.3203-6.1797c-0.5605,0.3594-1.1992,0.54-1.9199,0.54c-0.8398-0.0811-1.4395-0.3604-1.7998-0.8398
			c-0.5996-0.5605-1.1201-1.2197-1.5596-1.9805v4.9199c0,3.0391-1.8408,4.5605-5.5205,4.5605c-3.6807,0-5.5195-1.4805-5.5195-4.4404
			v-2.7002c-0.041,0.041-0.2803,0.2598-0.7207,0.6602c-0.3203,0.2402-0.5195,0.3994-0.5996,0.4805
			c-3,1.8389-5.46,1.3799-7.3799-1.3809c-1-1.3594-1.4004-2.8594-1.2002-4.5c0.1201-1.7588,0.9199-3.1191,2.4004-4.0791
			c1.7598-1.2002,3.0596-2.2002,3.8994-3H315.04c-2.9199,0-4.3799-1.7197-4.3799-5.1602c-0.04-3.4404,1.46-5.1602,4.5-5.1602h5.5801
			v-1.6797h-5.5205c-3.04,0-4.5801-1.7002-4.6201-5.1006c-0.1191-3.3594,1.3203-5.1191,4.3203-5.2803l-0.8398-3.7197
			c-2.4805-0.1992-3.7002-1.8594-3.6602-4.9795c-0.04-3.2793,1.2393-4.9404,3.8398-4.9805h6.4805
			c0-2.9189,1.8389-4.3799,5.5195-4.3799c3.7207,0,5.5801,1.4805,5.5801,4.4404h4.3799c2.8398,0,4.2393,1.6191,4.2002,4.8594
			c-0.0801,3.2803-1.2998,4.9199-3.6602,4.9199l-0.96,3.96c3.1201,0,4.7197,1.7207,4.7998,5.1602
			c0.04,3.4404-1.3799,5.1602-4.2598,5.1602h-4.4395v1.6797H335.5c3,0,4.5391,1.7402,4.6201,5.2207
			c0.0791,3.5195-1.2803,5.2002-4.0801,5.04c0.7598,0.7197,1.9395,1.7598,3.54,3.1191c0.96-5.1592,1.3799-10.3799,1.2598-15.6592
			V18.3994c0.0391-2.959,1.6396-4.5986,4.7998-4.9199c6.96-0.3994,12.0801-0.8398,15.3604-1.3193
			c3.5195-0.4805,5.54,1.2207,6.0596,5.0996c0.4805,3.8799-0.96,6.0596-4.3193,6.54c-1.7998,0.2803-4.8809,0.4805-9.2402,0.5996
			c-0.5205,0.041-0.9209,0.0605-1.2002,0.0605v4.5H364.96z M326.2002,28.4199l0.8398-3.7197h-3l0.7803,3.7793L326.2002,28.4199z"/>
		<path class="st0" d="M377.9199,30.3994c-3.5205,0-5.2803-1.7998-5.2803-5.3994c0-3.6396,1.7402-5.46,5.2207-5.46h7.6797
			c0.0391-0.3994,0.1201-0.9395,0.2402-1.6201c0.0391-0.8799,0.0986-1.5,0.1797-1.8604c0.2402-3,2.2197-4.4395,5.9404-4.3193
			c3.9189,0.2002,5.6592,1.9199,5.2197,5.1592c-0.1602,1.1211-0.2803,1.8809-0.3604,2.2803h23.2207
			c3.7197,0,5.5791,1.8809,5.5791,5.6396c0,3.6006-1.8203,5.4004-5.46,5.4004l-25.2598-0.0596
			c-2.9609,13.0801-6.1201,24.0205-9.4795,32.8193c-1.041,2.6406-2.8604,3.9805-5.46,4.0205
			c-1.1211-0.04-2.2207-0.3213-3.3008-0.8398c-1.6406-0.8008-2.6992-1.8604-3.1797-3.1807c-0.5205-1.3994-0.3809-3,0.4199-4.7998
			c4.1602-9.6797,7.3398-18.9395,9.54-27.7803H377.9199z M390.2803,56.7402c0-3.2803,1.5596-6.1201,4.6797-8.5205
			c1.2002-0.8398,2.4199-1.5801,3.6602-2.2197c2.2803-1.1191,4.1797-0.8398,5.7002,0.8398
			c2.1602,2.5605,2.0996,4.4805-0.1807,5.7598c-1.1201,0.7197-2.0605,1.4609-2.8193,2.2197
			C405,55.2607,407.8994,55.5,410.0195,55.54c2.7998,0.1201,6.5605-0.2998,11.2803-1.2598c3.8799-0.7998,5.9199,1.04,6.1201,5.5195
			c0.0391,3.5195-1.4395,5.5195-4.4395,6c-3.5205,0.5195-7.8213,0.8594-12.9004,1.0195c-3.5605,0.04-7.3408-0.2998-11.3398-1.0195
			C393.0996,64.7588,390.2803,61.7402,390.2803,56.7402z M408.4004,49.8398c-1.3604-2.5996-0.96-4.4189,1.1992-5.46l3.96-1.9805
			c-2.2002-0.1191-3.8604-0.1592-4.9795-0.1191c-2.7207,0.2002-5.3008,0.4795-7.7402,0.8398c-0.2002,0.04-0.5205,0.0596-0.96,0.0596
			c-3.6807,0-5.5195-1.8994-5.5195-5.7002c0-3.1992,1.7393-4.9795,5.2197-5.3398c2.6797-0.2793,5.499-0.3994,8.46-0.3594
			c3.0391,0,5.5996,0.1406,7.6797,0.4199c6.96,0.9199,10.4404,3.6807,10.4404,8.2793c0,2.4404-1.2002,4.6201-3.6006,6.54
			c-2.4805,2.001-4.9404,3.5605-7.3799,4.6807C412.0195,53.1396,409.7598,52.5205,408.4004,49.8398z"/>
		<path class="st0" d="M433.1201,55.4199c-1.1201-1.04-1.6797-2.2803-1.6797-3.7197c0-0.9199,0.2588-1.8008,0.7793-2.6406
			c5.1201-8.2393,8.46-14.7598,10.0205-19.5596H437.5c-3.5205,0-5.2803-1.6807-5.2803-5.04c0-3.4395,1.7793-5.1602,5.3398-5.1602
			h7.3809c0.3193-1.5195,0.5596-2.7393,0.7197-3.6602c0.4395-2.8398,2.2998-4.2598,5.5801-4.2598
			c0.6797,0,1.2988,0.0801,1.8594,0.2402c2.2803,0.7598,3.4199,2.2402,3.4199,4.4395c0,0.2803-0.04,0.7002-0.1191,1.2598
			c-0.1201,0.4414-0.2607,1.0605-0.4199,1.8604h3.96c3.6387,0,5.46,1.7402,5.46,5.2197c0,3.4004-1.8008,5.1006-5.4004,5.1006h-6.54
			c-2.2803,8.2002-6.0205,16.4395-11.2197,24.7197C441,56.1006,439.3398,57.04,437.2598,57.04
			C435.7002,57.04,434.3203,56.5,433.1201,55.4199z M451.5996,65.1396c-4.1992-1.9199-6.2998-5.1797-6.2998-9.7803
			c0-6.7197,3.7402-10.6396,11.2197-11.7598c1.5605-0.2402,3.2803-0.3594,5.1602-0.3594c1.3203,0,2.7803,0.0996,4.3799,0.2998v-3
			v-3.8398c0-2.4004,1.1797-3.96,3.54-4.6807c0.4805-0.1992,1.0996-0.2998,1.8604-0.2998c0.7598,0,1.3994,0.1006,1.9199,0.2998
			c2.4395,0.7207,3.6602,2.1807,3.6602,4.3799v4.8604v6c0.6797,0.4004,1.4795,0.7607,2.4004,1.0801
			c2.3994,1.041,4.2393,1.9004,5.5195,2.5801c2,1.0801,3,2.6201,3,4.6201c0,3.7197-1.7803,5.5801-5.3398,5.5801
			c-0.96,0-1.9004-0.2793-2.8203-0.8398c-0.3203-0.1602-1.3604-0.7207-3.1201-1.6807c-0.6807,3.5605-2.7598,5.9795-6.2393,7.2598
			c-2.6006,0.96-5.4404,1.4404-8.5205,1.4404C458.04,67.2998,454.5996,66.5801,451.5996,65.1396z M457.5996,53.8594
			c-1.8398,0.5615-1.8594,1.3604-0.0596,2.4004c1.2393,0.8008,2.6797,1.2002,4.3203,1.2002c1.8389,0,3.0791-0.2793,3.7197-0.8398
			c0.2402-0.2402,0.3994-1.1406,0.4795-2.7002c-1.3193-0.3994-2.7803-0.6006-4.3799-0.6006S458.7197,53.5,457.5996,53.8594z
			 M488.3203,29.3193c0,0.4805-0.1201,1.1211-0.3604,1.9209c-0.96,2.2793-2.5801,3.4199-4.8604,3.4199
			c-0.8799,0-1.8398-0.2598-2.8799-0.7803c-2.9199-1.7197-6.2197-3.3604-9.8994-4.9199c-2.0811-0.7998-3.1201-2.2598-3.1201-4.3799
			c0-3.5195,1.7793-5.2803,5.3398-5.2803c0.7197,0,1.5,0.1602,2.3398,0.4805c3.7197,1.5596,7.2998,3.2803,10.7402,5.1592
			C487.4199,25.9404,488.3203,27.3994,488.3203,29.3193z"/>
		<path class="st0" d="M497.3203,53.0195c-0.041-0.1992-0.0605-0.4795-0.0605-0.8398c0-2.4395,1.2393-4.1191,3.7207-5.04
			c0.8789-0.2402,1.5791-0.3594,2.0996-0.3594c3.0801,0,4.8389,1.5996,5.2803,4.7998c0.3594,3.0801,2.8799,5.0996,7.5596,6.0596
			c2.8398,0.6006,5.7998,0.54,8.8799-0.1797c4.2002-0.96,6.3994-3.1396,6.6006-6.54c0.2393-3.7197-1.5-6.0195-5.2207-6.9004
			c-1.7998-0.3594-3.04-0.54-3.7197-0.54c-0.5205,0-1.2998,0-2.3398,0c-1.041,0.041-1.8203,0.0605-2.3398,0.0605
			c-1.8408,0.0801-3.2402,0.0996-4.2002,0.0596c-3.6807,0-5.5205-1.8994-5.5205-5.7002c0-3.4395,1.7402-5.1992,5.2207-5.2793
			c1.2393,0,2.1602-0.0195,2.7598-0.0605c2.6396,0,5.3789-0.0596,8.2197-0.1797c4.8398-0.2002,7.0801-2.2598,6.7207-6.1797
			c-0.2402-2.3604-2.0811-3.8799-5.5205-4.5605c-1.1602-0.2402-2.4004-0.3594-3.7197-0.3594
			c-6.3604,0-10.0605,1.5801-11.1006,4.7393c-0.8799,2.5605-2.7803,3.8398-5.6992,3.8398c-0.8008,0-1.4609-0.0986-1.9805-0.2998
			c-2.4004-0.7197-3.5996-2.2393-3.5996-4.5596c0-0.7598,0.1396-1.5195,0.4199-2.2803c1.7598-4.5195,4.8389-7.7402,9.2393-9.6602
			c3.3203-1.4795,7.5996-2.2393,12.8408-2.2793c2.7598,0,5.3193,0.2803,7.6797,0.8398c8.4395,2.0801,12.7197,7.04,12.8398,14.8799
			c0.0391,6.04-2.3398,10-7.1396,11.8799c2.4795,0.6807,4.459,2.3203,5.9395,4.9199c1.2803,2.4004,1.8799,4.96,1.8008,7.6797
			C542.5801,63.0996,535,69.2197,520.2402,69.3398h-0.3604C506.3203,69.3398,498.7998,63.8994,497.3203,53.0195z"/>
		<path class="st0" d="M551.0195,30.5195c1.5996-3.2393,3.7803-4.2393,6.54-3c2.7998,1.3203,5.1201,2.5801,6.96,3.7803
			c2.7197,1.8809,3.0996,4.5,1.1406,7.8604c-2.001,3.3594-4.4805,4.0801-7.4404,2.1592c-0.8398-0.4795-2.6602-1.5391-5.46-3.1797
			c-1.7197-0.96-2.5605-2.4395-2.5195-4.4395C550.1992,32.6602,550.459,31.5996,551.0195,30.5195z M557.7402,47.2002
			c1.0391-3.2793,3.2998-4.4004,6.7793-3.3604c3.4805,1.0801,4.7803,3.3203,3.9004,6.7197
			c-0.96,3.5605-2.7002,8.6807-5.2197,15.3604c-0.8008,2.04-2.3398,3.0791-4.6201,3.1201c-2.0801-0.041-3.8008-0.8008-5.1602-2.2803
			c-1.4805-1.6797-1.7607-3.5605-0.8398-5.6396C553.8594,58.0801,555.5801,53.4395,557.7402,47.2002z M566.4404,16.3594
			c2.5195,1.9209,2.7598,4.5215,0.7197,7.8008c-2.0801,3.2803-4.4805,3.9404-7.2002,1.9795
			c-0.5605-0.3594-1.4609-0.9795-2.7002-1.8594c-1.3193-0.8408-2.2402-1.4404-2.7598-1.8008
			c-2.6396-1.6396-3.0596-4.0801-1.2598-7.3193c1.7998-3.2402,4.0195-4.1797,6.6602-2.8203
			C562.7803,13.9404,564.96,15.2803,566.4404,16.3594z M587.9199,10.4199c1.8799,0.1201,3.3604,0.6201,4.4404,1.5
			c1.2793,1.2002,1.5791,2.8408,0.8994,4.9199l-0.1797,0.5996h9.54c3.3193,0,4.9795,1.7607,4.9795,5.2803v40.0205
			c0,3.5186-1.6602,5.2793-4.9795,5.2793h-28.4404c-1.4004,0-2.5801-0.5205-3.54-1.5596c-1-1-1.5-2.2412-1.5-3.7197l-0.0596-40.0205
			c0-1.4395,0.5-2.7002,1.5-3.7803c0.999-0.999,2.1797-1.5,3.54-1.5H580c0.4395-1.6396,0.7197-2.6787,0.8398-3.1201
			C581.5996,11.5205,583.96,10.2197,587.9199,10.4199z M595.2402,29.4395h-14.1006v7.0801h14.1006V29.4395z M595.2402,55.4795
			v-7.7393h-14.1006v7.7393H595.2402z"/>
		<path class="st0" d="M662.4404,32.1396c3.7197,0,5.5791,1.8809,5.5791,5.6406c-0.0801,3.7598-1.9404,5.6396-5.5791,5.6396
			h-21.1201v9.5996c0,0.9209,0.459,1.3799,1.3799,1.3799c4.959,0.4004,10.1592,0.1406,15.5996-0.7793
			c4.2393-0.7598,6.3994,1.0596,6.4805,5.46c0,3.7588-1.8408,5.8594-5.5205,6.2998c-4.4395,0.4395-8.3604,0.6797-11.7598,0.7197
			c-2.001-0.04-4.3008-0.1201-6.9004-0.2402c-3-0.1602-5.4395-0.8799-7.3193-2.1592c-2.5205-1.5996-3.7803-4.04-3.7803-7.3203
			v-12.96h-12.9004c-3.5605,0-5.3398-1.9199-5.3398-5.7598c0-3.7207,1.7197-5.5801,5.1602-5.5801H629.5v-5.8799h-8.8799
			c-3.7197,0-5.5801-1.8799-5.5801-5.6406c0-3.5596,1.7793-5.3398,5.3398-5.3398l36.6006-0.0596
			c3.5596,0,5.3193,1.7998,5.2793,5.3994c-0.1201,3.7207-1.9004,5.5801-5.3398,5.5801h-15.5996v6.0605L662.4404,32.1396z"/>
		<path class="st0" d="M676.6602,42.5195c-4.041,0-6.0605-1.9795-6.0605-5.9395c0-3.9199,2.0195-5.8799,6.0605-5.8799h44.7002
			c3.96,0,5.9395,1.96,5.9395,5.8799c0,3.96-1.96,5.9395-5.8799,5.9395h-15.5996c-0.2012,6.0811-1.6602,11.1602-4.3799,15.2402
			c-3.6406,5.3594-9.3604,8.8594-17.1602,10.5c-0.7207,0.1201-1.3799,0.1797-1.9805,0.1797c-2.6396,0-4.4199-1.2598-5.3398-3.7793
			c-1.6006-4.2803-0.3604-6.9395,3.7197-7.9805c5.4004-1.3594,9.0801-3.5596,11.04-6.5996
			c1.1602-1.8398,1.7793-4.3594,1.8604-7.5605H676.6602z M682.4805,14.0195h26.3398c1.0391,0,1.999,0.2012,2.8799,0.6006
			c-0.1602-1.4004,0.5195-2.4199,2.04-3.0605c2.2393-0.8789,3.8193-0.2998,4.7402,1.7402c1.3594,2.9609,2.2988,5.3203,2.8193,7.0801
			c0.4805,1.7607-0.0801,2.9805-1.6797,3.6602c-2.4805,1-4.1201,0.4199-4.9199-1.7402c-0.2803-0.6396-0.4199-0.999-0.4199-1.0801
			c-0.6406,2.8008-2.4805,4.2002-5.5205,4.2002h-26.2793c-3.9609,0-5.9404-1.9395-5.9404-5.8203
			C676.54,15.8799,678.5195,14.0195,682.4805,14.0195z M722.5,10.5996c0.4805-0.1992,0.9795-0.2998,1.5-0.2998
			c0.5596,0,1.0801,0.1602,1.5596,0.4805c0.4805,0.3594,0.8799,0.8799,1.2002,1.5596c1.2393,2.7998,2.1201,4.9404,2.6406,6.4199
			c0.0791,0.3604,0.1396,0.6807,0.1797,0.96c-0.04,1.3203-0.7002,2.2803-1.9805,2.8799c-2.1201,1.0801-3.5801,0.501-4.3799-1.7402
			c-1.2803-3.3193-2.1602-5.5391-2.6396-6.6592C719.8604,12.6797,720.499,11.4805,722.5,10.5996z"/>
		<path class="st0" d="M743.6201,63.6396c-0.8398,1.6797-2.2197,2.7598-4.1396,3.2402c-1.8408,0.3994-3.54,0.1592-5.1006-0.7197
			c-2.2803-1.2812-3.4199-2.9209-3.4199-4.9199c0-1.04,0.3193-2.1201,0.96-3.2402c2.8398-5.04,4.7002-10.6201,5.5801-16.7402
			c0.4395-3.2793,0.7393-9.1396,0.9004-17.5801v-5.3398c0-3.4805,2.1191-5.2197,6.3594-5.2197c3.9199,0,5.8799,1.7197,5.8799,5.1602
			V24.04c0,8.2793-0.2607,14.4404-0.7793,18.4795C748.8594,49.96,746.7793,57,743.6201,63.6396z M784.6602,31.2998
			c2.8799,0.7607,4.3398,2.5195,4.3799,5.2803c-0.04,0.4404-0.0811,0.8604-0.1201,1.2598
			c-1.2402,7.1201-3.8203,13.1807-7.7402,18.1797c-4.5996,5.8008-10.5996,9.5801-18,11.3398c-1.0801,0.2402-2.0801,0.3604-3,0.3604
			c-4.0801,0-6.1201-2.0605-6.1201-6.1797v-44.46c0-3.4404,2.0801-5.1602,6.2402-5.1602c3.96,0,5.9404,1.6602,5.9404,4.9795v36.4805
			c3.0391-1.4795,5.5996-4.0996,7.6797-7.8604c1.6797-3.0791,2.7998-6.4199,3.3604-10.0195
			C777.8398,31.6201,780.2998,30.2197,784.6602,31.2998z"/>
		<path class="st0" d="M830.2598,12.1602c7.0801,0,11.5996,3.7197,13.5605,11.1592c0.5596,2.04,0.8398,4.3203,0.8398,6.8408v0.54
			C844.4199,41.9795,839.2002,47.5801,829,47.5h-20.9404v16.9199c0,2.5195-1.4199,4.1797-4.2598,4.9795
			c-0.8008,0.2002-1.5596,0.3008-2.2803,0.3008c-0.6797,0-1.3799-0.1006-2.0996-0.3008c-2.6807-0.7197-4.0195-2.2998-4.0195-4.7393
			l0.1191-44.46c0-5.3193,2.6602-7.9805,7.9805-7.9805l26.7002-0.0596H830.2598z M825.7002,36.2803
			c4.0801,0,6.1201-2.2402,6.1201-6.7207c0-4.1592-1.9609-6.2402-5.8799-6.2402L808,23.2598l-0.0596,13.0801L825.7002,36.2803z"/>
		<path class="st0" d="M896.9199,68.1396h-30.8398c-5.3604,0-8.04-2.7803-8.04-8.3398V16c0-2.6797,1.3799-4.4404,4.1396-5.2803
			c0.6006-0.1992,1.3594-0.2998,2.2803-0.2998c0.8799,0,1.6201,0.1006,2.2197,0.2998c2.7607,0.8398,4.1406,2.5605,4.1406,5.1602
			v40.0195H897.04c2.7598,0,4.5801,1.3203,5.46,3.96c0.1992,0.7607,0.2998,1.4805,0.2998,2.1602
			c0,0.7207-0.1201,1.4404-0.3594,2.1602C901.5996,66.8193,899.7598,68.1396,896.9199,68.1396z"/>
		<path class="st0" d="M965.9199,62.2002c0.2402,0.5996,0.3604,1.1787,0.3604,1.7393c0,2.4004-1.4805,4.0996-4.4404,5.1006
			c-0.8008,0.2402-1.6006,0.3594-2.3994,0.3594c-2.5605,0-4.2207-1.0596-4.9805-3.1797l-3.2998-9.0596h-22.0205l-3.3594,8.8799
			c-0.8398,2.1992-2.541,3.2998-5.1006,3.2998c-0.8398,0-1.6201-0.1201-2.3398-0.3604c-2.8799-0.9199-4.3203-2.5801-4.3203-4.9795
			c0-0.6406,0.1201-1.2197,0.3604-1.7402l19.3203-47.2803c1.1592-2.9189,3.4795-4.3799,6.96-4.3799c3.3994,0,5.6797,1.5,6.8398,4.5
			L965.9199,62.2002z M933.46,46.1201h13.7402L940.1797,27.46L933.46,46.1201z"/>
		<path class="st0" d="M988.54,35.0195l0.0596,29.04c0,2.5205-1.3799,4.2197-4.1396,5.1006
			c-0.5996,0.1992-1.3604,0.2998-2.2803,0.2998s-1.6797-0.1006-2.2793-0.2998c-2.7607-0.8809-4.1406-2.5801-4.1406-5.1006V17.9795
			c0-4.3193,2.4795-6.4795,7.4404-6.4795c2.4395,0,4.3594,0.9805,5.7598,2.9395l22.2002,30.6602V16.3594
			c0-2.6787,1.3594-4.4395,4.0801-5.2793c0.7197-0.2402,1.459-0.3604,2.2197-0.3604c0.8398,0,1.6201,0.1201,2.3398,0.3604
			c2.8799,0.9199,4.3203,2.7402,4.3203,5.46v45.1201c0,4.5986-2.3809,6.8994-7.1396,6.8994c-2.8809,0-5.1211-1.1602-6.7207-3.4795
			L988.54,35.0195z"/>
	</g>
</g>
</svg>
