<?xml version="1.0" encoding="utf-8"?>
<!-- Generator: Adobe Illustrator 25.2.1, SVG Export Plug-In . SVG Version: 6.00 Build 0)  -->
<svg version="1.1" id="レイヤー_1" xmlns="http://www.w3.org/2000/svg" xmlns:xlink="http://www.w3.org/1999/xlink" x="0px"
	 y="0px" viewBox="0 0 1040 80" style="enable-background:new 0 0 1040 80;" xml:space="preserve">
<style type="text/css">
	.st0{fill:#1E1E28;}
</style>
<g>
	<g>
		<path class="st0" d="M16.0596,36.2197c-2.6006-1.5596-4.4395-3.9004-5.5195-7.0195c-0.1602-0.3203-0.2207-0.6006-0.1797-0.8408
			v-0.0596c-0.041,0-0.041-0.0195,0-0.0596c-0.041,0-0.041-0.0205,0-0.0605c-0.041,0-0.041-0.0195,0-0.0596
			c0-0.04,0.0195-0.0996,0.0596-0.1807c0.0391-0.0791,0.1201-0.1592,0.2402-0.2393c0.1992-0.0801,0.5596-0.0605,1.0801,0.0596
			c1.2002,0.2803,2.8398,0.5205,4.9199,0.7197c1.7998,0.2803,3.0391,0.3604,3.7197,0.2402
			c2.4395-0.1201,4.5996,1.2598,6.4805,4.1396c2.7598,4.2812,1.5596,6.1201-3.6006,5.5205
			C20.0195,37.9805,17.6201,37.2607,16.0596,36.2197z M16.7197,66.9395c-2.7598-2.7998-4-5.0596-3.7197-6.7793
			c0.1992-2,0.1201-3.5596-0.2402-4.6807c-0.5205-1.6396-0.0996-2.1992,1.2598-1.6797c1.6406,0.7607,2.5,1.0801,2.5801,0.96
			c2.7998-3.4795,6.1807-8.6191,10.1406-15.4199c0.9199-1.6797,1.3799-1.5801,1.3799,0.2998
			c0.0391,2.7207-0.501,6.1406-1.6201,10.2598c-0.6406,2.2012-1.7402,5.5605-3.2998,10.0801c-0.4004,0.96-0.6211,1.7803-0.6602,2.46
			c0.4795-0.0791,1.7402-0.1592,3.7803-0.2393c1.3594-0.04,3.1797-0.2002,5.46-0.4805c-0.4404-1.4395-0.7412-3.0996-0.9004-4.9795
			c-0.0801-0.4805-0.2998-3.5-0.6602-9.0605c-0.0801-0.7998-0.5996-1.6396-1.5596-2.5195c-2.04-1.7197-1.0605-2.1201,2.9395-1.2002
			c0.8408-0.0391,2.2207-0.2002,4.1406-0.4805c2.8398-0.3193,4.6592-0.54,5.46-0.6602c5.0791-0.5596,9.6191-0.7988,13.6201-0.7197
			c0.8789,0,1.6201-0.2598,2.2197-0.7803c1.3203-1.0791,3.3799-0.3193,6.1797,2.2803c1.4004,1.4004,2.1201,2.6611,2.1602,3.7803
			c0,0.7598-0.2002,1.2598-0.5996,1.5c-0.8008,0.5205-1.3203,1.4609-1.5605,2.8203c-0.7197,3.6807-1.2998,6.46-1.7393,8.3398
			c0.7197-0.4805,2.6191,0.0801,5.6992,1.6797c1.8008,0.96,2.7197,2.2197,2.7607,3.7803c-0.041,1.3193-0.5205,2.2197-1.4404,2.7002
			c-1.2402,0.5596-2.9199,0.6387-5.04,0.2393c-4.2803-0.8799-6.8398-1.3604-7.6797-1.4395
			c-5.8008-0.6006-11.3008-0.5801-16.5,0.0596c-1.2812,0.1201-3.6602,0.5596-7.1406,1.3203
			c-1.3604,0.2793-2.1396,0.4199-2.3398,0.4199c-1,0-2.54-0.7402-4.6201-2.2197c-1.4004-1.001-2.3398-1.7998-2.8193-2.4004
			c-0.041,0.0391-0.0605,0.2598-0.0605,0.6602c-0.04,0.2793-0.0801,0.54-0.1201,0.7803c-0.3203,1.1592-0.8994,1.9795-1.7393,2.46
			C19.2793,68.6797,18.04,68.2988,16.7197,66.9395z M30.0996,18.7002c0.9199,1.8799,0.8408,3.2598-0.2393,4.1396
			c-0.9209,0.7607-2.2002,1.041-3.8408,0.8398C23.46,23.4004,21,22.0205,18.6396,19.54c-1.9199-1.8799-3.2607-3.54-4.0195-4.9805
			C14.0195,13.5205,14.3203,13,15.5195,13c3.3604,0,5.8809,0.1406,7.5605,0.4199C26.2002,13.8994,28.54,15.6602,30.0996,18.7002z
			 M31.7197,16.8994c-3.2393-2.0791-2.2402-2.5801,3-1.5c0.6797-0.0391,1.7002-0.1592,3.0605-0.3594
			c1.8799-0.2002,3.1396-0.3398,3.7793-0.4199c3.4805-0.3994,7-0.7207,10.5605-0.96c0.8789-0.04,1.6201-0.2402,2.2197-0.6006
			c0.3994-0.2402,0.8193-0.3799,1.2598-0.4199c0.7598,0.04,2.0801,0.6807,3.96,1.9199c3.6396,2.5605,4.6807,4.4404,3.1201,5.6406
			C61.9199,20.7998,61.54,21.5801,61.54,22.54c-0.1201,2.4404-0.2607,4.7197-0.4199,6.8398
			c-0.0811,0.7598-0.1797,1.9199-0.2998,3.4795c-0.2402,2.5205-0.9805,4.2412-2.2207,5.1602c-1.96,1.5605-3.8799,1.5605-5.7598,0
			c-2.4404-0.2793-4.96-0.3193-7.5596-0.1201c-0.6006,0.041-1.8809,0.2012-3.8398,0.4805c-1.041,0.1602-1.7607,0.1797-2.1602,0.0596
			c-1.2812,1.6406-2.7812,1.4014-4.5-0.7197c-0.96-1.1191-1.4609-2.9795-1.5-5.5801c-0.041-1.0801-0.1006-3.0596-0.1807-5.9395
			c-0.1602-3.5195-0.2393-5.7402-0.2393-6.6602C32.8604,18.2598,32.4795,17.3799,31.7197,16.8994z M36.7598,49.6602
			c0,0.5605,0.04,1.3604,0.1201,2.3994C37,53.7402,37.0801,54.7207,37.1201,55c0.1201,2.6006,0.1797,4.6406,0.1797,6.1201
			c1.3203-0.1201,2.3604-0.2197,3.1201-0.3008c-0.4004-1.2393-0.8008-5.0596-1.2002-11.46c0-0.3994-0.04-0.8398-0.1201-1.3193
			c-0.1602,0-0.3594,0.04-0.5996,0.1201c-0.8799,0.2393-1.6602,0.2607-2.3398,0.0596
			C36.4795,48.5801,36.6797,49.0596,36.7598,49.6602z M40.1797,19.2998c-0.3203,0-0.7002-0.0596-1.1396-0.1797
			c0.1201,0.2002,0.1797,0.4404,0.1797,0.7197v3.7197c1.9199-0.1592,4.9805-0.54,9.1807-1.1396
			c0.3594-0.0391,0.7197-0.1396,1.0801-0.2998C49.7197,22.04,50.0596,21.96,50.5,21.8799c0.5195-0.0391,1.5,0.1797,2.9404,0.6602
			c0.0391-2.4395,0.0986-4.0801,0.1797-4.9199c-2.1602,0.1602-4.8408,0.46-8.04,0.8994
			C43.0195,18.8799,41.2197,19.1406,40.1797,19.2998z M39.2197,33.1602c5.4395-0.7207,10.0596-0.9805,13.8604-0.7803
			c0.0801-0.9199,0.1592-2.5205,0.2402-4.7998c-1.2402,0.2002-4.5811,0.5205-10.0205,0.96
			c-1.2803,0.1602-2.6396-0.1201-4.0801-0.8398V33.1602z M47.4404,47.0195c-0.9209,0.0811-2.1211,0.1807-3.6006,0.2998
			c0.5596,0.4004,0.9004,0.9609,1.0205,1.6807c0.1992,3.3594,0.1992,7.2002,0,11.5195c0.2793,0,0.6992-0.0195,1.2598-0.0596
			c0.5195,0,0.9199,0,1.2002,0c-0.1201-1.2393-0.1201-3.0605,0-5.46c0.0791-3.8799,0.1396-6.04,0.1797-6.4805
			C47.5,47.8809,47.4795,47.3799,47.4404,47.0195z M56.1396,46.96c-1.3604-0.0801-2.46-0.1201-3.2998-0.1201
			c0.6006,0.6406,0.8398,1.5811,0.7197,2.8203c-0.7598,6.04-1.3398,9.6396-1.7393,10.7998c1.1992,0,2.0996,0.0205,2.6992,0.0596
			C55.4395,53.4004,55.9795,48.8799,56.1396,46.96z"/>
		<path class="st0" d="M122.7998,66.6396c-3.6807-0.1602-5.9004-0.3398-6.6602-0.54c-1.2402-0.3203-2.4404-1.2598-3.5996-2.8193
			c-0.8799-1.0801-2.0996-2.7607-3.6602-5.04c-2.2402-3.0801-4.0605-5.6006-5.46-7.5605c0.0391,3.96,0.0391,7.1396,0,9.54
			c-0.0801,4.0801-0.8398,6.9395-2.2803,8.5801c-0.8398,0.9199-1.7803,1.3799-2.8193,1.3799c-1.5605,0-2.7402-1-3.54-3
			c-0.4805-1.1201-1.0801-2.001-1.7998-2.6396c-0.1611-0.1201-0.4004-0.2998-0.7207-0.54
			c-0.4404-0.3604-0.7402-0.6006-0.8994-0.7197c-0.8809-0.6797-1.7402-1.4404-2.5801-2.2803
			c-1.7207-1.4404-1.5605-2.0195,0.4795-1.7402c1.7598,0.2803,3.4395,0.3604,5.04,0.2402c0.6797-0.04,1.04-0.4199,1.0801-1.1406
			C95.5,55,95.5596,51.46,95.5596,47.7402c-0.2393,0.2393-0.5195,0.4199-0.8398,0.54c-0.4004,0.1191-1.2803,1.04-2.6396,2.7598
			c-3.5605,4.4395-5.6201,6.8994-6.1797,7.3799c-4.4014,3.9209-9.2207,5.6191-14.46,5.0996c-0.6807-0.04-1.001-0.2002-0.96-0.4795
			c-0.041-0.2402,0.2393-0.4805,0.8398-0.7207c1.999-0.8398,4.4189-2.5195,7.2598-5.0391c3.2402-2.8809,5.5596-5.7607,6.96-8.6406
			c-0.8799,0.3203-1.6797,0.5801-2.4004,0.7803c-1.0801,0.3604-2.7803,0.0596-5.0996-0.9004
			c-2.5605-0.999-3.54-1.9395-2.9404-2.8193c0.0801-0.1602,0.3398-0.2402,0.7803-0.2402c0.7197,0.0801,1.2803,0.1006,1.6797,0.0596
			c1.4795-0.1201,4.2002-0.6387,8.1602-1.5596c1.0801-0.2793,1.7998-0.6201,2.1602-1.0205
			c0.7197-0.8789,2.4795-0.5791,5.2803,0.9004c1.1191,0.5996,1.8994,1.2598,2.3398,1.9795c0-1.7998-0.0205-3.1797-0.0596-4.1396
			c0-0.5596-0.2207-1.0996-0.6602-1.6201c-0.5605,0.0811-0.96,0.1201-1.2002,0.1201c-1.1201,0.1602-2.2002,0.1201-3.2402-0.1201
			c-1.5596,1.001-3,0.9004-4.3203-0.2998c-1.5205-1.2793-2.3604-2.6191-2.5195-4.0195c-0.4805-3.9199-0.8203-6.8408-1.0195-8.7607
			c-0.2012-1.6396-0.8613-2.8193-1.9805-3.54c-3.3604-2.0791-1.8398-2.5195,4.5596-1.3193c0.1201,0,1.7803-0.2197,4.9805-0.6602
			c1.2793-1.8398,2.8203-4.2002,4.6201-7.0801c0.3594-0.6797,0.1592-1.2998-0.6006-1.8604
			c-1.0791-0.7588-0.6396-1.2988,1.3203-1.6201c1.2393-0.1592,2.0195-0.2393,2.3398-0.2393c1.0801,0,2.96,0.8604,5.6406,2.5801
			c2.5195,1.6406,2.4395,3-0.2402,4.0791c-1.2402,0.5615-2.2412,1.0605-3,1.5c-1.4004,0.8408-2.3809,1.4209-2.9404,1.7402
			c3.7998-0.3193,7.3799-0.5195,10.7402-0.5996c0.8799,0,1.5605-0.2402,2.04-0.7197c0.6396-0.6396,2.5801-0.0801,5.8203,1.6797
			c4.2002,2.4805,5.1191,4.3799,2.7598,5.7002c-0.5996,0.3594-1,1.04-1.2002,2.04c-0.2803,1.2803-0.9805,3.7402-2.0996,7.3799
			c-0.6006,1.4805-1.3799,2.5605-2.3398,3.2402c-1.3604,0.8398-2.6211,1-3.7803,0.4795c-2.6006-0.0801-5.0605-0.0996-7.3799-0.0596
			c1.3594,1.1602,1.959,2.2402,1.7998,3.2393c-0.04,0.2402-0.0596,0.5205-0.0596,0.8408c-0.041,0.3994-0.0605,0.7002-0.0605,0.8994
			c1.2793,0.9209,2.6191,1.9404,4.0205,3.0605c1.1992-0.8799,2.5391-1.9209,4.0195-3.1201c0.4395-0.3604,1.04-0.8604,1.7998-1.5
			c0.7998-0.6797,1.3594-1.1602,1.6807-1.4404c0.4395-0.3604,0.4199-0.9795-0.0605-1.8604c-0.6807-1.1191-0.1006-1.5,1.7402-1.1396
			c1.6396,0.4004,2.7598,0.8398,3.3604,1.3203c0.5596,0.5996,1.5596,2.1201,3,4.5596c1.2793,2.3203,0.5391,3.4805-2.2207,3.4805
			c-1.4805,0-2.46,0.0596-2.9395,0.1797c-2.4004,0.5996-5.04,1.1611-7.9199,1.6797c3.2393,2.7607,6.5596,5.2607,9.96,7.5
			c4.1992,2.8809,6.6592,4.5811,7.3799,5.1006c1.6797,1.2393,2.5391,2.1992,2.5801,2.8799
			c-0.041,0.0391-0.0605,0.0996-0.0605,0.1797c-0.04,0.04-0.0596,0.0996-0.0596,0.1807c-0.0811,0.0791-0.2012,0.1797-0.3604,0.2998
			c-0.2803,0.1592-0.7197,0.2998-1.3203,0.4199C126.8994,66.6191,125.1602,66.6787,122.7998,66.6396z M109.4805,24.2197
			c-6.4414,0-12.3809,0.501-17.8203,1.5c-1.041,0.2012-2.1807,0.2207-3.4199,0.0605c0.3994,0.4795,0.6797,1.3398,0.8398,2.5791
			c0.0391,0.1611,0.0596,0.4004,0.0596,0.7207c3.0801-0.2793,5.2998-0.5,6.6602-0.6602c2.7998-0.2793,4.7998-0.54,6-0.7803
			c0.2793-0.0391,0.6201-0.1396,1.0205-0.2998c0.3193-0.1592,0.5791-0.2598,0.7793-0.2998c1.0801-0.0801,2.8594,0.46,5.3408,1.6201
			C109.2998,26.46,109.4805,24.9805,109.4805,24.2197z M89.7998,36.2197c6.7197-0.7598,12.6992-1.04,17.9404-0.8398l0.7793-3.9004
			c-0.5195,0.3213-1.6797,0.54-3.4795,0.6602c-0.96,0.1201-2.9609,0.2998-6,0.54c-2.6807,0.2402-4.3008,0.3809-4.8604,0.4199
			c-1.4805,0.1201-3.0596-0.1592-4.7393-0.8398C89.5596,34.0205,89.6797,35.3408,89.7998,36.2197z"/>
		<path class="st0" d="M189.2803,60.3398c0.6387,0.0811,0.96,0.3809,0.96,0.9004c0,0.3594-0.1006,0.6807-0.2998,0.96
			c-1.5605,2.1191-4.4014,4.0996-8.5205,5.9395c-0.8008,0.3203-1.5205,0.5596-2.1602,0.7197
			c-0.7197,0.1602-1.46,0.2598-2.2197,0.3008c-1.1611-0.041-2.6611-0.2402-4.5-0.6006c-3.9209-0.7598-8.8203-1.9404-14.7002-3.54
			c-4.1602-1.1602-7.8398-1.6602-11.04-1.5c-2.6797,0.2402-4.3193,0.5801-4.9199,1.0205c-1.5205,1.0391-3.8008,0.3994-6.8398-1.9199
			c-2.6396-1.9199-3.8799-3.6797-3.7197-5.2803c0.0791-1.0801,0.7998-1.2998,2.1602-0.6602c0.7197,0.4004,1.5596,0.54,2.5195,0.4199
			c1.5596-0.0791,2.54-0.2793,2.9404-0.5996c0.4795-0.3604,1.3389-1.3203,2.5791-2.8799c0.7598-1.04,0.6602-2.0801-0.2998-3.1201
			c-0.96-0.9199-1.2402-2.7598-0.8398-5.5205c0.0391-0.3994,0.54-2.499,1.5-6.2998c-1.2402,0.6807-2.1807,1.3799-2.8203,2.1006
			c-0.7598,0.7598-1.4795,0.9395-2.1592,0.5391c-3.4004-1.7588-5.1406-3.6992-5.2207-5.8193
			c-0.0801-2.1602,0.7598-2.6406,2.5205-1.4404c0.7998,0.5605,2.5195,0.2998,5.1602-0.7793c2.6396-1.04,4.0996-1.8799,4.3799-2.5205
			c0.5996-1.5195,2.3193-1.1797,5.1602,1.0205c2.5586,2.1201,2.8799,3.7402,0.96,4.8594c-0.7207,0.4004-1.1807,0.9004-1.3799,1.5
			c-0.8008,1.6797-1.541,3.6807-2.2207,6c-0.4404,1.4004,0.2197,3.04,1.9805,4.9199c1.5596,1.7998,1.2598,3.8398-0.9004,6.1201
			c-1.1602,1.1611-2.0801,2.04-2.7598,2.6396c2.2393-0.0791,6.0596,0.2012,11.46,0.8408c6.3994,0.8398,10.3994,1.2998,12,1.3799
			c5.1992,0.2803,10.04,0.3809,14.5195,0.2998C186.4395,60.3008,188.6797,60.3008,189.2803,60.3398z M135.3398,11.9795
			c1.1602,0.7207,3.0195,1.2207,5.5801,1.5c3.2002,0.4004,5.2402,1.1211,6.1201,2.1602c1.2793,1.7607,1.959,3.2607,2.04,4.5
			c0.0391,3-1.7607,4.1201-5.4004,3.3604c-6.2803-1.2803-9.5801-4.8398-9.8994-10.6807
			C133.6992,11.5801,134.2197,11.2998,135.3398,11.9795z M154.0596,34.54c1.04-2.1992,2.1201-5.3799,3.2402-9.54
			c0.7998-2.96,1.54-6.1807,2.2197-9.6602c0.1201-0.8398-0.0801-1.5391-0.5996-2.0996c-1-1-0.7197-1.6602,0.8398-1.9805
			c0.5195-0.0801,0.9795-0.1396,1.3799-0.1797c1,0.04,3.04,1.4199,6.1201,4.1396c0.6797,0.6406,0.5801,1.7803-0.2998,3.4199
			c-0.2803,0.4404-0.5605,1.0205-0.8398,1.7402c-3.5605,9-6.2803,14.7002-8.1602,17.0996
			c3.5195,4.8408,5.7998,8.3008,6.8398,10.3799c0.6396,1.4014,1.0205,2.3613,1.1406,2.8809
			c0.0791,0.7598-0.041,2.0996-0.3604,4.0195c-0.7607,4.6797-2.5,4.8203-5.2197,0.4199c-0.2402-0.3193-1.1211-2.4795-2.6406-6.4795
			c-0.2393-0.5195-0.6807-1.4199-1.3193-2.7002c-1.2402-2.2803-2.0811-3.9004-2.5205-4.8604
			c-0.2402-0.4795-0.501-0.8789-0.7803-1.2002c-0.3203-0.3193-0.5996-0.7588-0.8398-1.3193c-0.4004-0.7998-0.2402-1.8008,0.4805-3
			c0.0791-0.1602,0.2998-0.3008,0.6602-0.4199C153.6797,35.1201,153.8994,34.8994,154.0596,34.54z M170.3203,55.4795
			c-0.3604-0.5596-1.2402-2.7197-2.6406-6.4795c-0.7197-1.6807-1.0596-2.5596-1.0195-2.6406
			c-0.8008-1.5986-1.8203-3.3789-3.0605-5.3398c-0.1191-0.1592-0.4404-0.4395-0.96-0.8398
			c-0.4004-0.2402-0.7002-0.7197-0.8994-1.4395c-0.4004-1.1201-0.2803-2.0801,0.3594-2.8809
			c0.1602-0.2393,0.5605-0.6387,1.2002-1.1992c0.4805-0.4805,0.8193-0.9004,1.0205-1.2607
			c2.0791-4.1592,3.8994-10.0996,5.46-17.8193c0.1201-0.8398-0.0605-1.4795-0.54-1.9199c-1.0801-0.8799-0.7607-1.4199,0.96-1.6201
			c1.1592-0.1592,2.0791-0.0195,2.7598,0.4199c0.2402,0.1602,1.5801,1.3408,4.0205,3.54c0.8398,0.8008,0.9385,1.6797,0.2998,2.6396
			c-0.2402,0.4004-0.4609,0.7803-0.6602,1.1406L176.2598,20.5c-0.2803,0.5996-1.0195,2.2197-2.2197,4.8594
			c-0.96,2.04-1.7002,3.6211-2.2197,4.7402c-1.6807,3.5205-2.9609,5.9609-3.8398,7.3203c3.1191,4.7197,5.2988,8.3203,6.5391,10.7998
			c1.0801,2.3604,1.4199,4.6201,1.0205,6.7803C174.7002,59.7607,172.96,59.9199,170.3203,55.4795z M186.9404,19.4795
			c-0.4004,0.4004-0.7803,0.96-1.1406,1.6807c-0.5205,1.1201-1.2207,2.7207-2.0996,4.7998c-0.96,2.1602-1.6406,3.6807-2.04,4.5596
			c-1.5205,3.3213-2.8408,5.5605-3.96,6.7207c2.1191,2.7197,4.3799,6.2803,6.7803,10.6797
			c1.0791,2.0801,1.3389,4.3799,0.7793,6.8994c-1,4.4805-2.7402,4.6406-5.2197,0.4805c-0.4004-0.6396-1.2803-2.7998-2.6396-6.4805
			c-0.5205-1.1992-0.9209-2.1592-1.2002-2.8799c-0.8809-1.7998-1.9004-3.6191-3.0605-5.46
			c-0.1602-0.1592-0.4004-0.3994-0.7197-0.7197c-0.3203-0.1592-0.6201-0.6201-0.9004-1.3799
			c-0.5605-1.3203-0.3594-2.4199,0.6006-3.2998c0.96-0.6396,1.5391-1.1406,1.7402-1.5c1.0391-2.1201,2.1387-5.1396,3.2998-9.0605
			c0.1992-0.7998,1.0195-3.8398,2.46-9.1201c0.1592-0.5996-0.0811-1.2197-0.7197-1.8594c-1.0801-0.9199-0.7412-1.4795,1.0195-1.6807
			c1.2002-0.1592,2.1797,0,2.9404,0.4805c0.5186,0.4004,1.8994,1.7402,4.1396,4.0195
			C187.999,17.4004,187.9795,18.4404,186.9404,19.4795z"/>
		<path class="st0" d="M212.5596,45.2803c-1.3604,5.9199-3.2598,6.5195-5.6992,1.7998c-1.6006-2.96-2.3809-5.7002-2.3408-8.2207
			c-0.04-1.4785,0.2402-3.2998,0.8408-5.46c0.2393-0.999,0.6191-2.3789,1.1396-4.1396c0.4395-1.6797,0.7803-2.9189,1.0195-3.7197
			c0.7207-2.7197,1.3809-5.2598,1.9805-7.6201c0.5996-2.7197,0.54-4.3994-0.1797-5.04c-2.001-1.5996-1.6006-2.2197,1.1992-1.8604
			c2.2803,0.3604,4,1.9199,5.1602,4.6807c0.5195,1.3604,0.5195,3.54,0,6.54c3.8799-4.7598,7.8799-6.4209,12-4.9805
			c3.2793,1.2002,5.2803,4.4805,6,9.8398c0.3604,2.7598,0.5596,6.04,0.6006,9.8398c-0.041,2.2412-0.1201,4.3408-0.2402,6.3008
			c-0.5996,7.1201-2.0205,12.3994-4.2598,15.8398c-2.9609,4.5596-8.2412,8.0195-15.8398,10.3799
			c-0.7607,0.1992-1.3408,0.3193-1.7402,0.3594c-0.6006-0.04-0.8398-0.2393-0.7197-0.5996c0.0791-0.3604,0.459-0.7803,1.1396-1.2598
			c7.959-6.2002,12.459-15.0801,13.5-26.6406c0.4795-5.8799,0.5-11.3398,0.0596-16.3799c-0.3594-3.6797-1.7197-5.2588-4.0801-4.7393
			c-2.3203,0.5605-4.3604,2.6602-6.1191,6.2998c-1.4014,2.9199-2.3408,6.2402-2.8203,9.96c-0.1201,0.7598-0.2012,2.2598-0.2402,4.5
			C212.8398,43.04,212.7197,44.4805,212.5596,45.2803z"/>
		<path class="st0" d="M288.04,16c13.4404,0.6807,20.1602,8.0996,20.1602,22.2598c0,0.5996-0.0205,1.1807-0.0605,1.7402
			c-0.5195,6.4004-2.2598,11.3799-5.2197,14.9395c-2.04,2.4814-4.7607,4.3408-8.1602,5.5801
			c-2.2002,0.8008-5.0996,1.5605-8.7002,2.2803c-3.8799,0.7197-6.7402,1.0596-8.5791,1.0195c-2.9209,0-3.0215-0.6201-0.3008-1.8594
			c7.8398-3.7598,12.7402-6.3799,14.7002-7.8604c4.96-3.7197,7.6201-8.3994,7.9805-14.04
			c0.3193-5.5596-0.4609-10.0391-2.3408-13.4395c-2.1201-3.8398-5.4395-5.8398-9.96-6c-1.3604-0.04-2.6992,0.0801-4.0195,0.3594
			c1.5195,4.2002,1.5996,8.0811,0.2402,11.6406c-1.7998,4.7607-3.6006,8.8193-5.4004,12.1797
			c-1.7197,3.2402-3.9404,6.7402-6.6602,10.5c-2.2402,3.0811-4.7607,4.3604-7.5596,3.8398
			c-2.001-0.2793-3.4199-1.9395-4.2598-4.9795c-0.6006-2.2002-2.2012-4.0596-4.8008-5.5801
			c-1.8799-1.04-2.7998-2.6201-2.7598-4.7402c-0.04-1.4795,0.4395-3.2793,1.4404-5.4004c0.7588-1.6797,1.8994-3.5791,3.4199-5.6992
			c4.0391-5.6406,8.46-9.8604,13.2598-12.6602C275.7402,17.04,281.5996,15.6797,288.04,16z M279.8203,26.0195
			c0.4795-1.1592,0.5791-2.4395,0.2998-3.8398c-4.2402,1.8809-8.1406,4.96-11.7002,9.2402
			c-3.1201,3.7197-5.6396,7.9404-7.5596,12.6602c-0.5605,1.3193,0.1396,2.8604,2.0996,4.6201c1.3994,1.2402,2.6396,1.2402,3.7197,0
			C271.2402,43.2998,275.6201,35.7402,279.8203,26.0195z"/>
		<path class="st0" d="M311.7402,58.4795c3.999-2.9189,8.0195-6.9189,12.0596-12c-0.1602,0.041-0.4404,0.0811-0.8398,0.1201
			c-0.3203,0.0811-0.5605,0.1406-0.7197,0.1807c-1.6406,0.3203-2.7598,0.6396-3.3604,0.96c-0.6807,0.3994-2.3008-0.0996-4.8604-1.5
			c-2-1.04-3-1.8799-3-2.5205c-0.04-0.3994,0.3799-0.6602,1.2607-0.7803c0.3594-0.0391,0.9189-0.1201,1.6797-0.2393
			c0.96-0.1201,1.7402-0.2197,2.3398-0.3008c2.4004-0.3193,5.4199-0.7588,9.0605-1.3193v-1.7998
			c0-0.9199-0.0811-1.6201-0.2402-2.1006c-2.4004,0.5205-3.7607,0.9004-4.0801,1.1396c-0.7607,0.5205-2.7002-0.0391-5.8203-1.6797
			c-3.1602-1.5596-3.9199-2.5195-2.2793-2.8799c0.4395-0.0391,1.5596-0.1797,3.3594-0.4199c2-0.2002,3.7197-0.3994,5.1602-0.5996
			c-0.5605-0.5605-0.9404-1.4795-1.1396-2.7607c-0.3213-1.4395-0.7607-2.6592-1.3203-3.6602
			c-0.8008-0.1592-1.7803-0.6191-2.9404-1.3799c-3.04-1.7598-3.3203-2.7197-0.8398-2.8799
			c2.4395-0.1592,5.6797-0.5195,9.7207-1.0801c-0.041-0.2793-0.1006-1.2393-0.1807-2.8799
			c-0.0801-0.999-0.1201-1.8389-0.1201-2.5195c-0.0801-0.96-0.3594-1.6807-0.8398-2.1602
			c-1.4004-1.0801-1.4395-1.8799-0.1201-2.4004c0.9199-0.3594,1.8008-0.54,2.6406-0.54c0.4795,0,0.9795,0.0605,1.5,0.1807
			c0.4795,0.1602,0.999,0.3594,1.5596,0.5996c0.7197,0.4004,1.7998,1.1006,3.2402,2.0996c1.1191,0.8408,1.5791,1.6611,1.3799,2.46
			c-0.0811,0.2812-0.2402,0.6211-0.4805,1.0205c-0.2393,0.4404-0.3799,0.7402-0.4199,0.9004l-0.3594,1.9795
			c0.6797-0.0801,1.1787-0.3389,1.5-0.7803c0.4395-0.7197,1.7188-0.6191,3.8398,0.3008c2.3193,1.04,3.0391,2.1201,2.1602,3.2393
			c-0.7207,0.9209-2.1406,1.5605-4.2598,1.9199c2.0391,1.4404,2.5391,2.6406,1.5,3.6006c-0.6006,0.5205-1.0801,1.0195-1.4404,1.5
			c-0.1201,0.2002-0.2998,0.46-0.54,0.7803c0.7197-0.1602,2.0195,0.1797,3.9004,1.0195c2.3594,1.1201,2.8799,2.3398,1.5596,3.6602
			c-0.2803,0.2803-3,0.6807-8.1602,1.2002c-0.2803,0.0801-0.6396,0.1201-1.0801,0.1201c-0.4795,0.0801-0.8398,0.1191-1.0801,0.1191
			L331,36.5801c1.4404,1.0801,2.0195,2,1.7402,2.7598v0.0596c0.2793-0.0791,0.7793-0.3594,1.5-0.8398
			c0.4795-0.3193,1.7188-0.1592,3.7197,0.4805c4.5596,1.5596,5.1992,3.2607,1.9199,5.0996c-0.4004,0.2402-2.9004,0.6006-7.5,1.0801
			V46.54c4.1191,1.3604,6.5,2.8408,7.1396,4.4395c0.2402,0.7607,0.3994,1.3408,0.4805,1.7402
			c1.5996-5.8398,2.2998-12.9004,2.0996-21.1797c-0.1191-2.4795-0.54-4.0205-1.2598-4.6201c-2-1.3994-2.3203-2.2998-0.96-2.7002
			c0.9199-0.3193,1.7402-0.4199,2.46-0.2998c3.6396-2.2803,6.9795-5.0596,10.0205-8.3398c0.999-1.0801,1.1592-2.04,0.4795-2.8799
			c-1.6406-1.6807-0.96-2.3193,2.04-1.9199c2.6396,0.3203,5.1201,2.2402,7.4404,5.7598c1.3994,2.2793,0.7793,3.6201-1.8604,4.0195
			c-1,0.1602-2.3799,0.6406-4.1396,1.4404c-3.7607,1.7998-6.7607,3.1006-9,3.8994c1.6396,1.2402,2.3994,2.8408,2.2793,4.8008
			c2.2402-0.2002,5.7197-0.7998,10.4404-1.8008c0.7998-0.1191,1.3994-0.459,1.7998-1.0195
			c0.7998-0.8799,2.5996-0.7998,5.4004,0.2402c2.1992,0.8799,3.3193,2.0801,3.3594,3.5996c-0.04,0.4805-0.1602,0.8398-0.3594,1.0801
			c-0.5605,0.6807-3.1406,1.3203-7.7402,1.9199c-0.6807,0.1201-1.7002,0.2402-3.0596,0.3604l0.8994,0.7197
			c1.2393,0.96,1.8604,1.9004,1.8604,2.8203c-0.04,0.2803-0.1201,0.6396-0.2402,1.0801c-0.1602,0.4795-0.2402,0.7998-0.2402,0.96
			c-0.0801,1.5996-0.1201,3.6201-0.1201,6.0596c-0.0801,2.9199-0.1406,5.3008-0.1797,7.1396
			c-0.1201,4.1211-0.2207,6.7012-0.2998,7.7402c-0.2402,1.8398-0.7002,3.7197-1.3799,5.6406
			c-0.4004,0.999-0.8008,1.7998-1.2002,2.3994c-0.4404,0.4805-0.8604,0.7402-1.2598,0.7803c-0.96-0.04-1.7207-1.2803-2.2803-3.7197
			c-0.6406-2.7207-0.9209-5.7402-0.8398-9.0605c0-1.5195,0.0391-3.3193,0.1201-5.3994c0-2.2402,0.0195-3.7402,0.0596-4.5
			c0.0391-3.0801,0.0391-6.0605,0-8.9404c0-1.5996-0.0596-2.5801-0.1797-2.9404c-0.1602,0.041-0.3408,0.0811-0.54,0.1201
			c-0.2012,0.0811-0.3203,0.1201-0.3604,0.1201c-0.8398,0.4805-2.1396,0.3213-3.8994-0.4795
			c-0.4004,6.8398-1.1807,12.0996-2.3408,15.7793c-1.7197,5.3613-4.54,9.0811-8.46,11.1602
			c-3.5605,1.9199-4.2197,1.3203-1.9795-1.7998c0.999-1.4404,1.8389-3.1592,2.5195-5.1602c-1,0.7607-2.1807,0.6602-3.54-0.2998
			c-0.3994-0.2402-0.8799-0.7197-1.4395-1.4404c-0.7197-0.8398-1.3203-1.4785-1.7998-1.9199v6c0,3.7207-0.4199,6.6396-1.2607,8.7607
			c-0.5195,1.2793-1.3193,1.8594-2.3994,1.7393c-1.2002-0.1602-2.0801-0.9805-2.6406-2.46c-1.1201-2.7598-1.6191-4.5596-1.5-5.3994
			c-0.04-0.1592,0.0605-0.54,0.3008-1.1406c0.1592-0.4795,0.2598-1.0391,0.2998-1.6797c0.0791-1.6797,0.1201-2.8799,0.1201-3.5996
			c-3.7607,3.7598-8.1406,5.8398-13.1406,6.2393c-0.8398,0.1201-1.2402-0.1191-1.1992-0.7197
			C310.8594,59.3193,311.1396,58.9209,311.7402,58.4795z M325.96,28.7197c0.4395,1.1611,0.6201,2.2402,0.54,3.2402
			c0.8398-0.0801,1.7197-0.2002,2.6396-0.3604c0.1201-0.4795,0.2793-1.1191,0.4805-1.9199
			c0.2402-1.1191,0.3799-1.7598,0.4199-1.9199c0.1992-0.8398,0.0195-1.6797-0.54-2.5195c-0.7197,0.0801-1.7002,0.2002-2.9404,0.3594
			c-1.6797,0.2012-2.7402,0.3213-3.1797,0.3604C324.6602,26.7998,325.5195,27.7207,325.96,28.7197z"/>
		<path class="st0" d="M381.5195,66.04c-0.3203,1.2793-1.1201,1.9395-2.3994,1.9795c-1.9199-0.04-3.1797-1.3799-3.7803-4.0195
			c-0.4404-1.96-0.3809-3.7803,0.1797-5.46c0.1201-0.3994,0.4805-1.3398,1.0801-2.8203c0.5605-1.3994,1.0596-2.7393,1.5-4.0195
			c1.5996-4.8799,3.3604-9.8799,5.2803-15c-1.8809,0.4404-3.8799,0.3594-6-0.2402c-3.3203-0.8398-5.46-1.9805-6.4199-3.4199
			c-0.4795-0.5596-0.7002-1.04-0.6602-1.4404c-0.04-0.5996,0.4199-0.7588,1.3799-0.4795c0.5195,0.2002,2.6406-0.2002,6.3604-1.2002
			c2.7998-0.6797,5.8398-1.5996,9.1201-2.7598c0.96-2.4805,1.7598-4.7402,2.3994-6.7803c1-3.1201,1.0205-5.3398,0.0605-6.6602
			c-0.9209-1.2393-0.501-1.7197,1.2598-1.4395c2.3594,0.4404,4.2197,2.1201,5.5801,5.0391c0.7598,1.6807,1.1797,3.1807,1.2598,4.5
			c0.0801,0.041,0.3994,0.1406,0.96,0.3008c0.1201,0.0801,0.7402,0.2607,1.8604,0.54c0.999,0.2803,1.6797,0.5195,2.04,0.7197
			c1.4795,0.8398,2.0596,1.96,1.7402,3.3604c-0.3604,1.3193-1.5205,2.46-3.4805,3.4199c-1.9199,1.0801-4.4395,2.2002-7.5596,3.3594
			c-2.2412,3.8398-3.9404,6.8809-5.1006,9.1201c-2.0801,4.041-3.6602,7.7803-4.7393,11.2197
			C382.96,55.46,383.4795,55.4199,385,53.7402c1.7197-1.8008,2.0996-1.6201,1.1396,0.54c-0.1201,0.2393-1.0195,2.1201-2.6992,5.6396
			C382.7197,61.3203,382.0801,63.3594,381.5195,66.04z M425.1396,59.4395c1.4004,0.8809,2.1201,1.7803,2.1602,2.7002
			c-0.04,0.3604-0.1406,0.7197-0.2998,1.0801c-0.5605,1.04-1.7998,1.8994-3.7197,2.5801c-2.3613,0.7197-5.1006,1.1191-8.2207,1.2002
			c-3.5605,0.0791-6.6807-0.3408-9.3594-1.2598c-5.1602-1.7207-8.1006-4.7402-8.8203-9.0605
			c-0.5996-3.5195,0.1201-6.5,2.1602-8.9395c0.8398-1,1.4795-1.4199,1.9199-1.2607c0.3604,0.2012,0.3398,0.7002-0.0596,1.5
			c-0.6807,1.2812-0.6006,3.0205,0.2393,5.2207c0.8799,2.6797,2.5596,4.2998,5.04,4.8594c2.2402,0.5605,5.4805,0.5605,9.7207,0
			c0.7988-0.0791,1.4395-0.2998,1.9199-0.6602C419.0195,56.4805,421.459,57.1602,425.1396,59.4395z M409.7803,39.04
			c0.3594-0.3994,1.1191-1.7998,2.2793-4.2002c0.3604-0.7998-0.1406-1.2002-1.5-1.2002c-0.5605,0-1.1602,0.04-1.7998,0.1201
			c-1.04,0.1602-1.6201,0.2402-1.7402,0.2402c-1.4395,0.1602-3.1602,0.0205-5.1592-0.4199c-2.001-0.3604-2.04-0.96-0.1201-1.7998
			c1.5195-0.5605,3.3389-1.54,5.46-2.9404c1.7598-1.1191,3.2402-1.8193,4.4395-2.0996c3.7207-0.8408,7.2803-0.1807,10.6807,1.9795
			c3.2393,2.04,3.8789,4.1006,1.9199,6.1797c-0.7207,0.8008-2.501,1.3008-5.3398,1.5c-1.2812,0.1611-3.9404,1.3203-7.9805,3.4805
			C408.0791,41.4805,407.6992,41.2002,409.7803,39.04z"/>
		<path class="st0" d="M459.6396,25.8994c-1.5996,1.001-3.8203,2.1406-6.6592,3.4199c-1.2412,2.6807-2.2412,4.8408-3,6.4805
			c-0.9609,2.1211-2.1006,4.8398-3.4209,8.1602c-1.5596,3.9209-2.6006,6.4795-3.1191,7.6797
			c-1.6406,3.7197-3.3809,5.2803-5.2207,4.6797c-1.2402-0.3594-1.96-1.8193-2.1602-4.3799c-0.2393-2.5195,0.0996-4.1992,1.0205-5.04
			c0.7197-0.5996,1.5391-1.6992,2.46-3.2998c1.4404-2.7988,2.8594-6.3389,4.2598-10.6201
			c-1.2803,0.2803-2.8408,0.1201-4.6797-0.4795c-3.2803-0.8799-5.3604-1.9395-6.2402-3.1807
			c-0.2803-0.2793-0.4004-0.5391-0.3604-0.7793c-0.04-0.1201,0.0205-0.2598,0.1807-0.4199
			c0.1592-0.1602,0.5596-0.2402,1.2002-0.2402c0.8398,0.1201,1.7188,0.0596,2.6396-0.1797
			c0.4795-0.0801,1.9199-0.5605,4.3203-1.4404c2.2793-0.7598,4.2988-1.4795,6.0596-2.1602c1.04-2.8398,1.7998-5.1602,2.2803-6.96
			c0.3594-1.4795,0.2402-2.5596-0.3604-3.2402c-2.04-2.0791-2-2.959,0.1201-2.6396c0.2793,0.0811,0.6797,0.0811,1.2002,0
			c0.3594,0,0.6992,0.04,1.0195,0.1201c0.7598,0.2803,1.96,1.4395,3.6006,3.4795c1.0801,1.4014,1.6992,2.6807,1.8594,3.8408
			c0.7207,0.0801,1.4795,0.04,2.2803-0.1201c0.8398-0.1201,1.3994-0.1807,1.6797-0.1807c2.5596-0.0391,3.6006,1.041,3.1201,3.2402
			C463.3994,22.96,462.04,24.3799,459.6396,25.8994z M478.2998,20.0195c2.6406,0.2803,5.2402,1.7402,7.7998,4.3799
			c0.8408,1.001,1.2803,1.9609,1.3203,2.8809c-0.04,1.96-1.4805,3.04-4.3203,3.2393c-0.2803,0.041-1.2803,0.1201-3,0.2402
			c-1.4395,0.1201-2.7207,0.2402-3.8398,0.3604c-2.4805,0.2393-4.3604,0.7002-5.6396,1.3799
			c-1.1201,0.5996-1.4805,1.6201-1.0801,3.0596c0.1201,0.4805,0.3389,1.0605,0.6602,1.7402
			c0.3193,0.7607,0.5195,1.2207,0.5996,1.3799c0.3203,1.3203,0.46,3.2402,0.4199,5.7598c-0.1201,1.8008-0.1406,3.54-0.0596,5.2207
			c1.0391,0.2803,1.7793,0.5,2.2197,0.6592c3.3604,1.1611,5.6797,3.2402,6.96,6.2402C481.5791,59.5205,480.96,61,478.4805,61
			c-0.6406,0-1.3008-0.1201-1.9805-0.3604c-0.8008-0.1992-1.3008-0.3193-1.5-0.3594c-1.8809-0.1201-2.3008-0.46-1.2598-1.0205
			c0.4395-0.1992,0.0791-0.5791-1.0801-1.1396c-0.8809-0.3994-1.5205-0.6797-1.9199-0.8398
			c-0.8398,3.5996-2.541,6.4395-5.1006,8.5195c-2,1.5996-3.9199,2.4004-5.7598,2.4004c-2.0801,0-3.4795-0.9404-4.2002-2.8203
			c-1.1992-2.8799-2.5596-4.8994-4.0801-6.0605c-2-1.4395-1.8799-3.4395,0.3604-6c1.7998-2.1191,4.0996-3.459,6.9004-4.0195
			c1.6396-0.3193,3.4795-0.4805,5.5195-0.4805c-0.1602-2.8799-0.2402-5.4189-0.2402-7.6191c0-5.6406,2.1006-9.3008,6.3008-10.9805
			c1.0791-0.4395,2.6396-0.9395,4.6797-1.5c1.2793-0.2402,1.6396-0.6396,1.0801-1.2002c-0.8809-0.7588-2.3809-1.5-4.5-2.2197
			c-2.6006-0.8398-4.0205-1.3398-4.2598-1.5c-2.001-1.0801-1.9004-1.7402,0.2998-1.9805c2.1992-0.1592,4.3594-0.5596,6.4795-1.1992
			C475.8594,20.1396,477.2197,19.9404,478.2998,20.0195z M464.4404,55.96c0-0.0801,0.0195-0.2402,0.0596-0.4805
			c0-0.1592,0-0.2998,0-0.4199c-3.6406-0.9199-6.3203-1.0801-8.04-0.4795c-2.8799,1.2803-3.04,2.6201-0.4795,4.0195
			c0.5996,0.4004,1.2393,0.96,1.9199,1.6807C458.5,61.04,459,61.5,459.4004,61.6602c1.4785,0.7598,2.7197,0.2607,3.7197-1.5
			C463.5996,59.2002,464.04,57.7998,464.4404,55.96z"/>
		<path class="st0" d="M527.9805,39.5801c6.999,1.1201,10.5,5.3604,10.5,12.7197c0,0.5996-0.0215,1.2002-0.0605,1.7998
			c-0.3604,4.9609-2.5,8.7002-6.4199,11.2197c-3.5205,2.2002-7.96,3.2803-13.3203,3.2402c-12.6396-0.0801-18.9404-5-18.8994-14.7598
			c-0.041-0.6396-0.0205-1.2998,0.0596-1.9805c0.2402-4.0391,2.1602-6.0986,5.7598-6.1797
			c3.7207-0.0791,5.5801,1.4404,5.5801,4.5605c-0.0801,1.96-0.9805,3.4795-2.6992,4.5596c-1.2812,0.8799-1.5811,2.0605-0.9004,3.54
			c1.3203,3,5,4.1807,11.04,3.54c5.2803-0.5596,8.1797-3.6201,8.7002-9.1797c0.5195-6.4404-2.5605-10.0996-9.2402-10.9805
			c-1.8408-0.1992-2.6611-1.1191-2.46-2.7598c0.1592-1.5996,1.04-2.499,2.6396-2.7002c5.8398-0.5596,8.7598-3.96,8.7598-10.2002
			c0-2.5596-1.0596-4.4395-3.1797-5.6396c-1.5596-0.8799-3.46-1.3203-5.7002-1.3203c-4.3193,0-7.3398,0.8008-9.0596,2.4004
			c-1.3604,1.2002-1.2803,2.1807,0.2402,2.9395c1.9199,1.041,2.8193,2.5205,2.6992,4.4404
			c-0.3994,3.3203-2.1797,4.9795-5.3398,4.9795c-3.2002,0-5.0801-1.5596-5.6396-4.6797c-0.8398-4.6396,0.4795-8.46,3.96-11.46
			s8.3398-4.4795,14.5801-4.4395c5.1992,0.0801,9.3799,1.0791,12.54,3c3.7197,2.3203,5.5996,5.7598,5.6396,10.3193
			C537.7598,33.7207,534.499,38.0605,527.9805,39.5801z"/>
		<path class="st0" d="M556.4805,38.0195c-2.2803-1.2393-4.2207-3.1992-5.8203-5.8799c-0.2012-0.2793-0.2803-0.5596-0.2402-0.8398
			c-0.04-0.5996,0.4395-0.8398,1.4404-0.7197c1.7188,0.1602,3.0391,0.2197,3.96,0.1797c0.1992,0,0.5791,0,1.1396,0
			c0.6396,0,1.0996-0.0195,1.3799-0.0596c1.2803,0,2.3594,0.0205,3.2402,0.0596c1.9199,0.1201,3.8789,1.2803,5.8799,3.4805
			c1.2393,1.4004,1.4795,2.6992,0.7197,3.8994c-0.7197,1.1201-1.7607,1.7012-3.1201,1.7402
			C561.7793,40.04,558.9189,39.4209,556.4805,38.0195z M556.9004,65.4395c-2.4814-2.5195-3.4805-4.9199-3-7.1992
			c0.2393-1.2002,0.1592-2.0605-0.2402-2.5801c-0.4805-0.4805-0.7002-0.7803-0.6602-0.9004
			c0.3604-2.1201,1.7402-1.8994,4.1396,0.6602c0.2402,0.2803,0.5,0.2402,0.7803-0.1201c1.5996-2.1602,3.5-5.1201,5.7002-8.8799
			c2-3.4395,3.1592-5.3594,3.4795-5.7598c0.8408-0.9199,1.3398-0.7402,1.5,0.54c0.1602,1.6797-1.1602,7.6191-3.96,17.8193
			c-0.3594,1.3203-0.5801,2.4209-0.6592,3.2998c-0.2012,1.3594-0.3008,2.1396-0.3008,2.3408
			c-0.3594,1.5986-1.1396,2.5391-2.3398,2.8193C559.9795,67.7588,558.499,67.0791,556.9004,65.4395z M571.54,19.96
			c1.4404,4.4004,0.2793,6.2607-3.4805,5.5801c-3.0801-0.5195-5.7402-2.3604-7.9795-5.5205c-1.5205-2.04-2.7803-3.459-3.7803-4.2598
			c-1.3604-1.1191-1.1797-1.7793,0.54-1.9795c0.6797,0,2.2598,0.0801,4.7402,0.2393c2.04,0.2803,3.9004,0.6602,5.5801,1.1406
			C569.2393,15.8799,570.7002,17.4805,571.54,19.96z M608.2598,33.8799c-1.1602,1-1.7402,1.9795-1.7402,2.9395
			c-0.0801,1.4805-0.2197,5.4814-0.4199,12c-0.2002,6.4414-0.3398,10.3408-0.4199,11.7002
			c-0.1201,3.3203-0.8398,5.7607-2.1602,7.3203c-1.1992,1.3203-2.2998,2-3.2998,2.04c-1.2803-0.04-2.5801-1.0801-3.8994-3.1201
			c-3.9209-0.3604-8.6211-0.2607-14.1006,0.2998c-2.0801,1.7998-3.9805,1.4199-5.7002-1.1396
			c-1.3193-1.8809-2.0195-3.1592-2.0996-3.8398c-0.04-0.2402-0.0205-0.54,0.0605-0.9004c0.0791-0.4395,0.1396-0.7998,0.1797-1.0801
			c0-0.6396,0.0391-2.2393,0.1201-4.7998c0.0791-3.3193,0.1592-5.7793,0.2393-7.3799c0.1201-6.7197,0.1602-11,0.1201-12.8398
			c0-0.5596-0.8398-1.4404-2.5195-2.6406c-0.8008-0.5186-1.0605-1.0391-0.7803-1.5596c0.3604-0.6396,1.7002-0.9004,4.0205-0.7803
			c3.7588-4.8389,6.8994-9.54,9.4199-14.0996c0.7197-1.3594,0.7793-2.4004,0.1797-3.1201
			c-1.4004-1.4404-0.9209-2.1992,1.4404-2.2803c1.7188,0,2.9785,0.2207,3.7793,0.6602c0.6396,0.4404,2.0596,1.8604,4.2607,4.2598
			c2.0791,2.3203,1.7393,4.0205-1.0205,5.1006c-1.041,0.4404-2.1602,1.1602-3.3604,2.1602c-3.7998,3-6.6592,5.0391-8.5791,6.1191
			c3.5186-0.5186,7.8193-1.0586,12.8994-1.6191c1.5605-0.2002,2.54-0.54,2.9404-1.0205c0.5195-0.5596,1.1396-0.7803,1.8594-0.6602
			c0.96,0.2803,2.9004,1.3008,5.8203,3.0605c2.1992,1.4004,3.2998,2.7207,3.2998,3.96
			C608.7998,33.1396,608.6201,33.5605,608.2598,33.8799z M597.3398,32.6797c-1.3203,0.0811-3.4199,0.2402-6.2998,0.4805
			c-3.9209,0.4004-6.9805,0.7998-9.1797,1.1992c0.2793,0.8008,0.4199,2.001,0.4199,3.6006v6.4199
			c3.1592-0.5596,5.1797-0.96,6.0596-1.2002c1.4404-0.3604,2.1992-0.54,2.2803-0.54c1.2793,0.04,3.4199,0.7412,6.4199,2.1006
			C597.1602,39.0996,597.2598,35.0801,597.3398,32.6797z M582.0996,61.1201c4.96-0.6797,9.8193-0.96,14.5801-0.8398
			c0-1.8008,0.0801-5.7402,0.2402-11.8203c-1.96,0.6406-4.041,1.1006-6.2402,1.3799c-0.6396,0.0811-1.4805,0.1602-2.5195,0.2402
			c-1,0.1201-1.7012,0.2002-2.1006,0.2393c-1,0.1611-2.2793,0.0811-3.8398-0.2393
			C582.1396,55.9209,582.0996,59.6006,582.0996,61.1201z"/>
		<path class="st0" d="M666.46,37.54c2.3594,1.0801,3.5596,2.4199,3.5996,4.0195c-0.04,0.5605-0.2197,1.041-0.54,1.4404
			c-1,1.2402-3.2598,1.7197-6.7793,1.4395c-6.7207-0.4795-13.6006-0.4199-20.6406,0.1807
			c-0.4795,6.2393-0.7002,10.2207-0.6592,11.9395c0,1.7998,0.7588,2.8604,2.2793,3.1807c0.7598,0.2002,2.2998,0.2197,4.6201,0.0596
			c2-0.1201,3.5-0.2793,4.5-0.4805c1.04-0.2393,1.7598-0.459,2.1602-0.6592c1.2393-0.7998,3.3193-0.5195,6.2402,0.8398
			c2.4395,1.1602,3.8193,2.3604,4.1396,3.5996c0.1592,0.8799-0.1602,1.7002-0.96,2.46c-1.2002,1.1602-3.2803,1.9199-6.2402,2.2803
			c-3.5996,0.3604-6.2998,0.54-8.0996,0.54c-2.3604,0-4.7803-0.2012-7.2598-0.5996c-6.3604-1.0801-9.6211-6.1807-9.7803-15.3008
			c-0.04-0.8789-0.0205-3.0791,0.0596-6.5996c-2.6797,0.5205-5.6602,1.2998-8.9395,2.3398c-1.8809,0.7197-3.8809,0.5605-6-0.4795
			c-4.6006-2.1201-7.1611-3.6797-7.6797-4.6807c-0.1611-0.2793-0.2402-0.54-0.2402-0.7793v-0.0605c0-0.0391,0-0.0801,0-0.1201
			l0.0596-0.1201c0-0.0791,0.0605-0.1592,0.1807-0.2393c0.1191-0.0801,0.3594-0.1201,0.7197-0.1201
			c1.2002,0.1602,2.7002,0.0801,4.5-0.2402c0.4395-0.0391,1.3799-0.1592,2.8193-0.3604c1.6406-0.2393,2.9795-0.4395,4.0205-0.5996
			c3.8789-0.4805,7.46-0.9199,10.7402-1.3203c0.1201-3.5195,0.1797-6.499,0.1797-8.9395c0-1.6396-0.2002-2.8203-0.5996-3.54
			c-1.4014-0.1602-3.4414-0.8799-6.1201-2.1602c-2.6006-1.1602-4.2812-2.4395-5.04-3.8398
			c-0.8398-1.2002-0.501-1.6396,1.0195-1.3203c1.4404,0.3604,3.54,0.3398,6.2998-0.0596c4.1201-0.4404,8.8203-1.1602,14.1006-2.1602
			c1.2393-0.2002,2.2197-0.6602,2.9395-1.3799c0.3604-0.3604,0.9004-0.5605,1.6201-0.6006c0.8799,0.04,2.5996,0.4805,5.1602,1.3203
			c4,1.3604,5.2998,3.1406,3.9004,5.3398c-0.7207,1.041-2.1807,1.7607-4.3799,2.1602c-1.9199,0.4404-5.2002,1.0195-9.8408,1.7402
			c-0.6396,0.1201-1.4395,0.2393-2.3994,0.3594c-0.8008,0.1201-1.3604,0.2012-1.6797,0.2402
			c0.5596,0.6406,1.0996,1.2803,1.6191,1.9199c1.5996,2.04,2.54,3.6807,2.8203,4.9199c0.0391,0.3213,0,1.54-0.1201,3.6602
			c-0.04,0.1602-0.0596,0.3809-0.0596,0.6602c-0.04,0.3203-0.0605,0.54-0.0605,0.6602c1.8008-0.1592,3.8799-0.3398,6.2402-0.54
			c4.0801-0.2793,6.5-0.46,7.2598-0.54c1.1201-0.04,2.04-0.3398,2.7607-0.9004C659.9395,35.3799,662.46,35.8594,666.46,37.54z"/>
		<path class="st0" d="M704.2598,39.8799c1.7197,2.2402,2.6191,4.041,2.7002,5.4004c0,0.4404-0.2402,1.4199-0.7197,2.9395
			c-2.4805,7.1611-5.3008,12.3604-8.46,15.5996c-2.6406,2.7197-6.0605,4.5801-10.2607,5.5801
			c-0.4795,0.0801-0.8604,0.1201-1.1396,0.1201v0.0605c-0.04-0.041-0.0596-0.041-0.0596,0c-0.041-0.041-0.0605-0.041-0.0605,0
			c-0.04-0.041-0.0596-0.041-0.0596,0c-0.0811-0.041-0.1406-0.0605-0.1807-0.0605c-0.0801-0.04-0.1406-0.0596-0.1797-0.0596
			c-0.1602-0.1201-0.2002-0.2607-0.1201-0.4199c0.04-0.3213,0.3203-0.7207,0.8398-1.2002
			c4.5996-4.2402,8.4004-11.8799,11.4004-22.9199c0.4395-1.7998,0.3398-3.2598-0.2998-4.3799
			c-4.6406,0.6807-9.1406,1.7998-13.5,3.3594c-1.7207,0.6006-3.6602,0.3604-5.8203-0.7197c-4.4395-2.0791-6.96-3.6396-7.5596-4.6797
			c-0.1602-0.2793-0.2402-0.54-0.2402-0.7803c0-0.4795,0.3193-0.6992,0.96-0.6602c0.96,0.1201,2.4199,0.041,4.3799-0.2402
			c5.7197-0.7988,8.7393-1.2188,9.0605-1.2598c5.0791-0.6797,9.7588-1.2393,14.04-1.6797c3-0.2793,5.8193-0.54,8.46-0.7803
			c0.3994,0,3.3389-0.2188,8.8193-0.6602c1.96-0.1592,3.1592-0.3994,3.6006-0.7197c0.96-0.7197,3.0195-0.2598,6.1797,1.3799
			c1.6396,0.9209,2.7393,1.8809,3.2998,2.8799c0.4805,0.96,0.4199,1.8213-0.1797,2.5801c-1,1.2402-3.2803,1.6807-6.8398,1.3203
			C716.4404,39.3994,710.4189,39.3994,704.2598,39.8799z M701.3799,13.54c0.6797-0.7207,2.8203-0.46,6.4199,0.7793
			c3.8398,1.4014,5.0791,3.1611,3.7197,5.2803c-0.6797,1.001-2.0801,1.7402-4.1992,2.2197C706.1201,22.1006,703,22.6602,697.96,23.5
			c-1.7207,0.3203-3.9805,0.6396-6.7803,0.96c-2.2002,0.2002-4.9404-0.5-8.2197-2.1006c-2.5195-1.1592-4.1396-2.4385-4.8604-3.8398
			c-0.7197-1.2393-0.3799-1.6992,1.0205-1.3799c1.2002,0.3604,3.1992,0.3604,6,0c4.3203-0.5596,8.7988-1.2793,13.4395-2.1602
			C699.7998,14.7002,700.7393,14.2207,701.3799,13.54z M712.54,14.2002c-0.4004-1,0-1.3398,1.2002-1.0205
			c2.6787,0.6807,4.9199,1.7207,6.7197,3.1201c2.3193,1.8809,3.2598,4.041,2.8203,6.4805c-0.6006,3.04-2.0605,3.7793-4.3799,2.2197
			c-0.5205-0.2793-1.6006-1.9805-3.2402-5.1006C713.5801,16.2197,712.54,14.3193,712.54,14.2002z M727.1797,13.2402
			c2.0801,1.4004,3.1201,2.96,3.1201,4.6797c0,0.3203-0.0205,0.6602-0.0596,1.0195c-0.3604,3.1201-1.5205,4.1611-3.4805,3.1201
			c-0.4795-0.1992-1.7803-1.9395-3.8994-5.2197c-0.2012-0.2402-0.7803-1.0801-1.7402-2.5205
			c-0.6406-0.8398-1.1201-1.5791-1.4404-2.2197c-0.2393-0.4395-0.3203-0.7588-0.2393-0.96
			c0.0391-0.1992,0.2393-0.2998,0.5996-0.2998c0.1592,0,0.3799,0.0205,0.6602,0.0596
			C723.2998,11.3408,725.46,12.1201,727.1797,13.2402z"/>
		<path class="st0" d="M753.3398,30.3398c-0.1602,0.6406-0.3398,1.5811-0.54,2.8203c-0.2002,1.3604-0.4004,2.46-0.5996,3.2998
			c-1.7998,8.6006-4.1201,14.9199-6.96,18.96c-3.1602,4.4004-7.7803,7.3994-13.8604,9c-0.96,0.2402-1.46,0-1.5-0.7197
			c0.04-0.3604,0.2402-0.7012,0.6006-1.0205c8.4795-7.04,12.8594-18.999,13.1396-35.8799c0.0391-1.5996-0.4004-2.8203-1.3203-3.6602
			c-1.3604-1.1592-2.0996-2.0996-2.2197-2.8203c-0.2402-0.9189,0.5791-1.2598,2.46-1.0195c0.4395,0.0811,0.999,0.1006,1.6797,0.0596
			c0.6006,0,1.0801,0,1.4404,0c1.0801,0.2402,2.6191,1.2207,4.6201,2.9404C753.0791,24.7803,754.0996,27.46,753.3398,30.3398z
			 M787.54,38.9795c1.4404-1.4395,2.1602-1.5,2.1602-0.1797c0,0.4004-0.1006,0.8398-0.2998,1.3203
			C785.9199,48,780.499,54.8799,773.1396,60.7598c-2.7998,2.1992-4.7998,4.1602-6,5.8799
			c-1.0801,1.3203-2.2197,1.9805-3.4199,1.9805c-1.96,0-3.7402-1.6201-5.3398-4.8604c-1.6406-3.2402-1.9795-5.499-1.0195-6.7803
			c0.3994-0.5996,0.7588-3.4395,1.0801-8.5195c0.2793-4.1602,0.5186-9.0996,0.7197-14.8203
			c0.0391-3.0791,0.1201-7.9395,0.2402-14.5801c0-2.4795-0.5605-4.1191-1.6807-4.9199c-2.8408-1.8389-2.8408-2.7988,0-2.8799
			c0.3203,0,0.7803-0.0596,1.3799-0.1797c0.5195-0.04,0.9395-0.0801,1.2607-0.1201c1.9199,0.04,4.8789,2.04,8.8799,6
			c1.4795,1.6006,1.6992,3.5,0.6602,5.7002c-0.4805,1.0801-0.8203,3.1797-1.0205,6.2998
			c-0.1201,1.7607-0.3809,5.7207-0.7803,11.8799c-0.4404,5.4805-0.7002,9.8203-0.7793,13.0195
			C774.5596,50.0605,781.2998,45.0996,787.54,38.9795z"/>
		<path class="st0" d="M817.2998,67.7803h-16.9795c-2.04,0-3.0605-0.7803-3.0605-2.3408c0-1.3604,0.7998-2.1592,2.4004-2.3994
			c2.2393-0.3604,3.3994-1.3398,3.4795-2.9404l0.54-39.1797c0-1.5195-0.8008-2.5205-2.3994-3
			c-1.6406-0.4395-2.3203-1.2598-2.04-2.46c0.2402-1.2002,1.2393-1.8203,3-1.8604h24.3594c4.5605,0,8.1201,0.8398,10.6807,2.5205
			c3.5596,2.3994,5.2393,6.46,5.04,12.1797c-0.2012,5.2402-2.001,9.0811-5.4004,11.5195c-2.7998,2.001-6.3398,2.9805-10.6201,2.9404
			H814L813.8203,60.04c0,1.5596,1.1992,2.5195,3.5996,2.8799c1.7998,0.2793,2.6191,1.1797,2.46,2.7002
			C819.6797,67.0596,818.8193,67.7803,817.2998,67.7803z M814.1797,21.46l-0.2393,15.4199l9.3594,0.0596
			c5.5596,0,8.4395-2.7598,8.6406-8.2793c0.1992-5.96-2.501-8.9199-8.1006-8.8799h-8.2197
			C814.6602,19.7803,814.1797,20.3408,814.1797,21.46z"/>
		<path class="st0" d="M858.9404,62.1396c1.999-0.3994,3-1.5391,3-3.4199l0.4795-38.46c0-1.5996-1-2.5801-3-2.9404
			c-1.5205-0.1992-2.2002-0.9385-2.04-2.2197c0.1201-1.2393,1.1602-1.8594,3.1201-1.8594l15-0.0605
			c1.6797,0,2.499,0.7002,2.46,2.1006c-0.0811,1.4004-0.8604,2.2197-2.3398,2.46c-2.1211,0.3203-3.1797,1.2197-3.1797,2.6992
			L872.1396,58.96c-0.04,1.2002,0.6602,1.8203,2.1006,1.8594h13.1396c2.1602-0.1592,3.6992-1.0195,4.6201-2.5791
			c0.7998-1.3594,1.7998-4.5801,3-9.6602c0.3193-1.3594,1.2002-2.04,2.6396-2.04c1.4004,0.04,2.0801,0.7598,2.04,2.1602
			c-0.2393,2.7998-0.3799,5.2197-0.4199,7.2598c-0.04,0.1602-0.1201,2.3604-0.2402,6.5996
			c-0.1191,3.0801-2.0996,4.6592-5.9395,4.7402h-32.8203c-2.4805,0-3.7002-0.8799-3.6602-2.6396
			C856.5596,63.2998,857.3398,62.46,858.9404,62.1396z"/>
		<path class="st0" d="M965.6201,62.3193c1.7998,0.3604,2.7197,1.2607,2.7598,2.7002c-0.04,1.5195-0.9404,2.2998-2.7002,2.3398
			l-17.2793,0.0605c-1.8809,0-2.8809-0.6807-3-2.04c-0.1611-1.4004,0.5996-2.3008,2.2793-2.7002
			c1.8398-0.4795,2.6406-1.5195,2.4004-3.1201l-2.8203-8.46c-0.2402-0.5996-0.5996-0.8994-1.0801-0.8994l-16.4395,0.0596
			c-0.8398,0-1.3604,0.2998-1.5605,0.9004l-3.2393,8.2793c-0.6006,1.5205,0.3193,2.5605,2.7598,3.1201
			c1.7998,0.4395,2.7393,1.3594,2.8193,2.7598c0.04,1.4004-0.7793,2.1006-2.46,2.1006h-13.1992
			c-1.9609,0-2.9209-0.7803-2.8799-2.3398c-0.041-1.4404,0.8994-2.3799,2.8193-2.8203c1.5195-0.3193,2.5996-1.2793,3.2402-2.8799
			l16.3203-41.46c1.2793-3.3604,3.3594-5.04,6.2393-5.04c2.9199,0.0801,5.04,1.8203,6.3604,5.2197l15.4805,41.3398
			C963.0791,61.1201,964.1396,62.0801,965.6201,62.3193z M930.7002,44.2002l14.1602-0.0605l-6.54-19.6797L930.7002,44.2002z"/>
		<path class="st0" d="M976.7197,66.8799c-1.5996-0.04-2.3994-0.7803-2.3994-2.2197c0-1.3203,0.7588-2.1396,2.2793-2.46
			c1.8008-0.3604,2.7402-1.1797,2.8203-2.46l0.6602-39.7207c0.0391-1.4395-0.6406-2.3193-2.04-2.6396
			c-1.6406-0.3193-2.3398-1.1602-2.0996-2.5205c0.2393-1.3193,1.2793-1.999,3.1191-2.04l8.04-0.0596
			c2.8809,0,5.1602,1.4404,6.8408,4.3203l20.3398,35.9395l0.54-33.4795c0-1.1191-0.8613-1.8799-2.5801-2.2803
			c-1.7607-0.3604-2.6201-1.1797-2.5801-2.46c0-1.2793,0.9199-1.9199,2.7598-1.9199h10.0205
			c1.7188,0.04,2.5791,0.6807,2.5791,1.9199v0.0596c0,0.041,0,0.041,0,0c-0.04,0.0811-0.04,0.1201,0,0.1201
			c-0.04,0.0811-0.0596,0.1602-0.0596,0.2402c-0.04,0.1602-0.0811,0.2998-0.1201,0.4199c-0.1201,0.2803-0.2803,0.54-0.4795,0.7803
			c-0.4805,0.5605-1.0801,0.9209-1.8008,1.0801c-1.1602,0.3203-1.7393,1.0801-1.7393,2.2803l-0.7207,42.2998
			c-0.04,3.8789-1.7998,5.8193-5.2793,5.8193c-2.7207,0-5.0205-1.6797-6.9004-5.04l-22.0195-39.4795l-0.54,35.8799
			c-0.0811,1.5205,1.0195,2.46,3.2998,2.8203c1.4395,0.3203,2.0996,1.2002,1.9795,2.6396
			c-0.1602,1.4404-1.0596,2.1602-2.6992,2.1602H976.7197z"/>
	</g>
</g>
</svg>
