<?xml version="1.0" encoding="utf-8"?>
<!-- Generator: Adobe Illustrator 25.2.1, SVG Export Plug-In . SVG Version: 6.00 Build 0)  -->
<svg version="1.1" id="レイヤー_1" xmlns="http://www.w3.org/2000/svg" xmlns:xlink="http://www.w3.org/1999/xlink" x="0px"
	 y="0px" viewBox="0 0 1040 80" style="enable-background:new 0 0 1040 80;" xml:space="preserve">
<style type="text/css">
	.st0{fill:#1E1E28;}
</style>
<g>
	<g>
		<path class="st0" d="M25.6602,38.5596c4.3203,9.6006,2.6396,17.0205-5.04,22.2598L19.54,69.2803l-9.7197-5.1006L25.6602,38.5596z
			 M18.6396,27.7002l7.7402,7.2598l-7.2598,7.7402l-7.7402-7.2607L18.6396,27.7002z M18.8799,12.04l7.6797,7.2598L19.2998,27.04
			l-7.6797-7.2598L18.8799,12.04z M29.2598,42.3994h36.6006v20.3408h4.0195v4.4395H25.9004v-4.4395h3.3594V42.3994z
			 M31.7803,13.5996h31.1396V39.04H31.7803V13.5996z M40.2402,47.0801H37.96v15.6602h2.2803V47.0801z M52.1201,22.0596V18.04h-9.54
			v4.0195H52.1201z M42.5801,26.7402v7.6191h9.54v-7.6191H42.5801z M46,62.7402h2.5801V47.0801H46V62.7402z M54.2803,62.7402h2.5195
			V47.0801h-2.5195V62.7402z"/>
		<path class="st0" d="M71.5,44.7402v-4.5h21.7197c-1.1201,6.2002-2.7002,11.1807-4.7393,14.9395
			c-3.7207,6.7197-9.3809,11.46-16.9805,14.2197l9.5996-24.6592H71.5z M127.7197,40.8398
			c-1.5996,2.9609-3.5801,5.6807-5.9395,8.1602c4.7998,4.3604,7.2002,9.4199,7.2002,15.1797c0,1.3994-0.1406,2.8594-0.4209,4.3799
			l-22.6191-19.1396v19.8604c-2.4404-1.8408-5.7412-2.9404-9.9004-3.3008c-4.4404-0.4004-8.1807,0.2598-11.2197,1.9805
			c1.9199-4.5605,5.1191-7.2803,9.5996-8.1602V36.5195h-16.5V16.7197h14.2197l1.4404-5.8799l12.5996,0.4199
			c-0.5996,1.8408-1.3604,3.6602-2.2793,5.46H121.96v19.7998h-16.0195v4.0801l3-1.9199l1.2598,3.9004
			c1.5195,0.4795,3.0195,1.0801,4.5,1.7998l4.2598-7.1396L127.7197,40.8398z M110.3799,23.7402v-2.8203h-21v2.8203H110.3799z
			 M110.3799,28.0596h-21v4.3203h21V28.0596z"/>
		<path class="st0" d="M146.2002,31.2402c-0.3213,8.2002-1.6406,15.2998-3.96,21.2998c1.4395,1.1201,2.6592,2.1396,3.6602,3.0596
			h43.9199c-1.8008,3.5605-2.7207,7.6201-2.7607,12.1807h-43.8594c-0.3604-3.2012-1.5811-6.3799-3.6602-9.54
			c-2.3604,4.2803-5.5,8.0186-9.4199,11.2197l5.6396-33.3604h-5.3398v-4.8594H146.2002z M137.5,27.2803l-7.0195-7.5605
			l7.5596-7.0195l7.0195,7.5596L137.5,27.2803z M155.9805,53.7998l-8.1006-17.8799c-0.8398-2-0.8799-3.999-0.1201-6l6.1807-14.2803
			l-3-5.04l11.3398,1.9199L157.4805,31.96l5.2197,19.0801L155.9805,53.7998z M169.8398,31.96l5.8799,18.5996l-6.7793,3
			l-8.5205-18.7197c-0.8398-1.6396-0.96-3.2793-0.3604-4.9199l6.3008-14.6396l-2.5205-5.1006l11.2197,2.3398L169.8398,31.96z
			 M182.1396,31.96l5.8799,18.5996l-6.7793,3l-8.5205-18.7197c-0.8398-1.7197-0.96-3.3604-0.3594-4.9199l6.3594-14.6396
			l-2.5801-5.1006l11.2207,2.3398L182.1396,31.96z"/>
		<path class="st0" d="M242.6797,16.8994v30.1807c0,13.4004-8.3604,20.1191-25.0801,20.1602
			c-6.3594-0.041-13.1797-1.6006-20.46-4.6807c10.6396,1.3203,19.2197-0.0596,25.7402-4.1396
			c5.5205-3.4395,8.2803-7.7402,8.2803-12.9004V15.6396C235.4805,16.6396,239.3203,17.0605,242.6797,16.8994z M211.7197,52.2998
			L199.0596,52c-0.96-12.2793,0.0605-21.6006,3.0605-27.96c2.2803-4.8799,5.96-8.2598,11.04-10.1406
			c-2.4805,4.001-3.8398,9.6807-4.0801,17.04c-0.2803,6.2012,0.1797,11.3809,1.3799,15.54c0.8398-0.5195,2.3398-1.0801,4.5-1.6797
			c2.5205-0.6396,4.7002-0.9395,6.54-0.9004C217.9795,45.1807,214.7197,47.9795,211.7197,52.2998z"/>
		<path class="st0" d="M276.6396,23.9199c3.9199,6.1602,4.4199,13.6006,1.5,22.3203c-2.5195,7.3604-6.4795,13.5596-11.8799,18.5996
			c-5.6797-2.7998-9.5205-6.3799-11.5195-10.7402c-1.3203-2.7598-1.9805-6.3193-1.9805-10.6797
			c0-6.3604,3.2402-12.7598,9.7207-19.2002c6.3594-6.3193,12.6592-9.4795,18.8994-9.4795c8.3193,0,14.7197,2.3398,19.2002,7.0195
			c4.1592,4.3604,6.2402,10.2803,6.2402,17.7598c0,7.041-2.0811,12.8398-6.2402,17.4004
			c-5.2002,5.6396-12.9805,8.4795-23.3398,8.5195c-1.8408-0.04-3.7412-0.1406-5.7002-0.2998
			c16.2002-5.7988,24.2998-14.4199,24.2998-25.8594c0-7.1602-1.7607-12.4404-5.2803-15.8408
			c-2.6797-2.5586-5.96-3.8398-9.8398-3.8398c-6.5996,0-11.7598,3.8398-15.4795,11.5205
			c-3.8008,7.7197-3.8809,14.6992-0.2402,20.9395c3.1992-2.7988,5.96-6.9395,8.2803-12.4199
			C275.5996,34.0801,276.7197,28.8398,276.6396,23.9199z"/>
		<path class="st0" d="M348.7598,29.0195h20.4004v4.7998h-15.6006c3.1201,1.041,6.5195,1.7402,10.2002,2.1006v33.96
			c-3.7598-1.2002-7.4805-1.6201-11.1602-1.2598V33.8193H348.04L342.7002,69.04c-3.5605-6.1602-5.501-14.2402-5.8203-24.2402H330.46
			V45.04c4.5996,5.0801,6.2402,11.2002,4.9199,18.3594L330.46,57.46v10.2002h-10.3799V54.9395L313.96,67.5996
			c-2.1602-7.1592-1.7002-14.7598,1.3799-22.7998H310.54v-4.5h9.54v-3.7803h-9.54v-4.5h7.0801l-5.3398-5.5801l4.5-4.2598h-4.5v-4.5
			h7.7998v-7.3799c1.9199,0.7607,5.0996,1.3604,9.54,1.7998v5.5801h5.8203v4.5h-5.2803l6.54,2.5205
			c-0.8008,2.04-2.3809,4.4795-4.7402,7.3193h5.2803c0.5996-6.6797,1.7188-12.1396,3.3594-16.3799
			c8.1602-2.7988,16.4795-3.9395,24.96-3.4199l2.7002,8.8799l-18.6602,2.04L348.7598,29.0195z M327.4004,22.1797h-8.1006l4.5,4.6797
			l-5.5195,5.1602h6.1201L327.4004,22.1797z M336.9404,36.5195h-15.3008c3.3203,1.1201,6.2598,1.8809,8.8203,2.2803v1.5h6.3604
			C336.8203,39.3799,336.8594,38.1201,336.9404,36.5195z"/>
		<path class="st0" d="M391.7197,26.2598l-10.7998,39.8398c-3.6807-7.8389-5.3008-15.5195-4.8604-23.04
			c0.2803-6.2793,1.96-11.8799,5.04-16.7998h-5.46v-4.5596h8.8799c0.3994-0.3994,1-0.96,1.8008-1.6807l-2.5205-7.3193l11.04,2.0996
			l-1.9199,6.9004h24.1797v4.5596H391.7197z M424.9004,36.6396c-4.5215,1.2812-8.8604,3.6006-13.0205,6.96
			c-3.2002,2.6006-5.8203,5.3604-7.8604,8.2803c-1.1992,1.6006-0.7998,2.4004,1.2002,2.4004h22.0801
			c-1.1602,2.8398-1.9404,6.4199-2.3398,10.7393h-29.0996c-5.2412,0-6.7207-2.6191-4.4404-7.8594
			c3.8398-9.2002,11.3799-16.2002,22.6201-21h-17.9404v-4.5605h25.6201L424.9004,36.6396z"/>
		<path class="st0" d="M453.2197,25.2998l-14.8799,37.8604c-1.8398-3.4404-3-7.0596-3.4795-10.8604
			c-0.4414-3.3604-0.3408-6.7998,0.2998-10.3203c1.0801-6.0791,3.5195-11.6396,7.3203-16.6797h-8.3408v-4.5596h12.4805
			c0.1201-0.0801,0.2598-0.2002,0.4199-0.3604l-1.7402-8.0996l11.8203,3.0596l-2.1006,5.4004h23.1602v4.5596H453.2197z
			 M487.0596,48.2197L485.0801,53.5c-3.6406-1.7197-6.7402-2.8398-9.2998-3.3604v11.1602c0,2.96-1.4209,4.4404-4.2607,4.4404
			h-19.6191c-2.3613,0-4.001-0.7607-4.9199-2.2803c-0.6406-1-0.9609-2.4199-0.9609-4.2598c0-3.6396,1.6807-6.96,5.04-9.96
			c3.6006-3.2002,8.1797-4.96,13.7402-5.2803V30.2803h19.6807v4.5596h-8.7002v9.7197
			C479.3799,45.2002,483.1396,46.4199,487.0596,48.2197z M454.3604,60.2197h8.6992c1.1602,0,1.7402-0.5996,1.7402-1.7998v-9.0605
			c-7.9199,0.3604-11.8799,3.1807-11.8799,8.46C452.9199,59.4199,453.4004,60.2197,454.3604,60.2197z"/>
		<path class="st0" d="M539.1396,23.8594c0,4.8809-2.6797,8.7812-8.04,11.7002c7.3594,2.5605,11.0801,7.3008,11.1602,14.2207
			c0.04,5.1201-1.9795,9.3398-6.0596,12.6592c-4.041,3.2402-9.04,4.9404-15,5.1006c-8.0801,0.1201-14.6611-2.4805-19.7402-7.7998
			c10.5596,0.1602,19.3398-1.3809,26.3398-4.6201c2.4004-1.0801,3.3398-3.0605,2.8203-5.9404
			c-1-5.3193-3.7607-8.7197-8.2803-10.2002c-4.3203,1.1611-9.3398,1.9199-15.0596,2.2803l-1.2607-3.4199
			c4-1.8398,7.8203-3.7393,11.4609-5.7002c4.1992-2.2393,7.459-4.2002,9.7793-5.8799c1.8398-1.2793,1.6592-2.8594-0.54-4.7402
			c-2.2402-1.8389-5.4404-2.1602-9.5996-0.96c-4.6406,1.4004-8.5205,4.3408-11.6396,8.8203l-7.2002-12.2402l8.9395,2.1006
			c5.1201-4.0801,10.5801-6.1201,16.3799-6.1201C533.959,13.1201,539.1396,16.7002,539.1396,23.8594z"/>
		<path class="st0" d="M562.1201,60.3398l-1.1396,8.8799l-10.5-6.1201l16.1396-24.2402c2.6797,4.5215,3.6992,8.7607,3.0596,12.7207
			C568.96,55.8203,566.4404,58.7402,562.1201,60.3398z M553.4805,17.7998l7.9199-7.1396l7.2598,7.7998l-7.9199,7.1396
			L553.4805,17.7998z M561.7002,26.8594l7.2002,7.0801l-7.3809,7.2607l-7.1396-7.0801L561.7002,26.8594z M595.0596,62.4395h-23.04
			V20.2002h9.2402l2.3398-9.7803L595.1797,11.5c-0.8008,2.7598-2.0605,5.6602-3.7793,8.7002h15.7197v49.3193
			c-3.1201-1.2402-7.1396-1.8594-12.0605-1.8594V62.4395z M583.2402,34.2402h11.8193v-9.7207h-11.8193V34.2402z M583.2402,38.5
			v19.9199h11.8193V38.5H583.2402z"/>
		<path class="st0" d="M612.1602,33.6396v-4.5596h18.0596v-9.54h-14.5801v-4.5h46.6807v4.5H631
			c3.9199,1.3604,7.7197,2.04,11.4004,2.04v7.5h23.9395v4.5596h-23.9395v20.7002h24.7793c-1.96,3.2803-3.0801,7.0195-3.3594,11.2197
			h-27.54c-1.7207-1.7607-3.7412-2.6396-6.0605-2.6396V33.6396H612.1602z"/>
		<path class="st0" d="M706.96,32.6201c0.3994,5.3203,0.4395,9.6201,0.1201,12.8994C706.5195,51,702.0596,56.1602,693.7002,61
			c-7.5205,4.3594-14.8008,6.8789-21.8398,7.5596c4.1191-3.5205,8.8193-8.0791,14.0996-13.6797
			c3.3193-3.4805,6.3994-6.9004,9.2402-10.2598c0.2793-0.5596,0.3594-4.5605,0.2402-12h-22.0801v-4.5h53.9395v4.5H706.96z
			 M711.46,10.4795c4.959,1.1211,7.4795,4.5811,7.5596,10.3799H711.46v-1.5h-34.3203v-4.5596H711.46V10.4795z M721.4199,20.8594
			V10.4795c4.959,1.1211,7.4795,4.5811,7.5605,10.3799H721.4199z"/>
		<path class="st0" d="M762.0996,53.9199c4.4404-1.4795,7.54-3.0801,9.3008-4.7998c1.6797-1.5605,4.1396-4.3203,7.3799-8.2803
			c3.8398-4.7197,6.8994-8.96,9.1797-12.7197c-0.4404,10.2803-2.0605,18.2197-4.8604,23.8193
			c-2.4805,5.001-6.1602,8.6006-11.04,10.8008c-3.2393,1.4785-7.2803,2.6191-12.1191,3.4199
			c-3.6807,0.5996-6.8408,0.8994-9.4805,0.8994V24.7002l-12.3604,44.8193C734.5,63.3193,732.7197,56.4805,732.7598,49
			c-0.04-9.4395,3-17.0596,9.1201-22.8604l-2.5195-8.7598l11.0996,1.6797v-7.7402c4.5996,1.2812,8.4795,1.9209,11.6396,1.9209
			V53.9199z"/>
		<path class="st0" d="M799.2998,67.96V10.4795c3.6006,1.3203,7.3594,2.1006,11.2803,2.3398v4.3203l2.8799,0.54
			c4.2393-3.1592,8.9404-4.7402,14.0996-4.7402c4.1201,0,7.46,1.6006,10.0205,4.8008c2.3594,3,3.54,6.6807,3.54,11.04
			c0,5.5596-1.9404,10-5.8203,13.3193c-3.4795,3-7.6006,4.5-12.3594,4.5c-4.6006,0-8.7207-0.5996-12.3604-1.7998v24.96
			C807.499,68.4795,803.7402,67.8789,799.2998,67.96z M822.0996,21.2803c-2.9199,0-5.3799,1.5-7.3799,4.5l-4.1396-4.8604v21.8398
			c12.5996-3.1201,18.9004-7.4795,18.9004-13.0801C829.4805,24.0801,827.0195,21.2803,822.0996,21.2803z"/>
		<path class="st0" d="M860.1396,63.8193V11.2598c4.6396,1.7607,8.3799,2.6807,11.2207,2.7598V55.54h29.1592
			c-1.6406,3.7598-2.46,7.5195-2.46,11.2793h-30.1797C866.2393,64.8193,863.6592,63.8193,860.1396,63.8193z"/>
		<path class="st0" d="M942.7598,10.8398v9.2402c15.1201,6.4795,22.6807,21.1797,22.6807,44.0996
			c0,1.6396-0.0605,3.3193-0.1807,5.04l-8.3994-13.1396h-33.4199l-5.2803,12l-4.1406-1.8604l20.2803-45.8398l-3.1201-4.9199
			L942.7598,10.8398z M937.1797,25l-11.6992,26.5195H954.04L937.1797,25z"/>
		<path class="st0" d="M985,68.0801h-4.5596v-48l-3.54-4.1406l9.0596-5.46l1.9199,9c5.5596,1.1611,10.8604,4.3203,15.9004,9.4805
			c4.5596,4.7197,8.5801,10.7607,12.0596,18.1201V14.4395h4.5605v44.3408c1.0391,3.4404,1.9395,6.96,2.6992,10.5596L985,25.2998
			V68.0801z"/>
	</g>
</g>
</svg>
