<?xml version="1.0" encoding="utf-8"?>
<!-- Generator: Adobe Illustrator 25.2.1, SVG Export Plug-In . SVG Version: 6.00 Build 0)  -->
<svg version="1.1" id="レイヤー_1" xmlns="http://www.w3.org/2000/svg" xmlns:xlink="http://www.w3.org/1999/xlink" x="0px"
	 y="0px" viewBox="0 0 1040 80" style="enable-background:new 0 0 1040 80;" xml:space="preserve">
<style type="text/css">
	.st0{fill:#1E1E28;}
</style>
<g>
	<g>
		<path class="st0" d="M26.5596,40.4795c-0.8799,7.2402-2.1592,15.96-3.8398,26.1602c-0.2002,1.1191-0.3398,2.0195-0.4199,2.7002
			H10.0596V56.5596h2.2207c0.0391-0.2793,0.1201-0.6992,0.2393-1.2598c0.7598-4.9199,1.4199-9.8594,1.9805-14.8203H26.5596z
			 M26.0801,27.8193v11.1006l-15.7803-3.2402V24.8799L26.0801,27.8193z M26.0195,13.2402v11.2793l-15.6592-3.1797V10.54
			L26.0195,13.2402z M67.5996,38.7998V58.54H70v10.8594H25.4805V58.54h2.6992V38.7998H67.5996z M66.9404,36.8799H29.2598v-26.04
			h37.6807V36.8799z M37.8398,49.0596V58.54h2.46v-9.4805H37.8398z M53.6797,19.0596H42.3398V21.46h11.3398V19.0596z
			 M42.3398,29.2002l11.3398,0.0596V27.04H42.3398V29.2002z M46.5996,58.54H49v-9.4805h-2.4004V58.54z M57.7002,58.54v-9.4805h-2.46
			V58.54H57.7002z"/>
		<path class="st0" d="M92.2002,41.0801v11.2793c-2.1602,4.7207-5.1602,9.8809-9,15.4805c-0.4404,0.6396-0.7803,1.1396-1.0205,1.5
			H70.1201V58.1201h4.0801c1.7998-2.2402,3.2598-4.54,4.3799-6.9004h-7.5l-0.0605-10.1396H92.2002z M124.4199,57.0996h5.3398v12
			h-11.0996c-2.9209-2.5605-6.6211-6.2197-11.1006-10.9795v11.46H88.4805v-9.3604h5.2197V39.3994H74.4404V13.96h15.7793
			l1.8604-3.6602l17.8203,0.0596l-2.3408,3.6006h17.7607v24.8994h3.7793v8.2207c-2.3994,1.7607-5.4805,3.7197-9.2393,5.8799
			C121.6992,54.6797,123.2197,56.0605,124.4199,57.0996z M111.7002,22.4795H88.1797v1.6201h23.5205V22.4795z M88.1797,30.2197
			v1.6201h23.5205v-1.6201H88.1797z M107.5596,40.8994c1.7197,1.8408,3.0205,3.1611,3.9004,3.96
			c2.4395-1.3994,4.2393-2.5586,5.4004-3.4795v-1.9805h-9.3008V40.8994z"/>
		<path class="st0" d="M148.2402,52.1797l7.7402,5.7002h33.96l-0.0605,11.6396h-40.0801l-6.3594-5.5801l-4.9209,5.8799H130V57.3994
			h2.7598l3.2998-3.7197V42.46h-5.9395L130.1797,31h18.0605V52.1797z M148.1797,13.1797v12.1201l-16.9795-3.7197V10.0596
			L148.1797,13.1797z M164.2002,55.7803h-10.4404c-1.0801-5.96-2.5195-12.9004-4.3193-20.8203
			c-0.2012-0.8799-0.3604-1.5801-0.4805-2.1006c1.7197-6.7588,3.3398-13.6797,4.8604-20.7598
			c0.1592-0.7998,0.2998-1.4189,0.4199-1.8594h10.5596c-1.8809,8.9199-3.7598,16.46-5.6396,22.6191
			c1.5195,5.8809,3.0596,12.8203,4.6201,20.8203C163.9395,54.5605,164.0801,55.2607,164.2002,55.7803z M166.2402,55.8398
			c-1.1201-6.3604-2.5605-13.2998-4.3203-20.8203c-0.2402-0.8398-0.4004-1.5-0.4795-1.9795
			c1.7588-6.5195,3.4199-13.4795,4.9795-20.8799c0.1592-0.7998,0.2998-1.4404,0.4199-1.9199h10.4404
			c-1.9199,9.3203-3.8008,16.9199-5.6406,22.7998c1.5205,5.8799,3.0996,12.7793,4.7402,20.7002
			c0.1592,0.9199,0.2998,1.6191,0.4199,2.0996H166.2402z M178.96,55.7197c-1.0801-5.7988-2.541-12.6602-4.3799-20.5801
			c-0.2012-0.8789-0.3604-1.5791-0.4805-2.0996c1.8398-6.6797,3.5195-13.6396,5.04-20.8799
			c0.1201-0.7998,0.2402-1.4404,0.3604-1.9199H190c-1.9199,9.3203-3.8203,16.9199-5.7002,22.7998
			c1.6807,6,3.2598,12.8799,4.7402,20.6396c0.1201,0.8809,0.2402,1.5605,0.3604,2.04H178.96z"/>
		<path class="st0" d="M207.6396,37.54h5.6406v13.5h-19.9805v-39.96l14.3398-0.0605V37.54z M208.1797,69.04V55.5996
			c9.7598-1.3994,17.7002-2.7197,23.8203-3.96l-0.0596-40.4395h14.6992l0.0605,50.8193c-0.7197,0.1602-1.7402,0.3604-3.0605,0.6006
			c-4.4004,0.8789-9.04,1.7793-13.9199,2.6992C222.3193,66.6396,215.1396,67.8789,208.1797,69.04z"/>
		<path class="st0" d="M252.5801,12.5801h54.9004v55.0195h-22.8604V55.1201h9.2998V25.0596h-5.3398
			c-1.2402,7.001-2.6611,14.5801-4.2598,22.7402c-1.0801,5.4805-2.1807,10.7998-3.3008,15.96
			c-0.3594,1.5596-0.6201,2.7793-0.7793,3.6602h-27.6602V12.5801z M269.3203,55.1797c0.999-4.6396,2.04-10.0596,3.1201-16.2598
			c0.8398-4.8398,1.5986-9.46,2.2793-13.8604h-8.5195v30.1201H269.3203z"/>
		<path class="st0" d="M353.9199,24.7002c0,0.4004,0,0.9805,0,1.7393c-0.04,0.7607-0.0596,1.3408-0.0596,1.7402h15.8398v11.1006
			h-2.4004v30.3594h-12V39.2803H353.5c-0.2803,8.4805-0.5996,17.2998-0.96,26.46c-0.0811,0.999-0.1201,1.7998-0.1201,2.3994h-13.5
			v-3.0596l-6.5996-3.1201v7.5596h-11.7607V61.96c-1.4795,2.4795-2.7803,4.5791-3.8994,6.2998h-6.3604V55.4795h2.5205
			c1.1592-1.5986,2.5801-3.9395,4.2598-7.0195h-6.7803v-9.8398L320.5,38.6797v-1.9199l-10.2598-0.0596v-9.4805h3.4795
			l-0.8398-4.4395h-2.1602v-9.1807h8.7002v-3.4199h12.7803v3.4199h8.46v9.1807h-2.2803l-1.1396,4.5h3.54v9.4795h-8.46v1.9199h8.3398
			v9.7197l-8.3398,0.0605v1.0195l7.4395,2.7002l-0.0596,4.0801h2.0996c0.3604-10.5996,0.6201-22.8799,0.7803-36.8398
			c-0.04-1.5195-0.04-2.7393,0-3.6602c5.7988-0.7197,10.7598-1.5596,14.8799-2.5195v-2.5205H369.04V22
			c-4.1201,0.8799-8.7207,1.7197-13.7998,2.5195C354.6797,24.6006,354.2393,24.6602,353.9199,24.7002z M323.6201,22.7803l0.8994,4.5
			h1.9209l0.8994-4.5H323.6201z"/>
		<path class="st0" d="M384.8799,10.7803h14.3398c-0.4795,2.7197-0.8604,4.7598-1.1396,6.1191h30.0596v10.7402h-32.1592
			c-1.5215,7.4805-3.1201,15.0811-4.8008,22.7998c-1.1602,5.1602-2.2598,10.001-3.2998,14.5205
			c-0.3203,1.3203-0.5605,2.3594-0.7197,3.1201H372.04V55.6602h3.7803c1.7188-6.8799,3.7393-16.2197,6.0596-28.0205h-9.3604V16.8994
			h11.2803C384.2393,14.3799,384.5996,12.3398,384.8799,10.7803z M395.2598,51.04h14.1006v5.0996h18.4795V67.96h-32.5801V51.04z
			 M396.46,32.3193h30.5996v10.9805H396.46V32.3193z"/>
		<path class="st0" d="M482.7402,40.2402H488.5V51.46h-5.7598v17.2803h-31.0205V41.4395c-2,8.8799-3.7793,16.4609-5.3398,22.7402
			h-15V51.2803h3.6602c1.5596-5.8809,3.1396-12.7803,4.7402-20.7002h-7.9199l-0.0605-11.5205H442
			c0.5996-3.2402,1.0996-5.959,1.5-8.1602l14.7598-0.0596c-0.5996,2.7598-1.1797,5.5-1.7402,8.2197h10.1406v11.5205h-12.54
			c-0.8008,3.5996-1.5205,6.8203-2.1602,9.6602h17.1602v-9.6602h13.6201V40.2402z M469.1201,58.0596V51.46h-4.4404v6.5996H469.1201z
			 M468.7002,15.7598l19.0801,1.7998V29.5l-19.0801-1.9805V15.7598z"/>
		<path class="st0" d="M544.0596,12.2803L544,33.5801h2.0996v34.2002h-51.8994V49.5996h15.1201v5.2803H531.04v-8.8203h-25.3799
			V33.5801h22.5596v-8.7002h-19.2002v5.4004l-14.8193,0.0596V12.2803H544.0596z"/>
		<path class="st0" d="M569.7402,40.4199c-1.001,7.2803-2.4805,15.96-4.4404,26.04c-0.2402,1.1191-0.4199,2.0195-0.54,2.7002h-14.46
			V56.4395h3.7803c1.04-4.7598,1.9795-10.0996,2.8203-16.0195H569.7402z M568.7803,28.1797v11.46l-18.1201-3.6602V24.7598
			L568.7803,28.1797z M568.6602,13.5996v11.5205l-17.9404-3.3604V10.54L568.6602,13.5996z M609.0996,19.3594v49.8604h-38.2197
			V19.3594h8.9404c1.1992-3.5996,2.1387-6.6387,2.8193-9.1191h16.1406c-1.1201,3.2002-2.2412,6.2393-3.3604,9.1191H609.0996z
			 M595.1201,38.4395v-7.7998h-10.1396v7.7998H595.1201z M584.9805,57.5195h10.1396v-7.7393h-10.1396V57.5195z"/>
		<path class="st0" d="M667.4199,68.2598h-36.2998v-23.04h-19.8604V32.8594h19.8604V24.46h-17.5205V12.3398h52.5605V24.46h-19.3203
			v8.3994h21.9004v12.3604h-21.9004v10.2598h20.5801V68.2598z"/>
		<path class="st0" d="M693.7598,43.1201h-22.3193V30.7598h57.1797v12.3604h-18.96c-0.6807,7.7998-1.4209,15.5605-2.2197,23.2793
			c-0.1201,0.8799-0.2012,1.5605-0.2402,2.04L679.4199,68.5l0.1201-12.3604h13.0195c0.1602-1.7598,0.3799-3.9795,0.6602-6.6602
			c0-0.4795,0.0801-1.5791,0.2402-3.2998C693.5801,44.9004,693.6797,43.8799,693.7598,43.1201z M721.1797,19.2998h2.2207v-9.0596
			h6.0596v9.8398h-5.7002v4.8594h-48V12.7002h36.54v6.5996h2.2197v-9h6.6602V19.2998z"/>
		<path class="st0" d="M730.1201,54.6396h4.6201c0.9199-11.4795,1.8594-24.3994,2.8193-38.7598
			c0.0801-1.5996,0.1602-2.8594,0.2402-3.7803h14.9404c-0.6006,9.2012-1.3203,19.1807-2.1602,29.9404
			c-0.5996,7.2402-1.2207,14.2793-1.8604,21.1201c-0.2002,1.999-0.3398,3.5996-0.4199,4.7998h-18.1797V54.6396z M770.6201,54.7598
			h2.5801c0.0391-0.3193,0.1396-0.7998,0.2998-1.4404c0.999-5.6396,1.8604-11.2793,2.5801-16.9199h13.9795
			c-1.1992,9.2012-2.7803,18.8408-4.7393,28.9199c-0.2402,1.1201-0.4199,2-0.54,2.6406h-29.1602V12.04h15V54.7598z"/>
		<path class="st0" d="M793.96,12.2803H846.04v35.8799h-36.96v19.5596H793.96V12.2803z M830.9805,35.4395V24.8193h-21.9004v10.6201
			H830.9805z"/>
		<path class="st0" d="M869.6797,12.2197v42.0605h36.2402v13.3799h-51.7197V12.3398L869.6797,12.2197z"/>
		<path class="st0" d="M949.2402,12.9395l20.6396,54.3008h-16.1396l-2.4004-7.2002h-22.8594l-2.5205,7.2002l-15.8398-0.0605
			l20.04-54.2402H949.2402z M932.7998,47.4395h14.2803L940,26.3193L932.7998,47.4395z"/>
		<path class="st0" d="M972.2803,67.96V12.1602h17.8193l22.3203,31.7393V12.2197h15.1797v55.6201h-16.9795L987.5195,33.46v34.3799
			L972.2803,67.96z"/>
	</g>
</g>
</svg>
