<?xml version="1.0" encoding="utf-8"?>
<!-- Generator: Adobe Illustrator 25.2.1, SVG Export Plug-In . SVG Version: 6.00 Build 0)  -->
<svg version="1.1" id="レイヤー_1" xmlns="http://www.w3.org/2000/svg" xmlns:xlink="http://www.w3.org/1999/xlink" x="0px"
	 y="0px" viewBox="0 0 1040 80" style="enable-background:new 0 0 1040 80;" xml:space="preserve">
<style type="text/css">
	.st0{fill:#1E1E28;}
</style>
<g>
	<g>
		<path class="st0" d="M24.2197,53.3193c-1.1201,2.04-4.46,5.4004-10.0195,10.0801l-3.7803-12.2393
			c3.8398-1.8398,6.5596-3.3008,8.1602-4.3799c1.3203-0.8799,2.5596-2.04,3.7197-3.4805c0.7598-0.96,1.5605-2.04,2.4004-3.2402
			c0.6396-0.8789,1.0195-1.3799,1.1396-1.5c0.0391,0.5205,0.0605,1.7012,0.0605,3.54c-0.041,1.4404-0.0811,2.5801-0.1201,3.4199
			c-0.041,0.6406-0.2402,1.9609-0.6006,3.96C24.7393,51.6396,24.4199,52.9209,24.2197,53.3193z M26.8604,32.5596L22.96,39.3994
			c-1.3604-0.7988-3.0205-1.7598-4.9795-2.8799c-2.3613-1.2793-4.2207-2.2588-5.5801-2.9395l4.2598-7.7998
			C19.1396,26.7402,22.54,29,26.8604,32.5596z M27.9404,19.4795L24.04,26.6797c-3.2002-2.2803-6.7607-4.2393-10.6797-5.8799
			l5.1592-8.0996C22.3604,14.7803,25.5,17.04,27.9404,19.4795z M64.7803,40.1797c-0.4404,5.8008-0.501,11.6201-0.1807,17.46
			c0.1201,0.04,1.7598,0.2207,4.9199,0.54l-1.5,8.4004c-10.3594-1.041-17.96-1.4609-22.7998-1.2607
			c-2.4404,0.04-5.7402,0.3008-9.8994,0.7803c-4.6006,0.4395-8.2002,0.9395-10.8008,1.5l-2.46-9.8994
			c2.2402-0.2002,4.2998-0.3604,6.1807-0.4805c0.1992-7.5596,0.1797-12.5-0.0605-14.8203l-0.5996-4.3193l7.2598,2.5801
			c5.4004,0.1201,10.9199,0.1201,16.5605,0C57.5596,40.6201,62.0195,40.46,64.7803,40.1797z M31.4805,38.0195
			c0.4395-9.6797,0.4795-15.8193,0.1191-18.4199L30.2197,13l6.2402,2.2197c3.6797,0.0811,7.7598,0.04,12.2402-0.1201
			c6.2402-0.1201,10.3799-0.4199,12.4199-0.8994c-0.4004,9.2393-0.2803,16.9404,0.3604,23.0996
			c-2.9609-0.1201-7.8408-0.0996-14.6406,0.0596C41.1602,37.5605,36.04,37.7803,31.4805,38.0195z M36.4004,48.5801
			c-0.041,1.5205,0,4.2803,0.1191,8.2793c0.2803,0,0.7598-0.0195,1.4404-0.0596c0.6396,0,1.1191-0.0195,1.4404-0.0596
			c0-4.0801-0.041-6.8408-0.1201-8.2803C38.3994,48.46,37.4395,48.5,36.4004,48.5801z M40.54,21.9395v2.4004
			c4.7197,0.1201,8.4004,0.0596,11.04-0.1797c0-1.2393-0.0205-2.1006-0.0605-2.5801C48.3594,21.5801,44.6992,21.7002,40.54,21.9395z
			 M40.6602,31.7197c0.8398,0.04,2.5801,0.0205,5.2197-0.0596c2.7197-0.0801,4.5801-0.1807,5.5801-0.3008
			c0-1.1191,0.0195-2.0186,0.0596-2.6992c-4.7998,0.2002-8.4395,0.4004-10.9199,0.5996c0,0.3604,0.0205,0.8008,0.0605,1.3203
			C40.6602,31.1797,40.6602,31.5605,40.6602,31.7197z M44.8604,56.6797c0.2393,0,0.6387,0,1.1992,0
			c0.5605,0.04,1,0.0605,1.3203,0.0605c0.0391-2.5205,0.0391-5.3193,0-8.4004h-2.7002
			C44.5996,49.9404,44.6592,52.7197,44.8604,56.6797z M53.2002,56.8594C54.4795,56.9404,55.459,57,56.1396,57.04
			c0-4.8398-0.0596-7.7402-0.1797-8.7002h-3.1797C52.8193,51.7803,52.96,54.6201,53.2002,56.8594z"/>
		<path class="st0" d="M93.7002,40.8398c-1.2812,6.4795-3.7607,11.9805-7.4404,16.5C83.9805,60.0996,81.8398,62,79.8398,63.04
			c-1.1201,0.5996-2.7803,1.3594-4.9795,2.2793c-2.6006,1.04-4.1611,1.5-4.6807,1.3809c0-0.2012,0.4404-0.7607,1.3203-1.6807
			c1.2793-1.4805,2.2998-2.6787,3.0596-3.5996c3.2402-4.0801,5.5205-8.4199,6.8408-13.0205
			C81,48.4404,79.7598,48.54,77.6797,48.7002c-2.1201,0.1602-3.54,0.2598-4.2598,0.2998l-2.6396-8.2197
			c2.9189,0.3203,5.9189,0.5,9,0.5391C83.9805,41.4004,88.6201,41.2402,93.7002,40.8398z M121.1797,67.4199
			c-7.1201-5.7197-12.7197-12.8799-16.7998-21.4805c-0.2002,8.1211,0.0391,15.2207,0.7197,21.3008l-10.9199,1.8594
			c0.04-1.0801,0.0996-2.2197,0.1807-3.4199L86.4404,61.54l8.2197-1.1406c0.3193-9.0791,0.3193-16.3193,0-21.7197
			c-5.7207,0.2803-11.04,0.6006-15.96,0.96c0.1992-1.8799,0.3389-4.7598,0.4199-8.6396c0-3.1201-0.0205-6.3604-0.0605-9.7197
			c-0.0801-1.4404-0.6592-3.7002-1.7393-6.7803l5.9395,2.2803c2.7598,0.1191,6.1396,0.1406,10.1406,0.0596
			c0.6387-2.5996,0.96-4.6396,0.96-6.1201l12.1797,0.54c-0.4004,1.2002-1.2803,2.9805-2.6396,5.3398
			c2.04-0.0391,4.7793-0.1592,8.2197-0.3594c4.7197-0.1602,7.5791-0.2803,8.5801-0.3604c-0.2402,2.9199-0.3408,6.501-0.2998,10.7402
			c-0.041,4.5996,0.0986,8.3994,0.4199,11.3994c-5.9609,0-11.3008,0.0811-16.0205,0.2402c-0.04,0.1602-0.0596,0.3408-0.0596,0.54
			c-0.041,0.2803-0.0605,0.4805-0.0605,0.5996c1.8398,2.0811,4.1201,4.2207,6.8398,6.4199c1.9209-2.6396,3.46-5.0391,4.6201-7.1992
			l9.7207,4.9795c-0.9209,0.8398-1.9414,1.7207-3.0605,2.6406c-1.4004,1.1992-2.2803,1.8799-2.6396,2.04
			c-0.6006,0.3203-1.7998,0.7197-3.6006,1.1992c2.3604,1.6406,5.2803,3.4004,8.7607,5.2803
			c2.6787,1.5205,4.1592,2.4404,4.4395,2.7598l-3.0596,0.96L121.1797,67.4199z M110.8604,22.8994
			c-2.8799,0-6.8203,0.1201-11.8203,0.3604c-5.9609,0.3203-9.2998,0.4805-10.0205,0.4805c-0.04,0.4404-0.0596,1.1992-0.0596,2.2793
			c6.5596-0.0791,13.8604-0.4395,21.9004-1.0801V22.8994z M89.0801,32.9199c5.4004,0.1201,12.6602-0.1592,21.7803-0.8398v-2.7607
			c-6,0.2012-13.3008,0.5615-21.9004,1.0801C88.96,31.2002,88.999,32.04,89.0801,32.9199z"/>
		<path class="st0" d="M158.9805,56.9199c3.999-0.0391,8.1387-0.1396,12.4199-0.2998c1.1191,0,4.1992-0.1201,9.2393-0.3604
			c5.2803-0.1592,8.2402-0.1396,8.8799,0.0596L187,58.1201l-0.6602,8.3994c-2.4404,0.2002-6.5605,0.3604-12.3594,0.4805
			c-7.001,0.1201-11.3613-0.04-13.0801-0.4805c-0.8408-0.2393-2.8008-1.0195-5.8809-2.3398
			c-3.1191-1.3604-6.2393-2.7988-9.3594-4.3203c-2.8799,4.0801-5.2803,7.0596-7.2002,8.9404l-8.04-10.0195
			c2.7598-0.7207,5.3799-1.6406,7.8604-2.7607c0.5596-3.7998,0.8789-8.2197,0.96-13.2598c-0.8008,0-2.4404,0.1006-4.9199,0.2998
			l-2.6406-9.3594c5.7998,0.4004,11.5801,0.2598,17.3398-0.4199c-0.3594,8.4805-1.2197,15.3203-2.5791,20.5195
			C152.04,55.96,156.2197,57,158.9805,56.9199z M140.1396,13.2998c2.9199,2.8408,5.7998,6.5996,8.6406,11.2803l-6.9004,5.5801
			c-3.2803-4.2002-6.501-7.9199-9.6602-11.1602L140.1396,13.2998z M164.2598,50.6797L154.5996,55
			c-0.4004-2.7197-1.0195-6.2002-1.8594-10.4404c-0.96-4.8389-1.8809-8.8594-2.7598-12.0596
			c1.5986-3.6396,2.8594-7.4404,3.7793-11.4004c0.4395-2.0791,1-5.2998,1.6807-9.6602l9.7197,3.3008
			c-1.1611,3.1602-2.2607,5.96-3.2998,8.3994c-1.7607,4-3.54,7.5-5.3408,10.5C158.7598,37.5205,161.3398,43.2002,164.2598,50.6797z
			 M176.5,51.2803l-9.1797,3.7793c-2.001-8.3594-4.4404-15.7588-7.3203-22.2002c1.5195-2.7598,2.96-6.1396,4.3203-10.1396
			c0.7998-2.4395,1.7998-5.8799,3-10.3203l9.1797,3c-1.3604,3.2402-2.5801,5.9609-3.6602,8.1602
			c-1.7998,3.5205-3.8398,7.0605-6.1201,10.6201C170.3594,39.54,173.6201,45.2402,176.5,51.2803z M178.7197,13.0596l9.2402,3.2402
			c-1.4404,3.2002-2.5605,5.541-3.3604,7.0195c-1.7598,3.2812-4.0596,6.8613-6.8994,10.7402
			c2.8398,3.1602,6.2188,8.0205,10.1396,14.5801l-8.8799,4.7402c-2.3604-6.7998-5.2402-13.5-8.6396-20.0996
			c1.8389-3.5605,3.5195-7.2607,5.04-11.1006C176.04,20.46,177.1602,17.4199,178.7197,13.0596z"/>
		<path class="st0" d="M227.4404,64.8398c-2.5605,0.5596-6.7607,0.999-12.6006,1.3203c-2.0801-0.2012-5.46-1.1807-10.1396-2.9404
			c-4.9609-1.8799-7.7607-3.3994-8.4004-4.5596c0.6396-0.0801,2.1992,0.0205,4.6807,0.2998
			c3.3193,0.4004,6.3789,0.6602,9.1797,0.7803c0.999,0.0801,3.0996-0.1201,6.2998-0.6006c3.1592-0.3994,5.4395-0.8193,6.8398-1.2598
			c0.6396-0.2793,1.7197-0.999,3.2402-2.1602c1.3594-1.04,2.4395-1.9199,3.2402-2.6396c0.9189-1.6396,1.7598-4.2197,2.5195-7.7402
			c0.5596-2.8799,0.96-5.7002,1.2002-8.46c0.0801-1.4795-0.0205-4.1602-0.2998-8.04c-0.3604-4.5195-0.8809-8.6602-1.5605-12.4199
			l7.3799-1.7402c1.0801,2.6396,2.1396,6.04,3.1807,10.2002c0.8789,3.6807,1.4795,6.8203,1.7998,9.4199
			c0.0391,1.9199-0.4199,5.46-1.3799,10.6201c-0.8008,4.2002-1.6006,7.9404-2.4004,11.2197
			c-1.2803,1.3604-3.4404,3.0205-6.4795,4.9805C231.3789,62.6406,229.2793,63.8799,227.4404,64.8398z M209.7998,40l9.1807-1.5605
			l-8.8203,8.04c0.1201,1.3203,0.2402,2.4004,0.3594,3.2402l-7.9795-0.2998c-1.2803-4.3203-1.54-9.9395-0.7803-16.8604
			c0.5596-5.3193,1.7197-11.3994,3.4805-18.2402l10.1396,2.8809c-0.8799,1.96-1.9199,5.1592-3.1201,9.5996
			c-1.2402,4.3604-2.0605,7.8398-2.46,10.4404V40z"/>
		<path class="st0" d="M289.2998,56.4395c3.6797-2.7988,6.1201-5.4189,7.3203-7.8594c0.5596-4.2002,0.7588-8.4795,0.5996-12.8398
			c-2.3604-4.96-4.3408-8.2998-5.9395-10.0205c-1.7207-0.4795-4.2812-1.0801-7.6807-1.7998c-3-0.6006-5.46-1.0801-7.3799-1.4404
			c1.2002,2.8008,2.1797,5.1406,2.9404,7.0205c0.999,2.6396,1.5391,4.3193,1.6201,5.04c0.2793,7.0801-0.1006,12.4004-1.1406,15.96
			c-1.5996,1.5205-3.7002,3.3809-6.2998,5.5801c-2.3604,2-4.4004,3.6807-6.1201,5.04c-1.9199-1.2393-4.0195-3.4404-6.2998-6.6006
			c-1.96-2.5996-3.7402-5.4795-5.3398-8.6396c-0.9209-2.2803-1.4805-4.3799-1.6797-6.2998c0.7988-4.5195,2.2197-8.5205,4.2598-12
			c3.1201-5.4004,7.5391-9.0996,13.2598-11.1006c1.8799-0.3594,4.04-0.54,6.4805-0.54c8.7197,0,15.0596,1.6006,19.0195,4.8008
			C300.9189,24.5801,303.7998,29,305.5596,34c0.1201,1.6797,0.2402,3.4404,0.3604,5.2803c0.0391,1.8398,0.0605,3.5605,0.0605,5.1592
			c0,2.2412-0.0605,3.96-0.1807,5.1602c-2.3604,5.1602-4.3193,8.6807-5.8799,10.5605c-2.6396,1.6406-5.6807,2.959-9.1201,3.96
			c-3.8799,0.0791-7-0.041-9.3594-0.3604c-4.4404-1.0801-7.3008-2.1396-8.5801-3.1797c0.3193-0.1201,0.8994-0.2598,1.7393-0.4199
			c1.5205-0.2002,2.54-0.3604,3.0605-0.4805C281.0596,59.04,284.9395,57.96,289.2998,56.4395z M272.2002,45.2197
			c0.3994-1.1592,0.7998-2.8398,1.2002-5.04c0.3594-1.8389,0.5791-3.2197,0.6592-4.1396c0-0.8799-0.04-2.9795-0.1191-6.2998
			c-0.0811-3.2402-0.1201-5.46-0.1201-6.6602c-3.5605,1.4004-6.2207,2.6396-7.9805,3.7197c-0.7598,2.4805-1.54,5.5195-2.3398,9.1201
			c-0.96,4.1201-1.4609,6.9805-1.5,8.5801c1.8398,2.7598,3.96,4.7402,6.3604,5.9395
			C270.4395,48.2803,271.7197,46.54,272.2002,45.2197z"/>
		<path class="st0" d="M368.0801,37.7197c-0.5205,0.0811-2.2607,0.2402-5.2197,0.4805c-0.2012,4.4004-0.2607,8.6602-0.1807,12.7793
			c0,6.1602,0.2793,11.2207,0.8398,15.1807l-10.9199,2.2793c0.6797-4.3193,1.1602-9.3389,1.4404-15.0596
			c0.2793-5.96,0.2402-10.8398-0.1201-14.6396c-0.5205,0.04-1.4609,0.0801-2.8203,0.1191c-1.1201,0.0811-1.96,0.1406-2.5195,0.1807
			c-0.3604,5.2793-0.7002,8.5195-1.0205,9.7197c-0.3203,1.2803-0.96,3.04-1.9199,5.2803c-1.0801,2.4404-1.9404,4.04-2.5801,4.7998
			c-1,1.2002-2.6396,2.8604-4.9199,4.9795c-2.7207,2.5205-4.46,3.8203-5.2197,3.9004c-0.0801-0.4404,0.2793-1.6006,1.0801-3.4795
			c1.0801-2.6406,1.7998-4.4795,2.1602-5.5205c-1.1611-1.0801-3.04-2.6592-5.6406-4.7402c-0.1602,5.2803,0,9.7998,0.4805,13.5605
			l-9.7803,1.6201c0.3994-3.1611,0.6992-7.0996,0.9004-11.8203c-1.5205,2.4004-2.3809,3.6807-2.5801,3.8398
			c-1.6006,0.8008-3.3809,1.6006-5.3398,2.4004c-2.2002,0.9189-3.4404,1.3594-3.7197,1.3193c0-0.2803,0.7393-1.7803,2.2197-4.5
			c2.04-3.7988,4.0391-8.1387,6-13.0195c-2.4004,0.0801-3.9004,0.1201-4.5,0.1201l-2.1006-7.6201
			c3.3994,0.2402,6.8193,0.2803,10.2607,0.1201c0-0.4805,0-1.1797,0-2.1006c-0.041-0.8398-0.0605-1.459-0.0605-1.8594
			c-2.8799,0.2402-5.8193,0.4199-8.8193,0.54l-2.2803-8.2207c1.3193,0.1201,3.2598,0.1807,5.8193,0.1807
			c-0.1191-2-0.2002-3.2998-0.2393-3.9004h-2.04l-2.1006-8.46c4,0.4004,7,0.6406,9,0.7197c0.04-2.1992-0.0801-4.1787-0.3594-5.9395
			l10.1396,0.6602c-0.3203,2.3604-0.501,4.0596-0.54,5.0996c2.5205-0.1592,5.1396-0.5195,7.8604-1.0801
			c-0.0811-0.7197-0.1201-1.1396-0.1201-1.2598l6.2402,2.5801c7.7598-1.3203,14.04-2.7598,18.8398-4.3203l4.8594,9
			c-7.2803,1.041-11.1592,1.5605-11.6396,1.5605c-0.04,0-2.8604-0.1602-8.46-0.4805c0,0.2803,0.0195,0.7607,0.0596,1.4404
			c0.04,0.8398,0.0801,1.46,0.1201,1.8594c0.04,1.7607,0.0801,3.2207,0.1201,4.3799c4.04-0.1191,7.2598-0.2598,9.6602-0.4199
			c4.3594-0.2393,8.0996-0.5996,11.2197-1.0801L368.0801,37.7197z M327.2197,24.2197c-0.5996,0.04-1.4004,0.0811-2.3994,0.1201
			c-1.1211,0.0811-1.9004,0.1201-2.3398,0.1201c0.0791,0.4004,0.2998,1.04,0.6592,1.9199c0.2793,0.9209,0.5,1.6006,0.6602,2.04
			c0.2793,0,0.7402-0.0195,1.3799-0.0605c0.5596,0,1-0.0195,1.3203-0.0596C326.8994,26.0605,327.1396,24.7002,327.2197,24.2197z
			 M330.7598,46.4199l-0.0596,0.4199c2.3994,0.9209,4.959,2.0205,7.6797,3.2998c0.5596-3.0791,0.999-6.6602,1.3203-10.7402
			c0.3994-5.6787,0.4199-10.999,0.0596-15.96c-0.4795-3.6797-0.8203-6.2598-1.0195-7.7393L337,23.1396l-1.9805,0.2998
			c-0.4404,1.2812-1.0195,2.7207-1.7393,4.3203c1.3994-0.1201,3.0596-0.3389,4.9795-0.6602l-1.7402,7.4404
			c-1.3193,0.2402-3.0205,0.4795-5.0996,0.7197c-0.04,0.2803-0.0801,0.9004-0.1201,1.8604c-0.0801,0.8398-0.1201,1.54-0.1201,2.0996
			c3.4404-0.4795,5.7998-0.8398,7.0801-1.0801l-1.8594,7.3203C334.1201,45.9395,332.2393,46.2607,330.7598,46.4199z"/>
		<path class="st0" d="M384.8203,67.1201l-11.04-3.4805c0.4795-1.8389,1.8594-6.5,4.1396-13.9795
			c0.3193-1.1201,1.3203-4.5,3-10.1406c1.2793-4.2793,2.3193-7.7188,3.1201-10.3193c-2.6396,0.1602-5.0996,0.2393-7.3799,0.2393
			L373.7803,19c1.6797,0.2402,3.9189,0.5605,6.7197,0.96c3.1992,0.5605,5.1992,0.8799,6,0.96
			c1.3203-4.5996,2.0791-7.2598,2.2803-7.9805c1.1592,0.2012,3.2998,0.54,6.4199,1.0205c3.0791,0.5605,5.46,0.96,7.1396,1.2002
			c5.7197,0.9199,9.7197,1.5,12,1.7393l1.2002,4.4404c-3.04,1.3604-6.1602,2.6602-9.3604,3.9004
			c-3.8398,1.5205-6.4199,2.3994-7.7393,2.6396c-1.3604,0.2402-3.54,0.4795-6.54,0.7197c-0.2402,1.2002-0.54,2.7002-0.9004,4.5
			c-0.0811,0.4404-0.2402,1.2402-0.4805,2.4004c-0.2002,1.04-0.3594,1.8594-0.4795,2.46c3.3193-1.7998,6.5791-3.4395,9.7803-4.9199
			c3.5596-1.6396,5.9795-2.5801,7.2598-2.8203c7.04-0.5195,12.6797-0.0596,16.9199,1.3799l0.3604,7.9805
			c-1.6406-0.2402-2.7402-0.3994-3.3008-0.4805l-12.6592,5.2803l5.5801-6.1797c-4.041-0.3203-7.3604-0.2402-9.9609,0.2393
			C401.2598,39,399.1201,39.5195,397.5996,40c-3.0801,0.96-5.9795,2.2002-8.6992,3.7197
			C386.8193,54.5195,385.459,62.3193,384.8203,67.1201z M422.0801,56.3799c1.2002-0.5596,2.0996-0.999,2.7002-1.3203l2.5195,6.0605
			c-5.6396,2.1191-9.1406,3.3789-10.5,3.7793c-1.4004,0.1201-3.3809,0.2197-5.9395,0.3008
			c-2.9209,0.0791-4.7803,0.0596-5.5801-0.0605c-2.2002-0.6807-4.4014-1.6602-6.6006-2.9395c-3.1602-1.8008-6.1602-4.2002-9-7.2002
			l7.7402-6.2402c0.999,1.7207,2.2803,3.5205,3.8398,5.4004c1.7197,2.1592,3,3.4199,3.8398,3.7793
			c3.6797,0.96,7.5996,0.9814,11.7607,0.0605l1.0195-7.9805L422.0801,56.3799z M405.1602,20.0801
			c-0.8008-0.2402-2.6006-0.6602-5.4004-1.2607c-0.9199-0.1592-2.7803-0.499-5.5801-1.0195
			c-0.0801,0.4004-0.2002,0.96-0.3594,1.6797c-0.2012,1.001-0.3408,1.7012-0.4199,2.1006
			C398.3594,21.7002,402.2803,21.2002,405.1602,20.0801z"/>
		<path class="st0" d="M452.6797,27.46c-1.1201,4.9199-2.4404,9.6807-3.96,14.2803c-1.96,5.7998-4.2002,11.2998-6.7197,16.5
			l-9.96-7.1406c5.3594-6.5195,9.5791-13.8389,12.6602-21.96c-2.6406,0.4805-4.9805,0.8008-7.0205,0.96l-3.8398-8.5801
			c0.0801,0.041,2.0791,0.1201,6,0.2402c2.7998,0.1201,5.2197,0.1406,7.2598,0.0596c0.7207-2.6787,1.3203-5.499,1.8008-8.46
			l3.54,0.0605c4.0391,1.6006,8.2588,2.9395,12.6592,4.0195L466.54,22C461.5801,24.4805,456.96,26.2998,452.6797,27.46z
			 M481.7197,33.6396c-1.9199,0.3604-5.0605,1.4004-9.4199,3.1201c3.7998,5.04,6.46,9.9209,7.9805,14.6396
			c2.1992,0.9209,4.2793,1.8408,6.2393,2.7607l-3.1797,8.2793c-1.8398-1.0801-3.6201-2.04-5.3398-2.8799
			c-0.8008,1.1201-1.4805,2.0205-2.04,2.7002c-1.0801,1.1602-4.4609,2.499-10.1396,4.0205c-1.041,0-2.8604-0.3604-5.46-1.0801
			c-2.7207-0.8008-5.0605-1.6201-7.0205-2.46c-0.7197-0.9199-1.4004-2.6006-2.04-5.04c1.04-4.1201,3.2793-7.3809,6.7197-9.7803
			c4.2402-0.3193,8.3203-0.1592,12.2402,0.4795c-0.6807-3.4795-2.0801-7.4395-4.2002-11.8799
			c0.5195-0.4395,1.8604-1.3994,4.0205-2.8799c0.5596-0.3594,1.3594-0.8994,2.4004-1.6201c0.9189-0.5996,1.5-0.9795,1.7393-1.1396
			c-1.2803-0.5195-3.4199-0.8193-6.4199-0.9004c-2.2002,0-4.3408,0.1006-6.4199,0.3008l-0.8398-4.1406
			c5.5596-1.0391,10.5195-1.6797,14.8799-1.9199c3.1201-0.0801,7.0996,0.5996,11.9404,2.04l-3.3008,8.2197
			C482.9395,34.0801,482.1602,33.7998,481.7197,33.6396z M454.4805,17.9199c-0.3604,2.04-0.5615,3.1602-0.6006,3.3604
			c1.96-0.2803,3.7803-0.7207,5.46-1.3203c-0.4404-0.2002-1.2402-0.54-2.3994-1.0205
			C455.6592,18.46,454.8398,18.1201,454.4805,17.9199z M466.9004,59.7998c1.1592-1.3203,2.0996-2.54,2.8193-3.6602
			c-2.7598-0.7998-5.8193-1.3203-9.1797-1.5596c-0.4004,0.2803-1.0605,1.2402-1.9805,2.8799
			c0.3994,1.04,1.1406,1.9004,2.2207,2.5801C462.2598,60.4805,464.2998,60.3994,466.9004,59.7998z"/>
		<path class="st0" d="M532.54,39.2197c2.96,1.8809,5.4395,3.6406,7.4404,5.2803c1.959,3.5205,2.8594,7.6201,2.6992,12.2998
			c-1,2.4004-2.7598,4.5205-5.2793,6.3604c-4.5215,2.6396-10.0605,3.999-16.6201,4.0801
			c-7.4014-0.2402-15.2607-2.9014-23.5801-7.9805l0.7197-6.4199c2.7598,1.8398,6.4805,3.2803,11.1602,4.3203
			c3.5996,0.8799,6.9004,1.3398,9.9004,1.3799c4.4395,0.1201,7.7188-0.4199,9.8398-1.6201c1.0391-0.5596,1.999-1.5996,2.8799-3.1201
			c0.9199-2.0791,0.2598-4.2197-1.9805-6.4199c-1.6406-1.5605-3.8203-2.9404-6.54-4.1396
			c-3.5605,0.8799-7.1201,1.4795-10.6797,1.7998l-2.7002-7.2002c3.5195-0.3994,7.2598-1.2598,11.2197-2.5801
			c5.96-2.3594,9-5.0596,9.1201-8.0996c-0.0801-3.7998-2.8799-5.7803-8.3994-5.9404c-5.8408,0.1201-10.2207,3.3203-13.1406,9.5996
			l-9.4795-4.1992c0.9199-2.3193,2.5996-4.8604,5.04-7.6201c4.3203-3.8398,9.8594-5.8994,16.6201-6.1807
			c6.7998,0,12.0596,1.8008,15.7793,5.4004c2.7197,2.7207,4.3203,6.0205,4.8008,9.9004c0.1201,2.5596-0.9209,4.9404-3.1201,7.1396
			C536.8398,36.6201,534.9404,37.9404,532.54,39.2197z"/>
		<path class="st0" d="M554.1396,62.5l-3.6592-12c1.5195-0.2793,3.5791-0.7998,6.1797-1.5605
			c2.5195-0.7197,3.9795-1.2197,4.3799-1.5c2.4795-1.7998,5.1992-3.8994,8.1602-6.2998c1.5596-1.2793,2.499-1.8994,2.8193-1.8594
			c0.04,0.3994-0.4404,2.1797-1.4395,5.3398c-1.0801,3.3594-2.1807,6.4004-3.2998,9.1201
			C566.6396,55.2607,562.2598,58.1797,554.1396,62.5z M564.46,42.5195c-2.6807-1.5596-6.4795-3.6191-11.4004-6.1797
			c-0.5605-0.2402-1-0.459-1.3193-0.6602l3.7197-7.3203c0.3604,0.1201,0.8398,0.2607,1.4404,0.4209
			c5.3994,1.5996,9.3789,2.8193,11.9395,3.6592L564.46,42.5195z M569.6797,22.8398l-5.46,6.4795
			c-2.1201-1.7188-5.3994-4.1191-9.8398-7.1992c-0.5205-0.3203-0.9209-0.6006-1.2002-0.8398l6.9004-7.4404
			c0.1992,0.2402,0.5195,0.5205,0.96,0.8398C564.5996,17.7998,567.4795,20.5205,569.6797,22.8398z M590.7998,18.5801
			c-0.04,0.04-0.3203,0.3203-0.8398,0.8398c-0.5205,0.5605-1.0605,1.0605-1.6201,1.5c6.96,0.0801,12.9199-0.1797,17.8799-0.7803
			c-0.5996,4.4404-0.8604,11.4805-0.7793,21.1201c0.0391,9.5205,0.3789,17.9609,1.0195,25.3203
			c-3.4795-0.1602-9.1797-0.1406-17.0996,0.0596c-8.6006,0.2002-14.3008,0.5-17.1006,0.9004
			c0.6396-8.3193,0.9795-16.9805,1.0205-25.9805c0-6.9199-0.1201-12.4395-0.3604-16.5596
			c-0.0801-0.4395-0.5605-2.3193-1.4395-5.6406c-0.1201-0.3594-0.2012-0.6592-0.2402-0.8994l6.4199,2.1602
			c1.2793,0.0801,2.3789,0.1201,3.2998,0.1201c0.6396-3.3203,1.0801-6.3799,1.3203-9.1807l11.46,1.7998
			C592.5791,16.1602,591.5996,17.9004,590.7998,18.5801z M583.1797,57.8193c5.2803,0,9.3203-0.1396,12.1201-0.4199
			c0-0.9189,0.0195-2.6592,0.0605-5.2197c0-2.5195,0-4.5195,0-6c-3.3604,0.0811-7.4014,0.2207-12.1201,0.4199
			C583.1992,49.5605,583.1797,53.2998,583.1797,57.8193z M595.2998,29.2598c-5.1201,0-9.1006,0.1406-11.9395,0.4199
			c0,3.8809-0.0205,6.96-0.0605,9.2402c3.8799,0,7.8994-0.0996,12.0605-0.2998C595.3604,33.7803,595.3398,30.6602,595.2998,29.2598z
			"/>
		<path class="st0" d="M640.2402,24.0996c-0.5205,2.3604-1.0205,4.9199-1.5,7.6807c4.2002,0,8.8799-0.1807,14.04-0.54
			c5.2393-0.3203,9.9395-0.7598,14.0996-1.3203l-1.7998,8.3994c-7.2402,0.9209-16.4404,1.5-27.5996,1.7402
			c-0.6406,5.7598-0.5811,10.7012,0.1797,14.8203c3.0391,0.96,6.5,1.5801,10.3799,1.8604c2.96-0.0801,6.3389-0.46,10.1396-1.1406
			l1.8604-7.8594l2.3398,7.0195c0.2402-0.0391,0.6006-0.1201,1.0801-0.2402c0.4805-0.0791,0.8398-0.1396,1.0801-0.1797
			l1.6201,7.1396c-2.0801,0.6807-5.2803,1.46-9.6006,2.3398c-4.1201,0.7998-7.2598,1.3398-9.4199,1.6201
			c-1.6797,0-4.6201-0.2607-8.8193-0.7793c-3.9209-0.4805-7.3604-0.9814-10.3203-1.5c-0.2803-1.4404-0.5605-3.5-0.8398-6.1807
			c-0.4004-3.1592-0.6406-5.9189-0.7197-8.2793c0.0791-2.2002,0.4199-5.0195,1.0195-8.46
			c-3.2002,0.0801-7.3203,0.0596-12.3604-0.0605l-2.5195-9.54c1.3994,0.1602,3.8594,0.3203,7.3799,0.4805
			c2.5205,0.1602,5.5801,0.2998,9.1797,0.4199c0.3604-1.6807,0.9805-4.0596,1.8604-7.1406
			c-4.5205,0.1611-8.6807,0.2803-12.4805,0.3604l-2.2197-9.4795c6.8799,0.5195,14.1201,0.8203,21.7197,0.8994
			c10.6406,0.2012,19.1006-0.0996,25.3809-0.8994l-2.1602,8.0391C656.5996,23.6006,649.5996,23.8594,640.2402,24.0996z"/>
		<path class="st0" d="M695.6797,38.0195c-3.1201,0.0811-6.9404,0.1201-11.46,0.1201c-5.04,0.04-8.0801,0.0605-9.1201,0.0605
			l-2.9395-9.4805c6.2402,1.041,15.1592,1.6201,26.7598,1.7402c13.0801,0.1602,22.5-0.5,28.2598-1.9805l-1.9795,8.7607
			c-4.3203,0.2803-10.5811,0.4795-18.7803,0.5996c-0.2803,3.4795-0.8799,7.4404-1.7998,11.8799
			c-1.5205,3.2803-3.7002,6.7402-6.54,10.3799c-2.3604,1.7207-5.0205,3.2197-7.9805,4.5c-4.2803,1.4795-7.5205,2.1602-9.7197,2.04
			c0.0801-0.2803,2.2197-2.2402,6.4199-5.8799c2.3193-2.3193,4.2197-4.8193,5.7002-7.5c0.8789-1.6396,1.6992-3.5791,2.46-5.8203
			C695.5596,44.7998,695.7998,41.6602,695.6797,38.0195z M678.2803,16.1201c5.3594,0.4795,10.7998,0.8203,16.3193,1.0195
			c8.1201,0.3203,14.7607,0.2607,19.9199-0.1797c-0.1191-0.3994-0.3203-1.1602-0.5996-2.2803
			c-0.2803-0.8398-0.46-1.4795-0.54-1.9199l4.9199-1.0195c0.1592,0.3594,0.46,0.9805,0.9004,1.8594
			c0.3994,1.041,0.7393,1.7998,1.0195,2.2803c0.6797,2.7598,1.0596,4.4805,1.1406,5.1602L718,22.1201l-0.6602,2.6396
			c-4.1602-0.0391-10.54-0.0195-19.1396,0.0596c-7.6406,0.1201-13.4004,0.2207-17.2803,0.3008L678.2803,16.1201z M724.0596,21.5801
			c-0.7598-3.1592-1.7598-6.4404-3-9.8398l4.3203-1.5605c0.2002,0.3203,0.6602,1.041,1.3799,2.1602
			c0.8799,1.4404,1.4199,2.3008,1.6201,2.5801c0.2402,1.3604,0.3604,3.1006,0.3604,5.2197L724.0596,21.5801z"/>
		<path class="st0" d="M742.4805,57.5195c-0.3604,0.5205-1.6807,1.7607-3.9609,3.7207c-2.5596,2.1992-4.3799,3.5791-5.46,4.1396
			c0.04-0.3604,0.46-1.6602,1.2607-3.9004c1.0801-3.1592,2.1797-6.6992,3.2998-10.6201c1.04-3.999,1.6592-8.2197,1.8604-12.6592
			c0.2793-5.3193,0.2393-13.2402-0.1201-23.7607l10.3193,1.2002c-0.4004,2.9609-0.7402,7.6797-1.0195,14.1602
			c-0.0811,0.8008-0.2012,3.2998-0.3604,7.5c-0.1201,2.8008-0.2197,4.8398-0.2998,6.1201
			c-0.3604,1.6006-1.1201,3.8994-2.2803,6.8994C744.5195,53.2402,743.4404,55.6396,742.4805,57.5195z M765.5195,63.3398
			c-1.5205,0.3994-3.7002,0.8789-6.5391,1.4404c-2.5205,0.4395-4.6201,0.7988-6.3008,1.0791
			c0.3203-3.8789,0.5195-11.5996,0.6006-23.1592c0-10.5205-0.0811-19.8398-0.2402-27.96l10.5,0.7793
			c-0.2402,2.5605-0.4805,6.9805-0.7197,13.2607c-0.2012,4.7197-0.3604,9.4404-0.4805,14.1592
			c-0.0801,5.2412,0.0801,8.5801,0.4805,10.0205c2.959-0.6006,6.0986-1.9395,9.4199-4.0205c0.96-0.7197,2.2793-2.0791,3.96-4.0801
			c0.4395-0.5186,1.1396-1.3594,2.0996-2.5195c0.8799-1.0801,1.5195-1.8604,1.9199-2.3398
			c0.0801-0.1201,1.0596-1.4199,2.9404-3.9004c1.5596-2.04,2.8994-3.6797,4.0195-4.9199C787.0596,33.3398,786,37.3203,784,43.1201
			c-1.5596,4.3193-3.1006,8.3008-4.6201,11.9395c-0.8008,0.7207-2.6201,1.9609-5.46,3.7207
			C770.5596,60.8604,767.7598,62.3799,765.5195,63.3398z"/>
		<path class="st0" d="M841.4199,25.5996c0.3994,1.5605,0.5996,3.0205,0.5996,4.3799c0,2.8008-0.8604,5.6406-2.5791,8.5205
			c-4.9609,4.1201-10.2607,6.1602-15.9004,6.1201c-3.2803,0-7.2207-0.8398-11.8203-2.5205l1.7402-5.3398
			c7.1602,2.001,12.2402,1.9004,15.2402-0.2998c1.4795-1.0801,2.4395-2.8994,2.8799-5.46c0.3193-4.1602-1.9004-6.7197-6.6602-7.6807
			c-5.2803-0.5996-10.4609-0.4395-15.54,0.4805c-0.5205,4.3203-0.7197,10.8809-0.5996,19.6797
			c0.0791,7.2402,0.3193,14.2207,0.7197,20.9404l-10.8604,2.04c0.3994-3.4805,0.7002-11.3398,0.9004-23.5801
			c0.0801-6.96,0.1201-13.6592,0.1201-20.0996c0-2.0801-0.4805-4.5801-1.4404-7.5c-0.1201-0.3203-0.2002-0.5801-0.2393-0.7803
			l8.6396,2.1602c3.0391-0.4404,5.1396-0.7402,6.2998-0.9004c3.3994-0.4395,6.2598-0.6992,8.5801-0.7803
			c6.3193,0.1602,11.1797,1.4209,14.5801,3.7803C838.2402,20.3193,840.0195,22.5996,841.4199,25.5996z"/>
		<path class="st0" d="M898.4199,64.5996c-4.9199-0.4404-11.46-0.6201-19.6201-0.54c-6.8008,0.04-12.6396,0.2197-17.5195,0.54
			c0.4395-6.8789,0.5996-15.8193,0.4795-26.8193c-0.1602-8.6006-0.4404-16.6807-0.8398-24.2402l10.2598,2.04
			c-0.3203,3.5996-0.4404,10.2598-0.3594,19.9795c0,8.5605,0.1201,15.4609,0.3594,20.7002c2.8799,0.1602,7.7197,0.04,14.5205-0.3604
			c6.2402-0.3193,11.3594-0.7197,15.3594-1.1992L898.4199,64.5996z"/>
		<path class="st0" d="M931.7803,15.2197l12.4199-1.6201c3.3193,8.2803,6.999,16.8408,11.04,25.6807
			c5.04,11.2002,8.959,19.0596,11.7598,23.5791L955.96,66.04c-1.0801-3.0811-2.3604-6.54-3.8398-10.3799
			c-11.7207-0.04-20.4209,0-26.1006,0.1201c-1.5596,3.96-2.9199,7.5596-4.0791,10.7998L912.6396,64
			c4.7598-9.8799,8.2002-17.2598,10.3203-22.1406c2.7598-6.5186,6-14.9785,9.7197-25.3799L931.7803,15.2197z M929.0801,48.0996
			c5.6396,0.4004,12.2402,0.4609,19.7998,0.1807c-1.7607-4.3594-3.2197-7.9805-4.3799-10.8604
			c-1.8398-4.3203-3.8008-8.7393-5.8799-13.2598c-1.4805,3.7998-3.1006,7.9199-4.8604,12.3594
			C932.4795,39.6396,930.9189,43.5,929.0801,48.0996z"/>
		<path class="st0" d="M1012.96,14.4395l9.7197,0.9004c-0.4795,4.2803-0.7402,11.6807-0.7793,22.2002
			c-0.041,10.0801,0.1191,18.9199,0.4795,26.5195h-8.7002c-2.3604-4.1191-6.0205-9.6602-10.9795-16.6201
			c-5.001-6.999-9.9404-13.5-14.8203-19.5c-0.1201,4.8809-0.1797,11.2412-0.1797,19.0801
			c-0.04,7.2002-0.0205,13.2402,0.0596,18.1201l-9.1201,1.9199c0.3994-6.2402,0.6396-14.7988,0.7207-25.6797
			c0.0391-10.4795-0.1006-18.3604-0.4199-23.6396c-0.4414-0.4805-0.8613-0.9004-1.2607-1.2607l11.7607-3
			c2.7598,4.4805,6.6387,10.1406,11.6396,16.9805c5.6396,7.7998,9.8398,13.0605,12.5996,15.7803
			c0.04-2.7998-0.0205-7.6602-0.1797-14.5801C1013.3398,25.1406,1013.1602,19.4004,1012.96,14.4395z"/>
	</g>
</g>
</svg>
