<?xml version="1.0" encoding="utf-8"?>
<!-- Generator: Adobe Illustrator 25.2.1, SVG Export Plug-In . SVG Version: 6.00 Build 0)  -->
<svg version="1.1" id="レイヤー_1" xmlns="http://www.w3.org/2000/svg" xmlns:xlink="http://www.w3.org/1999/xlink" x="0px"
	 y="0px" viewBox="0 0 1040 80" style="enable-background:new 0 0 1040 80;" xml:space="preserve">
<style type="text/css">
	.st0{fill:#1E1E28;}
</style>
<g>
	<g>
		<g>
			<path class="st0" d="M66.2803,26.6211v25.1992l-6.2998,1.0801v-3.6592h-6v17.0996l-6.3008,1.0195V49.2412h-5.6992v3.7197
				l-6,1.2002V27.8203c-0.6006,0.2402-1.2812,0.3008-2.04,0.1807c-2.2803,3.5205-4.6807,6.6602-7.2002,9.4199v1.3203
				c2.3594,0.4404,4.2988,1.2402,5.8193,2.3994c1.6807,1.2402,2.5205,2.7002,2.5205,4.3799c0,0.8398-0.25,1.6201-0.75,2.3398
				c-0.501,0.7207-1.1309,1.0801-1.8896,1.0801c-0.9209,0-1.6006-0.3594-2.04-1.0801c-0.2402-0.3994-0.5605-1.3193-0.96-2.7598
				c-0.5615-2.0791-1.4609-3.6602-2.7002-4.7402v25.8604l-6.2998,1.3799V43.6611c-2.3203,1.8799-4.6807,3.6592-7.0801,5.3398
				l-1.0205-1.2002c6.3604-6.1592,11.5596-13.5391,15.6006-22.1396H13.96l-0.7197-1.5h7.0195V12.9404l5.9404,0.4199
				c1.7998,0.1201,2.7002,0.4609,2.7002,1.0205c0,0.5205-0.7803,1.1396-2.3408,1.8604v7.9199h1.6807l1.7998-2.4004l5.9404,4.7402
				v-5.9404l6.4199,3.4805h5.2793V13.1211l5.7002,0.54c1.8799,0.1602,2.8203,0.54,2.8203,1.1396
				c0,0.4805-0.7412,1.0605-2.2197,1.7402v7.5h5.6992l1.9805-3.4805l4.3203,2.5801c1.3994,0.8398,2.0996,1.4805,2.0996,1.9199
				C68.0801,25.6611,67.4805,26.1807,66.2803,26.6211z M47.6797,35.7412V25.541h-5.6992v10.2002H47.6797z M47.6797,37.2412h-5.6992
				v10.5h5.6992V37.2412z M53.9805,35.7412h6V25.541h-6V35.7412z M53.9805,47.7412h6v-10.5h-6V47.7412z"/>
			<path class="st0" d="M96.9404,36.9404h1.4395c0.6396,4.001,0.96,6.8613,0.96,8.5801c0,1.4404-0.2002,2.7402-0.5996,3.9004
				c-1.001,2.9609-2.5801,4.4395-4.7402,4.4395c-0.6406,0-1.2207-0.2393-1.7402-0.7197c-0.5205-0.4795-0.7793-1.0596-0.7793-1.7402
				c0-0.8789,0.3984-1.7598,1.1992-2.6396c-1.4395,0.2002-2.3994-0.7598-2.8799-2.8799c-0.6807-3-1.5-5.0195-2.46-6.0605v26.1006
				l-6,1.1396V46.8408c-1.9199,2.6396-4.6201,5.541-8.0996,8.7002l-0.96-1.0205c4.0801-6.1592,6.8789-13.3799,8.3994-21.6602
				h-6.5996l-0.8398-1.5h8.0996v-9.7197l-7.6797,0.9004l-0.4805-1.3203c7.04-2.0791,13.0996-4.7793,18.1807-8.0996L95.5,17.2607
				c0.7197,0.7197,1.0801,1.2803,1.0801,1.6797c0,0.4414-0.4199,0.6602-1.2598,0.6602c-0.4414,0-0.96-0.0596-1.5605-0.1797
				l-6.4199,1.2002v10.7393h1.7998l3.3008-4.2598l5.3994,4.7998v0.96h-10.5v5.1602C89.5,38.541,91.29,39.4814,92.71,40.8408
				c1.4189,1.3604,2.1299,2.9609,2.1299,4.7998C96.1602,42.8418,96.8594,39.9404,96.9404,36.9404z M108.5801,29.9209v13.9199
				c3.5996-6.4395,6.96-15.2402,10.0801-26.4004l5.6396,3.4199c1,0.6006,1.5,1.1406,1.5,1.6201
				c0,0.6006-0.8008,1.0605-2.3994,1.3799c-4.2002,11.4004-9.1406,20.6611-14.8203,27.7803v6.7197c0,1.3604,0.7197,2.04,2.1602,2.04
				h4.0195c1.1602,0,2.1992-1.1992,3.1201-3.5996c0.4805-1.6797,0.9795-3.3799,1.5-5.0996h1.3799
				c-0.2002,2.9199-0.2402,4.6797-0.1201,5.2793c0.2793,1.8809,1.3594,2.9609,3.2402,3.2402
				c-0.4795,2.1211-1.1006,3.6299-1.8604,4.5303c-0.7598,0.8994-1.8799,1.3496-3.3594,1.3496h-12.1797
				c-2.8008,0-4.2002-1.5801-4.2002-4.7402v-3.0596c-3.8398,3.2002-7.8809,5.9795-12.1201,8.3398l-0.7197-1.3203
				c4.2793-2.8389,8.5586-6.8994,12.8398-12.1797V26.4404l6.2998,0.6602c1.4395,0.1602,2.1602,0.54,2.1602,1.1406
				C110.7402,28.8018,110.0195,29.3613,108.5801,29.9209z M101.5596,16.1211l0.4209-1.2002
				c1.7188,0.2803,3.499,0.6299,5.3398,1.0498c1.8389,0.4199,3.3994,1.1104,4.6797,2.0703
				c1.5996,1.2002,2.4004,2.6396,2.4004,4.3193c0,0.9209-0.2803,1.7314-0.8408,2.4307c-0.5605,0.7002-1.2598,1.0498-2.0996,1.0498
				c-0.8008,0-1.5596-0.459-2.2803-1.3799c-0.6807-1.0801-1.3799-2.1602-2.0996-3.2402
				C105.5996,19.1416,103.7598,17.4404,101.5596,16.1211z M118.6602,38.4404l0.8994-1.1396c3,2.2402,5.1396,4.2207,6.4209,5.9404
				c1.4395,2,2.1592,4.1992,2.1592,6.5996c0,0.9209-0.3301,1.7803-0.9893,2.5801c-0.6602,0.8008-1.3906,1.2002-2.1904,1.2002
				c-1.2803,0.1201-2.1201-0.5-2.5195-1.8604c-0.3213-1.8799-0.6211-3.7393-0.9004-5.5801
				C120.9795,43.2617,120.0195,40.6816,118.6602,38.4404z"/>
			<path class="st0" d="M150.0996,16.541l-4.7998,8.5195h5.3398l2.46-3.7197l4.8604,3.4199
				c0.7998,0.5605,1.2002,1.041,1.2002,1.4404c0,0.4795-0.6406,0.96-1.9199,1.4395v31.3799l-6.2998,1.0801v-3.54h-9.3604v5.1602
				l-6.2998,1.0801V21.7012l6.3594,3.3594h1.0205c0.5195-4.3594,0.8193-8.5391,0.8994-12.54L151,14.2607
				c0.96,0.2402,1.4404,0.5205,1.4404,0.8398C152.4404,15.541,151.6602,16.0215,150.0996,16.541z M150.9404,26.5605h-9.3604v12.9004
				h9.3604V26.5605z M150.9404,40.9609h-9.3604v14.0996h9.3604V40.9609z M171.04,17.1406c-0.8799,2.2803-1.8809,4.5-3,6.6602h9.9004
				l2.3994-3.96l5.6406,3.96c0.7988,0.5605,1.1992,1,1.1992,1.3203c0,0.5996-0.5996,1.0801-1.7998,1.4395
				c-0.1602,10.2002-0.3604,17.5801-0.5996,22.1406c-0.1602,2.8799-0.3213,4.9795-0.4805,6.2998
				c-0.3203,2.3994-0.8301,4.4199-1.5303,6.0596c-0.7002,1.6406-1.8096,2.9795-3.3291,4.0205
				c-1.8809,1.2793-4.1406,1.9199-6.7803,1.9199c-0.6807,0-1.1006-0.2207-1.2598-0.6602c-0.0811-0.2402-0.1201-0.7803-0.1201-1.6201
				c0-1.0801-0.1807-1.7607-0.54-2.04c-0.8008-0.6396-2.8008-1.2002-6-1.6797v-1.4404H175.96
				c1.7197-2.6396,2.5801-14.0596,2.5801-34.2598h-11.2803c-2.4805,5.3604-5.3398,9.8398-8.5801,13.4404l-1.1396-0.8408
				c2.7998-5.5195,5.1396-13.9795,7.0195-25.3799L172,14.7412c0.7598,0.2393,1.1396,0.54,1.1396,0.8994
				C173.1396,16.1611,172.4395,16.6611,171.04,17.1406z M162.5801,35.7412l0.7803-1.0205
				c6.5996,3.0811,9.8994,6.4404,9.8994,10.0801c0,1.1602-0.3594,2.1904-1.0801,3.0898c-0.7197,0.9004-1.6602,1.3506-2.8193,1.3506
				c-1.8809,0-2.9404-1.2998-3.1807-3.9004c-0.2002-2.1602-0.4199-3.6797-0.6602-4.5596
				C164.959,38.9014,163.9795,37.2207,162.5801,35.7412z"/>
			<path class="st0" d="M224.2002,25.3604h-12.1201l-10.9805,35.04l-6.4795-1.4395l10.5596-33.6006h-8.9395v-1.6797h9.4795l2.8799-9
				l6.4805,1.0801l-2.5205,7.9199h11.6406V25.3604z M246.8203,52.3008l-1.2002,1.3799c-3.7197-3.1992-7.2402-5.54-10.5605-7.0195
				v6.8398c0,7.7607-4.3604,11.6396-13.0791,11.6396c-3.6807,0-6.7207-0.8604-9.1201-2.5801
				c-2.6807-1.9199-4.0205-4.6592-4.0205-8.2197c0-4.04,1.5391-7.1191,4.6201-9.2402c2.6797-1.8799,6.1201-2.8193,10.3203-2.8193
				c1.4395,0,2.959,0.1602,4.5596,0.4795V23.6807h8.6406c2.6396,0,4.8193,0.54,6.5391,1.6201
				c2.04,1.3203,3.0605,3.2207,3.0605,5.7002c0,1.4805-0.4404,2.7002-1.3203,3.6602s-2.04,1.4395-3.4795,1.4395
				c-1.0801,0-2.001-0.3594-2.7607-1.0801c-0.7598-0.7197-1.1396-1.6201-1.1396-2.7002c0-2.0791,1.0205-3.3193,3.0605-3.7197
				c1.999-0.3994,3.2998,0.2803,3.8994,2.04c-0.1602-1.7188-1.0605-3.0596-2.7002-4.0195
				c-1.4004-0.8398-3.0205-1.2607-4.8594-1.2607h-2.2207v19.3203C238.54,46.1611,242.46,48.7012,246.8203,52.3008z
				 M228.3398,54.6406V44.4404c-1.6797-0.2393-3.2002-0.3594-4.5596-0.3594c-3.7607,0-6.7803,0.7598-9.0605,2.2793
				c-2.7207,1.7607-4.0801,4.4209-4.0801,7.9805c0,2.7998,1.04,5.0205,3.1201,6.6602c1.9199,1.5596,4.2998,2.3398,7.1406,2.3398
				C225.8594,63.3408,228.3398,60.4414,228.3398,54.6406z"/>
			<path class="st0" d="M303.6396,59.9209h1.0205v1.7998h-19.3799v-1.7998h1.5c2.8799,0,4.3193-0.8398,4.3193-2.5205
				c0-0.6797-0.2002-1.4785-0.5996-2.3994l-3.3604-8.2803h-18.96L265.54,53.501c-0.4404,1.1602-0.6602,2.1602-0.6602,3
				c0,0.8799,0.2598,1.5801,0.7803,2.0996c0.9199,0.8809,2.1602,1.3203,3.7197,1.3203H271v1.7998h-15.7197v-1.7998h1.2002
				c3.1191,0,5.6787-2.6602,7.6797-7.9805l11.8203-31.1396l6.1797-3L298.54,56.4404
				C299.5391,58.7607,301.2402,59.9209,303.6396,59.9209z M268.8398,44.9209h17.5205l-9.1201-22.2002L268.8398,44.9209z"/>
			<path class="st0" d="M344.0801,40.0605l9.4795,14.4004c1.4404,2.1602,2.8398,3.6406,4.2002,4.4395
				c1.2002,0.6807,2.7598,1.0205,4.6807,1.0205v1.7998H349.96l-13.6797-21.6602h-4.1406v16.2002
				c0,1.7998,0.6006,2.9199,1.8008,3.3604c0.5596,0.2002,1.9395,0.2998,4.1396,0.2998v1.7998h-18.9004v-1.7998
				c2,0,3.3604-0.1396,4.0801-0.4199c1.3203-0.4805,1.9805-1.5605,1.9805-3.2402V24.8203c0-1.8789-0.3809-3.0986-1.1406-3.6592
				c-0.7598-0.5596-2.3994-0.8408-4.9199-0.8408v-1.7998h22.3799c4.4404,0,8.2002,0.9307,11.2803,2.79
				c3.0801,1.8604,4.6201,4.6709,4.6201,8.4307c0,3.2803-1.4609,5.8604-4.3799,7.7393
				C350.5996,39.0811,347.5996,39.9404,344.0801,40.0605z M332.1396,24.8203v13.4404h7.5c4.1201,0,6.7998-0.8398,8.04-2.5195
				c1.5195-2.04,2.2803-4.1797,2.2803-6.4209c0-3.5996-1.4004-6.0986-4.2002-7.5c-2-0.999-5.04-1.5-9.1201-1.5
				c-1.7998,0-3,0.3008-3.5996,0.9004S332.1396,23.0205,332.1396,24.8203z"/>
			<path class="st0" d="M389.6797,39.2812l-7.2598,2.2793c-1.3203-7.959-3.6201-15.5195-6.9004-22.6797l1.5-0.8398
				C382.2598,23.7617,386.4795,30.8418,389.6797,39.2812z M423.1602,17.8008c0,12-1.9199,22.041-5.7598,30.1201
				c-5.0811,10.7197-12.9814,16.0801-23.7002,16.0801c-3.1201,0-5.6807-0.7002-7.6807-2.1006
				c-2.2402-1.5986-3.3594-3.8994-3.3594-6.8994c0-1.96,0.7197-3.7295,2.1602-5.3105c1.4395-1.5791,3.1396-2.3701,5.0996-2.3701
				c1.2393,0,2.2598,0.3604,3.0605,1.0801c0.7988,0.7207,1.1992,1.6807,1.1992,2.8809c0,1.0791-0.4004,2.0195-1.1992,2.8193
				c-0.8008,0.8008-1.7402,1.2002-2.8203,1.2002c-1.2812,0-2.3203-0.3896-3.1201-1.1699c-0.8008-0.7803-1.0801-1.79-0.8398-3.0303
				c-1.2402,1.001-1.8604,2.3604-1.8604,4.0801c0,2.2412,0.9004,3.9805,2.7002,5.2197c1.5596,1.0801,3.5,1.6201,5.8203,1.6201
				c8.5586,0,14.8389-5.6396,18.8398-16.9199c2.7988-7.9199,4.2002-17.0195,4.2002-27.2998H423.1602z M405.0996,38.2607
				l-7.1992,2.04c-0.96-7.7998-2.9404-15.4805-5.9404-23.04l1.4404-0.7197C398.2793,22.1016,402.1797,29.3418,405.0996,38.2607z"/>
			<path class="st0" d="M464.1396,47.2607c0,4.7998-1.4795,8.7803-4.4395,11.9404c-2.9609,3.1602-6.8398,4.7393-11.6406,4.7393
				c-3,0-5.4805-0.7793-7.4395-2.3398c-2.0801-1.6797-3.1201-3.999-3.1201-6.96c0-2,0.6396-3.7803,1.9199-5.3398
				c1.2793-1.5596,2.8799-2.3398,4.7998-2.3398c1.2002,0,2.1904,0.3506,2.9707,1.0498c0.7793,0.7002,1.1699,1.6299,1.1699,2.79
				c0,1.041-0.3906,1.9404-1.1699,2.7002c-0.7803,0.7598-1.6904,1.1396-2.7305,1.1396c-1.2002,0-2.1406-0.3594-2.8203-1.0801
				c-0.6807-0.7197-0.9404-1.6592-0.7793-2.8193c-1.0801,0.9199-1.6201,2.2598-1.6201,4.0195c0,2.2002,0.8398,3.9805,2.5195,5.3398
				c1.5605,1.2402,3.46,1.8604,5.7002,1.8604c6.7598,0,10.1396-5.0596,10.1396-15.1797V30.9404h6.54V47.2607z M484.2402,18.4004
				c-3.5605,9.96-9.7607,18.2402-18.6006,24.8408l-1.2598-1.5c4.7598-5.8398,8.46-13.0205,11.1006-21.54h-37.3203v-1.8008H484.2402z
				"/>
			<path class="st0" d="M543.8799,32.0205c0,3.7607-1.2402,6.6807-3.7197,8.7607c-2.3604,1.9199-5.46,2.8799-9.2998,2.8799h-34.8008
				v-6.3008h35.6406c2.5996,0,4.7793-0.3994,6.54-1.1992c2.3193-1.1201,3.4795-2.8203,3.4795-5.1006
				c0-2.0791-0.8799-3.5596-2.6396-4.4395c0.1592,1.2402-0.1201,2.3398-0.8398,3.2998c-0.7207,0.96-1.7012,1.4395-2.9404,1.4395
				c-1.1602,0-2.1201-0.3691-2.8799-1.1094s-1.1396-1.6895-1.1396-2.8506c0-1.1191,0.4395-2.04,1.3193-2.7598
				s1.8799-1.0801,3-1.0801c2.3193,0,4.2803,0.8311,5.8809,2.4902C543.0791,27.7109,543.8799,29.7012,543.8799,32.0205z"/>
			<path class="st0" d="M602.1396,20.2607c-8.2793,0-15.3799,2.2607-21.2998,6.7803c-6.5205,4.96-9.7803,11.46-9.7803,19.5
				c0,4.5996,1.2002,8.3604,3.6006,11.2793c2.5996,3.1201,6.1396,4.6807,10.6201,4.6807c3.4395,0,6.459-0.9395,9.0596-2.8203
				c2.8398-2.0791,4.2803-4.7793,4.3203-8.0996c0.0391-2.3604-0.8008-4.1201-2.5205-5.2803
				c0.1602,1.0801-0.1797,2.0508-1.0195,2.9102c-0.8398,0.8604-1.8203,1.29-2.9404,1.29c-1.0801,0-1.9902-0.3604-2.7295-1.0801
				c-0.7412-0.7197-1.1104-1.6201-1.1104-2.7002c0-1.1191,0.3906-2.0596,1.1699-2.8203c0.7803-0.7588,1.7295-1.1396,2.8506-1.1396
				c2.3193,0,4.2393,0.8799,5.7598,2.6396c1.5195,1.7607,2.2803,3.8203,2.2803,6.1807c0,4.04-1.6807,7.2598-5.04,9.6602
				c-2.9609,2.1191-6.54,3.1797-10.7402,3.1797c-6,0-10.9004-1.5-14.7002-4.5c-4.1201-3.3193-6.1797-7.8994-6.1797-13.7402
				c0-6.4395,2.8799-12.1396,8.6396-17.0996c4.7998-4.1201,10.7002-7.0801,17.7002-8.8799h-33.6602v-1.8008h45.7197V20.2607z
				 M602.2002,34.7812L598,37.9004c-1.7207-3.999-3.6211-7.2393-5.7002-9.7197l1.2002-1.0801
				C596.7793,29.1807,599.6797,31.7412,602.2002,34.7812z M608.1396,30.8203l-4.0195,3.1807
				c-0.7607-1.8799-1.6006-3.6006-2.5205-5.1602c-0.7598-1.2793-1.8594-2.7793-3.2998-4.5l1.2598-1.2002
				C603.04,25.3008,605.8994,27.8613,608.1396,30.8203z"/>
			<path class="st0" d="M653.2002,18.5205v5.4004h-22.0205l-1.0801,15.4199c2.7998-2.8799,6.2002-4.3203,10.2002-4.3203
				c4.0801,0,7.5303,1.2607,10.3506,3.7803c2.8193,2.5195,4.2295,5.8008,4.2295,9.8398c0,4.2812-1.54,7.6602-4.6201,10.1406
				s-6.6807,3.7197-10.7998,3.7197c-3.2402,0-6.1602-0.7598-8.7598-2.2803c-3.04-1.8389-4.5605-4.2598-4.5605-7.2598
				c0-1.3994,0.3994-2.5596,1.2002-3.4805c0.7998-0.9189,1.8398-1.3799,3.1201-1.3799c0.9199,0,1.7295,0.3408,2.4297,1.0205
				c0.7002,0.6807,1.0508,1.5205,1.0508,2.5195c0,0.6406-0.3008,1.4912-0.9004,2.5498c-0.5996,1.0605-0.9004,1.751-0.9004,2.0703
				c0,1.2002,0.6699,2.2402,2.0107,3.1201c1.3389,0.8799,2.8496,1.3203,4.5293,1.3203c5.7998,0,8.7002-3.8193,8.7002-11.46
				c0-3-0.7002-5.6201-2.0996-7.8604c-1.6406-2.6396-3.8809-3.96-6.7207-3.96c-1.7197,0-3.3994,0.4502-5.04,1.3496
				c-1.6406,0.9004-2.9004,2.0908-3.7793,3.5703h-1.9805l1.6201-23.8203H653.2002z"/>
			<path class="st0" d="M700.0596,16.1211l-2.8799,3.5996h12.1807l2.2197-3.9004l5.5195,3.7803
				c0.8408,0.5605,1.2607,1.0801,1.2607,1.5605c0,0.5605-0.6602,1.0195-1.9805,1.3799v13.8594l-6.5996,0.96V35.501H688.54v4.4395
				h29.4004l3.54-4.3799l5.7598,4.7998v1.0801H688.54v4.8008h29.0996l2.1006-3.3008l5.7598,3.6602
				c0.5996,0.4004,0.9004,0.7412,0.9004,1.0205c0,0.4404-0.6807,0.9199-2.04,1.4395c-0.5205,4.3203-0.9004,7.1611-1.1406,8.5205
				c-0.7598,4.2402-1.7197,6.8594-2.8799,7.8594c-1.6406,1.4004-3.6406,2.1006-6,2.1006c-0.7197,0-1.1602-0.2607-1.3203-0.7803
				c-0.1191-0.2803-0.1602-0.8799-0.1191-1.7998c0.0391-0.9209-0.1807-1.6201-0.6602-2.1006
				c-0.6006-0.5596-1.7998-0.96-3.6006-1.1992v0.96l-6,0.7197v-2.6396h-20.3398v3.0596L676,64.541V49.3604l6.54,0.96
				c1.04,0.1611,1.5596,0.4805,1.5596,0.9609c0,0.5195-0.5996,1.0596-1.7998,1.6191v6.3008h7.1406v-11.46H688.54v0.7197
				l-6.5996,0.8994V16.2412l6.7197,3.4795h4.3799l0.6602-7.2002l7.0801,1.3203c0.999,0.2002,1.5,0.501,1.5,0.9004
				C702.2803,15.3408,701.5391,15.8008,700.0596,16.1211z M709.7803,21.2207H688.54v5.2803h21.2402V21.2207z M709.7803,28.001
				H688.54v6h21.2402V28.001z M708.6396,60.4004h7.4404c0.6396-2.5195,1.2393-6.7393,1.7998-12.6592h-22.4395v11.46h7.1992v-9.54
				l6.6006,0.8994c1.0391,0.1602,1.5596,0.4805,1.5596,0.96c0,0.6006-0.7197,1.2402-2.1602,1.9199V60.4004z"/>
			<path class="st0" d="M739.3604,57.6406V38.7412h-6.0605l-0.8994-1.5h6.3594l2.2803-3.8408l5.6396,3.6006
				c1,0.6396,1.5,1.2002,1.5,1.6797c0,0.5205-0.7402,0.96-2.2197,1.3203v14.7598c0.6396,3.5605,5.1992,5.3398,13.6797,5.3398
				h27.8408v1.2002c-1.9209,0.6807-3.0215,2.2803-3.3008,4.7998h-24.4199c-6.5996,0-11.6602-3.1006-15.1797-9.2998l-6.7803,7.7402
				c-0.2002,1.5195-0.6201,2.2793-1.2598,2.2793c-0.4404,0-0.8398-0.3594-1.2002-1.0791l-2.9395-5.8203L739.3604,57.6406z
				 M735.1602,16.3604l0.4199-1.1396c7.5996,0.6807,11.4004,3.0205,11.4004,7.0205c0,1.1201-0.3301,2.0605-0.9902,2.8193
				c-0.6602,0.7607-1.4912,1.1406-2.4902,1.1406c-1.3203,0-2.3604-1.1797-3.1201-3.54
				C739.5,19.9414,737.7598,17.8408,735.1602,16.3604z M761.7998,19.541c-2.7998,5.3604-6.1797,11-10.1396,16.9199
				C759.2197,43.6611,763,49.3604,763,53.5605c0,1.041-0.3301,2.0098-0.9902,2.9102s-1.4502,1.3496-2.3701,1.3496
				c-1.2803,0-2.1396-0.4395-2.5801-1.3193c-0.3203-0.6797-0.6807-2.3604-1.0791-5.04c-0.8008-5.3193-2.8408-10.2002-6.1201-14.6406
				c2.3994-6.3193,4.3994-13.8789,6-22.6797l6.8398,2.8799c0.8789,0.3604,1.3193,0.8203,1.3193,1.3799
				C764.0195,19.1611,763.2793,19.541,761.7998,19.541z M773.0801,19.7207c-2.9199,5.3203-6.5605,11.0996-10.9199,17.3398
				c3.5996,3.1602,6.0791,5.541,7.4395,7.1406c2.7197,3.2393,4.0801,6.2803,4.0801,9.1191c0,1.3203-0.3301,2.4004-0.9893,3.2402
				c-0.6602,0.8398-1.4912,1.2598-2.4902,1.2598c-1.1611,0-1.9609-0.4395-2.4004-1.3193c-0.3594-0.6797-0.6396-2-0.8398-3.96
				c0-0.0801-0.2002-1.3398-0.5996-3.7803c-0.4414-2.8398-2.4404-6.6797-6-11.5195c3.0391-7,5.3193-14.54,6.8398-22.6201l7.0801,3
				c0.5996,0.2393,0.8994,0.5801,0.8994,1.0195C775.1797,19.3604,774.4795,19.7207,773.0801,19.7207z M783.7598,19.9004
				c-3.2402,5.3203-7,10.9199-11.2793,16.8008c8.2393,6.5195,12.3594,12.0596,12.3594,16.6191c0,2.8809-1.1602,4.3203-3.4795,4.3203
				c-1.001,0-1.7402-0.4395-2.2207-1.3203c-0.4795-0.8789-0.8994-2.4189-1.2598-4.6191
				c-0.8799-5.3604-3.2803-10.2803-7.2002-14.7607c3.3203-7.9199,5.8203-15.3789,7.5-22.3799l6.6602,2.7598
				c0.96,0.4004,1.4404,0.8008,1.4404,1.2002C786.2803,19.1211,785.4404,19.5811,783.7598,19.9004z"/>
			<path class="st0" d="M841.2402,37.4805c0,7.3203-1.5605,13.4014-4.6807,18.2402c-3.6807,5.7598-8.9795,8.6396-15.8994,8.6396
				c-4,0-7.0605-0.96-9.1797-2.8799c-2.1211-1.9199-3.1807-4.2988-3.1807-7.1396c0-1.6797,0.4297-3.1299,1.29-4.3496
				c0.8594-1.2197,2.1094-1.8301,3.75-1.8301c1.2002,0,2.21,0.3701,3.0303,1.1094c0.8193,0.7412,1.2295,1.6904,1.2295,2.8506
				c0,1.0801-0.4199,1.9902-1.2598,2.7295c-0.8398,0.7412-1.7998,1.1104-2.8799,1.1104c-0.7197,0-1.4004-0.1797-2.04-0.54
				c-0.7598-0.4395-1.1807-0.9795-1.2598-1.6201c-0.04,0.3604-0.0605,0.7197-0.0605,1.0801c0,2.2803,1.0205,4.1396,3.0605,5.5801
				c1.8389,1.2803,3.96,1.9199,6.3594,1.9199c5.5596,0,9.5801-2.8799,12.0605-8.6396c1.7998-4.1602,2.7002-9.4404,2.7002-15.8408
				c0-4.6396-0.7803-8.7197-2.3398-12.2393c-2.04-4.6396-5.1006-6.96-9.1807-6.96c-4.2402,0-7.8809,2.2197-10.9199,6.6592
				c-3.4404,5.04-5.1602,9.9814-5.1602,14.8203v7.2002h-6.6602V18.041h6.6602v13.9795c1.4004-4.3594,3.5-7.9395,6.3008-10.7393
				c3.2393-3.1602,6.96-4.7402,11.1592-4.7402c5.5996,0,9.9395,2.1602,13.0205,6.4795
				C839.8799,26.8213,841.2402,31.6406,841.2402,37.4805z"/>
			<path class="st0" d="M904.4805,55.0605c0,3.4805-2.2607,6.1006-6.7803,7.8604c-3.3213,1.3203-7.0205,1.9795-11.1006,1.9795
				c-5.04,0-9.1191-0.7197-12.2393-2.1592c-4.2402-1.9209-6.3604-5.1006-6.3604-9.54c0-6.8408,5.3789-11.7607,16.1396-14.7607
				c-0.4004-3.9189-1.9004-5.8799-4.5-5.8799c-2.5195,0-5.0996,1.0801-7.7393,3.2402c-2.3613,1.96-4.1611,4.2002-5.4004,6.7197
				l-4.3799,8.9404l-6.7197-0.9004l12.8994-26.04h-10.7402v-1.7998h11.5801l3.96-7.9199l7.0205,0.5996l-3.7803,7.3203H901.96v1.7998
				h-26.4004L870.46,34.7812c3.7598-3,7.5195-4.5,11.2803-4.5c4.6797,0,7.5195,2.2598,8.5195,6.7793
				c3.3994-0.8789,7.5195-1.3994,12.3604-1.5596l0.1797,1.7998c-3.4404,0-7.5205,0.501-12.2402,1.5
				c0.3203,1.4805,0.4805,5.8203,0.4805,13.0195h-6.7197c0-1.5596-0.0205-3.6992-0.0605-6.4199l-0.0596-4.4395
				c-6.1201,2.9609-9.1807,7.04-9.1807,12.2402c0,6.6396,4,9.96,12,9.96c6.1201,0,10.7197-1.4199,13.8008-4.2607
				c0.7588-0.6797,1.2598-1.3994,1.5-2.1592c-0.8008,0.8799-1.7803,1.3193-2.9404,1.3193c-1.04,0-1.9199-0.3896-2.6396-1.1699
				c-0.7207-0.7803-1.0801-1.6895-1.0801-2.7295c0-1.0801,0.3994-1.9893,1.2002-2.7305c0.7998-0.7393,1.7393-1.1104,2.8193-1.1104
				c1.4004,0,2.5508,0.4414,3.4502,1.3203C904.0303,52.5215,904.4805,53.6611,904.4805,55.0605z"/>
			<path class="st0" d="M948.8799,26.501h8.8799l3.7803-4.5l5.6396,4.8594v1.1406h-17.8193
				c3.3193,8.2803,9.6191,15.4199,18.8994,21.4199l-0.4199,1.0801c-2.1201,0.1602-3.8203,1.7002-5.0996,4.6201
				c-7.041-6.3604-11.6611-14.5205-13.8604-24.4805v22.0205h1.0801l3.2998-3.8408l5.1006,4.0205v1.3203h-9.4805v11.46
				l-6.8994,1.1992V54.1611h-8.6406l-0.8398-1.5h9.4805V39.041c-4.2812,6.4004-9.6211,12.0205-16.0205,16.8594l-0.4795-0.6592
				V66.041l-6.6006,1.0801V37.9609c-1.6406,2.3994-3.501,4.7197-5.5801,6.96l-1.0195-0.9004
				c4.6797-8.0791,8.2998-18.3389,10.8594-30.7793l7.2607,1.7998c1.0801,0.2803,1.6191,0.7002,1.6191,1.2598
				c0,0.6406-0.7402,1.1807-2.2197,1.6201c-1.4805,3.4404-3.1602,6.9209-5.04,10.4395c1.5996,0.3213,2.4004,0.8008,2.4004,1.4404
				c0,0.5205-0.5605,1-1.6797,1.4404v23.46c5.9189-7.1201,10.6191-16.0205,14.0996-26.7002h-10.9805l-0.6592-1.5h14.04V13.3008
				L949,14.2012c1.3994,0.1602,2.0996,0.5195,2.0996,1.0801s-0.7402,1.1797-2.2197,1.8594V26.501z"/>
			<path class="st0" d="M974.7998,48.2207H976c1.04,3.4004,1.5596,6.2803,1.5596,8.6396c0,3.7607-1.1201,5.6406-3.3594,5.6406
				c-0.6006,0-1.1201-0.2402-1.5605-0.7197c-0.4404-0.4805-0.6592-1.04-0.6592-1.6807c0-0.3193,0.6191-1.9795,1.8594-4.9795
				C974.3994,53.7617,974.7197,51.4609,974.7998,48.2207z M980.8604,17.0205h9.2393l2.7607-3.7197l5.04,3.96v1.2598h-8.5205v6.9004
				h0.6602l2.7002-3.3604l4.0195,3.6006v1.2598h-7.3799v6.7197h0.6602l2.5195-3.4199l2.6406,2.4004
				c4.9199-5.8799,8.7793-12.5801,11.5801-20.1006l6.96,2.5205c0.7588,0.2803,1.1396,0.5801,1.1396,0.8994
				c0,0.5205-0.8604,0.96-2.5801,1.3203c3.9199,4.6006,9.1396,7.96,15.6602,10.0801l-0.1201,0.96
				c-1.4805,0.4004-2.7803,2.001-3.8994,4.7998l-3.6006-2.46v0.2998h-6.54v6h3.9004l1.7998-3.1201l4.9805,3.2402
				c0.9189,0.6006,1.3799,1.1201,1.3799,1.5605c0,0.5195-0.7002,1.0801-2.1006,1.6797v10.2598l-5.3994,0.96v-2.0996h-4.5
				c2.8799,5.2002,7.5391,8.7998,13.9795,10.7998v1.3203c-1.4805,0.2803-2.7803,1.9199-3.8994,4.9199
				c-2.9609-1.6797-5.4307-3.8896-7.4102-6.6299c-1.9805-2.7393-3.21-5.6699-3.6904-8.79
				c-0.8799,4.1201-3.1494,7.6104-6.8096,10.4697s-7.751,4.71-12.2705,5.5498l-0.4199-1.1396
				c3.6797-1.5605,6.8301-3.7998,9.4502-6.7197c2.6191-2.9199,4.1494-6.1807,4.5898-9.7803h-3.2998v1.9795l-5.4004,0.9004V34.2412
				l5.2803,2.6992h3.8398v-6h-6.7197l-0.1797-0.4795c-1.3203,1.1602-2.7402,2.2402-4.2607,3.2402v1.4395h-7.2598v6.96h1.2598
				l1.7402-3.0596l4.6797,3.1201c0.9199,0.5996,1.3809,1.1006,1.3809,1.5c0,0.4795-0.5615,0.8994-1.6807,1.2598
				c-0.4795,5.3203-0.8008,8.6006-0.96,9.8398c-0.6396,4.96-1.4805,8.1201-2.5195,9.4805
				c-1.4404,1.9199-3.4805,2.8799-6.1201,2.8799c-0.7197,0-1.1807-0.1807-1.3799-0.54c-0.1201-0.1602-0.2305-0.6709-0.3301-1.5303
				c-0.1006-0.8604-0.3701-1.5303-0.8105-2.0098c-0.7998-0.7998-2.2197-1.2598-4.2598-1.3799v-1.2002h8.1602
				c1.04-3.6396,1.6396-6.4395,1.7998-8.4004c-0.5996,0.0811-1.2803-0.499-2.04-1.7402c-1.04-1.7588-2.3604-3.1797-3.96-4.2598
				l0.3604-0.96c2.8398,0.5205,4.8389,1.4004,6,2.6406l0.1797-4.1406h-10.0801v1.6201l-5.7002,1.0205V13.9609L980.8604,17.0205z
				 M977.7402,48.5205l0.8994-0.5996c3.0801,2.04,4.6201,4.7402,4.6201,8.0996c0,2.0811-0.7002,3.1201-2.0996,3.1201
				c-0.8809,0-1.4404-0.3594-1.6797-1.0801c-0.1201-0.3994-0.1807-1.1396-0.1807-2.2197
				C979.2998,53.1611,978.7793,50.7207,977.7402,48.5205z M983.9805,25.4209v-6.9004h-3.1807v6.9004H983.9805z M983.9805,33.6406
				v-6.7197h-3.1807v6.7197H983.9805z M983.9805,42.1006v-6.96h-3.1807v6.96H983.9805z M981.04,47.5605l0.6602-0.8398
				c1.7998,0.6807,3.2793,1.6602,4.4395,2.9404c1.2393,1.4395,1.8604,2.96,1.8604,4.5596c0,1.4004-0.5801,2.0996-1.7402,2.0996
				c-0.4795,0-0.8799-0.2793-1.2002-0.8398c-0.0801-0.1992-0.3994-1.0391-0.96-2.5195
				C983.1797,50.4814,982.1592,48.6807,981.04,47.5605z M1011.1602,18.6406c-2.8008,4.1201-5.7402,7.7207-8.8203,10.7998h10.5605
				l2.6992-3.54C1013.8398,23.8604,1012.3604,21.4414,1011.1602,18.6406z M1007.7998,38.4404h-3.7197v9.4805h3.4795
				C1007.7197,45.3613,1007.7998,42.2012,1007.7998,38.4404z M1018.3604,47.9209v-9.4805h-4.5605
				c0,4.2402-0.1201,7.4014-0.3594,9.4805H1018.3604z"/>
		</g>
	</g>
</g>
</svg>
