<?xml version="1.0" encoding="utf-8"?>
<!-- Generator: Adobe Illustrator 25.2.1, SVG Export Plug-In . SVG Version: 6.00 Build 0)  -->
<svg version="1.1" id="レイヤー_1" xmlns="http://www.w3.org/2000/svg" xmlns:xlink="http://www.w3.org/1999/xlink" x="0px"
	 y="0px" viewBox="0 0 1040 80" style="enable-background:new 0 0 1040 80;" xml:space="preserve">
<style type="text/css">
	.st0{fill:#1E1E28;}
</style>
<g>
	<g>
		<g>
			<path class="st0" d="M66.2803,27.1006v24.7197l-7.5,1.2002v-3.8994h-4.5v16.7998l-7.2002,1.3799V49.1211h-4.3203v3.54
				l-7.2002,1.3799V28.6611l-1.1992-0.0605c-2.7607,3.7197-5.2803,6.7607-7.5605,9.1201v0.5996
				c2.5205,0.4414,4.4902,1.3408,5.9102,2.7002c1.4189,1.3604,2.1299,3.0205,2.1299,4.9805c0,0.8008-0.3398,1.6104-1.0195,2.4297
				c-0.6807,0.8203-1.4609,1.2305-2.3398,1.2305c-1.6006,0.1602-2.5801-0.8408-2.9404-3c-0.5205-3.2793-1.1006-5.4004-1.7402-6.3604
				v25.6201l-7.5,1.6797V44.6211l-6,4.6201l-1.1396-1.3809c6.2793-6.7588,11.3594-14.1992,15.2402-22.3193H13.96l-0.6602-1.5h6
				V12.7607l6.7803,0.5996c1.8799,0.1611,2.8203,0.54,2.8203,1.1406c0,0.4795-0.7012,1.0605-2.1006,1.7402v7.7998h1.0801
				l1.6797-2.4004l6,4.6797v-6.1191l7.5,3.8994h4.0205v-11.04l6.7803,0.6602c1.7598,0,2.6396,0.3203,2.6396,0.96
				c0,0.6406-0.7402,1.3008-2.2197,1.9805v7.4395h4.3799L61,20.1406l5.04,3c1.4404,0.8398,2.1602,1.54,2.1602,2.1006
				C68.2002,25.6406,67.5596,26.2607,66.2803,27.1006z M47.0801,35.6211V25.6006h-4.3203v10.0205H47.0801z M47.0801,37.1211h-4.3203
				v10.5h4.3203V37.1211z M54.2803,35.6211h4.5V25.6006h-4.5V35.6211z M54.2803,47.6211h4.5v-10.5h-4.5V47.6211z"/>
			<path class="st0" d="M96.5801,36.4004h1.5596c0.9199,3.4004,1.3799,6.2803,1.3799,8.6406c0,1.6406-0.2197,3.1406-0.6592,4.5
				c-1.041,3.2002-2.7812,4.7998-5.2207,4.7998c-0.8799,0-1.5996-0.2793-2.1592-0.8398c-0.5615-0.5596-0.8408-1.2598-0.8408-2.1006
				c0-0.7197,0.2402-1.3799,0.7207-1.9795c-0.8008-0.3193-1.3604-0.8398-1.6807-1.5605c-0.1602-0.4395-0.3203-1.3799-0.4795-2.8193
				c-0.2803-2.4795-0.7607-4.2393-1.4404-5.2803v25.7998l-7.2002,1.3799V48.1611c-2.4805,2.7207-4.9404,5.0996-7.3799,7.1396
				L72.04,54.2207c3.8398-5.9189,6.4199-12.9795,7.7402-21.1797H73.54l-0.8398-1.5h7.8594v-9.54L73.54,22.6006l-0.4805-1.3799
				c7.8398-2.7197,13.7197-5.5195,17.6406-8.4004l5.2803,5.5205c0.5186,0.6406,0.7793,1.1602,0.7793,1.5596
				c0,0.5205-0.4404,0.7803-1.3193,0.7803c-0.4004,0-0.9004-0.0596-1.5-0.1797l-6.1807,0.7197V31.541h0.9004l3.7803-4.7998l6,5.2197
				v1.0801H87.7598v4.6797c1.7598,0.3604,3.3096,1.0801,4.6504,2.1602c1.3398,1.0801,2.1689,2.4004,2.4902,3.96
				C96.0195,41.0811,96.5801,38.6016,96.5801,36.4004z M109.9004,30.7607v10.2598c3.2793-6.7588,6.1396-14.5996,8.5801-23.5195
				l5.7598,3.6602c1.3994,0.8799,2.0996,1.6602,2.0996,2.3398c0,0.7197-0.8008,1.2207-2.3994,1.5
				c-3.6807,9.7197-8.3613,18.3203-14.04,25.7998v6.54c0,1.3203,0.6797,1.9795,2.04,1.9795h1.8594
				c1.4795,0,2.46-0.6494,2.9404-1.9492c0.4795-1.2998,1.2793-3.5107,2.3994-6.6299h1.5605
				c-0.2402,3.2393-0.1602,5.2793,0.2402,6.1191c0.3994,0.8408,1.5,1.541,3.2998,2.1006c-0.4805,2.7998-1.1904,4.71-2.1299,5.7295
				c-0.9404,1.0205-2.3906,1.5303-4.3506,1.5303h-11.5195c-1.2402,0-2.2412-0.4102-3-1.2295
				c-0.7607-0.8203-1.1406-1.8506-1.1406-3.0908v-3.2998c-3.5605,2.6807-7.5996,5.2803-12.1191,7.7998l-0.7803-1.3799
				c4.3594-3.0391,8.6592-7.1396,12.8994-12.2998V26.9209l6.4805,0.5996c2.1191,0.2012,3.1797,0.6807,3.1797,1.4404
				C111.7598,29.5605,111.1396,30.1611,109.9004,30.7607z M101.2002,16.0605l0.3594-1.4395c4.0801,0.2803,7.04,0.7793,8.8809,1.5
				c2.959,1.1602,4.4395,3.0205,4.4395,5.5801c0,1.04-0.3701,2.0098-1.1104,2.9092c-0.7402,0.9004-1.5293,1.3506-2.3691,1.3506
				c-0.9209,0-1.7207-0.3398-2.4004-1.0205c-0.4404-0.4795-1.0801-1.4395-1.9199-2.8799
				C105.6797,19.6611,103.7197,17.6611,101.2002,16.0605z M118.8398,38.4404l0.96-1.1992c5.7197,3.5605,8.5801,7.5596,8.5801,12
				c0,1.2402-0.3896,2.3799-1.1699,3.4199s-1.6904,1.5596-2.7295,1.5596c-1.9209,0-3-1.6992-3.2402-5.0996
				c-0.1602-2.4004-0.3213-4.0205-0.4805-4.8604C120.4395,42.3809,119.7998,40.4414,118.8398,38.4404z"/>
			<path class="st0" d="M150.7002,16.3604L145.96,25.001h4.1396l2.7607-4.2598l4.6797,3.0596
				c1.4404,0.96,2.1602,1.7207,2.1602,2.2803c0,0.5605-0.6211,1.0801-1.8604,1.5596v9.2998
				c2.3594-5.7988,4.3398-13.999,5.9404-24.5996l7.0801,2.1602c1.7188,0.5205,2.5801,1.0605,2.5801,1.6201
				c0,0.4795-0.6211,0.8604-1.8604,1.1396l-3.2998,6.6602H176.5l2.7598-4.6201l5.4004,3.7197
				c1.7598,1.2002,2.6396,2.001,2.6396,2.4004c0,0.4404-0.6396,0.9209-1.9199,1.4395c-0.1201,5.6807-0.2607,11.3613-0.4199,17.04
				c-0.3604,8.4004-1.1006,14.001-2.2197,16.8008c-1.6807,4.1992-5.2002,6.2998-10.5605,6.2998c-0.7598,0-1.1904-0.4004-1.29-1.2002
				c-0.0996-0.8008-0.1699-1.5811-0.21-2.3398c-0.3203-1.8398-2.4805-2.9795-6.4795-3.4199v-1.6807h11.1602
				c1.0801-6.9189,1.6797-17.8994,1.7998-32.9395h-9.7803c-3.0801,5.7207-5.9609,10.0605-8.6396,13.0195l-0.9004-0.7793v21.0596
				l-7.2002,1.3799v-3.54h-8.3398v4.7998l-7.2002,1.2607v-41.46l7.8008,3.8398l0.3594-12.54l6.6006,1.2598
				c2.04,0.4004,3.0596,0.8604,3.0596,1.3799C152.9199,15.541,152.1797,15.9609,150.7002,16.3604z M150.6396,26.501h-8.3398v12.8398
				h8.3398V26.501z M150.6396,40.8408h-8.3398v14.2197h8.3398V40.8408z M162.2803,35.0205l1.0195-1.0801
				c6.6006,3.0811,9.9004,6.54,9.9004,10.3799c0,1.4404-0.4502,2.6709-1.3506,3.6904c-0.8994,1.0205-2.0303,1.5303-3.3896,1.5303
				c-2.2402,0-3.4404-1.1797-3.5996-3.54c-0.041-0.2793-0.041-0.7598,0-1.4404c0.0391-0.8398,0.0596-1.4795,0.0596-1.9199
				C164.9199,39.6016,164.04,37.0605,162.2803,35.0205z"/>
			<path class="st0" d="M223.6602,25.3604h-10.6797l-10.8604,35.1006l-7.9199-1.5605l10.4395-33.54h-8.3994v-1.6797h8.9395l2.8799-9
				l7.9805,1.0801l-2.5205,7.9199h10.1406V25.3604z M247.3604,31.3604c0,1.4805-0.4805,2.7002-1.4404,3.6602
				s-2.1807,1.4404-3.6602,1.4404c-1.3604,0-2.46-0.3799-3.2998-1.1406c-0.8398-0.7588-1.2598-1.8193-1.2598-3.1797
				c0-1.1191,0.4199-2.0596,1.2598-2.8203c0.8398-0.7588,1.8193-1.1396,2.9404-1.1396c1.3994,0,2.46,0.54,3.1797,1.6201
				c-1.2402-3-4.4609-4.4795-9.6602-4.4404v19.6201c3.2793,1.4805,7.0801,4.0205,11.4004,7.6201l-1.2002,1.3799
				c-3.7197-3.2793-7.1201-5.6191-10.2002-7.0195v6.54c0,7.8398-4.4004,11.7598-13.2002,11.7598
				c-3.8398,0-6.96-0.8398-9.3594-2.5195c-2.8008-1.9209-4.2002-4.7197-4.2002-8.4004c0-3.5996,1.29-6.4893,3.8701-8.6699
				c2.5801-2.1797,6.2695-3.2705,11.0693-3.2705c1.5205,0,2.7402,0.1006,3.6602,0.3008V23.6807h9.4199
				c3.3604,0,5.9795,0.7197,7.8604,2.1602C246.4199,27.2812,247.3604,29.1211,247.3604,31.3604z M227.2598,55.541V44.4404
				c-1.0801-0.1992-2.3008-0.2998-3.6602-0.2998c-3.7598,0-6.7998,0.7607-9.1191,2.2803c-2.6807,1.7998-4.0205,4.4805-4.0205,8.04
				c0,2.7598,1.0205,4.96,3.0596,6.5996c1.9209,1.5205,4.2803,2.2803,7.0801,2.2803
				C225.04,63.3408,227.2598,60.7412,227.2598,55.541z"/>
			<path class="st0" d="M304.96,59.9209v1.7998H284.5v-1.7998c4.04,0,6.0596-0.8193,6.0596-2.46
				c0-0.4805-0.1406-1.0596-0.4199-1.7402l-3.6592-8.8799H268l-2.7002,7.2598c-0.2803,0.8008-0.4199,1.5-0.4199,2.1006
				c0,2.4805,2.1992,3.7197,6.6006,3.7197v1.7998h-16.6201v-1.7998c2.2393,0,4.0391-0.4697,5.3994-1.4102
				c1.3594-0.9395,2.4395-2.5293,3.2402-4.7695l11.8799-32.5205l7.2002-3.4199L298.96,56.7412
				C299.8398,58.8613,301.8398,59.9209,304.96,59.9209z M268.6602,45.041h17.04L276.46,23.3203L268.6602,45.041z"/>
			<path class="st0" d="M345.1602,40.001l9.7803,15.1201c1.1992,1.8398,2.3594,3.0996,3.4795,3.7793
				c1.1191,0.6807,2.6602,1.0205,4.6201,1.0205v1.7998h-13.2598L336.04,40.001h-3.4805v16.2598c0,1.4004,0.4297,2.3604,1.29,2.8799
				c0.8604,0.5205,2.4902,0.7803,4.8906,0.7803v1.7998h-19.9805v-1.7998c2.2803,0,3.8496-0.2598,4.71-0.7803
				c0.8604-0.5195,1.29-1.4795,1.29-2.8799V24.3408c0-1.5996-0.4199-2.6699-1.2598-3.21s-2.4404-0.8105-4.7998-0.8105v-1.7998
				h23.8799c5,0,8.8994,1.001,11.7002,3c2.6787,1.9199,4.0195,4.5,4.0195,7.7402c0,3.4004-1.2598,6.04-3.7803,7.9199
				C352.2793,38.8604,349.1592,39.8008,345.1602,40.001z M332.5596,24.3408v13.8604h6.3008c4.2393,0,6.999-0.6602,8.2793-1.9805
				c1.6396-1.6797,2.46-3.999,2.46-6.96c0-3.0391-0.9199-5.3398-2.7598-6.9004c-1.6006-1.3594-4.2598-2.04-7.9795-2.04
				c-2.5205,0-4.2002,0.2607-5.04,0.7803C332.9805,21.6211,332.5596,22.7012,332.5596,24.3408z"/>
			<path class="st0" d="M390.46,39.4609l-8.9404,2.2803c-0.96-8.2803-3.0596-16-6.2998-23.1602l1.5605-0.9004
				C382.8193,23.8818,387.3789,31.1416,390.46,39.4609z M423.4004,17.8008c0,12-1.9199,22.041-5.7607,30.1201
				c-5.0801,10.7607-12.9805,16.1396-23.6992,16.1396c-3.1201,0-5.7207-0.7002-7.8008-2.0996
				c-2.3203-1.6396-3.4795-3.96-3.4795-6.96c0-2.1602,0.6895-4.0703,2.0703-5.7305c1.3799-1.6592,3.1289-2.4893,5.25-2.4893
				c1.3994,0,2.5996,0.4404,3.5996,1.3193c0.999,0.8809,1.5,2.001,1.5,3.3604c0,1.3604-0.4707,2.5-1.4102,3.4199
				c-0.9404,0.9209-2.0908,1.3799-3.4502,1.3799c-1.4805,0-2.7002-0.4092-3.6602-1.2295s-1.3398-1.9502-1.1396-3.3906
				c-0.7197,0.8809-1.0801,2.0205-1.0801,3.4199c0,2.2002,0.8799,3.9404,2.6406,5.2207c1.5986,1.1602,3.5391,1.7393,5.8193,1.7393
				c8.2402,0,14.1797-5.7393,17.8203-17.2197c2.4395-7.5596,3.6797-16.5596,3.7197-27H423.4004z M405.8203,38.4404l-8.9404,2.1006
				c-0.5996-8.2402-2.3799-16.0996-5.3398-23.5801l1.5596-0.7197C398.2998,21.6807,402.54,29.0811,405.8203,38.4404z"/>
			<path class="st0" d="M484.7197,18.4004c-2.0801,5.4404-4.6406,10.1006-7.6797,13.9805c-3.04,3.8799-6.96,7.5205-11.7598,10.9199
				l-0.3604-0.4805v3.54c0,5.1602-1.5,9.3809-4.5,12.6602c-3,3.2803-7.0605,4.9199-12.1797,4.9199c-3.041,0-5.541-0.7998-7.5-2.3994
				c-2.1211-1.7197-3.1807-4.0596-3.1807-7.0205c0-2.1992,0.6797-4.1299,2.04-5.79c1.3594-1.6592,3.1201-2.4893,5.2803-2.4893
				c1.3203,0,2.4395,0.4297,3.3604,1.29c0.9199,0.8604,1.3799,1.9492,1.3799,3.2695c0,1.2803-0.4404,2.3701-1.3203,3.2695
				c-0.8799,0.9004-1.96,1.3506-3.2402,1.3506s-2.3604-0.46-3.2393-1.3799c-0.8809-0.9199-1.2207-2-1.0205-3.2402
				c-0.96,0.96-1.4395,2.2402-1.4395,3.8398c0,2.2412,0.7793,4.0205,2.3398,5.3398c1.5596,1.3203,3.4795,1.9805,5.7598,1.9805
				c3.4395,0,5.96-1.5996,7.5596-4.7998c1.2002-2.4004,1.8008-5.5205,1.8008-9.3604V30.5205h8.0996v10.2002
				c3.7197-5.04,6.7598-11.8799,9.1201-20.5195h-36.4199v-1.8008H484.7197z"/>
			<path class="st0" d="M544.1201,31.541c0,4.2002-1.3203,7.4199-3.96,9.6602c-2.4805,2.1592-5.8408,3.2393-10.0801,3.2393h-34.0205
				v-7.6797h36.3604c2.5205,0,4.5996-0.4199,6.2402-1.2598c2.1191-1.1191,3.1797-2.8203,3.1797-5.1006
				c0-1.999-0.7197-3.4199-2.1602-4.2598c0.2002,1.4805-0.1406,2.7705-1.0195,3.8701c-0.8809,1.1006-2.0605,1.6504-3.54,1.6504
				c-1.4004,0-2.5498-0.4404-3.4502-1.3203s-1.3496-2.0195-1.3496-3.4199c0-1.3203,0.499-2.4004,1.5-3.2402
				c0.999-0.8398,2.1797-1.2598,3.54-1.2598c2.4795,0,4.5596,0.8906,6.2393,2.6699
				C543.2803,26.8711,544.1201,29.0205,544.1201,31.541z"/>
			<path class="st0" d="M602.2598,20.2607c-8.2793,0-15.3203,2.3008-21.1201,6.9004c-6.2393,4.96-9.3594,11.4805-9.3594,19.5596
				c0,4.4805,1.1787,8.1602,3.54,11.04c2.5586,3.1602,6.0195,4.7402,10.3799,4.7402c3.4795,0,6.4795-0.9395,9-2.8203
				c2.7598-2.04,4.1396-4.7402,4.1396-8.0996c0-1.9199-0.5205-3.3994-1.5596-4.4404c0.0391,1.3604-0.4004,2.4805-1.3203,3.3604
				c-0.9209,0.8799-2.0801,1.3193-3.4795,1.3193c-1.2812,0-2.3613-0.4199-3.2402-1.2598c-0.8809-0.8398-1.3203-1.8994-1.3203-3.1797
				c0-1.3594,0.459-2.4795,1.3799-3.3604c0.9199-0.8789,2.0596-1.3193,3.4199-1.3193c2.4004,0,4.3203,0.8691,5.7607,2.6094
				c1.4395,1.7402,2.1592,3.8311,2.1592,6.2705c0,4.04-1.6797,7.2598-5.04,9.6602c-3,2.1191-6.6201,3.1797-10.8594,3.1797
				c-6.1201,0-11.1602-1.4805-15.1201-4.4404c-4.4404-3.2793-6.6602-7.8789-6.6602-13.7998c0-6.5195,2.9404-12.2598,8.8203-17.2197
				c4.8799-4.0801,10.8799-7,18-8.7598h-33.6602v-1.8008h46.1396V20.2607z M601.6602,34.9004l-4.6201,3.4805
				c-1.4805-3.5195-3.54-6.8193-6.1797-9.9004l1.3799-1.0195c1.9199,0.9209,3.5996,1.96,5.04,3.1201
				C598.7197,31.7412,600.1797,33.1816,601.6602,34.9004z M608.0195,30.8203l-4.5,3.4805
				c-1.4795-3.2793-3.5605-6.5791-6.2393-9.9004l1.4395-1.1992C602.4795,25.2812,605.5801,27.8203,608.0195,30.8203z"/>
			<path class="st0" d="M653.7402,18.5205v6.6006h-22.9805l-1.0195,14.5801c2.8799-3.04,6.3193-4.5605,10.3193-4.5605
				c4.2803,0,7.8506,1.2598,10.71,3.7803c2.8594,2.5195,4.29,5.9004,4.29,10.1396c0,4.2812-1.6406,7.6406-4.9199,10.0801
				c-2.96,2.2412-6.6396,3.3604-11.04,3.3604c-3.3594,0-6.3203-0.7402-8.8799-2.2197c-3.04-1.7598-4.5596-4.2197-4.5596-7.3809
				c0-1.4785,0.4297-2.709,1.29-3.6895c0.8594-0.9795,1.9697-1.4697,3.3301-1.4697c1.0801,0,1.9795,0.3594,2.7002,1.0791
				c0.7197,0.7207,1.0791,1.6611,1.0791,2.8203c0,0.8398-0.3994,1.7402-1.1992,2.7002c-0.8008,0.96-1.2002,1.7002-1.2002,2.2197
				c0,1.041,0.6992,1.9902,2.0996,2.8506s2.9404,1.29,4.6201,1.29c2.4395,0,4.3799-1.0098,5.8203-3.0303
				c1.4395-2.0195,2.1602-4.8096,2.1602-8.3701c0-3-0.5811-5.5801-1.7402-7.7402c-1.4805-2.6787-3.6006-4.0195-6.3604-4.0195
				c-3.96,0-6.96,1.7998-9,5.3994h-1.9795l1.6797-24.4199H653.7402z"/>
			<path class="st0" d="M700.7803,16.541l-2.9404,3.4795h10.7998l2.5205-4.5596l6.1201,4.1396
				c1.1592,0.7607,1.7393,1.3604,1.7393,1.7998c0,0.4805-0.7197,1.0205-2.1592,1.6201v13.3799l-7.8008,1.2002v-2.3398h-19.5v4.5596
				h27.7207l3.7793-4.7998l6.1201,5.1006v1.1992h-37.6201v4.9209h27.2402l2.4004-3.9004l5.3398,3.3604
				c1.4795,0.9199,2.2197,1.6406,2.2197,2.1592c0,0.4004-0.6396,0.8613-1.9199,1.3809c-0.5605,4.4395-1.0605,7.8398-1.5,10.1992
				c-0.3203,1.8408-0.8398,3.3994-1.5596,4.6807c-1.2812,2.3193-3.8809,3.4795-7.7998,3.4795c-0.8809,0-1.3203-0.8994-1.3203-2.7002
				c0-2.4795-1.2002-3.8789-3.6006-4.1992v1.7393l-7.1992,0.7803v-2.8203h-18.7207v3.2402l-7.1992,0.9004V49.3604l7.6191,0.96
				c1.04,0.1201,1.5605,0.4805,1.5605,1.0801c0,0.6006-0.6602,1.2207-1.9805,1.8604v5.6396h5.7002v-10.5l-7.0801,0.96V16.001
				l7.7402,4.0195h3.2402l0.3594-7.5l5.9404,1.0205c2.4795,0.4404,3.7197,0.96,3.7197,1.5596
				C702.7598,15.541,702.0996,16.0215,700.7803,16.541z M709.0596,21.5205h-19.5v4.9199h19.5V21.5205z M709.0596,27.9404h-19.5
				v5.8203h19.5V27.9404z M717.0996,47.7412H696.04v11.1592h5.8203v-9.2393l6.54,0.7793c1.7998,0.2012,2.6992,0.6006,2.6992,1.2002
				c0,0.5205-0.6807,1.1807-2.04,1.9805v5.6992h6.54C716.0801,55.9609,716.5801,52.1016,717.0996,47.7412z"/>
			<path class="st0" d="M738.7598,57.1006V38.8008h-5.7002l-0.8994-1.5h6.1201l2.46-4.2598l4.5,3
				c2.1992,1.4805,3.2998,2.4805,3.2998,3c0,0.4404-0.7607,0.8604-2.2803,1.2598v14.3398c0.3994,1.7207,1.6592,2.9209,3.7803,3.6006
				c2,0.5996,5.499,0.8994,10.5,0.8994h26.9404v1.2598c-2.04,0.5605-3.2207,2.4395-3.54,5.6406h-24.1807
				c-3.96,0-7.1201-0.8008-9.4795-2.4004c-2.1602-1.4795-4.041-3.96-5.6406-7.4395l-6.4795,7.7998
				c-0.6807,1.7598-1.2207,2.6396-1.6201,2.6396c-0.6406,0-1.54-1.4395-2.7002-4.3203l-1.5-3.7197L738.7598,57.1006z
				 M735.2803,16.1211l0.2998-1.0801c3.5195,0.0801,6.1592,0.5,7.9199,1.2598c2.5596,1.1201,3.8398,2.9004,3.8398,5.3398
				c0,1.2402-0.4004,2.3203-1.2002,3.2402c-0.7998,0.9209-1.7803,1.3799-2.9395,1.3799c-1.6807,0-2.7812-1.2197-3.2998-3.6602
				c-0.3604-1.5996-0.7412-2.7598-1.1406-3.4795C738.04,17.8818,736.8789,16.8809,735.2803,16.1211z M762.3398,19.6611
				c-3.96,6.4404-7.6201,12.0205-10.9795,16.7393c3.96,3.4414,6.7998,6.3008,8.5195,8.5801c2.1992,2.8408,3.2998,5.5205,3.2998,8.04
				c0,1.2402-0.4199,2.3398-1.2598,3.2998c-0.8398,0.9609-1.8809,1.4209-3.1201,1.3809c-1.2803-0.04-2.1602-0.5605-2.6396-1.5605
				c-0.4004-0.7588-0.7002-2.2998-0.9004-4.6201c-0.0801-0.96-0.2402-2.3994-0.4795-4.3193
				c-0.2012-1.3203-0.8311-3.0908-1.8906-5.3105s-2.1699-3.9297-3.3301-5.1299c2.4395-7.7197,4.3809-15.3994,5.8203-23.04
				l4.3799,1.7998c3.2793,1.3604,4.9199,2.3613,4.9199,3C764.6797,19.041,763.9004,19.4209,762.3398,19.6611z M773.5596,19.8408
				c-4,6.4404-7.9199,12.1602-11.7598,17.1602c4.1602,3,7.0801,5.5195,8.7598,7.5596c2.1602,2.5205,3.2402,5.1006,3.2402,7.7402
				c0,1.3203-0.4004,2.5605-1.2002,3.7197c-0.7998,1.1611-1.6406,1.7402-2.5195,1.7402c-1.4805,0-2.5-0.3994-3.0605-1.2002
				c-0.4404-0.6797-0.7002-1.959-0.7793-3.8398c-0.041-0.999-0.1406-2.2598-0.2998-3.7803c-0.3604-3.5596-2.3408-7.5596-5.9404-12
				c2.4395-6.0791,4.6592-13.5391,6.6602-22.3799l4.6797,1.7402c2.96,1.1201,4.4404,1.96,4.4404,2.5195
				C775.7803,19.501,775.0391,19.8408,773.5596,19.8408z M784.2402,20.0205c-4.6006,6.7207-8.6006,12.2998-12,16.7402
				c3.2793,2.0801,6.0391,4.3408,8.2793,6.7803c2.96,3.2803,4.4404,6.4004,4.4404,9.3594c0,1.1611-0.3604,2.2207-1.0801,3.1807
				c-0.8398,1.04-1.8203,1.5596-2.9395,1.5596c-1.0801,0-1.8809-0.4795-2.4004-1.4395c-0.5205-0.96-0.9404-2.5801-1.2598-4.8604
				c-0.3604-2.7998-0.9209-5.0996-1.6807-6.9004c-1.1201-2.6787-2.9004-5.2393-5.3398-7.6797
				c3.2793-7.7197,5.7598-15.1592,7.4404-22.3203l4.7998,1.9199c2.7598,1.1211,4.1396,1.9004,4.1396,2.3408
				C786.6396,19.1807,785.8398,19.6211,784.2402,20.0205z"/>
			<path class="st0" d="M841.7803,37.4209c0,10.2002-2.6807,17.5195-8.04,21.96c-4.001,3.3203-8.3613,4.9795-13.0801,4.9795
				c-3.6006,0-6.5801-0.8799-8.9404-2.6396c-2.6797-1.959-4.0195-4.6797-4.0195-8.1602c0-1.7188,0.4795-3.1797,1.4395-4.3799
				s2.2803-1.7998,3.96-1.7998c1.3594,0,2.54,0.4199,3.54,1.2598s1.5,1.9404,1.5,3.2998c0,1.2402-0.4902,2.3311-1.4697,3.2705
				c-0.9805,0.9404-2.0908,1.4102-3.3301,1.4102c-2.04,0-3.2998-0.6992-3.7803-2.1006c0.04,2.3613,1.0801,4.3008,3.1201,5.8203
				c1.8398,1.3604,3.9805,2.04,6.4199,2.04c5.4805,0,9.3799-2.9199,11.7002-8.7598c1.5996-4,2.4004-9.2197,2.4004-15.6602
				c0-4.5996-0.6602-8.5996-1.9805-12c-1.8398-4.7998-4.6797-7.2002-8.5195-7.2002c-3.96,0-7.4209,2.2197-10.3799,6.6602
				c-3.1602,4.7607-4.7402,9.46-4.7402,14.0996v7.7998h-8.04V17.8008h8.04v13.3799c1.4795-4.2793,3.54-7.7197,6.1797-10.3203
				c3.0801-3,6.6797-4.5,10.7998-4.5c5.6006,0,9.96,2.1807,13.0801,6.54C840.4004,26.7412,841.7803,31.5811,841.7803,37.4209z"/>
			<path class="st0" d="M905.0195,55.001c0,3.5605-2.2402,6.2402-6.7197,8.04c-3.2803,1.3193-7,1.9795-11.1602,1.9795
				c-12.4795,0-18.7197-4.0391-18.7197-12.1201c0-3.7988,1.7402-7.0801,5.2197-9.8398c2.6406-2.1191,6.1201-3.7998,10.4404-5.04
				c-0.4404-3.7998-1.8408-5.7002-4.2002-5.7002c-2.3604,0-4.7803,1.1807-7.2598,3.54c-2.0801,1.9609-3.7197,4.1807-4.9199,6.6602
				l-4.1406,8.9404l-8.5791-0.9004l12.8994-26.3994h-10.5v-1.7402h11.4004l3.7197-7.6201l8.7002,0.5996l-3.4805,7.0205h24.9004
				v1.7402h-25.6797l-4.8604,9.7793c3.4795-2.7197,6.9795-4.0801,10.5-4.0801c4.6396,0,7.6201,2.2012,8.9395,6.6006
				c3.8408-0.7197,7.8398-1.1191,12-1.2002l0.2402,1.7998c-3.8398,0-7.7998,0.4004-11.8799,1.2002
				c0.4805,2.1211,0.7197,6.4199,0.7197,12.9004h-8.2793c0-2.1602-0.0205-4.2607-0.0605-6.3008l-0.0596-3.8994
				c-4.7207,3.04-7.0801,7.0195-7.0801,11.9395c0,6.96,3.5596,10.4404,10.6797,10.4404c1.7998,0,3.5791-0.1797,5.3398-0.54
				c3.3994-0.6797,5.9199-1.7197,7.5605-3.1201c0.8789-0.7197,1.4795-1.46,1.7998-2.2197c-0.8799,0.96-2.001,1.4395-3.3604,1.4395
				c-1.2402,0-2.2705-0.4697-3.0898-1.4092c-0.8203-0.9395-1.2295-2.0303-1.2295-3.2705c0-1.2002,0.4893-2.25,1.4697-3.1504
				c0.9795-0.8994,2.0703-1.3496,3.2695-1.3496c1.6396,0,2.96,0.4805,3.96,1.4404S905.0195,53.4014,905.0195,55.001z"/>
			<path class="st0" d="M949.4805,26.4404h7.5L961,21.6406l6.0596,5.1602v1.1396h-17.2197
				c3.3203,7.6406,9.4199,14.3408,18.2998,20.1006l-0.1797,0.96c-1.3203,0.2402-2.5,0.9297-3.54,2.0693
				c-1.041,1.1406-1.7803,2.4707-2.2197,3.9902c-6.6006-5.4395-10.8408-13.3799-12.7197-23.8193v21.1191l3.4199-4.0195l5.46,4.3799
				v1.4404h-8.8799v10.8594l-8.1006,1.5V54.1611H933.04l-0.6602-1.5h9V41.3203c-4.4805,5.1211-9.54,9.8008-15.1797,14.04v9.96
				l-8.1006,1.5V38.7412l-4.6191,5.8799l-1.0801-0.9004c3.9189-7.959,7.0996-18.1201,9.54-30.4795l6.6592,1.3799
				c2.4395,0.5195,3.6602,1.1396,3.6602,1.8594c0,0.6006-0.8008,1.1807-2.3994,1.7402l-4.6201,9.2998
				c1.4795,0.2803,2.2197,0.7207,2.2197,1.3203c0,0.4404-0.4199,0.9805-1.2598,1.6201v22.6797
				c4.7598-6.1592,8.96-14.5596,12.5996-25.2002h-9.8994l-0.7207-1.5h13.2002V13.2412l6.96,0.7197
				C950.7793,14.2012,952,14.7207,952,15.5205c0,0.6807-0.8398,1.3203-2.5195,1.9199V26.4404z"/>
			<path class="st0" d="M974.2002,48.4004h1.3799c1.5195,3.6406,2.2803,6.4414,2.2803,8.4004c0,2.3604-0.5811,4.041-1.7402,5.04
				c-0.5605,0.5205-1.2402,0.7803-2.04,0.7803c-0.6406,0-1.2305-0.2598-1.7705-0.7803c-0.54-0.5195-0.8096-1.0996-0.8096-1.7402
				c0-0.4795,0.2598-1.3594,0.7803-2.6396c0.2793-0.7598,0.6191-1.7598,1.0195-3
				C973.9004,52.7812,974.2002,50.7617,974.2002,48.4004z M981.4004,16.9609h8.3994l2.8799-3.8398l5.2803,4.0195v1.3203h-8.0996
				v7.2002h0.2393l2.8809-3.4199l4.0791,3.5996v1.3203h-7.1992v6.3594l2.8799-2.8799l2.3398,2.1602
				c4.3203-5.4795,8.0195-12.2998,11.0996-20.46l6.3008,2.2197c1.999,0.4805,3,1.001,3,1.5605c0,0.4795-0.9004,0.9805-2.7002,1.5
				c4.0801,4.0801,9.1992,6.8604,15.3594,8.3398l-0.2393,0.96c-1.6807,0.8008-3.0215,2.7803-4.0205,5.9395
				c-1.2402-0.6797-2.4404-1.4189-3.5996-2.2197h-5.6406v6.1797h2.6406l1.7998-3.3594l4.8604,3.0596
				c1.5195,0.96,2.2793,1.7012,2.2793,2.2207c0,0.4404-0.6201,1.04-1.8594,1.7998v9.8994l-6.6006,1.2002v-2.2197h-3.5996
				c2.5596,4.2402,7.2197,7.3799,13.9795,9.4199l-0.1797,1.3203c-1.6406,0.8398-2.8604,2.8994-3.6602,6.1797
				c-2.9199-1.4004-5.3398-3.3203-7.2598-5.7598c-2.04-2.5205-3.2207-5.1992-3.54-8.04c-1.4404,3.96-4,7.2402-7.6797,9.8398
				c-3.3604,2.4004-7.2812,3.9795-11.7607,4.7402l-0.4199-1.2002c3.8408-1.7607,6.9395-4.04,9.3008-6.8398
				c2.5195-2.96,3.9189-6.1807,4.1992-9.6602h-1.9795v1.9199l-6.6006,1.0195v-7.6191l-1.3799,0.6592
				c-0.5996,5.2012-0.9805,8.3408-1.1396,9.4199c-0.7197,4.8408-1.5,7.9004-2.3398,9.1807
				c-1.3604,2.0791-3.5605,3.1201-6.6006,3.1201c-0.96,0-1.5498-0.1309-1.7695-0.3906c-0.2207-0.2607-0.3506-0.9297-0.3896-2.0098
				c-0.0811-2.2393-1.6406-3.5-4.6807-3.7803v-1.1992h7.6807c0.4795-2.0801,0.999-4.6602,1.5596-7.7402
				c-1.4004-2.5996-3.1797-4.5605-5.3398-5.8799l0.4199-1.0801c2.0791,0.2803,3.9004,0.8398,5.46,1.6797l0.1201-2.8799H981.46
				v1.6201l-6.9004,1.1396V13.4209L981.4004,16.9609z M977.2598,48.4609l1.0205-0.7197c3.4795,2.2793,5.2197,4.8799,5.2197,7.7998
				c0,0.8799-0.2002,1.6406-0.5996,2.2793c-0.4414,0.7607-1.0205,1.1406-1.7402,1.1406c-1.2812,0-2.001-1.1406-2.1602-3.4199
				C978.7998,52.6611,978.2197,50.3008,977.2598,48.4609z M980.6797,47.4404l0.6602-1.0195
				c2.3193,0.8799,4.0596,1.9404,5.2197,3.1797c1.1602,1.2402,1.7402,2.6807,1.7402,4.3203c0,1.6006-0.5996,2.3994-1.7998,2.3994
				c-0.4404,0-0.8203-0.2588-1.1396-0.7793c-0.1201-0.2002-0.4805-1-1.0801-2.4004
				C983.2793,50.8213,982.0801,48.9209,980.6797,47.4404z M983.2598,25.6611v-7.2002H981.46v7.2002H983.2598z M983.2598,33.5205
				v-6.3594H981.46v6.3594H983.2598z M983.2598,42.3408v-7.3203H981.46v7.3203H983.2598z M996.0996,33.7012l0.8408,0.7197v0.5996
				h-7.0801v7.3203h0.2998l1.7998-3.4199c3.2002,2.04,5.4004,3.54,6.5996,4.5v-9.7197l6.4209,3.1191h2.7598v-6.1797h-6.8398
				C999.6191,31.6816,998.0195,32.7012,996.0996,33.7012z M1011.5801,19.001c-2.3203,3.1201-5.2607,6.5-8.8203,10.1396h10.7998
				l2.04-2.8799C1013.6797,24.1406,1012.3398,21.7217,1011.5801,19.001z M1007.7402,38.3203h-2.5801v9.6006h2.2197
				C1007.6201,43.6816,1007.7402,40.4805,1007.7402,38.3203z M1017.7598,47.9209v-9.6006h-3.1201l-0.2393,9.6006H1017.7598z"/>
		</g>
	</g>
</g>
</svg>
