<?xml version="1.0" encoding="utf-8"?>
<!-- Generator: Adobe Illustrator 25.2.1, SVG Export Plug-In . SVG Version: 6.00 Build 0)  -->
<svg version="1.1" id="レイヤー_1" xmlns="http://www.w3.org/2000/svg" xmlns:xlink="http://www.w3.org/1999/xlink" x="0px"
	 y="0px" viewBox="0 0 1040 80" style="enable-background:new 0 0 1040 80;" xml:space="preserve">
<style type="text/css">
	.st0{fill:#1E1E28;}
</style>
<g>
	<g>
		<g>
			<path class="st0" d="M13.2402,48.041l-0.6006-1.0205c3.9199-3.3594,7.1201-6.7998,9.6006-10.3193
				c2.8398-4.04,5.0596-7.7598,6.6602-11.1602H13.96l-0.9004-1.5h9.1807V12.8203l3.8398,0.4805
				c1.3994,0.1602,2.0996,0.501,2.0996,1.0195c0,0.5205-0.6807,1.0205-2.04,1.5v8.2207h3.0605l1.5596-2.2803L33.04,23.501
				c1.2793,1,1.9199,1.7197,1.9199,2.1602s-0.7002,0.7598-2.0996,0.96l-6.7207,9.8398v2.46
				c2.2002,0.4004,4.1406,1.0605,5.8203,1.9795c2.4004,1.2812,3.5996,2.7607,3.5996,4.4404c0,1.0801-0.5195,1.6201-1.5596,1.6201
				c-0.5996,0-1.7998-1.0205-3.5996-3.0605c-1.9609-2.2393-3.3809-3.499-4.2607-3.7793v26.2197l-3.8994,0.4795V41.1406
				C19.0801,43.9814,16.0801,46.2812,13.2402,48.041z M40.1797,52.9609l-3.5996,0.7803V21.1611l3.7803,2.3994H49V13.001
				l3.8398,0.4199c1.3994,0.1602,2.1006,0.501,2.1006,1.0195c0,0.5605-0.6807,1.0801-2.04,1.5605v7.5596h8.46l1.3799-2.2197
				c3.2793,1.4004,4.9199,2.4004,4.9199,3s-0.6211,1-1.8604,1.2002v25.9795l-3.5996,0.7207v-3.3008h-9.2998v17.1602L49,67.001
				V48.9404h-8.8203V52.9609z M49,25.0605h-8.8203v10.2598H49V25.0605z M49,36.8203h-8.8203v10.6201H49V36.8203z M62.2002,25.0605
				h-9.2998v10.2598h9.2998V25.0605z M62.2002,36.8203h-9.2998v10.6201h9.2998V36.8203z"/>
			<path class="st0" d="M73.3604,55.6006L72.46,54.8203c4.4795-6.5596,7.7598-14.0186,9.8398-22.3799h-7.5l-0.7197-1.5h8.7002
				V20.2607l-9.1201,1.9805l-0.4805-1.0801c7.8799-2.4004,14.2207-5,19.0205-7.8008l3.1797,2.7607
				c0.4395,0.3594,0.6602,0.6602,0.6602,0.8994c0,0.3213-0.3604,0.4805-1.0801,0.4805c-0.4795,0-1.1006-0.0801-1.8604-0.2402
				l-6.7197,2.1602v11.5195h3.2998l2.5801-3.1201l4.3203,3.7207v0.8994H86.3799v6.1201c5.2803,2.04,7.9199,4.2002,7.9199,6.4805
				c0,0.5205-0.1797,1.0107-0.54,1.4697c-0.3594,0.46-0.7598,0.6904-1.2002,0.6904c-0.7598,0-1.5801-0.8193-2.46-2.46
				c-1.2803-2.4004-2.5195-4.04-3.7197-4.9209v26.5801l-3.5996,0.7207V43.001C79.9395,47.8818,76.7998,52.0811,73.3604,55.6006z
				 M90.5801,66.8203l-0.8398-0.96c3.6797-2.4805,7.8994-6.5791,12.6602-12.2998V25.1211l3.7793,0.4199
				c1.1602,0.1201,1.7402,0.3398,1.7402,0.6602c0,0.2803-0.6406,0.7998-1.9199,1.5596V48.041
				c4.7598-7.7197,9.0391-17.9795,12.8398-30.7803l4.2598,2.1602c0.7998,0.4004,1.2002,0.7197,1.2002,0.96
				c0,0.2803-0.7402,0.5996-2.2197,0.96c-2.0801,5.8408-4.4609,11.5-7.1396,16.9795c-2.5605,5.2012-5.541,10.0801-8.9404,14.6406
				v7.0801c0,1.5996,0.7998,2.3994,2.4004,2.3994h5.5801c1.4395,0,2.5195-0.5293,3.2393-1.5898
				c0.7207-1.0596,1.4795-3.4697,2.2803-7.2295h1.3799c-0.4004,4.0801-0.54,6.46-0.4199,7.1396
				c0.1592,0.8799,0.8594,1.4609,2.0996,1.7402c-0.3994,1.959-1.8203,2.9395-4.2598,2.9395h-13.0195
				c-1.9199,0-2.8799-0.8994-2.8799-2.6992v-5.4004C98.4404,61.2207,94.5,64.3809,90.5801,66.8203z M97.3604,37.6611h1.0801
				c0.3594,2.4805,0.54,4.5596,0.54,6.2393c0,1.9199-0.2402,3.5605-0.7207,4.9199c-0.8799,2.4814-2.1807,3.7207-3.8994,3.7207
				c-0.8809,0-1.3203-0.5596-1.3203-1.6807c0-0.3594,0.2998-1.0195,0.9004-1.9795c0.4795-0.7598,0.9795-1.5391,1.5-2.3398
				C96.7197,44.3809,97.3604,41.4209,97.3604,37.6611z M102.0996,16.1211l0.3008-0.9004c7.2393,2.2402,10.8594,5.04,10.8594,8.4004
				c0,0.4004-0.1104,0.7793-0.3301,1.1396s-0.4707,0.54-0.75,0.54c-1.1602,0-2.3008-0.9004-3.4199-2.7002
				c-0.8008-1.2393-1.5205-2.2197-2.1602-2.9395C105.4795,18.4609,103.9795,17.2812,102.0996,16.1211z M118.2402,38.2012
				l0.5996-0.8408c5.7998,4.1611,8.7002,8.1602,8.7002,12c0,0.6006-0.1797,1.2109-0.54,1.8301
				c-0.3604,0.6211-0.7002,0.9307-1.0195,0.9307c-0.9609,0-1.6201-0.2598-1.9805-0.7803c-0.2803-0.3994-0.5996-1.46-0.96-3.1797
				C122.2793,44.5215,120.6797,41.2012,118.2402,38.2012z"/>
			<path class="st0" d="M139.2402,62.1406l-3.9004,0.7197V22.6006l4.4404,2.3398h2.5195c0.9199-3.9189,1.54-7.8789,1.8604-11.8799
				l2.9395,0.7803c2.3604,0.6406,3.54,1.1602,3.54,1.5596c0,0.3213-0.7002,0.6602-2.0996,1.0205l-4.5596,8.5195h7.6797
				l1.6797-2.3994l1.9199,1.3799c1.3594,1,2.04,1.7402,2.04,2.2197c0,0.4404-0.4404,0.8398-1.3193,1.2002v31.7998l-3.9004,0.7197
				v-3.6592h-12.8398V62.1406z M152.0801,26.4404h-12.8398v13.0205h12.8398V26.4404z M152.0801,40.9609h-12.8398v13.7402h12.8398
				V40.9609z M158.0801,39.1611L157,38.501c4.2793-6.6396,7.2793-15.2197,9-25.7402l2.7598,0.96c2,0.7197,3,1.3203,3,1.7998
				c0,0.3604-0.6396,0.7607-1.9199,1.2002c-0.9209,2.7207-1.7402,4.9805-2.46,6.7803H180.46l1.7998-2.46
				c2.8799,2.2402,4.3203,3.5605,4.3203,3.96c0,0.4795-0.54,0.7197-1.6201,0.7197v16.4404c0,8.6006-1.0195,14.8896-3.0596,18.8701
				c-2.04,3.9795-5.1807,5.9697-9.4199,5.9697c-0.4004,0-0.6406-0.5098-0.7207-1.5303c-0.0801-1.0195-0.2002-1.5303-0.3594-1.5303
				l-6-1.3193v-0.9004h11.3994c2.8398-3.5195,4.2598-9.9795,4.2598-19.3799V25.001h-14.3994
				C164.0596,31.1611,161.2002,35.8818,158.0801,39.1611z M162.7002,36.9404l0.4795-0.8398c2.5596,1.041,4.8496,2.3604,6.8701,3.96
				c2.0195,1.6006,3.0303,3.2998,3.0303,5.1006c0,0.7998-0.25,1.54-0.75,2.2197c-0.501,0.6807-1.0498,1.0195-1.6504,1.0195
				c-0.5605,0-1.0195-0.2793-1.3799-0.8398c-0.2002-0.3594-0.6396-1.3994-1.3193-3.1201
				C166.6992,41.1611,164.9395,38.6611,162.7002,36.9404z"/>
			<path class="st0" d="M225.0996,25.6006h-14.3398L199.96,59.8604l-4.1396-1.0791l10.5596-33.1807h-9.54v-1.6797h10.0801
				l2.7598-8.7002l4.1406,0.96l-2.46,7.7402h13.7393V25.6006z M246.2803,51.6406l-1.1406,1.2598
				c-3.5996-3-7.2598-5.2793-10.9795-6.8398v6.6006c0,7.9199-4.1611,11.8799-12.4805,11.8799c-3.3203,0-6.1201-0.8398-8.3994-2.5205
				c-2.6006-1.9199-3.9004-4.5791-3.9004-7.9795c0-3.6797,1.3203-6.5801,3.96-8.7002c2.6406-2.1201,6.2197-3.1797,10.7402-3.1797
				c2.1191,0,4.04,0.2197,5.7598,0.6592V23.9209h5.2197c7.1201,0,10.6807,2.2598,10.6807,6.7803c0,1.4395-0.54,2.6602-1.6201,3.6592
				c-1.0801,1.001-2.3809,1.5-3.9004,1.5c-0.7598,0-1.4199-0.2588-1.9795-0.7793c-0.5605-0.5195-0.8398-1.1602-0.8398-1.9199
				c0-1.8008,0.8789-2.7002,2.6396-2.7002c1.7998,0,2.7002,0.9209,2.7002,2.7598C243.5801,32.5811,244,31.7412,244,30.7012
				c0-3.4404-3.2803-5.1602-9.8398-5.1602v18.6602C238,45.7217,242.04,48.2012,246.2803,51.6406z M229.8398,52.6611v-8.04
				c-1.8398-0.4805-3.7598-0.7207-5.7598-0.7207c-3.9209,0-7.0498,0.9004-9.3896,2.7002c-2.3408,1.7998-3.5107,4.2812-3.5107,7.4404
				c0,2.8408,1.1201,5.0605,3.3604,6.6602c1.9199,1.4004,4.2197,2.0996,6.9004,2.0996
				C227.04,62.8008,229.8398,59.4209,229.8398,52.6611z"/>
			<path class="st0" d="M270.04,61.7207h-13.7998v-1.7998c2.6787,0,4.9795-1.8193,6.8994-5.46l14.1006-34.4404l3.8994-2.2197
				l15.7207,37.9199c1.1592,2.8008,3.499,4.2002,7.0195,4.2002v1.7998h-17.2197v-1.7998c3.5195,0,5.2803-0.9795,5.2803-2.9404
				c0-0.4795-0.1201-1.0195-0.3604-1.6201l-3.2998-8.6992h-19.9805L265,55.001c-0.2803,0.7197-0.4199,1.3604-0.4199,1.9199
				c0,2.001,1.8193,3,5.46,3V61.7207z M278.6797,21.5205l-9.5996,23.3398H287.5L278.6797,21.5205z"/>
			<path class="st0" d="M336.1602,61.7207h-16.5v-1.7998c2.1191,0,3.5596-0.1797,4.3203-0.54
				c1.2793-0.5596,1.9199-1.7793,1.9199-3.6602V24.3408c0-1.7197-0.4307-2.8203-1.29-3.2998
				c-0.8613-0.4805-2.5107-0.7207-4.9502-0.7207v-1.7998h20.2803c3.7988,0,7.3389,0.9004,10.6191,2.7002s4.9209,4.5,4.9209,8.0996
				c0,3.3213-1.5605,5.9805-4.6807,7.9805c-2.6006,1.6406-5.7207,2.5801-9.3594,2.8203l12.2393,17.04
				c1.8398,1.8398,4.2002,2.7598,7.0801,2.7598v1.7998h-10.6201l-13.7393-21.5996h-6v15.5996c0,1.96,0.54,3.2012,1.6191,3.7197
				c0.6006,0.3213,1.9805,0.4805,4.1406,0.4805V61.7207z M330.4004,24.3408v13.9795h6.8398c3.6797,0,6.7197-0.6191,9.1201-1.8594
				c3.0791-1.5605,4.6201-4,4.6201-7.3203c0-3.3594-1.4209-5.6699-4.2607-6.9297c-2.8408-1.2598-6.2197-1.8906-10.1396-1.8906
				c-2.0801,0-3.501,0.1611-4.2598,0.4805C331.0391,21.3613,330.4004,22.541,330.4004,24.3408z"/>
			<path class="st0" d="M388.8398,39.2207l-4.6797,1.9805c-1.9199-8.4395-4.5-15.54-7.7402-21.3008l1.3799-0.8994
				C382.2402,24.7217,385.9199,31.4609,388.8398,39.2207z M422.3203,18.1006c-0.1201,14.0801-2.751,25.1309-7.8906,33.1504
				c-5.1396,8.0205-12.1904,12.0303-21.1494,12.0303c-2.9209,0-5.3613-0.7207-7.3203-2.1602
				c-2.0801-1.5605-3.1201-3.6201-3.1201-6.1807c0-1.959,0.7803-3.6387,2.3398-5.04c1.4404-1.2793,3.0605-1.9199,4.8604-1.9199
				c0.7998,0,1.4795,0.2607,2.04,0.7803c0.5596,0.5205,0.8398,1.1396,0.8398,1.8604c0,0.7598-0.2695,1.4004-0.8096,1.9199
				c-0.54,0.5205-1.1699,0.7793-1.8906,0.7793c-1.7607,0-2.6396-0.7988-2.6396-2.3994c0-0.2793,0.0195-0.4805,0.0596-0.6006
				c-2.04,0.8408-3.0596,2.3809-3.0596,4.6201c0,2.1211,0.9199,3.7803,2.7598,4.9805c1.5996,1.0801,3.5791,1.6201,5.9404,1.6201
				c6.7197,0,12.3193-3.46,16.7998-10.3799c5.04-7.8398,7.6201-18.8604,7.7402-33.0605H422.3203z M404.0195,38.0811l-4.7393,1.7998
				c-1.4404-8.4004-3.6406-15.6396-6.6006-21.7197l1.4404-0.8408C398.2393,23.2412,401.5391,30.1611,404.0195,38.0811z"/>
			<path class="st0" d="M462.8799,45.6406c0,5.7207-1.3604,10.1309-4.0801,13.2305c-2.7207,3.0996-6.3809,4.6094-10.9795,4.5293
				c-2.4004-0.04-4.5205-0.6992-6.3604-1.9795c-2.3203-1.6396-3.4795-3.9004-3.4795-6.7803c0-1.7188,0.5996-3.2998,1.7998-4.7402
				c1.2002-1.4395,2.499-2.1592,3.8994-2.1592c2.04,0,3.0605,0.8604,3.0605,2.5791c0,0.8408-0.2705,1.5215-0.8105,2.04
				c-0.54,0.5205-1.1904,0.7803-1.9492,0.7803c-1.6006,0-2.4004-0.8193-2.4004-2.46c-1.2002,1-1.7998,2.3398-1.7998,4.0205
				c0,2.3604,0.9189,4.1602,2.7598,5.3994c1.4795,0.96,3.2197,1.4404,5.2197,1.4404c7.2803,0,10.9199-5.2207,10.9199-15.6602
				V31.6611h4.2002V45.6406z M483.5195,18.9404c-3.2803,9.8008-9.0996,17.9404-17.46,24.4199l-1.0791-1.3193
				c5.8389-6.7598,10.0586-13.8994,12.6592-21.4199H439.54v-1.6807H483.5195z"/>
			<path class="st0" d="M543.0996,32.8008c0,2.8799-1.0801,5.1807-3.2393,6.9004c-2.1602,1.7197-5.0205,2.5801-8.5801,2.5801
				h-34.7998v-3.9004h34.2598c3,0,5.4199-0.4805,7.2598-1.4404c2.0791-1.0801,3.1201-2.6592,3.1201-4.7393
				c0-2.1201-1.041-3.5801-3.1201-4.3809c0.1592,0.8408-0.0303,1.5811-0.5703,2.2207s-1.2295,0.96-2.0693,0.96
				c-0.7207,0-1.3408-0.2598-1.8604-0.7803c-0.5205-0.5195-0.7803-1.1592-0.7803-1.9199c0-0.7197,0.2705-1.3496,0.8105-1.8896
				s1.209-0.8105,2.0098-0.8105c2.04,0,3.8096,0.6807,5.3096,2.04C542.3496,29.001,543.0996,30.7217,543.0996,32.8008z"/>
			<path class="st0" d="M601.7197,20.6211c-8.4404,0-15.7402,2.3008-21.8994,6.8994c-6.5605,4.8809-9.8398,11.0605-9.8398,18.54
				c0,5.2002,1.6191,9.2803,4.8594,12.2402c2.7197,2.5605,5.96,3.8398,9.7197,3.8398c3.7207,0,6.8701-0.9795,9.4502-2.9395
				s3.8701-4.54,3.8701-7.7402c0-1.5996-0.3896-3.0303-1.1699-4.29s-1.791-2.1494-3.0303-2.6699
				c0.04,0.2002,0.0605,0.4004,0.0605,0.5996c0,0.6807-0.251,1.3008-0.75,1.8604c-0.501,0.5605-1.1504,0.8398-1.9502,0.8398
				c-0.7607,0-1.4004-0.2695-1.9199-0.8096c-0.5205-0.54-0.7803-1.1709-0.7803-1.8906c0-0.7588,0.2793-1.4102,0.8398-1.9502
				c0.5596-0.54,1.2393-0.8096,2.04-0.8096c2.1201,0,4.0205,0.8008,5.7002,2.4004c1.7998,1.7998,2.7002,4.04,2.7002,6.7197
				c0,3.6406-1.4404,6.6406-4.3203,9s-6.5205,3.54-10.9199,3.54c-5.6396,0-10.2402-1.6396-13.7998-4.9199
				c-3.5605-3.2793-5.3398-7.6201-5.3398-13.0205c0-6.0391,2.5996-11.46,7.7998-16.2598
				c4.5596-4.1191,10.3203-7.1797,17.2803-9.1797h-33v-1.6807h44.3994V20.6211z M600.9404,35.501l-3.3604,2.1602
				c-1.1611-3.3203-2.8008-6.3203-4.9199-9l1.1396-1.2002C596.7598,30.0615,599.1396,32.7412,600.9404,35.501z M606.2803,31.9609
				l-3.1201,2.1602c-1.2402-3.3604-2.9404-6.3994-5.1006-9.1201l1.2607-1.2002C601.96,26.041,604.2793,28.7607,606.2803,31.9609z"/>
			<path class="st0" d="M631.7803,22.1211l-1.0205,16.3193c3.2793-2.3594,6.54-3.54,9.7803-3.54c4.0801,0,7.3896,1.29,9.9297,3.8701
				s3.8105,5.8105,3.8105,9.6904c0,4.0801-1.4102,7.4395-4.2305,10.0801c-2.8193,2.6396-6.2695,3.96-10.3496,3.96
				c-3.1602,0-5.9805-0.8398-8.46-2.5205c-2.7598-1.8789-4.1406-4.3398-4.1406-7.3799c0-1.0801,0.3496-1.999,1.0508-2.7598
				c0.6992-0.7598,1.5488-1.1396,2.5498-1.1396c0.7998,0,1.5,0.3096,2.0996,0.9297c0.6006,0.6201,0.9004,1.4307,0.9004,2.4297
				c0,0.3213-0.21,0.9512-0.6299,1.8906s-0.6299,1.4902-0.6299,1.6494c0,1.5205,0.6387,2.751,1.9199,3.6904
				c1.2793,0.9404,3.0195,1.4102,5.2197,1.4102c2.9189,0,5.2998-1.0098,7.1396-3.0303c1.8398-2.0195,2.7607-4.8691,2.7607-8.5498
				c0-3.8398-0.9004-6.8193-2.7002-8.9404c-1.7998-2.1191-4.2812-3.1797-7.4404-3.1797c-3.7197,0-6.6807,1.4395-8.8799,4.3193
				l-1.7998-0.3594l1.4395-22.4404h21.7803v3.6006H631.7803z"/>
			<path class="st0" d="M679.5996,63.7607L676,64.2412V49.1211l3.9004,0.7793c0.96,0.2012,1.4395,0.501,1.4395,0.9004
				c0,0.4404-0.5801,0.8203-1.7402,1.1396v7.3799h10.5605V47.2607h-4.3799v1.2598l-3.6006,0.2998V16.6006l4.5605,2.4004h6.8398
				l1.0801-6.54l3.2402,0.6602c1.7598,0.2002,2.6396,0.54,2.6396,1.0195c0,0.4805-0.7002,0.8809-2.0996,1.2002L695.5,19.001h15.0596
				l1.7402-2.46l2.9404,1.9199c1.0801,0.6807,1.6201,1.2207,1.6201,1.6201c0,0.4004-0.6006,0.7598-1.8008,1.0801v14.7598
				l-3.5996,0.7197v-1.0195h-25.6797v4.0195h33.3594l2.8203-3.2402l5.3398,3.8408v0.8994h-41.5195v4.6201h33.3594l1.5605-2.04
				l3.0596,2.0996c1.0801,0.7207,1.6201,1.2002,1.6201,1.4404c0,0.2002-0.7803,0.5205-2.3398,0.96
				c-0.8398,8.2002-1.8604,13.3008-3.0596,15.2998c-1.4014,2.3193-3.4609,3.4805-6.1807,3.4805c-0.2803,0-0.46-0.4307-0.54-1.29
				c-0.0801-0.8604-0.1797-1.3105-0.2998-1.3506l-4.2002-1.1992v-0.96h7.9199c1.2002-2.5596,2.1006-7.54,2.7002-14.9404h-25.6201
				v12.0596H703.96V49.1211l3.54,0.8398c1.5195,0.3594,2.2803,0.7197,2.2803,1.0801c0,0.3594-0.7412,0.8203-2.2207,1.3799v10.3203
				l-3.5996,0.4795v-2.4004h-24.3604V63.7607z M685.7803,20.501v5.9395H711.46V20.501H685.7803z M685.7803,27.9404v6.1807H711.46
				v-6.1807H685.7803z"/>
			<path class="st0" d="M787,61.9609v0.96c-1.7207,0.2402-2.7402,1.2197-3.0596,2.9395h-21.3604
				c-4.2402,0-7.7207-0.6299-10.4404-1.8896c-2.7207-1.2598-5.3994-3.5098-8.04-6.75l-7.0195,7.7998
				c0,1.1201-0.2402,1.6807-0.7197,1.6807c-0.4805,0-1.7207-1.5215-3.7207-4.5605l7.9199-4.4395V38.2607h-6.6592l-0.9004-1.5h6.8398
				l1.7998-3.2402l2.2207,1.4404c1.999,1.2803,3,2.1602,3,2.6396c0,0.4404-0.8008,0.96-2.4004,1.5605v15.54
				c2.96,4.8398,8.9189,7.2598,17.8799,7.2598H787z M735.1602,16.541l0.2998-1.0801c2.5205,0.2002,4.9199,1.0195,7.2002,2.46
				c2.2803,1.4395,3.4199,3.2002,3.4199,5.2803c0,0.6396-0.2402,1.2402-0.7197,1.7998c-0.4805,0.5605-1.001,0.8398-1.5605,0.8398
				c-0.2402,0-0.5205-0.2402-0.8398-0.7197c-0.5205-0.7998-1.041-1.6201-1.5596-2.46
				C739.7598,20.1406,737.6797,18.1006,735.1602,16.541z M760.3604,18.9404c-2.4004,5.6006-5.1602,11.3613-8.2803,17.2803
				c2.4004,2.5605,4.7598,5.9004,7.0801,10.0205c2.1602,3.8799,3.2402,6.7998,3.2402,8.7598c0,0.7598-0.21,1.4102-0.6309,1.9502
				c-0.4199,0.54-0.8906,0.8096-1.4092,0.8096c-0.8408,0-1.5-0.4795-1.9805-1.4404c-0.4004-0.7588-0.96-2.499-1.6797-5.2197
				c-1.5205-5.7988-3.5205-10.5596-6-14.2803c2.5195-6.9189,4.5391-14.4189,6.0596-22.5l2.04,1.0205
				c2.5205,1.2803,3.7803,2.1602,3.7803,2.6396C762.5801,18.3408,761.8398,18.6611,760.3604,18.9404z M771.7002,19.0605
				c-2.4805,5.6406-5.5605,11.541-9.2402,17.7002c7.1602,6.5996,10.7402,12.6602,10.7402,18.1797
				c0,0.7607-0.2207,1.4014-0.6602,1.9199c-0.4404,0.5205-0.96,0.7803-1.5596,0.7803c-0.5615,0-1.0205-0.3994-1.3809-1.2002
				c-0.3594-0.6797-0.9395-2.2793-1.7393-4.7998c-1.7207-5.4395-4.0205-10.2002-6.9004-14.2803
				c3.1201-7.7998,5.4199-15.4395,6.9004-22.9199l2.8799,1.3203c2.0791,0.96,3.1201,1.7207,3.1201,2.2803
				C773.8604,18.5205,773.1396,18.8613,771.7002,19.0605z M782.4404,19.2412c-2.7207,4.96-6,10.7002-9.8408,17.2197
				c7.7197,7.3604,11.5801,13.4395,11.5801,18.2402c0,0.6807-0.2393,1.2998-0.7197,1.8594c-0.4795,0.5605-0.9805,0.8398-1.5,0.8398
				c-0.8008,0-1.4404-0.459-1.9199-1.3799c-0.3203-0.5996-0.9404-2.3398-1.8604-5.2197
				c-1.8799-5.8398-4.2598-10.4404-7.1396-13.7998c3.0391-7.2803,5.6592-14.7803,7.8604-22.5l2.5801,1.2002
				c2.1992,1.04,3.2998,1.7998,3.2998,2.2793C784.7803,18.4219,784,18.8418,782.4404,19.2412z"/>
			<path class="st0" d="M840.04,37.9004c0,7.8809-1.8701,14.1904-5.6104,18.9307c-3.7402,4.7393-8.6504,7.1094-14.7295,7.1094
				c-2.8799,0-5.3203-0.6592-7.3203-1.9795c-2.3203-1.5195-3.4795-3.6201-3.4795-6.2998c0-1.8398,0.5996-3.3994,1.7998-4.6807
				c1.2002-1.2793,2.5391-1.9199,4.0195-1.9199c0.7598,0,1.4004,0.2607,1.9199,0.7803c0.5195,0.5205,0.7803,1.1602,0.7803,1.9199
				c0,0.7607-0.2607,1.4004-0.7803,1.9199c-0.5195,0.5205-1.1602,0.7803-1.9199,0.7803c-0.7197,0-1.3301-0.2295-1.8301-0.6904
				c-0.5-0.459-0.7705-1.0498-0.8096-1.7695c-1.041,0.9209-1.5605,2.1201-1.5605,3.5996c0,1.7207,0.7002,3.1602,2.1006,4.3203
				c1.5996,1.4004,3.8594,2.0996,6.7803,2.0996c4.7598,0,8.6191-2.1992,11.5801-6.5996c2.959-4.3994,4.4395-10.1797,4.4395-17.3398
				c0-6.8398-1.4609-11.9199-4.3799-15.2402c-2.2402-2.5205-4.96-3.7803-8.1602-3.7803c-4.5596,0-8.5,2.2607-11.8203,6.7803
				c-3.1602,4.2402-5.0195,9.3809-5.5791,15.4199v5.8203h-4.3203V18.9404h4.3203v14.46c1.3193-4.6396,3.5391-8.46,6.6592-11.46
				c3.3203-3.1592,7.0801-4.7393,11.2803-4.7393c5.1201,0,9.2197,2.0801,12.2998,6.2393
				C838.5996,27.3213,840.04,32.1406,840.04,37.9004z"/>
			<path class="st0" d="M903.6396,55.6006c0,3-2.0195,5.2412-6.0596,6.7197c-3.2012,1.2002-7.1611,1.8008-11.8799,1.8008
				c-12.1201,0-18.1807-3.6006-18.1807-10.8008c0-6.1191,5.6006-10.8594,16.8008-14.2197c-0.0811-1.5996-0.501-2.9395-1.2607-4.0195
				c-0.9199-1.3594-2.2402-2.04-3.96-2.04c-2.4805,0-5.1201,0.9297-7.9199,2.79c-2.7998,1.8594-4.8594,4.0898-6.1797,6.6895
				l-4.5,8.9404l-4.0195-1.0205l12.6592-25.0195h-10.7393v-1.7402h11.5801l4.3193-8.5195l4.2598,0.7197l-3.96,7.7998h25.9199v1.7402
				h-26.8799l-5.3994,10.7402c4.1592-3.2793,8.2998-4.9199,12.4199-4.9199c2.3994,0,4.2793,0.7002,5.6396,2.0996
				c1.1191,1.2002,1.7793,2.7402,1.9805,4.6201c3.8789-0.8799,8.0791-1.5391,12.5996-1.9805L901,37.7207
				c-4.0801,0.2012-8.2803,0.8398-12.5996,1.9199v13.0205h-4.0801V40.7812c-3.3213,1.1201-6.0205,2.5791-8.1006,4.3799
				c-2.7998,2.3604-4.2002,5.0605-4.2002,8.0996c0,6.1201,4.5605,9.1797,13.6807,9.1797c7.4795,0,12.459-1.2598,14.9395-3.7793
				c0.8799-0.8799,1.3203-1.8398,1.3203-2.8799c0-0.8408-0.2607-1.5205-0.7803-2.04c0,1.7598-0.8203,2.6396-2.46,2.6396
				c-0.7197,0-1.3496-0.2705-1.8896-0.8105c-0.54-0.5391-0.8105-1.1895-0.8105-1.9492c0-0.7207,0.2803-1.3506,0.8408-1.8906
				c0.5596-0.54,1.1992-0.8096,1.9199-0.8096c1.3994,0,2.5596,0.4404,3.4795,1.3203S903.6396,54.2412,903.6396,55.6006z"/>
			<path class="st0" d="M912.7002,44.8604l-1.0205-0.7197c6.1201-8.7598,10.7793-19.2002,13.9805-31.3203l4.3799,1.9209
				c1.0801,0.4795,1.6201,0.8799,1.6201,1.1992c0,0.3604-0.7607,0.7207-2.2803,1.0801c-1.4805,3.8809-3.4199,8.0811-5.8203,12.6006
				c1.6396,0.3594,2.46,0.8008,2.46,1.3193c0,0.4414-0.6396,0.9404-1.9199,1.5v33.7803l-3.8994,0.54V35.3203
				C918,38.5605,915.499,41.7412,912.7002,44.8604z M926.5596,54.9404l-0.96-0.8398c5.96-6.7998,11.0195-15.5996,15.1807-26.3994
				h-12.7207l-1.0195-1.5H943V13.1211l4.5,0.5996c1.04,0.1201,1.5596,0.4004,1.5596,0.8398c0,0.5205-0.7197,1.041-2.1592,1.5605
				v10.0801h12.3594l3-3.54l4.9805,4.0801v0.96h-19.1406c3.1201,9.2393,9.7207,17.3203,19.8008,24.2393l-0.6602,0.9004
				c-0.2402-0.0801-0.501-0.1201-0.7803-0.1201c-1.1602,0-2.2607,0.7402-3.2998,2.2197
				c-7.2402-6.7588-12.6602-15.1592-16.2598-25.1992v22.8594h3.96l2.5801-3.1797l4.3193,3.4795v1.2002h-10.8594v12.0605L943,66.7012
				V54.1006h-9.5996l-1.0205-1.5H943V33.5205C938.4795,42.001,933,49.1416,926.5596,54.9404z"/>
			<path class="st0" d="M975.6396,47.8008h0.9004c0.4795,2.4805,0.7197,4.7998,0.7197,6.96c0,4.7998-1,7.2002-3,7.2002
				c-0.4795,0-0.8994-0.2002-1.2598-0.6006c-0.3604-0.3994-0.54-0.8398-0.54-1.3193c0-0.3203,0.5596-1.5605,1.6797-3.7207
				C975.0596,54.5205,975.5596,51.6807,975.6396,47.8008z M979.5996,44.9209L976,45.4004V15.2207l3.54,1.9805h11.04l2.5801-3.6006
				l4.3799,3.96v1.1406h-9.5996v6.3594h1.8594l2.04-3.3594l4.2002,3.7197v1.1396h-8.0996v6.2998h2.04l2.0996-3.2998l3.0596,2.7598
				c2.2402-2.2393,4.5498-5.2588,6.9307-9.0596c2.3789-3.7998,4.1494-7.2197,5.3096-10.2598l3.96,1.4395
				c1.1191,0.4004,1.6797,0.7607,1.6797,1.0801c0,0.3604-0.6797,0.6602-2.0391,0.9004c4.2393,5.9609,9.7393,10.4395,16.5,13.4395
				l-0.3008,1.2002c-1.3193-0.1592-2.5596,0.6006-3.7197,2.2803c-5.9609-5.1992-10.3203-10.4404-13.0801-15.7197
				c-5.04,7.9199-11.001,14.2598-17.8799,19.0195l-0.6602-1.0195l1.2598-1.2607h-5.1592v7.1406h3.7197l1.3799-2.46l3.4199,2.8193
				c0.4805,0.4004,0.7197,0.6807,0.7197,0.8408c0,0.2002-0.5605,0.54-1.6797,1.0195c-0.4004,8.6006-1.041,14.3604-1.9199,17.2803
				c-0.4404,1.4805-1.3008,2.8193-2.5801,4.0195c-1.2803,1.2002-2.46,1.7998-3.54,1.7998
				c-0.3203,0.0801-0.6504-0.4102-0.9902-1.4697c-0.3398-1.0605-1.0703-1.6104-2.1895-1.6494l-4.0801-0.7803v-0.96h9.1797
				c0.96-1.1191,1.6396-3.3604,2.04-6.7197c0.3193-2.5205,0.54-6.6006,0.6602-12.2402h-12.4805V44.9209z M978.4004,48.7012
				l0.96-0.3008c2.3594,3.2803,3.54,6.1201,3.54,8.5205c0,0.4795-0.21,0.9805-0.6309,1.5
				c-0.4199,0.5205-0.8301,0.7803-1.2295,0.7803c-0.7607,0-1.2402-0.3398-1.4404-1.0205c-0.0801-0.3193-0.1191-1.2598-0.1191-2.8203
				C979.4805,53.001,979.1201,50.7812,978.4004,48.7012z M984.6396,18.7012h-5.04v6.3594h5.04V18.7012z M979.5996,26.5605v6.2998
				h5.04v-6.2998H979.5996z M979.5996,34.3604v7.1406h5.04v-7.1406H979.5996z M981.7002,47.9209l0.54-0.6602
				c3.3594,2.4004,5.04,4.7803,5.04,7.1396c0,0.4414-0.1406,0.8701-0.4199,1.29c-0.2803,0.4199-0.5811,0.6299-0.9004,0.6299
				c-0.8799,0.2012-1.5596-0.8193-2.04-3.0596C983.3594,50.501,982.6201,48.7217,981.7002,47.9209z M984.6396,46.0605l0.3008-0.6602
				c1.3994,0.1611,2.7197,0.7412,3.96,1.7402c1.1191,0.8809,1.6797,1.6797,1.6797,2.4004c0,0.4404-0.1904,0.8701-0.5703,1.29
				c-0.3809,0.4199-0.79,0.6299-1.2295,0.6299c-0.041,0-0.6709-0.8398-1.8906-2.5205
				C985.6689,47.2607,984.9189,46.3008,984.6396,46.0605z M993.04,66.7607l-0.4805-1.1396
				c3.8799-1.6807,7.1201-3.9004,9.7207-6.6602c2.7988-2.9199,4.5391-6.1396,5.2197-9.6602h-5.6396v2.1602l-3.3008,0.6602V35.3203
				l3.4209,1.7402h6.3594v-6h-5.0996l-0.54-1.5h9l2.3994-3L1018,30.041v1.0195h-6.3604v6h6.6602l1.5605-2.5195l3.4199,2.7002
				c0.8789,0.6807,1.2393,1.1396,1.0801,1.3799c-0.6006,0.2002-1.3203,0.4795-2.1602,0.8398v11.1602l-3.6006,0.8994v-2.2197h-5.7598
				c2.8799,6.7197,7.6201,11.3604,14.2197,13.9199v0.9004c-1.7598-0.1602-3.1797,0.6387-4.2598,2.3994
				c-5.3203-4.0801-9.1006-9.8193-11.3398-17.2197h-0.3604C1008.7793,57.8203,1002.7598,63.6406,993.04,66.7607z M1001.8604,38.5605
				v9.2402h6c0.2393-3.1992,0.3994-6.2793,0.4795-9.2402H1001.8604z M1018.5996,38.5605h-6.96c0,3.2012-0.1201,6.2803-0.3594,9.2402
				h7.3193V38.5605z"/>
		</g>
	</g>
</g>
</svg>
