<?xml version="1.0" encoding="utf-8"?>
<!-- Generator: Adobe Illustrator 25.2.1, SVG Export Plug-In . SVG Version: 6.00 Build 0)  -->
<svg version="1.1" id="レイヤー_1" xmlns="http://www.w3.org/2000/svg" xmlns:xlink="http://www.w3.org/1999/xlink" x="0px"
	 y="0px" viewBox="0 0 1040 80" style="enable-background:new 0 0 1040 80;" xml:space="preserve">
<style type="text/css">
	.st0{fill:#1E1E28;}
</style>
<g>
	<g>
		<g>
			<path class="st0" d="M26.4404,16.1211v8.2793h2.2197l1.7402-2.46l4.5596,3.4805c0.5195,0.4004,0.7803,0.8203,0.7803,1.2598
				c0,0.5205-0.4404,0.7803-1.3203,0.7803c-0.2402,0-0.5205-0.0195-0.8398-0.0605c-1.5605,2.7207-3.8604,5.9404-6.9004,9.6602
				v1.9805c2.4805,0.4795,4.5,1.2803,6.0605,2.3994c1.7598,1.2002,2.6396,2.6006,2.6396,4.2002
				c0,0.6807-0.1904,1.2705-0.5703,1.7705s-0.8301,0.75-1.3496,0.75c-0.7197,0-1.251-0.1807-1.5898-0.54
				c-0.3408-0.3604-0.75-1.0801-1.2305-2.1602c-1-2.1992-2.3203-3.9004-3.96-5.1006v26.1602l-5.0996,1.0801V42.4609
				c-2.4004,2.2402-5.0801,4.3203-8.04,6.2402l-0.96-0.96c6.6396-5.96,11.9395-13.2402,15.9004-21.8408H13.9004l-0.6602-1.5h8.0996
				V13.001l6.3604,0.5996c0.7588,0,1.1396,0.2402,1.1396,0.7197C28.8398,15.041,28.0391,15.6406,26.4404,16.1211z M66.2803,26.2012
				v25.5596l-5.1006,0.9004v-3.6006h-7.5v17.6406l-5.0996,0.7197V49.0605h-7.1396v4.2002l-5.1006,1.0801V21.041l5.4004,2.8193
				h6.8398V13.1211L55,13.9004c0.5596,0,0.8398,0.1807,0.8398,0.54c0,0.6807-0.7197,1.3203-2.1602,1.9199v7.5h6.96l1.8008-2.8193
				L67,23.7412c0.5996,0.3594,0.9004,0.7197,0.9004,1.0791C67.9004,25.2207,67.3604,25.6816,66.2803,26.2012z M48.5801,35.7412
				V25.3604h-7.1396v10.3809H48.5801z M48.5801,37.2412h-7.1396v10.3193h7.1396V37.2412z M53.6797,35.7412h7.5V25.3604h-7.5V35.7412
				z M53.6797,47.5605h7.5V37.2412h-7.5V47.5605z"/>
			<path class="st0" d="M92.0801,13.3008l3.9004,3.7197c0.3594,0.3213,0.5391,0.6211,0.5391,0.9004
				c0,0.4404-0.4404,0.6602-1.3193,0.6602c-0.4805,0-1.0205-0.0605-1.6201-0.1807l-6.5996,1.6201v11.2207H89.5l3-3.7803
				l4.7402,4.2598v1.0205H86.9805v5.5791c5.1191,1.7207,7.6797,4.1016,7.6797,7.1406c0,0.6807-0.2305,1.29-0.6904,1.8301
				s-0.9893,0.8096-1.5898,0.8096c-0.6807,0.1602-1.4395-0.7998-2.2803-2.8799c-1.0801-2.6396-2.1201-4.3799-3.1191-5.2197v26.3398
				l-4.8008,0.96V45.2207c-3.2393,4.6406-6.1797,8.1406-8.8193,10.5L72.46,54.8203c4.2393-5.8799,7.2793-13.2393,9.1201-22.0791
				h-7.0205l-0.7793-1.5h8.3994V21.1611c-3.0801,0.5195-5.8604,0.9404-8.3398,1.2598l-0.54-1.2002
				C80.1797,19.3818,86.4404,16.7412,92.0801,13.3008z M107.2598,28.9609v17.04c4.1191-6.1592,8-15.7197,11.6406-28.6807l5.3398,3
				c0.5596,0.3213,0.8398,0.6602,0.8398,1.0205c0,0.6807-0.7607,1.1201-2.2803,1.3203c-4.5205,12.7197-9.7002,22.5996-15.54,29.6396
				v7.5596c0,1.1211,0.5596,1.6807,1.6807,1.6807h6.4199c0.9189,0,1.6992-0.7803,2.3398-2.3398l0.8994-3.1807
				c0.3994-1.3594,0.7598-2.46,1.0801-3.2998H121c-0.2402,3.7197-0.2607,6.0811-0.0596,7.0801
				c0.2393,1.1602,1.0391,1.7402,2.3994,1.7402c-0.3594,3-1.8203,4.5-4.3799,4.5h-12.5996c-2.6006,0-3.9004-1.1807-3.9004-3.54
				v-4.5605c-3.5996,3.3604-7.5596,6.3008-11.8799,8.8203l-0.8398-1.0195c4.3594-2.8408,8.5996-6.9395,12.7197-12.3008v-27.54
				l5.7002,0.6006c0.7588,0,1.1396,0.2197,1.1396,0.6602C109.2998,27.7217,108.6191,28.3213,107.2598,28.9609z M97.2998,37.3604
				H98.5c0.5195,2.7207,0.7803,5.1406,0.7803,7.2607c0,5.7598-1.6006,8.6396-4.7998,8.6396c-1.4805,0-2.2207-0.7197-2.2207-2.1602
				c0-0.3994,0.3203-1.0801,0.96-2.04c0.5596-0.7998,1.1201-1.5996,1.6807-2.3994C96.2197,44.5811,97.0195,41.4814,97.2998,37.3604z
				 M102.04,16.2412l0.2998-1.0801c3.9199,0.6807,6.9199,1.8203,9,3.4199c1.7598,1.4004,2.6406,2.9199,2.6406,4.5596
				c0,1.6406-0.7012,2.46-2.1006,2.46c-0.6807,0-1.2598-0.2402-1.7402-0.7197c-0.3203-0.3193-0.8994-1.1396-1.7393-2.46
				C106.7197,19.7412,104.5996,17.6807,102.04,16.2412z M118.54,38.501l0.9004-1.0801c5.6787,4.3203,8.5195,8.2197,8.5195,11.7002
				c0,2.6006-0.8203,3.8994-2.46,3.8994c-0.8799,0-1.5-0.2998-1.8604-0.8994c-0.2803-0.4805-0.5801-1.5996-0.8994-3.3604
				C121.9795,44.6807,120.5801,41.2607,118.54,38.501z"/>
			<path class="st0" d="M149.4404,16.4209c-1.001,1.8398-2.6006,4.7402-4.8008,8.7002h6.6006l2.1602-3.1807l4.5,3.4199
				c0.3594,0.2803,0.54,0.5615,0.54,0.8408c0,0.4795-0.6006,0.96-1.8008,1.4395v31.6201l-4.7998,0.9004v-3.8408h-11.5801v5.8809
				L135.46,63.041V22.1211l5.4004,3h1.6797c0.7598-3.6006,1.2393-7.7197,1.4404-12.3604l6.6592,1.7402
				c0.7207,0.2002,1.0801,0.4404,1.0801,0.7197C151.7197,15.6611,150.96,16.0605,149.4404,16.4209z M151.8398,26.6211h-11.5801
				v13.0801h11.5801V26.6211z M151.8398,41.2012h-11.5801v13.6191h11.5801V41.2012z M170.5596,16.9004
				c-0.96,2.6006-1.8799,4.8408-2.7598,6.7207h11.5801l2.1006-3.1807l4.9795,3.7207c0.3604,0.2002,0.54,0.4795,0.54,0.8398
				c0,0.5996-0.5996,1.0195-1.7998,1.2598V45.041c0,8.2793-1.1006,14.1201-3.2998,17.5195c-1.9199,2.96-4.9199,4.4404-9,4.4404
				c-0.5205,0-0.8311-0.3105-0.9307-0.9307s-0.1904-1.21-0.2695-1.7695c-0.3213-1.3203-2.46-2.0791-6.4199-2.2803v-1.2002h11.3994
				c2.0801-2.7598,3.1201-8.0996,3.1201-16.0195V25.1211h-12.6602c-2.7598,6.3594-5.6797,11-8.7598,13.9199l-1.0195-0.7207
				c3.7998-6.5186,6.4795-15.0596,8.04-25.6191l6.3594,2.0996c0.6006,0.2002,0.9004,0.46,0.9004,0.7803
				C172.6602,16.0605,171.96,16.501,170.5596,16.9004z M162.8799,36.4004l0.6006-0.8994c6.5186,2.9199,9.7793,6.2002,9.7793,9.8398
				c0,0.9209-0.2998,1.7607-0.8994,2.5195c-0.6006,0.7607-1.2207,1.1406-1.8604,1.1406c-1.041,0-1.75-0.2793-2.1299-0.8398
				c-0.3809-0.5596-0.75-1.6602-1.1104-3.3008C166.5,41.3008,165.04,38.4814,162.8799,36.4004z"/>
			<path class="st0" d="M224.6797,25.3604h-13.4395l-10.9805,34.9209l-5.3398-1.2002l10.7402-33.7207h-9.3604v-1.6797h9.96l2.7598-9
				l5.3408,0.96l-2.4004,8.04h12.7197V25.3604z M246.8203,51.9404l-1.2002,1.3799c-3.8008-3.0791-7.4609-5.3994-10.9805-6.96v6.8408
				c0,7.8799-4.2998,11.8193-12.8994,11.8193c-3.5605,0-6.501-0.8994-8.8203-2.7002c-2.6006-1.959-3.9004-4.6592-3.9004-8.0996
				c0-4.04,1.5205-7.1396,4.5605-9.2998c2.6396-1.8398,6.0801-2.7598,10.3203-2.7598c1.8389,0,3.5996,0.2197,5.2793,0.6592V23.6807
				h7.4404c2.6396,0,4.7998,0.5205,6.4795,1.5605c2.04,1.2402,3.0605,3.0996,3.0605,5.5791c0,1.4805-0.4307,2.6914-1.29,3.6309
				c-0.8604,0.9395-2.0098,1.4092-3.4502,1.4092c-2.2402,0-3.3604-1.0586-3.3604-3.1797c0-2.04,0.9199-3.1797,2.7607-3.4199
				c1.7998-0.1992,3,0.501,3.5996,2.0996c-0.2002-2.2793-1.0605-3.8994-2.5801-4.8594c-1.2002-0.7598-3.04-1.1406-5.5195-1.1406
				c0.2793,0.041,0.1992,0.0605-0.2402,0.0605c-0.3604,0-0.7803-0.0195-1.2598-0.0605c-0.4414,0-0.501,0-0.1807,0v19.0801
				C238.1201,45.9209,242.1797,48.4219,246.8203,51.9404z M229.1797,53.8008v-9.2402c-2.3203-0.3994-4.0801-0.5996-5.2793-0.5996
				c-3.7607,0-6.8008,0.7598-9.1201,2.2803c-2.6807,1.7598-4.0205,4.4395-4.0205,8.04c0,2.8398,1.0596,5.0996,3.1807,6.7793
				c1.9199,1.5205,4.3389,2.2803,7.2598,2.2803C226.5195,63.3408,229.1797,60.1611,229.1797,53.8008z"/>
			<path class="st0" d="M304.4805,59.9209v1.7998h-18.4209v-1.7998c3.7598,0,5.6406-0.8193,5.6406-2.46
				c0-0.4805-0.1406-1.0801-0.4199-1.7998l-3.54-9h-19.5l-2.1602,5.5801c-0.6807,1.7598-1.0205,3.1797-1.0205,4.2598
				c0,1.04,0.3008,1.8398,0.9004,2.3994c0.7197,0.6807,2.2197,1.0205,4.5,1.0205v1.7998h-14.7002v-1.7998
				c3.4395,0,5.8799-1.8193,7.3203-5.46l13.6201-34.2002l5.04-2.46L298,56.2607C299.04,58.7012,301.1992,59.9209,304.4805,59.9209z
				 M268.96,44.8604h18.1201L277.96,22.0605L268.96,44.8604z"/>
			<path class="st0" d="M343,40.3008l11.6396,16.7402c1.3203,1.9199,3.7402,2.8799,7.2607,2.8799v1.7998h-11.7002l-13.6201-21.4199
				h-5.0996v15.96c0,2.4404,1.1992,3.6602,3.5996,3.6602h2.2197v1.7998h-17.6396v-1.7998H322c2.5195,0,3.7803-1.2197,3.7803-3.6602
				V24.041c0-2.4795-1.2607-3.7207-3.7803-3.7207h-2.4004v-1.7998h20.46c4.1201,0,7.7197,0.7803,10.8008,2.3398
				c3.9189,1.9609,5.8799,4.8213,5.8799,8.5801c0,3.2803-1.5205,5.9805-4.5605,8.1006C349.5,39.3809,346.4395,40.3008,343,40.3008z
				 M331.4805,24.4609v14.04h7.1992c3.7207,0,6.6299-0.8193,8.7305-2.46c2.0996-1.6396,3.1494-3.8398,3.1494-6.6006
				c0-2.8389-1.0596-5.0693-3.1797-6.6895s-5.1201-2.4307-9-2.4307h-3.5996C332.5801,20.3203,331.4805,21.7012,331.4805,24.4609z"/>
			<path class="st0" d="M389.0801,39.1611l-5.8799,2.2793c-1.7207-8.5996-4.2207-16.0391-7.5-22.3193l1.4395-0.9004
				C382.2197,24.541,386.2002,31.5215,389.0801,39.1611z M422.8604,17.6211c0,11.7207-1.9199,21.7002-5.7607,29.9395
				c-5.0801,10.9609-12.8203,16.4404-23.2197,16.4404c-3.1201,0-5.7207-0.6807-7.7998-2.04
				c-2.4004-1.5996-3.5996-3.8799-3.5996-6.8398c0-1.9199,0.7285-3.6201,2.1895-5.1006c1.46-1.4795,3.1504-2.2197,5.0703-2.2197
				c0.96,0,1.8193,0.2803,2.5801,0.8398c0.7588,0.5605,1.1396,1.3203,1.1396,2.2803s-0.3203,1.7695-0.96,2.4297
				c-0.6406,0.6602-1.4404,0.9902-2.4004,0.9902c-1.04,0-1.9199-0.3301-2.6396-0.9902s-0.96-1.5088-0.7197-2.5498
				c-1.6807,0.9209-2.5205,2.3799-2.5205,4.3799c0,2.2412,0.9395,3.96,2.8203,5.1602c1.5996,1,3.5791,1.5,5.9404,1.5
				c9.0791,0,15.6592-5.499,19.7393-16.5c2.8398-7.5996,4.2607-16.8398,4.2607-27.7197H422.8604z M404.5596,38.2012L398.5,40.0605
				c-1.1201-7.999-3.2002-15.499-6.2402-22.5l1.4404-0.8994C397.9004,21.9014,401.5195,29.0811,404.5596,38.2012z"/>
			<path class="st0" d="M463.5996,46.541c0,5.0801-1.3398,9.2002-4.0195,12.3594c-2.8408,3.4004-6.7607,5.1006-11.7598,5.1006
				c-3,0-5.4404-0.7607-7.3203-2.2803c-2.001-1.6797-3-3.9795-3-6.9004c0-1.7588,0.5996-3.3984,1.7998-4.9199
				c1.2393-1.6797,2.7197-2.5195,4.4404-2.5195c0.999,0,1.8691,0.291,2.6094,0.8701c0.7402,0.5801,1.1104,1.3496,1.1104,2.3096
				s-0.3301,1.7803-0.9902,2.46C445.8096,53.7012,445,54.041,444.04,54.041c-0.8398,0-1.5508-0.3301-2.1299-0.9902
				c-0.5801-0.6602-0.8506-1.4102-0.8105-2.25c-1.2402,1.1602-1.8594,2.5195-1.8594,4.0801c0,2.2002,0.8398,3.96,2.5195,5.2803
				c1.5195,1.1992,3.4199,1.7998,5.7002,1.7998c4.1602,0,7.0801-1.7002,8.7598-5.1006c1.2803-2.5996,1.9199-6.2188,1.9199-10.8594
				V31.2412h5.46V46.541z M484.1201,18.4004c-3.6006,10.041-9.6602,18.3604-18.1797,24.96l-1.2607-1.5
				c5.1992-6.1992,9.2002-13.4189,12-21.6592h-37.9795v-1.8008H484.1201z"/>
			<path class="st0" d="M543.6396,32.6807c0,3.4805-1.2402,6.1201-3.7197,7.9199c-2.2402,1.6006-5.1602,2.4004-8.7598,2.4004
				h-35.1006v-5.1006h35.2207c2.5996,0,4.7998-0.4199,6.5996-1.2598c2.4004-1.0801,3.6006-2.7793,3.6006-5.0996
				c0-2-0.9404-3.5-2.8203-4.5c0.1592,1-0.0811,1.9199-0.7197,2.7598c-0.6406,0.8398-1.4609,1.2598-2.46,1.2598
				c-1.001,0-1.8008-0.3096-2.4004-0.9297s-0.9004-1.4297-0.9004-2.4297c0-0.9199,0.3496-1.71,1.0508-2.3701
				c0.6992-0.6602,1.5293-0.9902,2.4893-0.9902c2.2803,0,4.1699,0.8203,5.6699,2.46
				C542.8896,28.4414,543.6396,30.4004,543.6396,32.6807z"/>
			<path class="st0" d="M602.0801,20.2607c-8.3203,0-15.5205,2.2197-21.5996,6.6602c-6.8008,4.96-10.2002,11.4404-10.2002,19.4395
				c0,4.5215,1.2988,8.3008,3.8994,11.3408c2.7197,3.2002,6.3008,4.7998,10.7402,4.7998c3.5195,0,6.5596-0.9199,9.1201-2.7598
				c2.8398-2.04,4.2793-4.7598,4.3203-8.1602c0.0391-2.96-1.1211-5.0195-3.4805-6.1807c0.2402,1.001,0,1.8711-0.7197,2.6104
				c-0.7197,0.7402-1.5811,1.1104-2.5801,1.1104c-0.96,0-1.7402-0.29-2.3398-0.8701c-0.6006-0.5791-0.9004-1.3506-0.9004-2.3105
				c0-1.0391,0.3203-1.8691,0.96-2.4893s1.4795-0.9307,2.5205-0.9307c2.3994,0,4.3799,0.9004,5.9395,2.7002
				c1.5605,1.7998,2.3398,3.9209,2.3398,6.3604c0,4.0801-1.6406,7.2998-4.9199,9.6602c-2.9199,2.1191-6.5,3.1797-10.7393,3.1797
				c-5.8008,0-10.5605-1.5605-14.2803-4.6797c-3.96-3.3604-5.9404-7.8799-5.9404-13.5605c0-6.4395,2.8203-12.0996,8.46-16.9795
				c4.6807-4.0801,10.5195-7.0801,17.5205-9h-33.6006v-1.8008h45.4805V20.2607z M601.4199,35.3809l-3.7197,2.6396
				c-1.3604-3.4795-3.1602-6.6387-5.4004-9.4795l1.0801-1.1406C596.4189,29.5605,599.0996,32.2217,601.4199,35.3809z
				 M607.1797,31.6611l-3.6602,2.5195c-1.1201-3.0791-2.9199-6.1992-5.3994-9.3604l1.1396-1.2598
				c1.4404,1.001,2.8506,2.2109,4.2305,3.6299C604.8701,28.6113,606.0996,30.1006,607.1797,31.6611z"/>
			<path class="st0" d="M652.5996,18.5205v4.5h-21L630.46,39.041c2.7598-2.6797,6.1592-4.0205,10.2002-4.0205
				c4.0801,0,7.4297,1.3203,10.0498,3.96c2.6191,2.6406,3.9297,6.0205,3.9297,10.1406c0,3.96-1.46,7.1797-4.3799,9.6602
				s-6.4404,3.7197-10.5596,3.7197c-3.2803,0-6.1406-0.7197-8.5801-2.1602c-2.9209-1.7598-4.3799-4.1602-4.3799-7.2002
				c0-1.3594,0.3496-2.4688,1.0498-3.3301c0.6992-0.8594,1.6289-1.29,2.79-1.29c0.9199,0,1.71,0.3506,2.3701,1.0498
				c0.6602,0.7012,0.9902,1.5107,0.9902,2.4307c0,0.3203-0.2803,1-0.8408,2.04s-0.8398,1.7607-0.8398,2.1602
				c0,1.4004,0.75,2.5,2.25,3.2998c1.5,0.8008,3.1104,1.2002,4.8301,1.2002c2.6797,0,4.8994-1.0098,6.6602-3.0303
				c1.7598-2.0195,2.6396-4.79,2.6396-8.3105c0-3.1592-0.8496-5.9893-2.5498-8.4893s-4.0498-3.75-7.0498-3.75
				c-3.6406,0-6.5996,1.5801-8.8799,4.7393h-1.8604l1.5605-23.3398H652.5996z"/>
			<path class="st0" d="M699.3398,15.8203l-2.8799,3.54h13.6797L712,16.3008l4.8604,3.2402
				c0.5996,0.4004,0.8994,0.7793,0.8994,1.1396c0,0.5205-0.6396,0.96-1.9199,1.3203v14.3994l-5.0996,0.8408v-1.6807h-23.5801v4.5
				h31.4395l3.3008-3.8994l5.46,4.3799v1.0195h-40.2002v4.6807h31.3203l1.8594-2.7002l5.04,3.2998
				c0.4395,0.2803,0.6602,0.54,0.6602,0.7803c0,0.4795-0.7607,0.9199-2.2803,1.3193c-0.4404,4.1611-0.7793,7.0205-1.0195,8.5801
				c-0.7207,4.1201-1.7012,6.7598-2.9404,7.9199c-1.3604,1.2803-3.2002,1.9199-5.5195,1.9199
				c-0.5205,0.1201-0.8613-0.2002-1.0205-0.96c-0.2002-1.1992-0.46-2-0.7793-2.3994c-0.6807-0.8809-1.9209-1.3398-3.7207-1.3799
				V61.541H716.5c1.1191-3.3994,1.8398-8,2.1602-13.7998H694.54v11.5195h8.8203v-9.6602l5.6992,0.96
				c0.8799,0.1602,1.3203,0.4404,1.3203,0.8398c0,0.5605-0.7402,1.1611-2.2197,1.8008v9.5996l-4.7998,0.6602v-2.7002h-22.5v3.1797
				l-4.8008,0.6602V49.3008l5.5801,1.0195c0.7598,0.1201,1.1406,0.3809,1.1406,0.7803c0,0.4805-0.6406,0.9805-1.9199,1.5v6.6602
				h8.8799V47.7412h-2.5801v0.96l-5.1006,0.7197V16.3604l5.8203,3h5.5205l0.8994-6.8398l6.2402,1.2002
				c0.8789,0.1602,1.3203,0.4199,1.3203,0.7803C701.8604,15.0615,701.0195,15.501,699.3398,15.8203z M710.7402,20.8604h-23.5801
				v5.7607h23.5801V20.8604z M710.7402,28.1211h-23.5801v5.9395h23.5801V28.1211z"/>
			<path class="st0" d="M740.0801,57.7607V38.6211h-6.4805l-0.8994-1.5h6.5996l2.04-3.4199l5.3398,3.3594
				c0.6797,0.4404,1.0205,0.8398,1.0205,1.2002c0,0.5205-0.8398,1.0205-2.5205,1.5v14.7002
				c1.8799,4.5596,6.6201,6.8398,14.2207,6.8398h27.96v0.96c-1.8008,0.5596-2.8203,1.8398-3.0605,3.8398h-24.2402
				c-6.7598,0-11.9795-2.96-15.6592-8.8799c-2.8008,3.2803-5.1211,5.8799-6.96,7.7998c-0.0811,1.3203-0.4414,1.9805-1.0801,1.9805
				c-0.2402,0-0.6602-0.5205-1.2607-1.5605l-2.46-4.1992C735.4795,60.0811,737.959,58.9219,740.0801,57.7607z M735.04,16.6611
				l0.54-1.1406c7.2793,1.041,10.9199,3.4805,10.9199,7.3203c0,0.9209-0.2305,1.7002-0.6904,2.3398
				c-0.46,0.6406-1.0498,0.96-1.7695,0.96c-0.8398,0-1.4404-0.2188-1.7998-0.6602c-0.2012-0.2393-0.6211-1.0586-1.2598-2.46
				C739.6992,20.2607,737.7197,18.1406,735.04,16.6611z M761.2598,19.3008c-4.04,8.1602-7.1396,13.8809-9.2998,17.1602
				c7.3203,8.2402,10.9805,14.2598,10.9805,18.0596c0,0.9209-0.2803,1.7402-0.8408,2.46c-0.5605,0.7207-1.2803,1.0801-2.1592,1.0801
				c-0.96,0-1.6201-0.3193-1.9805-0.96c-0.2402-0.5195-0.5996-1.9795-1.0801-4.3799c-1.04-5.2393-3.2002-10.4795-6.4795-15.7197
				c2.5195-6.96,4.4785-14.4795,5.8799-22.5605l5.8193,2.5205c0.8799,0.3594,1.3203,0.8008,1.3203,1.3203
				C763.4199,18.9609,762.7002,19.3008,761.2598,19.3008z M772.4805,19.6006c-2.8408,5.8008-6.1807,11.6201-10.0205,17.46
				c7.3994,6.5605,11.0996,12.2607,11.0996,17.1006c0,2.4404-0.9395,3.6592-2.8193,3.6592c-1.0801,0-1.8604-0.6387-2.3398-1.9199
				c0-0.0391-0.2207-1.1592-0.6602-3.3594c-1.0801-5.4004-3.4404-10.4404-7.0801-15.1201
				c3.1992-7.6396,5.5391-15.1797,7.0195-22.6201l6,2.7598c0.6396,0.2803,0.96,0.6211,0.96,1.0205
				C774.6396,19.2617,773.9199,19.6006,772.4805,19.6006z M783.4004,19.6611c-4.6406,7.7998-8.1807,13.5-10.6201,17.0996
				c7.9199,6.96,11.8799,12.7402,11.8799,17.3398c0,2.4004-0.9404,3.6006-2.8203,3.6006c-1.1201,0-1.9404-0.7402-2.46-2.2207
				c-0.2803-1.2393-0.5605-2.46-0.8398-3.6602c-1.3604-5.4795-3.8799-10.3799-7.5596-14.6992c2.6396-5.96,5.1992-13.46,7.6797-22.5
				l6.2998,2.8799c0.5596,0.2402,0.8398,0.5605,0.8398,0.96C785.7998,19.1016,784.999,19.501,783.4004,19.6611z"/>
			<path class="st0" d="M840.8203,37.6611c0,7.3193-1.6006,13.3799-4.8008,18.1797c-3.7197,5.5605-9.0596,8.3398-16.0195,8.3398
				c-3.1201,0-5.7207-0.7002-7.7998-2.0996c-2.3604-1.5996-3.54-3.9004-3.54-6.9004c0-1.5996,0.3799-3,1.1396-4.2002
				c0.9199-1.3594,2.1396-2.04,3.6602-2.04c1.04,0,1.8799,0.3213,2.5205,0.96c0.6387,0.6406,0.96,1.4805,0.96,2.5205
				c0,0.9209-0.3213,1.6709-0.96,2.25c-0.6406,0.5801-1.4209,0.8701-2.3408,0.8701c-0.7598,0-1.4307-0.21-2.0098-0.6299
				c-0.5801-0.4199-0.8701-0.9902-0.8701-1.71c-0.3203,0.7598-0.4795,1.5-0.4795,2.2197c0,1.3203,0.5195,2.6201,1.5596,3.8994
				c1.5996,1.9609,4.0996,2.9404,7.5,2.9404c5.6406,0,9.8193-2.8203,12.54-8.46C833.959,49.5215,835,44.2412,835,37.9609
				c0-4.7197-0.8398-8.8594-2.5195-12.4199c-2.1602-4.6396-5.3613-6.96-9.6006-6.96c-4.5205,0-8.3799,2.2402-11.5801,6.7197
				c-3.5605,5.001-5.3398,10.1396-5.3398,15.4199v6.54h-5.5801V18.1611h5.5801v14.46c1.3203-4.4795,3.4395-8.1797,6.3604-11.1006
				c3.3193-3.3193,7.1396-4.9795,11.46-4.9795c5.4395,0,9.7197,2.2402,12.8398,6.7197
				C839.4189,27.2207,840.8203,32.0205,840.8203,37.6611z"/>
			<path class="st0" d="M904,54.8809c0,3.4404-2.2402,6.04-6.7197,7.7998c-3.3604,1.3594-7.041,2.04-11.04,2.04
				c-12.4404,0-18.6602-3.8193-18.6602-11.46c0-3.6797,1.959-6.9004,5.8799-9.6602c2.8398-1.959,6.459-3.5791,10.8604-4.8594
				c-0.3604-4.04-2.04-6.0605-5.04-6.0605c-2.7607,0-5.6406,1.2207-8.6406,3.6602c-2.1201,1.7207-3.7793,3.7803-4.9795,6.1797
				l-4.5605,9.0605l-5.3994-1.0205l12.8994-25.7402h-10.7998v-1.7998h11.6406l4.1992-8.3398l5.6406,0.7197L875.5,23.0205h25.9805
				v1.7998H874.54l-5.3398,10.6807c3.8398-3.2002,7.8389-4.7998,12-4.7998c4.5596,0,7.2393,2.2598,8.04,6.7793
				c4.2393-0.96,8.4795-1.5791,12.7197-1.8594l0.1201,1.7998c-4.6797,0.2402-8.8799,0.8398-12.5996,1.7998
				c0.0391,0.2402,0.0986,2.2002,0.1797,5.8799l0.1201,7.2598h-5.46V40.8408c-7.2812,3-10.9199,7.1396-10.9199,12.4199
				c0,6.5205,4.2988,9.7803,12.8994,9.7803c5.5996,0,9.96-1.1191,13.0801-3.3604c1.1191-0.7998,1.9805-1.9395,2.5801-3.4199
				c-0.8799,0.7607-1.6406,1.1396-2.2803,1.1396c-0.8799,0-1.6494-0.3389-2.3096-1.0195c-0.6602-0.6797-0.9902-1.46-0.9902-2.3398
				c0-0.9199,0.3604-1.7002,1.0801-2.3398s1.5391-0.96,2.46-0.96c1.2002,0,2.1797,0.3896,2.9404,1.1699
				C903.6191,52.6904,904,53.6807,904,54.8809z"/>
			<path class="st0" d="M929.6797,17.7412l-5.3398,11.5791c1.5996,0.3604,2.4004,0.8008,2.4004,1.3203
				c0,0.4404-0.6602,0.9004-1.9805,1.3799v34.6807l-5.0996,0.7197V37.0605c-2.5605,3.6406-4.7012,6.4004-6.4199,8.2803
				l-1.0801-0.9004c5.7598-8.8389,9.8398-19.2197,12.2402-31.1396l5.9395,1.5596c1,0.2803,1.5,0.7012,1.5,1.2607
				C931.8398,16.8408,931.1201,17.3809,929.6797,17.7412z M948.04,26.501h10.6201l3.2998-4.0801l5.3398,4.4395v1.1406h-18.54
				c3.6396,9.1201,10.1797,16.7402,19.6201,22.8594l-0.54,0.9004c-1.7607,0-3.3203,1.1201-4.6797,3.3604
				c-6.8398-6.3203-11.8799-14.6201-15.1201-24.9004v22.6201h2.5195l3-3.4199l4.8008,3.54v1.3799H948.04v12l-5.4004,0.7803V54.3408
				h-9.0596l-0.9004-1.5h9.96V36.6406c-4.3604,7.9199-9.7402,14.2803-16.1396,19.0801l-0.7197-0.96
				c5.7988-6.2402,10.6592-15.1592,14.5801-26.7598h-12l-0.7207-1.5h15V13.3604l6.1201,0.9004
				c0.8799,0.1201,1.3203,0.4404,1.3203,0.96c0,0.6406-0.6807,1.1807-2.04,1.6201V26.501z"/>
			<path class="st0" d="M975.2803,48.1611h1.0801c0.7588,3,1.1396,5.6602,1.1396,7.9795c0,4.1201-1.041,6.1797-3.1201,6.1797
				c-1.3203,0-1.9795-0.7197-1.9795-2.1592c0-0.4805,0.5596-1.8799,1.6797-4.2002
				C974.8799,54.3213,975.2803,51.7217,975.2803,48.1611z M980.4404,17.1406h9.96l2.6992-3.5996l4.7402,3.8994v1.2002h-9v6.6602
				h1.0205l2.5801-3.4805l4.1396,3.7803v1.2002h-7.7402v6.4199h1.2002l2.46-3.2998l2.7598,2.5801
				c5.1992-5.5205,9.1807-12.0996,11.9404-19.7402l6.1797,2.2803c0.4805,0.2002,0.7197,0.4404,0.7197,0.7197
				c0,0.6406-0.7197,1.0205-2.1592,1.1396c3.999,5.4404,9.3193,9.3604,15.96,11.7607v1.0801
				c-1.4805,0.0801-2.7812,1.2402-3.9004,3.4795c-2.2002-1.5195-4.3008-3.3193-6.2998-5.4004
				c-2.7207-2.7988-5.001-6.0195-6.8398-9.6592c-1.9199,3.2002-4.9199,6.96-9,11.2793h10.6201l2.5791-3.2393l4.2002,3.6592v1.0801
				h-6.4795v6.1201h5.3994l1.8008-2.9395l4.6797,3.4199c0.4395,0.3203,0.6602,0.6396,0.6602,0.96
				c0,0.5605-0.7207,1.0801-2.1602,1.5596v10.5605l-4.5,0.8994v-2.2197h-5.1006c1.1201,2.7598,3.04,5.3203,5.7607,7.6797
				c2.5586,2.2412,5.3398,3.8809,8.3398,4.9199v1.0205c-1.8408,0.3604-3.1797,1.6201-4.0205,3.7803
				c-2.6797-1.7207-5.0605-4.0205-7.1396-6.9004c-2.2002-3.0391-3.6406-6.54-4.3203-10.5c-0.5996,4.4004-2.7803,8.2402-6.54,11.5195
				c-3.2393,2.8398-7.2402,4.9404-12,6.3008l-0.5996-1.2002c3.9199-1.7207,7.1592-3.9795,9.7197-6.7803
				c2.7197-3,4.3203-6.2793,4.7998-9.8398h-4.3799v2.2197l-4.5,0.7803V34.7207l4.5,2.3398h5.1006v-6.1201h-5.9404l-0.6602-1.3193
				c-2.6797,2.5195-5.5195,4.6602-8.5195,6.4199l-0.6006-0.7803l0.4209-0.54h-4.1406v6.9004h2.4004l1.5596-2.5801l4.5605,3.3594
				c0.3994,0.2803,0.5996,0.6006,0.5996,0.96c0,0.4414-0.5605,0.8408-1.6797,1.2002c-0.4004,6.1201-0.8613,10.7012-1.3799,13.7402
				c-0.4414,2.6006-0.9814,4.4004-1.6201,5.4004c-1.4404,2.2393-3.4404,3.3594-6,3.3594c-0.4004,0-0.6904-0.2695-0.8701-0.8096
				s-0.3506-1.0713-0.5098-1.5898c-0.4414-1.2402-2.2803-2.0195-5.5205-2.3408v-1.0195h8.7002
				c1.5596-3.2793,2.3789-9.3398,2.46-18.1797h-11.4004v1.9795l-4.5,0.7197V14.5605L980.4404,17.1406z M978.1602,48.7012
				l0.8398-0.54c2.2393,2.04,3.54,4.4004,3.9004,7.0801c0.0791,0.5605,0.1191,1.04,0.1191,1.4395
				c0,1.7207-0.6201,2.5801-1.8594,2.5801c-0.8008,0-1.2812-0.3193-1.4404-0.96c-0.1201-0.3193-0.2002-1.2998-0.2393-2.9404
				C979.3994,52.3604,978.96,50.1406,978.1602,48.7012z M984.3398,25.3008v-6.6602h-4.2002v6.6602H984.3398z M984.3398,33.2207
				v-6.4199h-4.2002v6.4199H984.3398z M984.3398,41.6211v-6.9004h-4.2002v6.9004H984.3398z M981.4004,47.7412L982,46.9609
				c3.7998,2.04,5.7002,4.5,5.7002,7.3799c0,1.4004-0.54,2.0996-1.6201,2.0996c-0.5605,0-0.96-0.2598-1.2002-0.7793
				c-0.1201-0.2402-0.3604-1.04-0.7197-2.4004C983.5596,50.9414,982.6396,49.1016,981.4004,47.7412z M984.46,46.1211l0.4805-0.7803
				c4.0791,0.6807,6.1191,2.2002,6.1191,4.5596c0,1.2812-0.5,1.9199-1.5,1.9199c-0.3203,0.1611-0.8604-0.459-1.6191-1.8594
				C986.9395,48.2012,985.7803,46.9219,984.46,46.1211z M1008.1602,38.5605h-4.9805v9.2402h4.6201
				C1008.04,45.6406,1008.1602,42.5615,1008.1602,38.5605z M1018.6602,47.8008v-9.2402h-5.8799
				c0,4.3604-0.1006,7.4404-0.2998,9.2402H1018.6602z"/>
		</g>
	</g>
</g>
</svg>
