<?xml version="1.0" encoding="utf-8"?>
<!-- Generator: Adobe Illustrator 25.2.1, SVG Export Plug-In . SVG Version: 6.00 Build 0)  -->
<svg version="1.1" id="レイヤー_1" xmlns="http://www.w3.org/2000/svg" xmlns:xlink="http://www.w3.org/1999/xlink" x="0px"
	 y="0px" viewBox="0 0 1040 80" style="enable-background:new 0 0 1040 80;" xml:space="preserve">
<style type="text/css">
	.st0{fill:#1E1E28;}
</style>
<g>
	<g>
		<g>
			<path class="st0" d="M26.3203,66.2207h-2.9404V43.1211c-2.7598,3.3203-5.7002,6.3594-8.8203,9.1201l-1.9795-2.2207
				c8.8398-7.6797,14.8799-15.5791,18.1201-23.7002H13.96v-2.7598h8.7002v-9.3594h2.9395v9.3594h8.3408v2.1602
				c-1.5605,4.1201-3.8203,8.2803-6.7803,12.4805c3.0791,3.6396,6.2998,6.9395,9.6602,9.8994l-1.9805,2.1602
				c-3.2002-3.0391-6.04-6-8.5195-8.8799V66.2207z M64.8398,55.4805H61.96v-4.0195h-9.1797v14.7598h-3V51.4609h-8.7002v4.0195
				h-2.8799V23.1406h11.5801v-8.9395h3v8.9395h12.0596V55.4805z M49.8398,35.6211v-9.6006h-8.7598v9.6006H49.8398z M49.8398,48.6406
				V38.3809h-8.7598v10.2598H49.8398z M61.96,35.6211v-9.6006h-9.2402v9.6006H61.96z M61.96,48.6406V38.3809h-9.2402v10.2598H61.96z
				"/>
			<path class="st0" d="M82.9004,38.8008c-2.1211,5.4805-4.8809,10.6797-8.2803,15.5996l-1.5-2.7598
				c4.4795-6.3594,7.7402-12.6797,9.7803-18.96v-1.0801h-9v-2.7598h9v-8.9404c-2.2412,0.4004-4.7803,0.7412-7.6201,1.0205
				l-1.2607-2.6396c6.5195-0.3994,12.4805-1.6201,17.8809-3.6602l1.6797,2.3398c-2.4404,0.9209-5.04,1.7002-7.7998,2.3398v9.54
				h7.9795v2.7598h-7.9795v2.2197c2.04,4.2412,4.4395,8.2012,7.2002,11.8809l-1.5605,2.3994
				c-2.001-2.8398-3.8799-6.0195-5.6396-9.54V66.041h-2.8799V38.8008z M122.4404,18.8809
				c-2.6406,14.04-7.8213,25.6201-15.54,34.7402v4.5c0,1.7197,0.2793,2.8193,0.8398,3.2998c0.4395,0.3604,1.459,0.54,3.0596,0.54
				h3.2402c2.4395,0,3.9395-0.5596,4.5-1.6797c0.4795-1,0.7197-3.7803,0.7197-8.3408l3.0605,0.8408
				c0,5.1201-0.4707,8.4102-1.4102,9.8691c-0.9404,1.46-3.0508,2.1904-6.3301,2.1904H109.96c-2.4805,0-4.1201-0.3896-4.9199-1.1699
				c-0.8008-0.7803-1.2002-2.4092-1.2002-4.8896v-1.8008c-3.04,3.041-6.4199,5.6807-10.1396,7.9199l-2.3398-2.0996
				c4.6797-2.5195,8.8389-5.7793,12.4795-9.7803V27.4004h3.0605v21.96c6.3594-8.3994,10.6191-19.0791,12.7793-32.04
				L122.4404,18.8809z M99.7002,33.5811c-0.9209,7.2803-2.6201,13.8203-5.1006,19.6201l-2.46-1.8604
				C94.6602,45.7412,96.2803,39.4609,97,32.501L99.7002,33.5811z M113.8604,22.1211l-2.04,2.3398
				c-3.9209-2.7197-7.9609-4.8994-12.1201-6.54l1.9199-2.3398C106.0996,17.4209,110.1797,19.6006,113.8604,22.1211z
				 M128.2598,49.1807L125.5,50.4404c-1.5596-5.6396-3.5801-10.5596-6.0596-14.7598l2.5791-1.3203
				C124.6602,39.0811,126.7393,44.0205,128.2598,49.1807z"/>
			<path class="st0" d="M155.7402,59.6807h-16.2598v4.6201h-3.0605V23.9805h6.96c1.1191-3.2393,2-6.5195,2.6396-9.8398
				l3.1201,0.4805c-0.7197,2.96-1.6201,6.0801-2.6992,9.3594h9.2998V59.6807z M152.7402,39.8809V26.8604h-13.2598v13.0205H152.7402z
				 M152.7402,56.8008V42.7012h-13.2598v14.0996H152.7402z M184.6602,38.501c0,8.3604-0.2607,14.2598-0.7803,17.7002
				c-0.5605,3.5996-1.5801,5.96-3.0596,7.0801c-1.2002,0.8398-3.3809,1.2598-6.54,1.2598h-4.8604l-0.96-2.9404h5.5205
				c2.3594,0,3.9795-0.3799,4.8594-1.1396c1.1191-1,1.8604-3.1201,2.2197-6.3604c0.3604-3.0391,0.54-8.3193,0.54-15.8398V26.3809
				h-16.8594c-1.4805,3.2402-3.3408,6.6406-5.5801,10.2002l-2.6406-1.3203c4.3203-6.6396,7.4795-13.6396,9.4805-21l3,0.5996
				c-1,3.1611-2.0205,6.041-3.0596,8.6406h18.7197V38.501z M174.0996,47.6211l-2.8193,1.0801
				c-2.001-4.4404-4.3203-8.5801-6.96-12.4199l2.6992-1.0801C169.459,38.8008,171.8203,42.9404,174.0996,47.6211z"/>
			<path class="st0" d="M223.7803,26.0205c-3.8809,1.041-7.9609,1.8408-12.2402,2.4004
				c-3.3604,10.3203-7.3008,19.7803-11.8203,28.3799l-3.1797-1.5596c4.6797-8.7197,8.4795-17.54,11.4004-26.46
				c-3.8809,0.3594-7.3203,0.46-10.3203,0.2998l-0.4805-3.4199c3.7598,0.3203,7.7197,0.2607,11.8799-0.1807
				c1.04-3.3994,1.9404-6.8398,2.7002-10.3193l3.4805,0.4795c-0.8398,3.4404-1.7012,6.5801-2.5801,9.4199
				c3.4795-0.5195,7.04-1.3193,10.6797-2.3994L223.7803,26.0205z M244.1797,57.7012l-1.8594,2.8799
				c-3.8809-2.5205-7.4805-4.4404-10.8008-5.7607c-0.1602,3.1201-0.8799,5.4209-2.1592,6.9004c-1.6807,1.959-4.5,2.9404-8.46,2.9404
				c-2.6807,0-4.9414-0.5605-6.7803-1.6807c-2.2002-1.3594-3.2998-3.2793-3.2998-5.7598c0-2.5996,1.0996-4.5996,3.2998-6
				c1.8389-1.2002,4.1191-1.7998,6.8398-1.7998c2.1602,0,4.5996,0.3604,7.3203,1.0801c0-1.5996-0.041-4.1797-0.1201-7.7402
				c-0.04-3.8398-0.0605-6.54-0.0605-8.0996h3.3604l0.0596,16.8594C235.7998,53.001,240.0195,55.0605,244.1797,57.7012z
				 M228.2803,53.5605c-2.6406-0.7998-5.1006-1.2002-7.3799-1.2002c-2.001,0-3.6309,0.4209-4.8906,1.2607
				s-1.8896,2.04-1.8896,3.5996c0,1.4004,0.5996,2.4902,1.7998,3.2705c1.2002,0.7793,2.7793,1.1699,4.7402,1.1699
				c3,0,5.0596-0.7002,6.1797-2.1006C227.7598,58.4014,228.2393,56.4014,228.2803,53.5605z M245.5596,31.3604l-2.0996,2.7002
				c-4.4004-3.3594-9.0205-5.9395-13.8604-7.7402l1.9199-2.6992C236.4404,25.6211,241.1201,28.2012,245.5596,31.3604z"/>
			<path class="st0" d="M298.7803,61.8408h-3.8398l-5.1006-13.3799h-19.9795L265,61.8408h-3.7197l16.1396-43.4404h4.5
				L298.7803,61.8408z M288.7002,45.2207l-9.0605-23.7598l-8.5801,23.7598H288.7002z"/>
			<path class="st0" d="M357.8203,61.8408h-4.0801l-5.5801-14.6396c-1.5205-3.96-4.1406-5.9404-7.8604-5.9404h-11.5801v20.5801H325
				V18.4004h18.7197c3.7998,0,6.8193,0.8613,9.0605,2.5801c2.5596,1.9199,3.8398,4.7803,3.8398,8.5801
				c0,3.0811-0.9209,5.5801-2.7598,7.5c-1.6807,1.7607-3.9404,2.9404-6.7803,3.54c2.0791,1.0801,3.6191,2.9004,4.6201,5.46
				L357.8203,61.8408z M352.9004,29.6211c0-5.3193-3.1611-7.9805-9.4805-7.9805h-14.7002v16.3799H343c3,0,5.4004-0.75,7.2002-2.25
				S352.9004,32.2217,352.9004,29.6211z"/>
			<path class="st0" d="M388.2998,37.8408L385,39.2812c-2.2803-6.2803-4.7803-11.3408-7.5-15.1807l3.1797-1.4395
				C383.5996,27.0615,386.1396,32.1211,388.2998,37.8408z M422.5596,22.3604c-2.8398,18.1611-12.0205,31.9004-27.54,41.2207
				l-2.7598-2.7002c7.9199-4.6396,14.0195-10.1602,18.2998-16.5605c4.0801-6.1191,6.8799-13.6992,8.4004-22.7393L422.5596,22.3604z
				 M402.9404,35.0205l-3.3604,1.3799c-1.7998-5.4795-4.1611-10.5391-7.0801-15.1797l3.2402-1.3799
				C398.6201,24.5615,401.0195,29.6211,402.9404,35.0205z"/>
			<path class="st0" d="M483.7598,23.501c-4.1201,5.8799-9.3594,11.7803-15.7197,17.7002l-3-2.1602
				c5.8398-4.9199,10.5391-10,14.0996-15.2402h-41.5801v-3.3604h46.2002V23.501z M461.3203,39.1611
				c0,11.1201-5.2803,19.4395-15.8398,24.96l-2.7607-2.6406c5.1602-2.5996,8.96-5.6895,11.4004-9.2695
				c2.4395-3.5791,3.6602-8.0703,3.6602-13.4697v-8.9404h3.54V39.1611z"/>
			<path class="st0" d="M544.2402,40.6611h-48.4199v-3.54h48.4199V40.6611z"/>
			<path class="st0" d="M602.2002,23.3203c-0.04,0-1.3799,0.0811-4.0205,0.2402c-5.8799,1.4404-10.9795,4.0801-15.2998,7.9199
				c-4.7607,4.2002-7.1396,8.7607-7.1396,13.6807c0,7.4004,6.2402,12.2607,18.7197,14.5801l-1.3799,3.4199
				c-13.8809-2.5596-20.8203-8.5-20.8203-17.8203c0-4.3994,1.7197-8.5996,5.1602-12.5996c3.0391-3.5605,6.96-6.4404,11.7598-8.6406
				c-10,0.8008-21.2197,2.001-33.6602,3.6006l-0.2998-3.4199c13.2393-1.4795,28.8604-2.9199,46.8604-4.3203L602.2002,23.3203z
				 M599.7402,39.041l-2.04,1.5596c-2.0801-2.7598-4.2812-5.0195-6.6006-6.7803l1.9805-1.5
				C595.2793,34.041,597.499,36.2812,599.7402,39.041z M605.4404,35.6211l-2.04,1.5c-2.1211-2.8398-4.3008-5.1006-6.54-6.7803
				l1.9795-1.5C600.8799,30.4004,603.0791,32.6611,605.4404,35.6211z"/>
			<path class="st0" d="M655.8398,48.4609c0,4.4395-1.54,7.8809-4.6201,10.3203c-2.8408,2.2002-6.5605,3.2998-11.1602,3.2998
				c-6,0-10.9795-1.7793-14.9395-5.3398l2.7002-2.4004c3.8398,3.04,7.8789,4.5596,12.1201,4.5596c3.7588,0,6.75-0.9297,8.9697-2.79
				c2.2197-1.8594,3.3301-4.4092,3.3301-7.6494c0-2.7197-0.9805-4.8994-2.9404-6.54c-1.96-1.6396-4.5801-2.46-7.8594-2.46
				c-2.1602,0-4.3008,0.4004-6.4209,1.2002c-2.3203,0.8398-4.0791,1.96-5.2793,3.3594l-3.2998-0.1797l2.5791-25.0801H654.04v3.2402
				h-21.8398l-1.8604,17.7002c3.5195-2.3193,7.3799-3.4805,11.5801-3.4805c4.04,0,7.3594,1.0801,9.96,3.2402
				C654.5195,41.7412,655.8398,44.7412,655.8398,48.4609z"/>
			<path class="st0" d="M727,43.4209h-45.2402v4.5h42.1201v7.0195c0,4.041-0.5205,6.8008-1.5596,8.2803
				c-1.2402,1.8799-3.7412,2.8203-7.5,2.8203h-4.0205l-1.0195-2.9404h4.7393c2.7998,0,4.5996-0.7197,5.4004-2.1602
				c0.5596-0.96,0.8398-3,0.8398-6.1201V50.501h-26.3398v8.2803h12.7197V52.541h3.0605v9h-31.1406v3.1201h-3.1191V52.541h3.1191
				v6.2402h12.1807V50.501h-12.6006v-30.54h15.0605c1.2002-2.1602,2.1396-4.3398,2.8193-6.54l3.0605,0.6602
				c-0.5996,1.7607-1.4609,3.7197-2.5801,5.8799h22.6201v16.5596h-37.8604v4.2002H727V43.4209z M716.5,26.9209V22.541h-34.7402
				v4.3799H716.5z M716.5,34.0605v-4.6797h-34.7402v4.6797H716.5z"/>
			<path class="st0" d="M743.9805,57.8809c-2.7207,2.5605-5.7812,5.1191-9.1807,7.6797l-1.2002-3.2402
				c4.1201-2.8799,7.2197-5.3594,9.3008-7.4395V39.2812h-8.8809v-3.0605h12v18.7197c0.8799,2.3613,2.1797,4.041,3.9004,5.04
				c1.5996,0.9209,3.8398,1.3799,6.7197,1.3799h30l-0.8398,3H756.46c-3.1602,0-5.7207-0.5-7.6797-1.5
				C746.8193,61.8613,745.2197,60.2012,743.9805,57.8809z M746.3799,24.3408l-2.46,1.9795c-2.7998-3.1592-5.6201-5.8389-8.46-8.0391
				l2.46-1.9805C740.7197,18.541,743.5391,21.2207,746.3799,24.3408z M761.5,16.3604c-2.3203,7.1211-5.04,13.4209-8.1602,18.9004
				c3.2402,7.1611,5.8994,14.2607,7.9805,21.2998l-3.0605,1.0205c-2.0801-7.5195-4.8398-15-8.2793-22.4404
				c3.1992-5.5195,6.0391-12.0791,8.5195-19.6797L761.5,16.3604z M772.8398,55.3604l-2.9395,0.96
				c-2.4404-7.5596-5.4004-14.6396-8.8809-21.2393c3.04-4.7598,6.0205-10.9805,8.9404-18.6602l2.8799,1.0195
				c-2.3604,6.1611-5.1807,12.0811-8.46,17.7607C768.0596,42.6406,770.8799,49.3604,772.8398,55.3604z M786.4004,56.3203l-3,1.0801
				c-3-7.5195-6.6006-14.9395-10.8008-22.2598c3.9199-6.2402,7.2197-12.7588,9.9004-19.5596l3,0.96
				c-2.4004,6.2002-5.5195,12.4199-9.3604,18.6602C780.0596,42.001,783.4795,49.041,786.4004,56.3203z"/>
			<path class="st0" d="M814.5996,35.8008c-1.6406,3.1201-2.7207,5.2197-3.2393,6.2998c-1.2002,2.4004-2.1807,4.6406-2.9404,6.7197
				c0.0391,0.2402,0.0996,0.5811,0.1797,1.0205l-3.2998,0.4795c-0.4795-3.96-0.7197-8.5195-0.7197-13.6797
				c0-5.5596,0.8193-12.1201,2.46-19.6797l3.4795,0.6602c-1.7598,7-2.6396,13.2803-2.6396,18.8398
				c0,3.8398,0.0195,6.1406,0.0605,6.8994c0.96-2.1592,2.5195-5.2393,4.6797-9.2393L814.5996,35.8008z M835,37.7207
				c0,6.8809-1.3105,12.5098-3.9297,16.8896c-2.6211,4.3809-6.9102,8.0508-12.8701,11.0107L815.5,63.041
				c5.8799-2.7598,10.0596-6.1201,12.54-10.0801c2.3594-3.8398,3.54-8.9404,3.54-15.2998c0-5.7197-0.6406-12.5801-1.9199-20.5801
				l3.54-0.54C834.4004,24.541,835,31.6006,835,37.7207z"/>
			<path class="st0" d="M903.04,36.4004c-4.6006,1.8008-9.8398,4.2607-15.7197,7.3809c0.0391,0.8398,0.0596,2.1396,0.0596,3.8994
				v7.5605h-3.1797v-9.8408c-7.9609,4.4805-11.9404,8.2412-11.9404,11.2803c0,1.6406,0.9502,2.8203,2.8506,3.54
				c1.8994,0.7197,5.209,1.0801,9.9297,1.0801c3.96,0,8.6797-0.4805,14.1602-1.4404l0.0596,3.3008
				c-5.7207,0.7998-10.5,1.1992-14.3398,1.1992c-5.2803,0-9.1797-0.5195-11.7002-1.5596c-2.8799-1.2002-4.3193-3.1797-4.3193-5.9404
				c0-4.1191,5.04-9.0195,15.1191-14.6992c-0.3594-3.1602-1.8203-4.7402-4.3799-4.7402c-2.2793,0-5.0996,1.0605-8.46,3.1797
				c-2.7207,1.7607-5.3008,3.8398-7.7393,6.2402c-1.041,1.4404-2.0205,2.7002-2.9404,3.7803l-2.46-2.3398
				c5.4395-6.2803,10.1191-13.3809,14.04-21.3008c-4.6406,0.3213-8.8604,0.4609-12.6602,0.4199l-0.1797-3.0596
				c4.999,0.1602,9.7393,0.0811,14.2197-0.2402c1.3203-2.8799,2.5205-5.8594,3.5996-8.9395l3.3008,0.5996
				c-1.041,2.7207-2.1807,5.4004-3.4199,8.04c4.5986-0.4395,9.6387-1.1797,15.1191-2.2197l0.2402,3.2393
				c-5.8408,0.8408-11.4404,1.4805-16.7998,1.9209c-2.1602,4.4395-4.5811,8.7402-7.2598,12.8994
				c4.6396-3.4395,8.5996-5.1602,11.8799-5.1602c3.7588,0,6.0195,2.0605,6.7803,6.1807c1.1191-0.6006,5.7988-2.9004,14.04-6.9004
				L903.04,36.4004z"/>
			<path class="st0" d="M923.7402,65.9805h-3.1201V34.4209c-1.96,3.8008-4.1396,7.3799-6.54,10.7402l-2.3398-1.9805
				c6.2793-8.7197,10.8193-18.4795,13.6201-29.2803l3,0.54c-1.2002,4.5205-2.7402,8.9609-4.6201,13.3203V65.9805z M945.1602,31.9609
				c-4.7207,10.1201-10.1807,18.5605-16.3799,25.3203l-2.1006-2.2207c6.7598-6.8789,12.6992-16.0996,17.8203-27.6602h-16.7998v-3
				h17.46V14.2607h2.9395v10.1396h17.7607v3h-17.1602c4.3594,9.7607,10.4395,18.9404,18.2402,27.54l-2.1602,2.2803
				c-6.6807-7.5195-12.2402-15.8789-16.6807-25.0801v19.7998h8.04v2.8799h-8.04v10.7402h-2.9395V54.8203h-7.9199v-2.8799h7.9199
				V31.9609z"/>
			<path class="st0" d="M978.2197,48.6406c-0.8008,6.1602-1.7197,11.1602-2.7598,15l-2.3398-0.8994
				c1.2393-4.1201,2.1797-9.04,2.8203-14.7607L978.2197,48.6406z M998.0801,18.6406h-9.2402v6.4805h7.5v2.5195h-7.5v6.0605h7.5
				v2.5195h-7.5v6.2998h8.2803v13.4404c0,4-0.3203,6.5996-0.96,7.7998c-0.7197,1.3203-2.2803,1.9805-4.6797,1.9805h-3.6006
				l-0.7803-2.8809h3.54c1.8398,0,2.9795-0.4795,3.4199-1.4395c0.3203-0.7598,0.4805-2.8398,0.4805-6.2402V45.1611H976V15.9404
				h22.0801V18.6406z M986.0801,25.1211v-6.4805h-7.2598v6.4805H986.0801z M986.0801,33.6406v-5.9395h-7.2598v5.9395H986.0801z
				 M986.0801,42.5205v-6.3594h-7.2598v6.3594H986.0801z M982.7197,60.9404l-2.0996,0.3604
				c-0.1201-4.2393-0.4805-8.3193-1.0801-12.2402l2.0996-0.3594C982.1592,52.7412,982.5195,56.8213,982.7197,60.9404z
				 M988.1201,59.0205l-2.04,0.3604c-0.4404-4.2002-1-7.8398-1.6797-10.9199l1.9199-0.3604
				C986.959,51.3408,987.5596,54.9814,988.1201,59.0205z M993.04,56.8008l-1.9199,0.4199c-0.4805-3.3994-1.1611-6.5596-2.04-9.4795
				l1.8604-0.4209C991.6992,50.0811,992.3994,53.2412,993.04,56.8008z M1028.5,30.5205l-2.0996,2.1602
				c-6-5.1191-10.7803-10.4395-14.3408-15.96c-3.7598,5.9609-8.3799,11.3203-13.8594,16.0801l-2.1006-2.04
				c5.7998-4.6396,10.5801-10.1592,14.3408-16.5596h3.2393C1017.1602,20.041,1022.0996,25.4805,1028.5,30.5205z M1019.7402,29.3203
				H1013.5v5.5801h10.8604v13.3809h-10.6201c2.3193,6.2393,6.999,11.54,14.04,15.8994l-1.9805,2.2803
				c-6.2803-3.9199-10.7998-8.8203-13.5596-14.7002c-1.1611,2.8799-3.041,5.7207-5.6406,8.5205
				c-2.3203,2.4805-4.7998,4.5391-7.4395,6.1797l-2.04-2.2197c3.1201-1.7598,5.8594-3.9805,8.2197-6.6602
				c2.7598-3.0801,4.4404-6.1807,5.04-9.2998h-10.2002V34.9004h10.4404v-5.5801h-6.0605v-2.5791h15.1807V29.3203z
				 M1010.6201,37.4805H1003v8.2207h7.6201V37.4805z M1021.6602,45.7012v-8.2207H1013.5v8.2207H1021.6602z"/>
		</g>
	</g>
</g>
</svg>
