<?xml version="1.0" encoding="utf-8"?>
<!-- Generator: Adobe Illustrator 25.2.1, SVG Export Plug-In . SVG Version: 6.00 Build 0)  -->
<svg version="1.1" id="レイヤー_1" xmlns="http://www.w3.org/2000/svg" xmlns:xlink="http://www.w3.org/1999/xlink" x="0px"
	 y="0px" viewBox="0 0 1040 80" style="enable-background:new 0 0 1040 80;" xml:space="preserve">
<style type="text/css">
	.st0{fill:#1E1E28;}
</style>
<g>
	<g>
		<g>
			<path class="st0" d="M28.96,67.7207H18.9404v-15.54c-1.4404,1.5205-3.0605,3.0605-4.8604,4.6201l-3.4805-10.8604
				c5.8809-5.7598,10-10.8789,12.3604-15.3594H12.9404v-9.9004h6v-7.9795H28.96v7.9795h5.2803v9
				c-1.2812,2.8408-2.7002,5.5605-4.2598,8.1602c1.6797,1.8398,3.5391,3.7002,5.5791,5.5801V20.8008h10.5605v-8.1602h10.5v8.1602
				h11.04V57.041h-9.4805v-1.7998h-1.6201V67.541H46.2402V55.2412h-1.6201v1.7998h-9.0605v-8.7002l-2.8799,5.8799
				c-1.1201-1.1592-2.3604-2.4795-3.7197-3.96V67.7207z M46.4199,33.1611V31.001h-1.7998v2.1602H46.4199z M46.4199,45.041v-2.2803
				h-1.7998v2.2803H46.4199z M58.1797,33.1611V31.001h-1.8594v2.1602H58.1797z M58.1797,45.041v-2.2803h-1.8594v2.2803H58.1797z"/>
			<path class="st0" d="M78.7598,52.8408c-1.2803,2.4004-2.8604,4.9199-4.7402,7.5596l-3.6592-11.8193
				c3.3994-4.5195,5.9189-8.46,7.5596-11.8203h-5.3398v-9.7803h6.1797v-2.46c-1,0.1201-2.54,0.2803-4.6201,0.4805l-3.0596-9.4805
				c7.6396-0.5996,14.0195-1.7188,19.1396-3.3594l4.2607,8.7598c-1.6006,0.6406-3.5205,1.2402-5.7607,1.7998v4.2598h4.7998v9.7803
				h-4.7998v0.0596c1.1201,1.8008,2.4795,3.7207,4.0801,5.7607c0.7998-3.9199,1.3594-7.9199,1.6807-12l6.7197,2.7598v-6.3604
				h10.0801c-4.9199-2.3193-10.0801-4.1992-15.4805-5.6396l5.7598-9c4.7598,1.0801,9.7207,2.8203,14.8809,5.2197
				c0.0391-0.1201,0.2393-1.3398,0.5996-3.6602l9.7803,5.2803c-1.3604,5.6807-2.9609,10.9404-4.8008,15.7803l2.7002-1.8604
				c2.2402,5.0801,3.9395,10.0605,5.1006,14.9404l-5.2803,3.1201l1.9795,0.54c0,6.8799-0.6396,11.2285-1.9199,13.0498
				c-1.2803,1.8193-4.1602,2.7295-8.6396,2.7295h-6.2402c-2.1201,0-3.6807-0.1602-4.6797-0.4795
				c-1.5596-0.5205-2.6201-1.5811-3.1797-3.1807c-1.4805,1.1201-3.1807,2.2207-5.1006,3.3008l-7.3193-8.2803
				c2.7598-1.3203,5.1797-2.7002,7.2598-4.1396l-4.6201-3.4199l-1.3203,3.1191c-0.8008-1.0801-1.4805-1.999-2.04-2.7598v16.0801
				h-9.96V52.8408z M101.2002,37.1807c-0.6807,6.3203-1.6807,11.7803-3,16.3799c1.0801-0.7998,2.0791-1.6396,3-2.5195V37.1807z
				 M111.3398,35.9805c1.9199-4.5986,3.5195-10.2598,4.7998-16.9795l-4.6201,8.0996l-0.1797-0.0596V35.9805z M118,43.9609
				c-2.001,3.8398-4.2207,7.3203-6.6602,10.4395v0.96c0,0.8809,0.3994,1.3203,1.2002,1.3203h1.6797
				c1.2803,0,2.0195-0.3604,2.2207-1.0801c0.1191-0.5195,0.1797-2.7393,0.1797-6.6602l3.0596,0.8408
				C119.1602,47.5811,118.5996,45.6406,118,43.9609z"/>
			<path class="st0" d="M175.8398,46.4209l-8.7002,4.9199c-1.5205-2.7598-2.6201-4.6797-3.2998-5.7598
				c-1.1602-1.8799-2.4404-3.7207-3.8398-5.5205v23.46h-15.2998v3.54h-11.2197V20.4404h6.7197
				c0.999-2.8799,1.7793-5.5996,2.3398-8.1592l11.2803,1.3799c-0.7607,2.6006-1.4609,4.8594-2.1006,6.7793H160v5.6406
				c1.5996-3.9199,3-8.5205,4.2002-13.7998l10.9199,1.5596c-0.4004,1.5596-0.9805,3.7803-1.7402,6.6602h13.5v19.6201
				c0,8.7598-0.2002,14.6201-0.5996,17.5801c-0.5205,3.8799-1.6602,6.459-3.4199,7.7393c-1.6006,1.1602-4.5205,1.7402-8.7607,1.7402
				h-4.3193l-3.3604-10.9199h4.6201c1.7598,0,2.8994-0.2598,3.4199-0.7803c0.6797-0.6797,1.0996-2.2588,1.2598-4.7393
				c0.1201-1.8008,0.1807-5.9404,0.1807-12.4209v-7.0195h-6.3008c-0.3594,0.8799-0.9395,2.2197-1.7393,4.0195l0.2998-0.1797
				C170.6396,38.2607,173.2002,42.0215,175.8398,46.4209z M149.0801,36.5811v-5.6406h-4.3799v5.6406H149.0801z M149.0801,52.7207
				v-5.9395h-4.3799v5.9395H149.0801z M160,39.5205l4.0801-2.2197L160,35.1406V39.5205z"/>
			<path class="st0" d="M229.0596,29.0811c-4.04,0.4004-8.0605,0.96-12.0596,1.6797c-4.2402,9.1201-9,17.8408-14.2803,26.1602
				l-9.96-5.2803c4.3594-6.1592,8.04-12.0996,11.04-17.8203c-2.1201,0.6406-4.2598,1.4014-6.4199,2.2803l-3.54-10.4395
				c5.1201-1.5605,10.2803-2.8799,15.4805-3.96c1.2393-3.2402,2.3398-6.6201,3.2998-10.1406l11.5801,2.2207
				c-0.6006,1.5205-1.3604,3.3994-2.2803,5.6396c1.2793-0.2002,3.1797-0.5,5.7002-0.9004L229.0596,29.0811z M247.1797,56.3809
				l-6.3594,10.3799c-1.7607-1.8809-3.8398-3.7803-6.2402-5.7002c-1.8809,4.96-6.0811,7.4404-12.5996,7.4404
				c-4.4805,0-8.1006-1.041-10.8604-3.1201c-2.8799-2.1602-4.3203-5.0791-4.3203-8.7598c0-3.7598,1.3398-6.7207,4.0205-8.8799
				c2.5195-2.04,5.8994-3.0605,10.1396-3.0605c0.8398,0,1.7402,0.04,2.7002,0.1201c0-1.9199,0.0791-3.4805,0.2402-4.6797
				c0.5186-3.5596,1.5195-5.8203,3-6.7803l8.8193,5.0996c-0.5996,1.4014-0.8994,3.4805-0.8994,6.2402
				c0,1,0.0596,2.0605,0.1797,3.1797C239.5596,49.9414,243.6191,52.7812,247.1797,56.3809z M224.1396,54.6406
				c-1.1201-0.3994-2.0801-0.5996-2.8799-0.5996c-2.4404,0-3.6602,0.7793-3.6602,2.3398c0,1.3604,1.0996,2.04,3.3008,2.04
				c1.2793,0,2.1592-0.3398,2.6396-1.0205C223.9395,56.8408,224.1396,55.9219,224.1396,54.6406z M247.7197,31.0605l-6.6602,9.3604
				c-1.3604-1.6797-3.21-3.4805-5.5498-5.4004s-4.4502-3.3994-6.3301-4.4395l6.3604-8.6406c2.0791,0.9209,4.29,2.2607,6.6299,4.0205
				C244.5098,27.7217,246.3594,29.4209,247.7197,31.0605z"/>
			<path class="st0" d="M304.1201,65.2012h-12.9004l-2.7598-8.8809h-17.1602l-2.5801,8.8809h-12.7793l15.8398-50.2803h15.6602
				L304.1201,65.2012z M285.2803,45.9404l-5.5801-18.2998l-5.4004,18.2998H285.2803z"/>
			<path class="st0" d="M363.1602,65.2012h-13.6797l-6.1201-13.7402c-1.3604-3.0391-4.1211-4.5605-8.2803-4.5605h-3.4199v18.3008
				h-12.4199V14.9209h24.0596c4.5996,0,8.4199,1.1807,11.46,3.54c3.5596,2.7598,5.3398,6.7402,5.3398,11.9395
				c0,6.3213-2.9795,10.8008-8.9395,13.4404c2.1992,1.2402,3.9395,3.2998,5.2197,6.1797L363.1602,65.2012z M347.3203,31.001
				c0-1.2803-0.3604-2.3604-1.0801-3.2402c-0.96-1.2002-2.4404-1.7998-4.4404-1.7998h-10.1396v10.5h10.1396
				c2,0,3.4805-0.6797,4.4404-2.04C346.96,33.4609,347.3203,32.3203,347.3203,31.001z"/>
			<path class="st0" d="M391,36.1006l-10.4404,4.3203c-1.3193-4.6396-3.6201-9.4805-6.8994-14.5205l9.8398-4.5596
				C386.7402,25.9004,389.2393,30.8203,391,36.1006z M425.6797,20.7412c-2.5596,8.5195-5.9395,16.6406-10.1396,24.3594
				c-4.5596,8.3604-9.6807,15.5605-15.3604,21.6006l-12-5.2803c12.8398-12.4805,21.3203-27.2197,25.4404-44.2197L425.6797,20.7412z
				 M405.8203,31.001l-10.5605,3.4795c-1.4805-5.4795-3.4404-10.5-5.8799-15.0596l10.5605-4.1396
				C402.7002,20.3613,404.6592,25.6006,405.8203,31.001z"/>
			<path class="st0" d="M487.7803,23.5605c-7.4805,7.1611-13.3604,12.4609-17.6406,15.9004l-3.6592-3.0605
				c-3.2402,13.2402-8.8203,23.6211-16.7402,31.1406l-10.8604-5.9404c8.7598-7.8799,14.04-17.5996,15.8398-29.1602l8.3398,1.0801
				l-1.1396-0.96c2.4004-1.7998,4.5195-3.5791,6.3604-5.3398l-15.54,1.2002c-6.6406,0.5205-12.1006,1.0195-16.3799,1.5
				L435.46,17.9805c10.959-0.2393,25.8799-1.1191,44.7598-2.6396L487.7803,23.5605z"/>
			<path class="st0" d="M544.96,44.2607c-2.7598-0.1592-6.04-0.2402-9.8398-0.2402c-14.8008,0-27.9404,0.6602-39.4199,1.9805
				l-0.7197-12.2998c5.1592-0.4805,11.7988-0.9004,19.9199-1.2607c11.9189-0.5186,21.9395-0.6992,30.0596-0.54V44.2607z"/>
			<path class="st0" d="M604.8398,27.041c-6.7598-0.04-12.04,1.2598-15.8398,3.8994c-4.4404,3.1201-6.6602,7.041-6.6602,11.7607
				c0,3.7197,1.3799,6.6396,4.1406,8.7598c2.5996,2.04,7.1191,3.8008,13.5596,5.2803l-6.1201,11.5195
				c-6.96-1.4404-12.5205-3.96-16.6797-7.5596c-4.9609-4.2803-7.4404-9.7598-7.4404-16.4404c0-2.5996,0.5-5.2891,1.5-8.0703
				c1-2.7793,2.3398-5.0889,4.0205-6.9297c-7.9199,1.4805-14.3203,2.9805-19.2002,4.5l-3.4805-11.8203
				c15.8408-3.3594,32.7607-5.6396,50.7607-6.8398L604.8398,27.041z M599.9805,39.2812l-5.2803,2.6992
				c-1.0801-2.5586-2.541-5.1191-4.3799-7.6797l4.8594-2.5801C597.1797,34.2012,598.7803,36.7217,599.9805,39.2812z
				 M607.1201,35.5605l-5.2197,2.8799c-1.5215-2.9189-3.1201-5.4395-4.8008-7.5596l4.9199-2.7598
				C603.8994,30.1211,605.5996,32.6016,607.1201,35.5605z"/>
			<path class="st0" d="M660.46,48.5205c0,5.8008-1.8398,10.2002-5.5195,13.2002c-3.3604,2.7197-8.0205,4.0801-13.9805,4.0801
				c-5.1602,0-9.3203-0.8203-12.4795-2.46c-3.8809-1.959-6.8408-5.3594-8.8809-10.2002l11.7002-4.9199
				c1.9199,4.7607,4.8604,7.1396,8.8203,7.1396c3.0391,0,5.2393-0.7793,6.5996-2.3398c1-1.0801,1.5-2.4395,1.5-4.0801
				c0-3.7588-2.0801-5.6396-6.2393-5.6396c-4.2412,0-7.2412,1.3203-9,3.96l-11.7607-0.5996l2.46-30.8408h34.9199v10.5H634.54
				l-0.7803,9.8408c2.7598-2,6.6396-3,11.6406-3c4.4395,0,8.0186,1.3193,10.7393,3.96
				C659.0195,39.8809,660.46,43.6816,660.46,48.5205z"/>
			<path class="st0" d="M727.7803,45.3408h-39.3604v1.3203h38.3398v11.7598c0,4.2002-0.6699,6.8701-2.0098,8.0098
				c-1.3408,1.1396-4.1904,1.71-8.5498,1.71h-4.3799L710.5,64.7812h-25.8604v2.1592h-11.5195V54.3408h11.5195v2.04h2.8799v-3.3604
				h-11.2197V16.4209h15.0605c0.5996-1.4404,1.1592-3,1.6797-4.6797l11.8203,1.2598c-0.2803,1-0.6406,2.1396-1.0801,3.4199h18.5996
				v20.6396h-33.96v1.3203h39.3604V45.3408z M710.5596,25.1211v-1.4404h-22.1396v1.4404H710.5596z M710.5596,31.6611v-1.4404
				h-22.1396v1.4404H710.5596z M713.0195,59.1406c0.9199,0,1.5098-0.0898,1.7705-0.2695c0.2598-0.1807,0.3896-0.79,0.3896-1.8301
				v-4.0205h-15.8398v3.3604h2.7598v-2.04h10.9199V59.1406z"/>
			<path class="st0" d="M742.1201,63.4004c-2.7207,2.2402-5.2607,4.0996-7.6201,5.5801l-3.1797-12.3594
				c2.5586-1.3594,4.7998-2.7197,6.7197-4.0801v-8.4004h-5.46V33.2207h13.7402l-0.1201-0.2998
				c4.1191-7.9199,7.0195-14.6191,8.7002-20.1006l9.54,3.4805c-1.9609,5.6396-4.5215,11.1807-7.6807,16.6201
				c2.1201,4.6006,4.5,11.0205,7.1406,19.2598l-9.7803,3.7803c-1.1201-3.7197-2.8408-9.0801-5.1602-16.0801V53.501
				c0.3193,2.0801,2.7002,3.1201,7.1396,3.1201h32.1006l-2.5801,10.1992h-31.7998
				C748.3398,66.8203,744.4395,65.6807,742.1201,63.4004z M750.5195,22.1807l-8.2793,8.1602c-2.8008-3.6396-5.9805-6.96-9.54-9.96
				l7.9199-7.9805C744.0596,14.9209,747.3594,18.1816,750.5195,22.1807z M775.54,16.541c-1.8809,5.4404-4.3799,10.9004-7.5,16.3799
				c2.2803,5.0801,4.6201,11.2803,7.0195,18.5996l-8.3994,3.8398l-3.96-11.8799c-1.4004-4.0801-2.8008-7.5986-4.2002-10.5596
				c3.4395-5.7998,6.3398-12.3994,8.7002-19.7998L775.54,16.541z M789.0996,16.3604c-1.6797,4.4805-4.3604,10.001-8.04,16.5605
				c2.5205,5.2402,5.1602,11.5,7.9209,18.7803l-10.5605,4.2598c-3.1602-9.7197-6.0596-17.4004-8.7002-23.04
				c2.9199-5,5.9199-11.7393,9-20.2197L789.0996,16.3604z"/>
			<path class="st0" d="M839.5596,37.0605c0,7.8408-1.75,14.3311-5.25,19.4707s-8.8896,9.2695-16.1699,12.3896l-9.4795-9.0605
				c6.3594-2.7988,10.7188-5.3789,13.0801-7.7393c3.4395-3.3604,5.1602-7.8994,5.1602-13.6201c0-6.3604-1.1611-9.54-3.4805-9.54
				c-2.5195,0-4.6797,2.0801-6.4795,6.2402c-1.5605,3.5996-2.3408,7.1396-2.3408,10.6191v1.0205l-10.7393,2.04
				c-0.7607-4.9199-1.1406-11.1992-1.1406-18.8398c0-5.4795,0.4805-11.6191,1.4404-18.4199l12.2998,1.4395
				c-1.2402,4.9609-1.96,8.6807-2.1602,11.1602c1.2393-2.0791,2.9199-3.8193,5.04-5.2197c2.3193-1.5195,4.6797-2.2803,7.0801-2.2803
				c4.1191,0,7.3799,2.001,9.7803,6C838.4395,26.4814,839.5596,31.2617,839.5596,37.0605z"/>
			<path class="st0" d="M905.8604,45.2812c-4.1611,0.4795-8.2207,1.1797-12.1807,2.0996c0.04,0.8008,0.0605,3.2002,0.0605,7.2002
				l-10.9805,0.4795c0.0801-0.96,0.1807-2.4199,0.2998-4.3799c-3.1602,1.3604-4.7393,2.7803-4.7393,4.2598
				c0,1.5205,1.4795,2.2803,4.4395,2.2803c4.7197,0,10-0.4795,15.8398-1.4395l-0.7793,11.7598
				c-3.96,0.3594-8.2607,0.54-12.9004,0.54c-4.8809,0-8.8604-0.7207-11.9395-2.1602c-4.2002-1.96-6.3008-5.0791-6.3008-9.3604
				c0-6.3193,4.6201-11.5596,13.8604-15.7197c-0.3604-0.1201-0.7803-0.1797-1.2598-0.1797c-5.7207,0-10.7607,3.4404-15.1201,10.3193
				l-8.5205-7.1396c3.7598-3.7998,7.4004-8.1201,10.9199-12.96l-6.8994,0.4199l-1.9199-10.6797
				c6.1992,0,11.4395-0.1396,15.7197-0.4199c1.5996-2.7998,3.0195-5.5205,4.2598-8.1602l11.9404,1.8594
				c-0.6006,0.96-1.6602,2.6211-3.1797,4.9805c3-0.4805,5.4795-1.0205,7.4395-1.6201l2.9404,10.3203
				c-3.041,0.5996-8.8203,1.3604-17.3408,2.2793l-0.4795,0.0605c-1.2402,1.7998-2.2803,3.2002-3.1201,4.2002
				c0.6396-0.3994,1.6201-0.79,2.9404-1.1699c1.3193-0.3799,2.4189-0.5703,3.2998-0.5703c4.1592,0,7.1592,1.54,9,4.6201
				c3.4395-1,7.3994-1.96,11.8799-2.8799L905.8604,45.2812z"/>
			<path class="st0" d="M928.96,67.541h-11.1602V45.1611c-0.6396,0.8799-1.6006,2.2002-2.8799,3.96l-4.6201-11.46
				c4.5195-6.96,8.1006-15.5,10.7402-25.6201l10.6201,1.6797c-0.8008,3.4805-1.7012,6.7402-2.7002,9.7803v24
				c4.4404-5.7998,7.9805-11.3193,10.6201-16.5605h-9.2998V20.0205h12.2998v-7.1396h11.0996v7.1396h13.9199v10.9199h-10.7998
				c2.9199,5.8008,7.2002,12.2402,12.8398,19.3203l-6.8398,8.7598c-1.4805-1.9199-2.7803-3.7197-3.8994-5.3994v6.1201h-5.2207
				v7.5596h-11.0996v-7.5596h-5.2197v-5.8809c-1.1211,1.6406-2.3613,3.3604-3.7207,5.1602l-4.6797-6V67.541z M943.1797,44.2607
				c-1.04,1.96-2.1807,3.9404-3.4199,5.9404h3.4199V44.2607z M953.0801,43.9609v6.2402h3.5996
				C955.3604,48.1211,954.1602,46.041,953.0801,43.9609z"/>
			<path class="st0" d="M977.7998,55.6611c-0.5205,4.2803-1.0605,7.6797-1.6201,10.1992l-6.0596-2.8799
				c0.999-3.96,1.9199-8.8799,2.7598-14.7598l5.46,1.6797l3-0.8398c0.6396,5.2002,1.0801,10.1006,1.3203,14.7002l-4.3203,1.0205
				L977.7998,55.6611z M986.6201,62.8604l-2.7002,0.6006c-0.5605-6.1201-1.0605-10.7197-1.5-13.7998l3.6602-1.0205
				c0.3604,2.001,0.8193,5.3008,1.3799,9.9004h2.3398c0.96,0,1.4404-0.5195,1.4404-1.5605v-0.4199l-2.8203,0.7803
				c-0.2402-2.04-0.6602-4.6592-1.2598-7.8604l3.1201-0.96c0.3193,1.6006,0.6387,3.4004,0.96,5.4004v-6h-17.8799V13.4805h26.2197
				v9.3604h-5.3398v1.5596h4.6797v0.2402c3.5596-3.1992,6.6602-7.1797,9.2998-11.9395h10.2607
				c2.8799,4.4395,6.6592,8.46,11.3398,12.0596l-3.3604,8.04h0.3604v17.7598h-7.0801c1.7998,2.9209,5.0195,5.7812,9.6602,8.5801
				l-4.6807,9.2402c-4.5596-2.3203-8.1396-5.5-10.7393-9.54c-2.5205,3.9209-6,7.1191-10.4404,9.5996l-4.2002-6.7197
				c-0.2803,2.4004-0.9209,3.999-1.9199,4.7998c-0.8398,0.7207-2.3008,1.0801-4.3799,1.0801h-5.4004L986.6201,62.8604z
				 M985.8398,24.4609v-1.6201h-2.9395v1.6201H985.8398z M985.8398,31.9004v-1.4395h-2.9395v1.4395H985.8398z M985.8398,39.5205
				v-1.6201h-2.9395v1.6201H985.8398z M998.9199,28.3008v2.0996h-4.6797v1.5605h4.6797v6h-4.6797v1.5596h5.2793v19.3203
				c3.8799-2.1992,6.7207-4.959,8.5205-8.2803h-7.0801V32.8008h0.1201L998.9199,28.3008z M1009.9004,32.8008v-1.3799h-2.2803
				v-2.2803c-0.9209,1.1201-2.0205,2.3398-3.2998,3.6602H1009.9004z M1009.9004,40.4805h-1.7402v2.3398h1.7402V40.4805z
				 M1011.6396,23.9209h3.8408c-0.8008-1.0801-1.4805-2.0596-2.04-2.9404C1012.96,21.9014,1012.3604,22.8809,1011.6396,23.9209z
				 M1020.2803,31.4209h-2.3398v1.3799h5.6396c-1.0801-0.999-2.1807-2.0791-3.2998-3.2402V31.4209z M1019.6797,42.8203v-2.3398
				h-1.7393v2.3398H1019.6797z"/>
		</g>
	</g>
</g>
</svg>
