<?xml version="1.0" encoding="utf-8"?>
<!-- Generator: Adobe Illustrator 25.2.1, SVG Export Plug-In . SVG Version: 6.00 Build 0)  -->
<svg version="1.1" id="レイヤー_1" xmlns="http://www.w3.org/2000/svg" xmlns:xlink="http://www.w3.org/1999/xlink" x="0px"
	 y="0px" viewBox="0 0 1040 80" style="enable-background:new 0 0 1040 80;" xml:space="preserve">
<style type="text/css">
	.st0{fill:#1E1E28;}
</style>
<g>
	<g>
		<g>
			<path class="st0" d="M28.2998,67.3604h-8.0996V49.8408c-1.8408,2.04-3.7803,3.9805-5.8203,5.8203l-3.2402-8.4004
				c6.6006-6.2402,11.2402-12.1797,13.9199-17.8203H13.1797v-7.8594h6.8398v-8.4004h8.2207v8.4004h5.8799v6.8398
				c-1.4004,3.2402-3.1006,6.4795-5.1006,9.7197c1.8398,2.1211,4.1006,4.4209,6.7803,6.9004V21.4609h11.1006v-8.3398h8.3994v8.3398
				h11.6406v35.2197h-7.8604v-2.5195h-3.7803v12.96H46.96v-12.96h-3.6602v2.5195h-7.5v-8.8799l-3,5.46
				c-1.6406-1.6797-3.1406-3.2793-4.5-4.7998V67.3604z M47.0801,33.8809v-4.3203h-3.7803v4.3203H47.0801z M47.0801,46.0605V41.501
				h-3.7803v4.5596H47.0801z M59.0801,33.8809v-4.3203h-4.0205v4.3203H59.0801z M59.0801,46.0605V41.501h-4.0205v4.5596H59.0801z"/>
			<path class="st0" d="M79.8398,49.1807c-1.4805,2.9209-3.2402,5.8799-5.2803,8.8799L71.5,48.7607
				c3.5596-5.04,6.2402-9.5996,8.04-13.6797H73v-7.8604h6.8398v-4.1396c-1.2402,0.1602-3,0.3594-5.2803,0.5996l-2.6396-7.5596
				c7.2393-0.5596,13.3799-1.7002,18.4199-3.4199l3.54,6.8994c-1.7998,0.7197-3.8203,1.3604-6.0596,1.9199v5.7002h6.1201v7.8604
				h-6.1201v0.4795c1.3594,2.2803,3.1992,4.9199,5.5195,7.9199c0.8799-3.999,1.5195-8.3789,1.9199-13.1396l6.2998,2.5195
				c-0.7197,8.4404-2.0605,15.7412-4.0195,21.9004l-6-4.2598l-0.7197,1.6201c-1.1211-1.5195-2.1211-2.9404-3-4.2607v19.3203h-7.9805
				V49.1807z M125.5596,19.001c-1.2803,5.96-2.9199,11.5-4.9199,16.6201l3.1201-2.1006c2.4004,4.7998,4.2803,9.6807,5.6406,14.6406
				l-5.8203,3.4199l1.5596,0.4199c0,6.4004-0.5801,10.4502-1.7393,12.1494c-1.1611,1.7002-3.7803,2.5508-7.8604,2.5508h-5.6396
				c-2.5205,0-4.3008-0.3008-5.3408-0.9004s-1.7002-1.7998-1.9795-3.5996c-2.001,1.6396-4.0605,3.0791-6.1797,4.3193l-6.0605-6.54
				c4.7197-2.3594,8.7393-5.2197,12.0605-8.5801V26.8008h8.2793v12.7197c3.04-6.2793,5.3799-14.5195,7.0205-24.7197L125.5596,19.001
				z M116.1396,18.8203l-4.4395,7.4404c-4.4404-2.4004-9.2803-4.3799-14.5205-5.9404l4.8008-7.2598
				C106.6602,14.3809,111.3789,16.3008,116.1396,18.8203z M118.2402,41.2012c-2.2412,4.7998-4.7607,9-7.5605,12.5996v2.5801
				c0,0.7598,0.0996,1.251,0.3008,1.4697c0.1992,0.2207,0.6797,0.3301,1.4395,0.3301h1.6201c1.5596,0,2.46-0.4199,2.7002-1.2598
				c0.1992-0.6006,0.2998-2.9795,0.2998-7.1396l4.6201,1.2598C120.6602,47.4014,119.5195,44.1211,118.2402,41.2012z"/>
			<path class="st0" d="M175.3604,46.7812l-7.2607,3.5996c-2.4805-5.04-4.7998-9.0605-6.96-12.0605l1.5-0.7197l-3.6592-1.9795v27
				h-15.9004v3.8398h-8.8203V21.7012h6.96c1.0801-3.1201,1.9199-6.0605,2.5205-8.8203l8.9395,1.1396
				c-0.7197,2.6006-1.5,5.1602-2.3398,7.6807h8.6406v7.6191c2.3994-4.8389,4.3193-10.2793,5.7598-16.3193l8.6396,1.3193
				c-0.8398,3.041-1.54,5.4404-2.0996,7.2002h15.0596v18.2402c0,8.6396-0.2197,14.5-0.6602,17.5801
				c-0.5195,3.8008-1.6406,6.3193-3.3594,7.5596c-1.5205,1.04-4.2812,1.5605-8.2803,1.5605h-4.3203l-2.7002-8.5801h4.8604
				c1.96,0,3.2598-0.2998,3.9004-0.9004c0.7998-0.7588,1.3193-2.499,1.5596-5.2197c0.2002-2.1992,0.2998-6.6396,0.2998-13.3203
				v-8.46H168.04c-0.9209,2.0811-2.001,4.2812-3.2402,6.6006l3.4199-1.6201C170.5391,38.1211,172.9199,42.0615,175.3604,46.7812z
				 M150.4004,37.7812v-7.8008h-7.3203v7.8008H150.4004z M150.4004,54.1611v-8.2803h-7.3203v8.2803H150.4004z"/>
			<path class="st0" d="M222.46,30.5811c-3.0811,0.1201-6.2803,0.2393-9.5996,0.3594c-2.7207,8.2002-6.2803,17.5205-10.6807,27.96
				l-9.1201-3.7197c3.8799-7.6396,7.2002-15.6396,9.96-24c-1.2402,0.04-3.4795,0.0811-6.7197,0.1201l-0.2402-9.1201
				c4.5996,0,7.8398-0.0195,9.7207-0.0596c0.7998-2.8799,1.5195-5.7002,2.1602-8.46l9.7197,1.1396
				c-0.2803,1.0801-0.9404,3.4004-1.9805,6.96c2.2803-0.1201,4.4795-0.2402,6.6006-0.3604L222.46,30.5811z M246.7002,49.7207
				l-2.7598,9.0605c-2.001-1.2803-4.2412-2.6006-6.7207-3.9609l-0.3594,9.9004c-2.9209,0.5596-6.3809,0.8398-10.3799,0.8398
				c-11.6016,0-17.4004-4.0996-17.4004-12.2998c0-3.2793,1.209-5.9795,3.6299-8.0996c2.4199-2.1201,5.7695-3.1807,10.0498-3.1807
				c1.8799,0,3.6992,0.1602,5.46,0.4805l0.4199-12.2402c-1.04-0.1992-2.54-0.4395-4.5-0.7197l1.7402-8.46
				c6.999,0.7197,13.8799,2.1201,20.6396,4.2002l-2.3994,8.6396c-1.9199-0.5195-3.96-1.0596-6.1201-1.6201l-0.4199,12.8398
				C240.46,46.3008,243.499,47.8408,246.7002,49.7207z M227.9199,50.7412c-1.6797-0.4805-3.4404-0.7207-5.2803-0.7207
				c-3.2393,0-4.8594,1.1611-4.8594,3.4805c0,2.3994,2.0596,3.5996,6.1797,3.5996c1.6797,0,2.9404-0.0791,3.7803-0.2402
				L227.9199,50.7412z"/>
			<path class="st0" d="M302.7402,64.3008h-10.5605l-3.2998-9.9004h-18l-3.1201,9.9004h-10.4395l15.8994-48.4805H286
				L302.7402,64.3008z M286.1201,45.7607l-6.4199-19.6797l-6.1807,19.6797H286.1201z"/>
			<path class="st0" d="M361.7803,64.3008h-11.2207l-6-13.9199c-1.4004-3.2793-4.1602-4.9199-8.2793-4.9199h-5.4004v18.8398
				h-10.2002V15.8203h22.6807c4.3994,0,8.0186,1.1016,10.8594,3.3008c3.3203,2.5195,4.9805,6.2002,4.9805,11.04
				c0,6.3594-2.9805,10.6602-8.9404,12.8994c2.1201,1.2402,3.7598,3.2207,4.9199,5.9404L361.7803,64.3008z M348.7002,30.6406
				c0-1.5996-0.501-2.9189-1.5-3.96c-1.2002-1.2393-2.9209-1.8604-5.1602-1.8604h-11.1602v12.0605h11.2197
				c2.2402,0,3.96-0.6992,5.1602-2.0996C348.2197,33.6611,348.7002,32.2812,348.7002,30.6406z"/>
			<path class="st0" d="M390.4004,39.041l-9.3008,2.46c-1.7998-7.3994-4-14.3799-6.5996-20.9404l9.1797-2.5801
				C386.1191,23.7812,388.3604,30.8008,390.4004,39.041z M406.54,36.8203l-9.2998,2.2803
				c-1.6006-7.6396-3.6406-14.6592-6.1201-21.0596l9.2402-2.4004C402.9189,22.0811,404.9805,29.1406,406.54,36.8203z
				 M425.3799,19.9609c-4.3203,18.2402-12.54,33.46-24.6602,45.6602l-9.2393-5.5801c6.5596-6.1201,11.5791-12.2197,15.0596-18.2998
				c3.7998-6.6797,6.54-14.6406,8.2197-23.8809L425.3799,19.9609z"/>
			<path class="st0" d="M485.5,17.6807c-3.8799,10.7998-9.04,20.5605-15.4805,29.2803l-9-4.3799
				c-2.4805,8.8408-6.3203,16.5801-11.5195,23.2197l-9.8398-4.4404c4.0391-4.5195,7.0596-8.9785,9.0596-13.3799
				c2.1201-4.6396,3.54-10.0801,4.2607-16.3193l10.1992,1.0801c-0.4404,3.04-1.1006,6.1406-1.9795,9.2998
				c4.2002-4.8398,7.5791-9.8799,10.1396-15.1201h-34.6797v-9.2402H485.5z"/>
			<path class="st0" d="M544.0596,43.7207H496V33.5811h48.0596V43.7207z"/>
			<path class="st0" d="M603.0996,26.9209c-1.5596,0.0801-3.2998,0.2402-5.2197,0.4795c-4.3203,2.2012-8.3398,4.8008-12.0596,7.8008
				c-5.3613,4.3604-8.04,8.1201-8.04,11.2793c0,4.6006,6.7393,7.6006,20.2197,9l-2.2197,9.7207
				c-18.8008-1.8008-28.2002-7.6807-28.2002-17.6406c0-6.1592,4.46-12.8398,13.3799-20.04l-25.0801,0.7803l-0.2402-9.4199
				l47.2803-0.96L603.0996,26.9209z M600.3398,40.6006l-5.7002,1.3203c-1.04-2.9199-2.2793-5.7393-3.7197-8.46l5.5801-1.3799
				C597.8994,34.5215,599.1797,37.3604,600.3398,40.6006z M608.0801,38.7412l-5.8203,1.3799c-1-2.8398-2.2793-5.6797-3.8398-8.5205
				l5.7002-1.3193C605.5996,32.6807,606.9189,35.501,608.0801,38.7412z"/>
			<path class="st0" d="M659.2002,48.5811c0,5.4404-1.7607,9.5801-5.2803,12.4199c-3.2002,2.5596-7.6201,3.8398-13.2598,3.8398
				c-4.6006,0-8.3604-0.7197-11.2803-2.1602c-3.5605-1.6797-6.3809-4.5596-8.46-8.6396l9.4199-4.3799
				c2.5205,4.4004,5.7393,6.5996,9.6602,6.5996c3.1992,0,5.5996-0.8193,7.2002-2.46c1.3193-1.3203,1.9795-2.9795,1.9795-4.9805
				c0-2.1191-0.6699-3.7393-2.0098-4.8594c-1.3408-1.1191-3.1504-1.6797-5.4297-1.6797c-4.5205,0-7.7402,1.46-9.6602,4.3799
				l-9.5996-0.6006l2.46-29.5195h32.3994v8.7598h-23.46l-1.0801,11.7002c2.9199-2.0791,6.7998-3.1201,11.6406-3.1201
				c4.3193,0,7.8193,1.2803,10.5,3.8398C657.7793,40.4014,659.2002,44.0205,659.2002,48.5811z"/>
			<path class="st0" d="M727.5996,45.041h-40.7998v1.8594h39.1807v10.9199c0,4.1211-0.6406,6.79-1.9209,8.0107
				c-1.2803,1.2197-3.9395,1.8301-7.9795,1.8301h-3.7803l-1.2598-3.4805h-27.7197v2.2197h-9.1201V53.9209h9.1201v3.1797h5.6396v-4.5
				h-11.6396V17.2012h14.9395c0.7598-1.6807,1.4004-3.3604,1.9199-5.04l9.3008,1.1396c-0.2402,0.8008-0.7012,2.0996-1.3809,3.9004
				h19.2002v19.9199h-34.5v1.7998h40.7998V45.041z M712,25.3604v-2.04h-25.2002v2.04H712z M712,32.2012v-2.04h-25.2002v2.04H712z
				 M712.7197,59.9805h0.96c1.4004,0,2.2695-0.1592,2.6104-0.4795c0.3389-0.3203,0.5098-1.1797,0.5098-2.5801v-4.3203h-18.4795v4.5
				h5.7598v-3.1797h8.6396V59.9805z"/>
			<path class="st0" d="M742.8398,62.1406c-2.5605,2.1602-5.2197,4.1602-7.9795,6l-2.6406-9.96
				c2.7998-1.6396,5.2598-3.2598,7.3799-4.8604V43.001H733v-8.7598h14.5195l-0.2998-0.6602
				c3.8398-7.0801,6.7598-13.7598,8.7607-20.04l7.9795,2.6396c-2.1201,6.2402-4.7402,12.0605-7.8604,17.46
				c2.4004,5.3203,4.8604,11.9404,7.3809,19.8604l-8.1602,3c-2.8408-9.2793-5.1807-16.0996-7.0205-20.46v17.9395
				c0.6797,2.6807,3.3799,4.0205,8.1006,4.0205H787.96l-2.0996,8.2197h-31.0801c-2.8799,0-5.1807-0.2607-6.9004-0.7803
				C745.8789,64.8008,744.1992,63.7012,742.8398,62.1406z M749.4404,23.0811l-6.7207,6.4795
				c-2.8408-3.5596-5.9395-6.7197-9.2998-9.4795l6.4199-6.3604C743.1191,16.2012,746.3203,19.3213,749.4404,23.0811z
				 M775.1201,16.6006c-2.001,5.6406-4.6201,11.2607-7.8604,16.8604c2.7998,6,5.2998,12.3809,7.5,19.1396l-7.4395,3
				c-1.8008-5.4395-3.1201-9.3389-3.96-11.7002c-1.4404-3.9189-2.9014-7.3994-4.3799-10.4395
				c3.3984-5.5996,6.3594-12.1201,8.8799-19.5605L775.1201,16.6006z M788.1396,16.4805
				c-1.9199,5.0811-4.7607,10.7803-8.5195,17.1006c2.8799,5.5596,5.7598,12.0205,8.6396,19.3799l-8.6396,3.1797
				c-3.0811-8.7988-6.2012-16.3203-9.3604-22.5596c3.2402-5.3193,6.3604-11.9404,9.3604-19.8604L788.1396,16.4805z"/>
			<path class="st0" d="M822.2197,44.0811c-2.0801,2.2002-4.3408,4.0596-6.7793,5.5801c-2.6807,1.6797-4.9805,2.5195-6.9004,2.5195
				c-6.8398,0-10.2598-4.46-10.2598-13.3799c0-7.3203,1.0996-15.0391,3.2998-23.1602l10.0801,1.2598
				c-2.4805,9.3213-3.7197,16.001-3.7197,20.04c0,2.9609,0.6992,4.4404,2.0996,4.4404c1.4404,0,3.9199-1.9199,7.4404-5.7598
				L822.2197,44.0811z M841.4199,15.7012c-0.5205,18.7197-3.7598,35.4805-9.7197,50.2793l-10.4404-2.3994
				c3.4805-7.2803,5.9795-14.7607,7.5-22.4404c1.5195-7.3994,2.3604-16.1191,2.5205-26.1602L841.4199,15.7012z"/>
			<path class="st0" d="M904.6602,40.3604c-3.8398,0.9209-7.7207,2.1006-11.6406,3.54c0.2803,2.0811,0.4805,5.3008,0.6006,9.6602
				h-9.0605c0.04-1.1592,0.04-3.1592,0-6c-4.04,2.1602-6.0596,4.1406-6.0596,5.9404c0,2.2803,3.2598,3.4199,9.7803,3.4199
				c3.4795,0,7.8193-0.2998,13.0195-0.9004l0.6006,9c-4.001,0.3994-8.2803,0.6006-12.8408,0.6006
				c-13.3193,0-19.9795-3.8604-19.9795-11.5801c0-5.3193,4.3799-10.2598,13.1396-14.8203
				c-0.6807-0.6797-1.4805-1.0195-2.3994-1.0195c-2.3203,0-4.7803,0.8994-7.3799,2.6992c-2.2412,1.6006-4.2607,3.6602-6.0605,6.1807
				c-2.2402,3.1201-3.96,5.7002-5.1602,7.7393l-7.3193-6c4.959-6.4395,9.0986-13.1787,12.4199-20.2197l-9.4805,0.1807
				l-0.1797-8.9404c4.4395,0.1201,8.8594,0.1602,13.2598,0.1201c0.8398-2.3594,1.5195-4.4404,2.04-6.2402l9.7803,1.0205
				c-0.6006,1.8799-1.1807,3.54-1.7402,4.9795c5-0.1592,11.3193-0.4795,18.96-0.96l0.1201,8.8203
				c-5.4404,0.2002-13.0605,0.4404-22.8604,0.7197c-0.9199,1.8398-1.7998,3.4805-2.6396,4.9199
				c2.8799-1.4795,5.7393-2.2197,8.5801-2.2197c3.6396,0,6.3994,1.5205,8.2803,4.5596c3.9189-1.4795,7.8594-2.7393,11.8193-3.7793
				L904.6602,40.3604z"/>
			<path class="st0" d="M927.4004,67.1211H918.46V42.3408c-1.041,1.6006-2.2803,3.3398-3.7197,5.2197l-4.3799-8.46
				c5.1191-7.3594,8.9795-16.2393,11.5801-26.6396l8.5195,1.4395c-0.8799,3.7607-1.9004,7.2812-3.0596,10.5605v26.2197
				c5.3994-6.3604,9.8193-13.2393,13.2598-20.6396h-11.2803v-8.6406h13.8604v-8.1592h8.8193v8.1592H967v8.6406h-12.4199
				c3.4395,7.2002,8.1797,14.3604,14.2197,21.4795l-5.5195,6.96c-1.8809-2.3994-3.54-4.6396-4.9805-6.7197v6.6602H952v8.3398
				h-8.7002v-8.3398H937v-6.3604c-1.4404,2.0801-3.0596,4.2598-4.8604,6.54l-4.7393-5.9395V67.1211z M943.5996,40.9004
				c-1.6406,3.2402-3.54,6.501-5.6992,9.7803h5.6992V40.9004z M951.7002,40.8408v9.8398h5.8799
				C955.3799,47.4014,953.4189,44.1211,951.7002,40.8408z"/>
			<path class="st0" d="M978.9404,49.3008v0.1797l2.9395-0.5996c0.4805,4.3604,0.8193,9.0205,1.0205,13.9795L979,63.6406
				c-0.1602-4.2393-0.3398-7.6992-0.54-10.3799c-0.5996,4.6797-1.2598,8.6006-1.9795,11.7598l-5.1602-2.5801
				c1.0391-3.8789,1.959-8.7197,2.7598-14.5195L978.9404,49.3008z M986.5,61.7207l-2.2197,0.4199
				c-0.3604-5.04-0.7803-9.3799-1.2607-13.0195l3.4209-0.7803c0.4395,3.04,0.8789,6.7197,1.3193,11.04h2.46
				c0.7207,0,1.1797-0.1797,1.3799-0.54c0.1602-0.2402,0.2598-0.7803,0.3008-1.6201l-3.1201,0.6602
				c-0.3604-3.5996-0.7607-6.6396-1.2002-9.1201l3.0596-0.7197c0.4805,2.6396,0.9004,5.6602,1.2607,9.0596v-0.96v-8.8799h-17.46
				V14.1406h24.8398v7.5605h-6.3604v2.5801h5.2197v1.7998c4.2393-3.7207,7.6396-8,10.2002-12.8398h8.8799
				c2.9199,4.8398,7.0205,9.2803,12.2998,13.3193l-3.4795,6.8398v16.5H1018c2.1201,4.001,5.7393,7.541,10.8604,10.6201
				l-4.0801,7.2607c-4.8809-2.6807-8.7002-6.2803-11.46-10.8008c-2.6406,4.4014-6.3809,8.0195-11.2207,10.8604l-3.6592-5.4004
				c-0.2803,1.8799-0.8203,3.1299-1.6201,3.75c-0.8008,0.6201-2.1006,0.9307-3.9004,0.9307h-5.2197L986.5,61.7207z
				 M985.8398,24.3408v-2.6396h-3.5996v2.6396H985.8398z M985.8398,32.1406v-2.2803h-3.5996v2.2803H985.8398z M985.8398,40.3008
				v-2.6396h-3.5996v2.6396H985.8398z M998.1396,29.8008h-5.2197v2.4004h5.2197v5.5195h-5.2197v2.5801h5.8203v16.8604
				c0,1.4004-0.0205,2.4404-0.0605,3.1201c4.6807-2.6797,7.9404-6.1406,9.7803-10.3809h-8.04V33.7012L998.1396,29.8008z
				 M1009.7197,33.2812V31.001h-3.1797v-2.5205c-1.4805,1.7207-2.9805,3.3213-4.5,4.8008H1009.7197z M1009.7197,39.6406h-2.9395
				v3.8398h2.9395V39.6406z M1009.5996,24.6406h6.7803c-1.5205-1.8799-2.7002-3.4795-3.54-4.7998
				C1012.0801,21.1611,1011,22.7607,1009.5996,24.6406z M1019.9199,31.001h-3.1797v2.2803h7.9199
				c-1.5205-1.3203-3.1006-2.8398-4.7402-4.5605V31.001z M1019.7402,43.4805v-3.8398h-3v3.8398H1019.7402z"/>
		</g>
	</g>
</g>
</svg>
