<?xml version="1.0" encoding="utf-8"?>
<!-- Generator: Adobe Illustrator 25.2.1, SVG Export Plug-In . SVG Version: 6.00 Build 0)  -->
<svg version="1.1" id="レイヤー_1" xmlns="http://www.w3.org/2000/svg" xmlns:xlink="http://www.w3.org/1999/xlink" x="0px"
	 y="0px" viewBox="0 0 1040 80" style="enable-background:new 0 0 1040 80;" xml:space="preserve">
<style type="text/css">
	.st0{fill:#1E1E28;}
</style>
<g>
	<g>
		<g>
			<path class="st0" d="M26.7402,66.4609h-4.0205V44.5605c-2.5596,3.041-5.2793,5.8604-8.1602,8.46l-2.2793-3.4795
				C20.5996,42.1816,26.3398,34.6611,29.5,26.9805H13.7803v-3.7793h8.3398v-9.1807h4.0801v9.1807h7.7402v3
				c-1.5605,3.96-3.7207,7.9795-6.4805,12.0596c2.7598,3.3604,5.8203,6.5205,9.1797,9.4805l-2.46,3.2393
				c-2.6797-2.5996-5.1602-5.2197-7.4395-7.8594V66.4609z M65.2598,55.7812h-3.96V52.001h-8.0996v14.3994h-4.1406V52.001h-7.6797
				v3.7803h-3.8994V22.8408h11.5791v-8.8203h4.1406v8.8203h12.0596V55.7812z M49.1201,35.2607v-8.5195h-7.7402v8.5195H49.1201z
				 M49.1201,48.1006v-9.1201h-7.7402v9.1201H49.1201z M61.2998,35.2607v-8.5195h-8.2197v8.5195H61.2998z M61.2998,48.1006v-9.1201
				h-8.2197v9.1201H61.2998z"/>
			<path class="st0" d="M82.2402,40.9609c-2.001,4.7998-4.5,9.4004-7.5,13.7998l-1.7998-4.1396
				c4.1592-6.04,7.2598-11.8799,9.2998-17.5205v-0.8994h-8.5205v-3.7803h8.5205v-7.9805c-2.2002,0.4004-4.5605,0.7207-7.0801,0.96
				l-1.5605-3.5996c6.4805-0.4395,12.4199-1.6592,17.8203-3.6602l2.04,3.2402c-2.1201,0.8398-4.5596,1.5801-7.3203,2.2197v8.8203
				h7.6807v3.7803h-7.6807v1.9795c1.8799,3.6807,4.1602,7.3008,6.8408,10.8604l-1.9209,3.54
				c-1.7998-2.5205-3.4404-5.1797-4.9199-7.9805v25.6807h-3.8994V40.9609z M123.04,18.8809
				c-2.6807,14.04-7.7207,25.5801-15.1201,34.6201v4.3799c0,1.5205,0.21,2.46,0.6299,2.8203c0.4199,0.3594,1.3291,0.54,2.7305,0.54
				h2.7002c2.2393,0,3.5996-0.5195,4.0791-1.5605c0.3994-0.9199,0.6006-3.6396,0.6006-8.1602l4.1396,1.1406
				c0,5.3604-0.4795,8.79-1.4395,10.29s-3.1611,2.25-6.6006,2.25H109.96c-2.6006,0-4.2803-0.3906-5.04-1.1699
				c-0.7598-0.7803-1.1396-2.4697-1.1396-5.0703v-0.9004c-2.8408,2.8008-5.9404,5.1992-9.2998,7.2002l-3.1807-3
				c4.7197-2.5195,8.8799-5.7598,12.4805-9.7197V27.1611h4.1396v20.1592c5.5205-7.959,9.2793-18.1396,11.2803-30.5391
				L123.04,18.8809z M100.2998,33.1611C99.46,40.6006,97.8594,47.3809,95.5,53.501l-3.4199-2.4004
				c2.3594-5.6787,3.9004-12.1396,4.6201-19.3799L100.2998,33.1611z M114.4004,21.4004l-2.5801,3.4199
				c-3.96-2.6396-8.1406-4.7793-12.54-6.4199l2.5801-3.4199C106.3799,16.7412,110.5596,18.8809,114.4004,21.4004z M128.5,48.8809
				l-3.6602,1.9199c-1.5596-5.5996-3.5605-10.46-6-14.5801l3.4199-1.9795C124.9004,38.9609,126.9795,43.8408,128.5,48.8809z"/>
			<path class="st0" d="M156.46,60.4004h-16.3203v4.4404h-4.1992V23.6807h7.0791c1.1201-3.1992,2-6.4395,2.6406-9.7197
				l4.2598,0.5996c-0.7598,3.0811-1.6406,6.1201-2.6396,9.1201h9.1797v11.46c4.2393-6.6797,7.3398-13.6992,9.2998-21.0596
				l4.1406,0.7793c-0.96,3.1201-1.9199,5.9014-2.8809,8.3408h18v15.5996c0,8.4004-0.2598,14.3008-0.7793,17.7002
				c-0.5205,3.6396-1.5605,6.0205-3.1201,7.1396c-1.2803,0.8799-3.6006,1.3203-6.96,1.3203h-4.6797l-1.3203-4.0801h5.3994
				c2.3193,0,3.8799-0.3604,4.6807-1.0801c1.0391-0.96,1.7402-3,2.0996-6.1201c0.3203-2.8398,0.4805-7.9395,0.4805-15.2998V27.1611
				h-15.4805c-1.4395,3.1201-3.2402,6.4199-5.3994,9.8994l-3.4805-1.7402V60.4004z M152.3799,39.5811v-12h-12.2402v12H152.3799z
				 M152.3799,56.3809V43.4805h-12.2402v12.9004H152.3799z M174.3398,47.501l-3.7803,1.4395
				c-1.96-4.4395-4.2402-8.5801-6.8398-12.4199l3.7207-1.4395C169.7598,38.5215,172.0596,42.6611,174.3398,47.501z"/>
			<path class="st0" d="M213.0996,16.2412c-0.4795,1.1602-1.1797,2.96-2.0996,5.3994c10.1602-0.2402,18.6201-0.3594,25.3799-0.3594
				v4.0791c-9.3203,0-18.2607,0.1201-26.8203,0.3604c-3.8398,11.1602-7.0596,22.1396-9.6592,32.9404l-4.3203-1.0205
				c2.5996-10.2002,5.7598-20.7988,9.4795-31.7998c-3.5605,0.1201-6.3994,0.2402-8.5195,0.3604v-4.0801
				c2.2393-0.1201,5.54-0.2402,9.9004-0.3604c0.7197-2,1.5391-4.1797,2.46-6.54L213.0996,16.2412z M245.7402,50.3809l-1.9199,3.96
				c-1.9609-1.3994-4.001-2.6797-6.1201-3.8398c-0.04,4.2002-1.0801,7.5596-3.1201,10.0801
				c-2.4404,3.0391-6.1602,4.5596-11.1602,4.5596c-3.8398,0-7.1006-0.96-9.7803-2.8799c-2.8799-2.0791-4.3193-4.8389-4.3193-8.2803
				c0-3.3994,1.3096-6.1396,3.9297-8.2197c2.6191-2.0791,6.1699-3.1201,10.6504-3.1201c3.2793,0,6.459,0.4805,9.54,1.4404
				c-0.0811-3.1201-0.2803-6.1592-0.6006-9.1201c-6.3203,0.04-11.4209,0.1602-15.2998,0.3594v-3.8994
				c8.2393-0.2793,17.0195-0.4199,26.3398-0.4199v3.8994c-0.7598,0-1.8809,0-3.3604,0c-1.7197,0.041-2.8799,0.0605-3.4795,0.0605
				c0.2793,3.2402,0.4795,6.8398,0.5996,10.7998C240.4004,47.041,243.0996,48.5811,245.7402,50.3809z M233.5,48.4609
				c-3.4004-1.3994-6.5605-2.1006-9.4805-2.1006c-3.2803,0-5.8594,0.6904-7.7393,2.0703c-1.8809,1.3799-2.8203,3.1709-2.8203,5.3701
				c0,2.2803,1.04,4.0801,3.1201,5.4004c1.8389,1.1992,4.1191,1.7998,6.8398,1.7998c3.5195,0,6.1592-1.1602,7.9199-3.4805
				c1.4404-1.8799,2.1602-4.2988,2.1602-7.2598V48.4609z"/>
			<path class="st0" d="M299.6201,62.3809h-5.2803l-4.6797-12.5996H270.04l-4.4404,12.5996h-5.2197L276.46,17.8604h6.3604
				L299.6201,62.3809z M288.0996,45.3408l-8.46-22.8604l-8.04,22.8604H288.0996z"/>
			<path class="st0" d="M358.6602,62.3809h-5.6406l-5.6396-14.46c-1.4805-3.8398-4.1602-5.7598-8.04-5.7598h-10.1396v20.2197H324.04
				V17.8604h19.5596c3.96,0,7.1201,0.9004,9.4805,2.7002c2.7197,2.04,4.0801,5.0801,4.0801,9.1201
				c0,6.1602-3.1201,10-9.3604,11.5205c2.0791,1.1201,3.6201,2.96,4.6201,5.5195L358.6602,62.3809z M351.9404,29.8604
				c0-2.3594-0.7715-4.1992-2.3105-5.5195c-1.54-1.3203-3.7305-1.9805-6.5703-1.9805h-13.8594v15.4209h13.5596
				c2.8398,0,5.0801-0.7207,6.7207-2.1602C351.1201,34.1807,351.9404,32.2607,351.9404,29.8604z"/>
			<path class="st0" d="M386.3799,41.9805l-4.6201,0.96c-1.2402-5.6396-3.3203-13.2793-6.2402-22.9199l4.7402-1.0801
				C383.4189,30.1406,385.459,37.8213,386.3799,41.9805z M402.8203,38.9209l-4.5605,0.8994
				c-2.1602-10.9199-3.7793-18.4395-4.8594-22.5596l4.6797-0.9004C400.3193,26.0811,401.8994,33.6016,402.8203,38.9209z
				 M425.4404,24.1006c-8.6006,15.9209-15.6406,29.541-21.1201,40.8604l-4.6201-1.5c4.5996-9.5596,11.6592-23.2803,21.1797-41.1602
				L425.4404,24.1006z"/>
			<path class="st0" d="M484.2998,26.4404c0,6.4004-7.04,13.2002-21.1201,20.4004l-2.6396-3.6602
				c4.6396-2.1992,8.6797-4.6592,12.1201-7.3799c4.2393-3.3193,6.3594-6.1797,6.3594-8.5801c0-3.4795-3.0801-5.2197-9.2393-5.2197
				c-8.4805,0-19.3799,0.7002-32.7002,2.0996l-0.4199-4.7402c13.9199-1.2793,25.2793-1.9199,34.0801-1.9199
				c4.2793,0,7.6094,0.7705,9.9902,2.3105C483.1094,21.291,484.2998,23.5215,484.2998,26.4404z M460.4805,32.0205
				c-2.7607,8.9609-5.501,19.7998-8.2207,32.5205l-4.8594-0.4805c2.1191-9.7197,4.9199-20.6396,8.3994-32.7598L460.4805,32.0205z"/>
			<path class="st0" d="M543.8799,39.5811c-20.4805,0-36.2197,0.3398-47.2197,1.0195v-4.6797
				c14.8398-0.6797,30.5791-1.0205,47.2197-1.0205V39.5811z"/>
			<path class="st0" d="M602.7402,22.7207c-6.8809,0.5996-13.2207,3.0811-19.0205,7.4404
				c-6.1201,4.6406-9.1797,9.7002-9.1797,15.1797c0,8.6807,6.96,13.2598,20.8799,13.7402l-0.4795,4.6201
				c-7.5215-0.2012-13.4209-1.6396-17.7002-4.3203c-4.9609-3.0801-7.4404-7.6396-7.4404-13.6797
				c0-4.5605,1.8203-8.9795,5.46-13.2607c3.4395-3.999,7.8799-7.1592,13.3203-9.4795c-8.0801,0.3203-18.3408,0.8994-30.7803,1.7402
				l-0.1201-4.6201c16.4004-1.1201,31.3799-1.6807,44.9404-1.6807L602.7402,22.7207z M598.54,27.8809
				c-0.6406,2.4004-1.3799,5.6396-2.2197,9.7197l-3.1201-0.4795c0.8398-4.1201,1.5791-7.3398,2.2197-9.6602L598.54,27.8809z
				 M605.3799,27.8809c-0.8008,2.9609-1.5596,6.2002-2.2803,9.7197l-3.0596-0.4795c0.4395-2.1992,1.1592-5.4199,2.1602-9.6602
				L605.3799,27.8809z"/>
			<path class="st0" d="M656.5,48.5205c0,4.6807-1.5811,8.2607-4.7402,10.7402c-2.9199,2.2803-6.8008,3.4199-11.6396,3.4199
				c-6.7607,0-12.0811-2.1797-15.96-6.54l4.1396-2.8799c3.6006,3.3604,7.46,5.04,11.5801,5.04c3.6006,0,6.4395-0.8896,8.5205-2.6699
				c2.0791-1.7793,3.1191-4.1494,3.1191-7.1104c0-2.6396-0.9102-4.71-2.7295-6.21c-1.8203-1.5-4.2705-2.25-7.3496-2.25
				c-2.2012,0-4.3506,0.4404-6.4502,1.3203c-2.1006,0.8799-3.7109,2.001-4.8301,3.3604l-4.6797-0.3604l2.5791-26.0996h26.6406v4.5
				H632.5l-1.6797,16.3193c3.3994-2.2803,7.2598-3.4199,11.5801-3.4199c4.1191,0,7.5,1.1611,10.1396,3.4805
				C655.1797,41.4814,656.5,44.6016,656.5,48.5205z"/>
			<path class="st0" d="M727.1201,43.8408h-44.2197v3.8398h41.3994v8.04c0,4-0.5605,6.7402-1.6797,8.2197
				c-1.2402,1.6396-3.7197,2.46-7.4404,2.46H711.46l-1.3799-4.0195h-30.0605v2.8799h-4.3193V52.8408h4.3193v5.8203h10.9209v-7.5605
				h-12.4209V19.3008h15c1.0801-2.0791,1.9404-4.1191,2.5801-6.1201l4.3203,0.7197c-0.5996,1.7207-1.3408,3.5205-2.2197,5.4004
				h21.5996v17.46h-36.8994v3.54h44.2197V43.8408z M715.4805,26.501v-3.7803h-32.5801v3.7803H715.4805z M715.4805,33.6406v-4.0195
				h-32.5801v4.0195H715.4805z M710.9199,62.3809h3.6602c2.3594,0,3.9004-0.5596,4.6201-1.6797
				c0.5195-0.8408,0.7803-2.5801,0.7803-5.2207v-4.3799h-24.6006v7.5605h11.4004v-5.8203h4.1396V62.3809z"/>
			<path class="st0" d="M743.7998,58.8408c-2.8408,2.6396-5.7998,5.0791-8.8799,7.3203l-1.5-4.6807
				c3.7598-2.5586,6.7197-4.8389,8.8799-6.8398v-14.46h-8.46v-4.2598h12.7197v18.8398c0.7998,2.1602,1.9902,3.6904,3.5703,4.5898
				c1.5801,0.9004,3.75,1.3506,6.5098,1.3506H787l-1.1396,4.0801h-29.6406c-3.1201,0-5.6201-0.4414-7.5-1.3203
				C746.7197,62.541,745.0801,61.001,743.7998,58.8408z M747.04,24.2207l-3.3604,2.9404c-2.8398-3.2793-5.7402-6.0801-8.6992-8.4004
				l3.2998-2.8799C741.2393,18.2412,744.1602,21.0215,747.04,24.2207z M762.1602,16.3008
				c-2.2412,6.8398-4.9609,13.0605-8.1602,18.6602c3.1592,6.96,5.7998,13.9795,7.9199,21.0596l-4.2598,1.3799
				c-2.3203-8.0791-5.0801-15.5996-8.2803-22.5596c3.3994-5.8799,6.2793-12.459,8.6396-19.7402L762.1602,16.3008z M773.3799,54.8203
				l-4.1396,1.3203c-2.6006-8.04-5.5205-15.1797-8.7598-21.4199c3.1992-5.0791,6.1992-11.3594,9-18.8398l3.96,1.3203
				c-2.2803,6-5.0811,11.8799-8.4004,17.6396C768.6797,42.2412,771.46,48.9014,773.3799,54.8203z M786.7598,55.6006L782.5,57.041
				c-3.04-7.7998-6.54-15.2002-10.5-22.2002c3.7998-6.0391,7.0801-12.5596,9.8398-19.5596l4.2002,1.2598
				c-2.3604,6.04-5.4404,12.1602-9.2402,18.3594C780.5195,41.4609,783.8398,48.3613,786.7598,55.6006z"/>
			<path class="st0" d="M822.46,44.0811c-4.7607,5.0801-9.2803,7.6201-13.5596,7.6201c-2.8408,0-5.1211-1.0596-6.8408-3.1807
				c-1.7998-2.2793-2.6992-5.4795-2.6992-9.5996c0-6.6396,1.0996-14.0596,3.2998-22.2598l4.7402,0.8994
				c-2.3613,8.3203-3.54,15.3809-3.54,21.1807c0,5.5596,1.7998,8.3398,5.3994,8.3398c3.2402,0,6.7998-2.2803,10.6807-6.8398
				L822.46,44.0811z M840.46,16.6611c-0.1602,18.3594-3.6201,34.46-10.3799,48.2998l-4.7402-1.0205
				c3.5596-7.2793,6.1592-14.6699,7.7998-22.1699c1.6396-7.5,2.5-15.9297,2.5801-25.29L840.46,16.6611z"/>
			<path class="st0" d="M905.0195,33.1611c-9.04,1.4795-16.5205,3.6201-22.4395,6.4199c5.1992,2.2793,10.1191,5.5,14.7598,9.6602
				l-3.4795,2.7598c-5.6406-4.8398-10.8604-8.2197-15.6602-10.1406c-6.96,3.5205-10.4404,7.2412-10.4404,11.1602
				c0,4.6807,5.3193,7.041,15.96,7.0801c5,0,10.4199-0.3389,16.2607-1.0195l0.1797,4.3193
				c-5.9609,0.6006-11.4404,0.9004-16.4404,0.9004c-13.8398,0-20.7598-3.6797-20.7598-11.04c0-4.4795,3.2402-8.8398,9.7197-13.0801
				c-2.6006-0.5596-5.0801-0.8398-7.4395-0.8398c-1.7607,0-3.3809,0.7002-4.8604,2.0996l-3.2998-2.6992
				c3.8398-3.96,7.8389-8.4004,12-13.3203c-5.3604,0.1201-9.4805,0.2197-12.3604,0.2998v-4.1396
				c2-0.0801,7.2393-0.1807,15.7207-0.2998c2.1191-2.5596,3.8594-4.7002,5.2197-6.4209l4.6201,1.1406
				c-0.8008,1-2.2002,2.7207-4.2002,5.1602l18.8398-0.1807v4.1406c-4.8809,0-12.2607,0.0801-22.1396,0.2393
				c-2.2002,2.5205-5.2207,5.9805-9.0605,10.3809c3.7598-0.2002,7.6396,0.3594,11.6406,1.6797
				c7.4795-3.8398,16.2793-6.6396,26.3994-8.4004L905.0195,33.1611z"/>
			<path class="st0" d="M924.46,66.2207h-4.3203V36.1006c-1.7607,3.2803-3.7402,6.4004-5.9395,9.3604l-2.8799-3.1797
				c6.0791-8.3203,10.4795-17.8809,13.1992-28.6807l4.1406,0.7197c-1.1611,4.4014-2.5605,8.6211-4.2002,12.6602V66.2207z
				 M944.7998,33.7607c-4.3604,9.2402-9.5,17.1807-15.4199,23.8203l-2.8203-3.1807c6.5605-6.7588,12.2197-15.5596,16.9805-26.3994
				h-15.5996v-4.1406h16.7998v-9.7793h4.1396v9.7793H966.04v4.1406h-16.1396c4.1592,9.2803,9.96,18.0205,17.3994,26.2197
				l-2.8799,3.2402c-6.3203-7.3594-11.5195-15.1592-15.5996-23.4004v17.6406h7.8594v3.8994h-7.8594v10.2002h-4.0205V55.6006h-7.7402
				v-3.8994h7.7402V33.7607z"/>
			<path class="st0" d="M978.7002,48.7012c-0.7197,5.7207-1.6406,10.7598-2.7598,15.1191l-3.1201-1.3799
				c1.1992-4.1592,2.1387-9.0195,2.8193-14.5801L978.7002,48.7012z M998.3799,19.3008h-8.6396v5.5195h6.96v3.3604h-6.96v5.1006h6.96
				v3.3594h-6.96v5.4004h7.6797v14.0996c0,4.1201-0.3398,6.7998-1.0195,8.04c-0.6807,1.2393-2.1807,1.8604-4.5,1.8604h-4.0801
				l-1.0205-4.0205h3.8398c1.5605,0,2.5-0.4199,2.8203-1.2598c0.2793-0.6396,0.4199-2.4795,0.4199-5.5195v-9.6006h-18.0596V15.5811
				h22.5596V19.3008z M982.96,61.3008l-2.7598,0.4199c-0.1201-4.4795-0.4404-8.6797-0.96-12.5996l2.7002-0.4199
				C982.4199,53.0205,982.7598,57.2207,982.96,61.3008z M985.96,24.8203v-5.5195h-6.2402v5.5195H985.96z M985.96,33.2207v-4.9795
				h-6.2402v4.9795H985.96z M985.96,42.041v-5.46h-6.2402v5.46H985.96z M988.1797,59.4404l-2.6992,0.4199
				c-0.4004-4.5596-0.8809-8.3398-1.4404-11.3398l2.5195-0.4199C987.1602,51.6211,987.7002,55.4014,988.1797,59.4404z
				 M992.7998,57.2207l-2.46,0.4199c-0.4404-3.6797-1.0195-6.9395-1.7402-9.7803L991,47.3809
				C991.6396,50.1016,992.2393,53.3809,992.7998,57.2207z M1019.6797,29.7412h-5.5195v4.7998h10.5v14.0996h-10.0801
				c2.4004,5.8799,6.8594,10.8203,13.3799,14.8203l-2.5195,3.2402c-5.8809-3.6006-10.2412-8.1797-13.0801-13.7402
				c-2.6006,5.5605-6.8408,10.1592-12.7207,13.7998L997,63.5811c3-1.6396,5.6396-3.7207,7.9199-6.2402
				c2.5996-2.8398,4.2598-5.7393,4.9805-8.7002h-9.8408V34.541h10.2002v-4.7998h-5.3994v-2.7607
				c-2.001,2.2412-4.0801,4.3008-6.2402,6.1807l-2.6396-3c5.7598-4.6396,10.3594-10,13.7998-16.0801h4.6201
				c3.2793,5.5596,8.0596,10.7998,14.3398,15.7197l-2.5801,3.1797c-2.1211-1.7998-4.2812-3.8594-6.4805-6.1797V29.7412z
				 M1010.2598,37.9609h-6.4795v7.2598h6.4795V37.9609z M1005.46,26.3203h13.7402c-2.8408-3.0791-5.2002-6.0596-7.0801-8.9395
				C1010.2393,20.4209,1008.0195,23.4014,1005.46,26.3203z M1021.0596,45.2207v-7.2598h-6.8994v7.2598H1021.0596z"/>
		</g>
	</g>
</g>
</svg>
