<?xml version="1.0" encoding="utf-8"?>
<!-- Generator: Adobe Illustrator 25.2.1, SVG Export Plug-In . SVG Version: 6.00 Build 0)  -->
<svg version="1.1" id="レイヤー_1" xmlns="http://www.w3.org/2000/svg" xmlns:xlink="http://www.w3.org/1999/xlink" x="0px"
	 y="0px" viewBox="0 0 1040 80" style="enable-background:new 0 0 1040 80;" xml:space="preserve">
<style type="text/css">
	.st0{fill:#1E1E28;}
</style>
<g>
	<g>
		<g>
			<path class="st0" d="M27.2197,66.7012h-5.1602V46.001c-2.3203,2.7598-4.7998,5.3398-7.4395,7.7402l-2.6396-4.6807
				c7.7998-7.0391,13.2393-14.1797,16.3193-21.4199H13.5996v-4.7998h7.9805v-9h5.2803v9h7.0801v3.8398
				c-1.6006,3.96-3.6406,7.8408-6.1201,11.6396c2.5586,3.1201,5.46,6.1406,8.6992,9.0605l-3,4.2598
				c-2.2002-2.1992-4.2998-4.4395-6.2998-6.7197V66.7012z M65.7402,56.0811h-5.1006v-3.54h-7.0195v14.04h-5.2803v-14.04h-6.6602
				v3.54h-4.9199V22.4805h11.5801v-8.6992h5.2803v8.6992h12.1201V56.0811z M48.46,34.9004v-7.4395h-6.7803v7.4395H48.46z
				 M48.46,47.5605v-7.9795h-6.7803v7.9795H48.46z M60.6396,34.9004v-7.4395h-7.1992v7.4395H60.6396z M60.6396,47.5605v-7.9795
				h-7.1992v7.9795H60.6396z"/>
			<path class="st0" d="M81.5801,43.1211c-1.8408,4.1201-4.0605,8.1201-6.6602,12l-2.0996-5.5205
				c3.8398-5.7197,6.7588-11.1191,8.7598-16.2002v-0.5996h-8.04v-4.8604h8.04v-6.96c-2.2002,0.4004-4.3799,0.7002-6.54,0.9004
				l-1.8604-4.6201c6.6006-0.4395,12.5195-1.6396,17.7607-3.5996l2.3994,4.1396c-2.1201,0.8398-4.4004,1.5596-6.8398,2.1602v7.9795
				h7.4404v4.8604H86.5v1.5596c1.7598,3.2803,3.9199,6.6211,6.4805,10.0205l-2.2207,4.6797
				c-1.5596-2.1992-2.9805-4.3994-4.2598-6.5996v24h-4.9199V43.1211z M123.6396,18.8809c-1.2402,6.4404-2.96,12.3604-5.1592,17.7598
				l4.0195-2.5195c2.6797,4.7197,4.7598,9.54,6.2402,14.46l-4.5605,2.5801c-1.5996-5.4805-3.54-10.2197-5.8193-14.2207
				c-2.5605,6.2402-5.7002,11.7207-9.4199,16.4404v4.2598c0,1.2402,0.1592,2.0205,0.4795,2.3398
				c0.3193,0.3213,1.0996,0.4805,2.3398,0.4805h2.1602c2.04,0,3.2598-0.5,3.6602-1.5c0.3193-0.7998,0.4795-3.4199,0.4795-7.8604
				l5.2207,1.3799c0,5.6406-0.501,9.2305-1.5,10.7705c-1.001,1.5391-3.2803,2.3096-6.8398,2.3096h-4.9209
				c-2.7197,0-4.4502-0.4004-5.1895-1.2002c-0.7402-0.7998-1.1104-2.5586-1.1104-5.2793c-2.6396,2.5195-5.46,4.6797-8.46,6.4795
				l-4.0195-3.8398c4.7598-2.5195,8.9189-5.7393,12.4795-9.6602V26.8604h5.2207v18.3008c4.6797-7.5205,7.959-17.1602,9.8398-28.9199
				L123.6396,18.8809z M100.9004,32.7412c-0.7607,7.7598-2.2412,14.7803-4.4404,21.0596l-4.3799-2.9404
				c2.1602-5.6396,3.5996-12.2793,4.3203-19.9199L100.9004,32.7412z M114.9404,20.6211l-3.0605,4.5
				c-4-2.5596-8.3203-4.6602-12.96-6.3008l3.1797-4.4395C106.8193,16.1016,111.0996,18.1816,114.9404,20.6211z"/>
			<path class="st0" d="M157.2402,61.0605h-16.4404v4.3203h-5.2803V23.3203h7.1406c1.0801-3.1191,1.959-6.3193,2.6396-9.5996
				l5.46,0.7803c-0.8398,3.2002-1.7002,6.1406-2.5801,8.8193h9.0605v10.3203c3.6797-6.1201,6.4395-12.6992,8.2793-19.7402
				l5.2803,0.9004c-0.9209,3.0811-1.8203,5.7598-2.7002,8.04h17.2803v16.2598c0,8.4404-0.2402,14.3203-0.7197,17.6406
				c-0.5605,3.6807-1.6406,6.0986-3.2402,7.2598c-1.3604,0.9199-3.8203,1.3799-7.3799,1.3799h-4.4404l-1.7393-5.2197h5.2793
				c2.2402,0,3.7402-0.3398,4.5-1.0205c1-0.9199,1.6807-2.8799,2.04-5.8799c0.2793-2.7197,0.4199-7.6592,0.4199-14.8203v-10.5
				h-14.1592c-1.4014,3-3.1406,6.2012-5.2207,9.6006l-3.4795-1.8604V61.0605z M152.0195,39.2812V28.3008h-11.2197v10.9805H152.0195z
				 M152.0195,55.9609V44.2607h-11.2197v11.7002H152.0195z M174.6396,47.3203l-4.7998,1.8604
				c-2-4.5996-4.2402-8.7598-6.7197-12.4795l4.7402-1.7402C170.2598,38.5605,172.5195,42.6807,174.6396,47.3203z"/>
			<path class="st0" d="M222.9404,28.0605h-12.0605c-2.4404,9.5605-5.9805,19.8213-10.6201,30.7803H193.54
				c4.8389-9.6396,8.6396-19.8994,11.4004-30.7803h-8.7002v-5.2793h9.96c0.5996-2.7197,1.0801-5.2598,1.4395-7.6201h6
				c-0.3594,2.1592-0.8604,4.7002-1.5,7.6201h10.8008V28.0605z M245.6797,58.9609c-3.3203-2.7197-6.2393-4.8398-8.7598-6.3604
				c-0.1201,8.4805-4.8398,12.7197-14.1602,12.7197c-4.4004,0-7.9004-0.9893-10.5-2.9697
				c-2.6006-1.9795-3.8994-4.6289-3.8994-7.9502c0-3.3594,1.2988-6.0693,3.8994-8.1299c2.5996-2.0596,6.0195-3.0898,10.2598-3.0898
				c3.0801,0,6.0205,0.4004,8.8203,1.2002V28.0605h-4.7402v-5.2793h18.3008v5.2793h-7.9199V46.541
				c2.3994,1.1602,5.2988,2.9805,8.6992,5.46V58.9609z M231.3398,51.3408v-1.5c-3.04-1.1602-5.9199-1.7402-8.6396-1.7402
				c-2.9609,0-5.2109,0.5703-6.75,1.71c-1.54,1.1406-2.3105,2.6104-2.3105,4.4102c0,2.001,0.8408,3.5205,2.5205,4.5605
				c1.5596,1,3.6602,1.5,6.2998,1.5C228.3789,60.2812,231.3398,57.3018,231.3398,51.3408z"/>
			<path class="st0" d="M300.5195,62.9209h-6.7793l-4.2598-11.8203h-19.2607l-4.0195,11.8203H259.54l16.0195-45.6602h8.1602
				L300.5195,62.9209z M287.5,45.4609l-7.8604-21.96l-7.5,21.96H287.5z"/>
			<path class="st0" d="M359.5,62.9209h-7.2002l-5.7002-14.3398c-1.4795-3.6797-4.2207-5.5205-8.2197-5.5205h-8.7002v19.8604
				h-6.5996V17.2607h20.46c4.0801,0,7.3594,0.96,9.8398,2.8799c2.8799,2.2002,4.3203,5.4209,4.3203,9.6602
				c0,6.2803-3.04,10.2598-9.1201,11.9404c2.04,1.1992,3.5791,3.0801,4.6201,5.6396L359.5,62.9209z M351.04,30.1006
				c0-2.1602-0.7197-3.8789-2.1602-5.1602c-1.4395-1.2793-3.501-1.9199-6.1797-1.9199h-13.0205V37.541h12.9004
				c2.6797,0,4.7598-0.6992,6.2402-2.1006C350.2998,34.041,351.04,32.2607,351.04,30.1006z"/>
			<path class="st0" d="M387.5801,40.6006h-6.2998c-1.2402-7.8799-3.0605-15.3594-5.46-22.4395h6.4199
				C384.3594,25.041,386.1396,32.5215,387.5801,40.6006z M423.5801,17.9805c0,13.3604-2.9199,23.8008-8.7598,31.3203
				c-6,7.6406-15.3809,12.6602-28.1406,15.0596v-5.9395c10.96-2.2402,18.8604-6.8398,23.7002-13.7998
				c4.3994-6.3203,6.6006-15.1807,6.6006-26.5801v-0.54h6.5996V17.9805z M404.7998,39.8203H398.5
				c-1.1602-7.5195-2.9004-14.959-5.2197-22.3193h6.3594C401.7598,24.501,403.4805,31.9414,404.7998,39.8203z"/>
			<path class="st0" d="M483.9404,18.8203c-0.041,8.6016-2.7412,15.4004-8.1006,20.4004c-4.6006,4.2803-10.7197,6.96-18.3594,8.04
				l0.2393-5.8203c11.4004-1.6797,17.8398-7.6592,19.3203-17.9395h-39.7197v-5.6406h46.6201V18.8203z M460.96,33.2812
				c0,16.3594-7.2402,26.7598-21.7197,31.1992V58.541c5.3594-2.1602,9.2998-5.1396,11.8193-8.9404
				c2.7197-4.1592,4.0801-9.7197,4.0801-16.6797v-3.6006h5.8203V33.2812z"/>
			<path class="st0" d="M544.0596,40.3604h-48.1191v-5.7598h48.1191V40.3604z"/>
			<path class="st0" d="M603.7598,24.4004l-6.7197,0.1807c-5.6807,0.1602-10.8408,2.21-15.4805,6.1494
				c-4.6406,3.9404-6.96,8.291-6.96,13.0508c0,9.3994,8.0195,14.0996,24.0605,14.0996v6
				c-9.4404,0.1592-16.8105-1.4492-22.1104-4.8301c-5.3008-3.3799-7.9502-8.2891-7.9502-14.7305
				c0-3.999,1.2998-7.7793,3.9004-11.3398c2.4795-3.3193,5.7998-6.0986,9.96-8.3398l-26.04,0.8398v-5.6992l47.3398-1.0801V24.4004z
				 M597.6396,38.2607h-3.8994v-9.0596h3.8994V38.2607z M604.5996,38.2607h-3.8398v-9.0596h3.8398V38.2607z"/>
			<path class="st0" d="M657.1602,48.5811c0,4.8799-1.6406,8.6006-4.9199,11.1602c-2.9609,2.3604-6.9805,3.54-12.0605,3.54
				c-7.4805,0-13.1396-2.5801-16.9795-7.7402l5.5801-3.3604c3.3594,3.6807,7.0391,5.5205,11.04,5.5205
				c3.4795,0,6.2188-0.8799,8.2197-2.6406c1.8389-1.6396,2.7598-3.7998,2.7598-6.4795c0-2.5205-0.8398-4.4707-2.5195-5.8506
				c-1.6807-1.3799-3.96-2.0693-6.8398-2.0693c-2.3203,0-4.4512,0.4492-6.3906,1.3496c-1.9404,0.9004-3.4102,2.0303-4.4102,3.3896
				l-6.0596-0.4795l2.5195-27.1201h28.2607v5.7598h-22.5605l-1.5,14.8799c3.2402-2.1992,7.0996-3.2998,11.5801-3.2998
				c4.1602,0,7.5801,1.2109,10.2598,3.6299C655.8193,41.1914,657.1602,44.4609,657.1602,48.5811z"/>
			<path class="st0" d="M727.2402,44.2607H684.04v3.1797h40.6797v9c0,4.041-0.6104,6.7705-1.8301,8.1904
				c-1.2207,1.4189-3.6699,2.1299-7.3496,2.1299h-3.4199l-1.3203-3.9004h-29.8193v2.6406H675.46V53.1406h5.5205v5.04h9.7197v-6.54
				h-12.2998v-33h14.9395c0.96-1.9199,1.7402-3.8398,2.3398-5.7598l5.5801,0.8398c-0.5205,1.6006-1.1602,3.2402-1.9199,4.9199
				H720.04v18.2998h-36v2.9404h43.2002V44.2607z M714.46,26.0205v-3.1797H684.04v3.1797H714.46z M714.46,33.1611v-3.3008H684.04
				v3.3008H714.46z M711.7002,61.6006h2.9395c2,0,3.2598-0.3594,3.7803-1.0801c0.5195-0.7197,0.7803-2.1797,0.7803-4.3799v-4.5
				h-22.8604v6.54h10.0801v-5.04h5.2803V61.6006z"/>
			<path class="st0" d="M743.6201,59.8008c-2.8008,2.5195-5.6611,4.8193-8.5801,6.9004l-1.7998-6.0605
				c3.5596-2.3193,6.3799-4.3994,8.46-6.2402V41.0205h-8.04v-5.3994h13.4395v18.96c0.6797,2,1.8008,3.4199,3.3604,4.2598
				c1.4404,0.8008,3.5,1.2002,6.1797,1.2002h30.7207l-1.3799,5.1602h-30c-3.041,0-5.501-0.3809-7.3809-1.1406
				C746.5996,63.2207,744.9404,61.8018,743.6201,59.8008z M747.7002,24.1006l-4.2598,3.8398
				c-2.8809-3.3994-5.8408-6.2998-8.8809-8.6992l4.1406-3.7803C741.7002,17.8213,744.7002,20.7012,747.7002,24.1006z
				 M762.8203,16.1807c-2.2803,6.8398-4.9805,13-8.1006,18.4805c3,6.5996,5.5996,13.5205,7.7998,20.7598l-5.3994,1.7998
				c-2.4805-8.4395-5.2607-15.999-8.3398-22.6797c3.5596-6.2002,6.4795-12.8193,8.7598-19.8604L762.8203,16.1807z M773.9199,54.2812
				l-5.2803,1.6797c-2.7207-8.3193-5.6201-15.5195-8.6992-21.6006c3.3193-5.3193,6.3389-11.6787,9.0596-19.0791l5.04,1.6797
				c-2.2402,5.9609-5.001,11.7803-8.2803,17.46C769.1992,41.501,771.9189,48.1211,773.9199,54.2812z M787.1797,54.8809
				l-5.5195,1.7998c-3-7.8799-6.4199-15.2598-10.2598-22.1396c3.6387-5.7998,6.8994-12.3203,9.7793-19.5605l5.4004,1.5605
				c-2.3203,5.9199-5.3398,11.9199-9.0605,18C781.0391,40.7812,784.2598,47.5605,787.1797,54.8809z"/>
			<path class="st0" d="M840.8799,37.541c0,17.9199-10.6201,26.959-31.8604,27.1201v-5.5801
				c8.5596-0.3203,14.8594-2.04,18.9004-5.1602c4.4404-3.3994,6.6602-8.8203,6.6602-16.2598c0-4.1602-0.7607-7.6396-2.2803-10.4404
				c-1.8809-3.5195-4.7197-5.2803-8.5195-5.2803c-4.3203,0-8.0811,2.7607-11.2803,8.2803
				c-2.8408,4.9199-4.7998,11.0801-5.8799,18.4805h-5.4004c0.2002-12.2002,0.5-22.7402,0.9004-31.6201h5.8203
				c-0.2012,3.4004-0.4805,8.2002-0.8408,14.3994c0.9199-3.1992,2.54-6.1592,4.8604-8.8799
				c3.4395-4.0391,7.5801-6.0596,12.4199-6.0596c5.1992,0,9.2998,2.0605,12.2998,6.1797
				C839.4795,26.6016,840.8799,31.541,840.8799,37.541z"/>
			<path class="st0" d="M903.7598,38.8008c-4.7607,0.4404-9.2002,1.2207-13.3193,2.3398c0.5996,3.1602,0.8994,7.6602,0.8994,13.5
				h-5.46c0-5.4395-0.2002-9.3799-0.5996-11.8203c-7.9609,2.9609-11.9404,6.3604-11.9404,10.2002
				c0,4.2002,4.7402,6.2998,14.2197,6.2998c4,0,8.7197-0.4199,14.1602-1.2598v5.5801c-4.8799,0.6797-9.5605,1.0205-14.04,1.0205
				c-6.4004,0-11.2197-0.7607-14.46-2.2803c-3.9199-1.8398-5.8799-4.8994-5.8799-9.1797c0-3,1.5391-5.8809,4.6201-8.6406
				c2.8398-2.5195,6.7197-4.7402,11.6396-6.6602c-0.8799-1.2393-2.0996-1.8594-3.6592-1.8594
				c-4.6807,0-9.7012,2.6006-15.0605,7.7998c-2.3604,2.2803-5.2598,5.04-8.7002,8.2803v-7.2002
				c6.2793-5.7197,11.3193-11.8203,15.1201-18.2998h-13.6797v-5.1602H874c1.04-2.1602,1.9199-4.2393,2.6396-6.2402h6.1201
				c-0.8398,2.1602-1.7402,4.2402-2.7002,6.2402h22.0801v5.1602h-24.7793c-1.5205,2.6396-3.1611,5.1602-4.9199,7.5596
				c0.9189-0.6797,2.1387-1.2988,3.6592-1.8604c1.6807-0.5996,3.2002-0.8994,4.5605-0.8994c3.9199,0,6.6602,1.5596,8.2197,4.6797
				c4.8799-1.4395,9.8398-2.3994,14.8799-2.8799V38.8008z"/>
			<path class="st0" d="M925.1797,66.4609h-5.5195V37.7812c-1.5605,2.7197-3.3203,5.3799-5.2803,7.9795l-3.4795-4.3799
				c5.8799-7.9199,10.1396-17.2998,12.7793-28.1396l5.2803,0.96c-1.0801,4.2402-2.3398,8.2197-3.7803,11.9395V66.4609z
				 M944.4404,35.5605c-4.001,8.3613-8.8203,15.8008-14.46,22.3203l-3.54-4.1396c6.2793-6.5605,11.6396-14.9404,16.0791-25.1406
				h-14.3398v-5.2803h16.1406v-9.4795h5.3398v9.4795h16.5596v5.2803h-15c4.04,8.9609,9.5195,17.2607,16.4404,24.9004l-3.6006,4.2002
				c-5.9199-7.1201-10.7393-14.3408-14.46-21.6602v15.4199h7.6201v4.9199h-7.6201v9.6602h-5.1592v-9.6602h-7.5605v-4.9199h7.5605
				V35.5605z"/>
			<path class="st0" d="M979.0596,48.7012c-0.6807,5.6396-1.5801,10.7393-2.6992,15.2998l-3.6602-1.8604
				c1.0801-3.8789,1.999-8.6797,2.7598-14.3994L979.0596,48.7012z M998.6797,19.9609h-8.04v4.5h6.4199v4.0801
				c5.1602-4.3594,9.1807-9.2197,12.0605-14.5801h6.0596c3.1201,5.3203,7.7197,10.3604,13.8008,15.1201l-3.0605,4.2002
				c-2.2002-1.8398-4.2998-3.8203-6.2998-5.9404v2.8203h-4.7998v3.96h10.1396v14.8193h-9.54
				c2.4004,5.4814,6.6396,10.0605,12.7197,13.7402l-3,4.2598c-5.4805-3.2803-9.6807-7.5791-12.5996-12.8994
				c-2.6807,5.2402-6.8008,9.5596-12.3604,12.96l-3-3.7197c-0.4004,1.4785-1.1602,2.3994-2.2793,2.7598
				c-0.6006,0.1992-1.4609,0.2998-2.5801,0.2998h-4.5605L986.5,61.1211h4.1396c1.2393,0,2-0.3398,2.2803-1.0205
				c0.2002-0.5596,0.2998-2.1602,0.2998-4.7998v-9.1797h-17.5801v-30.96h23.04V19.9609z M983.0801,61.6611l-3.1797,0.4795
				c-0.1201-5.1992-0.3809-9.54-0.7803-13.0195l3.0596-0.4199C982.5791,52.7012,982.8789,57.0215,983.0801,61.6611z
				 M985.9004,24.5205v-4.5596h-5.2207v4.5596H985.9004z M985.9004,32.8008v-4.0195h-5.2207v4.0195H985.9004z M985.9004,41.5605
				V37.001h-5.2207v4.5596H985.9004z M988.1201,59.8604l-3.0605,0.4805c-0.3203-4.4404-0.7402-8.3594-1.2598-11.7598l2.8799-0.4805
				C987.2393,52.0605,987.7197,55.9814,988.1201,59.8604z M992.5,57.5811l-2.7598,0.4795
				c-0.4404-4.1191-0.9209-7.4795-1.4404-10.0801l2.7002-0.54C991.5596,50.2012,992.0596,53.5811,992.5,57.5811z M996.8799,28.7207
				h-6.2402v4.1396h6.4199v4.2002h-6.4199v4.5h7.0801v14.7598c0,2.8809-0.1406,5.001-0.4199,6.3604
				c2.7598-1.5596,5.1992-3.5,7.3203-5.8203c2.3594-2.5586,3.9395-5.1992,4.7402-7.9199h-9.4199V34.1211h9.96v-3.96h-4.7402v-2.7607
				c-1.9199,2.2012-3.96,4.2402-6.1201,6.1201l-3.1797-3.96C996.2998,29.2012,996.6396,28.9219,996.8799,28.7207z
				 M1009.9004,38.3809h-5.3408v6.2998h5.3408V38.3809z M1006.4805,25.8408h11.7598c-2.4404-2.6797-4.4609-5.2803-6.0605-7.7998
				C1010.6592,20.5215,1008.7598,23.1211,1006.4805,25.8408z M1020.46,44.6807v-6.2998h-5.6396v6.2998H1020.46z"/>
		</g>
	</g>
</g>
</svg>
