<?xml version="1.0" encoding="utf-8"?>
<!-- Generator: Adobe Illustrator 25.2.1, SVG Export Plug-In . SVG Version: 6.00 Build 0)  -->
<svg version="1.1" id="レイヤー_1" xmlns="http://www.w3.org/2000/svg" xmlns:xlink="http://www.w3.org/1999/xlink" x="0px"
	 y="0px" viewBox="0 0 1040 80" style="enable-background:new 0 0 1040 80;" xml:space="preserve">
<style type="text/css">
	.st0{fill:#1E1E28;}
</style>
<g>
	<g>
		<g>
			<path class="st0" d="M26.3203,66.2207h-2.9404V43.1211c-2.7598,3.3203-5.7002,6.3594-8.8203,9.1201l-1.9795-2.2207
				c8.8398-7.6797,14.8799-15.5791,18.1201-23.7002H13.96v-2.7598h8.7002v-9.3594h2.9395v9.3594h8.3408v2.1602
				c-1.5605,4.1201-3.8203,8.2803-6.7803,12.4805c3.0791,3.6396,6.2998,6.9395,9.6602,9.8994l-1.9805,2.1602
				c-3.2002-3.0391-6.04-6-8.5195-8.8799V66.2207z M64.8398,55.4805H61.96v-4.0195h-9.1797v14.7598h-3V51.4609h-8.7002v4.0195
				h-2.8799V23.1406h11.5801v-8.9395h3v8.9395h12.0596V55.4805z M49.8398,35.6211v-9.6006h-8.7598v9.6006H49.8398z M49.8398,48.6406
				V38.3809h-8.7598v10.2598H49.8398z M61.96,35.6211v-9.6006h-9.2402v9.6006H61.96z M61.96,48.6406V38.3809h-9.2402v10.2598H61.96z
				"/>
			<path class="st0" d="M82.9004,38.8008c-2.1211,5.4805-4.8809,10.6797-8.2803,15.5996l-1.5-2.7598
				c4.4795-6.3594,7.7402-12.6797,9.7803-18.96v-1.0801h-9v-2.7598h9v-8.9404c-2.2412,0.4004-4.7803,0.7412-7.6201,1.0205
				l-1.2607-2.6396c6.5195-0.3994,12.4805-1.6201,17.8809-3.6602l1.6797,2.3398c-2.4404,0.9209-5.04,1.7002-7.7998,2.3398v9.54
				h7.9795v2.7598h-7.9795v2.2197c2.04,4.2412,4.4395,8.2012,7.2002,11.8809l-1.5605,2.3994
				c-2.001-2.8398-3.8799-6.0195-5.6396-9.54V66.041h-2.8799V38.8008z M122.4404,18.8809
				c-2.6406,14.04-7.8213,25.6201-15.54,34.7402v4.5c0,1.7197,0.2793,2.8193,0.8398,3.2998c0.4395,0.3604,1.459,0.54,3.0596,0.54
				h3.2402c2.4395,0,3.9395-0.5596,4.5-1.6797c0.4795-1,0.7197-3.7803,0.7197-8.3408l3.0605,0.8408
				c0,5.1201-0.4707,8.4102-1.4102,9.8691c-0.9404,1.46-3.0508,2.1904-6.3301,2.1904H109.96c-2.4805,0-4.1201-0.3896-4.9199-1.1699
				c-0.8008-0.7803-1.2002-2.4092-1.2002-4.8896v-1.8008c-3.04,3.041-6.4199,5.6807-10.1396,7.9199l-2.3398-2.0996
				c4.6797-2.5195,8.8389-5.7793,12.4795-9.7803V27.4004h3.0605v21.96c6.3594-8.3994,10.6191-19.0791,12.7793-32.04
				L122.4404,18.8809z M99.7002,33.5811c-0.9209,7.2803-2.6201,13.8203-5.1006,19.6201l-2.46-1.8604
				C94.6602,45.7412,96.2803,39.4609,97,32.501L99.7002,33.5811z M113.8604,22.1211l-2.04,2.3398
				c-3.9209-2.7197-7.9609-4.8994-12.1201-6.54l1.9199-2.3398C106.0996,17.4209,110.1797,19.6006,113.8604,22.1211z
				 M128.2598,49.1807L125.5,50.4404c-1.5596-5.6396-3.5801-10.5596-6.0596-14.7598l2.5791-1.3203
				C124.6602,39.0811,126.7393,44.0205,128.2598,49.1807z"/>
			<path class="st0" d="M155.7402,59.6807h-16.2598v4.6201h-3.0605V23.9805h6.96c1.1191-3.2393,2-6.5195,2.6396-9.8398
				l3.1201,0.4805c-0.7197,2.96-1.6201,6.0801-2.6992,9.3594h9.2998V59.6807z M152.7402,39.8809V26.8604h-13.2598v13.0205H152.7402z
				 M152.7402,56.8008V42.7012h-13.2598v14.0996H152.7402z M184.6602,38.501c0,8.3604-0.2607,14.2598-0.7803,17.7002
				c-0.5605,3.5996-1.5801,5.96-3.0596,7.0801c-1.2002,0.8398-3.3809,1.2598-6.54,1.2598h-4.8604l-0.96-2.9404h5.5205
				c2.3594,0,3.9795-0.3799,4.8594-1.1396c1.1191-1,1.8604-3.1201,2.2197-6.3604c0.3604-3.0391,0.54-8.3193,0.54-15.8398V26.3809
				h-16.8594c-1.4805,3.2402-3.3408,6.6406-5.5801,10.2002l-2.6406-1.3203c4.3203-6.6396,7.4795-13.6396,9.4805-21l3,0.5996
				c-1,3.1611-2.0205,6.041-3.0596,8.6406h18.7197V38.501z M174.0996,47.6211l-2.8193,1.0801
				c-2.001-4.4404-4.3203-8.5801-6.96-12.4199l2.6992-1.0801C169.459,38.8008,171.8203,42.9404,174.0996,47.6211z"/>
			<path class="st0" d="M227.6201,25.2412c-4,0.7197-8.4404,1.8203-13.3203,3.2998c-3.7598,9-8.0801,17.3994-12.96,25.2002
				l-3.3594-1.4404c4.6396-6.5596,8.8193-14.0791,12.5391-22.5596c-4.6797,1.5996-9.0205,3.3398-13.0195,5.2197l-1.0801-3.1201
				c6.2402-2.4795,11.4395-4.3799,15.5996-5.7002c1.5605-3.96,2.7998-7.7998,3.7207-11.5195l3.4795,0.8994
				c-1.0801,3.1201-2.2402,6.2803-3.4795,9.4805c2.5596-0.7197,6.2793-1.7002,11.1602-2.9404L227.6201,25.2412z M243.4004,60.1611
				l-2.04,3.2393c-2.8008-2.9189-6.3604-5.3398-10.6807-7.2598c-0.1602,3-0.9404,5.2002-2.3398,6.6006
				c-1.5596,1.5986-4.1201,2.3994-7.6797,2.3994c-2.6807,0-4.9004-0.5801-6.6602-1.7402c-1.96-1.2393-2.9404-2.959-2.9404-5.1592
				c0-2.4004,1.0596-4.2607,3.1807-5.5801c1.8799-1.2002,4.2598-1.8008,7.1396-1.8008c1.7998,0,3.8398,0.3008,6.1201,0.9004
				c-0.1602-1.7598-0.3203-3.5-0.4805-5.2197c-0.2002-2.1602-0.2803-3.96-0.2393-5.4004c0.0391-2.3594,0.4199-4.0996,1.1396-5.2197
				l2.46,1.5c-0.3604,1.2803-0.54,2.7402-0.54,4.3799c0,1.0801,0.1201,2.8408,0.3604,5.2803
				c0.2793,3.04,0.4395,4.9404,0.4795,5.7002C235.4805,54.541,239.7197,57.001,243.4004,60.1611z M227.6201,54.9404
				c-2.5205-0.8789-4.6797-1.3193-6.4805-1.3193c-2.1592,0-3.8398,0.4199-5.04,1.2598c-1.1992,0.8398-1.7998,1.9199-1.7998,3.2402
				c0,2.7207,2.2197,4.0801,6.6602,4.0801c2.5596,0,4.3594-0.7002,5.4004-2.1006
				C227.1602,59.0205,227.5801,57.3018,227.6201,54.9404z M243.7002,36.4004l-2.2803,2.5801c-2.6396-3.4795-5.46-6.2188-8.46-8.2197
				l2.1602-2.2803C238.3604,30.4414,241.2197,33.0811,243.7002,36.4004z"/>
			<path class="st0" d="M298.7803,61.8408h-3.8398l-5.1006-13.3799h-19.9795L265,61.8408h-3.7197l16.1396-43.4404h4.5
				L298.7803,61.8408z M288.7002,45.2207l-9.0605-23.7598l-8.5801,23.7598H288.7002z"/>
			<path class="st0" d="M357.8203,61.8408h-4.0801l-5.5801-14.6396c-1.5205-3.96-4.1406-5.9404-7.8604-5.9404h-11.5801v20.5801H325
				V18.4004h18.7197c3.7998,0,6.8193,0.8613,9.0605,2.5801c2.5596,1.9199,3.8398,4.7803,3.8398,8.5801
				c0,3.0811-0.9209,5.5801-2.7598,7.5c-1.6807,1.7607-3.9404,2.9404-6.7803,3.54c2.0791,1.0801,3.6191,2.9004,4.6201,5.46
				L357.8203,61.8408z M352.9004,29.6211c0-5.3193-3.1611-7.9805-9.4805-7.9805h-14.7002v16.3799H343c3,0,5.4004-0.75,7.2002-2.25
				S352.9004,32.2217,352.9004,29.6211z"/>
			<path class="st0" d="M388.9004,36.7607l-3.3604,1.4404c-1.7607-4.5996-3.8604-8.5205-6.2998-11.7607l2.9395-1.4395
				C384.54,28.0811,386.7793,32.001,388.9004,36.7607z M421,23.4404c-2.3604,7.6006-5.3203,14.501-8.8799,20.7002
				c-4.041,7.0801-9.1201,13.5-15.2402,19.2598l-3.4795-1.7393c6.3594-5.6406,11.6191-12.1602,15.7793-19.5605
				c3.7207-6.5996,6.3799-13.2197,7.9805-19.8594L421,23.4404z M402.4004,31.7207l-3.3008,1.4404
				c-1.5205-4.8008-3.3594-8.8398-5.5195-12.1201l3.1797-1.4404C399.1602,23.3613,401.04,27.4004,402.4004,31.7207z"/>
			<path class="st0" d="M482.9805,21.2812c-7.6006,7-12.6006,11.4199-15,13.2598l-2.5801-2.04
				c4.1191-3.0801,8.0791-6.54,11.8799-10.3799c-2.2412,0.1602-9.041,0.8398-20.4004,2.04
				c-7.7998,0.7998-13.8809,1.5205-18.2402,2.1592l-0.54-3.7793c1.4404-0.04,8.4199-0.6396,20.9404-1.7998
				c6.7197-0.6396,13.6992-1.3594,20.9404-2.1602L482.9805,21.2812z M463.4199,31.9609
				c-1.2803,7.0801-2.7998,12.6406-4.5596,16.6797c-2.4814,5.6406-5.6611,10.7607-9.54,15.3604l-3.3604-1.8604
				c4.1602-4.2393,7.4189-9.2188,9.7803-14.9395c2.0791-4.96,3.4199-10.2998,4.0195-16.0205L463.4199,31.9609z"/>
			<path class="st0" d="M542.6797,39.1006c-0.3203,0-1-0.0195-2.04-0.0596c-0.8799-0.04-1.5996-0.0605-2.1592-0.0605
				c-5.8008,0-12.4414,0.1807-19.9209,0.54c-6.7197,0.3213-13.5996,0.8809-20.6396,1.6807l-0.2998-3.6602
				c6.2402-0.5596,13.2598-1.0205,21.0596-1.3799c10.1602-0.4805,18.1201-0.7402,23.8799-0.7803L542.6797,39.1006z"/>
			<path class="st0" d="M600.7002,22.541c-5.9209,0.3594-11.4805,2.6602-16.6807,6.8994C579.3398,33.2812,577,37.9609,577,43.4805
				c0,8.6406,5.8398,14.5605,17.5195,17.7607l-1.9795,3.3594c-6.0811-1.8799-10.7402-4.5195-13.9805-7.9199
				c-3.3594-3.4795-5.04-7.5791-5.04-12.2998c0-8.96,5-15.96,15-21c-13.7598,2.04-23.6396,4.2002-29.6396,6.4795l-1.5596-3.54
				c6.1201-1.5195,12.8994-2.9395,20.3398-4.2598c5.5596-0.999,13.0195-1.999,22.3799-3L600.7002,22.541z M600.3398,37.8408
				l-2.04,1.4404c-1.3604-2.2002-3.4795-4.4199-6.3594-6.6602l1.8594-1.3799C596.2793,33.0811,598.459,35.2812,600.3398,37.8408z
				 M605.7402,33.6406l-2.04,1.5c-1.4805-2.1602-3.6807-4.2988-6.6006-6.4199l1.8604-1.4395
				C601.4805,28.9609,603.7393,31.0811,605.7402,33.6406z"/>
			<path class="st0" d="M655.8398,48.4609c0,4.4395-1.54,7.8809-4.6201,10.3203c-2.8408,2.2002-6.5605,3.2998-11.1602,3.2998
				c-6,0-10.9795-1.7793-14.9395-5.3398l2.7002-2.4004c3.8398,3.04,7.8789,4.5596,12.1201,4.5596c3.7588,0,6.75-0.9297,8.9697-2.79
				c2.2197-1.8594,3.3301-4.4092,3.3301-7.6494c0-2.7197-0.9805-4.8994-2.9404-6.54c-1.96-1.6396-4.5801-2.46-7.8594-2.46
				c-2.1602,0-4.3008,0.4004-6.4209,1.2002c-2.3203,0.8398-4.0791,1.96-5.2793,3.3594l-3.2998-0.1797l2.5791-25.0801H654.04v3.2402
				h-21.8398l-1.8604,17.7002c3.5195-2.3193,7.3799-3.4805,11.5801-3.4805c4.04,0,7.3594,1.0801,9.96,3.2402
				C654.5195,41.7412,655.8398,44.7412,655.8398,48.4609z"/>
			<path class="st0" d="M727,43.4209h-45.2402v4.5h42.1201v7.0195c0,4.041-0.5205,6.8008-1.5596,8.2803
				c-1.2402,1.8799-3.7412,2.8203-7.5,2.8203h-4.0205l-1.0195-2.9404h4.7393c2.7998,0,4.5996-0.7197,5.4004-2.1602
				c0.5596-0.96,0.8398-3,0.8398-6.1201V50.501h-26.3398v8.2803h12.7197V52.541h3.0605v9h-31.1406v3.1201h-3.1191V52.541h3.1191
				v6.2402h12.1807V50.501h-12.6006v-30.54h15.0605c1.2002-2.1602,2.1396-4.3398,2.8193-6.54l3.0605,0.6602
				c-0.5996,1.7607-1.4609,3.7197-2.5801,5.8799h22.6201v16.5596h-37.8604v4.2002H727V43.4209z M716.5,26.9209V22.541h-34.7402
				v4.3799H716.5z M716.5,34.0605v-4.6797h-34.7402v4.6797H716.5z"/>
			<path class="st0" d="M743.9805,57.8809c-2.7207,2.5605-5.7812,5.1191-9.1807,7.6797l-1.2002-3.2402
				c4.1201-2.8799,7.2197-5.3594,9.3008-7.4395V39.2812h-8.8809v-3.0605h12v18.7197c0.8799,2.3613,2.1797,4.041,3.9004,5.04
				c1.5996,0.9209,3.8398,1.3799,6.7197,1.3799h30l-0.8398,3H756.46c-3.1602,0-5.7207-0.5-7.6797-1.5
				C746.8193,61.8613,745.2197,60.2012,743.9805,57.8809z M746.3799,24.3408l-2.46,1.9795c-2.7998-3.1592-5.6201-5.8389-8.46-8.0391
				l2.46-1.9805C740.7197,18.541,743.5391,21.2207,746.3799,24.3408z M761.5,16.3604c-2.3203,7.1211-5.04,13.4209-8.1602,18.9004
				c3.2402,7.1611,5.8994,14.2607,7.9805,21.2998l-3.0605,1.0205c-2.0801-7.5195-4.8398-15-8.2793-22.4404
				c3.1992-5.5195,6.0391-12.0791,8.5195-19.6797L761.5,16.3604z M772.8398,55.3604l-2.9395,0.96
				c-2.4404-7.5596-5.4004-14.6396-8.8809-21.2393c3.04-4.7598,6.0205-10.9805,8.9404-18.6602l2.8799,1.0195
				c-2.3604,6.1611-5.1807,12.0811-8.46,17.7607C768.0596,42.6406,770.8799,49.3604,772.8398,55.3604z M786.4004,56.3203l-3,1.0801
				c-3-7.5195-6.6006-14.9395-10.8008-22.2598c3.9199-6.2402,7.2197-12.7588,9.9004-19.5596l3,0.96
				c-2.4004,6.2002-5.5195,12.4199-9.3604,18.6602C780.0596,42.001,783.4795,49.041,786.4004,56.3203z"/>
			<path class="st0" d="M833.9805,34.8408c0,6.3203-1.1211,11.7803-3.3604,16.3799c-2.7598,5.6807-7.9199,10.8809-15.4805,15.5996
				l-3.0596-2.46c7.3994-4.4395,12.3994-9.0986,15-13.9795c2.2393-4.2002,3.3604-9.3193,3.3604-15.3604c0-3-0.501-5.6191-1.5-7.8594
				c-1.1211-2.6406-2.6807-3.96-4.6807-3.96c-3,0-5.7803,2.7998-8.3398,8.3994c-2.2803,5.04-3.4199,9.6602-3.4199,13.8604v1.2598
				l-3.3604,0.6602c-1.2803-3.8398-1.9199-8.5996-1.9199-14.2803c0-5.3193,0.8398-11.5195,2.5205-18.5996l3.7197,0.8398
				c-2.001,5.3203-3.04,10.96-3.1201,16.9199c-0.04,3.3604,0.1201,6,0.4805,7.9199c0.8789-4.8799,2.4395-9.2402,4.6797-13.0801
				c2.7598-4.7188,5.8398-7.0801,9.2402-7.0801c2.8799,0,5.1602,1.4609,6.8398,4.3799
				C833.1797,27.1211,833.9805,30.6016,833.9805,34.8408z"/>
			<path class="st0" d="M901.4805,39.3408c-5.5205,0.96-10.7812,2.4209-15.7803,4.3799c0.2793,2.7598,0.4199,6.5996,0.4199,11.5205
				l-3.4199,0.1191c0.0791-2.0791,0.1201-4.2197,0.1201-6.4199c0-1.5596-0.041-2.8799-0.1201-3.96
				c-2.7598,1.3203-5.1406,2.8604-7.1406,4.6201c-2.6396,2.3203-3.96,4.5605-3.96,6.7197c0,3.8408,3.3203,5.7607,9.96,5.7607
				c4.2402,0,8.54-0.4404,12.9004-1.3203l-0.3604,3.5996c-3.5996,0.5605-7.4795,0.8408-11.6396,0.8408
				c-3.6807,0-6.7002-0.501-9.0596-1.5c-3.4004-1.4404-5.1006-3.7598-5.1006-6.96c0-5.2402,4.6807-10.1201,14.04-14.6406
				c-0.5996-3.2793-2.0801-4.9199-4.4395-4.9199c-1.7607,0-3.9814,0.8506-6.6602,2.5498c-2.6807,1.7012-4.8408,3.6514-6.4805,5.8506
				l-2.9395-1.7998c4.3994-4.8008,8.6992-10.4004,12.8994-16.8008c-3.8008,0.5605-7.7998,1.0605-12,1.5l-0.7793-3.2998
				c4.959-0.1992,9.8789-0.6602,14.7598-1.3799c2.1992-3.5596,3.9199-6.6602,5.1602-9.2998l3.4795,1.1396
				c-1.6006,2.6807-3.1797,5.2002-4.7402,7.5605c3.4805-0.6797,6.6602-1.54,9.54-2.5801l0.7207,3.2393
				c-2.1602,0.6006-6.2803,1.4209-12.3604,2.46c-3,4.4014-5.9004,8.3809-8.7002,11.9404c3.4805-2.4395,6.54-3.6602,9.1807-3.6602
				c3.3594,0,5.46,2.04,6.2998,6.1201c3.999-1.6797,9.0791-3.2197,15.2393-4.6201L901.4805,39.3408z"/>
			<path class="st0" d="M923.7402,65.9805h-3.1201V34.4209c-1.96,3.8008-4.1396,7.3799-6.54,10.7402l-2.3398-1.9805
				c6.2793-8.7197,10.8193-18.4795,13.6201-29.2803l3,0.54c-1.2002,4.5205-2.7402,8.9609-4.6201,13.3203V65.9805z M945.1602,31.9609
				c-4.7207,10.1201-10.1807,18.5605-16.3799,25.3203l-2.1006-2.2207c6.7598-6.8789,12.6992-16.0996,17.8203-27.6602h-16.7998v-3
				h17.46V14.2607h2.9395v10.1396h17.7607v3h-17.1602c4.3594,9.7607,10.4395,18.9404,18.2402,27.54l-2.1602,2.2803
				c-6.6807-7.5195-12.2402-15.8789-16.6807-25.0801v19.7998h8.04v2.8799h-8.04v10.7402h-2.9395V54.8203h-7.9199v-2.8799h7.9199
				V31.9609z"/>
			<path class="st0" d="M978.2197,48.6406c-0.8008,6.1602-1.7197,11.1602-2.7598,15l-2.3398-0.8994
				c1.2393-4.1201,2.1797-9.04,2.8203-14.7607L978.2197,48.6406z M998.0801,18.6406h-9.2402v6.4805h7.5v2.5195h-7.5v6.0605h7.5
				v2.5195h-7.5v6.2998h8.2803v13.4404c0,4-0.3203,6.5996-0.96,7.7998c-0.7197,1.3203-2.2803,1.9805-4.6797,1.9805h-3.6006
				l-0.7803-2.8809h3.54c1.8398,0,2.9795-0.4795,3.4199-1.4395c0.3203-0.7598,0.4805-2.8398,0.4805-6.2402V45.1611H976V15.9404
				h22.0801V18.6406z M986.0801,25.1211v-6.4805h-7.2598v6.4805H986.0801z M986.0801,33.6406v-5.9395h-7.2598v5.9395H986.0801z
				 M986.0801,42.5205v-6.3594h-7.2598v6.3594H986.0801z M982.7197,60.9404l-2.0996,0.3604
				c-0.1201-4.2393-0.4805-8.3193-1.0801-12.2402l2.0996-0.3594C982.1592,52.7412,982.5195,56.8213,982.7197,60.9404z
				 M988.1201,59.0205l-2.04,0.3604c-0.4404-4.2002-1-7.8398-1.6797-10.9199l1.9199-0.3604
				C986.959,51.3408,987.5596,54.9814,988.1201,59.0205z M993.04,56.8008l-1.9199,0.4199c-0.4805-3.3994-1.1611-6.5596-2.04-9.4795
				l1.8604-0.4209C991.6992,50.0811,992.3994,53.2412,993.04,56.8008z M1028.5,30.5205l-2.0996,2.1602
				c-6-5.1191-10.7803-10.4395-14.3408-15.96c-3.7598,5.9609-8.3799,11.3203-13.8594,16.0801l-2.1006-2.04
				c5.7998-4.6396,10.5801-10.1592,14.3408-16.5596h3.2393C1017.1602,20.041,1022.0996,25.4805,1028.5,30.5205z M1019.7402,29.3203
				H1013.5v5.5801h10.8604v13.3809h-10.6201c2.3193,6.2393,6.999,11.54,14.04,15.8994l-1.9805,2.2803
				c-6.2803-3.9199-10.7998-8.8203-13.5596-14.7002c-1.1611,2.8799-3.041,5.7207-5.6406,8.5205
				c-2.3203,2.4805-4.7998,4.5391-7.4395,6.1797l-2.04-2.2197c3.1201-1.7598,5.8594-3.9805,8.2197-6.6602
				c2.7598-3.0801,4.4404-6.1807,5.04-9.2998h-10.2002V34.9004h10.4404v-5.5801h-6.0605v-2.5791h15.1807V29.3203z
				 M1010.6201,37.4805H1003v8.2207h7.6201V37.4805z M1021.6602,45.7012v-8.2207H1013.5v8.2207H1021.6602z"/>
		</g>
	</g>
</g>
</svg>
