<?xml version="1.0" encoding="utf-8"?>
<!-- Generator: Adobe Illustrator 25.2.1, SVG Export Plug-In . SVG Version: 6.00 Build 0)  -->
<svg version="1.1" id="レイヤー_1" xmlns="http://www.w3.org/2000/svg" xmlns:xlink="http://www.w3.org/1999/xlink" x="0px"
	 y="0px" viewBox="0 0 1040 80" style="enable-background:new 0 0 1040 80;" xml:space="preserve">
<style type="text/css">
	.st0{fill:#1E1E28;}
</style>
<g>
	<g>
		<g>
			<path class="st0" d="M25.8398,65.9805h-1.8594V41.7412c-2.9209,3.5996-6.0811,6.8604-9.4805,9.7793l-1.6201-1.0195
				c4.0801-3.4805,7.7793-7.3398,11.1006-11.5801c3.6387-4.6396,6.2793-9.0605,7.9199-13.2598H14.1396v-1.7402h9v-9.4805h1.8008
				v9.4805h8.9395v1.3203c-1.5596,4.1602-3.9404,8.46-7.1396,12.8994c3.3994,4,6.7998,7.4609,10.2002,10.3799l-1.5,1.0801
				c-3.4805-3.2402-6.6807-6.5791-9.6006-10.0195V65.9805z M64.3604,55.1807h-1.8008v-4.2598H52.3604V66.041H50.5V50.9209h-9.7197
				v4.2598h-1.8604V23.501H50.5v-9.0605h1.8604v9.0605h12V55.1807z M50.5,35.9805V25.3008h-9.7197v10.6797H50.5z M50.5,49.1807
				V37.7812h-9.7197v11.3994H50.5z M62.5596,35.9805V25.3008H52.3604v10.6797H62.5596z M62.5596,49.1807V37.7812H52.3604v11.3994
				H62.5596z"/>
			<path class="st0" d="M83.5596,36.3408c-2.2002,6.3203-5.2402,12.2402-9.1191,17.7598l-1.2002-1.4395
				c4.999-6.96,8.4395-13.8008,10.3193-20.5205v-1.0801h-9.54v-1.7402h9.54v-9.96c-2.5195,0.4805-5.2402,0.8613-8.1592,1.1406
				l-0.96-1.6807c6.3994-0.3594,12.3789-1.5986,17.9395-3.7197l1.2598,1.4404c-2.4404,0.9199-5.1807,1.7197-8.2197,2.3994v10.3799
				h8.2197v1.7402h-8.2197v2.46c2.2402,4.9199,4.7402,9.2207,7.5,12.9004l-1.2002,1.2002
				c-2.1602-3.0801-4.2598-6.7803-6.2998-11.1006v29.3398h-1.8604V36.3408z M121.7803,18.9404
				c-2.6006,14.0811-7.9199,25.7012-15.96,34.8604v4.5596c0,1.9609,0.3193,3.2012,0.96,3.7207
				c0.4795,0.4404,1.6396,0.6602,3.4795,0.6602h3.7803c2.6396,0,4.2793-0.6006,4.9199-1.8008
				c0.5996-1.0801,0.9004-3.9395,0.9004-8.5801l1.9199,0.6006c0,4.8398-0.4609,7.9707-1.3799,9.3896
				c-0.9209,1.4199-2.9404,2.1299-6.0605,2.1299h-4.4395c-2.3613,0-3.9512-0.3799-4.7705-1.1396
				c-0.8203-0.7598-1.2295-2.3193-1.2295-4.6797v-2.7607c-3.2803,3.4004-6.9404,6.3008-10.9805,8.7002l-1.5596-1.2002
				c4.6396-2.5586,8.8193-5.8594,12.54-9.8994V27.7012h1.9199v23.5801c7.1992-8.8398,11.959-19.9805,14.2793-33.4209
				L121.7803,18.9404z M99.0996,34.0605c-1,6.8809-2.8193,13.1611-5.46,18.8398l-1.5-1.3193
				c2.7197-5.6406,4.4404-11.7393,5.1602-18.2998L99.0996,34.0605z M113.3203,22.9004l-1.5605,1.2607
				c-3.8799-2.7998-7.7803-5.0195-11.7002-6.6602l1.3203-1.3203C105.6602,18.0615,109.6396,20.3008,113.3203,22.9004z
				 M127.96,49.4805l-1.7998,0.6006c-1.5205-5.7197-3.5605-10.7002-6.1201-14.9404l1.7402-0.5996
				C124.3398,39.1406,126.4004,44.1211,127.96,49.4805z"/>
			<path class="st0" d="M154.96,59.0205h-16.2002v4.7402h-1.9199V24.3408h6.9004c1.1191-3.2402,1.999-6.5596,2.6396-9.96
				l1.9199,0.3604c-0.7598,3.2393-1.6602,6.4404-2.7002,9.5996h9.3604V59.0205z M153.04,40.1807v-14.04h-14.2803v14.04H153.04z
				 M153.04,57.2207V41.9805h-14.2803v15.2402H153.04z M184.2402,38.2012c0,8.3203-0.2705,14.25-0.8105,17.79
				s-1.5508,5.8496-3.0293,6.9297c-1.0801,0.7998-3.1006,1.2002-6.0605,1.2002h-5.04l-0.5996-1.8008h5.6396
				c2.4395,0,4.1191-0.3984,5.04-1.1992c1.1602-1.04,1.9395-3.2402,2.3398-6.6006c0.3994-3.1592,0.6006-8.5996,0.6006-16.3193
				v-12.54h-18.2402c-1.5605,3.5195-3.46,7-5.7002,10.4395l-1.7402-0.7803c4.2803-6.4395,7.46-13.3994,9.54-20.8799l1.9199,0.4805
				c-1.04,3.3203-2.1201,6.2998-3.2393,8.9395h19.3799V38.2012z M173.7998,47.8008L172,48.5205
				c-2.04-4.4395-4.4004-8.5801-7.0801-12.4199l1.6797-0.7803C168.9189,38.7207,171.3193,42.8809,173.7998,47.8008z"/>
			<path class="st0" d="M227.3799,24.7012c-4.0801,0.7998-8.5605,1.9795-13.4395,3.54
				c-3.5615,8.6396-7.8408,16.9795-12.8408,25.0195l-2.2197-0.8398c4.6396-6.6396,8.8398-14.4395,12.6006-23.4004
				c-4.9209,1.6807-9.5811,3.6006-13.9805,5.7607l-0.7197-2.04c5.7598-2.4004,10.9795-4.3809,15.6602-5.9404
				c1.6396-4.1191,2.8994-8.0195,3.7793-11.7002l2.2803,0.6602c-1.2803,3.8398-2.5,7.2598-3.6602,10.2598
				c2.8398-0.8789,6.8193-2.0195,11.9404-3.4199L227.3799,24.7012z M242.7998,60.7607l-1.3799,2.1602
				c-3.1201-3.2402-6.9209-5.7393-11.4004-7.5c-0.0801,3.2002-0.7598,5.4805-2.0391,6.8398c-1.4805,1.5996-3.9814,2.4004-7.5,2.4004
				c-2.4004,0-4.4209-0.501-6.0605-1.5c-1.8398-1.1602-2.7598-2.7197-2.7598-4.6807c0-2.1602,1.0195-3.8594,3.0596-5.0996
				c1.7998-1.0801,4.04-1.6201,6.7207-1.6201c1.9199,0,4.1191,0.3604,6.5996,1.0801c-0.04-0.999-0.2002-2.8994-0.4805-5.7002
				c-0.2393-2.3994-0.3594-4.3398-0.3594-5.8203c0-2.2793,0.2793-3.9385,0.8398-4.9795l1.5596,0.96
				c-0.3203,1.3203-0.4795,2.6807-0.4795,4.0801c0,1.1602,0.1396,3.1201,0.4199,5.8799c0.2793,3.1201,0.4395,5.2002,0.4795,6.2402
				C234.7793,55.1807,239.04,57.6016,242.7998,60.7607z M228.0996,54.7607c-2.5195-0.7998-4.8398-1.2002-6.96-1.2002
				c-2.2793,0-4.0703,0.4404-5.3701,1.3203s-1.9492,2.04-1.9492,3.4795c0,2.9209,2.3789,4.3809,7.1396,4.3809
				c2.8398,0,4.7998-0.7803,5.8799-2.3408C227.6797,59.2412,228.0996,57.3613,228.0996,54.7607z M243.0996,37.2412l-1.6191,1.5596
				c-2.5605-3.4395-5.2207-6.0996-7.9805-7.9805l1.5596-1.3193C238.0195,31.3818,240.7002,33.9609,243.0996,37.2412z"/>
			<path class="st0" d="M297.8799,61.3008H295.54l-5.5205-14.1602h-20.3398l-5.2793,14.1602h-2.2803l16.2002-42.2998h2.6992
				L297.8799,61.3008z M289.2402,45.1006l-9.6006-24.5996L270.46,45.1006H289.2402z"/>
			<path class="st0" d="M356.9199,61.3008h-2.5195l-5.46-14.7598c-1.4014-3.7598-3.9814-5.8203-7.7402-6.1807h-12.96v20.9404H325.96
				V19.001h17.8203c3.6797,0,6.5791,0.8008,8.7002,2.3994c2.3994,1.8008,3.5996,4.4805,3.5996,8.04
				c0,2.9609-0.96,5.4004-2.8799,7.3203c-1.7207,1.6797-4.0205,2.7803-6.9004,3.2998c2.0791,1.001,3.6201,2.8008,4.6201,5.4004
				L356.9199,61.3008z M353.7998,29.4404c0-5.6396-3.3398-8.46-10.0195-8.46h-15.54v17.3398h14.9395
				c3.2002,0,5.7695-0.7695,7.71-2.3096C352.8301,34.4717,353.7998,32.2812,353.7998,29.4404z"/>
			<path class="st0" d="M388.5996,36.8809l-2.3398,1.0195c-1.8809-4.6396-3.9404-8.4189-6.1797-11.3398l1.8604-1.0195
				C384.2197,28.4209,386.4404,32.2012,388.5996,36.8809z M401.8604,31.8408l-2.2207,1.1396
				c-1.5596-4.6797-3.3799-8.5801-5.46-11.6992l2.1006-1.0205C398.5996,23.7812,400.459,27.6406,401.8604,31.8408z
				 M420.2803,23.8604c-2.3613,7.4404-5.2607,14.1602-8.7002,20.1602c-4,6.96-9.0605,13.2607-15.1797,18.9004l-2.2207-1.2002
				c6.2402-5.4395,11.4395-11.8398,15.6006-19.2002c3.7197-6.5996,6.3594-13.0996,7.9199-19.5L420.2803,23.8604z"/>
			<path class="st0" d="M482.2598,20.9805c-7.3604,6.7207-12.2402,11.001-14.6396,12.8398l-1.7402-1.3193
				c4.3594-3.2402,8.5996-6.96,12.7197-11.1602c-1.2803,0.1201-8.3203,0.8604-21.1191,2.2197
				c-8.6016,0.9209-14.7607,1.6602-18.4805,2.2207l-0.54-2.5801c1.5195-0.04,8.3193-0.6602,20.4004-1.8604
				c6.4795-0.6396,13.5-1.3994,21.0596-2.2803L482.2598,20.9805z M462.8799,31.6611c-1.2402,7.2402-2.7002,12.7793-4.3799,16.6201
				c-2.3604,5.4395-5.4404,10.5-9.2402,15.1797l-2.2793-1.2598c4.0391-4.2402,7.2188-9.2197,9.5391-14.9404
				c2.04-5.0791,3.3604-10.5,3.9609-16.2598L462.8799,31.6611z"/>
			<path class="st0" d="M542.3203,38.3203c-0.3213,0-0.8809-0.0195-1.6807-0.0596c-0.7197,0-1.2803,0-1.6797,0
				c-5.5195,0-12.0811,0.1797-19.6797,0.54c-7.0801,0.3203-14.1006,0.8799-21.0605,1.6797l-0.1797-2.3398
				c7.2002-0.5996,14.2598-1.0801,21.1797-1.4395c9.3604-0.4805,17.0195-0.7402,22.9805-0.7803L542.3203,38.3203z"/>
			<path class="st0" d="M600.0996,21.8809c-5.8799,0.4004-11.5,2.8408-16.8594,7.3203c-4.6807,3.9199-7.0205,8.6992-7.0205,14.3398
				c0,8.96,5.8203,15.0801,17.46,18.3594l-1.3799,2.1602c-5.9199-1.959-10.4395-4.6201-13.5596-7.9795
				c-3.1201-3.3604-4.6807-7.2607-4.6807-11.7002c0-9.3994,5.4805-16.6797,16.4404-21.8398
				c-14.8008,2.1602-25.2002,4.4004-31.2002,6.7197l-1.2598-2.2803c5.4795-1.3994,11.9404-2.7988,19.3799-4.1992
				c5.4395-1.04,12.7998-2.0801,22.0801-3.1201L600.0996,21.8809z M600.4004,37.6006l-1.5605,1.2598
				c-1.4004-2.0791-3.6201-4.2393-6.6602-6.4795l1.4404-1.2002C596.1797,32.8604,598.4395,35.001,600.4004,37.6006z M605.5,33.3408
				l-1.5596,1.3203c-1.4805-2.0801-3.7607-4.1602-6.8408-6.2402l1.3809-1.2598C601.1201,28.8018,603.46,30.8613,605.5,33.3408z"/>
			<path class="st0" d="M655.1797,48.4004c0,4.2402-1.5,7.5215-4.5,9.8408c-2.7207,2.1592-6.2803,3.2393-10.6797,3.2393
				c-5.1211,0-9.7607-1.3799-13.9199-4.1396l1.2598-1.8604c4.04,2.6807,8.2598,4.0205,12.6602,4.0205
				c3.8789,0,7.0098-0.9697,9.3896-2.9102c2.3799-1.9395,3.5703-4.6699,3.5703-8.1904c0-2.8389-1.0605-5.1387-3.1797-6.8994
				c-2.1211-1.7598-4.9199-2.6406-8.4004-2.6406c-2.0801,0-4.2207,0.3809-6.4199,1.1406c-2.4805,0.8398-4.3799,1.96-5.7002,3.3594
				h-1.9199l2.5801-24.1191h23.46v1.9795h-21.4795l-2.04,19.1396c3.6387-2.3594,7.4795-3.54,11.5195-3.54
				c3.999,0,7.2803,1.0205,9.8398,3.0605C653.8604,42.041,655.1797,44.8818,655.1797,48.4004z"/>
			<path class="st0" d="M726.8799,43.001h-46.2598v5.1602H723.46v6.0596c0,4.041-0.4795,6.8203-1.4404,8.3398
				c-1.2803,2.0801-3.8203,3.1201-7.6191,3.1201h-4.3203l-0.5996-1.7998h4.9199c3.1992,0,5.2588-0.8809,6.1797-2.6396
				c0.6396-1.1602,0.96-3.5,0.96-7.0205v-4.2598h-28.1396v9.1201H707.5v-6.8398h1.9199v8.6396H678.04v3.4199h-1.9199V52.2412h1.9199
				v6.8398h13.4404v-9.1201h-12.7803V20.6211h15.1201c1.3193-2.3604,2.3398-4.6602,3.0596-6.9004l1.8604,0.54
				c-0.6406,1.8809-1.6201,4-2.9404,6.3604h23.5801v15.7197h-38.7598v4.8604h46.2598V43.001z M717.46,27.4004v-4.9795h-36.8398
				v4.9795H717.46z M717.46,34.541v-5.3398h-36.8398v5.3398H717.46z"/>
			<path class="st0" d="M744.1602,56.8604c-2.7207,2.6807-5.8799,5.4004-9.4805,8.1602l-0.96-1.7998
				c4.4404-3.2793,7.7002-6,9.7803-8.1602V38.4404h-9.2998v-1.8594h11.2803v18.54c0.999,2.5195,2.3594,4.2998,4.0791,5.3398
				s4.0596,1.5596,7.0205,1.5596h29.7002l-0.6006,1.9199h-28.9795c-3.2803,0-5.8799-0.5498-7.7998-1.6494
				S745.3994,59.3809,744.1602,56.8604z M745.7197,24.5205l-1.6201,1.0205c-2.8799-3.2002-5.6201-5.7803-8.2197-7.7402
				l1.6201-1.0801C740.1396,18.8809,742.8789,21.4814,745.7197,24.5205z M760.8398,16.4805
				c-2.2803,7.1211-5.0205,13.4805-8.2197,19.0801c3.3994,7.5205,6.0996,14.7207,8.0996,21.6006l-1.9199,0.5996
				c-1.8809-6.96-4.6406-14.4004-8.2803-22.3203c3.1602-5.3594,5.9795-11.8799,8.4609-19.5596L760.8398,16.4805z M772.2998,55.9004
				L770.5,56.501c-2.2803-7-5.2803-14-9-21c2.96-4.5996,5.9404-10.7598,8.9404-18.4805l1.7998,0.7207
				c-2.3613,6.1191-5.2207,12.0801-8.5801,17.8799C767.5391,43.3818,770.4189,50.1406,772.2998,55.9004z M785.9805,57.041
				l-1.7402,0.7197c-2.9609-7.3203-6.6406-14.7393-11.04-22.2598c4.0391-6.3994,7.3594-12.9395,9.96-19.6201l1.7998,0.6602
				c-2.4404,6.3203-5.6201,12.6602-9.54,19.0195C779.5391,42.7217,783.0596,49.8809,785.9805,57.041z"/>
			<path class="st0" d="M833.1396,34.541c0,6.3594-1.1201,11.8193-3.3594,16.3799c-2.6406,5.4404-7.6807,10.6406-15.1201,15.5996
				l-2.1006-1.5c7.2402-4.5195,12.2002-9.2998,14.8809-14.3398c2.3594-4.4795,3.54-9.8594,3.54-16.1396
				c0-3.1201-0.54-5.8398-1.6201-8.1602c-1.2402-2.6797-2.9014-4.0205-4.9805-4.0205c-3.0801,0-5.9805,2.9209-8.7002,8.7607
				c-2.3994,5.2002-3.5996,9.96-3.5996,14.2793v1.3203l-2.1602,0.4199c-1.3604-3.6797-2.04-8.1992-2.04-13.5596
				c0-5.3193,0.9004-11.54,2.7002-18.6602l2.5195,0.7803c-2.2002,5.6396-3.2998,11.7207-3.2998,18.2393
				c0,3.7207,0.2598,6.6602,0.7803,8.8203c0.7598-5.2393,2.2598-9.999,4.5-14.2803c2.7988-5.3193,5.9395-7.9795,9.4199-7.9795
				c2.6797,0,4.8193,1.3799,6.4199,4.1396C832.3994,27.2412,833.1396,30.541,833.1396,34.541z"/>
			<path class="st0" d="M900.8203,38.4404c-5.6807,1.0801-11.1006,2.7002-16.2607,4.8604
				c0.2803,2.8799,0.4209,6.9004,0.4209,12.0596l-2.2803,0.0605c0.0391-1.0801,0.0596-3.1797,0.0596-6.2998
				c0-1.96-0.0596-3.6006-0.1797-4.9199c-2.9609,1.4395-5.5,3.0996-7.6201,4.9795c-2.9199,2.5605-4.3799,5.0205-4.3799,7.3799
				c0,4.1611,3.5996,6.2402,10.7998,6.2402c4.2803,0,8.4395-0.4199,12.4805-1.2598l-0.3008,2.3398
				c-3.6396,0.5996-7.46,0.9004-11.46,0.9004c-3.4795,0-6.3594-0.4609-8.6396-1.3809c-3.2803-1.3594-4.9199-3.5596-4.9199-6.5996
				c0-5.04,4.5996-9.8398,13.7998-14.4004c-0.3594-2.3594-1-3.96-1.9199-4.7998c-0.5996-0.5996-1.5205-0.8994-2.7598-0.8994
				c-1.6006,0-3.7607,0.8496-6.4805,2.5498c-2.7207,1.7002-4.8398,3.5498-6.3594,5.5498l-2.1006-1.0195
				c4.4004-4.9209,8.8203-10.7803,13.2607-17.5801c-4.6006,0.7998-8.9209,1.4199-12.9609,1.8594l-0.6592-2.1602
				c4.959-0.2393,9.9189-0.7793,14.8799-1.6191c2.1992-3.4805,3.9395-6.6201,5.2197-9.4209l2.2197,1.0801
				c-1.2803,2.1602-2.9395,4.7803-4.9795,7.8604c3.4795-0.6797,6.6992-1.5801,9.6602-2.7002l0.4199,2.2197
				c-2.2002,0.6406-5.9805,1.4609-11.3398,2.4609c-3.2012,4.7598-6.4805,9.2598-9.8408,13.5
				c3.7998-2.8809,7.0996-4.3203,9.9004-4.3203c3.1992,0,5.1396,2.0996,5.8203,6.2998v0.1797
				c4.0391-1.8389,9.3193-3.5186,15.8398-5.04L900.8203,38.4404z"/>
			<path class="st0" d="M923.0195,65.7412h-1.9199V32.5605c-2.2002,4.4404-4.5996,8.541-7.1992,12.2998l-1.7402-0.7793
				c6.4795-9.1201,11.1602-19.0596,14.04-29.8203l1.8594,0.2998c-1.2803,4.6006-2.96,9.2402-5.04,13.9199V65.7412z
				 M945.5195,30.1611c-5.0801,11-10.8799,19.96-17.3994,26.8799l-1.3799-1.2598c6.999-7,13.2393-16.6406,18.7197-28.9209h-18.0596
				v-1.9199h18.1191V14.501h1.8008v10.4395h18.3594v1.9199h-18.2998c4.4404,10.041,10.8398,19.6611,19.2002,28.8604l-1.4404,1.2598
				c-7.0801-7.7998-13.0195-16.7393-17.8193-26.8193v22.0801h8.2793v1.7998h-8.2793v11.2793h-1.8008V54.041h-8.0996v-1.7998h8.0996
				V30.1611z"/>
			<path class="st0" d="M977.7402,48.6406c-0.8398,6.2402-1.7803,11.2002-2.8203,14.8799l-1.5596-0.4795
				c1.2793-4.1191,2.2197-9.0996,2.8193-14.9404L977.7402,48.6406z M997.7803,18.041h-9.9004v7.4395h8.1006v1.6807h-8.1006v6.96
				h8.1006v1.6797h-8.1006v7.2598h8.9404v12.7207c0,3.8799-0.3008,6.3994-0.9004,7.5596c-0.7197,1.3994-2.3398,2.0996-4.8604,2.0996
				h-3.1191l-0.6006-1.6797h3.2998c2.1201,0,3.4404-0.54,3.96-1.6201c0.3994-0.8398,0.6006-3.1592,0.6006-6.96V44.7412h-19.0205
				V16.3604h21.6006V18.041z M986.1396,25.4805V18.041h-8.2793v7.4395H986.1396z M986.1396,34.1211v-6.96h-8.2793v6.96H986.1396z
				 M986.1396,43.0605v-7.2598h-8.2793v7.2598H986.1396z M982.4805,60.6406l-1.5,0.2402c-0.1201-3.999-0.5205-7.9395-1.2002-11.8203
				l1.5-0.2998C981.8799,53.1211,982.2793,57.0811,982.4805,60.6406z M988.0596,58.6006l-1.4395,0.3604
				c-0.4805-3.8799-1.1201-7.3799-1.9199-10.5l1.3799-0.2998C986.7998,51.3213,987.46,54.8008,988.0596,58.6006z M993.2197,56.4404
				l-1.3799,0.4199c-0.5205-3.2393-1.2998-6.2998-2.3398-9.1797l1.3203-0.4199C991.7393,50.0615,992.5391,53.1211,993.2197,56.4404z
				 M1028.2598,31.3008l-1.6201,1.0801c-6.2002-5.3594-11.0801-10.7793-14.6396-16.2598
				c-3.9209,6.1602-8.6602,11.6201-14.2197,16.3799l-1.6201-1.0801c5.7988-4.5605,10.7598-10.2393,14.8799-17.04h1.8604
				C1016.5801,20.4209,1021.6992,26.0615,1028.2598,31.3008z M1019.7998,28.9609h-6.96v6.3594h11.2197v12.6602h-11.2197
				c2.2402,6.6006,7.1406,12.2607,14.7002,16.9805l-1.4404,1.2598c-6.7598-4.2793-11.4395-9.54-14.04-15.7803
				c-1,2.9609-2.8398,5.9609-5.5195,9c-2.4404,2.7607-5.0801,5.0195-7.9199,6.7803l-1.3799-1.3203
				c3.2793-1.9199,6.1396-4.2598,8.5801-7.0195c2.8799-3.3193,4.5596-6.6201,5.04-9.9004h-10.5605V35.3203h10.6807v-6.3594h-6.7207
				v-1.7402h15.54V28.9609z M1010.9805,37.0605h-8.8203v9.1807h8.8203V37.0605z M1022.2598,46.2412v-9.1807h-9.4199v9.1807
				H1022.2598z"/>
		</g>
	</g>
</g>
</svg>
