<?xml version="1.0" encoding="utf-8"?>
<!-- Generator: Adobe Illustrator 25.2.1, SVG Export Plug-In . SVG Version: 6.00 Build 0)  -->
<svg version="1.1" id="レイヤー_1" xmlns="http://www.w3.org/2000/svg" xmlns:xlink="http://www.w3.org/1999/xlink" x="0px"
	 y="0px" viewBox="0 0 1040 80" style="enable-background:new 0 0 1040 80;" xml:space="preserve">
<style type="text/css">
	.st0{fill:#1E1E28;}
</style>
<g>
	<g>
		<g>
			<path class="st0" d="M28,67.1807h-7.2002v-18.54c-1.9199,2.2002-4.0195,4.3408-6.2998,6.4199l-3.0596-7.1396
				c6.9189-6.4395,11.7988-12.7803,14.6396-19.0205H13.2998V22.001H20.5v-8.5801h7.3203v8.5801H34v5.8193
				c-1.4805,3.5615-3.2803,7.0205-5.4004,10.3809c2.2002,2.6396,4.6201,5.1807,7.2607,7.6191v-24h11.3994v-8.46h7.3799v8.46h11.8799
				v34.7402h-6.96v-2.9395h-4.9199v13.3193h-7.3799V53.6211h-4.6201v2.9395h-6.7793v-8.8799l-3.0605,5.1602
				c-1.7607-1.7598-3.3594-3.4805-4.7998-5.1602V67.1807z M47.4404,34.2412v-5.3408h-4.8008v5.3408H47.4404z M47.4404,46.541
				v-5.7002h-4.8008v5.7002H47.4404z M59.5596,34.2412v-5.3408H54.46v5.3408H59.5596z M59.5596,46.541v-5.7002H54.46v5.7002H59.5596
				z"/>
			<path class="st0" d="M80.3799,47.3203c-1.5205,3.1611-3.3809,6.3604-5.5801,9.6006l-2.7002-8.1006
				c3.6006-5.2793,6.3398-10.1396,8.2207-14.5791h-7.1406v-6.8408h7.2002v-5.0996c-1.9199,0.2803-3.8008,0.5205-5.6396,0.7197
				l-2.4004-6.54c6.8398-0.5195,12.8594-1.6992,18.0605-3.54l3.1191,6c-1.8799,0.7607-3.9395,1.4209-6.1797,1.9805v6.4795h6.6006
				v6.8408h-6.6006v1.1992c1.3994,2.4004,3.3203,5.1602,5.7598,8.2803l-2.8799,6.7197c-1.04-1.4395-2-2.8193-2.8799-4.1396v20.6396
				h-6.96V47.3203z M124.9004,18.9404c-1.2402,6.041-2.9014,11.7002-4.9805,16.9805l3.2998-2.1602
				c2.5996,4.8809,4.5996,9.7197,6,14.5205l-6.1201,3.5391l1.3809,0.3604c0,6.1602-0.54,10.0605-1.6201,11.7002
				s-3.5811,2.46-7.5,2.46H109.96c-2.6006,0-4.3604-0.3301-5.2803-0.9902s-1.46-2.0303-1.6201-4.1094
				c-2.1201,1.8389-4.4199,3.499-6.8994,4.9795l-5.4004-5.6396c4.7598-2.4395,8.8398-5.46,12.2402-9.0605V26.6807h7.3203v14.46
				c3.4395-6.6396,6-15.2598,7.6797-25.8594L124.9004,18.9404z M101.5,32.6211c-0.6807,8.0801-2.04,15.3398-4.0801,21.7793
				l-5.7002-3.8398c1.96-5.6396,3.2793-12.3994,3.96-20.2793L101.5,32.6211z M115.7803,19.3604l-3.96,6.54
				c-4.4014-2.5195-9.0605-4.5596-13.9805-6.1191l4.3203-6.3008C106.999,15.001,111.54,16.9609,115.7803,19.3604z M118.2998,39.9404
				c-2.2402,4.9609-4.9004,9.4609-7.9795,13.5v3.4199c0,0.8809,0.1094,1.4512,0.3301,1.71
				c0.2188,0.2607,0.7695,0.3906,1.6494,0.3906h1.6807c1.7188,0,2.7188-0.4395,3-1.3203c0.1992-0.6396,0.2998-3.0996,0.2998-7.3799
				l5.46,1.4404C121.54,47.3809,120.0596,43.4609,118.2998,39.9404z"/>
			<path class="st0" d="M175.1201,47.0205l-6.54,2.8799c-2.2002-4.8389-4.4199-8.8799-6.6602-12.1191L158.5,35.9209v26.2803
				h-16.2002v4.0195h-7.6201V22.3604h7.0801c1.0801-3.1592,1.9395-6.1992,2.5801-9.1191l7.7998,1.0195
				c-0.7598,2.7207-1.5801,5.4209-2.46,8.0996H158.5v8.4004c2.7598-5.1992,4.9395-10.9795,6.54-17.3398l7.5,1.1396
				c-0.7197,2.5205-1.5,5.001-2.3398,7.4404H186.04v17.6396c0,8.5605-0.2207,14.4209-0.6602,17.5801
				c-0.5605,3.7607-1.6797,6.2402-3.3604,7.4404c-1.4395,0.999-4.1201,1.5-8.0391,1.5h-4.2607l-2.46-7.5h5.04
				c2.0791,0,3.46-0.3203,4.1406-0.96c0.8789-0.7998,1.4395-2.5996,1.6797-5.4004c0.2402-2.3594,0.3604-6.96,0.3604-13.7998v-9.1201
				h-11.1602c-1.001,2.2002-2.3008,4.7207-3.9004,7.5596l4.8604-2.04C170.4404,38.0205,172.7197,42.0615,175.1201,47.0205z
				 M151,38.4404v-8.8799h-8.7002v8.8799H151z M151,54.8809v-9.4199h-8.7002v9.4199H151z"/>
			<path class="st0" d="M216.1602,15.1611c-0.4004,0.96-1,2.46-1.7998,4.5c8.6396-0.2002,16.2197-0.3008,22.7393-0.3008v7.2002
				c-7.7998,0-16.2803,0.1406-25.4395,0.4199c-3.96,11.2002-7.2598,22.2207-9.9004,33.0605l-7.7998-1.7998
				c3.1201-11.1201,6.2793-21.4404,9.4805-30.96l-8.04,0.3594v-7.3203c3.5996-0.1592,7.1396-0.2998,10.6191-0.4199
				c0.8408-2.3193,1.5996-4.3594,2.2803-6.1191L216.1602,15.1611z M246.9404,49.9609l-3.0605,7.3203
				c-1.6406-1.1201-3.4004-2.2207-5.2803-3.3008c-1,8.1602-6,12.2402-15,12.2402c-4.1602,0-7.6406-0.9805-10.4395-2.9395
				c-3.0811-2.1602-4.6201-5.1006-4.6201-8.8203s1.4795-6.6602,4.4404-8.8203c2.7988-2.0791,6.4199-3.1201,10.8594-3.1201
				c2.5205,0,4.9199,0.2207,7.2002,0.6602c-0.0811-2.0791-0.2002-3.999-0.3604-5.7598c-5.7598,0.0801-10.3604,0.2002-13.7998,0.3604
				V31.001c8.5596-0.2793,17.96-0.4199,28.2002-0.4199v6.7793c-0.6807,0-1.7803,0-3.2998,0
				c-1.6807,0.041-2.8799,0.0605-3.6006,0.0605c0.2002,2.8799,0.3604,5.5801,0.4805,8.0996
				C241.2598,46.6006,244.0195,48.0811,246.9404,49.9609z M231.2197,50.4404c-2.6396-0.96-5.04-1.4395-7.2002-1.4395
				c-2.5596,0-4.5596,0.4502-6,1.3496c-1.4395,0.9004-2.1592,2.1104-2.1592,3.6299c0,1.6006,0.8193,2.8604,2.46,3.7803
				c1.4395,0.8008,3.1992,1.2002,5.2793,1.2002c2.5205,0,4.4404-0.7803,5.7607-2.3398c1.2393-1.3594,1.8594-3.2002,1.8594-5.5205
				V50.4404z"/>
			<path class="st0" d="M302.0801,63.8809h-9.4805l-3.54-10.4404h-18.4199l-3.3594,10.4404h-9.2998l15.8994-47.6396h11.4004
				L302.0801,63.8809z M286.4805,45.6406l-6.8408-20.3398l-6.54,20.3398H286.4805z"/>
			<path class="st0" d="M361.0596,63.8809H351.04l-5.8799-14.04c-1.4404-3.3994-4.2207-5.0996-8.3398-5.0996h-6.3008v19.1396
				h-9.1191V16.2412h22.0195c4.2793,0,7.7998,1.0596,10.5605,3.1797c3.1592,2.4805,4.7393,6.04,4.7393,10.6797
				c0,6.3213-2.9805,10.5205-8.9395,12.6006c2.04,1.2402,3.6191,3.1797,4.7393,5.8193L361.0596,63.8809z M349.4199,30.5205
				c0-1.7598-0.5801-3.1992-1.7402-4.3193c-1.3193-1.2803-3.1602-1.9199-5.5195-1.9199h-11.6406v12.7793h11.7002
				c2.3604,0,4.2002-0.6992,5.5205-2.0996C348.8594,33.7607,349.4199,32.2812,349.4199,30.5205z"/>
			<path class="st0" d="M388.8398,42.041l-8.2803,1.7998c-0.4404-2.4004-1.4199-6.4395-2.9395-12.1201
				c-1.4805-5.5195-2.6611-9.5791-3.54-12.1797l8.5801-1.8604C385.8193,28.6006,387.8799,36.7217,388.8398,42.041z
				 M405.1602,38.8604l-8.1006,1.6201c-1.9199-10.4395-3.6807-18.4199-5.2793-23.9395l8.5195-1.6807
				C403.0195,26.4209,404.6396,34.4209,405.1602,38.8604z M426.8799,24.1006c-8.4805,15.4004-15.8203,29.4805-22.0195,42.2402
				l-8.3408-2.5801c6.3203-12.999,13.6406-27.3193,21.9609-42.96L426.8799,24.1006z"/>
			<path class="st0" d="M461.5,32.6211c-0.8008,2.6797-1.6406,5.7803-2.5195,9.2998c4.1992-2,7.8789-4.2197,11.0391-6.6602
				c3.7598-2.8799,5.6406-5.2598,5.6406-7.1396c0-2.4805-2.7002-3.7207-8.1006-3.7207c-8.2402,0-18.8203,0.8008-31.7393,2.4004
				l-0.7803-8.6396c13.4795-1.3594,24.9395-2.04,34.3799-2.04c5.4795,0,9.5996,1,12.3604,3
				c2.4795,1.7607,3.7197,4.1602,3.7197,7.1992c0,4.4404-2.5605,8.8604-7.6797,13.2607c-3.3213,2.8408-8.0605,5.9004-14.2207,9.1797
				l-4.6191-6.7803c-1.6006,6.4414-3.3604,14.4404-5.2803,24l-8.7598-0.7793c1.9199-9.5605,4.5986-20.7402,8.04-33.54L461.5,32.6211
				z"/>
			<path class="st0" d="M544.54,41.501c-20.9199,0-37.2002,0.3809-48.8398,1.1396v-8.5195
				c14.7598-0.6797,31.0391-1.0205,48.8398-1.0205V41.501z"/>
			<path class="st0" d="M603.9404,24.5811c-7.001,1.3193-13.0605,3.8203-18.1807,7.5c-5.6396,4.0801-8.46,8.4805-8.46,13.2002
				c0,6.8398,6.2793,10.7197,18.8398,11.6396l-1.1992,8.3994c-7.8809-0.4795-14.1006-2.1797-18.6602-5.0996
				c-5.1211-3.3193-7.6807-8-7.6807-14.04c0-8.0791,4.7197-15.0596,14.1602-20.9395c-6.3594,0.3594-15.0996,0.8604-26.2197,1.5
				l-0.2402-8.2803c15.4805-0.96,31.2598-1.4404,47.3398-1.4404L603.9404,24.5811z M599.9199,29.1406
				c-0.6406,2.9209-1.2402,6.4004-1.7998,10.4404l-4.9805-0.6006c0.6006-4.3193,1.2002-7.7793,1.8008-10.3799L599.9199,29.1406z
				 M607.3604,29.1406c-0.7607,3.4404-1.3799,6.9209-1.8604,10.4404l-4.9199-0.6006c0.6396-4.7188,1.2197-8.1797,1.7402-10.3799
				L607.3604,29.1406z"/>
			<path class="st0" d="M658.4805,48.5811c0,5.2793-1.7207,9.2803-5.1602,12c-3.1602,2.5195-7.4609,3.7793-12.9004,3.7793
				c-4.2803,0-7.8398-0.6592-10.6797-1.9795c-3.3213-1.5605-6.041-4.1797-8.1602-7.8604l8.2197-4.1396
				c2.8398,4.2002,6.2002,6.2998,10.0801,6.2998c3.2793,0,5.7803-0.8193,7.5-2.46c1.4795-1.4395,2.2197-3.2598,2.2197-5.46
				c0-2.2803-0.71-4.0098-2.1299-5.1904c-1.4199-1.1787-3.3701-1.7695-5.8496-1.7695c-4.6797,0-8.04,1.54-10.0801,4.6201
				l-8.5205-0.6602l2.5205-28.7998h31.1396v7.8594H633.46l-1.2002,12.6006c3.04-2.1201,6.9199-3.1797,11.6406-3.1797
				c4.2793,0,7.7393,1.2598,10.3799,3.7793C657.0791,40.6211,658.4805,44.1406,658.4805,48.5811z"/>
			<path class="st0" d="M727.4805,44.8604H685.96v2.2207h39.5996v10.4395c0,4.0801-0.6396,6.75-1.9199,8.0107
				c-1.2803,1.2598-3.8398,1.8896-7.6797,1.8896H712.54l-1.2598-3.54h-28.6807v2.2803h-7.9199V53.6807h7.9199v3.8398h7.0801v-5.0996
				h-11.8799V17.6211h14.9404c0.7197-1.5996,1.3799-3.3398,1.9795-5.2207l8.1006,1.0205c-0.4004,1.2803-0.9004,2.6807-1.5,4.2002
				h19.4395v19.5H685.96v2.04h41.5205V44.8604z M712.7197,25.4805v-2.2793H685.96v2.2793H712.7197z M712.7197,32.4404v-2.3398
				H685.96v2.3398H712.7197z M712.5996,60.4609h1.5605c1.5596,0,2.5195-0.2197,2.8799-0.6602c0.3604-0.4395,0.54-1.4189,0.54-2.9404
				v-4.4395h-19.7402v5.0996h7.2002v-3.8398h7.5596V60.4609z"/>
			<path class="st0" d="M743.1396,61.4805c-2.5596,2.1992-5.2793,4.2803-8.1592,6.2402l-2.3408-8.7002
				c2.96-1.7998,5.5205-3.5596,7.6807-5.2793V42.4609h-7.0801v-7.6797H748v19.4395c0.4805,1.6406,1.4189,2.8008,2.8203,3.4805
				c1.2793,0.6396,3.1797,0.96,5.6992,0.96h31.2607l-1.8604,7.2598h-30.7197c-2.9209,0-5.2607-0.2998-7.0205-0.9004
				C746.1396,64.3398,744.46,63.1611,743.1396,61.4805z M748.8398,23.501l-5.8799,5.6396
				c-2.7998-3.4395-5.8799-6.5195-9.2402-9.2402l5.7607-5.46C742.6797,16.8809,745.7998,19.9004,748.8398,23.501z M763.6602,16.1807
				c-2.2002,6.5205-4.8408,12.46-7.9199,17.8203c2.6396,5.8408,5.1602,12.5801,7.5596,20.2197l-7.3799,2.5205
				c-2.9609-9.7207-5.7002-17.3408-8.2197-22.8604c3.7197-6.7197,6.6396-13.3594,8.7598-19.9199L763.6602,16.1807z
				 M774.8799,16.6611c-2.0801,5.7207-4.7607,11.4199-8.04,17.0996c3,6.3604,5.5801,12.8398,7.7402,19.4404l-6.9004,2.5195
				c-3.0801-9.3994-5.9199-16.7402-8.5195-22.0195c3.5596-5.7998,6.5791-12.2598,9.0596-19.3809L774.8799,16.6611z M787.5996,16.541
				c-2.0801,5.3994-4.9795,11.1807-8.6992,17.3398c3.0791,5.7207,6.0791,12.2803,9,19.6797l-7.7402,2.7002
				c-3.2012-8.8398-6.4004-16.2998-9.6006-22.3799c3.3994-5.4795,6.5801-12.0391,9.54-19.6797L787.5996,16.541z"/>
			<path class="st0" d="M823.54,44.8604c-5.5605,5.4004-10.6406,8.1006-15.2402,8.1006c-3.1602,0-5.6797-1.1602-7.5596-3.4805
				c-1.9609-2.5195-2.9404-6.0986-2.9404-10.7393c0-7.1201,1.0996-14.9004,3.2998-23.3408l8.6406,1.5
				c-2.5205,8.1602-3.7803,15.2803-3.7803,21.3604c0,4.041,1.1797,6.0596,3.54,6.0596c2.3594,0,5.5596-2.0996,9.5996-6.2998
				L823.54,44.8604z M842.2598,15.7012c-0.4404,18.7197-4.0195,35.5596-10.7402,50.5195l-8.6992-1.7402
				c3.6797-8.1191,6.3193-15.7998,7.9199-23.04c1.6396-7.5195,2.5596-16.2393,2.7598-26.1592L842.2598,15.7012z"/>
			<path class="st0" d="M905.9805,36.7012c-7.7207,1.2803-13.2412,2.5195-16.5605,3.7197c2.8799,1.6797,6.1201,4.2002,9.7197,7.5596
				l-6.1797,4.8604c-4.7207-4.0801-8.6807-6.9795-11.8799-8.7002c-2.8408,1.0801-5.2002,2.3604-7.0801,3.8398
				c-2.0801,1.6807-3.1201,3.2607-3.1201,4.7402c0,3.4404,4.3994,5.1602,13.2002,5.1602c5.5996,0,11.3594-0.4199,17.2803-1.2598
				l0.3594,7.7998c-6.5996,0.6797-12.4795,1.0195-17.6396,1.0195C869.3594,65.4404,862,61.3213,862,53.0811
				c0-4.2002,2.96-8.2803,8.8799-12.2402c-0.7598-0.0801-1.6797-0.1201-2.7598-0.1201c-2.5205,0-5.1807,1.1611-7.9805,3.4805
				l-5.6992-5.2803c4.2793-3.8398,8.2588-7.7402,11.9395-11.7002c-3.96,0.0811-7.54,0.1602-10.7402,0.2402v-7.5
				c2.5596-0.0801,8.1797-0.1592,16.8604-0.2402c0.6396-0.7598,2.1396-2.7002,4.5-5.8203l8.8799,1.5
				c-0.6406,0.8809-1.7197,2.2803-3.2402,4.2002l16.5605-0.1201v7.4404c-4.1201,0-11.501,0.0596-22.1406,0.1797
				c-3.5996,3.7197-6.0205,6.1807-7.2598,7.3799c0.7197-0.0791,1.46-0.1201,2.2197-0.1201c2.6797,0,5.4805,0.501,8.4004,1.5
				c6.96-2.9189,14.7197-5.0791,23.2803-6.4795L905.9805,36.7012z"/>
			<path class="st0" d="M926.6201,66.9404h-7.7998V40.8408c-1.2402,1.96-2.6406,3.96-4.2002,6l-4.2002-7.0205
				c5.3594-7.3994,9.3398-16.4395,11.9404-27.1191l7.4395,1.3193c-0.9209,3.7607-1.9795,7.3408-3.1797,10.7402v27.4199
				c5.7598-6.3994,10.5791-13.9199,14.46-22.5596h-12.1797v-7.5605h14.6992v-8.5801h7.6807v8.5801h15.3594v7.5605h-13.0801
				c3.6797,7.9199,8.6201,15.4199,14.8203,22.5l-4.9199,6.1201c-5.1201-6.4404-9.2607-12.7002-12.4199-18.7803v11.5195H958v6.8398
				h-6.8398v8.7002h-7.5v-8.7002h-6.8398V51.041c-1.7607,2.6006-3.5811,5.04-5.46,7.3193l-4.7402-5.7598V66.9404z M943.8398,39.1006
				c-2.04,4.1201-4.3604,8.0801-6.96,11.8799h6.96V39.1006z"/>
			<path class="st0" d="M979.1201,49.0605l-0.0605,0.2402l3.0605-0.54c0.3994,4.041,0.6992,8.6006,0.8994,13.6797l-3.7197,0.6602
				c-0.1602-4.4795-0.3398-8.2393-0.54-11.2803c-0.6807,5.0811-1.4004,9.3408-2.1602,12.7803l-4.6797-2.46
				c1.04-3.8398,1.959-8.6396,2.7598-14.3994L979.1201,49.0605z M986.3799,61.1807l-1.9795,0.2998
				c-0.3213-4.8389-0.7012-9.0391-1.1406-12.5996l3.3604-0.6602c0.5596,4.2002,0.999,8.0801,1.3203,11.6396h2.46
				c0.999,0,1.5986-0.459,1.7998-1.3799c0.0391-0.1201,0.0596-1.0195,0.0596-2.6992v-8.8809h-17.3398v-32.46h24.1797v6.7207h-6.8994
				v3.0596h5.5801v2.5801c4.5195-3.96,8.0596-8.3789,10.6201-13.2598h8.1592c2.9199,4.9199,7.2002,9.5605,12.8408,13.9199
				l-3.7207,6.4199v15.7197h-8.5195c2.2803,4.5205,6.0996,8.4004,11.46,11.6406l-3.8398,6.2998
				c-5.04-2.8408-8.9805-6.6602-11.8203-11.46c-2.7207,4.6797-6.5801,8.5195-11.5801,11.5195l-3.4199-4.6797
				c-0.3203,1.5996-0.8604,2.6699-1.6201,3.21s-1.9404,0.8096-3.54,0.8096h-5.0996L986.3799,61.1807z M985.7803,24.2812v-3.1201
				h-3.8398v3.1201H985.7803z M985.7803,32.2607v-2.6396h-3.8398v2.6396H985.7803z M985.7803,40.6611V37.541h-3.8398v3.1201
				H985.7803z M992.0195,57.5811l-3.1191,0.5996c-0.4414-4.4795-0.8203-7.7197-1.1406-9.7197l3-0.6602
				C991.2793,50.7617,991.6992,54.0215,992.0195,57.5811z M997.1797,29.5605h-4.9795v2.7598h5.5801v5.2803h-5.5801v3.0605h6.1797
				v16.1396c0,1.4404-0.0596,2.8408-0.1797,4.2002c5.1602-3,8.6396-6.7998,10.4395-11.4004h-8.5195V34.1211L997.1797,29.5605z
				 M1009.6602,33.5205v-2.7598H1006v-2.7002c-1.7607,2.001-3.501,3.8203-5.2197,5.46H1009.6602z M1009.6602,39.2812h-3.6006v4.5596
				h3.6006V39.2812z M1008.46,25.0605h8.4004c-1.8408-2.1602-3.3008-4.0996-4.3799-5.8193
				C1011.4395,21.001,1010.0996,22.9414,1008.46,25.0605z M1019.7402,30.7607h-3.6602v2.7598h9.1797
				c-1.8809-1.5596-3.7197-3.2998-5.5195-5.2197V30.7607z M1019.7998,43.8408v-4.5596h-3.7197v4.5596H1019.7998z"/>
		</g>
	</g>
</g>
</svg>
