<?xml version="1.0" encoding="utf-8"?>
<!-- Generator: Adobe Illustrator 25.2.1, SVG Export Plug-In . SVG Version: 6.00 Build 0)  -->
<svg version="1.1" id="レイヤー_1" xmlns="http://www.w3.org/2000/svg" xmlns:xlink="http://www.w3.org/1999/xlink" x="0px"
	 y="0px" viewBox="0 0 1040 80" style="enable-background:new 0 0 1040 80;" xml:space="preserve">
<style type="text/css">
	.st0{fill:#1E1E28;}
</style>
<g>
	<g>
		<g>
			<path class="st0" d="M28.6602,67.541H19.54V50.9805c-1.7207,1.8408-3.501,3.5811-5.3398,5.2207l-3.2998-9.6006
				c6.1592-5.96,10.5195-11.4795,13.0801-16.5596H13.0596v-8.9404h6.4209v-8.1602h9.1191v8.1602h5.5801v7.9805
				c-1.3604,3.0801-2.9199,6.0596-4.6797,8.9395c1.6797,1.9199,3.7393,4.001,6.1797,6.2402V21.1611h10.8008v-8.2803H55.96v8.2803
				h11.3398v35.6992h-8.6396v-2.1592h-2.7598v12.6592h-9.3008V54.7012H43.96v2.1592h-8.2803V48.041l-2.9395,5.7002
				c-1.4805-1.4795-2.8408-2.9199-4.0801-4.3203V67.541z M46.7803,33.5205v-3.2393H43.96v3.2393H46.7803z M46.7803,45.5205v-3.4199
				H43.96v3.4199H46.7803z M58.6602,33.5205v-3.2393h-2.9404v3.2393H58.6602z M58.6602,45.5205v-3.4199h-2.9404v3.4199H58.6602z"/>
			<path class="st0" d="M79.2998,50.9805c-1.4004,2.7207-3.0801,5.4805-5.04,8.2803L70.96,48.6406
				c3.5195-4.8389,6.1201-9.0791,7.7998-12.7197h-6v-8.8203h6.54v-3.2998c-1.1201,0.1602-2.7803,0.3398-4.9795,0.54L71.5,15.8203
				c7.3594-0.5596,13.6201-1.6992,18.7803-3.4199l3.8994,7.8604c-1.6797,0.6807-3.6602,1.3008-5.9395,1.8604v4.9795h5.6396v8.8203
				h-5.6396v0.2998c1.3594,2.2402,2.959,4.54,4.7998,6.9004c0.8789-4.1602,1.5-8.3799,1.8604-12.6602l6.6592,2.7002
				c-0.7197,8.5195-2,15.7002-3.8398,21.54c1.4404-1.04,2.7998-2.2002,4.0801-3.4805V26.8604h9.1807v10.9805
				c2.6787-5.96,4.7998-13.7793,6.3594-23.46l8.8203,4.7402c-1.3203,5.8398-2.9404,11.2402-4.8604,16.1992l2.9404-1.9795
				c2.3594,5.04,4.1592,9.96,5.3994,14.7598l-5.5801,3.2998l1.8008,0.4805c0,6.6406-0.6104,10.8398-1.8301,12.5996
				c-1.2207,1.7598-3.9707,2.6406-8.25,2.6406h-6c-2.4004,0-4.1201-0.2607-5.1602-0.7803c-1.2002-0.5996-2.001-1.7002-2.4004-3.2998
				c-1.7607,1.3594-3.6396,2.6191-5.6396,3.7793l-6.7197-7.3799c2.8389-1.3994,5.3594-2.8994,7.5596-4.5l-5.7002-4.1396
				l-1.0195,2.4004c-0.8008-1.0801-1.6201-2.2207-2.46-3.4199v17.6992h-8.9404V50.9805z M116.5,18.2812l-4.8604,8.3994
				c-4.7607-2.3994-9.8203-4.3594-15.1797-5.8799l5.2803-8.0996C106.5791,13.9414,111.499,15.8008,116.5,18.2812z M118.1201,42.5811
				c-2.1602,4.3604-4.54,8.2197-7.1396,11.5801v1.6797c0,0.6807,0.0986,1.1201,0.2998,1.3203
				c0.1992,0.2002,0.5996,0.2998,1.2002,0.2998h1.6797c1.3994,0,2.2197-0.3994,2.46-1.2002
				c0.1592-0.5195,0.2402-2.8203,0.2402-6.9004l3.7793,1.0801C119.8799,47.4814,119.04,44.8604,118.1201,42.5811z"/>
			<path class="st0" d="M175.5996,46.6006l-7.9795,4.2598c-1.4404-2.7988-2.5205-4.8193-3.2402-6.0596
				c-1.2002-1.959-2.5195-3.9004-3.96-5.8203l3-1.5l-3.9004-2.04v27.6602h-15.5996v3.6602h-10.0195V21.1006h6.8398
				c0.96-2.8398,1.7598-5.6787,2.3994-8.5195l10.1406,1.2598c-0.8398,2.8799-1.5811,5.3008-2.2207,7.2598h8.46v6.6602
				c2-4.3994,3.6602-9.4395,4.9805-15.1201l9.7803,1.4404c-0.7207,2.8408-1.3604,5.1396-1.9199,6.8994h14.2197v18.96
				c0,8.6807-0.2012,14.541-0.5996,17.5801c-0.5205,3.8398-1.6611,6.3799-3.4209,7.6201c-1.5596,1.1191-4.4004,1.6797-8.5195,1.6797
				h-4.2598l-3.0605-9.7793h4.7402c1.8398,0,3.0596-0.2793,3.6602-0.8398c0.7197-0.7207,1.1797-2.3799,1.3799-4.9805
				c0.1592-2,0.2402-6.2793,0.2402-12.8398v-7.7402h-7.9199c-0.8008,1.8408-1.6406,3.6406-2.5205,5.4004l1.9199-0.96
				C170.5801,38.1611,173.04,42.001,175.5996,46.6006z M149.7402,37.1807v-6.7197h-5.8203v6.7197H149.7402z M149.7402,53.4404
				v-7.0801h-5.8203v7.0801H149.7402z"/>
			<path class="st0" d="M222.5801,31.3604c-1.7207,0.0811-4.7998,0.1807-9.2402,0.3008c-2.9609,8.8799-6.46,18.0996-10.5,27.6592
				l-10.3203-4.2598c3.7207-7.3193,6.9395-15.0195,9.6602-23.0996l-6,0.1201l-0.3594-10.2607c2.04,0,5.2197-0.0391,9.54-0.1191
				c0.7998-2.96,1.5-5.7002,2.0996-8.2207l10.9199,1.2607c-0.7197,2.7998-1.3203,5-1.7998,6.5996
				c1.4795-0.0801,3.3994-0.1797,5.7598-0.2998L222.5801,31.3604z M246.8203,48.8809l-3,10.2598
				c-1.4404-0.8789-3.4805-2.04-6.1201-3.4795l-0.2998,9.2998c-3.1201,0.5596-6.6006,0.8398-10.4404,0.8398
				c-11.9609,0-17.9404-4.2598-17.9404-12.7803c0-3.3994,1.21-6.1689,3.6309-8.3096c2.4189-2.1396,5.79-3.21,10.1094-3.21
				c1.6807,0,3.2793,0.1201,4.7998,0.3594l0.3604-10.9795c-0.9209-0.1592-2.2598-0.3799-4.0195-0.6602l1.9199-9.5996
				c6.999,0.7197,13.9395,2.1396,20.8193,4.2598L244,34.6611c-1-0.2793-2.8203-0.7598-5.46-1.4404l-0.4199,11.4004
				C240.7598,45.7012,243.6602,47.1211,246.8203,48.8809z M227.2002,51.1006c-1.7207-0.4395-3.2207-0.6602-4.5-0.6602
				c-2.6006,0-3.9004,0.9814-3.9004,2.9404c0,1.8809,1.6592,2.8203,4.9805,2.8203c1.5195,0,2.5996-0.0605,3.2393-0.1807
				L227.2002,51.1006z"/>
			<path class="st0" d="M303.46,64.7812h-11.7598l-3.0605-9.4209h-17.5801l-2.8193,9.4209h-11.6406L272.5,15.3408h14.2197
				L303.46,64.7812z M285.7002,45.8203l-6-18.96l-5.8203,18.96H285.7002z"/>
			<path class="st0" d="M362.4404,64.7812h-12.4209L343.96,50.9209c-1.3604-3.1592-4.1201-4.7402-8.2803-4.7402h-4.3799v18.6006
				H319.96V15.3408h23.4004c4.4795,0,8.1992,1.1396,11.1592,3.4199c3.3994,2.6807,5.1006,6.5205,5.1006,11.5205
				c0,6.3594-2.9805,10.7598-8.9404,13.1992c2.1602,1.2402,3.8604,3.2607,5.1006,6.0605L362.4404,64.7812z M348.04,30.8203
				c0-1.3994-0.4404-2.5996-1.3203-3.5996c-1.0801-1.2002-2.6797-1.7998-4.7998-1.7998h-10.6201v11.2197h10.6201
				c2.1201,0,3.7197-0.6797,4.7998-2.04C347.5996,33.5205,348.04,32.2607,348.04,30.8203z"/>
			<path class="st0" d="M391,39.041l-10.4404,2.7002c-1.9199-7.8799-4.1201-15-6.5996-21.3604l10.2002-2.7598
				C386.7598,23.8213,389.04,30.9609,391,39.041z M425.7998,19.8408c-4.1602,18.4404-12.46,33.7803-24.8994,46.0195l-10.5-6.2998
				c6.7988-6.1592,11.8994-12.2188,15.2998-18.1797c3.7998-6.5596,6.4795-14.54,8.04-23.9404L425.7998,19.8408z M407.0195,36.8203
				l-10.3799,2.5801c-1.6797-7.8789-3.7197-15.0391-6.1201-21.4795l10.3809-2.5801
				C403.54,22.1016,405.5801,29.2607,407.0195,36.8203z"/>
			<path class="st0" d="M485.5596,17.3203c-3.4404,11.2412-8.3203,21.4004-14.6396,30.4805l-9.6602-4.5
				c-2.5605,8.5605-6.3594,16.1602-11.3994,22.7998l-11.1006-4.9795c3.9199-4.5605,6.8604-8.9004,8.8203-13.0205
				c2.1992-4.5996,3.6992-9.9395,4.5-16.0195l11.5195,1.1396c-0.4004,2.4805-0.9805,5.1211-1.7393,7.9199
				c3.4395-4.2793,6.1992-8.7598,8.2793-13.4395H436.54V17.3203H485.5596z"/>
			<path class="st0" d="M544.1201,44.3203h-48.2402V32.9209h48.2402V44.3203z"/>
			<path class="st0" d="M603.2803,27.7012c-1.6807,0.04-3.5811,0.2002-5.7002,0.4795c-4.0801,2.04-7.9004,4.4805-11.46,7.3203
				c-5.0801,4.04-7.6201,7.5801-7.6201,10.6201c0,4.2803,6.5791,7.04,19.7402,8.2793l-2.2803,11.04
				c-19.3604-1.6406-29.04-7.6592-29.04-18.0596c0-5.9199,3.8594-12.2598,11.5801-19.0205l-22.9199,0.6602l-0.2402-10.6201
				l47.7598-0.8994L603.2803,27.7012z M600.2803,40.7812l-6.1807,1.4395c-1.04-3.0391-2.2197-5.8994-3.54-8.5801l6-1.4395
				C597.96,34.7607,599.2002,37.6211,600.2803,40.7812z M608.3203,38.9209l-6.3008,1.5c-0.96-2.8799-2.2002-5.7598-3.7197-8.6396
				l6.1201-1.3809C605.9395,32.8408,607.2402,35.6807,608.3203,38.9209z"/>
			<path class="st0" d="M659.7998,48.5205c0,5.6406-1.7998,9.9004-5.3994,12.7803c-3.2803,2.6797-7.8213,4.0195-13.6201,4.0195
				c-4.8809,0-8.8408-0.7598-11.8799-2.2793c-3.6807-1.8398-6.5605-4.9805-8.6406-9.4199l10.5605-4.6807
				c2.1992,4.5605,5.2793,6.8408,9.2393,6.8408c3.1201,0,5.4199-0.7803,6.9004-2.3408c1.1602-1.2393,1.7402-2.7598,1.7402-4.5596
				c0-4.04-2.2803-6.0605-6.8398-6.0605c-4.4014,0-7.5205,1.3809-9.3604,4.1406l-10.6797-0.6006l2.5195-30.1797H658v9.6602h-23.8203
				l-0.8994,10.7402c2.8398-2.04,6.7197-3.0605,11.6396-3.0605c4.3594,0,7.9297,1.3203,10.71,3.96
				C658.4102,40.1211,659.7998,43.8018,659.7998,48.5205z"/>
			<path class="st0" d="M727.6602,45.1611h-40.0801v1.6201h38.7598v11.3398c0,4.1602-0.6504,6.8291-1.9502,8.0098
				c-1.2998,1.1797-4.0498,1.7695-8.25,1.7695h-4.0801l-1.3193-3.4199h-26.7598v2.2207h-10.3203V54.1006h10.3203v2.6406h4.2598
				v-3.9004h-11.46v-36h15.0596c0.5596-1.3203,1.1406-2.9404,1.7402-4.8604l10.6201,1.1406
				c-0.2012,0.6396-0.6211,1.8799-1.2598,3.7197h18.8994v20.2197h-34.2598v1.5605h40.0801V45.1611z M711.2803,25.2412V23.501
				h-23.7002v1.7402H711.2803z M711.2803,31.9004v-1.7393h-23.7002v1.7393H711.2803z M712.9004,59.5605h0.2393
				c1.2803,0,2.0703-0.1201,2.3701-0.3594c0.2998-0.2402,0.4502-0.9805,0.4502-2.2207v-4.1396h-17.0996v3.9004h4.1992v-2.6406
				h9.8408V59.5605z"/>
			<path class="st0" d="M742.4805,62.8008c-2.5205,2.0791-5.1211,3.999-7.8008,5.7598l-2.9395-11.1602
				c2.5996-1.4395,4.959-2.9395,7.0801-4.5v-9.2998h-6v-9.8398h14.0996l-0.2402-0.54c4.04-7.5996,6.96-14.2803,8.7607-20.04
				l8.7598,3.0605c-2.001,5.8398-4.6006,11.5195-7.7998,17.04c2.3994,5.2402,4.8389,11.7598,7.3193,19.5596l-9,3.3604
				c-1.2803-4.2402-3.2998-10.3203-6.0596-18.2402v15.7803c0.5195,2.3604,3.0391,3.54,7.5596,3.54h31.8604l-2.3398,9.2393h-31.4404
				C748.7393,66.5205,744.7998,65.2803,742.4805,62.8008z M749.9805,22.6006l-7.5,7.3203
				c-2.8408-3.6006-5.9805-6.8398-9.4209-9.7197l7.2002-7.1406C743.6201,15.541,746.8604,18.7217,749.9805,22.6006z
				 M775.2998,16.6006c-1.96,5.5605-4.5205,11.1006-7.6797,16.6201c2.5596,5.6006,4.9795,11.8799,7.2598,18.8398l-7.8604,3.4199
				c-2-6.0791-3.3203-10.0195-3.96-11.8193c-1.4395-4-2.8799-7.5-4.3193-10.5c3.4795-5.8398,6.4199-12.3799,8.8193-19.6201
				L775.2998,16.6006z M788.6201,16.4209c-1.7998,4.7607-4.5605,10.3604-8.2803,16.7998
				c2.7197,5.4004,5.4795,11.7598,8.2803,19.0801l-9.6006,3.7803c-3.2393-9.5195-6.2393-17.1396-9-22.8604
				c3.0801-5.1602,6.1406-11.8398,9.1807-20.04L788.6201,16.4209z"/>
			<path class="st0" d="M822.7002,43.9004c-2.04,2.2803-4.3799,4.2402-7.0205,5.8809c-2.8398,1.7998-5.2598,2.6992-7.2598,2.6992
				c-7.0801,0-10.6201-4.5596-10.6201-13.6797c0-7.5195,1.1191-15.2793,3.3604-23.2803l11.3994,1.4404
				c-2.5596,9.4795-3.8398,16.0605-3.8398,19.7402c0,2.3994,0.5195,3.5996,1.5605,3.5996c1.3193,0,3.6797-1.9199,7.0801-5.7598
				L822.7002,43.9004z M841.8398,15.5811c-0.4004,18.5605-3.5996,35.4199-9.5996,50.5801l-11.8799-2.7607
				c3.5186-7.2793,6.0596-14.7393,7.6201-22.3799c1.4785-7.3994,2.2793-16.1592,2.3994-26.2793L841.8398,15.5811z"/>
			<path class="st0" d="M904.9004,41.2012c-3.6406,0.8398-7.3408,1.9199-11.1006,3.2393c0.2402,1.8408,0.3799,4.8008,0.4199,8.8799
				h-10.0195c0-0.8789,0-2.4795,0-4.7998c-3.1602,1.7607-4.7402,3.3408-4.7402,4.7402c0,1.8408,2.9189,2.7598,8.7598,2.7598
				c3.7998,0,8.1797-0.2998,13.1406-0.8994l0.6592,10.1396c-4.3193,0.4395-8.6396,0.6602-12.96,0.6602
				c-13.4795,0-20.2197-3.9795-20.2197-11.9404c0-5.3594,4.1406-10.2793,12.4199-14.7598
				c-0.5205-0.3193-1.1006-0.4795-1.7402-0.4795c-2.2793,0-4.6191,0.8994-7.0195,2.6992c-2.1211,1.5605-4,3.5605-5.6396,6
				c-2.3203,3.4414-3.9814,6.041-4.9805,7.8008l-8.2803-6.6602c4.6396-6.2002,8.5996-12.7207,11.8809-19.5605l-8.8809,0.2402
				l-0.1797-10.1396c4.2793,0.1201,8.6602,0.1602,13.1396,0.1201c0.6006-1.7598,1.2002-3.6797,1.8008-5.7607l11.0996,1.1406
				c-0.4795,1.5205-0.9805,2.9805-1.5,4.3799c5.1201-0.1592,11.1797-0.46,18.1797-0.9004l0.1201,9.96
				c-7.5205,0.2803-15.04,0.5205-22.5596,0.7207c-0.5205,1-1.2402,2.2793-2.1602,3.8398c2.5195-1.1602,5.1602-1.7402,7.9199-1.7402
				c3.6396,0,6.4199,1.3799,8.3398,4.1396c3.7998-1.3994,7.6396-2.5801,11.5205-3.54L904.9004,41.2012z"/>
			<path class="st0" d="M928.1797,67.3604h-10.0195V43.6611c-0.96,1.4004-2.0801,2.96-3.3604,4.6797l-4.4395-9.96
				c4.7598-7.0801,8.46-15.7803,11.0996-26.0996l9.5996,1.5596c-0.8398,3.5605-1.7998,6.9404-2.8799,10.1396v25.1406
				c4.8799-6.0801,8.8398-12.2793,11.8799-18.6006h-10.2598v-9.8398h13.1406v-7.6201h9.96v7.6201h14.3994v9.8398h-11.5801
				c3.2002,6.5205,7.7002,13.3008,13.5,20.3398l-6.1797,7.9209c-1.6797-2.2002-3.1602-4.2197-4.4404-6.0605v6.3604h-5.7598v7.9795
				h-9.8994v-7.9795h-5.7607v-6.1807c-1.2803,1.8408-2.7207,3.8008-4.3193,5.8809l-4.6807-5.8809V67.3604z M943.4199,42.4609
				c-1.4004,2.7598-2.9395,5.4209-4.6201,7.9795h4.6201V42.4609z M952.4199,42.5205v7.9199h4.6797
				C955.3398,47.7207,953.7793,45.0811,952.4199,42.5205z"/>
			<path class="st0" d="M978.7002,49.6006v0.0605l2.8799-0.7207c0.5996,5.0811,0.999,9.8809,1.2002,14.4004l-4.1406,0.9004
				l-0.4795-9.9004c-0.5605,4.2803-1.1807,7.9795-1.8604,11.0996l-5.5801-2.7598c1-3.9199,1.9199-8.7988,2.7607-14.6396
				L978.7002,49.6006z M986.5596,62.3203l-2.46,0.4805c-0.4404-5.3594-0.8994-9.8193-1.3799-13.3799l3.54-0.9004
				c0.4395,2.5605,0.9004,6.041,1.3799,10.4404h2.3408c0.4795,0,0.8193-0.0605,1.0195-0.1797
				c0.3994-0.2402,0.5996-0.8799,0.5996-1.9209l-3,0.7803c-0.2803-2.5996-0.7002-5.4395-1.2598-8.5195l3.1201-0.8398
				c0.3604,1.9199,0.7393,4.4395,1.1396,7.5596v-8.2803h-17.6992V13.7812h25.5v8.5195h-5.8203v2.04h4.9795v0.96
				c3.9199-3.4805,7.1602-7.5801,9.7207-12.2998h9.54c2.8398,4.5596,6.7998,8.7803,11.8799,12.6602l-3.3604,7.3799h0.1201v17.2197
				h-7.5596c1.999,3.4805,5.4189,6.6807,10.2598,9.5996l-4.4404,8.2207c-4.7607-2.4805-8.46-5.8594-11.0996-10.1406
				c-2.6006,4.1611-6.2012,7.5605-10.7998,10.2002l-3.9004-6c-0.2803,2.1201-0.9004,3.5596-1.8604,4.3203
				c-0.7998,0.5996-2.1592,0.8994-4.0791,0.8994h-5.3408L986.5596,62.3203z M985.8398,24.4004v-2.0996h-3.2402v2.0996H985.8398z
				 M985.8398,32.0205v-1.8594h-3.2402v1.8594H985.8398z M985.8398,39.8809v-2.0996h-3.2402v2.0996H985.8398z M998.5596,29.0811
				v1.0195h-4.9795v1.9805h4.9795v5.7598h-4.9795v2.04h5.5801v17.5801c0,0.3594-0.0205,1.0605-0.0605,2.0996
				c4.2803-2.4395,7.3398-5.5391,9.1807-9.2998h-7.6201V33.1006L998.5596,29.0811z M1009.8398,33.041v-1.8604h-2.7598v-2.3994
				c-1.2803,1.5205-2.5801,2.9395-3.9004,4.2598H1009.8398z M1009.8398,40.0605h-2.3994v3.1201h2.3994V40.0605z M1010.6201,24.2812
				h5.3398c-1.2402-1.5605-2.1807-2.8594-2.8203-3.9004C1012.5,21.541,1011.6602,22.8408,1010.6201,24.2812z M1020.0996,31.1807
				h-2.7598v1.8604h6.8398c-1.3604-1.2002-2.7207-2.5205-4.0801-3.96V31.1807z M1019.7402,43.1807v-3.1201h-2.4004v3.1201H1019.7402
				z"/>
		</g>
	</g>
</g>
</svg>
