<?xml version="1.0" encoding="utf-8"?>
<!-- Generator: Adobe Illustrator 25.2.1, SVG Export Plug-In . SVG Version: 6.00 Build 0)  -->
<svg version="1.1" id="レイヤー_1" xmlns="http://www.w3.org/2000/svg" xmlns:xlink="http://www.w3.org/1999/xlink" x="0px"
	 y="0px" viewBox="0 0 1040 80" style="enable-background:new 0 0 1040 80;" xml:space="preserve">
<style type="text/css">
	.st0{fill:#1E1E28;}
</style>
<g>
	<g>
		<g>
			<path class="st0" d="M28.6602,67.541H19.54V50.9805c-1.7207,1.8408-3.501,3.5811-5.3398,5.2207l-3.2998-9.6006
				c6.1592-5.96,10.5195-11.4795,13.0801-16.5596H13.0596v-8.9404h6.4209v-8.1602h9.1191v8.1602h5.5801v7.9805
				c-1.3604,3.0801-2.9199,6.0596-4.6797,8.9395c1.6797,1.9199,3.7393,4.001,6.1797,6.2402V21.1611h10.8008v-8.2803H55.96v8.2803
				h11.3398v35.6992h-8.6396v-2.1592h-2.7598v12.6592h-9.3008V54.7012H43.96v2.1592h-8.2803V48.041l-2.9395,5.7002
				c-1.4805-1.4795-2.8408-2.9199-4.0801-4.3203V67.541z M46.7803,33.5205v-3.2393H43.96v3.2393H46.7803z M46.7803,45.5205v-3.4199
				H43.96v3.4199H46.7803z M58.6602,33.5205v-3.2393h-2.9404v3.2393H58.6602z M58.6602,45.5205v-3.4199h-2.9404v3.4199H58.6602z"/>
			<path class="st0" d="M79.2998,50.9805c-1.4004,2.7207-3.0801,5.4805-5.04,8.2803L70.96,48.6406
				c3.5195-4.8389,6.1201-9.0791,7.7998-12.7197h-6v-8.8203h6.54v-3.2998c-1.1201,0.1602-2.7803,0.3398-4.9795,0.54L71.5,15.8203
				c7.3594-0.5596,13.6201-1.6992,18.7803-3.4199l3.8994,7.8604c-1.6797,0.6807-3.6602,1.3008-5.9395,1.8604v4.9795h5.6396v8.8203
				h-5.6396v0.2998c1.3594,2.2402,2.959,4.54,4.7998,6.9004c0.8789-4.1602,1.5-8.3799,1.8604-12.6602l6.6592,2.7002
				c-0.7197,8.5195-2,15.7002-3.8398,21.54c1.4404-1.04,2.7998-2.2002,4.0801-3.4805V26.8604h9.1807v10.9805
				c2.6787-5.96,4.7998-13.7793,6.3594-23.46l8.8203,4.7402c-1.3203,5.8398-2.9404,11.2402-4.8604,16.1992l2.9404-1.9795
				c2.3594,5.04,4.1592,9.96,5.3994,14.7598l-5.5801,3.2998l1.8008,0.4805c0,6.6406-0.6104,10.8398-1.8301,12.5996
				c-1.2207,1.7598-3.9707,2.6406-8.25,2.6406h-6c-2.4004,0-4.1201-0.2607-5.1602-0.7803c-1.2002-0.5996-2.001-1.7002-2.4004-3.2998
				c-1.7607,1.3594-3.6396,2.6191-5.6396,3.7793l-6.7197-7.3799c2.8389-1.3994,5.3594-2.8994,7.5596-4.5l-5.7002-4.1396
				l-1.0195,2.4004c-0.8008-1.0801-1.6201-2.2207-2.46-3.4199v17.6992h-8.9404V50.9805z M116.5,18.2812l-4.8604,8.3994
				c-4.7607-2.3994-9.8203-4.3594-15.1797-5.8799l5.2803-8.0996C106.5791,13.9414,111.499,15.8008,116.5,18.2812z M118.1201,42.5811
				c-2.1602,4.3604-4.54,8.2197-7.1396,11.5801v1.6797c0,0.6807,0.0986,1.1201,0.2998,1.3203
				c0.1992,0.2002,0.5996,0.2998,1.2002,0.2998h1.6797c1.3994,0,2.2197-0.3994,2.46-1.2002
				c0.1592-0.5195,0.2402-2.8203,0.2402-6.9004l3.7793,1.0801C119.8799,47.4814,119.04,44.8604,118.1201,42.5811z"/>
			<path class="st0" d="M175.5996,46.6006l-7.9795,4.2598c-1.4404-2.7988-2.5205-4.8193-3.2402-6.0596
				c-1.2002-1.959-2.5195-3.9004-3.96-5.8203l3-1.5l-3.9004-2.04v27.6602h-15.5996v3.6602h-10.0195V21.1006h6.8398
				c0.96-2.8398,1.7598-5.6787,2.3994-8.5195l10.1406,1.2598c-0.8398,2.8799-1.5811,5.3008-2.2207,7.2598h8.46v6.6602
				c2-4.3994,3.6602-9.4395,4.9805-15.1201l9.7803,1.4404c-0.7207,2.8408-1.3604,5.1396-1.9199,6.8994h14.2197v18.96
				c0,8.6807-0.2012,14.541-0.5996,17.5801c-0.5205,3.8398-1.6611,6.3799-3.4209,7.6201c-1.5596,1.1191-4.4004,1.6797-8.5195,1.6797
				h-4.2598l-3.0605-9.7793h4.7402c1.8398,0,3.0596-0.2793,3.6602-0.8398c0.7197-0.7207,1.1797-2.3799,1.3799-4.9805
				c0.1592-2,0.2402-6.2793,0.2402-12.8398v-7.7402h-7.9199c-0.8008,1.8408-1.6406,3.6406-2.5205,5.4004l1.9199-0.96
				C170.5801,38.1611,173.04,42.001,175.5996,46.6006z M149.7402,37.1807v-6.7197h-5.8203v6.7197H149.7402z M149.7402,53.4404
				v-7.0801h-5.8203v7.0801H149.7402z"/>
			<path class="st0" d="M225.5195,30.4609c-3.2803,0.5996-6.8799,1.1006-10.7998,1.5c-3.5996,10.5596-7.7002,20.5-12.2998,29.8203
				l-9.7197-5.4609c4.6396-8.0791,8.3398-15.9795,11.0996-23.6992c-2.3604,0.04-4.96-0.04-7.7998-0.2402l-0.7803-10.2598
				c4.0801,0.4004,7.9805,0.5801,11.7002,0.54c0.7998-3,1.5195-6.0801,2.1602-9.2402l10.9795,0.96
				c-0.7598,2.7598-1.46,5.2402-2.0996,7.4395c2.3594-0.3594,4.6592-0.7988,6.9004-1.3193l0.54,7.8594l5.6396-8.04
				c6.0391,1.8008,11.6396,4.4014,16.7998,7.8008l-5.7002,8.3398c-5.1592-3.4395-10.7393-6.0391-16.7393-7.7998L225.5195,30.4609z
				 M247.7803,54.8203l-5.6406,9.4209c-2.04-1.6807-4.2998-3.3008-6.7793-4.8604c-1.001,5.04-5.04,7.5596-12.1201,7.5596
				c-3.7607,0-6.9004-0.6807-9.4199-2.04c-3.4414-1.8398-5.1602-4.7393-5.1602-8.6992c0-3.7998,1.5195-6.6797,4.5596-8.6406
				c2.4395-1.5996,5.3604-2.3994,8.7607-2.3994c0.96,0,2.1191,0.0996,3.4795,0.2998c-0.04-4-0.0596-7.8203-0.0596-11.46h10.2598
				l0.0596,14.2803C239.7998,49.9219,243.8203,52.1016,247.7803,54.8203z M225.5195,54.3408
				c-1.4795-0.4805-2.7402-0.7197-3.7793-0.7197c-2.04,0-3.0605,0.7598-3.0605,2.2793c0,1.4014,1.0205,2.1006,3.0605,2.1006
				c1.4395,0,2.4199-0.2705,2.9395-0.8105S225.4795,55.7012,225.5195,54.3408z"/>
			<path class="st0" d="M303.46,64.7812h-11.7598l-3.0605-9.4209h-17.5801l-2.8193,9.4209h-11.6406L272.5,15.3408h14.2197
				L303.46,64.7812z M285.7002,45.8203l-6-18.96l-5.8203,18.96H285.7002z"/>
			<path class="st0" d="M362.4404,64.7812h-12.4209L343.96,50.9209c-1.3604-3.1592-4.1201-4.7402-8.2803-4.7402h-4.3799v18.6006
				H319.96V15.3408h23.4004c4.4795,0,8.1992,1.1396,11.1592,3.4199c3.3994,2.6807,5.1006,6.5205,5.1006,11.5205
				c0,6.3594-2.9805,10.7598-8.9404,13.1992c2.1602,1.2402,3.8604,3.2607,5.1006,6.0605L362.4404,64.7812z M348.04,30.8203
				c0-1.3994-0.4404-2.5996-1.3203-3.5996c-1.0801-1.2002-2.6797-1.7998-4.7998-1.7998h-10.6201v11.2197h10.6201
				c2.1201,0,3.7197-0.6797,4.7998-2.04C347.5996,33.5205,348.04,32.2607,348.04,30.8203z"/>
			<path class="st0" d="M391.7803,37.7207l-10.2607,3.2402c-1.8799-6.7998-4.3594-12.7803-7.4395-17.9404l9.9004-3.2393
				C387.0596,24.7812,389.6592,30.7607,391.7803,37.7207z M425.5,20.3203c-0.8008,12.4414-4.1006,22.4209-9.9004,29.9404
				C410.04,57.501,401.8398,62.8398,391,66.2812l-7.2002-9.0605c10.8799-3.1992,18.5791-7.7793,23.1006-13.7402
				c4.2793-5.5996,6.7393-13.8789,7.3799-24.8398L425.5,20.3203z M407.0195,34.7812l-10.4395,2.6992
				c-1.5205-6.7588-3.7002-12.8398-6.54-18.2393l10.0801-2.7002C403,21.7812,405.2998,27.8613,407.0195,34.7812z"/>
			<path class="st0" d="M463.9004,41.9209c-1.041,11.3994-6.8408,19.6201-17.4004,24.6602l-8.1602-7.9805
				c5.7998-2.6396,9.7402-5.499,11.8203-8.5801c2.0791-3.0791,3.1201-7.5986,3.1201-13.5596v-5.8799h10.7998v4.6201
				c3.5596-3,6.2598-5.7197,8.0996-8.1602h-36.54V17.0205H486.04v9.3604c-4.9199,7.1602-10.8408,13.4395-17.7598,18.8398
				L463.9004,41.9209z"/>
			<path class="st0" d="M545.9805,44.4404h-51.9004v-11.04h51.9004V44.4404z"/>
			<path class="st0" d="M604.6602,27.5811c-0.4004,0-1.7402,0.0205-4.0205,0.0596c-6.5195,0.8398-11.7803,3.1602-15.7793,6.96
				c-3.4805,3.3213-5.2207,6.8809-5.2207,10.6807c0,3.0801,1.8008,5.4199,5.4004,7.0195c2.96,1.3203,7.4189,2.2197,13.3799,2.7002
				l-3.3604,10.9199c-8.0801-0.5605-14.3994-2.3398-18.96-5.3398c-5.1592-3.3604-7.7393-8.1006-7.7393-14.2207
				c0-6.96,2.959-12.8789,8.8799-17.7598c-4.6006,0.3213-12.2803,0.96-23.04,1.9199l-0.6006-10.7393
				c16.1602-1.1201,33.1396-2,50.9404-2.6406L604.6602,27.5811z M600.3398,40.8408l-5.6396,1.8604
				c-1.2812-3.0801-2.8203-5.8203-4.6201-8.2207l5.6396-1.8594C597.5996,35.1016,599.1396,37.8408,600.3398,40.8408z
				 M608.1396,38.6211L602.5,40.4805c-1.3203-3.1992-2.8604-5.959-4.6201-8.2793l5.6396-1.8604
				C605.3594,32.7412,606.8994,35.501,608.1396,38.6211z"/>
			<path class="st0" d="M659.7998,48.5205c0,5.6406-1.7998,9.9004-5.3994,12.7803c-3.2803,2.6797-7.8213,4.0195-13.6201,4.0195
				c-4.8809,0-8.8408-0.7598-11.8799-2.2793c-3.6807-1.8398-6.5605-4.9805-8.6406-9.4199l10.5605-4.6807
				c2.1992,4.5605,5.2793,6.8408,9.2393,6.8408c3.1201,0,5.4199-0.7803,6.9004-2.3408c1.1602-1.2393,1.7402-2.7598,1.7402-4.5596
				c0-4.04-2.2803-6.0605-6.8398-6.0605c-4.4014,0-7.5205,1.3809-9.3604,4.1406l-10.6797-0.6006l2.5195-30.1797H658v9.6602h-23.8203
				l-0.8994,10.7402c2.8398-2.04,6.7197-3.0605,11.6396-3.0605c4.3594,0,7.9297,1.3203,10.71,3.96
				C658.4102,40.1211,659.7998,43.8018,659.7998,48.5205z"/>
			<path class="st0" d="M727.6602,45.1611h-40.0801v1.6201h38.7598v11.3398c0,4.1602-0.6504,6.8291-1.9502,8.0098
				c-1.2998,1.1797-4.0498,1.7695-8.25,1.7695h-4.0801l-1.3193-3.4199h-26.7598v2.2207h-10.3203V54.1006h10.3203v2.6406h4.2598
				v-3.9004h-11.46v-36h15.0596c0.5596-1.3203,1.1406-2.9404,1.7402-4.8604l10.6201,1.1406
				c-0.2012,0.6396-0.6211,1.8799-1.2598,3.7197h18.8994v20.2197h-34.2598v1.5605h40.0801V45.1611z M711.2803,25.2412V23.501
				h-23.7002v1.7402H711.2803z M711.2803,31.9004v-1.7393h-23.7002v1.7393H711.2803z M712.9004,59.5605h0.2393
				c1.2803,0,2.0703-0.1201,2.3701-0.3594c0.2998-0.2402,0.4502-0.9805,0.4502-2.2207v-4.1396h-17.0996v3.9004h4.1992v-2.6406
				h9.8408V59.5605z"/>
			<path class="st0" d="M742.4805,62.8008c-2.5205,2.0791-5.1211,3.999-7.8008,5.7598l-2.9395-11.1602
				c2.5996-1.4395,4.959-2.9395,7.0801-4.5v-9.2998h-6v-9.8398h14.0996l-0.2402-0.54c4.04-7.5996,6.96-14.2803,8.7607-20.04
				l8.7598,3.0605c-2.001,5.8398-4.6006,11.5195-7.7998,17.04c2.3994,5.2402,4.8389,11.7598,7.3193,19.5596l-9,3.3604
				c-1.2803-4.2402-3.2998-10.3203-6.0596-18.2402v15.7803c0.5195,2.3604,3.0391,3.54,7.5596,3.54h31.8604l-2.3398,9.2393h-31.4404
				C748.7393,66.5205,744.7998,65.2803,742.4805,62.8008z M749.9805,22.6006l-7.5,7.3203
				c-2.8408-3.6006-5.9805-6.8398-9.4209-9.7197l7.2002-7.1406C743.6201,15.541,746.8604,18.7217,749.9805,22.6006z
				 M775.2998,16.6006c-1.96,5.5605-4.5205,11.1006-7.6797,16.6201c2.5596,5.6006,4.9795,11.8799,7.2598,18.8398l-7.8604,3.4199
				c-2-6.0791-3.3203-10.0195-3.96-11.8193c-1.4395-4-2.8799-7.5-4.3193-10.5c3.4795-5.8398,6.4199-12.3799,8.8193-19.6201
				L775.2998,16.6006z M788.6201,16.4209c-1.7998,4.7607-4.5605,10.3604-8.2803,16.7998
				c2.7197,5.4004,5.4795,11.7598,8.2803,19.0801l-9.6006,3.7803c-3.2393-9.5195-6.2393-17.1396-9-22.8604
				c3.0801-5.1602,6.1406-11.8398,9.1807-20.04L788.6201,16.4209z"/>
			<path class="st0" d="M818.3799,35.2012c-1.7998,3.04-2.9805,5.0801-3.54,6.1191c-1.1201,2.1211-2.2197,4.4805-3.2998,7.0801
				l0.1797,0.7803l-10.4395,1.4404c-0.7607-5.6797-1.1406-10.9199-1.1406-15.7207c0-5.4795,1.0801-12.3389,3.2402-20.5801
				L814,16.001c-2.3604,7.5596-3.54,13.8203-3.54,18.7803v1.1396c0.999-1.7598,2.0195-3.5,3.0596-5.2197L818.3799,35.2012z
				 M839.4404,37.4805c0,7.5605-1.4404,13.6201-4.3203,18.1807c-3.1602,5-8.541,9.0195-16.1396,12.0596l-8.04-8.3398
				c7.3594-2.7598,12.2588-5.9199,14.6992-9.4805c1.9199-2.8389,2.8799-7.1592,2.8799-12.96c0-4.8789-0.7793-12.1992-2.3398-21.96
				l10.9805-1.2598C838.6797,22.001,839.4404,29.9209,839.4404,37.4805z"/>
			<path class="st0" d="M906.46,39.9404c-4.4805,1.6006-8.7402,3.2803-12.7803,5.04v3.4805v6.0596h-9.4199V49.541
				c-4.1201,2.2793-6.1797,4.0605-6.1797,5.3398c0,1.0801,0.999,1.7402,3,1.9795c0.4795,0.0811,1.9199,0.1201,4.3203,0.1201
				c5.5586,0,11.499-0.5996,17.8193-1.7998l-0.54,10.2598c-6.4795,0.6396-12.4404,0.96-17.8799,0.96
				c-11.7998,0-17.7002-3.3594-17.7002-10.0801c0-5.1592,5.0605-10.5,15.1807-16.0195c-0.3604-0.2793-0.8203-0.4199-1.3799-0.4199
				c-1.9609,0-4.4209,0.9102-7.3809,2.7295c-2.96,1.8213-5.54,4.0107-7.7393,6.5703l-3,4.4404l-8.5801-6.1807
				c5.3193-5.7988,9.7197-11.7197,13.2002-17.7598c-3,0-5.9805-0.0791-8.9404-0.2402l-0.4795-9.5996
				c4.999,0.3604,9.7197,0.5205,14.1592,0.4795c1.0801-2.4385,2.0195-4.7393,2.8203-6.8994l10.4404,1.3203
				c-0.5205,1.2803-1.2812,2.9795-2.2803,5.0996c3.96-0.3193,8.5801-0.8799,13.8604-1.6797l0.4795,9.7793
				c-7.8398,0.8008-14.2607,1.3203-19.2598,1.5605c-0.8809,1.5596-1.7207,3.0205-2.5205,4.3799
				c2.9199-1.2393,5.5596-1.8604,7.9199-1.8604c3.6396,0,6.2793,1.2607,7.9199,3.7803c2.2803-1.04,5.3604-2.499,9.2402-4.3799
				L906.46,39.9404z"/>
			<path class="st0" d="M928.1797,67.3604h-10.0195V43.6611c-0.96,1.4004-2.0801,2.96-3.3604,4.6797l-4.4395-9.96
				c4.7598-7.0801,8.46-15.7803,11.0996-26.0996l9.5996,1.5596c-0.8398,3.5605-1.7998,6.9404-2.8799,10.1396v25.1406
				c4.8799-6.0801,8.8398-12.2793,11.8799-18.6006h-10.2598v-9.8398h13.1406v-7.6201h9.96v7.6201h14.3994v9.8398h-11.5801
				c3.2002,6.5205,7.7002,13.3008,13.5,20.3398l-6.1797,7.9209c-1.6797-2.2002-3.1602-4.2197-4.4404-6.0605v6.3604h-5.7598v7.9795
				h-9.8994v-7.9795h-5.7607v-6.1807c-1.2803,1.8408-2.7207,3.8008-4.3193,5.8809l-4.6807-5.8809V67.3604z M943.4199,42.4609
				c-1.4004,2.7598-2.9395,5.4209-4.6201,7.9795h4.6201V42.4609z M952.4199,42.5205v7.9199h4.6797
				C955.3398,47.7207,953.7793,45.0811,952.4199,42.5205z"/>
			<path class="st0" d="M978.7002,49.6006v0.0605l2.8799-0.7207c0.5996,5.0811,0.999,9.8809,1.2002,14.4004l-4.1406,0.9004
				l-0.4795-9.9004c-0.5605,4.2803-1.1807,7.9795-1.8604,11.0996l-5.5801-2.7598c1-3.9199,1.9199-8.7988,2.7607-14.6396
				L978.7002,49.6006z M986.5596,62.3203l-2.46,0.4805c-0.4404-5.3594-0.8994-9.8193-1.3799-13.3799l3.54-0.9004
				c0.4395,2.5605,0.9004,6.041,1.3799,10.4404h2.3408c0.4795,0,0.8193-0.0605,1.0195-0.1797
				c0.3994-0.2402,0.5996-0.8799,0.5996-1.9209l-3,0.7803c-0.2803-2.5996-0.7002-5.4395-1.2598-8.5195l3.1201-0.8398
				c0.3604,1.9199,0.7393,4.4395,1.1396,7.5596v-8.2803h-17.6992V13.7812h25.5v8.5195h-5.8203v2.04h4.9795v0.96
				c3.9199-3.4805,7.1602-7.5801,9.7207-12.2998h9.54c2.8398,4.5596,6.7998,8.7803,11.8799,12.6602l-3.3604,7.3799h0.1201v17.2197
				h-7.5596c1.999,3.4805,5.4189,6.6807,10.2598,9.5996l-4.4404,8.2207c-4.7607-2.4805-8.46-5.8594-11.0996-10.1406
				c-2.6006,4.1611-6.2012,7.5605-10.7998,10.2002l-3.9004-6c-0.2803,2.1201-0.9004,3.5596-1.8604,4.3203
				c-0.7998,0.5996-2.1592,0.8994-4.0791,0.8994h-5.3408L986.5596,62.3203z M985.8398,24.4004v-2.0996h-3.2402v2.0996H985.8398z
				 M985.8398,32.0205v-1.8594h-3.2402v1.8594H985.8398z M985.8398,39.8809v-2.0996h-3.2402v2.0996H985.8398z M998.5596,29.0811
				v1.0195h-4.9795v1.9805h4.9795v5.7598h-4.9795v2.04h5.5801v17.5801c0,0.3594-0.0205,1.0605-0.0605,2.0996
				c4.2803-2.4395,7.3398-5.5391,9.1807-9.2998h-7.6201V33.1006L998.5596,29.0811z M1009.8398,33.041v-1.8604h-2.7598v-2.3994
				c-1.2803,1.5205-2.5801,2.9395-3.9004,4.2598H1009.8398z M1009.8398,40.0605h-2.3994v3.1201h2.3994V40.0605z M1010.6201,24.2812
				h5.3398c-1.2402-1.5605-2.1807-2.8594-2.8203-3.9004C1012.5,21.541,1011.6602,22.8408,1010.6201,24.2812z M1020.0996,31.1807
				h-2.7598v1.8604h6.8398c-1.3604-1.2002-2.7207-2.5205-4.0801-3.96V31.1807z M1019.7402,43.1807v-3.1201h-2.4004v3.1201H1019.7402
				z"/>
		</g>
	</g>
</g>
</svg>
