<?xml version="1.0" encoding="utf-8"?>
<!-- Generator: Adobe Illustrator 25.2.1, SVG Export Plug-In . SVG Version: 6.00 Build 0)  -->
<svg version="1.1" id="レイヤー_1" xmlns="http://www.w3.org/2000/svg" xmlns:xlink="http://www.w3.org/1999/xlink" x="0px"
	 y="0px" viewBox="0 0 1040 80" style="enable-background:new 0 0 1040 80;" xml:space="preserve">
<style type="text/css">
	.st0{fill:#1E1E28;}
</style>
<g>
	<g>
		<g>
			<path class="st0" d="M26.3203,66.2207h-2.9404V43.1211c-2.7598,3.3203-5.7002,6.3594-8.8203,9.1201l-1.9795-2.2207
				c8.8398-7.6797,14.8799-15.5791,18.1201-23.7002H13.96v-2.7598h8.7002v-9.3594h2.9395v9.3594h8.3408v2.1602
				c-1.5605,4.1201-3.8203,8.2803-6.7803,12.4805c3.0791,3.6396,6.2998,6.9395,9.6602,9.8994l-1.9805,2.1602
				c-3.2002-3.0391-6.04-6-8.5195-8.8799V66.2207z M64.8398,55.4805H61.96v-4.0195h-9.1797v14.7598h-3V51.4609h-8.7002v4.0195
				h-2.8799V23.1406h11.5801v-8.9395h3v8.9395h12.0596V55.4805z M49.8398,35.6211v-9.6006h-8.7598v9.6006H49.8398z M49.8398,48.6406
				V38.3809h-8.7598v10.2598H49.8398z M61.96,35.6211v-9.6006h-9.2402v9.6006H61.96z M61.96,48.6406V38.3809h-9.2402v10.2598H61.96z
				"/>
			<path class="st0" d="M82.9004,38.8008c-2.1211,5.4805-4.8809,10.6797-8.2803,15.5996l-1.5-2.7598
				c4.4795-6.3594,7.7402-12.6797,9.7803-18.96v-1.0801h-9v-2.7598h9v-8.9404c-2.2412,0.4004-4.7803,0.7412-7.6201,1.0205
				l-1.2607-2.6396c6.5195-0.3994,12.4805-1.6201,17.8809-3.6602l1.6797,2.3398c-2.4404,0.9209-5.04,1.7002-7.7998,2.3398v9.54
				h7.9795v2.7598h-7.9795v2.2197c2.04,4.2412,4.4395,8.2012,7.2002,11.8809l-1.5605,2.3994
				c-2.001-2.8398-3.8799-6.0195-5.6396-9.54V66.041h-2.8799V38.8008z M122.4404,18.8809
				c-2.6406,14.04-7.8213,25.6201-15.54,34.7402v4.5c0,1.7197,0.2793,2.8193,0.8398,3.2998c0.4395,0.3604,1.459,0.54,3.0596,0.54
				h3.2402c2.4395,0,3.9395-0.5596,4.5-1.6797c0.4795-1,0.7197-3.7803,0.7197-8.3408l3.0605,0.8408
				c0,5.1201-0.4707,8.4102-1.4102,9.8691c-0.9404,1.46-3.0508,2.1904-6.3301,2.1904H109.96c-2.4805,0-4.1201-0.3896-4.9199-1.1699
				c-0.8008-0.7803-1.2002-2.4092-1.2002-4.8896v-1.8008c-3.04,3.041-6.4199,5.6807-10.1396,7.9199l-2.3398-2.0996
				c4.6797-2.5195,8.8389-5.7793,12.4795-9.7803V27.4004h3.0605v21.96c6.3594-8.3994,10.6191-19.0791,12.7793-32.04
				L122.4404,18.8809z M99.7002,33.5811c-0.9209,7.2803-2.6201,13.8203-5.1006,19.6201l-2.46-1.8604
				C94.6602,45.7412,96.2803,39.4609,97,32.501L99.7002,33.5811z M113.8604,22.1211l-2.04,2.3398
				c-3.9209-2.7197-7.9609-4.8994-12.1201-6.54l1.9199-2.3398C106.0996,17.4209,110.1797,19.6006,113.8604,22.1211z
				 M128.2598,49.1807L125.5,50.4404c-1.5596-5.6396-3.5801-10.5596-6.0596-14.7598l2.5791-1.3203
				C124.6602,39.0811,126.7393,44.0205,128.2598,49.1807z"/>
			<path class="st0" d="M155.7402,59.6807h-16.2598v4.6201h-3.0605V23.9805h6.96c1.1191-3.2393,2-6.5195,2.6396-9.8398
				l3.1201,0.4805c-0.7197,2.96-1.6201,6.0801-2.6992,9.3594h9.2998V59.6807z M152.7402,39.8809V26.8604h-13.2598v13.0205H152.7402z
				 M152.7402,56.8008V42.7012h-13.2598v14.0996H152.7402z M184.6602,38.501c0,8.3604-0.2607,14.2598-0.7803,17.7002
				c-0.5605,3.5996-1.5801,5.96-3.0596,7.0801c-1.2002,0.8398-3.3809,1.2598-6.54,1.2598h-4.8604l-0.96-2.9404h5.5205
				c2.3594,0,3.9795-0.3799,4.8594-1.1396c1.1191-1,1.8604-3.1201,2.2197-6.3604c0.3604-3.0391,0.54-8.3193,0.54-15.8398V26.3809
				h-16.8594c-1.4805,3.2402-3.3408,6.6406-5.5801,10.2002l-2.6406-1.3203c4.3203-6.6396,7.4795-13.6396,9.4805-21l3,0.5996
				c-1,3.1611-2.0205,6.041-3.0596,8.6406h18.7197V38.501z M174.0996,47.6211l-2.8193,1.0801
				c-2.001-4.4404-4.3203-8.5801-6.96-12.4199l2.6992-1.0801C169.459,38.8008,171.8203,42.9404,174.0996,47.6211z"/>
			<path class="st0" d="M212.0195,16.541c-0.4795,1.1602-1.1797,3.0596-2.0996,5.7002c8.3193-0.2002,17.04-0.3008,26.1602-0.3008v3
				c-9.3604,0-18.4404,0.1201-27.2402,0.3604c-3.8799,11.3203-7.0801,22.2803-9.5996,32.8799l-3.1201-0.7197
				c2.5996-10.5195,5.7393-21.2197,9.4199-32.1006c-3.2402,0.1201-6.1201,0.2402-8.6396,0.3604v-3
				c2.4395-0.1201,5.6787-0.2402,9.7197-0.3604c0.8398-2.3594,1.6592-4.5596,2.46-6.5996L212.0195,16.541z M245.3203,50.5605
				l-1.5,2.8203c-2.2412-1.6396-4.3799-3-6.4199-4.0801v0.7803c0,4.1201-1.001,7.46-3,10.0195
				c-2.4004,3.1201-6.0811,4.6807-11.04,4.6807c-3.7607,0-6.9404-0.9609-9.54-2.8809c-2.8008-2.04-4.2002-4.7393-4.2002-8.0996
				c0-3.3193,1.2695-6,3.8096-8.04s6.0498-3.0596,10.5303-3.0596c3.3994,0,6.8193,0.6201,10.2598,1.8594
				c-0.0801-3.7998-0.2998-7.2793-0.6602-10.4395c-3.6396,0-8.9004,0.0996-15.7793,0.2998v-2.8203
				c8.1602-0.2793,16.7188-0.4199,25.6797-0.4199v2.8799h-6.8398c0.3994,4.1611,0.6396,8.0801,0.7197,11.7598
				C239.8604,47.0205,242.5195,48.6016,245.3203,50.5605z M234.2803,47.8008c-3.6006-1.5596-7.041-2.3398-10.3203-2.3398
				c-3.5205,0-6.291,0.7705-8.3096,2.3096c-2.0205,1.541-3.0303,3.5312-3.0303,5.9707c0,2.5195,1.1191,4.5205,3.3604,6
				c1.999,1.3193,4.459,1.9795,7.3799,1.9795c3.8398,0,6.7197-1.2988,8.6396-3.9004c1.5195-2.0791,2.2803-4.6797,2.2803-7.7998
				V47.8008z"/>
			<path class="st0" d="M298.7803,61.8408h-3.8398l-5.1006-13.3799h-19.9795L265,61.8408h-3.7197l16.1396-43.4404h4.5
				L298.7803,61.8408z M288.7002,45.2207l-9.0605-23.7598l-8.5801,23.7598H288.7002z"/>
			<path class="st0" d="M357.8203,61.8408h-4.0801l-5.5801-14.6396c-1.5205-3.96-4.1406-5.9404-7.8604-5.9404h-11.5801v20.5801H325
				V18.4004h18.7197c3.7998,0,6.8193,0.8613,9.0605,2.5801c2.5596,1.9199,3.8398,4.7803,3.8398,8.5801
				c0,3.0811-0.9209,5.5801-2.7598,7.5c-1.6807,1.7607-3.9404,2.9404-6.7803,3.54c2.0791,1.0801,3.6191,2.9004,4.6201,5.46
				L357.8203,61.8408z M352.9004,29.6211c0-5.3193-3.1611-7.9805-9.4805-7.9805h-14.7002v16.3799H343c3,0,5.4004-0.75,7.2002-2.25
				S352.9004,32.2217,352.9004,29.6211z"/>
			<path class="st0" d="M385.4805,41.9209l-3.3008,0.7197c-0.9199-3.7998-2.9805-11.2998-6.1797-22.5l3.4199-0.7197
				C382.459,30.1406,384.4795,37.6406,385.4805,41.9209z M402.04,38.9805l-3.3604,0.6602
				c-2.0801-10.3594-3.6807-17.7197-4.7998-22.0801l3.4199-0.6602C398.8604,23.6211,400.4395,30.9814,402.04,38.9805z
				 M424.9004,24.1006c-8.6406,16.041-15.5811,29.501-20.8203,40.3799l-3.2998-1.1396
				c3.9189-8.1201,10.8994-21.6396,20.9395-40.5596L424.9004,24.1006z"/>
			<path class="st0" d="M483.9404,26.501c0,6.1201-6.9814,12.7002-20.9404,19.7402l-1.9199-2.6406
				c4.7998-2.2803,8.96-4.8193,12.4795-7.6201c4.3594-3.4395,6.54-6.459,6.54-9.0596c0-3.7998-3.2002-5.7002-9.5996-5.7002
				c-8.7598,0-19.7803,0.6602-33.0596,1.9805l-0.3008-3.4805c13.96-1.2393,25.2998-1.8604,34.0205-1.8604
				c3.8789,0,6.9395,0.7012,9.1797,2.1006C482.7402,21.4414,483.9404,23.6211,483.9404,26.501z M460.1201,31.8408
				c-3,9.5605-5.8008,20.3203-8.4004,32.2803l-3.4795-0.4805c2.0791-9.3594,4.9199-20.1602,8.5195-32.3994L460.1201,31.8408z"/>
			<path class="st0" d="M543.7002,38.9209c-20.5605,0-36.1201,0.3203-46.6807,0.96v-3.3604
				c13.8799-0.6387,29.4395-0.96,46.6807-0.96V38.9209z"/>
			<path class="st0" d="M602.3799,22.0605c-6.8398,0.2803-13.2598,2.7598-19.2598,7.4404
				c-6.3203,4.8398-9.4805,10.1396-9.4805,15.8994c0,9.4004,7.1797,14.2207,21.54,14.46l-0.2393,3.3604
				c-7.4014-0.1201-13.2002-1.46-17.4004-4.0195c-4.8809-2.96-7.3203-7.5-7.3203-13.6201c0-4.6807,1.9805-9.2402,5.9404-13.6807
				c3.8789-4.3193,8.7393-7.5596,14.5801-9.7197c-12,0.4805-22.8604,1.0605-32.5801,1.7402v-3.2998
				c5.9189-0.3994,13.8193-0.7998,23.7002-1.2002c9.5996-0.3604,16.4189-0.54,20.46-0.54L602.3799,22.0605z M597.9404,27.2812
				c-0.8408,2.7998-1.6406,5.9199-2.4004,9.3594l-2.4004-0.3594c0.8408-3.6396,1.6396-6.7803,2.4004-9.4209L597.9404,27.2812z
				 M604.54,27.2812c-0.8398,2.7998-1.6406,5.9199-2.4004,9.3594l-2.3994-0.3594c0.4795-2.1201,1.2598-5.2598,2.3398-9.4209
				L604.54,27.2812z"/>
			<path class="st0" d="M655.8398,48.4609c0,4.4395-1.54,7.8809-4.6201,10.3203c-2.8408,2.2002-6.5605,3.2998-11.1602,3.2998
				c-6,0-10.9795-1.7793-14.9395-5.3398l2.7002-2.4004c3.8398,3.04,7.8789,4.5596,12.1201,4.5596c3.7588,0,6.75-0.9297,8.9697-2.79
				c2.2197-1.8594,3.3301-4.4092,3.3301-7.6494c0-2.7197-0.9805-4.8994-2.9404-6.54c-1.96-1.6396-4.5801-2.46-7.8594-2.46
				c-2.1602,0-4.3008,0.4004-6.4209,1.2002c-2.3203,0.8398-4.0791,1.96-5.2793,3.3594l-3.2998-0.1797l2.5791-25.0801H654.04v3.2402
				h-21.8398l-1.8604,17.7002c3.5195-2.3193,7.3799-3.4805,11.5801-3.4805c4.04,0,7.3594,1.0801,9.96,3.2402
				C654.5195,41.7412,655.8398,44.7412,655.8398,48.4609z"/>
			<path class="st0" d="M727,43.4209h-45.2402v4.5h42.1201v7.0195c0,4.041-0.5205,6.8008-1.5596,8.2803
				c-1.2402,1.8799-3.7412,2.8203-7.5,2.8203h-4.0205l-1.0195-2.9404h4.7393c2.7998,0,4.5996-0.7197,5.4004-2.1602
				c0.5596-0.96,0.8398-3,0.8398-6.1201V50.501h-26.3398v8.2803h12.7197V52.541h3.0605v9h-31.1406v3.1201h-3.1191V52.541h3.1191
				v6.2402h12.1807V50.501h-12.6006v-30.54h15.0605c1.2002-2.1602,2.1396-4.3398,2.8193-6.54l3.0605,0.6602
				c-0.5996,1.7607-1.4609,3.7197-2.5801,5.8799h22.6201v16.5596h-37.8604v4.2002H727V43.4209z M716.5,26.9209V22.541h-34.7402
				v4.3799H716.5z M716.5,34.0605v-4.6797h-34.7402v4.6797H716.5z"/>
			<path class="st0" d="M743.9805,57.8809c-2.7207,2.5605-5.7812,5.1191-9.1807,7.6797l-1.2002-3.2402
				c4.1201-2.8799,7.2197-5.3594,9.3008-7.4395V39.2812h-8.8809v-3.0605h12v18.7197c0.8799,2.3613,2.1797,4.041,3.9004,5.04
				c1.5996,0.9209,3.8398,1.3799,6.7197,1.3799h30l-0.8398,3H756.46c-3.1602,0-5.7207-0.5-7.6797-1.5
				C746.8193,61.8613,745.2197,60.2012,743.9805,57.8809z M746.3799,24.3408l-2.46,1.9795c-2.7998-3.1592-5.6201-5.8389-8.46-8.0391
				l2.46-1.9805C740.7197,18.541,743.5391,21.2207,746.3799,24.3408z M761.5,16.3604c-2.3203,7.1211-5.04,13.4209-8.1602,18.9004
				c3.2402,7.1611,5.8994,14.2607,7.9805,21.2998l-3.0605,1.0205c-2.0801-7.5195-4.8398-15-8.2793-22.4404
				c3.1992-5.5195,6.0391-12.0791,8.5195-19.6797L761.5,16.3604z M772.8398,55.3604l-2.9395,0.96
				c-2.4404-7.5596-5.4004-14.6396-8.8809-21.2393c3.04-4.7598,6.0205-10.9805,8.9404-18.6602l2.8799,1.0195
				c-2.3604,6.1611-5.1807,12.0811-8.46,17.7607C768.0596,42.6406,770.8799,49.3604,772.8398,55.3604z M786.4004,56.3203l-3,1.0801
				c-3-7.5195-6.6006-14.9395-10.8008-22.2598c3.9199-6.2402,7.2197-12.7588,9.9004-19.5596l3,0.96
				c-2.4004,6.2002-5.5195,12.4199-9.3604,18.6602C780.0596,42.001,783.4795,49.041,786.4004,56.3203z"/>
			<path class="st0" d="M821.9805,43.8408c-4.5215,5.001-8.8408,7.5-12.9609,7.5c-2.7598,0-4.96-1.0205-6.5996-3.0596
				c-1.7607-2.2002-2.6396-5.2803-2.6396-9.2402c0-6.3203,1.1191-13.6396,3.3594-21.96l3.3604,0.6602
				c-2.2803,8.2793-3.4199,15.3398-3.4199,21.1797c0,2.9199,0.54,5.1699,1.6201,6.75s2.5596,2.3701,4.4395,2.3701
				c3.5596,0,7.2393-2.3193,11.04-6.96L821.9805,43.8408z M839.9199,16.9609c-0.0801,18.1602-3.5205,34.04-10.3203,47.6396
				l-3.3594-0.7803c6.7588-13.4785,10.1787-29.1191,10.2598-46.9199L839.9199,16.9609z"/>
			<path class="st0" d="M904.6602,31.9609c-9.5605,1.5596-17.7207,4.0605-24.4805,7.5c6,2.3604,11.5,5.7598,16.5,10.2002
				l-2.5195,2.04c-6.04-5.1201-11.7402-8.6602-17.1006-10.6201c-6.9199,3.8398-10.3799,7.8594-10.3799,12.0596
				c0,5.1211,5.6406,7.7012,16.9199,7.7402c5,0,10.2998-0.2998,15.9004-0.9004l0.1201,3.1201
				c-5.6396,0.5596-10.9805,0.8398-16.0205,0.8398c-13.5596,0-20.3398-3.54-20.3398-10.6201c0-4.5986,3.3203-9.0596,9.96-13.3799
				c-2.9199-0.7197-6-1.0801-9.2393-1.0801c-1.4014,0-2.6016,0.54-3.6006,1.6201l-2.46-1.7393
				c3.6797-4.04,7.7002-8.6797,12.0605-13.9209c-4.4805,0.0811-8.8008,0.2012-12.9609,0.3604v-3
				c3.2402-0.1201,8.3604-0.2402,15.3604-0.3604c2.6797-3.1992,4.5-5.4189,5.46-6.6592l3.2402,1.0801
				c-0.7197,0.8799-2.2402,2.6992-4.5605,5.46c7.3203-0.1201,13.8604-0.1807,19.6201-0.1807v2.9404
				c-3.7998,0-11.1592,0.1006-22.0801,0.2998c-1.8398,2.1602-5.0605,5.9609-9.6592,11.4004
				c3.9189-0.0801,7.9395,0.54,12.0596,1.8594c7.6797-4.2393,16.7793-7.2793,27.2998-9.1201L904.6602,31.9609z"/>
			<path class="st0" d="M923.7402,65.9805h-3.1201V34.4209c-1.96,3.8008-4.1396,7.3799-6.54,10.7402l-2.3398-1.9805
				c6.2793-8.7197,10.8193-18.4795,13.6201-29.2803l3,0.54c-1.2002,4.5205-2.7402,8.9609-4.6201,13.3203V65.9805z M945.1602,31.9609
				c-4.7207,10.1201-10.1807,18.5605-16.3799,25.3203l-2.1006-2.2207c6.7598-6.8789,12.6992-16.0996,17.8203-27.6602h-16.7998v-3
				h17.46V14.2607h2.9395v10.1396h17.7607v3h-17.1602c4.3594,9.7607,10.4395,18.9404,18.2402,27.54l-2.1602,2.2803
				c-6.6807-7.5195-12.2402-15.8789-16.6807-25.0801v19.7998h8.04v2.8799h-8.04v10.7402h-2.9395V54.8203h-7.9199v-2.8799h7.9199
				V31.9609z"/>
			<path class="st0" d="M978.2197,48.6406c-0.8008,6.1602-1.7197,11.1602-2.7598,15l-2.3398-0.8994
				c1.2393-4.1201,2.1797-9.04,2.8203-14.7607L978.2197,48.6406z M998.0801,18.6406h-9.2402v6.4805h7.5v2.5195h-7.5v6.0605h7.5
				v2.5195h-7.5v6.2998h8.2803v13.4404c0,4-0.3203,6.5996-0.96,7.7998c-0.7197,1.3203-2.2803,1.9805-4.6797,1.9805h-3.6006
				l-0.7803-2.8809h3.54c1.8398,0,2.9795-0.4795,3.4199-1.4395c0.3203-0.7598,0.4805-2.8398,0.4805-6.2402V45.1611H976V15.9404
				h22.0801V18.6406z M986.0801,25.1211v-6.4805h-7.2598v6.4805H986.0801z M986.0801,33.6406v-5.9395h-7.2598v5.9395H986.0801z
				 M986.0801,42.5205v-6.3594h-7.2598v6.3594H986.0801z M982.7197,60.9404l-2.0996,0.3604
				c-0.1201-4.2393-0.4805-8.3193-1.0801-12.2402l2.0996-0.3594C982.1592,52.7412,982.5195,56.8213,982.7197,60.9404z
				 M988.1201,59.0205l-2.04,0.3604c-0.4404-4.2002-1-7.8398-1.6797-10.9199l1.9199-0.3604
				C986.959,51.3408,987.5596,54.9814,988.1201,59.0205z M993.04,56.8008l-1.9199,0.4199c-0.4805-3.3994-1.1611-6.5596-2.04-9.4795
				l1.8604-0.4209C991.6992,50.0811,992.3994,53.2412,993.04,56.8008z M1028.5,30.5205l-2.0996,2.1602
				c-6-5.1191-10.7803-10.4395-14.3408-15.96c-3.7598,5.9609-8.3799,11.3203-13.8594,16.0801l-2.1006-2.04
				c5.7998-4.6396,10.5801-10.1592,14.3408-16.5596h3.2393C1017.1602,20.041,1022.0996,25.4805,1028.5,30.5205z M1019.7402,29.3203
				H1013.5v5.5801h10.8604v13.3809h-10.6201c2.3193,6.2393,6.999,11.54,14.04,15.8994l-1.9805,2.2803
				c-6.2803-3.9199-10.7998-8.8203-13.5596-14.7002c-1.1611,2.8799-3.041,5.7207-5.6406,8.5205
				c-2.3203,2.4805-4.7998,4.5391-7.4395,6.1797l-2.04-2.2197c3.1201-1.7598,5.8594-3.9805,8.2197-6.6602
				c2.7598-3.0801,4.4404-6.1807,5.04-9.2998h-10.2002V34.9004h10.4404v-5.5801h-6.0605v-2.5791h15.1807V29.3203z
				 M1010.6201,37.4805H1003v8.2207h7.6201V37.4805z M1021.6602,45.7012v-8.2207H1013.5v8.2207H1021.6602z"/>
		</g>
	</g>
</g>
</svg>
