<?xml version="1.0" encoding="utf-8"?>
<!-- Generator: Adobe Illustrator 25.2.1, SVG Export Plug-In . SVG Version: 6.00 Build 0)  -->
<svg version="1.1" id="レイヤー_1" xmlns="http://www.w3.org/2000/svg" xmlns:xlink="http://www.w3.org/1999/xlink" x="0px"
	 y="0px" viewBox="0 0 1040 80" style="enable-background:new 0 0 1040 80;" xml:space="preserve">
<style type="text/css">
	.st0{fill:#1E1E28;}
</style>
<g>
	<g>
		<g>
			<path class="st0" d="M28.96,67.7207H18.9404v-15.54c-1.4404,1.5205-3.0605,3.0605-4.8604,4.6201l-3.4805-10.8604
				c5.8809-5.7598,10-10.8789,12.3604-15.3594H12.9404v-9.9004h6v-7.9795H28.96v7.9795h5.2803v9
				c-1.2812,2.8408-2.7002,5.5605-4.2598,8.1602c1.6797,1.8398,3.5391,3.7002,5.5791,5.5801V20.8008h10.5605v-8.1602h10.5v8.1602
				h11.04V57.041h-9.4805v-1.7998h-1.6201V67.541H46.2402V55.2412h-1.6201v1.7998h-9.0605v-8.7002l-2.8799,5.8799
				c-1.1201-1.1592-2.3604-2.4795-3.7197-3.96V67.7207z M46.4199,33.1611V31.001h-1.7998v2.1602H46.4199z M46.4199,45.041v-2.2803
				h-1.7998v2.2803H46.4199z M58.1797,33.1611V31.001h-1.8594v2.1602H58.1797z M58.1797,45.041v-2.2803h-1.8594v2.2803H58.1797z"/>
			<path class="st0" d="M78.7598,52.8408c-1.2803,2.4004-2.8604,4.9199-4.7402,7.5596l-3.6592-11.8193
				c3.3994-4.5195,5.9189-8.46,7.5596-11.8203h-5.3398v-9.7803h6.1797v-2.46c-1,0.1201-2.54,0.2803-4.6201,0.4805l-3.0596-9.4805
				c7.6396-0.5996,14.0195-1.7188,19.1396-3.3594l4.2607,8.7598c-1.6006,0.6406-3.5205,1.2402-5.7607,1.7998v4.2598h4.7998v9.7803
				h-4.7998v0.0596c1.1201,1.8008,2.4795,3.7207,4.0801,5.7607c0.7998-3.9199,1.3594-7.9199,1.6807-12l6.7197,2.7598v-6.3604
				h10.0801c-4.9199-2.3193-10.0801-4.1992-15.4805-5.6396l5.7598-9c4.7598,1.0801,9.7207,2.8203,14.8809,5.2197
				c0.0391-0.1201,0.2393-1.3398,0.5996-3.6602l9.7803,5.2803c-1.3604,5.6807-2.9609,10.9404-4.8008,15.7803l2.7002-1.8604
				c2.2402,5.0801,3.9395,10.0605,5.1006,14.9404l-5.2803,3.1201l1.9795,0.54c0,6.8799-0.6396,11.2285-1.9199,13.0498
				c-1.2803,1.8193-4.1602,2.7295-8.6396,2.7295h-6.2402c-2.1201,0-3.6807-0.1602-4.6797-0.4795
				c-1.5596-0.5205-2.6201-1.5811-3.1797-3.1807c-1.4805,1.1201-3.1807,2.2207-5.1006,3.3008l-7.3193-8.2803
				c2.7598-1.3203,5.1797-2.7002,7.2598-4.1396l-4.6201-3.4199l-1.3203,3.1191c-0.8008-1.0801-1.4805-1.999-2.04-2.7598v16.0801
				h-9.96V52.8408z M101.2002,37.1807c-0.6807,6.3203-1.6807,11.7803-3,16.3799c1.0801-0.7998,2.0791-1.6396,3-2.5195V37.1807z
				 M111.3398,35.9805c1.9199-4.5986,3.5195-10.2598,4.7998-16.9795l-4.6201,8.0996l-0.1797-0.0596V35.9805z M118,43.9609
				c-2.001,3.8398-4.2207,7.3203-6.6602,10.4395v0.96c0,0.8809,0.3994,1.3203,1.2002,1.3203h1.6797
				c1.2803,0,2.0195-0.3604,2.2207-1.0801c0.1191-0.5195,0.1797-2.7393,0.1797-6.6602l3.0596,0.8408
				C119.1602,47.5811,118.5996,45.6406,118,43.9609z"/>
			<path class="st0" d="M175.8398,46.4209l-8.7002,4.9199c-1.5205-2.7598-2.6201-4.6797-3.2998-5.7598
				c-1.1602-1.8799-2.4404-3.7207-3.8398-5.5205v23.46h-15.2998v3.54h-11.2197V20.4404h6.7197
				c0.999-2.8799,1.7793-5.5996,2.3398-8.1592l11.2803,1.3799c-0.7607,2.6006-1.4609,4.8594-2.1006,6.7793H160v5.6406
				c1.5996-3.9199,3-8.5205,4.2002-13.7998l10.9199,1.5596c-0.4004,1.5596-0.9805,3.7803-1.7402,6.6602h13.5v19.6201
				c0,8.7598-0.2002,14.6201-0.5996,17.5801c-0.5205,3.8799-1.6602,6.459-3.4199,7.7393c-1.6006,1.1602-4.5205,1.7402-8.7607,1.7402
				h-4.3193l-3.3604-10.9199h4.6201c1.7598,0,2.8994-0.2598,3.4199-0.7803c0.6797-0.6797,1.0996-2.2588,1.2598-4.7393
				c0.1201-1.8008,0.1807-5.9404,0.1807-12.4209v-7.0195h-6.3008c-0.3594,0.8799-0.9395,2.2197-1.7393,4.0195l0.2998-0.1797
				C170.6396,38.2607,173.2002,42.0215,175.8398,46.4209z M149.0801,36.5811v-5.6406h-4.3799v5.6406H149.0801z M149.0801,52.7207
				v-5.9395h-4.3799v5.9395H149.0801z M160,39.5205l4.0801-2.2197L160,35.1406V39.5205z"/>
			<path class="st0" d="M225.7002,31.0605c-3.7197,0.6406-7.2812,1.1201-10.6807,1.4404
				c-3.6396,10.6797-7.7598,20.7207-12.3594,30.1201l-10.7402-6.1807c4.7197-8.1191,8.4395-15.8994,11.1602-23.3398
				c-2.7207,0-5.2402-0.0791-7.5605-0.2402l-0.8398-11.2793c4.3203,0.4404,8.2402,0.6602,11.7607,0.6602
				c0.8398-3.1602,1.5391-6.2197,2.0996-9.1807l12.1201,1.0801c-0.7607,2.7207-1.4404,5.1211-2.04,7.2002
				c2.0791-0.3193,4.2197-0.7197,6.4199-1.2002l0.4199,7.2598l5.3398-7.6191c6.0801,1.6797,11.8398,4.2998,17.2803,7.8594
				l-6.1797,9.1797c-5.2012-3.3984-10.6406-5.9395-16.3203-7.6191L225.7002,31.0605z M248.1396,54.2812l-6.2393,10.4395
				c-1.4805-1.2803-3.5605-2.8203-6.2402-4.6201c-1.1611,4.7598-5.2412,7.1406-12.2402,7.1406c-3.9209,0-7.2002-0.6807-9.8398-2.04
				c-3.6406-1.9199-5.46-4.96-5.46-9.1201c0-3.96,1.5791-6.9795,4.7402-9.0605c2.5195-1.6797,5.5391-2.5195,9.0596-2.5195
				c0.8398,0,1.7998,0.0596,2.8799,0.1797V33.9404h11.3398l0.0605,13.8604C240.4004,49.5215,244.3799,51.6807,248.1396,54.2812z
				 M224.8604,54.3408c-1.2402-0.3994-2.3203-0.5996-3.2402-0.5996c-1.6406,0-2.46,0.6396-2.46,1.9199
				c0,1.1201,0.8398,1.6797,2.5195,1.6797c1.1602,0,1.9697-0.2197,2.4307-0.6602
				C224.5693,56.2412,224.8193,55.4609,224.8604,54.3408z"/>
			<path class="st0" d="M304.1201,65.2012h-12.9004l-2.7598-8.8809h-17.1602l-2.5801,8.8809h-12.7793l15.8398-50.2803h15.6602
				L304.1201,65.2012z M285.2803,45.9404l-5.5801-18.2998l-5.4004,18.2998H285.2803z"/>
			<path class="st0" d="M363.1602,65.2012h-13.6797l-6.1201-13.7402c-1.3604-3.0391-4.1211-4.5605-8.2803-4.5605h-3.4199v18.3008
				h-12.4199V14.9209h24.0596c4.5996,0,8.4199,1.1807,11.46,3.54c3.5596,2.7598,5.3398,6.7402,5.3398,11.9395
				c0,6.3213-2.9795,10.8008-8.9395,13.4404c2.1992,1.2402,3.9395,3.2998,5.2197,6.1797L363.1602,65.2012z M347.3203,31.001
				c0-1.2803-0.3604-2.3604-1.0801-3.2402c-0.96-1.2002-2.4404-1.7998-4.4404-1.7998h-10.1396v10.5h10.1396
				c2,0,3.4805-0.6797,4.4404-2.04C346.96,33.4609,347.3203,32.3203,347.3203,31.001z"/>
			<path class="st0" d="M392.3203,37.7812l-11.3398,3.4199c-1.8408-6.8408-4.3203-12.96-7.4404-18.3604l10.9199-3.4199
				C387.6602,24.7812,390.2803,30.9014,392.3203,37.7812z M425.9805,20.0205c-0.7207,12.9209-4.0605,23.1807-10.0205,30.7803
				c-5.7598,7.3604-14.3008,12.6602-25.6201,15.9004l-7.7402-10.0801c11.3193-3,19.2607-7.4404,23.8203-13.3203
				c4.2793-5.5195,6.6797-13.8994,7.2002-25.1396L425.9805,20.0205z M407.6201,34.8408l-11.5205,2.8203
				c-1.4395-6.8799-3.5996-13.1201-6.4795-18.7207l11.1602-2.8193C403.6602,21.5205,405.9404,27.7607,407.6201,34.8408z"/>
			<path class="st0" d="M464.0801,42.5811c-1.2002,11.2793-7.0205,19.4004-17.46,24.3594l-9-8.7598
				c5.8799-2.6396,9.8193-5.4795,11.8203-8.5195c1.999-3.04,3-7.6807,3-13.9199v-5.04h11.9395v3.5996
				c3.0391-2.5596,5.2998-4.7998,6.7803-6.7197h-35.8203V16.4805h51.0605v10.3203c-4.8408,7.1201-10.8604,13.4404-18.0605,18.96
				L464.0801,42.5811z"/>
			<path class="st0" d="M546.2197,45.041h-52.4395V32.8008h52.4395V45.041z"/>
			<path class="st0" d="M605.0195,28.2412c-0.5605,0-2,0.0205-4.3193,0.0596c-6.6406,0.6807-11.8408,2.9199-15.6006,6.7197
				c-3.1602,3.2012-4.7393,6.6406-4.7393,10.3203c0,2.7998,1.7188,4.9404,5.1592,6.4199c3,1.2402,7.5205,2.0605,13.5605,2.46
				l-3.7197,12.1201c-8.5205-0.5205-15.1201-2.3008-19.8008-5.3398c-5.2002-3.3994-7.7998-8.2197-7.7998-14.46
				c0-6.7207,2.4004-12.4395,7.2002-17.1602c-3.8398,0.2402-10.8203,0.7598-20.9404,1.5596l-0.6592-11.8799
				c19.4395-1.2393,36.6387-2.04,51.5996-2.3994L605.0195,28.2412z M600.1602,41.3203l-6.1201,1.8008
				c-1.2002-3.2793-2.6611-6.1396-4.3799-8.5801l6.1201-1.7998C597.5801,35.3418,599.04,38.2012,600.1602,41.3203z
				 M608.3799,39.3408l-6.1201,1.7998c-1.2002-3.2793-2.6602-6.1396-4.3799-8.5801L604,30.7607
				C605.7998,33.3613,607.2598,36.2207,608.3799,39.3408z"/>
			<path class="st0" d="M660.46,48.5205c0,5.8008-1.8398,10.2002-5.5195,13.2002c-3.3604,2.7197-8.0205,4.0801-13.9805,4.0801
				c-5.1602,0-9.3203-0.8203-12.4795-2.46c-3.8809-1.959-6.8408-5.3594-8.8809-10.2002l11.7002-4.9199
				c1.9199,4.7607,4.8604,7.1396,8.8203,7.1396c3.0391,0,5.2393-0.7793,6.5996-2.3398c1-1.0801,1.5-2.4395,1.5-4.0801
				c0-3.7588-2.0801-5.6396-6.2393-5.6396c-4.2412,0-7.2412,1.3203-9,3.96l-11.7607-0.5996l2.46-30.8408h34.9199v10.5H634.54
				l-0.7803,9.8408c2.7598-2,6.6396-3,11.6406-3c4.4395,0,8.0186,1.3193,10.7393,3.96
				C659.0195,39.8809,660.46,43.6816,660.46,48.5205z"/>
			<path class="st0" d="M727.7803,45.3408h-39.3604v1.3203h38.3398v11.7598c0,4.2002-0.6699,6.8701-2.0098,8.0098
				c-1.3408,1.1396-4.1904,1.71-8.5498,1.71h-4.3799L710.5,64.7812h-25.8604v2.1592h-11.5195V54.3408h11.5195v2.04h2.8799v-3.3604
				h-11.2197V16.4209h15.0605c0.5996-1.4404,1.1592-3,1.6797-4.6797l11.8203,1.2598c-0.2803,1-0.6406,2.1396-1.0801,3.4199h18.5996
				v20.6396h-33.96v1.3203h39.3604V45.3408z M710.5596,25.1211v-1.4404h-22.1396v1.4404H710.5596z M710.5596,31.6611v-1.4404
				h-22.1396v1.4404H710.5596z M713.0195,59.1406c0.9199,0,1.5098-0.0898,1.7705-0.2695c0.2598-0.1807,0.3896-0.79,0.3896-1.8301
				v-4.0205h-15.8398v3.3604h2.7598v-2.04h10.9199V59.1406z"/>
			<path class="st0" d="M742.1201,63.4004c-2.7207,2.2402-5.2607,4.0996-7.6201,5.5801l-3.1797-12.3594
				c2.5586-1.3594,4.7998-2.7197,6.7197-4.0801v-8.4004h-5.46V33.2207h13.7402l-0.1201-0.2998
				c4.1191-7.9199,7.0195-14.6191,8.7002-20.1006l9.54,3.4805c-1.9609,5.6396-4.5215,11.1807-7.6807,16.6201
				c2.1201,4.6006,4.5,11.0205,7.1406,19.2598l-9.7803,3.7803c-1.1201-3.7197-2.8408-9.0801-5.1602-16.0801V53.501
				c0.3193,2.0801,2.7002,3.1201,7.1396,3.1201h32.1006l-2.5801,10.1992h-31.7998
				C748.3398,66.8203,744.4395,65.6807,742.1201,63.4004z M750.5195,22.1807l-8.2793,8.1602c-2.8008-3.6396-5.9805-6.96-9.54-9.96
				l7.9199-7.9805C744.0596,14.9209,747.3594,18.1816,750.5195,22.1807z M775.54,16.541c-1.8809,5.4404-4.3799,10.9004-7.5,16.3799
				c2.2803,5.0801,4.6201,11.2803,7.0195,18.5996l-8.3994,3.8398l-3.96-11.8799c-1.4004-4.0801-2.8008-7.5986-4.2002-10.5596
				c3.4395-5.7998,6.3398-12.3994,8.7002-19.7998L775.54,16.541z M789.0996,16.3604c-1.6797,4.4805-4.3604,10.001-8.04,16.5605
				c2.5205,5.2402,5.1602,11.5,7.9209,18.7803l-10.5605,4.2598c-3.1602-9.7197-6.0596-17.4004-8.7002-23.04
				c2.9199-5,5.9199-11.7393,9-20.2197L789.0996,16.3604z"/>
			<path class="st0" d="M818.7998,34.9609c-1.8398,3.1602-3.04,5.2402-3.5996,6.2402c-1.0801,2-2.2002,4.3398-3.3604,7.0195
				l0.1201,0.8398l-11.46,1.6201c-0.8008-5.9189-1.2002-11.2588-1.2002-16.0195c0-5.4805,1.1191-12.3994,3.3604-20.7607
				l11.6396,1.8604c-2.4404,7.6006-3.6602,13.8604-3.6602,18.7803v0.4795c0.6006-1.0391,1.5801-2.6592,2.9404-4.8594
				L818.7998,34.9609z M840.2803,37.4209c0,7.6797-1.4609,13.8203-4.3799,18.4199c-3.2803,5.1201-8.8408,9.1992-16.6807,12.2402
				l-8.8799-9.2402c7.5605-2.7598,12.5596-5.8994,15-9.4199c1.8799-2.6797,2.8203-6.8799,2.8203-12.6006
				c0-4.7588-0.8008-12.1396-2.4004-22.1396l12.1807-1.3799C839.5,21.541,840.2803,29.5811,840.2803,37.4209z"/>
			<path class="st0" d="M907.0596,40.4805c-4.2803,1.5205-8.4805,3.1406-12.5996,4.8604v3.2402v5.8193h-10.2598v-4.1992
				c-3.4404,1.9199-5.1602,3.3594-5.1602,4.3193c0,0.8008,0.459,1.3203,1.3799,1.5605c0.7197,0.1602,2.4199,0.2393,5.0996,0.2393
				c6.1201,0,12.2598-0.6191,18.4209-1.8594l-0.6006,11.3398c-6.6807,0.5996-12.8203,0.9004-18.4199,0.9004
				c-11.9609,0-17.9395-3.4805-17.9395-10.4404c0-5.2803,4.9199-10.6201,14.7598-16.0195
				c-0.3213-0.0801-0.6602-0.1201-1.0205-0.1201c-1.8398,0-4.1201,0.8398-6.8398,2.5195c-2.7207,1.6797-5.1807,3.8008-7.3799,6.3604
				c-1.2002,1.7607-2.3604,3.46-3.4805,5.0996l-9.4795-6.7803c5.2393-5.7598,9.5791-11.5195,13.0195-17.2793
				c-2.8799-0.04-5.6602-0.1396-8.3398-0.2998l-0.54-10.6201c5.1992,0.4004,9.9199,0.5996,14.1602,0.5996
				c1-2.2803,1.8994-4.4795,2.7002-6.5996l11.5195,1.4395c-0.6396,1.4805-1.3398,3.041-2.0996,4.6807
				c3.7998-0.3203,8.3594-0.8604,13.6797-1.6201l0.54,10.7998c-7.96,0.8008-14.5195,1.2998-19.6797,1.5
				c-0.4004,0.6807-1,1.7002-1.7998,3.0596c2.4795-0.8789,4.8389-1.3193,7.0801-1.3193c3.7588,0,6.499,1.1797,8.2197,3.54
				c2.1992-1,5.1396-2.3799,8.8203-4.1406L907.0596,40.4805z"/>
			<path class="st0" d="M928.96,67.541h-11.1602V45.1611c-0.6396,0.8799-1.6006,2.2002-2.8799,3.96l-4.6201-11.46
				c4.5195-6.96,8.1006-15.5,10.7402-25.6201l10.6201,1.6797c-0.8008,3.4805-1.7012,6.7402-2.7002,9.7803v24
				c4.4404-5.7998,7.9805-11.3193,10.6201-16.5605h-9.2998V20.0205h12.2998v-7.1396h11.0996v7.1396h13.9199v10.9199h-10.7998
				c2.9199,5.8008,7.2002,12.2402,12.8398,19.3203l-6.8398,8.7598c-1.4805-1.9199-2.7803-3.7197-3.8994-5.3994v6.1201h-5.2207
				v7.5596h-11.0996v-7.5596h-5.2197v-5.8809c-1.1211,1.6406-2.3613,3.3604-3.7207,5.1602l-4.6797-6V67.541z M943.1797,44.2607
				c-1.04,1.96-2.1807,3.9404-3.4199,5.9404h3.4199V44.2607z M953.0801,43.9609v6.2402h3.5996
				C955.3604,48.1211,954.1602,46.041,953.0801,43.9609z"/>
			<path class="st0" d="M977.7998,55.6611c-0.5205,4.2803-1.0605,7.6797-1.6201,10.1992l-6.0596-2.8799
				c0.999-3.96,1.9199-8.8799,2.7598-14.7598l5.46,1.6797l3-0.8398c0.6396,5.2002,1.0801,10.1006,1.3203,14.7002l-4.3203,1.0205
				L977.7998,55.6611z M986.6201,62.8604l-2.7002,0.6006c-0.5605-6.1201-1.0605-10.7197-1.5-13.7998l3.6602-1.0205
				c0.3604,2.001,0.8193,5.3008,1.3799,9.9004h2.3398c0.96,0,1.4404-0.5195,1.4404-1.5605v-0.4199l-2.8203,0.7803
				c-0.2402-2.04-0.6602-4.6592-1.2598-7.8604l3.1201-0.96c0.3193,1.6006,0.6387,3.4004,0.96,5.4004v-6h-17.8799V13.4805h26.2197
				v9.3604h-5.3398v1.5596h4.6797v0.2402c3.5596-3.1992,6.6602-7.1797,9.2998-11.9395h10.2607
				c2.8799,4.4395,6.6592,8.46,11.3398,12.0596l-3.3604,8.04h0.3604v17.7598h-7.0801c1.7998,2.9209,5.0195,5.7812,9.6602,8.5801
				l-4.6807,9.2402c-4.5596-2.3203-8.1396-5.5-10.7393-9.54c-2.5205,3.9209-6,7.1191-10.4404,9.5996l-4.2002-6.7197
				c-0.2803,2.4004-0.9209,3.999-1.9199,4.7998c-0.8398,0.7207-2.3008,1.0801-4.3799,1.0801h-5.4004L986.6201,62.8604z
				 M985.8398,24.4609v-1.6201h-2.9395v1.6201H985.8398z M985.8398,31.9004v-1.4395h-2.9395v1.4395H985.8398z M985.8398,39.5205
				v-1.6201h-2.9395v1.6201H985.8398z M998.9199,28.3008v2.0996h-4.6797v1.5605h4.6797v6h-4.6797v1.5596h5.2793v19.3203
				c3.8799-2.1992,6.7207-4.959,8.5205-8.2803h-7.0801V32.8008h0.1201L998.9199,28.3008z M1009.9004,32.8008v-1.3799h-2.2803
				v-2.2803c-0.9209,1.1201-2.0205,2.3398-3.2998,3.6602H1009.9004z M1009.9004,40.4805h-1.7402v2.3398h1.7402V40.4805z
				 M1011.6396,23.9209h3.8408c-0.8008-1.0801-1.4805-2.0596-2.04-2.9404C1012.96,21.9014,1012.3604,22.8809,1011.6396,23.9209z
				 M1020.2803,31.4209h-2.3398v1.3799h5.6396c-1.0801-0.999-2.1807-2.0791-3.2998-3.2402V31.4209z M1019.6797,42.8203v-2.3398
				h-1.7393v2.3398H1019.6797z"/>
		</g>
	</g>
</g>
</svg>
