<?xml version="1.0" encoding="utf-8"?>
<!-- Generator: Adobe Illustrator 25.2.1, SVG Export Plug-In . SVG Version: 6.00 Build 0)  -->
<svg version="1.1" id="レイヤー_1" xmlns="http://www.w3.org/2000/svg" xmlns:xlink="http://www.w3.org/1999/xlink" x="0px"
	 y="0px" viewBox="0 0 1040 80" style="enable-background:new 0 0 1040 80;" xml:space="preserve">
<style type="text/css">
	.st0{fill:#1E1E28;}
</style>
<g>
	<g>
		<g>
			<path class="st0" d="M25.8398,65.9805h-1.8594V41.7412c-2.9209,3.5996-6.0811,6.8604-9.4805,9.7793l-1.6201-1.0195
				c4.0801-3.4805,7.7793-7.3398,11.1006-11.5801c3.6387-4.6396,6.2793-9.0605,7.9199-13.2598H14.1396v-1.7402h9v-9.4805h1.8008
				v9.4805h8.9395v1.3203c-1.5596,4.1602-3.9404,8.46-7.1396,12.8994c3.3994,4,6.7998,7.4609,10.2002,10.3799l-1.5,1.0801
				c-3.4805-3.2402-6.6807-6.5791-9.6006-10.0195V65.9805z M64.3604,55.1807h-1.8008v-4.2598H52.3604V66.041H50.5V50.9209h-9.7197
				v4.2598h-1.8604V23.501H50.5v-9.0605h1.8604v9.0605h12V55.1807z M50.5,35.9805V25.3008h-9.7197v10.6797H50.5z M50.5,49.1807
				V37.7812h-9.7197v11.3994H50.5z M62.5596,35.9805V25.3008H52.3604v10.6797H62.5596z M62.5596,49.1807V37.7812H52.3604v11.3994
				H62.5596z"/>
			<path class="st0" d="M83.5596,36.3408c-2.2002,6.3203-5.2402,12.2402-9.1191,17.7598l-1.2002-1.4395
				c4.999-6.96,8.4395-13.8008,10.3193-20.5205v-1.0801h-9.54v-1.7402h9.54v-9.96c-2.5195,0.4805-5.2402,0.8613-8.1592,1.1406
				l-0.96-1.6807c6.3994-0.3594,12.3789-1.5986,17.9395-3.7197l1.2598,1.4404c-2.4404,0.9199-5.1807,1.7197-8.2197,2.3994v10.3799
				h8.2197v1.7402h-8.2197v2.46c2.2402,4.9199,4.7402,9.2207,7.5,12.9004l-1.2002,1.2002
				c-2.1602-3.0801-4.2598-6.7803-6.2998-11.1006v29.3398h-1.8604V36.3408z M121.7803,18.9404
				c-2.6006,14.0811-7.9199,25.7012-15.96,34.8604v4.5596c0,1.9609,0.3193,3.2012,0.96,3.7207
				c0.4795,0.4404,1.6396,0.6602,3.4795,0.6602h3.7803c2.6396,0,4.2793-0.6006,4.9199-1.8008
				c0.5996-1.0801,0.9004-3.9395,0.9004-8.5801l1.9199,0.6006c0,4.8398-0.4609,7.9707-1.3799,9.3896
				c-0.9209,1.4199-2.9404,2.1299-6.0605,2.1299h-4.4395c-2.3613,0-3.9512-0.3799-4.7705-1.1396
				c-0.8203-0.7598-1.2295-2.3193-1.2295-4.6797v-2.7607c-3.2803,3.4004-6.9404,6.3008-10.9805,8.7002l-1.5596-1.2002
				c4.6396-2.5586,8.8193-5.8594,12.54-9.8994V27.7012h1.9199v23.5801c7.1992-8.8398,11.959-19.9805,14.2793-33.4209
				L121.7803,18.9404z M99.0996,34.0605c-1,6.8809-2.8193,13.1611-5.46,18.8398l-1.5-1.3193
				c2.7197-5.6406,4.4404-11.7393,5.1602-18.2998L99.0996,34.0605z M113.3203,22.9004l-1.5605,1.2607
				c-3.8799-2.7998-7.7803-5.0195-11.7002-6.6602l1.3203-1.3203C105.6602,18.0615,109.6396,20.3008,113.3203,22.9004z
				 M127.96,49.4805l-1.7998,0.6006c-1.5205-5.7197-3.5605-10.7002-6.1201-14.9404l1.7402-0.5996
				C124.3398,39.1406,126.4004,44.1211,127.96,49.4805z"/>
			<path class="st0" d="M154.96,59.0205h-16.2002v4.7402h-1.9199V24.3408h6.9004c1.1191-3.2402,1.999-6.5596,2.6396-9.96
				l1.9199,0.3604c-0.7598,3.2393-1.6602,6.4404-2.7002,9.5996h9.3604V59.0205z M153.04,40.1807v-14.04h-14.2803v14.04H153.04z
				 M153.04,57.2207V41.9805h-14.2803v15.2402H153.04z M184.2402,38.2012c0,8.3203-0.2705,14.25-0.8105,17.79
				s-1.5508,5.8496-3.0293,6.9297c-1.0801,0.7998-3.1006,1.2002-6.0605,1.2002h-5.04l-0.5996-1.8008h5.6396
				c2.4395,0,4.1191-0.3984,5.04-1.1992c1.1602-1.04,1.9395-3.2402,2.3398-6.6006c0.3994-3.1592,0.6006-8.5996,0.6006-16.3193
				v-12.54h-18.2402c-1.5605,3.5195-3.46,7-5.7002,10.4395l-1.7402-0.7803c4.2803-6.4395,7.46-13.3994,9.54-20.8799l1.9199,0.4805
				c-1.04,3.3203-2.1201,6.2998-3.2393,8.9395h19.3799V38.2012z M173.7998,47.8008L172,48.5205
				c-2.04-4.4395-4.4004-8.5801-7.0801-12.4199l1.6797-0.7803C168.9189,38.7207,171.3193,42.8809,173.7998,47.8008z"/>
			<path class="st0" d="M198.5801,57.7607l-1.9199-0.4795c2.4395-10.4004,5.5801-21.2002,9.4199-32.4004
				c-3.0811,0.0801-6.0205,0.2002-8.8203,0.3604v-1.9209c2.6406-0.1191,5.7998-0.2393,9.4805-0.3594
				c0.7588-2.1992,1.5996-4.4404,2.5195-6.7197L211,16.9004c-0.7607,1.9609-1.5,3.96-2.2197,6
				c8.1602-0.1992,17.1797-0.2998,27.0596-0.2998v1.9199c-10.96,0-20.2002,0.1006-27.7197,0.2998
				C204.2803,36.1406,201.0996,47.1211,198.5801,57.7607z M243.8203,52.4209c-2.4004-1.7598-4.6602-3.2002-6.7803-4.3203v1.6807
				c0,4-0.96,7.2803-2.8799,9.8398c-2.3604,3.1992-5.9805,4.7998-10.8604,4.7998c-3.6396,0-6.7402-0.9404-9.2998-2.8203
				c-2.7598-2.04-4.1396-4.6797-4.1396-7.9199c0-3.1992,1.1787-5.7793,3.54-7.7402c2.5586-2.1191,6.0791-3.1797,10.5596-3.1797
				c3.6797,0,7.3594,0.7607,11.04,2.2803c-0.0811-4.7998-0.2998-8.7393-0.6602-11.8203c-6.5996,0.04-12.04,0.1602-16.3203,0.3604
				v-1.7998c8.04-0.2803,16.3809-0.4209,25.0205-0.4209v1.8604h-6.7803c0.3604,3.8809,0.6006,8.0996,0.7207,12.6602
				c2.3994,1.1602,5.0391,2.7803,7.9199,4.8604L243.8203,52.4209z M235.0596,47.0811c-3.6807-1.6807-7.3799-2.5205-11.0996-2.5205
				c-3.7607,0-6.7305,0.8506-8.9102,2.5498c-2.1807,1.7012-3.2695,3.8906-3.2695,6.5703c0,2.7207,1.2002,4.9004,3.5996,6.54
				c2.1602,1.4805,4.7998,2.2197,7.9199,2.2197c4.1602,0,7.2598-1.4189,9.2998-4.2598c1.6396-2.2393,2.46-5.04,2.46-8.3994V47.0811z
				"/>
			<path class="st0" d="M297.8799,61.3008H295.54l-5.5205-14.1602h-20.3398l-5.2793,14.1602h-2.2803l16.2002-42.2998h2.6992
				L297.8799,61.3008z M289.2402,45.1006l-9.6006-24.5996L270.46,45.1006H289.2402z"/>
			<path class="st0" d="M356.9199,61.3008h-2.5195l-5.46-14.7598c-1.4014-3.7598-3.9814-5.8203-7.7402-6.1807h-12.96v20.9404H325.96
				V19.001h17.8203c3.6797,0,6.5791,0.8008,8.7002,2.3994c2.3994,1.8008,3.5996,4.4805,3.5996,8.04
				c0,2.9609-0.96,5.4004-2.8799,7.3203c-1.7207,1.6797-4.0205,2.7803-6.9004,3.2998c2.0791,1.001,3.6201,2.8008,4.6201,5.4004
				L356.9199,61.3008z M353.7998,29.4404c0-5.6396-3.3398-8.46-10.0195-8.46h-15.54v17.3398h14.9395
				c3.2002,0,5.7695-0.7695,7.71-2.3096C352.8301,34.4717,353.7998,32.2812,353.7998,29.4404z"/>
			<path class="st0" d="M382.54,42.3408c-3.0811-11-5.0996-18.3398-6.0596-22.0205l2.0996-0.4795
				c2.96,10.6406,4.9795,18,6.0596,22.0801L382.54,42.3408z M399.0996,39.4004c-2.2793-10.7188-3.8398-17.9189-4.6797-21.5996
				l2.0996-0.4199c1.4004,6.4404,2.9795,13.6406,4.7402,21.5996L399.0996,39.4004z M403.9004,64.001l-2.04-0.7197
				c3.5996-7.4795,10.4795-20.7998,20.6396-39.9609l1.9199,0.7803C415.7393,40.3408,408.8994,53.6416,403.9004,64.001z"/>
			<path class="st0" d="M462.8799,45.5811l-1.2598-1.5605c4.959-2.3594,9.2402-4.9795,12.8398-7.8594
				c4.5195-3.6006,6.7803-6.7803,6.7803-9.54c0-4.1602-3.3408-6.2402-10.0205-6.2402c-8.5596,0-19.6797,0.6406-33.3594,1.9199
				l-0.1807-2.1602c14.04-1.2002,25.3398-1.7998,33.9004-1.7998c3.5195,0,6.2998,0.6201,8.3398,1.8604
				c2.4004,1.4004,3.5996,3.5195,3.5996,6.3594c0,3.2402-2.3994,6.8008-7.1992,10.6807
				C472.7998,40.0811,468.3193,42.8613,462.8799,45.5811z M451.2402,63.6406l-2.2207-0.3594c2.1201-9.2402,5-19.96,8.6406-32.1602
				l2.0996,0.54C456.5996,41.541,453.7598,52.2012,451.2402,63.6406z"/>
			<path class="st0" d="M497.3203,39.2207v-2.0996c13.7998-0.6396,29.1797-0.96,46.1396-0.96v2.0996
				c-6.2002,0-11.5605,0.0205-16.0801,0.0596C515.6201,38.4404,505.5996,38.7412,497.3203,39.2207z"/>
			<path class="st0" d="M558.5801,23.2012v-2.04c5.96-0.3994,13.8193-0.7998,23.5801-1.2002
				c9.5195-0.3994,16.1191-0.6006,19.7998-0.6006v2.04c-6.8008,0-13.3203,2.46-19.5596,7.3809
				c-6.4805,5.1201-9.7207,10.6797-9.7207,16.6797c0,10.1201,7.4199,15.1797,22.2607,15.1797v2.04
				c-16.2002,0-24.3008-5.7393-24.3008-17.2197c0-4.7998,2.1299-9.5098,6.3906-14.1299c4.2598-4.6201,9.5293-7.9297,15.8096-9.9307
				C578.7598,21.9609,567.3398,22.5615,558.5801,23.2012z M594.8203,35.6807l-1.6807-0.2998
				c0.8408-3.2793,1.6807-6.2998,2.5205-9.0605l1.6797,0.3008C596.5,29.3008,595.6602,32.3203,594.8203,35.6807z M601.1797,35.6807
				L599.5,35.3809c0.8398-3.2793,1.6797-6.2998,2.5195-9.0605l1.6807,0.3008C602.8604,29.3008,602.0195,32.3203,601.1797,35.6807z"
				/>
			<path class="st0" d="M655.1797,48.4004c0,4.2402-1.5,7.5215-4.5,9.8408c-2.7207,2.1592-6.2803,3.2393-10.6797,3.2393
				c-5.1211,0-9.7607-1.3799-13.9199-4.1396l1.2598-1.8604c4.04,2.6807,8.2598,4.0205,12.6602,4.0205
				c3.8789,0,7.0098-0.9697,9.3896-2.9102c2.3799-1.9395,3.5703-4.6699,3.5703-8.1904c0-2.8389-1.0605-5.1387-3.1797-6.8994
				c-2.1211-1.7598-4.9199-2.6406-8.4004-2.6406c-2.0801,0-4.2207,0.3809-6.4199,1.1406c-2.4805,0.8398-4.3799,1.96-5.7002,3.3594
				h-1.9199l2.5801-24.1191h23.46v1.9795h-21.4795l-2.04,19.1396c3.6387-2.3594,7.4795-3.54,11.5195-3.54
				c3.999,0,7.2803,1.0205,9.8398,3.0605C653.8604,42.041,655.1797,44.8818,655.1797,48.4004z"/>
			<path class="st0" d="M726.8799,43.001h-46.2598v5.1602H723.46v6.0596c0,4.041-0.4795,6.8203-1.4404,8.3398
				c-1.2803,2.0801-3.8203,3.1201-7.6191,3.1201h-4.3203l-0.5996-1.7998h4.9199c3.1992,0,5.2588-0.8809,6.1797-2.6396
				c0.6396-1.1602,0.96-3.5,0.96-7.0205v-4.2598h-28.1396v9.1201H707.5v-6.8398h1.9199v8.6396H678.04v3.4199h-1.9199V52.2412h1.9199
				v6.8398h13.4404v-9.1201h-12.7803V20.6211h15.1201c1.3193-2.3604,2.3398-4.6602,3.0596-6.9004l1.8604,0.54
				c-0.6406,1.8809-1.6201,4-2.9404,6.3604h23.5801v15.7197h-38.7598v4.8604h46.2598V43.001z M717.46,27.4004v-4.9795h-36.8398
				v4.9795H717.46z M717.46,34.541v-5.3398h-36.8398v5.3398H717.46z"/>
			<path class="st0" d="M744.1602,56.8604c-2.7207,2.6807-5.8799,5.4004-9.4805,8.1602l-0.96-1.7998
				c4.4404-3.2793,7.7002-6,9.7803-8.1602V38.4404h-9.2998v-1.8594h11.2803v18.54c0.999,2.5195,2.3594,4.2998,4.0791,5.3398
				s4.0596,1.5596,7.0205,1.5596h29.7002l-0.6006,1.9199h-28.9795c-3.2803,0-5.8799-0.5498-7.7998-1.6494
				S745.3994,59.3809,744.1602,56.8604z M745.7197,24.5205l-1.6201,1.0205c-2.8799-3.2002-5.6201-5.7803-8.2197-7.7402
				l1.6201-1.0801C740.1396,18.8809,742.8789,21.4814,745.7197,24.5205z M760.8398,16.4805
				c-2.2803,7.1211-5.0205,13.4805-8.2197,19.0801c3.3994,7.5205,6.0996,14.7207,8.0996,21.6006l-1.9199,0.5996
				c-1.8809-6.96-4.6406-14.4004-8.2803-22.3203c3.1602-5.3594,5.9795-11.8799,8.4609-19.5596L760.8398,16.4805z M772.2998,55.9004
				L770.5,56.501c-2.2803-7-5.2803-14-9-21c2.96-4.5996,5.9404-10.7598,8.9404-18.4805l1.7998,0.7207
				c-2.3613,6.1191-5.2207,12.0801-8.5801,17.8799C767.5391,43.3818,770.4189,50.1406,772.2998,55.9004z M785.9805,57.041
				l-1.7402,0.7197c-2.9609-7.3203-6.6406-14.7393-11.04-22.2598c4.0391-6.3994,7.3594-12.9395,9.96-19.6201l1.7998,0.6602
				c-2.4404,6.3203-5.6201,12.6602-9.54,19.0195C779.5391,42.7217,783.0596,49.8809,785.9805,57.041z"/>
			<path class="st0" d="M809.1396,50.9209c-2.6396,0-4.7803-1.0205-6.4199-3.0605c-1.6406-2.04-2.46-4.959-2.46-8.7598
				c0-6.2793,1.0996-13.4795,3.2998-21.5996l2.1006,0.4795c-2.2412,8.4004-3.3604,15.4414-3.3604,21.1201
				c0,3.1602,0.6201,5.5908,1.8604,7.29c1.2393,1.7012,2.8799,2.5498,4.9199,2.5498c3.8398,0,7.6201-2.3398,11.3398-7.0195
				l1.1396,1.6797C817.3193,48.4814,813.1797,50.9209,809.1396,50.9209z M829.1797,64.1807l-2.04-0.54
				c6.7598-13.0801,10.1406-28.5195,10.1406-46.3203h2.0996C839.3799,35.2812,835.9795,50.9014,829.1797,64.1807z"/>
			<path class="st0" d="M875.9199,40.3604c-6.8799,4.2002-10.3203,8.501-10.3203,12.9004c0,5.5605,5.96,8.3604,17.8809,8.4004
				c4.6396,0,9.8193-0.2793,15.5391-0.8408l0.0605,1.9209c-5.7207,0.5596-10.9199,0.8398-15.5996,0.8398
				c-13.2812,0-19.9209-3.3994-19.9209-10.2002c0-4.6396,3.4209-9.1797,10.2607-13.6201c-3.5605-0.96-7.2402-1.4404-11.04-1.4404
				c-0.9209,0-1.7012,0.4004-2.3398,1.2002l-1.6201-0.8398c2.0791-2.4395,6.0791-7.2598,12-14.46
				c-6.2402,0.1201-10.7207,0.2402-13.4404,0.3604v-1.8604c4.5195-0.1592,9.5195-0.2998,15-0.4199
				c1.4404-1.6797,3.3398-3.9395,5.7002-6.7803l1.7402,0.9004c-0.8809,1.1201-2.501,3.0801-4.8604,5.8799
				c10.3994-0.1992,17.1992-0.2998,20.4004-0.2998v1.8594c-5.04,0-12.4004,0.1006-22.0801,0.3008
				c-2.5205,3-5.9209,7.1396-10.2002,12.4199c4.0801,0.04,8.2598,0.7197,12.54,2.04c7.7998-4.5996,17.1797-7.8799,28.1396-9.8398
				l0.54,1.9795c-10.2002,1.6406-19.04,4.5-26.5195,8.5801c6.7998,2.4004,12.8994,5.9805,18.2998,10.7402l-1.6201,1.3193
				C888.0996,46.001,881.9199,42.3213,875.9199,40.3604z"/>
			<path class="st0" d="M923.0195,65.7412h-1.9199V32.5605c-2.2002,4.4404-4.5996,8.541-7.1992,12.2998l-1.7402-0.7793
				c6.4795-9.1201,11.1602-19.0596,14.04-29.8203l1.8594,0.2998c-1.2803,4.6006-2.96,9.2402-5.04,13.9199V65.7412z
				 M945.5195,30.1611c-5.0801,11-10.8799,19.96-17.3994,26.8799l-1.3799-1.2598c6.999-7,13.2393-16.6406,18.7197-28.9209h-18.0596
				v-1.9199h18.1191V14.501h1.8008v10.4395h18.3594v1.9199h-18.2998c4.4404,10.041,10.8398,19.6611,19.2002,28.8604l-1.4404,1.2598
				c-7.0801-7.7998-13.0195-16.7393-17.8193-26.8193v22.0801h8.2793v1.7998h-8.2793v11.2793h-1.8008V54.041h-8.0996v-1.7998h8.0996
				V30.1611z"/>
			<path class="st0" d="M977.7402,48.6406c-0.8398,6.2402-1.7803,11.2002-2.8203,14.8799l-1.5596-0.4795
				c1.2793-4.1191,2.2197-9.0996,2.8193-14.9404L977.7402,48.6406z M997.7803,18.041h-9.9004v7.4395h8.1006v1.6807h-8.1006v6.96
				h8.1006v1.6797h-8.1006v7.2598h8.9404v12.7207c0,3.8799-0.3008,6.3994-0.9004,7.5596c-0.7197,1.3994-2.3398,2.0996-4.8604,2.0996
				h-3.1191l-0.6006-1.6797h3.2998c2.1201,0,3.4404-0.54,3.96-1.6201c0.3994-0.8398,0.6006-3.1592,0.6006-6.96V44.7412h-19.0205
				V16.3604h21.6006V18.041z M986.1396,25.4805V18.041h-8.2793v7.4395H986.1396z M986.1396,34.1211v-6.96h-8.2793v6.96H986.1396z
				 M986.1396,43.0605v-7.2598h-8.2793v7.2598H986.1396z M982.4805,60.6406l-1.5,0.2402c-0.1201-3.999-0.5205-7.9395-1.2002-11.8203
				l1.5-0.2998C981.8799,53.1211,982.2793,57.0811,982.4805,60.6406z M988.0596,58.6006l-1.4395,0.3604
				c-0.4805-3.8799-1.1201-7.3799-1.9199-10.5l1.3799-0.2998C986.7998,51.3213,987.46,54.8008,988.0596,58.6006z M993.2197,56.4404
				l-1.3799,0.4199c-0.5205-3.2393-1.2998-6.2998-2.3398-9.1797l1.3203-0.4199C991.7393,50.0615,992.5391,53.1211,993.2197,56.4404z
				 M1028.2598,31.3008l-1.6201,1.0801c-6.2002-5.3594-11.0801-10.7793-14.6396-16.2598
				c-3.9209,6.1602-8.6602,11.6201-14.2197,16.3799l-1.6201-1.0801c5.7988-4.5605,10.7598-10.2393,14.8799-17.04h1.8604
				C1016.5801,20.4209,1021.6992,26.0615,1028.2598,31.3008z M1019.7998,28.9609h-6.96v6.3594h11.2197v12.6602h-11.2197
				c2.2402,6.6006,7.1406,12.2607,14.7002,16.9805l-1.4404,1.2598c-6.7598-4.2793-11.4395-9.54-14.04-15.7803
				c-1,2.9609-2.8398,5.9609-5.5195,9c-2.4404,2.7607-5.0801,5.0195-7.9199,6.7803l-1.3799-1.3203
				c3.2793-1.9199,6.1396-4.2598,8.5801-7.0195c2.8799-3.3193,4.5596-6.6201,5.04-9.9004h-10.5605V35.3203h10.6807v-6.3594h-6.7207
				v-1.7402h15.54V28.9609z M1010.9805,37.0605h-8.8203v9.1807h8.8203V37.0605z M1022.2598,46.2412v-9.1807h-9.4199v9.1807
				H1022.2598z"/>
		</g>
	</g>
</g>
</svg>
