<?xml version="1.0" encoding="utf-8"?>
<!-- Generator: Adobe Illustrator 25.2.1, SVG Export Plug-In . SVG Version: 6.00 Build 0)  -->
<svg version="1.1" id="レイヤー_1" xmlns="http://www.w3.org/2000/svg" xmlns:xlink="http://www.w3.org/1999/xlink" x="0px"
	 y="0px" viewBox="0 0 1040 80" style="enable-background:new 0 0 1040 80;" xml:space="preserve">
<style type="text/css">
	.st0{fill:#1E1E28;}
</style>
<g>
	<g>
		<g>
			<path class="st0" d="M26.7402,66.4609h-4.0205V44.5605c-2.5596,3.041-5.2793,5.8604-8.1602,8.46l-2.2793-3.4795
				C20.5996,42.1816,26.3398,34.6611,29.5,26.9805H13.7803v-3.7793h8.3398v-9.1807h4.0801v9.1807h7.7402v3
				c-1.5605,3.96-3.7207,7.9795-6.4805,12.0596c2.7598,3.3604,5.8203,6.5205,9.1797,9.4805l-2.46,3.2393
				c-2.6797-2.5996-5.1602-5.2197-7.4395-7.8594V66.4609z M65.2598,55.7812h-3.96V52.001h-8.0996v14.3994h-4.1406V52.001h-7.6797
				v3.7803h-3.8994V22.8408h11.5791v-8.8203h4.1406v8.8203h12.0596V55.7812z M49.1201,35.2607v-8.5195h-7.7402v8.5195H49.1201z
				 M49.1201,48.1006v-9.1201h-7.7402v9.1201H49.1201z M61.2998,35.2607v-8.5195h-8.2197v8.5195H61.2998z M61.2998,48.1006v-9.1201
				h-8.2197v9.1201H61.2998z"/>
			<path class="st0" d="M82.2402,40.9609c-2.001,4.7998-4.5,9.4004-7.5,13.7998l-1.7998-4.1396
				c4.1592-6.04,7.2598-11.8799,9.2998-17.5205v-0.8994h-8.5205v-3.7803h8.5205v-7.9805c-2.2002,0.4004-4.5605,0.7207-7.0801,0.96
				l-1.5605-3.5996c6.4805-0.4395,12.4199-1.6592,17.8203-3.6602l2.04,3.2402c-2.1201,0.8398-4.5596,1.5801-7.3203,2.2197v8.8203
				h7.6807v3.7803h-7.6807v1.9795c1.8799,3.6807,4.1602,7.3008,6.8408,10.8604l-1.9209,3.54
				c-1.7998-2.5205-3.4404-5.1797-4.9199-7.9805v25.6807h-3.8994V40.9609z M123.04,18.8809
				c-2.6807,14.04-7.7207,25.5801-15.1201,34.6201v4.3799c0,1.5205,0.21,2.46,0.6299,2.8203c0.4199,0.3594,1.3291,0.54,2.7305,0.54
				h2.7002c2.2393,0,3.5996-0.5195,4.0791-1.5605c0.3994-0.9199,0.6006-3.6396,0.6006-8.1602l4.1396,1.1406
				c0,5.3604-0.4795,8.79-1.4395,10.29s-3.1611,2.25-6.6006,2.25H109.96c-2.6006,0-4.2803-0.3906-5.04-1.1699
				c-0.7598-0.7803-1.1396-2.4697-1.1396-5.0703v-0.9004c-2.8408,2.8008-5.9404,5.1992-9.2998,7.2002l-3.1807-3
				c4.7197-2.5195,8.8799-5.7598,12.4805-9.7197V27.1611h4.1396v20.1592c5.5205-7.959,9.2793-18.1396,11.2803-30.5391
				L123.04,18.8809z M100.2998,33.1611C99.46,40.6006,97.8594,47.3809,95.5,53.501l-3.4199-2.4004
				c2.3594-5.6787,3.9004-12.1396,4.6201-19.3799L100.2998,33.1611z M114.4004,21.4004l-2.5801,3.4199
				c-3.96-2.6396-8.1406-4.7793-12.54-6.4199l2.5801-3.4199C106.3799,16.7412,110.5596,18.8809,114.4004,21.4004z M128.5,48.8809
				l-3.6602,1.9199c-1.5596-5.5996-3.5605-10.46-6-14.5801l3.4199-1.9795C124.9004,38.9609,126.9795,43.8408,128.5,48.8809z"/>
			<path class="st0" d="M156.46,60.4004h-16.3203v4.4404h-4.1992V23.6807h7.0791c1.1201-3.1992,2-6.4395,2.6406-9.7197
				l4.2598,0.5996c-0.7598,3.0811-1.6406,6.1201-2.6396,9.1201h9.1797v11.46c4.2393-6.6797,7.3398-13.6992,9.2998-21.0596
				l4.1406,0.7793c-0.96,3.1201-1.9199,5.9014-2.8809,8.3408h18v15.5996c0,8.4004-0.2598,14.3008-0.7793,17.7002
				c-0.5205,3.6396-1.5605,6.0205-3.1201,7.1396c-1.2803,0.8799-3.6006,1.3203-6.96,1.3203h-4.6797l-1.3203-4.0801h5.3994
				c2.3193,0,3.8799-0.3604,4.6807-1.0801c1.0391-0.96,1.7402-3,2.0996-6.1201c0.3203-2.8398,0.4805-7.9395,0.4805-15.2998V27.1611
				h-15.4805c-1.4395,3.1201-3.2402,6.4199-5.3994,9.8994l-3.4805-1.7402V60.4004z M152.3799,39.5811v-12h-12.2402v12H152.3799z
				 M152.3799,56.3809V43.4805h-12.2402v12.9004H152.3799z M174.3398,47.501l-3.7803,1.4395
				c-1.96-4.4395-4.2402-8.5801-6.8398-12.4199l3.7207-1.4395C169.7598,38.5215,172.0596,42.6611,174.3398,47.501z"/>
			<path class="st0" d="M224.1396,26.8604c-4.1201,1.041-8.0801,1.8008-11.8799,2.2803c-3.3594,10.3203-7.3193,19.8203-11.8799,28.5
				L196,55.4805c4.7197-8.7598,8.499-17.3994,11.3398-25.9199c-3.6406,0.2803-6.8994,0.3408-9.7803,0.1807l-0.54-4.6807
				c3.6797,0.3213,7.5996,0.2998,11.7607-0.0596c1.0801-3.5596,1.959-6.9199,2.6396-10.0801l4.7998,0.5996
				c-0.8398,3.3213-1.6602,6.2998-2.46,8.9404c3.3604-0.5195,6.6602-1.2393,9.9004-2.1602L224.1396,26.8604z M245.0195,57.2812
				L242.5,61.3008c-3.5205-2.3594-6.8799-4.2393-10.0801-5.6396c-0.2002,3-0.96,5.2402-2.2803,6.7197
				c-1.7197,1.8389-4.5996,2.7598-8.6396,2.7598c-2.8799,0-5.3008-0.5996-7.2598-1.7998c-2.4004-1.4404-3.6006-3.5596-3.6006-6.3604
				c0-2.7988,1.1602-4.9395,3.4805-6.4199c1.959-1.2393,4.3594-1.8594,7.2002-1.8594c2.04,0,4.2598,0.2998,6.6602,0.8994
				c-0.041-3.1992-0.1006-8.2393-0.1807-15.1201h4.5605c0,2.1211,0.0195,5.001,0.0596,8.6406
				c0.0391,4.2803,0.0605,6.8994,0.0605,7.8594C236.6396,52.501,240.8203,54.6016,245.0195,57.2812z M227.9805,53.8008
				c-2.4404-0.7598-4.6807-1.1396-6.7207-1.1396c-1.8398,0-3.3203,0.3799-4.4395,1.1396c-1.1211,0.7607-1.6807,1.8398-1.6807,3.2402
				c0,1.2803,0.5498,2.2705,1.6504,2.9697c1.0996,0.7002,2.5293,1.0498,4.29,1.0498c2.7598,0,4.6396-0.6191,5.6396-1.8594
				C227.5195,58.2012,227.9395,56.4014,227.9805,53.8008z M246.04,30.8203l-2.7598,3.7207
				c-4.6006-3.4395-9.3809-6.04-14.3398-7.7998l2.6992-3.7207C236.5996,24.9404,241.3994,27.541,246.04,30.8203z"/>
			<path class="st0" d="M299.6201,62.3809h-5.2803l-4.6797-12.5996H270.04l-4.4404,12.5996h-5.2197L276.46,17.8604h6.3604
				L299.6201,62.3809z M288.0996,45.3408l-8.46-22.8604l-8.04,22.8604H288.0996z"/>
			<path class="st0" d="M358.6602,62.3809h-5.6406l-5.6396-14.46c-1.4805-3.8398-4.1602-5.7598-8.04-5.7598h-10.1396v20.2197H324.04
				V17.8604h19.5596c3.96,0,7.1201,0.9004,9.4805,2.7002c2.7197,2.04,4.0801,5.0801,4.0801,9.1201
				c0,6.1602-3.1201,10-9.3604,11.5205c2.0791,1.1201,3.6201,2.96,4.6201,5.5195L358.6602,62.3809z M351.9404,29.8604
				c0-2.3594-0.7715-4.1992-2.3105-5.5195c-1.54-1.3203-3.7305-1.9805-6.5703-1.9805h-13.8594v15.4209h13.5596
				c2.8398,0,5.0801-0.7207,6.7207-2.1602C351.1201,34.1807,351.9404,32.2607,351.9404,29.8604z"/>
			<path class="st0" d="M388.96,37.7207l-4.5596,1.8604c-2.2012-6.3203-4.7012-11.54-7.5-15.6602l4.3799-1.8604
				C384.1992,26.4209,386.7598,31.6406,388.96,37.7207z M423.0996,22.001c-2.6006,19.1602-12.2002,33.1797-28.7998,42.0596
				l-3.6602-3.8398c8.4805-4.3994,14.8799-9.7393,19.2002-16.0195c4.1191-6.04,6.8594-13.7598,8.2197-23.1602L423.0996,22.001z
				 M403.6602,34.9004l-4.6201,1.6807c-1.7607-5.7607-4.0801-11-6.96-15.7207l4.5-1.6797
				C399.3398,23.6611,401.6992,28.9004,403.6602,34.9004z"/>
			<path class="st0" d="M484.1797,24.1006c-4.4395,6.2803-9.8008,12.2402-16.0801,17.8799l-4.0801-3
				c5.9199-4.8789,10.54-9.7393,13.8604-14.5801h-40.6797v-4.5596h46.9795V24.1006z M461.9199,39.1006
				c0,11.4805-5.4004,19.9609-16.2002,25.4404L442,60.9404c5.2803-2.6396,9.0801-5.6191,11.4004-8.9395
				c2.4395-3.5195,3.6592-7.9395,3.6592-13.2598v-8.8203h4.8604V39.1006z"/>
			<path class="st0" d="M544.54,41.3203h-49.0205v-4.8594H544.54V41.3203z"/>
			<path class="st0" d="M602.6201,24.1006c-0.8008,0.04-2.0205,0.1006-3.6602,0.1807c-6.04,1.4004-11.2402,4-15.5996,7.7998
				c-4.6807,4.04-7.0205,8.3994-7.0205,13.0801c0,7.1201,6.2598,11.6992,18.7803,13.7393l-1.6797,4.7402
				c-6.1201-0.9199-11.0205-2.6396-14.7002-5.1602c-4.7998-3.2393-7.2002-7.5596-7.2002-12.96
				c0-4.3193,1.5801-8.3789,4.7402-12.1797c2.8398-3.3994,6.5596-6.2197,11.1602-8.46c-9.96,0.7598-20.6807,1.8604-32.1602,3.2998
				l-0.3604-4.6797c9.0391-0.96,24.9004-2.2998,47.5801-4.0205L602.6201,24.1006z M600.0996,39.2207l-2.7598,1.6797
				c-1.8809-2.7598-3.9404-5.0791-6.1797-6.96l2.7002-1.6797C595.9395,34.0215,598.0195,36.3408,600.0996,39.2207z
				 M606.0996,35.9209l-2.7598,1.6797c-1.8809-2.7598-3.9404-5.0791-6.1797-6.96l2.7598-1.6797
				C601.9199,30.6406,603.9795,32.9609,606.0996,35.9209z"/>
			<path class="st0" d="M656.5,48.5205c0,4.6807-1.5811,8.2607-4.7402,10.7402c-2.9199,2.2803-6.8008,3.4199-11.6396,3.4199
				c-6.7607,0-12.0811-2.1797-15.96-6.54l4.1396-2.8799c3.6006,3.3604,7.46,5.04,11.5801,5.04c3.6006,0,6.4395-0.8896,8.5205-2.6699
				c2.0791-1.7793,3.1191-4.1494,3.1191-7.1104c0-2.6396-0.9102-4.71-2.7295-6.21c-1.8203-1.5-4.2705-2.25-7.3496-2.25
				c-2.2012,0-4.3506,0.4404-6.4502,1.3203c-2.1006,0.8799-3.7109,2.001-4.8301,3.3604l-4.6797-0.3604l2.5791-26.0996h26.6406v4.5
				H632.5l-1.6797,16.3193c3.3994-2.2803,7.2598-3.4199,11.5801-3.4199c4.1191,0,7.5,1.1611,10.1396,3.4805
				C655.1797,41.4814,656.5,44.6016,656.5,48.5205z"/>
			<path class="st0" d="M727.1201,43.8408h-44.2197v3.8398h41.3994v8.04c0,4-0.5605,6.7402-1.6797,8.2197
				c-1.2402,1.6396-3.7197,2.46-7.4404,2.46H711.46l-1.3799-4.0195h-30.0605v2.8799h-4.3193V52.8408h4.3193v5.8203h10.9209v-7.5605
				h-12.4209V19.3008h15c1.0801-2.0791,1.9404-4.1191,2.5801-6.1201l4.3203,0.7197c-0.5996,1.7207-1.3408,3.5205-2.2197,5.4004
				h21.5996v17.46h-36.8994v3.54h44.2197V43.8408z M715.4805,26.501v-3.7803h-32.5801v3.7803H715.4805z M715.4805,33.6406v-4.0195
				h-32.5801v4.0195H715.4805z M710.9199,62.3809h3.6602c2.3594,0,3.9004-0.5596,4.6201-1.6797
				c0.5195-0.8408,0.7803-2.5801,0.7803-5.2207v-4.3799h-24.6006v7.5605h11.4004v-5.8203h4.1396V62.3809z"/>
			<path class="st0" d="M743.7998,58.8408c-2.8408,2.6396-5.7998,5.0791-8.8799,7.3203l-1.5-4.6807
				c3.7598-2.5586,6.7197-4.8389,8.8799-6.8398v-14.46h-8.46v-4.2598h12.7197v18.8398c0.7998,2.1602,1.9902,3.6904,3.5703,4.5898
				c1.5801,0.9004,3.75,1.3506,6.5098,1.3506H787l-1.1396,4.0801h-29.6406c-3.1201,0-5.6201-0.4414-7.5-1.3203
				C746.7197,62.541,745.0801,61.001,743.7998,58.8408z M747.04,24.2207l-3.3604,2.9404c-2.8398-3.2793-5.7402-6.0801-8.6992-8.4004
				l3.2998-2.8799C741.2393,18.2412,744.1602,21.0215,747.04,24.2207z M762.1602,16.3008
				c-2.2412,6.8398-4.9609,13.0605-8.1602,18.6602c3.1592,6.96,5.7998,13.9795,7.9199,21.0596l-4.2598,1.3799
				c-2.3203-8.0791-5.0801-15.5996-8.2803-22.5596c3.3994-5.8799,6.2793-12.459,8.6396-19.7402L762.1602,16.3008z M773.3799,54.8203
				l-4.1396,1.3203c-2.6006-8.04-5.5205-15.1797-8.7598-21.4199c3.1992-5.0791,6.1992-11.3594,9-18.8398l3.96,1.3203
				c-2.2803,6-5.0811,11.8799-8.4004,17.6396C768.6797,42.2412,771.46,48.9014,773.3799,54.8203z M786.7598,55.6006L782.5,57.041
				c-3.04-7.7998-6.54-15.2002-10.5-22.2002c3.7998-6.0391,7.0801-12.5596,9.8398-19.5596l4.2002,1.2598
				c-2.3604,6.04-5.4404,12.1602-9.2402,18.3594C780.5195,41.4609,783.8398,48.3613,786.7598,55.6006z"/>
			<path class="st0" d="M815.4404,35.8604c-1.6406,3-2.7207,5.04-3.2402,6.1201c-1.2002,2.4004-2.2002,4.6807-3,6.8398
				c0.0391,0.2402,0.0996,0.54,0.1797,0.9004l-4.6201,0.6602c-0.5205-4.1602-0.7793-8.8398-0.7793-14.04
				c0-5.5996,0.8594-12.2197,2.5791-19.8604l4.8008,0.8398c-1.8809,7.1211-2.8203,13.4014-2.8203,18.8408
				c0,2.8398,0.0195,4.7002,0.0596,5.5801c0.96-2.0801,2.3799-4.8203,4.2607-8.2207L815.4404,35.8604z M835.5996,37.6611
				c0,7.04-1.3193,12.7402-3.96,17.0996c-2.7207,4.5205-7.1992,8.2598-13.4395,11.2197l-3.6602-3.5996
				c6.1592-2.7598,10.46-6.0801,12.9004-9.96c2.2793-3.6396,3.4199-8.5996,3.4199-14.8799c0-5.5996-0.6602-12.54-1.9805-20.8203
				l4.8604-0.6602C834.9795,23.9805,835.5996,31.1807,835.5996,37.6611z"/>
			<path class="st0" d="M903.5801,37.001c-4.4004,1.6797-9.3809,3.96-14.9404,6.8398c0.04,0.8008,0.0605,2.1201,0.0605,3.96v7.3203
				h-4.4404v-9c-7.3604,4.1201-11.04,7.5801-11.04,10.3799c0,1.4395,0.8701,2.4697,2.6104,3.0898s4.8096,0.9297,9.21,0.9297
				c3.8789,0,8.7998-0.499,14.7598-1.5l-0.0596,4.5605c-5.6006,0.7588-10.6006,1.1396-15,1.1396
				c-5.3613,0-9.3408-0.5605-11.9404-1.6797c-2.9199-1.2393-4.3799-3.3203-4.3799-6.2402c0-4.3203,5.1797-9.3799,15.54-15.1797
				c-0.4004-2.4004-1.6406-3.6006-3.7197-3.6006c-2.2803,0-5.1602,1.0801-8.6406,3.2402c-3.04,1.9199-5.7402,4.1006-8.0996,6.54
				c-0.6406,0.8799-1.4805,2.001-2.5195,3.3604l-3.54-3c5.3994-6.1201,10.0391-13,13.9199-20.6406
				c-4.1211,0.2402-8.1406,0.3213-12.0605,0.2402l-0.2402-4.2002c4.8799,0.2012,9.6396,0.1602,14.2803-0.1201
				c1.1602-2.5586,2.2998-5.4189,3.4199-8.5801l4.6201,0.7207c-1.04,2.6396-2.0996,5.1396-3.1797,7.5
				c4.4795-0.4404,9.4199-1.1406,14.8193-2.1006l0.2402,4.3799c-6.4004,0.8408-12.1201,1.4609-17.1602,1.8604
				c-2,3.96-4.1396,7.7402-6.4199,11.3398c4.3594-3,8.1797-4.5,11.46-4.5c3.5596,0,5.8203,1.8604,6.7803,5.5801
				c3.2402-1.5996,7.5391-3.6992,12.9004-6.2998L903.5801,37.001z"/>
			<path class="st0" d="M924.46,66.2207h-4.3203V36.1006c-1.7607,3.2803-3.7402,6.4004-5.9395,9.3604l-2.8799-3.1797
				c6.0791-8.3203,10.4795-17.8809,13.1992-28.6807l4.1406,0.7197c-1.1611,4.4014-2.5605,8.6211-4.2002,12.6602V66.2207z
				 M944.7998,33.7607c-4.3604,9.2402-9.5,17.1807-15.4199,23.8203l-2.8203-3.1807c6.5605-6.7588,12.2197-15.5596,16.9805-26.3994
				h-15.5996v-4.1406h16.7998v-9.7793h4.1396v9.7793H966.04v4.1406h-16.1396c4.1592,9.2803,9.96,18.0205,17.3994,26.2197
				l-2.8799,3.2402c-6.3203-7.3594-11.5195-15.1592-15.5996-23.4004v17.6406h7.8594v3.8994h-7.8594v10.2002h-4.0205V55.6006h-7.7402
				v-3.8994h7.7402V33.7607z"/>
			<path class="st0" d="M978.7002,48.7012c-0.7197,5.7207-1.6406,10.7598-2.7598,15.1191l-3.1201-1.3799
				c1.1992-4.1592,2.1387-9.0195,2.8193-14.5801L978.7002,48.7012z M998.3799,19.3008h-8.6396v5.5195h6.96v3.3604h-6.96v5.1006h6.96
				v3.3594h-6.96v5.4004h7.6797v14.0996c0,4.1201-0.3398,6.7998-1.0195,8.04c-0.6807,1.2393-2.1807,1.8604-4.5,1.8604h-4.0801
				l-1.0205-4.0205h3.8398c1.5605,0,2.5-0.4199,2.8203-1.2598c0.2793-0.6396,0.4199-2.4795,0.4199-5.5195v-9.6006h-18.0596V15.5811
				h22.5596V19.3008z M982.96,61.3008l-2.7598,0.4199c-0.1201-4.4795-0.4404-8.6797-0.96-12.5996l2.7002-0.4199
				C982.4199,53.0205,982.7598,57.2207,982.96,61.3008z M985.96,24.8203v-5.5195h-6.2402v5.5195H985.96z M985.96,33.2207v-4.9795
				h-6.2402v4.9795H985.96z M985.96,42.041v-5.46h-6.2402v5.46H985.96z M988.1797,59.4404l-2.6992,0.4199
				c-0.4004-4.5596-0.8809-8.3398-1.4404-11.3398l2.5195-0.4199C987.1602,51.6211,987.7002,55.4014,988.1797,59.4404z
				 M992.7998,57.2207l-2.46,0.4199c-0.4404-3.6797-1.0195-6.9395-1.7402-9.7803L991,47.3809
				C991.6396,50.1016,992.2393,53.3809,992.7998,57.2207z M1019.6797,29.7412h-5.5195v4.7998h10.5v14.0996h-10.0801
				c2.4004,5.8799,6.8594,10.8203,13.3799,14.8203l-2.5195,3.2402c-5.8809-3.6006-10.2412-8.1797-13.0801-13.7402
				c-2.6006,5.5605-6.8408,10.1592-12.7207,13.7998L997,63.5811c3-1.6396,5.6396-3.7207,7.9199-6.2402
				c2.5996-2.8398,4.2598-5.7393,4.9805-8.7002h-9.8408V34.541h10.2002v-4.7998h-5.3994v-2.7607
				c-2.001,2.2412-4.0801,4.3008-6.2402,6.1807l-2.6396-3c5.7598-4.6396,10.3594-10,13.7998-16.0801h4.6201
				c3.2793,5.5596,8.0596,10.7998,14.3398,15.7197l-2.5801,3.1797c-2.1211-1.7998-4.2812-3.8594-6.4805-6.1797V29.7412z
				 M1010.2598,37.9609h-6.4795v7.2598h6.4795V37.9609z M1005.46,26.3203h13.7402c-2.8408-3.0791-5.2002-6.0596-7.0801-8.9395
				C1010.2393,20.4209,1008.0195,23.4014,1005.46,26.3203z M1021.0596,45.2207v-7.2598h-6.8994v7.2598H1021.0596z"/>
		</g>
	</g>
</g>
</svg>
