<?xml version="1.0" encoding="utf-8"?>
<!-- Generator: Adobe Illustrator 25.2.1, SVG Export Plug-In . SVG Version: 6.00 Build 0)  -->
<svg version="1.1" id="レイヤー_1" xmlns="http://www.w3.org/2000/svg" xmlns:xlink="http://www.w3.org/1999/xlink" x="0px"
	 y="0px" viewBox="0 0 1040 80" style="enable-background:new 0 0 1040 80;" xml:space="preserve">
<style type="text/css">
	.st0{fill:#1E1E28;}
</style>
<g>
	<g>
		<g>
			<path class="st0" d="M27.6396,67.001h-6.2393V47.4404c-2.1211,2.4814-4.3809,4.8408-6.7803,7.0801l-2.9404-5.9395
				c7.2803-6.7207,12.4199-13.46,15.4199-20.2207H13.4199v-5.8799H21.04v-8.8193H27.46v8.8193h6.4805v4.7402
				c-1.5605,3.7607-3.501,7.4805-5.8203,11.1602c2.1992,2.6807,4.8193,5.4404,7.8604,8.2803V22.1807h11.6396v-8.5801h6.3604v8.5801
				h12.1797v34.2002h-6.1797v-3.2998h-6v13.6797h-6.3604V53.0811h-5.6396v3.2998h-6v-8.8203l-3.1201,4.7998
				c-1.8408-1.8789-3.5811-3.7588-5.2207-5.6396V67.001z M47.7402,34.6006v-6.4199h-5.7598v6.4199H47.7402z M47.7402,47.0811
				v-6.8398h-5.7598v6.8398H47.7402z M59.9805,34.6006v-6.4199h-6.1807v6.4199H59.9805z M59.9805,47.0811v-6.8398h-6.1807v6.8398
				H59.9805z"/>
			<path class="st0" d="M80.9199,45.4004c-1.6406,3.5205-3.5996,6.9814-5.8799,10.3809l-2.4004-6.8408
				c3.5195-5.3594,6.2793-10.4395,8.2803-15.2393v-0.3008h-7.5596v-5.8799h7.5596v-5.9395c-1.7207,0.2803-3.7197,0.54-6,0.7793
				l-2.1602-5.5791c6.7207-0.4805,12.6201-1.6602,17.7002-3.54l2.7598,5.04c-1.9199,0.7598-4.04,1.4395-6.3594,2.0391v7.2002H94
				v5.8799h-7.1396v1.2607c1.4795,2.6797,3.5186,5.6992,6.1201,9.0596l-2.5801,5.8203c-1.3203-1.7998-2.501-3.5596-3.54-5.2803
				v22.4404h-5.9404V45.4004z M124.2402,18.8809c-1.2402,6.3203-2.9004,12.1201-4.9805,17.4004l3.4805-2.2803
				c2.6396,4.6797,4.7188,9.46,6.2402,14.3398l-5.4609,3.1797c-1.4395-4.7598-3.1797-9.0596-5.2197-12.8994
				c-2.3203,5.3994-5.0996,10.2402-8.3398,14.5195v4.2598c0,1.001,0.1201,1.6406,0.3604,1.9199
				c0.2393,0.2812,0.8789,0.4209,1.9199,0.4209h1.6201c1.8389,0,2.9189-0.46,3.2393-1.3809
				c0.2402-0.6797,0.3604-3.2393,0.3604-7.6797l6.2998,1.6797c0,5.9209-0.5098,9.6709-1.5293,11.25
				c-1.0205,1.5801-3.3906,2.3701-7.1104,2.3701h-5.1006c-2.7197,0-4.46-0.3701-5.2197-1.1094
				c-0.7598-0.7412-1.1602-2.3105-1.2002-4.71c-2.4395,2.2402-4.9795,4.1592-7.6191,5.7598l-4.8008-4.7402
				c4.8008-2.5195,8.9404-5.7002,12.4199-9.54V26.6211h6.3604v16.0801c3.8398-7,6.6201-15.9805,8.3398-26.9404L124.2402,18.8809z
				 M101.5,32.3203c-0.6406,7.8408-2.0205,15.1006-4.1396,21.7803l-5.3408-3.4795c2-5.5205,3.3398-12.3398,4.0205-20.46
				L101.5,32.3203z M115.4199,19.9004l-3.54,5.5801c-4.0801-2.5195-8.54-4.5791-13.3799-6.1797l3.8398-5.46
				C107.1797,15.4814,111.54,17.501,115.4199,19.9004z"/>
			<path class="st0" d="M157.96,61.7812h-16.5v4.1396H135.04V23.0205h7.2002c1.2002-3.3594,2.0996-6.5195,2.7002-9.4795
				l6.5996,0.8994c-0.7197,2.6807-1.5811,5.541-2.5801,8.5801h9v9.1201c3.1592-5.5195,5.5996-11.6396,7.3203-18.3594l6.3594,1.0195
				c-0.9199,3.0811-1.7607,5.6602-2.5195,7.7402h16.6201v16.9199c0,8.5195-0.2402,14.3799-0.7207,17.5801
				c-0.5195,3.7197-1.6191,6.1592-3.2998,7.3193c-1.4004,0.96-4,1.4404-7.7998,1.4404h-4.2598l-2.1006-6.2998h5.1602
				c2.1602,0,3.6201-0.3398,4.3799-1.0205c0.9199-0.8398,1.54-2.7197,1.8604-5.6396c0.2402-2.5205,0.3604-7.2793,0.3604-14.2803
				v-9.8398H166.54c-1.3604,2.9609-3.04,6.0811-5.04,9.3604l-3.54-1.9199V61.7812z M151.6602,39.041v-9.96H141.46v9.96H151.6602z
				 M151.6602,55.6006V45.041H141.46v10.5596H151.6602z M174.8799,47.2012l-5.8203,2.2197c-2.04-4.7998-4.2197-8.96-6.54-12.4805
				l5.7607-2.0996C170.5596,38.2812,172.7598,42.4004,174.8799,47.2012z"/>
			<path class="st0" d="M224.9199,28.6006c-3.8799,0.8398-7.6201,1.4805-11.2197,1.9199c-3.4404,10.2812-7.4404,19.8604-12,28.7402
				l-6.7803-3.2402c4.6797-8.5996,8.4004-16.8994,11.1602-24.8994c-3.04,0.1201-5.9199,0.0996-8.6396-0.0605l-0.6602-7.2598
				c3.7998,0.3604,7.6396,0.4404,11.5195,0.2402c1-3.3994,1.8203-6.6006,2.46-9.6006l7.5,0.7803
				c-0.5996,2.2803-1.3604,4.96-2.2793,8.04c2.8799-0.4395,5.6787-1.0195,8.3994-1.7402L224.9199,28.6006z M246.7002,56.3809
				l-3.8398,6.3604c-2.9609-2.1602-5.8203-3.9805-8.5801-5.46c-0.2803,2.8398-1.1611,4.9404-2.6406,6.2998
				c-1.7998,1.6797-4.7607,2.5195-8.8799,2.5195c-3.2402,0-5.9805-0.6602-8.2197-1.9795c-2.8408-1.6807-4.2598-4.2197-4.2598-7.6201
				c0-3.2402,1.3193-5.6797,3.96-7.3203c2.1191-1.3203,4.7402-1.9795,7.8594-1.9795c1.5605,0,3.3203,0.2002,5.2803,0.5996
				l-0.1797-13.6797h7.0195c0.04,3.7598,0.0996,9.0205,0.1807,15.7793C238.4805,51.501,242.5801,53.6611,246.7002,56.3809z
				 M227.4404,54.2812c-2.0811-0.6797-3.9004-1.0205-5.46-1.0205c-3.2012,0-4.8008,1.1201-4.8008,3.3604
				c0,1.04,0.46,1.8506,1.3799,2.4297c0.9199,0.5801,2.0195,0.8701,3.3008,0.8701c2.2793,0,3.7998-0.46,4.5596-1.3799
				C227.0596,57.7812,227.3994,56.3613,227.4404,54.2812z M247.0596,29.6807l-4.1992,5.8203
				c-4.9199-3.5195-10.001-6.1396-15.2402-7.8604l4.2002-5.7598C237.2197,23.7617,242.2998,26.3613,247.0596,29.6807z"/>
			<path class="st0" d="M301.3604,63.4609h-8.2803l-3.7803-10.9805h-18.8994l-3.6006,10.9805h-8.1602l15.96-46.7402h9.96
				L301.3604,63.4609z M286.9004,45.5811l-7.2607-21.0605l-6.96,21.0605H286.9004z"/>
			<path class="st0" d="M360.3398,63.4609h-8.7598l-5.8203-14.1602c-1.4395-3.5195-4.2207-5.2803-8.3398-5.2803h-7.3203v19.4404
				h-7.9795V16.7207h21.2998c4.2002,0,7.6201,1.0205,10.2598,3.0605c3.04,2.3203,4.5605,5.7197,4.5605,10.1992
				c0,6.3213-2.9805,10.4209-8.9404,12.3008c2,1.2402,3.54,3.1602,4.6201,5.7598L360.3398,63.4609z M350.0801,30.3408
				c0-1.9199-0.6406-3.4805-1.9199-4.6797c-1.4004-1.2803-3.3604-1.9199-5.8799-1.9199h-12.1807v13.5596h12.2402
				c2.4795,0,4.4199-0.6992,5.8203-2.0996C349.4395,33.9209,350.0801,32.3008,350.0801,30.3408z"/>
			<path class="st0" d="M390.2197,37.4805l-7.0801,2.7002c-2.0801-6.5596-4.5596-12.0996-7.4395-16.6201l6.8398-2.7002
				C385.3398,25.0215,387.8994,30.5615,390.2197,37.4805z M424.1201,21.2812c-1.1201,10.96-4.3008,20.0391-9.54,27.2393
				c-5.0801,7.001-12.3203,12.501-21.7197,16.5l-5.4004-6.0596c9.5195-3.8799,16.5-8.8799,20.9404-15
				c4.2393-5.8398,6.8789-13.8203,7.9199-23.9404L424.1201,21.2812z M405.1602,34.6611L397.96,37.001
				c-1.6406-6.2002-3.9004-11.7998-6.7803-16.7998l7.0205-2.3408C400.999,22.3408,403.3193,27.9404,405.1602,34.6611z"/>
			<path class="st0" d="M463.1797,39.7012c-0.2002,11.7998-5.8604,20.3799-16.9795,25.7393l-5.6406-5.6396
				c5.5205-2.7197,9.3799-5.5801,11.5801-8.5801c2.3604-3.1592,3.54-7.3398,3.54-12.54v-8.46h7.5v7.7402
				c5.2803-4.3203,9.3203-8.46,12.1201-12.4199H436.54v-6.96H484.96v6.6602c-5.2402,7.1602-10.8398,13.2598-16.7998,18.2998
				L463.1797,39.7012z"/>
			<path class="st0" d="M545.1396,42.7012h-50.2793v-7.5605h50.2793V42.7012z"/>
			<path class="st0" d="M603.46,25.6006c-0.6406,0-1.6201,0.0205-2.9404,0.0605c-6.3594,1.3604-11.7598,3.8799-16.1992,7.5596
				c-4.5205,3.8008-6.7803,7.7998-6.7803,12c0,3.8398,1.9795,6.7607,5.9404,8.7598c2.9189,1.4805,7.2598,2.5801,13.0195,3.3008
				l-2.4004,7.3193c-6.7998-0.6807-12.2998-2.4199-16.5-5.2197c-5.04-3.3193-7.5596-7.8193-7.5596-13.5
				c0-7.8799,4.6592-14.3799,13.9795-19.5c-8.4805,0.5605-18.2197,1.5-29.2197,2.8203l-0.4795-7.2002
				c5.959-0.5596,13.999-1.1797,24.1201-1.8604c15.6797-0.999,23.9785-1.5391,24.8994-1.6201L603.46,25.6006z M600.8799,39.5205
				l-4.2002,2.04c-1.4805-2.6396-3.2803-5.0791-5.3994-7.3193l4.2002-2.04C597.5596,34.2812,599.3594,36.7217,600.8799,39.5205z
				 M607.4199,36.4609l-4.2002,2.04c-1.4805-2.6406-3.2803-5.0791-5.3994-7.3203l4.1992-2.04
				C604.0996,31.2207,605.8994,33.6611,607.4199,36.4609z"/>
			<path class="st0" d="M657.8203,48.6406c0,5.1211-1.6807,9-5.04,11.6406c-3.0811,2.3994-7.2607,3.5996-12.54,3.5996
				c-4.001,0-7.3604-0.5996-10.0801-1.7998c-3.2012-1.4004-5.8604-3.7598-7.9805-7.0801l7.0801-3.9004
				c3.2002,4.041,6.6992,6.0605,10.5,6.0605c3.3604,0,5.96-0.8408,7.7998-2.5205c1.6396-1.5195,2.46-3.5,2.46-5.9395
				c0-2.4004-0.7598-4.2305-2.2793-5.4902c-1.5205-1.2598-3.6211-1.8906-6.2998-1.8906c-2.4004,0-4.5811,0.501-6.54,1.5
				c-1.6807,0.8809-2.9609,1.9805-3.8408,3.3008l-7.4395-0.6602l2.5195-28.1406h29.8799v7.0205h-22.9199l-1.3799,13.5
				c3.1201-2.1602,7-3.2402,11.6406-3.2402c4.1992,0,7.6396,1.2402,10.3193,3.7197
				C656.4404,40.9219,657.8203,44.3613,657.8203,48.6406z"/>
			<path class="st0" d="M727.3604,44.7412h-42.2402v2.46h40.0195v10.0195c0,4.041-0.6201,6.71-1.8594,8.0098
				c-1.2402,1.2998-3.7002,1.9502-7.3799,1.9502h-3.1201l-1.2002-3.5996h-29.6396v2.3398h-6.7207V53.501h6.7207v4.3799h8.46v-5.6396
				h-12.1201V18.041h14.8799c0.7998-1.6396,1.5-3.4395,2.0996-5.4004l6.8398,0.96c-0.4004,1.2002-0.96,2.6807-1.6797,4.4404h19.7998
				v19.1396h-35.0996v2.2803h42.2402V44.7412z M713.4404,25.6006v-2.5801h-28.3203v2.5801H713.4404z M713.4404,32.7412v-2.6406
				h-28.3203v2.6406H713.4404z M712.4199,60.8809h2.2803c1.1191,0,1.8799-0.0801,2.2803-0.2402
				c0.6797-0.2402,1.0996-0.8193,1.2598-1.7402c0.0791-0.4795,0.1201-1.1787,0.1201-2.0996v-4.5596h-21.0605v5.6396H706V53.501
				h6.4199V60.8809z"/>
			<path class="st0" d="M743.5,60.7607c-2.6807,2.3594-5.46,4.5391-8.3398,6.54l-2.1006-7.5c3.2803-2.0791,5.96-3.9795,8.04-5.7002
				V41.9209h-7.6797v-6.6006h14.2197v19.1406c0.5596,1.7998,1.5605,3.0703,3,3.8096c1.4404,0.7412,3.4404,1.1104,6,1.1104h31.0205
				l-1.6201,6.2402h-30.3604c-2.96,0-5.3398-0.3408-7.1396-1.0205C746.5,63.8809,744.8203,62.6016,743.5,60.7607z M748.2998,23.9805
				l-5.0996,4.8008c-2.8408-3.3994-5.8799-6.3994-9.1201-9l4.9795-4.6807C742.2197,17.541,745.2998,20.501,748.2998,23.9805z
				 M763.4199,16.1211c-2.2402,6.7197-4.9199,12.8008-8.04,18.2393c2.7998,6.1611,5.3594,13.001,7.6797,20.5205l-6.54,2.1602
				c-2.7197-9.0801-5.5-16.6807-8.3398-22.7998c3.6396-6.4404,6.5801-13.0801,8.8203-19.9209L763.4199,16.1211z M774.4004,53.7412
				l-6.4199,2.0996c-2.9209-8.96-5.7812-16.2393-8.5801-21.8398c3.4795-5.6406,6.5186-12.0605,9.1191-19.2598l6.1201,1.9795
				c-2.1592,5.8008-4.9004,11.5801-8.2197,17.3398C769.6602,40.8613,772.3193,47.4209,774.4004,53.7412z M787.54,54.2207
				l-6.7803,2.1602c-3.1201-8.3193-6.4404-15.6992-9.96-22.1396c3.5596-5.6406,6.7998-12.1396,9.7197-19.5l6.6006,1.8594
				c-2.2002,5.6406-5.1807,11.5205-8.9404,17.6406C781.459,40.1611,784.5791,46.8213,787.54,54.2207z"/>
			<path class="st0" d="M817.0596,35.9805c-1.4395,2.4805-2.5,4.4209-3.1797,5.8203c-1.2002,2.3604-2.2402,4.7207-3.1201,7.0801
				l0.1201,0.5996l-7.2002,1.0205c-0.6396-4.96-0.96-9.8799-0.96-14.7598c0-5.4805,0.96-12.2002,2.8799-20.1602l7.3809,1.2002
				c-2.0811,7.2803-3.1201,13.54-3.1201,18.7793v2.9404c0.7588-1.4404,1.9199-3.5,3.4795-6.1807L817.0596,35.9805z
				 M836.8604,37.6006c0,7.2402-1.3799,13.1006-4.1406,17.5801c-2.9199,4.7207-7.7803,8.5801-14.5801,11.5801l-5.5195-5.6396
				c6.6797-2.7607,11.2393-6.0195,13.6797-9.7803c2.1201-3.2793,3.1807-7.959,3.1807-14.04c0-5.1992-0.7207-12.2998-2.1602-21.2998
				l7.5-0.9004C836.1797,23.1807,836.8604,30.6807,836.8604,37.6006z"/>
			<path class="st0" d="M904.5996,38.2607c-3.7197,1.3604-8.1396,3.2803-13.2598,5.7598c0.0391,0.7207,0.0605,2.0811,0.0605,4.0801
				v6.7803h-6.96V47.501c-6.2402,3.4004-9.3604,6.2607-9.3604,8.5801c0,1.0801,0.7197,1.8301,2.1602,2.25
				c1.4395,0.4199,4.0195,0.6299,7.7402,0.6299c4.0791,0,9.4395-0.5195,16.0791-1.5605l-0.4199,7.0205
				c-5.3203,0.6797-10.7393,1.0195-16.2598,1.0195c-5.6006,0-9.7402-0.6396-12.4199-1.9199c-3-1.3994-4.5-3.6992-4.5-6.8994
				c0-4.7598,5.4795-10.0996,16.4404-16.0205c-0.4414-0.9199-1.2607-1.3799-2.46-1.3799c-2.2412,0-5.2412,1.1396-9,3.4199
				c-3.5615,2.1602-6.4805,4.54-8.7607,7.1406l-1.7393,2.46l-5.7002-4.3809c5.3594-5.7988,9.9199-12.2393,13.6797-19.3193
				c-3.5605,0.0801-7.1602,0.0596-10.7998-0.0605l-0.3604-6.54c5,0.2803,9.7598,0.3408,14.2803,0.1807
				c0.999-2.2803,2.04-4.8994,3.1201-7.8604l7.2002,1.0205c-0.8408,2.2002-1.7402,4.3193-2.7002,6.3594
				c4.2393-0.3594,8.9795-0.9795,14.2197-1.8594l0.3604,6.7197c-6.6807,0.8008-12.6406,1.3604-17.8799,1.6797
				c-1.3203,2.4805-2.9404,5.2412-4.8604,8.2803c3.7598-2.1602,7.2998-3.2402,10.6201-3.2402c3.3193,0,5.6191,1.4404,6.8994,4.3203
				c2.6406-1.2393,6.1602-2.9199,10.5605-5.04L904.5996,38.2607z"/>
			<path class="st0" d="M925.8398,66.7607h-6.7197V39.3408c-1.4404,2.3604-2.9805,4.6006-4.6201,6.7197l-4.0801-5.5195
				c5.6797-7.5195,9.7998-16.7197,12.3604-27.6006l6.4199,1.2002c-0.96,3.9209-2.0801,7.6201-3.3604,11.1006V66.7607z
				 M944.0195,37.4805c-3.6396,7.4014-8.1201,14.3008-13.4395,20.7002l-4.2598-5.0996c6-6.3994,11.0791-14.3604,15.2393-23.8799
				h-13.1396v-6.4199h15.4805v-9.1201h6.54v9.1201h15.8994v6.4199h-13.8594c3.9189,8.6006,9.0791,16.46,15.4795,23.5801
				l-4.2598,5.2197c-5.5605-6.8799-10.0205-13.5801-13.3799-20.1006v13.3203h7.3799v5.9404h-7.3799v9.1201h-6.3008v-9.1201h-7.3799
				v-5.9404h7.3799V37.4805z"/>
			<path class="st0" d="M979.3604,48.7607l-0.0605,0.3604l3.0605-0.4199c0.3193,3.6807,0.5791,8.1201,0.7793,13.3193l-3.54,0.54
				c-0.0801-4.3594-0.2598-8.2393-0.54-11.6396c-0.6807,4.9199-1.46,9.3398-2.3398,13.2598l-4.2002-2.2803
				c1.04-3.7988,1.96-8.5586,2.7607-14.2793L979.3604,48.7607z M986.2598,60.5811l-1.6797,0.2393
				c-0.2803-4.7588-0.6211-8.8193-1.0205-12.1797l3.2402-0.54c0.4395,3.6807,0.8398,7.7402,1.2002,12.1807h2.5801
				c1.1191,0,1.7793-0.5801,1.9795-1.7402c0,0.04,0-1.0205,0-3.1807v-8.7598H975.46V14.8008h23.46v5.8203H991.54v3.54h5.8203v3.4199
				c4.8389-4.2002,8.5391-8.7803,11.0996-13.7402h7.4404c2.9189,5.04,7.3594,9.8799,13.3193,14.5195l-3.5996,5.2803
				c-1.9199-1.5996-3.9404-3.5195-6.0605-5.7598v2.7002h-4.0791v3.1797h9.7793v15.54h-8.9395
				c2.3594,5.0801,6.3594,9.2998,12,12.6602l-3.54,5.2803c-5.2002-3.041-9.2607-7.0596-12.1807-12.0605
				c-2.7598,4.8809-6.7402,8.9199-11.9395,12.1201l-3.1797-4.0195c-0.3213,1.3994-0.8311,2.3193-1.5303,2.7598
				c-0.7002,0.4395-1.7705,0.6602-3.21,0.6602h-5.04L986.2598,60.5811z M985.7803,24.2207v-3.5996h-4.2002v3.5996H985.7803z
				 M985.7803,32.3809v-3.0605h-4.2002v3.0605H985.7803z M985.7803,41.0811v-3.6602h-4.2002v3.6602H985.7803z M992.1396,58.001
				l-3.0596,0.4795c-0.4404-4.8389-0.8203-8.2998-1.1396-10.3799l3-0.54C991.3799,50.4014,991.7803,53.8818,992.1396,58.001z
				 M995.9805,29.2607H991.54v3.1797h5.8203v5.04H991.54v3.6006h6.4199V56.501c0,2.1602-0.0811,3.9209-0.2402,5.2803
				c5.6406-3.2803,9.3203-7.4404,11.04-12.4805h-8.9395v-15.54h9.7197v-3.1797h-4.0801v-2.8203c-1.96,2.2803-3.96,4.3203-6,6.1201
				L995.9805,29.2607z M1009.54,38.8604h-4.2002v5.3408h4.2002V38.8604z M1007.4404,25.4209h9.8994
				c-2.1602-2.4795-3.8799-4.7197-5.1602-6.7197C1010.8994,20.8604,1009.3193,23.1016,1007.4404,25.4209z M1019.7998,44.2012
				v-5.3408h-4.3193v5.3408H1019.7998z"/>
		</g>
	</g>
</g>
</svg>
