<?xml version="1.0" encoding="utf-8"?>
<!-- Generator: Adobe Illustrator 25.2.1, SVG Export Plug-In . SVG Version: 6.00 Build 0)  -->
<svg version="1.1" id="レイヤー_1" xmlns="http://www.w3.org/2000/svg" xmlns:xlink="http://www.w3.org/1999/xlink" x="0px"
	 y="0px" viewBox="0 0 1040 80" style="enable-background:new 0 0 1040 80;" xml:space="preserve">
<style type="text/css">
	.st0{fill:#1E1E28;}
</style>
<g>
	<g>
		<g>
			<path class="st0" d="M25.8398,65.9805h-1.8594V41.7412c-2.9209,3.5996-6.0811,6.8604-9.4805,9.7793l-1.6201-1.0195
				c4.0801-3.4805,7.7793-7.3398,11.1006-11.5801c3.6387-4.6396,6.2793-9.0605,7.9199-13.2598H14.1396v-1.7402h9v-9.4805h1.8008
				v9.4805h8.9395v1.3203c-1.5596,4.1602-3.9404,8.46-7.1396,12.8994c3.3994,4,6.7998,7.4609,10.2002,10.3799l-1.5,1.0801
				c-3.4805-3.2402-6.6807-6.5791-9.6006-10.0195V65.9805z M64.3604,55.1807h-1.8008v-4.2598H52.3604V66.041H50.5V50.9209h-9.7197
				v4.2598h-1.8604V23.501H50.5v-9.0605h1.8604v9.0605h12V55.1807z M50.5,35.9805V25.3008h-9.7197v10.6797H50.5z M50.5,49.1807
				V37.7812h-9.7197v11.3994H50.5z M62.5596,35.9805V25.3008H52.3604v10.6797H62.5596z M62.5596,49.1807V37.7812H52.3604v11.3994
				H62.5596z"/>
			<path class="st0" d="M83.5596,36.3408c-2.2002,6.3203-5.2402,12.2402-9.1191,17.7598l-1.2002-1.4395
				c4.999-6.96,8.4395-13.8008,10.3193-20.5205v-1.0801h-9.54v-1.7402h9.54v-9.96c-2.5195,0.4805-5.2402,0.8613-8.1592,1.1406
				l-0.96-1.6807c6.3994-0.3594,12.3789-1.5986,17.9395-3.7197l1.2598,1.4404c-2.4404,0.9199-5.1807,1.7197-8.2197,2.3994v10.3799
				h8.2197v1.7402h-8.2197v2.46c2.2402,4.9199,4.7402,9.2207,7.5,12.9004l-1.2002,1.2002
				c-2.1602-3.0801-4.2598-6.7803-6.2998-11.1006v29.3398h-1.8604V36.3408z M121.7803,18.9404
				c-2.6006,14.0811-7.9199,25.7012-15.96,34.8604v4.5596c0,1.9609,0.3193,3.2012,0.96,3.7207
				c0.4795,0.4404,1.6396,0.6602,3.4795,0.6602h3.7803c2.6396,0,4.2793-0.6006,4.9199-1.8008
				c0.5996-1.0801,0.9004-3.9395,0.9004-8.5801l1.9199,0.6006c0,4.8398-0.4609,7.9707-1.3799,9.3896
				c-0.9209,1.4199-2.9404,2.1299-6.0605,2.1299h-4.4395c-2.3613,0-3.9512-0.3799-4.7705-1.1396
				c-0.8203-0.7598-1.2295-2.3193-1.2295-4.6797v-2.7607c-3.2803,3.4004-6.9404,6.3008-10.9805,8.7002l-1.5596-1.2002
				c4.6396-2.5586,8.8193-5.8594,12.54-9.8994V27.7012h1.9199v23.5801c7.1992-8.8398,11.959-19.9805,14.2793-33.4209
				L121.7803,18.9404z M99.0996,34.0605c-1,6.8809-2.8193,13.1611-5.46,18.8398l-1.5-1.3193
				c2.7197-5.6406,4.4404-11.7393,5.1602-18.2998L99.0996,34.0605z M113.3203,22.9004l-1.5605,1.2607
				c-3.8799-2.7998-7.7803-5.0195-11.7002-6.6602l1.3203-1.3203C105.6602,18.0615,109.6396,20.3008,113.3203,22.9004z
				 M127.96,49.4805l-1.7998,0.6006c-1.5205-5.7197-3.5605-10.7002-6.1201-14.9404l1.7402-0.5996
				C124.3398,39.1406,126.4004,44.1211,127.96,49.4805z"/>
			<path class="st0" d="M154.96,59.0205h-16.2002v4.7402h-1.9199V24.3408h6.9004c1.1191-3.2402,1.999-6.5596,2.6396-9.96
				l1.9199,0.3604c-0.7598,3.2393-1.6602,6.4404-2.7002,9.5996h9.3604V59.0205z M153.04,40.1807v-14.04h-14.2803v14.04H153.04z
				 M153.04,57.2207V41.9805h-14.2803v15.2402H153.04z M184.2402,38.2012c0,8.3203-0.2705,14.25-0.8105,17.79
				s-1.5508,5.8496-3.0293,6.9297c-1.0801,0.7998-3.1006,1.2002-6.0605,1.2002h-5.04l-0.5996-1.8008h5.6396
				c2.4395,0,4.1191-0.3984,5.04-1.1992c1.1602-1.04,1.9395-3.2402,2.3398-6.6006c0.3994-3.1592,0.6006-8.5996,0.6006-16.3193
				v-12.54h-18.2402c-1.5605,3.5195-3.46,7-5.7002,10.4395l-1.7402-0.7803c4.2803-6.4395,7.46-13.3994,9.54-20.8799l1.9199,0.4805
				c-1.04,3.3203-2.1201,6.2998-3.2393,8.9395h19.3799V38.2012z M173.7998,47.8008L172,48.5205
				c-2.04-4.4395-4.4004-8.5801-7.0801-12.4199l1.6797-0.7803C168.9189,38.7207,171.3193,42.8809,173.7998,47.8008z"/>
			<path class="st0" d="M195.2197,57.5811c5.2402-9.6006,9.2598-20.1006,12.0605-31.5h-9.96v-1.8604h10.4395
				c0.6006-2.6396,1.1191-5.3398,1.5605-8.0996h2.2197c-0.4805,2.7998-1.0205,5.5-1.6201,8.0996h13.3799v1.8604h-13.8594
				c-2.5605,10.4004-6.4414,20.9004-11.6406,31.5H195.2197z M233.3799,46.541v-20.46h-5.46v-1.8604h16.2598v1.8604h-8.7598v21.3594
				c2.8799,1.4014,6.0195,3.3809,9.4199,5.9404v2.7598c-3.5205-2.9189-6.6602-5.1191-9.4199-6.5996v1.9199
				c0,8.5195-4.5,12.7803-13.5,12.7803c-4.0801,0-7.2998-0.9004-9.6602-2.7002s-3.54-4.1406-3.54-7.0205
				c0-3.0791,1.2393-5.5693,3.7207-7.4697c2.4795-1.8994,5.7393-2.8496,9.7793-2.8496
				C225.8994,44.2012,229.6201,44.9805,233.3799,46.541z M222.3398,46.0605c-3.5205,0-6.3398,0.7803-8.46,2.3398
				c-2.1201,1.5605-3.1797,3.6006-3.1797,6.1201c0,2.3613,1.0391,4.2607,3.1201,5.7002c2.0791,1.4404,4.7793,2.1602,8.0996,2.1602
				c7.6396,0,11.46-3.7402,11.46-11.2197v-2.5801C229.6992,46.9004,226.0195,46.0605,222.3398,46.0605z"/>
			<path class="st0" d="M297.8799,61.3008H295.54l-5.5205-14.1602h-20.3398l-5.2793,14.1602h-2.2803l16.2002-42.2998h2.6992
				L297.8799,61.3008z M289.2402,45.1006l-9.6006-24.5996L270.46,45.1006H289.2402z"/>
			<path class="st0" d="M356.9199,61.3008h-2.5195l-5.46-14.7598c-1.4014-3.7598-3.9814-5.8203-7.7402-6.1807h-12.96v20.9404H325.96
				V19.001h17.8203c3.6797,0,6.5791,0.8008,8.7002,2.3994c2.3994,1.8008,3.5996,4.4805,3.5996,8.04
				c0,2.9609-0.96,5.4004-2.8799,7.3203c-1.7207,1.6797-4.0205,2.7803-6.9004,3.2998c2.0791,1.001,3.6201,2.8008,4.6201,5.4004
				L356.9199,61.3008z M353.7998,29.4404c0-5.6396-3.3398-8.46-10.0195-8.46h-15.54v17.3398h14.9395
				c3.2002,0,5.7695-0.7695,7.71-2.3096C352.8301,34.4717,353.7998,32.2812,353.7998,29.4404z"/>
			<path class="st0" d="M383.9199,40.1807c-1.5205-6.5195-3.9004-13.3594-7.1396-20.5195h2.3994
				c2.9199,6.4404,5.2998,13.2803,7.1406,20.5195H383.9199z M419.7402,18.3408h2.3994
				c-0.2002,11.4404-2.5801,20.6396-7.1396,27.5996c-5.7207,8.7607-14.7402,14.46-27.0596,17.1006v-2.2803
				c11.3994-2.3193,19.7588-7.5996,25.0791-15.8398C417.3398,38.2412,419.5801,29.3809,419.7402,18.3408z M401.2002,39.1611
				c-1.4805-6.4805-3.6807-13.2803-6.6006-20.4004H397c2.5596,6,4.7598,12.8008,6.5996,20.4004H401.2002z"/>
			<path class="st0" d="M458.6201,42.8203c6.2793-1.1592,11.2393-3.459,14.8799-6.8994c3.8398-3.6396,6-8.4004,6.4805-14.2803
				h-41.4004v-2.04h43.8604c-0.4414,13.9609-8.5801,22.4609-24.4209,25.5c-2.3994,8.3203-8.2002,14.3203-17.3994,18v-2.3398
				c5.7598-2.5195,9.9199-5.7393,12.4795-9.6602c2.8398-4.3193,4.2607-10.2393,4.2607-17.7598v-4.5h2.1592v4.6201
				C459.5195,36.9014,459.2197,40.0215,458.6201,42.8203z"/>
			<path class="st0" d="M496.8398,38.501v-2.1006h46.3203v2.1006H496.8398z"/>
			<path class="st0" d="M596.0801,22.4805c-6.96,1.5205-12.6602,4.1611-17.0996,7.9199c-4.6006,3.96-6.9004,8.4209-6.9004,13.3809
				c0,5.6396,2.4795,9.8604,7.4395,12.6592c4.4004,2.4814,10.3594,3.7207,17.8809,3.7207v2.1592
				c-8.3203,0-14.8604-1.4189-19.6201-4.2598c-5.3203-3.1592-7.9805-7.9199-7.9805-14.2793c0-4.2803,1.6895-8.29,5.0703-12.0303
				c3.3799-3.7402,8.1689-6.8105,14.3701-9.21l-31.7998,1.0195v-2.04l45.1191-1.2002v2.04L596.0801,22.4805z M594.5195,37.7812
				v-9.6006h1.7402v9.6006H594.5195z M600.9404,37.7812v-9.6006h1.7393v9.6006H600.9404z"/>
			<path class="st0" d="M655.1797,48.4004c0,4.2402-1.5,7.5215-4.5,9.8408c-2.7207,2.1592-6.2803,3.2393-10.6797,3.2393
				c-5.1211,0-9.7607-1.3799-13.9199-4.1396l1.2598-1.8604c4.04,2.6807,8.2598,4.0205,12.6602,4.0205
				c3.8789,0,7.0098-0.9697,9.3896-2.9102c2.3799-1.9395,3.5703-4.6699,3.5703-8.1904c0-2.8389-1.0605-5.1387-3.1797-6.8994
				c-2.1211-1.7598-4.9199-2.6406-8.4004-2.6406c-2.0801,0-4.2207,0.3809-6.4199,1.1406c-2.4805,0.8398-4.3799,1.96-5.7002,3.3594
				h-1.9199l2.5801-24.1191h23.46v1.9795h-21.4795l-2.04,19.1396c3.6387-2.3594,7.4795-3.54,11.5195-3.54
				c3.999,0,7.2803,1.0205,9.8398,3.0605C653.8604,42.041,655.1797,44.8818,655.1797,48.4004z"/>
			<path class="st0" d="M726.8799,43.001h-46.2598v5.1602H723.46v6.0596c0,4.041-0.4795,6.8203-1.4404,8.3398
				c-1.2803,2.0801-3.8203,3.1201-7.6191,3.1201h-4.3203l-0.5996-1.7998h4.9199c3.1992,0,5.2588-0.8809,6.1797-2.6396
				c0.6396-1.1602,0.96-3.5,0.96-7.0205v-4.2598h-28.1396v9.1201H707.5v-6.8398h1.9199v8.6396H678.04v3.4199h-1.9199V52.2412h1.9199
				v6.8398h13.4404v-9.1201h-12.7803V20.6211h15.1201c1.3193-2.3604,2.3398-4.6602,3.0596-6.9004l1.8604,0.54
				c-0.6406,1.8809-1.6201,4-2.9404,6.3604h23.5801v15.7197h-38.7598v4.8604h46.2598V43.001z M717.46,27.4004v-4.9795h-36.8398
				v4.9795H717.46z M717.46,34.541v-5.3398h-36.8398v5.3398H717.46z"/>
			<path class="st0" d="M744.1602,56.8604c-2.7207,2.6807-5.8799,5.4004-9.4805,8.1602l-0.96-1.7998
				c4.4404-3.2793,7.7002-6,9.7803-8.1602V38.4404h-9.2998v-1.8594h11.2803v18.54c0.999,2.5195,2.3594,4.2998,4.0791,5.3398
				s4.0596,1.5596,7.0205,1.5596h29.7002l-0.6006,1.9199h-28.9795c-3.2803,0-5.8799-0.5498-7.7998-1.6494
				S745.3994,59.3809,744.1602,56.8604z M745.7197,24.5205l-1.6201,1.0205c-2.8799-3.2002-5.6201-5.7803-8.2197-7.7402
				l1.6201-1.0801C740.1396,18.8809,742.8789,21.4814,745.7197,24.5205z M760.8398,16.4805
				c-2.2803,7.1211-5.0205,13.4805-8.2197,19.0801c3.3994,7.5205,6.0996,14.7207,8.0996,21.6006l-1.9199,0.5996
				c-1.8809-6.96-4.6406-14.4004-8.2803-22.3203c3.1602-5.3594,5.9795-11.8799,8.4609-19.5596L760.8398,16.4805z M772.2998,55.9004
				L770.5,56.501c-2.2803-7-5.2803-14-9-21c2.96-4.5996,5.9404-10.7598,8.9404-18.4805l1.7998,0.7207
				c-2.3613,6.1191-5.2207,12.0801-8.5801,17.8799C767.5391,43.3818,770.4189,50.1406,772.2998,55.9004z M785.9805,57.041
				l-1.7402,0.7197c-2.9609-7.3203-6.6406-14.7393-11.04-22.2598c4.0391-6.3994,7.3594-12.9395,9.96-19.6201l1.7998,0.6602
				c-2.4404,6.3203-5.6201,12.6602-9.54,19.0195C779.5391,42.7217,783.0596,49.8809,785.9805,57.041z"/>
			<path class="st0" d="M823.7197,17.5605c4.7197,0,8.4395,1.8506,11.1602,5.5498c2.7197,3.7012,4.0801,8.6309,4.0801,14.79
				c0,8.6406-2.6602,15.1611-7.9795,19.5605c-4.9609,4.1201-12.0811,6.2598-21.3604,6.4199v-2.1602
				c18.1201-0.2793,27.1797-8.2197,27.1797-23.8203c0-4.999-0.96-9.1396-2.8799-12.4199c-2.3203-3.999-5.7598-6-10.3203-6
				c-4.8799,0-9.0596,3.0205-12.54,9.0605c-2.9199,5.1201-4.8994,11.4199-5.9395,18.8994h-1.8604
				c0.3604-13.7598,0.7207-23.5586,1.0801-29.3994h2.2197c-0.2803,2.7598-0.7402,10.04-1.3799,21.8398
				c1.2002-5.7598,3.1602-10.6201,5.8799-14.5801C814.54,20.1406,818.7598,17.5605,823.7197,17.5605z"/>
			<path class="st0" d="M870.8799,53.3203c0,5.4004,5.4199,8.1006,16.2598,8.1006c3.6797,0,8.1006-0.3799,13.2607-1.1396v1.9795
				c-4.3604,0.7197-8.6406,1.0801-12.8408,1.0801c-12.5195,0-18.7793-3.3398-18.7793-10.0205c0-3,1.5195-5.8594,4.5596-8.5791
				c2.8799-2.5596,6.8594-4.8008,11.9404-6.7207c-1.2002-2.4395-3.0811-3.6602-5.6406-3.6602
				c-5.9199,0-13.3193,5.3203-22.1992,15.96V47.501c7.0791-7.3203,12.6992-14.7197,16.8594-22.2002h-15.7197v-1.8604h16.7402
				c1.1992-2.3594,2.2998-4.7998,3.2998-7.3193h2.2197c-1.0801,2.6396-2.2197,5.0801-3.4199,7.3193h23.9404v1.8604h-24.96
				c-2.3203,4.0801-5.1807,8.3008-8.5801,12.6602c1.7598-1.5195,3.6797-2.7803,5.7598-3.7803
				c2.2393-1.04,4.2002-1.5596,5.8799-1.5596c3.6396,0,6.2002,1.5596,7.6797,4.6797c4.6807-1.5996,9.8193-2.7998,15.4199-3.5996
				v2.04c-5.2793,0.6396-10.1992,1.7197-14.7598,3.2393c1.0801,3.2803,1.6201,8.5801,1.6201,15.9004h-1.9795
				c0-7.1191-0.501-12.2002-1.5-15.2402c-4.6006,1.7207-8.2207,3.7197-10.8604,6
				C872.2793,48.0811,870.8799,50.6416,870.8799,53.3203z"/>
			<path class="st0" d="M923.0195,65.7412h-1.9199V32.5605c-2.2002,4.4404-4.5996,8.541-7.1992,12.2998l-1.7402-0.7793
				c6.4795-9.1201,11.1602-19.0596,14.04-29.8203l1.8594,0.2998c-1.2803,4.6006-2.96,9.2402-5.04,13.9199V65.7412z
				 M945.5195,30.1611c-5.0801,11-10.8799,19.96-17.3994,26.8799l-1.3799-1.2598c6.999-7,13.2393-16.6406,18.7197-28.9209h-18.0596
				v-1.9199h18.1191V14.501h1.8008v10.4395h18.3594v1.9199h-18.2998c4.4404,10.041,10.8398,19.6611,19.2002,28.8604l-1.4404,1.2598
				c-7.0801-7.7998-13.0195-16.7393-17.8193-26.8193v22.0801h8.2793v1.7998h-8.2793v11.2793h-1.8008V54.041h-8.0996v-1.7998h8.0996
				V30.1611z"/>
			<path class="st0" d="M977.7402,48.6406c-0.8398,6.2402-1.7803,11.2002-2.8203,14.8799l-1.5596-0.4795
				c1.2793-4.1191,2.2197-9.0996,2.8193-14.9404L977.7402,48.6406z M997.7803,18.041h-9.9004v7.4395h8.1006v1.6807h-8.1006v6.96
				h8.1006v1.6797h-8.1006v7.2598h8.9404v12.7207c0,3.8799-0.3008,6.3994-0.9004,7.5596c-0.7197,1.3994-2.3398,2.0996-4.8604,2.0996
				h-3.1191l-0.6006-1.6797h3.2998c2.1201,0,3.4404-0.54,3.96-1.6201c0.3994-0.8398,0.6006-3.1592,0.6006-6.96V44.7412h-19.0205
				V16.3604h21.6006V18.041z M986.1396,25.4805V18.041h-8.2793v7.4395H986.1396z M986.1396,34.1211v-6.96h-8.2793v6.96H986.1396z
				 M986.1396,43.0605v-7.2598h-8.2793v7.2598H986.1396z M982.4805,60.6406l-1.5,0.2402c-0.1201-3.999-0.5205-7.9395-1.2002-11.8203
				l1.5-0.2998C981.8799,53.1211,982.2793,57.0811,982.4805,60.6406z M988.0596,58.6006l-1.4395,0.3604
				c-0.4805-3.8799-1.1201-7.3799-1.9199-10.5l1.3799-0.2998C986.7998,51.3213,987.46,54.8008,988.0596,58.6006z M993.2197,56.4404
				l-1.3799,0.4199c-0.5205-3.2393-1.2998-6.2998-2.3398-9.1797l1.3203-0.4199C991.7393,50.0615,992.5391,53.1211,993.2197,56.4404z
				 M1028.2598,31.3008l-1.6201,1.0801c-6.2002-5.3594-11.0801-10.7793-14.6396-16.2598
				c-3.9209,6.1602-8.6602,11.6201-14.2197,16.3799l-1.6201-1.0801c5.7988-4.5605,10.7598-10.2393,14.8799-17.04h1.8604
				C1016.5801,20.4209,1021.6992,26.0615,1028.2598,31.3008z M1019.7998,28.9609h-6.96v6.3594h11.2197v12.6602h-11.2197
				c2.2402,6.6006,7.1406,12.2607,14.7002,16.9805l-1.4404,1.2598c-6.7598-4.2793-11.4395-9.54-14.04-15.7803
				c-1,2.9609-2.8398,5.9609-5.5195,9c-2.4404,2.7607-5.0801,5.0195-7.9199,6.7803l-1.3799-1.3203
				c3.2793-1.9199,6.1396-4.2598,8.5801-7.0195c2.8799-3.3193,4.5596-6.6201,5.04-9.9004h-10.5605V35.3203h10.6807v-6.3594h-6.7207
				v-1.7402h15.54V28.9609z M1010.9805,37.0605h-8.8203v9.1807h8.8203V37.0605z M1022.2598,46.2412v-9.1807h-9.4199v9.1807
				H1022.2598z"/>
		</g>
	</g>
</g>
</svg>
