<?xml version="1.0" encoding="utf-8"?>
<!-- Generator: Adobe Illustrator 25.2.1, SVG Export Plug-In . SVG Version: 6.00 Build 0)  -->
<svg version="1.1" id="レイヤー_1" xmlns="http://www.w3.org/2000/svg" xmlns:xlink="http://www.w3.org/1999/xlink" x="0px"
	 y="0px" viewBox="0 0 1040 80" style="enable-background:new 0 0 1040 80;" xml:space="preserve">
<style type="text/css">
	.st0{fill:#1E1E28;}
</style>
<g>
	<g>
		<g>
			<path class="st0" d="M65.7998,48.7012c0,1.8398-0.5996,3.3594-1.7998,4.5596s-2.7402,1.7998-4.6201,1.7998h-4.7998v6.1807
				c0,1.959-0.7002,3.5596-2.0996,4.7998c-1.2412,1.0391-2.6611,1.5596-4.2607,1.5596s-3.0205-0.5205-4.2598-1.5596
				c-1.4004-1.2402-2.0996-2.8408-2.0996-4.7998v-6.1807h-4.5c-1.5605,0-2.8604-0.3994-3.9004-1.2002v7.3203
				c0,1.96-0.7197,3.54-2.1602,4.7402c-1.2402,1.04-2.6602,1.5596-4.2598,1.5596c-1.5596,0-2.9609-0.5195-4.2002-1.5596
				c-1.4395-1.2002-2.1602-2.7803-2.1602-4.7402V54.041c-0.6396,0.2402-1.2998,0.3594-1.9795,0.3594
				c-1.8408,0-3.3701-0.6592-4.5898-1.9795c-1.2207-1.3203-1.8301-2.8203-1.8301-4.5c0-2.04,0.8594-3.7197,2.5801-5.04
				c3.3594-2.5596,6.1992-5.8799,8.5195-9.96h-4.2002c-1.96,0-3.5605-0.7197-4.7998-2.1602
				c-1.04-1.2393-1.5596-2.6396-1.5596-4.2002c0-1.5996,0.5195-3.0195,1.5596-4.2598c1.2393-1.4404,2.8398-2.1602,4.7998-2.1602
				h0.54v-1.5596c0-1.96,0.7207-3.54,2.1602-4.7402c1.2393-1.04,2.6396-1.5596,4.2002-1.5596c1.5996,0,3.0195,0.5195,4.2598,1.5596
				c1.3994,1.2002,2.1006,2.7803,2.1006,4.7402v1.5596h0.2393c1.2393-1.2393,2.7998-1.8594,4.6807-1.8594h4.5
				c0.0791-1.8799,0.8193-3.3994,2.2197-4.5605c1.2393-0.96,2.6191-1.4395,4.1396-1.4395c1.5195,0,2.9004,0.4795,4.1406,1.4395
				c1.3994,1.1611,2.1387,2.6807,2.2197,4.5605h4.7998c1.8799,0,3.4199,0.5996,4.6201,1.7998s1.7998,2.7207,1.7998,4.5596V48.7012z
				 M35.0195,45.8809c0-0.3604-0.0996-0.6602-0.2998-0.9004c-2-2.5586-3.9199-4.6992-5.7598-6.4199
				c2.4395-3.7197,4.0996-7.6396,4.9805-11.7598c0-0.0801,0.0195-0.1592,0.0596-0.2402c0-0.1201,0-0.1992,0-0.2402
				c0-0.7988-0.4805-1.1992-1.4404-1.1992h-5.04v-6.54c0-0.9199-0.4795-1.3799-1.4395-1.3799c-0.9209,0-1.3799,0.46-1.3799,1.3799
				v6.54h-5.5205c-0.9199,0-1.3799,0.4795-1.3799,1.4395c0,0.9209,0.46,1.3799,1.3799,1.3799h11.6406
				c-1.8809,7.0801-6.2207,13.3799-13.0205,18.9004c-0.3594,0.2803-0.54,0.6406-0.54,1.0801c0,1,0.4805,1.5,1.4404,1.5
				c0.2793,0,0.5791-0.0996,0.8994-0.2998c0.9199-0.7998,2.9404-2.9404,6.0605-6.4199v18.4795c0,0.9209,0.459,1.3799,1.3799,1.3799
				c0.96,0,1.4404-0.459,1.4404-1.3799V41.8604c0.8398,0.96,2.1992,2.5801,4.0791,4.8604c0.2803,0.3604,0.6396,0.54,1.0801,0.54
				C34.5596,47.2607,35.0195,46.8018,35.0195,45.8809z M60.8203,48.7012V24.6406c0-0.96-0.4805-1.4395-1.4404-1.4395h-9.7803
				v-4.6201c0-0.9199-0.46-1.3799-1.3799-1.3799c-0.96,0-1.4395,0.46-1.4395,1.3799v4.6201h-9.4199
				c-0.9209,0-1.3799,0.4795-1.3799,1.4395v24.0605c0,0.96,0.459,1.4395,1.3799,1.4395h9.4199v11.1006
				c0,0.9199,0.4795,1.3799,1.4395,1.3799c0.9199,0,1.3799-0.46,1.3799-1.3799V50.1406h9.7803
				C60.3398,50.1406,60.8203,49.6611,60.8203,48.7012z M46.7803,35.0205h-7.9805v-9h7.9805V35.0205z M46.7803,47.3203h-7.9805
				v-9.4795h7.9805V47.3203z M58,35.0205h-8.4004v-9H58V35.0205z M58,47.3203h-8.4004v-9.4795H58V47.3203z"/>
			<path class="st0" d="M127.5996,50.2012c0,1.6406-0.5195,3.0205-1.5596,4.1396c-0.8799,1-2.001,1.6602-3.3604,1.9795
				c-0.5195,3.6807-1.7998,6.2314-3.8398,7.6504c-2.04,1.4199-5.46,2.1299-10.2598,2.1299c-4.1611,0-6.8008-0.8008-7.9199-2.3994
				c-1.2402,1.2393-2.1602,2.0596-2.7598,2.46c-1.0801,0.7197-2.2412,1.0801-3.4805,1.0801c-1.3604,0-2.6201-0.4209-3.7803-1.2607
				c-1.1201,0.8799-2.4199,1.3203-3.8994,1.3203c-1.6006,0-3.0205-0.5205-4.2598-1.5596c-1.4014-1.2002-2.1006-2.7812-2.1006-4.7402
				v-4.5605c-0.5996,0.2402-1.2402,0.3604-1.9199,0.3604c-1.6797,0-3.1602-0.6094-4.4404-1.8301
				c-1.2803-1.2197-1.9199-2.7295-1.9199-4.5303c0-1.4395,0.4805-2.7793,1.4404-4.0195c1.6797-2.1602,3.2598-5.04,4.7402-8.6396
				c-1.7207-0.2402-3.0811-1.0205-4.0801-2.3408c-0.8809-1.1992-1.3203-2.5195-1.3203-3.96c0-1.6797,0.5596-3.1396,1.6797-4.3799
				c-0.9199-1.2002-1.3799-2.5391-1.3799-4.0195c0-1.4004,0.46-2.6904,1.3799-3.8701s2.2402-1.9893,3.96-2.4297
				c1.4404-0.2402,2.8203-0.5,4.1406-0.7803c3.2402-0.6797,6.0195-1.46,8.3398-2.3398c0.7598-0.2793,1.5195-0.4199,2.2803-0.4199
				c1.5195,0,2.8594,0.4795,4.0195,1.4395c1.2002-0.999,2.5596-1.5,4.0801-1.5c1.3594,0,2.6191,0.4199,3.7803,1.2598
				c2.3994,1.7607,4.4189,3.4609,6.0596,5.1006c1.0801-2.3193,2.9199-3.4805,5.5205-3.4805c1.5596,0,2.959,0.501,4.2002,1.5
				c1.4785,1.2002,2.2197,2.8008,2.2197,4.7998c0,2.1211-0.3203,4.5-0.96,7.1406c1.0801,0.8008,1.7793,1.9404,2.0996,3.4199
				c0.7197,2.9199,1.4199,5.8408,2.1006,8.7598C127.1992,45.2812,127.5996,48.1211,127.5996,50.2012z M94.6602,19.6006
				c0-0.96-0.4609-1.4395-1.3799-1.4395c-0.1602,0-0.3408,0.04-0.54,0.1201c-3.6807,1.3594-8.1602,2.4805-13.4404,3.3594
				c-0.8008,0.2012-1.2002,0.6807-1.2002,1.4404c0,0.96,0.4404,1.4395,1.3203,1.4395c0.1592,0,0.2793-0.0195,0.3604-0.0596
				c0.7998-0.1201,2.6396-0.4805,5.5195-1.0801v6.7197h-6.1201c-0.9199,0-1.3799,0.4609-1.3799,1.3799
				c0,0.96,0.46,1.4404,1.3799,1.4404h5.7607c-1.2812,5.8408-3.8008,11.3604-7.5605,16.5596
				c-0.2402,0.2803-0.3604,0.6006-0.3604,0.96c0,0.96,0.4805,1.4404,1.4404,1.4404c0.3604,0,0.7197-0.1797,1.0801-0.54
				c0.6797-0.999,1.3398-2.0195,1.9795-3.0596c1.5205-2.5205,2.7803-5,3.7803-7.4404V61.001c0,0.9209,0.4805,1.3799,1.4404,1.3799
				c0.9199,0,1.3799-0.459,1.3799-1.3799V39.6406c0.2793,0.4404,1.1797,2.0205,2.7002,4.7402
				c0.2793,0.4795,0.6797,0.7197,1.1992,0.7197c0.9609,0,1.4404-0.4395,1.4404-1.3193c0-0.2402-0.0811-0.5-0.2402-0.7803
				c-1.5205-2.7197-3.2197-5.3799-5.0996-7.9805v-2.0996h4.7998c0.96,0,1.4404-0.4805,1.4404-1.4404
				c0-0.9189-0.4805-1.3799-1.4404-1.3799h-4.7998v-7.4395c1.4795-0.3994,3.3389-1,5.5801-1.8008
				C94.3398,20.6211,94.6602,20.2012,94.6602,19.6006z M118.1797,22.3604c0-0.9189-0.4795-1.3799-1.4395-1.3799
				c-0.8008,0-1.2598,0.4004-1.3799,1.2002c-1.5205,9.8008-5.1006,18.4004-10.7402,25.7998V29.8008
				c0-0.9199-0.46-1.3799-1.3799-1.3799c-0.96,0-1.4404,0.46-1.4404,1.3799v21.54c-4.2002,4.6406-6.9404,7.4404-8.2197,8.4004
				c-0.4004,0.2803-0.5996,0.6396-0.5996,1.0791c0,1.001,0.4795,1.5,1.4395,1.5c0.2793,0,0.6094-0.1396,0.9902-0.4199
				c0.3799-0.2793,2.5498-2.46,6.5098-6.54c0,3.8809,2.2197,5.8203,6.6602,5.8203c4.3994,0,7.0996-0.6191,8.0996-1.8604
				c1-1.2393,1.5-4.6592,1.5-10.2598c0-0.9199-0.46-1.3799-1.3799-1.3799c-0.96,0-1.4395,0.46-1.4395,1.3799
				c0,4.4404-0.3213,7.1006-0.96,7.9805c-0.6406,0.8799-2.5801,1.3193-5.8203,1.3193c-1.7207,0-2.8604-0.4795-3.4199-1.4395
				c-0.3604-0.5596-0.54-1.5801-0.54-3.0605v-1.4395c7.2393-8.4795,11.7598-18.3994,13.5596-29.7598V22.3604z M99.5195,25.3604
				c-0.6797-0.6797-1.3799-1.2598-2.0996-1.7393c-0.9209,0.8008-2.0801,1.3799-3.4795,1.7393L93.04,25.6006v0.6602
				c1.6396,0,2.8994,0.3604,3.7803,1.0801h0.3594c0.0801,0,0.2002,0,0.3604,0c0.1592,0.04,0.2998,0.0596,0.4199,0.0596
				C98.3203,26.7207,98.8398,26.041,99.5195,25.3604z M98.5,32.8604c0.0391-0.8789-0.4004-1.3193-1.3203-1.3193
				c-0.96,0-1.46,0.5-1.5,1.5c-0.2002,6.8008-1.0596,13.1602-2.5801,19.0801c-0.1191,0.4404-0.0293,0.8398,0.2705,1.1992
				c0.2998,0.3604,0.6689,0.54,1.1104,0.54c0.7197,0,1.1592-0.3594,1.3193-1.0791C97.3994,46.1416,98.2998,39.501,98.5,32.8604z
				 M110.4404,26.7412c0-0.3604-0.1201-0.6797-0.3604-0.96c-2.3604-2.7607-4.9805-5.2207-7.8604-7.3809
				c-0.3203-0.1992-0.5996-0.2998-0.8398-0.2998c-0.9209,0-1.3799,0.4805-1.3799,1.4404c0,0.4404,0.1992,0.8008,0.5996,1.0801
				c1.2402,0.9199,3.6797,3.2607,7.3203,7.0195c0.3193,0.3604,0.6797,0.54,1.0801,0.54
				C109.96,28.1807,110.4404,27.7012,110.4404,26.7412z M122.6797,50.2012v-0.3008c-0.8799-5.2393-1.9404-10.5391-3.1797-15.8994
				c-0.1602-0.7197-0.5801-1.0801-1.2598-1.0801c-1.001,0-1.5,0.4795-1.5,1.4395c0,0.1611,0.0195,0.2803,0.0596,0.3604
				c0.6006,2.4004,1.6201,7.6201,3.0605,15.6602c0.1201,0.8008,0.5791,1.2002,1.3799,1.2002
				C122.2002,51.5811,122.6797,51.1211,122.6797,50.2012z"/>
			<path class="st0" d="M185.9199,24.5811c0,7.0801-0.2002,15.6201-0.5996,25.6201c-0.2012,5.3994-1.1807,9.3799-2.9404,11.9395
				c-2.0801,3.1201-5.5,4.6797-10.2598,4.6797c-6,0-9.6807-1.3193-11.04-3.96c-0.9209,0.6396-2.0801,0.96-3.4805,0.96h-16.9199
				c-1.8398,0-3.3594-0.5996-4.5596-1.7998s-1.7998-2.7197-1.7998-4.5596V26.1406c0-1.8389,0.5996-3.3594,1.7998-4.5596
				s2.7197-1.7998,4.5596-1.7998h2.6406c0.2793-0.7207,0.6797-1.8398,1.1992-3.3604c0.8408-2.6396,2.7402-3.96,5.7002-3.96
				c1.5605,0,2.9795,0.5205,4.2607,1.5596c1.4395,1.2402,2.1592,2.8408,2.1592,4.7998c0,0.0811,0,0.2402,0,0.4805
				c-0.04,0.2002-0.0596,0.3604-0.0596,0.4805h1.0195c0.7998,0,1.4795,0.0996,2.04,0.2998c0.5195-1.3203,0.9004-2.54,1.1406-3.6602
				c0.5596-2.7598,2.4795-4.1396,5.7598-4.1396c1.4795,0,2.8398,0.4795,4.0801,1.4395c1.3994,1.1611,2.1602,2.6611,2.2803,4.5
				h6.6592c1.8398,0,3.3604,0.5996,4.5605,1.7998S185.9199,22.7412,185.9199,24.5811z M181,24.5811
				c0-0.96-0.4805-1.4404-1.4404-1.4404h-12.6592c0.2793-0.9199,0.6387-2.3193,1.0801-4.2002v-0.3594
				c0-0.9199-0.4805-1.3799-1.4404-1.3799c-0.7607,0-1.2207,0.3799-1.3799,1.1396c-1.041,5.04-3.0811,9.8398-6.1201,14.4004v-6.6006
				c0-0.96-0.4805-1.4395-1.4404-1.4395h-7.7998c0.9199-2.2402,1.54-4.0801,1.8604-5.5205c0-0.0391,0.0195-0.0996,0.0596-0.1797
				c0-0.0801,0-0.1396,0-0.1807c0-0.96-0.5-1.4395-1.5-1.4395c-0.7598,0-1.2207,0.3809-1.3799,1.1396
				c-0.4004,1.6807-1.1006,3.7412-2.0996,6.1807h-6.0605c-0.96,0-1.4395,0.4795-1.4395,1.4395v31.3203
				c0,0.96,0.4795,1.4395,1.4395,1.4395h16.9199c0.96,0,1.4404-0.4795,1.4404-1.4395V35.0205
				c0.3994,0.2402,0.7393,0.3604,1.0195,0.3604c0.4805,0,0.8408-0.2197,1.0801-0.6602c0.5195-0.7197,1.04-1.5195,1.5605-2.4004
				c1.2002-1.999,2.2393-4.0996,3.1201-6.2998h12.2393c0,7.041-0.2002,15-0.5996,23.8799c-0.1602,3.4414-0.6807,5.79-1.5596,7.0508
				c-0.8809,1.2598-2.4404,1.8896-4.6807,1.8896c-1.1201,0-2.5195-0.1201-4.2002-0.3604h-0.2393
				c-0.9209,0-1.3799,0.4805-1.3799,1.4404c0,0.8799,0.4199,1.3799,1.2598,1.5c2.2803,0.3203,4.0996,0.4795,5.46,0.4795
				c2.96,0,5.0293-0.8398,6.21-2.5195c1.1797-1.6797,1.8691-4.8193,2.0703-9.4199C180.7998,40.3213,181,31.8613,181,24.5811z
				 M156.1602,40.3008h-14.04V27.5811h14.04V40.3008z M156.1602,56.0205h-14.04V43.2412h14.04V56.0205z M151.2402,35.6211v-3.3604
				h-4.1406v3.3604H151.2402z M151.2402,51.3408v-3.4199h-4.1406v3.4199H151.2402z M169.2998,54.4004
				c-1.04-0.7988-1.8594-1.8594-2.46-3.1797c-1.0801-2.3594-2.1807-4.4395-3.2998-6.2402v10.0801
				c1.04-0.5596,2.2598-0.8398,3.6602-0.8398C167.959,54.2207,168.6602,54.2812,169.2998,54.4004z M173.7402,48.4609
				c0-0.1201-0.0605-0.2998-0.1807-0.54c-1.2402-2.7998-3.6396-6.6602-7.1992-11.5801c-0.3213-0.4805-0.7207-0.6992-1.2002-0.6602
				c-1,0.0811-1.4609,0.6602-1.3799,1.7402c0.0391,0.1201,0.1201,0.3398,0.2393,0.6602c1,1.3604,1.9209,2.6602,2.7607,3.8994
				c1.959,3,3.3594,5.4004,4.2002,7.2002c0.2793,0.6406,0.7393,0.9209,1.3799,0.8398
				C173.3594,49.9414,173.8193,49.4209,173.7402,48.4609z M173.5596,30.5205h-5.3398l-0.4795,0.96
				c0.999,0.7207,1.7793,1.5205,2.3398,2.4004c0.7998,1.2002,1.9199,3.0596,3.3604,5.5801
				C173.5195,36.1816,173.5596,33.2012,173.5596,30.5205z"/>
			<path class="st0" d="M247.8398,55.4805c0,1.7607-0.6406,3.291-1.9199,4.5898c-1.2803,1.3008-2.8203,1.9502-4.6201,1.9502
				c-1.1201,0-2.1396-0.2793-3.0596-0.8398c-0.4004-0.2402-1.2207-0.8594-2.46-1.8604c-1.2002,2.4814-3.2012,4.3594-6,5.6406
				c-2.5605,1.2002-5.5205,1.7998-8.8799,1.7998c-3.96,0-7.3408-1.041-10.1406-3.1201c-2.6797-1.959-4.3799-4.4795-5.0996-7.5596
				c-1.1611,2.3994-3.0811,3.5996-5.7598,3.5996c-1.6406,0-3.1006-0.54-4.3809-1.6201c-1.4395-1.2393-2.1592-2.8398-2.1592-4.7998
				c0-0.999,0.2188-1.959,0.6592-2.8799c1.9209-3.9199,4.0801-9.459,6.4805-16.6201h-0.8398c-2.001,0-3.6006-0.7197-4.7998-2.1602
				c-1.0801-1.2393-1.6201-2.6787-1.6201-4.3193s0.54-3.0801,1.6201-4.3203c1.1992-1.3994,2.7988-2.1006,4.7998-2.1006
				c1.3594,0,2.9395-0.0596,4.7402-0.1797c0.1992-0.7998,0.5186-1.9795,0.96-3.54c0.8398-3.2402,2.8799-4.8594,6.1201-4.8594
				c1.5986,0,3.0195,0.5195,4.2598,1.5596c1.4795,1.2002,2.2197,2.7998,2.2197,4.7998c0,0.4404-0.0205,0.7607-0.0596,0.96
				c0.0791,0,0.5596-0.0195,1.4395-0.0596c1.2803-0.04,2.4395,0.2607,3.4805,0.8994c0.96-0.5186,2.0195-0.7793,3.1797-0.7793
				c1.2793,0,3.8193,0.3594,7.6201,1.0801c3.2793,0.5996,5.8594,1.1396,7.7402,1.6191c1.5195,0.4004,2.709,1.1807,3.5693,2.3408
				s1.29,2.4395,1.29,3.8398c0,1.5996-0.54,3.04-1.6201,4.3193c-1.2803,1.4805-2.9004,2.2207-4.8594,2.2207
				c-0.5605,0-1.0801-0.0801-1.5605-0.2402c-0.2393-0.0801-0.6602-0.1592-1.2598-0.2402v1.0205c0,1.7197,0.1396,4.7197,0.4199,9
				c1.7998,1.0801,3.1592,1.9199,4.0801,2.5195c1.7197,1.2402,3.0996,2.4209,4.1396,3.54
				C247.0801,52.3604,247.8398,53.9609,247.8398,55.4805z M221.1396,26.0205c0-1.1191-0.5195-1.6396-1.5596-1.5596
				c-1.041,0.0801-2.3809,0.1904-4.0205,0.3301c-1.6406,0.1406-3.0205,0.25-4.1396,0.3301c0.2793-0.96,0.7803-2.9795,1.5-6.0605
				c0.2793-1.2002-0.2002-1.7998-1.4395-1.7998c-0.8008,0-1.2812,0.3809-1.4404,1.1396c-0.5605,2.5605-1.1611,4.8809-1.7998,6.96
				c-3.7207,0.2803-6.5801,0.4209-8.5801,0.4209c-1,0-1.5,0.5-1.5,1.5c0,1.04,0.5,1.5596,1.5,1.5596
				c1.3594,0,3.9199-0.1201,7.6797-0.3604c-3,10.1211-5.9609,18.1602-8.8799,24.1201c-0.0811,0.1602-0.1201,0.3809-0.1201,0.6602
				c0,1,0.5195,1.5,1.5605,1.5c0.5596,0,0.9795-0.2793,1.2598-0.8398c3.1201-6.3193,6.2598-14.8799,9.4199-25.6797l9.1797-0.7207
				C220.6797,27.4814,221.1396,26.9805,221.1396,26.0205z M242.8604,55.4805c0-0.3994-0.1807-0.7588-0.54-1.0801
				c-3-2.7598-6.2402-4.9795-9.7207-6.6592c-0.4404-6.2803-0.6592-10.3203-0.6592-12.1201c0-0.5195,0.0195-1.3799,0.0596-2.5801
				c0.0391-0.96-0.46-1.4404-1.5-1.4404c-0.9209,0-1.4199,0.4805-1.5,1.4404c-0.04,0.5605-0.0596,1.4004-0.0596,2.5195
				c0,2.3613,0.1797,5.9805,0.54,10.8604c-3.041-1.1191-5.9805-1.6797-8.8203-1.6797c-2.8008,0-5.1602,0.7002-7.0801,2.0996
				c-2.2002,1.5596-3.2998,3.7002-3.2998,6.4199c0,2.2402,0.8789,4.1611,2.6396,5.7598c2,1.8408,4.6592,2.7607,7.9805,2.7607
				c3.5596,0,6.4287-0.8496,8.6094-2.5508c2.1797-1.6992,3.2705-4.0293,3.2705-6.9893v-1.1406
				c2.6396,1.5205,5.1387,3.3604,7.5,5.5205c0.3193,0.2803,0.6602,0.4199,1.0195,0.4199
				C242.3398,57.041,242.8604,56.5215,242.8604,55.4805z M224.5596,32.0811c-0.6396-0.2002-1.1797-0.46-1.6191-0.7803
				c-1.041,0.4404-2.5205,0.7607-4.4404,0.96c-1.4805,0.1201-2.9609,0.2402-4.4404,0.3604
				c-1.1201,3.5605-2.2793,7.04-3.4795,10.4395c2.8398-1.959,6.1992-2.9395,10.0801-2.9395c1.3994,0,2.6396,0.0596,3.7197,0.1797
				c-0.0801-2-0.1201-3.5791-0.1201-4.7402C224.2598,34.0811,224.3594,32.9209,224.5596,32.0811z M229.7803,51.6406
				c0,4.8408-2.9404,7.2598-8.8203,7.2598c-2.3203,0-4.1699-0.5596-5.5498-1.6797c-1.3799-1.1191-2.0703-2.4199-2.0703-3.9004
				c0-1.8789,0.8193-3.3594,2.46-4.4395c1.3594-0.8799,3-1.3203,4.9199-1.3203c2.7998,0,5.7998,0.6807,9,2.04
				c0,0.2803,0.0195,0.6406,0.0605,1.0801C229.7803,51.1211,229.7803,51.4414,229.7803,51.6406z M225.04,52.7207
				c-1.2002-0.5996-2.6201-0.9004-4.2598-0.9004c-2.0811,0-3.1201,0.501-3.1201,1.5c0,0.3604,0.3594,0.7012,1.0801,1.0205
				c0.7197,0.3203,1.459,0.4795,2.2197,0.4795C223.2402,54.8203,224.5996,54.1211,225.04,52.7207z M241.2402,28.541
				c0-0.7207-0.3809-1.1797-1.1406-1.3799c-4.8799-1.2002-9.5-2.04-13.8594-2.5205c-1.0801-0.1201-1.6201,0.3604-1.6201,1.4404
				c0,0.9199,0.459,1.4395,1.3799,1.5596c5.2393,0.7197,9.6992,1.5205,13.3799,2.4004c0.4395,0.1201,0.8594,0.0098,1.2598-0.3301
				C241.0391,29.3711,241.2402,28.9814,241.2402,28.541z"/>
			<path class="st0" d="M304.1201,59.501c0,1.9199-0.6904,3.4697-2.0703,4.6494s-2.8701,1.7705-4.4697,1.7705
				c-2.9609,0-4.9805-1.2598-6.0605-3.7803l-4.4395-10.2002h-14.2197l-4.6201,10.2002c-1.1611,2.5205-3.0811,3.7803-5.7598,3.7803
				c-1.6406,0-3.1006-0.5605-4.3809-1.6797c-1.4795-1.2412-2.2197-2.8203-2.2197-4.7402c0-0.9199,0.2002-1.8203,0.6006-2.7002
				l17.6396-38.8799c1.2002-2.6797,3.1592-4.0205,5.8799-4.0205c2.7197,0,4.6797,1.3408,5.8799,4.0205l17.6396,38.8799
				C303.9189,57.6807,304.1201,58.5811,304.1201,59.501z M299.1396,59.501c0-0.1201-0.04-0.3398-0.1201-0.6602l-17.6992-38.8799
				c-0.3604-0.7598-0.8008-1.1406-1.3203-1.1406c-0.5605,0-1.0195,0.3809-1.3799,1.1406L261.04,58.8408
				c-0.1201,0.2803-0.1797,0.501-0.1797,0.6602c0,0.96,0.54,1.4395,1.6201,1.4395c0.5996,0,1.0195-0.2793,1.2598-0.8398
				l5.9395-13.1396h20.6406l5.9395,13.1396c0.2402,0.5605,0.6797,0.8398,1.3203,0.8398
				C298.6201,60.9404,299.1396,60.4609,299.1396,59.501z M288.9404,43.9609h-17.8809L280,24.2207L288.9404,43.9609z
				 M283.0596,40.3008L280,33.2207l-3.1201,7.0801H283.0596z"/>
			<path class="st0" d="M361.7197,59.4404c0,1.8809-0.6602,3.4404-1.9795,4.6807c-1.3203,1.2393-2.8408,1.8594-4.5605,1.8594
				c-2.4805,0-4.2803-0.9805-5.3994-2.9395c-0.9209-1.5996-1.9805-5.04-3.1807-10.3203c-0.8398-3.7598-2.6201-5.6396-5.3398-5.6396
				h-9.8398v12.2998c0,2.001-0.7002,3.6191-2.0996,4.8604c-1.2402,1.0391-2.6807,1.5596-4.3203,1.5596
				c-1.6406,0-3.0596-0.5205-4.2598-1.5596c-1.4404-1.2412-2.1602-2.8594-2.1602-4.8604v-38.04
				c0-1.8799,0.5996-3.4199,1.7998-4.6201s2.7393-1.7998,4.6201-1.7998h19.2598c4.7197,0,8.7002,1.3799,11.9404,4.1396
				c3.5195,3,5.2803,6.9004,5.2803,11.7002s-1.8213,8.6807-5.4609,11.6396c0.6396,0.8008,1.46,2.8203,2.4609,6.0605
				C360.6396,55.3818,361.7197,59.041,361.7197,59.4404z M356.7998,59.4404c0-0.2793-0.0596-0.54-0.1797-0.7793
				c-0.6807-1.4795-1.4805-3.9395-2.4004-7.3799c-1.3604-5.1602-3.4004-8.5596-6.1201-10.2002
				c2.4004-0.7207,4.3594-1.8799,5.8809-3.4805c1.7188-1.8799,2.5791-4.1592,2.5791-6.8398c0-3.2793-1.1602-5.9189-3.4795-7.9199
				c-2.3203-2-5.2607-3-8.8203-3H325c-1,0-1.5,0.501-1.5,1.5v38.04c0,1,0.5,1.5,1.5,1.5c0.999,0,1.5-0.5,1.5-1.5V42.1611h14.7598
				c3.0801,0,5.46,1.04,7.1406,3.1201c1.1191,1.4395,2.0996,3.7002,2.9395,6.7793c0.4395,1.6406,0.8799,3.2998,1.3203,4.9805
				c0.4395,1.4395,0.8789,2.54,1.3203,3.2998c0.2793,0.4795,0.6797,0.7197,1.1992,0.7197
				C356.2598,61.0605,356.7998,60.5205,356.7998,59.4404z M353.5596,30.7607c0,2.4404-1.0791,4.4805-3.2393,6.1201
				c-2.001,1.5205-4.1611,2.2803-6.4805,2.2803H326.5V22.8408h17.8799c2.7197,0,4.9297,0.75,6.6299,2.25
				S353.5596,28.4805,353.5596,30.7607z M348.6396,31.001c0-0.8799-0.3594-1.6201-1.0801-2.2197
				c-0.8799-0.6797-2.0996-1.0205-3.6592-1.0205h-12.4805v6.4199h12.4199c1.4404,0,2.5996-0.29,3.4805-0.8701
				C348.1992,32.7314,348.6396,31.9609,348.6396,31.001z"/>
			<path class="st0" d="M384.8799,44.0811c-1.4805,0-2.8203-0.46-4.0195-1.3799c-1.3203-1-2.1406-2.3604-2.46-4.0801
				c-0.6406-3.6396-1.7207-8.4199-3.2402-14.3398c-0.1602-0.6396-0.2402-1.2002-0.2402-1.6807c0-1.999,0.7598-3.6191,2.2803-4.8594
				c1.2793-1.0801,2.7197-1.6201,4.3193-1.6201c1.3594,0,2.6201,0.4297,3.7803,1.29s1.96,2.0498,2.4004,3.5693
				c1.7598,6.2803,2.9189,11.3613,3.4795,15.2402c0.0801,0.4404,0.1201,0.8604,0.1201,1.2598c0,1.8809-0.5801,3.4502-1.7402,4.71
				C388.3994,43.4512,386.8398,44.0811,384.8799,44.0811z M386.2598,37.4805c-0.4004-2.7988-1.5205-7.8789-3.3594-15.2393
				c-0.2012-0.7598-0.6602-1.1406-1.3809-1.1406c-0.4795,0-0.8906,0.2012-1.2295,0.6006c-0.3408,0.4004-0.4502,0.8398-0.3301,1.3193
				c1.3994,5.04,2.5205,9.96,3.3604,14.7607c0.1592,0.8799,0.6797,1.3193,1.5596,1.3193
				C385.96,39.1006,386.4189,38.5605,386.2598,37.4805z M425.2598,23.7412c-0.2402,4.9199-1.2002,9.9199-2.8799,15
				c-1.7197,5.2793-3.9209,9.6592-6.5996,13.1396C409.5,60.001,401.04,65.1201,390.4004,67.2412
				c-0.4414,0.0791-0.8809,0.1191-1.3203,0.1191c-1.7607,0-3.291-0.6504-4.5898-1.9492c-1.3008-1.3008-1.9502-2.8701-1.9502-4.71
				c0-3.3203,1.5801-5.3408,4.7402-6.0605c8.5195-1.959,14.8398-5.6592,18.96-11.0996c3.8789-5.1201,5.8994-12.0801,6.0596-20.8799
				c0.04-1.96,0.7803-3.5195,2.2197-4.6807c1.2402-1.0391,2.6602-1.5596,4.2607-1.5596c2.04,0,3.6602,0.7109,4.8594,2.1299
				C424.8398,19.9707,425.3799,21.7012,425.2598,23.7412z M420.2803,22.9004c0.0391-0.999-0.4609-1.5-1.5-1.5
				c-0.96,0-1.4609,0.4805-1.5,1.4404c-0.3604,9.8799-2.8799,17.8408-7.5605,23.8799c-4.7998,6.2012-11.8193,10.3799-21.0596,12.54
				c-0.7607,0.1602-1.1406,0.6406-1.1406,1.4404c0,1.3193,0.6006,1.8398,1.8008,1.5596c9.7588-2.1602,17.2588-6.6201,22.5-13.3799
				C416.9395,42.2812,419.7598,33.6211,420.2803,22.9004z M400.6602,42.7012c-1.5205,0-2.8604-0.4404-4.0205-1.3203
				c-1.3193-1.04-2.0996-2.499-2.3398-4.3799c-0.5205-4.04-1.3799-8.8594-2.5801-14.46c-0.1201-0.4805-0.1797-0.9795-0.1797-1.5
				c0-1.7598,0.6201-3.2598,1.8604-4.5c1.2393-1.2393,2.7988-1.8604,4.6797-1.8604c1.4395,0,2.7393,0.4307,3.9004,1.29
				c1.1592,0.8604,1.9395,2.0703,2.3398,3.6299c1.2793,5.2412,2.2197,10.4609,2.8193,15.6602
				c0.2402,2.001-0.29,3.7402-1.5898,5.2197C404.25,41.9609,402.6191,42.7012,400.6602,42.7012z M402.2197,36.041
				c-0.7197-5.7998-1.6201-10.8799-2.7002-15.2402c-0.2002-0.7998-0.6797-1.2002-1.4395-1.2002c-0.4805,0-0.8809,0.1807-1.2002,0.54
				c-0.3203,0.3604-0.4199,0.8008-0.2998,1.3203c0.6797,3.4004,1.5596,8.3994,2.6396,15c0.1201,0.8799,0.6006,1.3203,1.4404,1.3203
				C401.8604,37.7812,402.3789,37.2012,402.2197,36.041z"/>
			<path class="st0" d="M485.7402,22.9609c0,5.0801-2.04,10.2207-6.1201,15.4199c-3.8398,4.96-8.2197,8.4209-13.1396,10.3799
				c-1.001,0.4004-1.8809,0.5996-2.6406,0.5996c-0.6807,0-1.4004-0.1396-2.1602-0.4199c-1.5996,4.2812-3.8701,7.9707-6.8096,11.0703
				c-2.9404,3.0996-6.3105,5.3301-10.1104,6.6904c-0.8008,0.2793-1.54,0.4199-2.2197,0.4199c-2.001,0-3.6211-0.7412-4.8604-2.2207
				c-1.0801-1.2803-1.6201-2.7393-1.6201-4.3799c0-2.6396,1.0596-4.4395,3.1807-5.3994c3.4395-1.5605,5.959-3.3008,7.5596-5.2207
				c2.7197-3.2393,4.0801-7.7598,4.0801-13.5596v-4.6797c0-0.6396,0.0996-1.2998,0.2998-1.9805H441.04
				c-2.001,0-3.6211-0.7197-4.8604-2.1602c-1.0801-1.2393-1.6201-2.6787-1.6201-4.3193c0-1.5996,0.54-3.04,1.6201-4.3203
				c1.2393-1.3994,2.8594-2.0996,4.8604-2.0996h38.2197c1.6807,0,3.1396,0.5,4.3799,1.5
				C485.04,19.4414,485.7402,21.001,485.7402,22.9609z M480.7598,22.9609c0-0.8398-0.5-1.2598-1.5-1.2598H441.04
				c-1,0-1.5,0.5-1.5,1.5c0,1.04,0.5,1.5596,1.5,1.5596h36.2998c-0.6807,3.7607-2.2598,7.0801-4.7402,9.96
				s-5.6006,5.1211-9.3594,6.7197c-0.6006,0.2402-0.9004,0.6807-0.9004,1.3203c0,1.0801,0.5,1.6201,1.5,1.6201
				c0.1201,0,0.3398-0.0391,0.6602-0.1201c4.0801-1.7598,7.7402-4.6201,10.9805-8.5801
				C478.999,31.3213,480.7598,27.0811,480.7598,22.9609z M458.8604,36.3408v-4.6797c0-0.96-0.501-1.4404-1.5-1.4404
				c-1.001,0-1.5,0.4805-1.5,1.4404v4.6797c0,5.6807-1.3408,10.6006-4.0205,14.7598c-2.5195,3.8398-5.7998,6.54-9.8398,8.1006
				c-0.6406,0.2393-0.96,0.6807-0.96,1.3193c0,1.0801,0.5,1.6201,1.5,1.6201c0.1201,0,0.2998-0.0391,0.54-0.1201
				c4.5195-1.6396,8.2393-4.6992,11.1602-9.1797C457.3193,48.041,458.8604,42.541,458.8604,36.3408z M470.1396,29.6807H463.54
				c0.1992,0.6807,0.2998,1.3408,0.2998,1.9805v3.5996C466.9199,33.3018,469.0195,31.4414,470.1396,29.6807z"/>
			<path class="st0" d="M547.4805,38.3203c0,1.6006-0.54,3.0215-1.6201,4.2607c-1.2002,1.4395-2.8008,2.1602-4.8008,2.1602h-42.2998
				c-2,0-3.5996-0.7207-4.7998-2.1602c-1.0801-1.2393-1.6201-2.6602-1.6201-4.2607c0-1.5986,0.54-3.0391,1.6201-4.3193
				c1.2393-1.4404,2.8398-2.1602,4.7998-2.1602h42.2998c1.96,0,3.5605,0.7197,4.8008,2.1602
				C546.9404,35.2812,547.4805,36.7217,547.4805,38.3203z M542.5,38.3203c0-1.0391-0.4805-1.5596-1.4404-1.5596h-42.2998
				c-0.96,0-1.4395,0.5205-1.4395,1.5596c0,1.001,0.4795,1.5,1.4395,1.5h42.2998C542.0195,39.8203,542.5,39.3213,542.5,38.3203z"/>
			<path class="st0" d="M605.3799,36.1006c0,1.9199-0.7402,3.501-2.2197,4.7402c-1.3203,1.0801-2.8008,1.5811-4.4404,1.5
				c-1.3193,1.9199-3.0996,2.8799-5.3398,2.8799c-1.96,0-3.7197-0.999-5.2803-3c-1.1602-1.7598-2.3398-3.5195-3.54-5.2803
				c-0.4404-0.5596-0.7793-1.1592-1.0195-1.7998c-3.4805,2.8408-5.2197,5.8408-5.2197,9c0,5.8408,5.1602,8.7598,15.4795,8.7598
				c2.1201,0,3.8604,0.5205,5.2197,1.5605c1.4795,1.1602,2.2207,2.7803,2.2207,4.8594c0,2.04-0.7002,3.6396-2.1006,4.8008
				c-1.4004,1.1592-3.1201,1.7393-5.1592,1.7393c-8.4004,0-15.1006-1.6797-20.1006-5.04c-5.6396-3.7588-8.46-9.3389-8.46-16.7393
				c0-5.1201,1.8604-9.8398,5.5801-14.1602c-2.3604,0.1201-4.8203,0.3203-7.3799,0.5996c-2.1602,0.2402-3.54,0.3604-4.1396,0.3604
				c-2.001,0-3.6211-0.7402-4.8604-2.2197c-1.041-1.2393-1.5605-2.6602-1.5605-4.2607c0-1.5596,0.5107-2.9697,1.5303-4.2295
				c1.0205-1.2598,2.4502-1.9893,4.29-2.1904c8.9199-0.9189,19.04-1.3799,30.3604-1.3799c5.04,0,8.1602,0.0605,9.3594,0.1807
				c4.4795,0.4404,6.7207,2.6006,6.7207,6.4795c0,2.7207-1.1406,4.54-3.4199,5.46
				C604.2197,31.8809,605.3799,34.3408,605.3799,36.1006z M600.3398,23.2607c0-0.999-0.5205-1.5195-1.5596-1.5596
				c-2.6006-0.0801-5.7812-0.1201-9.54-0.1201c-11.5205,0-21.4805,0.4404-29.8799,1.3193c-0.8809,0.0811-1.3203,0.5811-1.3203,1.5
				c0,1.001,0.54,1.5,1.6201,1.5c10.3994-1.0801,20.0996-1.6191,29.0996-1.6191c-4.6797,1.1992-8.7998,3.5605-12.3594,7.0791
				c-4.001,3.96-6,8.2012-6,12.7207c0,5.4805,2.2197,9.6807,6.6592,12.5996c4.1602,2.8008,9.7998,4.2002,16.9209,4.2002h0.7793
				c1,0,1.5-0.5195,1.5-1.5605c0-0.999-0.5-1.4785-1.5-1.4395h-0.96c-6.8799,0-12.0801-1.3203-15.5996-3.96
				c-3.2012-2.4004-4.7998-5.6602-4.7998-9.7803c0-4.6797,2.46-8.9395,7.3799-12.7803c5.04-3.999,11.0791-6.1992,18.1201-6.5996
				C599.8604,24.7217,600.3398,24.2207,600.3398,23.2607z M594.7598,38.9805c0-0.2793-0.0596-0.499-0.1797-0.6602
				c-0.96-1.959-2.3604-3.999-4.2002-6.1191c-0.3203-0.3604-0.6406-0.54-0.96-0.54c-0.9209,0-1.3799,0.4404-1.3799,1.3193
				c0,0.2402,0.0996,0.5205,0.2998,0.8398c1.7197,2.04,3.0195,3.9609,3.9004,5.7607c0.3193,0.4795,0.6992,0.7197,1.1396,0.7197
				C594.2998,40.3008,594.7598,39.8613,594.7598,38.9805z M600.46,36.1006c0-0.1992-0.0596-0.4199-0.1797-0.6602
				c-1.041-1.959-2.4209-3.999-4.1406-6.1201c-0.2803-0.3594-0.6201-0.5391-1.0195-0.5391c-0.8809,0-1.3203,0.46-1.3203,1.3799
				c0,0.2393,0.0996,0.5,0.2998,0.7793c1,1.3203,2.2803,3.2402,3.8408,5.7607c0.2393,0.4795,0.6191,0.7197,1.1396,0.7197
				C600,37.4209,600.46,36.9814,600.46,36.1006z"/>
			<path class="st0" d="M661.1201,46.7812c0,6-1.9805,10.71-5.9404,14.1299s-9.2393,5.1299-15.8398,5.1299
				c-5.04,0-9.3398-1.041-12.8994-3.1201c-3.96-2.3193-6.54-5.7598-7.7402-10.3203c-0.1602-0.5195-0.2402-1.0596-0.2402-1.6201
				c0-2.4395,0.999-4.2793,3-5.5195c-1-1.2393-1.5-2.6797-1.5-4.3203v-1.3799l1.5-18.8398
				c0.1592-1.7598,0.8301-3.2002,2.0098-4.3203c1.1797-1.1191,2.6699-1.6797,4.4707-1.6797h25.0791c2,0,3.6201,0.7197,4.8604,2.1602
				c1.0801,1.2402,1.6201,2.6797,1.6201,4.3193c0,1.6006-0.54,2.9805-1.6201,4.1406c-1.2402,1.3604-2.8604,2.04-4.8604,2.04
				h-19.3193l-0.1807,3.1201c2.2002-0.7998,4.7803-1.2002,7.7402-1.2002c5.6797,0,10.2803,1.3408,13.7998,4.0195
				C659.0996,36.5615,661.1201,40.9814,661.1201,46.7812z M656.1396,46.7812c0-4.1602-1.3799-7.3398-4.1396-9.54
				c-2.6006-2.04-6.1797-3.0605-10.7402-3.0605c-4.4004,0-8.7803,1.2598-13.1396,3.7803l1.2002-15.0605h23.6992
				c1,0,1.5-0.499,1.5-1.5c0-1.0391-0.5-1.5596-1.5-1.5596h-25.0791c-0.9209,0-1.4209,0.4795-1.5,1.4404l-1.5,19.6191
				c-0.0811,1.1611,0.3193,1.7402,1.1992,1.7402c0.4404,0,0.8799-0.1797,1.3203-0.54c4.04-3.3594,8.6396-5.04,13.7998-5.04
				c3.6797,0,6.5498,0.8203,8.6104,2.46c2.0596,1.6406,3.0898,4.0801,3.0898,7.3203c0,3.4795-1.2295,6.2207-3.6904,8.2197
				c-2.46,2.001-5.7695,3-9.9297,3c-7.2002,0-11.4805-2.5391-12.8398-7.6201c-0.2002-0.7197-0.6602-1.0801-1.3799-1.0801
				c-1.0801,0-1.6201,0.4414-1.6201,1.3203c0,0.2012,0.0391,0.3809,0.1201,0.54c1.8389,6.5605,7.0801,9.8398,15.7197,9.8398
				c5.2803,0,9.3994-1.2793,12.3604-3.8398C654.6602,54.6611,656.1396,51.1816,656.1396,46.7812z M648.04,46.8408
				c0-1.3994-0.501-2.5596-1.5-3.4805c-1.2402-1.0791-3.0811-1.6191-5.5205-1.6191c-2.5596,0-4.8994,0.5801-7.0195,1.7393
				c-1.4404,0.96-2.9004,1.9414-4.3799,2.9404c0.5596,0.8008,1.0195,1.7197,1.3799,2.7598c0.999,2.8008,3.7803,4.2002,8.3398,4.2002
				C645.1396,53.3809,648.04,51.2012,648.04,46.8408z"/>
			<path class="st0" d="M727.7197,40.9609c0,2.7207-1.1602,4.6406-3.4795,5.7598c-0.041,4.7998-0.1406,7.8809-0.2998,9.2402
				c-0.4004,3.4004-1.4014,5.9805-3,7.7402c-2.001,2.1592-5.0615,3.2393-9.1807,3.2393c-4.96,0-8.04-1.2402-9.2402-3.7197h-22.3193
				c-1.8408,0-3.3604-0.5996-4.5605-1.7998c-1.1992-1.2002-1.7998-2.7393-1.7998-4.6201v-7.4404c0-1.6396,0.5-3.0391,1.5-4.1992
				c0.8799-1,1.9805-1.6602,3.2998-1.9805V23.7412c0-1.8799,0.6006-3.4102,1.8008-4.5908c1.1992-1.1787,2.7197-1.7695,4.5596-1.7695
				h6.96c1.0801-1.7998,1.9199-3,2.5205-3.5996c1.0791-1.04,2.4385-1.5605,4.0791-1.5605c1.4404,0,2.7803,0.4707,4.0205,1.4102
				c1.2393,0.9404,2,2.1895,2.2803,3.75h7.6201c1.8789,0,3.4092,0.5908,4.5898,1.7695c1.1787,1.1807,1.7695,2.7109,1.7695,4.5908
				v10.8594h2.5205c1.959,0,3.5596,0.7197,4.7998,2.1602C727.1992,38.001,727.7197,39.4004,727.7197,40.9609z M719.2598,46.6611
				c0-0.9199-0.4795-1.3799-1.4395-1.3799H686.5v-2.8809h34.8604c0.9189,0,1.3799-0.4795,1.3799-1.4395
				c0-0.9199-0.4609-1.3799-1.3799-1.3799H686.5v-2.8203h25.9805c0.96,0,1.4395-0.4795,1.4395-1.4404V23.7412
				c0-0.9199-0.4795-1.3809-1.4395-1.3809h-14.4609C699.3398,20.001,700,18.7412,700,18.5811c0-0.9199-0.4805-1.3799-1.4404-1.3799
				c-0.5605,0-0.96,0.2393-1.1992,0.7197c-0.6807,1.1602-1.541,2.6396-2.5801,4.4395H685c-0.9209,0-1.3799,0.4609-1.3799,1.3809
				v22.9199c0,0.96,0.459,1.4395,1.3799,1.4395h7.0801v7.3203h-10.4404v-6.0605c0-0.9189-0.4795-1.3799-1.4395-1.3799
				c-0.9209,0-1.3799,0.4609-1.3799,1.3799v7.4404c0,0.96,0.459,1.4404,1.3799,1.4404h27.5996c0.96,0,1.4404-0.4805,1.4404-1.4404
				v-6.6602c0-0.9199-0.4805-1.3799-1.4404-1.3799c-0.9209,0-1.3799,0.46-1.3799,1.3799v5.2803h-11.5195v-7.3203h21.4199
				c0,4.4805-0.1006,7.2207-0.3008,8.2197c-0.3594,1.8809-1.7803,2.8203-4.2598,2.8203c-1,0-2.0605-0.0791-3.1797-0.2402
				c-0.0811-0.0391-0.1797-0.0596-0.2998-0.0596c-0.9209,0-1.3799,0.501-1.3799,1.5c0,0.8008,0.3994,1.2598,1.1992,1.3799
				c1.2402,0.2012,2.46,0.2998,3.6602,0.2998c4.04,0,6.3994-1.7188,7.0801-5.1602
				C719.1191,55.4209,719.2598,52.0215,719.2598,46.6611z M710.9805,28.0605H686.5v-2.8799h24.4805V28.0605z M710.9805,33.9404
				H686.5v-3.0596h24.4805V33.9404z"/>
			<path class="st0" d="M787.7197,59.6807c0,1.6006-0.54,3.0205-1.6201,4.2598c-1.1992,1.4004-2.7803,2.1006-4.7393,2.1006h-22.5
				c-5.001,0-9.1406-0.9004-12.4199-2.7002c-3.0811,2.6396-5.541,3.96-7.3809,3.96c-1.8799,0-3.4199-0.6602-4.6191-1.9805
				c-1.2002-1.3193-1.8008-2.8193-1.8008-4.5c0-1.7998,0.8193-3.459,2.46-4.9795c1.4795-1.2002,2.96-2.4199,4.4404-3.6602
				l0.3604-0.3604v-8.0996h-1.2607c-2,0-3.5996-0.7197-4.7998-2.1602c-1.0801-1.2393-1.6201-2.6592-1.6201-4.2598
				c0-1.6396,0.54-3.0801,1.6201-4.3203c1.2002-1.3994,2.7998-2.0996,4.7998-2.0996h5.46
				c-0.7598-0.4805-1.8701-1.3496-3.3301-2.6104c-1.46-1.2598-2.5703-2.1094-3.3291-2.5498
				c-2.1602-1.2793-3.2402-3.1201-3.2402-5.5195c0-1.6396,0.5898-3.1299,1.7695-4.4707c1.1797-1.3398,2.7305-2.0098,4.6504-2.0098
				c1.1191,0,2.2197,0.2998,3.2998,0.9004c0.96,0.5996,1.8799,1.2207,2.7598,1.8594c2.0801,1.5205,3.8398,3,5.2803,4.4404
				c0.2793-0.6797,0.6797-1.7002,1.2002-3.0605c1.0391-2.7988,3.0195-4.1992,5.9395-4.1992c1.8799,0,3.5,0.6807,4.8604,2.04
				c1.2002-1.3594,2.7598-2.04,4.6797-2.04c2.1602,0,3.9004,0.8604,5.2207,2.5801c1.2393-1.7197,2.959-2.5801,5.1592-2.5801
				c1.5605,0,2.9795,0.5195,4.2607,1.5596c1.4795,1.2002,2.2197,2.7803,2.2197,4.7402c0,1.7998-2.1211,7.1006-6.3604,15.8994
				c4.6396,9.7607,6.96,15.8008,6.96,18.1201c0,0.3213-0.04,0.7207-0.1191,1.2002C787.1396,56.541,787.7197,58.041,787.7197,59.6807
				z M782.7402,59.6807c0-1.04-0.501-1.5596-1.5-1.5596h-22.2598c-7.4404,0-11.1602-1.8398-11.1602-5.5205V37.3008
				c0-0.999-0.501-1.5-1.5-1.5h-7.6807c-0.96,0-1.4395,0.501-1.4395,1.5c0,0.96,0.4795,1.4404,1.4395,1.4404h6.2402v13.8594
				c0,0.4404,0.0195,0.7803,0.0605,1.0205c-2.3613,2.3604-4.6201,4.4004-6.7803,6.1201c-0.3604,0.2393-0.54,0.5996-0.54,1.0791
				c0,1.001,0.4795,1.5,1.4395,1.5c0.2803,0,0.54-0.0791,0.7803-0.2393c2.3594-1.5605,4.4795-3.3398,6.3604-5.3398
				c2.2803,2.8799,6.499,4.3193,12.6602,4.3193h22.5C782.2793,61.0605,782.7402,60.6016,782.7402,59.6807z M749.1396,25.6611
				c0-0.3604-0.1406-0.6797-0.4199-0.96c-1.8799-2-4.3193-3.9395-7.3193-5.8203c-0.2803-0.1201-0.54-0.1797-0.7803-0.1797
				c-0.96,0-1.4404,0.5-1.4404,1.5c0,0.5195,0.2402,0.9199,0.7207,1.1992c0.7988,0.4805,1.5791,0.9814,2.3398,1.5
				c1.7998,1.2402,3.2793,2.4814,4.4395,3.7207c0.3203,0.3203,0.6602,0.4795,1.0205,0.4795
				C748.6602,27.1006,749.1396,26.6211,749.1396,25.6611z M761.2598,53.9805c0-0.1201-0.04-0.2793-0.1201-0.4795
				c-1-4.04-3.4795-9.9199-7.4395-17.6406c4.5996-9.4395,6.8994-14.7393,6.8994-15.8994c0-0.9199-0.5-1.3799-1.5-1.3799
				c-0.6396,0-1.0801,0.3203-1.3193,0.96c-1.5205,4.2803-3.8613,9.46-7.0205,15.54c-0.0801,0.1201-0.1201,0.3594-0.1201,0.7197
				c0,0.1602,0.04,0.4004,0.1201,0.7197c1.04,2.0811,2.0195,4.1006,2.9404,6.0605c2.1191,4.6406,3.6602,8.5596,4.6201,11.7598
				c0.1992,0.7197,0.6602,1.0801,1.3799,1.0801C760.7393,55.4209,761.2598,54.9404,761.2598,53.9805z M770.7998,53.9805
				c0-0.1201-0.04-0.2793-0.1201-0.4795c-1.1602-4.5605-3.6602-10.4404-7.5-17.6406c4.6396-9.0391,6.96-14.3398,6.96-15.8994
				c0-0.9199-0.5-1.3799-1.5-1.3799c-0.6396,0-1.0801,0.3203-1.3193,0.96c-1.5205,4.2803-3.8613,9.46-7.0205,15.54
				c-0.0801,0.1201-0.1201,0.3594-0.1201,0.7197c0,0.2803,0.04,0.5205,0.1201,0.7197c1.04,2.0811,2.0195,4.1006,2.9404,6.0605
				c2.1191,4.6406,3.6602,8.5596,4.6201,11.7598c0.1992,0.7197,0.6592,1.0801,1.3799,1.0801
				C770.2793,55.4209,770.7998,54.9404,770.7998,53.9805z M781.1201,53.9805c0-0.2393-0.0205-0.3994-0.0605-0.4795
				c-1.4004-4.7598-3.8994-10.6396-7.5-17.6406c3.1602-6.1592,5.4395-11.2793,6.8408-15.3594
				c0.0791-0.2402,0.1191-0.4199,0.1191-0.54c0-0.9199-0.5-1.3799-1.5-1.3799c-0.6396,0-1.0791,0.3203-1.3193,0.96
				c-1.5205,4.2803-3.8809,9.46-7.0801,15.54c-0.0811,0.2393-0.1201,0.4795-0.1201,0.7197c0,0.1602,0.0391,0.4004,0.1201,0.7197
				c1.04,2.0811,2.0195,4.1006,2.9395,6.0605c2.1201,4.6406,3.6797,8.5596,4.6807,11.7598
				c0.2402,0.7197,0.6992,1.0801,1.3799,1.0801C780.6191,55.4209,781.1201,54.9404,781.1201,53.9805z"/>
			<path class="st0" d="M841.8398,38.1406c0,9.1602-2.5801,16.2402-7.7402,21.2402c-4.9199,4.7598-11.9199,7.4189-21,7.9795
				c-2.04,0.1201-3.7402-0.5801-5.0996-2.0996c-1.2002-1.3604-1.7998-2.8203-1.7998-4.3799c0-3.5596,1.999-5.6602,6-6.2998
				c3.4395-0.5195,5.6592-0.9395,6.6602-1.2607c2.959-0.9189,5.2393-2.3594,6.8398-4.3193
				c2.1191-2.5996,3.1797-6.1396,3.1797-10.6201c0-2.7598-0.2998-5.0996-0.8994-7.0205c-0.8008-2.5996-2.04-3.8994-3.7207-3.8994
				c-2.5605,0-5.2402,2-8.04,6s-4.2598,7.9404-4.3799,11.8203c-0.0801,1.9199-0.7803,3.46-2.0996,4.6191
				c-1.3203,1.1611-2.8008,1.7402-4.4404,1.7402c-4.0801,0-6.2002-1.959-6.3594-5.8799c-0.041-0.999-0.0605-2.3398-0.0605-4.0195
				c0-8,0.4395-15.4209,1.3203-22.2607c0.2402-1.8389,1.0391-3.3193,2.3994-4.4395c1.2402-1,2.6201-1.5,4.1406-1.5
				c1.3994,0,2.6787,0.4199,3.8398,1.2598c1.3203,0.96,2.1191,2.2402,2.4004,3.8398c3.5996-2.7598,7.5195-4.1396,11.7598-4.1396
				c5.9189,0,10.3799,2.5195,13.3799,7.5596C840.5996,26.2607,841.8398,31.6211,841.8398,38.1406z M836.8604,38.1406
				c0-4.959-0.8008-9.0596-2.4004-12.2998c-2.0801-4.2393-5.3203-6.3604-9.7197-6.3604c-3.7607,0-7.2812,1.541-10.5605,4.6201
				c-3.0801,2.9209-5.54,6.7607-7.3799,11.5205c0.2793-4.2803,0.7197-9.4805,1.3203-15.6006c0-0.999-0.46-1.5-1.3799-1.5
				c-1.001,0-1.541,0.4805-1.6201,1.4404c-0.8809,8.8799-1.3203,16.2998-1.3203,22.2598c0,0.7607,0.0195,1.7803,0.0605,3.0605
				c0.0391,0.9199,0.5186,1.3799,1.4395,1.3799c1.04,0,1.5801-0.5195,1.6201-1.5605c0.1592-4.6797,1.8994-9.4795,5.2197-14.3994
				c3.6797-5.4805,7.7197-8.2207,12.1201-8.2207c6.3994,0,9.6006,5.3008,9.6006,15.9004c0,12.8799-7.1006,19.8809-21.3008,21
				c-0.9199,0.0801-1.3799,0.5801-1.3799,1.5c0,1.0801,0.54,1.5801,1.6201,1.5C828.8398,61.2617,836.8604,53.1807,836.8604,38.1406z
				"/>
			<path class="st0" d="M905.5596,37.0605c0,3.4805-1.7393,5.541-5.2197,6.1807c-3.0801,0.5605-5.7803,1.0791-8.0996,1.5596
				c0.0391,0.3604,0.0596,0.8799,0.0596,1.5596c0,3.7207-0.1006,6.0215-0.2998,6.9004c2.04-0.1592,3.7393-0.2598,5.0996-0.2998
				c2-0.0801,3.6797,0.6201,5.04,2.0996c1.2002,1.3203,1.8008,2.7598,1.8008,4.3203c0,3.6396-2.0205,5.7598-6.0605,6.3604
				c-2.6396,0.3994-6.8799,0.5996-12.7197,0.5996c-15.6006,0-23.2197-4.6396-22.8604-13.9199
				c-0.4795,0.1201-0.96,0.1797-1.4395,0.1797c-1.7607,0-3.291-0.6494-4.5908-1.9502c-1.2998-1.2988-1.9492-2.8291-1.9492-4.5898
				c0-1.5195,0.5596-2.959,1.6797-4.3193c2.5996-3.1602,5.1201-6.7002,7.5596-10.6201h-2.1592
				c-1.9199,0-3.4707-0.6396-4.6504-1.9199c-1.1807-1.2803-1.7695-2.7607-1.7695-4.4404s0.5889-3.1504,1.7695-4.4102
				c1.1797-1.2598,2.7305-1.8896,4.6504-1.8896h9.4199c1.2793-2.4395,2.1191-3.9004,2.5195-4.3799
				c1.1191-1.2803,2.6191-1.9199,4.5-1.9199c1.5996,0,3.0391,0.54,4.3203,1.6201c1.3994,1.1992,2.1191,2.7598,2.1602,4.6797h9.4795
				c1.9199,0,3.5,0.6602,4.7402,1.9795c1.1191,1.2002,1.6797,2.6406,1.6797,4.3203c0,1.6406-0.5801,2.9697-1.7393,3.9902
				c-1.1611,1.0195-2.7207,1.5303-4.6807,1.5303h-7.6797c1.1592,0.7598,2.1191,1.7393,2.8799,2.9395
				c5.3193-1.2002,8.7197-1.7998,10.2002-1.7998c2.04,0,3.6396,0.5996,4.7998,1.7998
				C905.04,34.3008,905.5596,35.5811,905.5596,37.0605z M898.9004,35.501c-3.4004,0.3594-7.5605,1.2402-12.4805,2.6396
				c-1.2402-4.0391-4.041-6.0596-8.4004-6.0596c-3.0801,0-5.8799,1.1797-8.3994,3.54c0.7588-1.04,2.7393-4.1797,5.9395-9.4199
				h18.2402c1,0,1.5-0.4805,1.5-1.4404c0-0.9199-0.5-1.3799-1.5-1.3799h-16.6201c0.8398-1.5605,1.54-2.9404,2.1006-4.1396
				c0.0791-0.1602,0.1201-0.3799,0.1201-0.6602c0-1-0.5205-1.5-1.5605-1.5c-0.5996,0-1.04,0.2998-1.3203,0.8994
				c-0.7197,1.5605-1.6406,3.3604-2.7598,5.4004h-12.3594c-1.001,0-1.5,0.46-1.5,1.3799c0,0.96,0.499,1.4404,1.5,1.4404h10.7998
				c-4.0801,7.4395-8.2607,13.7197-12.54,18.8398c-0.2803,0.4004-0.4199,0.7402-0.4199,1.0195c0,0.4004,0.1699,0.7705,0.5098,1.1104
				s0.71,0.5098,1.1104,0.5098c0.4395,0,0.7793-0.1992,1.0195-0.5996c2.1201-3.4805,4.7998-6.46,8.04-8.9404
				c3.0801-2.3594,5.5996-3.54,7.5605-3.54c3.0391,0,5.0791,1.4609,6.1191,4.3799c-10.96,3.5605-16.4199,8.1406-16.3799,13.7402
				c0.04,4.6006,3.4805,7.3604,10.3203,8.2803c2.0791,0.2803,4.6201,0.4199,7.6201,0.4199s7.1396-0.1797,12.4199-0.54
				c0.96-0.0801,1.4395-0.5791,1.4395-1.5c0-0.3994-0.1699-0.7598-0.5098-1.0801c-0.3398-0.3193-0.71-0.459-1.1094-0.4199
				c-5.9209,0.4795-10.4805,0.7197-13.6807,0.7197c-2.3203,0-4.2002-0.0996-5.6396-0.2998
				c-5.2803-0.7197-7.9004-2.6602-7.8604-5.8203c0.04-4.1992,4.7197-7.7393,14.04-10.6201c0.1201,1.1211,0.1807,2.3008,0.1807,3.54
				c0,0.8008-0.0303,2.1514-0.0908,4.0508c-0.0596,1.9004-0.0898,3.1104-0.0898,3.6299c0,1,0.5,1.5,1.5,1.5
				c1.04,0,1.5605-0.5,1.5605-1.5c0-0.4805,0.0195-1.5605,0.0596-3.2402c0-1.6797,0-2.8398,0-3.4805
				c0-2.1191-0.1006-3.8994-0.2998-5.3398c4.7998-1.1592,8.8799-1.9795,12.2402-2.46c0.8789-0.1201,1.3193-0.6191,1.3193-1.5
				C900.6396,35.9014,900.0596,35.3809,898.9004,35.501z M879.9404,53.9209c-0.2012-0.6797-0.3008-1.3594-0.3008-2.04
				c0-0.96,0.04-2.1992,0.1201-3.7197c-3.0801,1.2402-4.6201,2.5-4.6201,3.7793C875.1396,53.3809,876.7393,54.041,879.9404,53.9209z
				"/>
			<path class="st0" d="M967.7803,53.6807c0,1.7607-0.6406,3.2705-1.9199,4.5303c-1.2812,1.2598-2.7812,1.8896-4.5,1.8896
				c-2.001,0-3.5811-0.7197-4.7402-2.1602c-0.1602-0.1992-0.6006-0.7393-1.3203-1.6201c-0.7598,0.3604-1.6201,0.54-2.5801,0.54
				h-1.5596v4.4404c0,1.959-0.7002,3.54-2.1006,4.7402c-1.2402,1.0801-2.6797,1.6201-4.3193,1.6201
				c-1.6006,0-3.0205-0.54-4.2598-1.6201c-1.4014-1.2002-2.1006-2.7812-2.1006-4.7402v-4.4404H937.54
				c-0.9209,0-1.7607-0.1592-2.5205-0.4795c-0.7598,0.8799-1.4297,1.6201-2.0098,2.2197c-0.5801,0.6006-1.1094,1.0205-1.5898,1.2598
				v1.4404c0,1.959-0.6699,3.5098-2.0098,4.6504c-1.3408,1.1396-2.8105,1.71-4.4102,1.71c-1.6006,0-3.0205-0.54-4.2598-1.6201
				c-1.4004-1.2002-2.1006-2.7812-2.1006-4.7402V45.2812c-1.7197,0-3.2305-0.6201-4.5293-1.8604
				c-1.3008-1.2393-1.9502-2.7803-1.9502-4.6201c0-1.3203,0.4199-2.5801,1.2598-3.7803c1.2002-1.7188,2.3398-3.499,3.4199-5.3398
				c2.4004-4.2393,4.3203-8.5195,5.7598-12.8398c0.4404-1.3594,1.2197-2.4199,2.3408-3.1797
				c1.1191-0.7598,2.3193-1.1406,3.5996-1.1406c1.5996,0,3.0391,0.54,4.3203,1.6201c1.4395,1.2002,2.1592,2.7812,2.1592,4.7402
				c0,0.6807-0.2002,1.6797-0.5996,3h3.96v-3.0605c0-1.999,0.6992-3.5996,2.1006-4.7998c1.2393-1.0801,2.6592-1.6201,4.2598-1.6201
				c1.6396,0,3.0791,0.54,4.3193,1.6201c1.4004,1.2002,2.1006,2.8008,2.1006,4.7998v3.0605h9.1797c1.96,0,3.54,0.7002,4.7402,2.0996
				c1.0801,1.2402,1.6201,2.6611,1.6201,4.2607s-0.54,3.0205-1.6201,4.2598c-1.2002,1.4004-2.7803,2.0996-4.7402,2.0996h-4.2002
				c2.5996,5.2002,5.9199,10.1406,9.96,14.8203C967.2197,50.6611,967.7803,52.0811,967.7803,53.6807z M930.04,18.8809
				c0-0.96-0.501-1.4404-1.5-1.4404c-0.6406,0-1.0605,0.3213-1.2598,0.96c-2.3203,7.0801-5.6201,13.6006-9.9004,19.5605
				c-0.2002,0.2402-0.2998,0.5205-0.2998,0.8398c0,0.4004,0.1592,0.7607,0.4795,1.0801c0.3203,0.3203,0.6797,0.4795,1.0801,0.4795
				c0.4404,0,0.7998-0.2188,1.0801-0.6592c0.6006-0.8408,1.8799-2.8809,3.8398-6.1201v27.7197c0,0.96,0.4805,1.4404,1.4404,1.4404
				c0.999,0,1.5-0.4805,1.5-1.4404V28.0605c1.2793-2.5996,2.4395-5.499,3.4805-8.7002
				C930.0195,19.2412,930.04,19.0811,930.04,18.8809z M962.7998,53.6807c0-0.3604-0.1201-0.6797-0.3594-0.96
				c-1.9209-2.2393-3.6807-4.5391-5.2803-6.9004c-3.8809-5.6396-6.6602-11.0186-8.3398-16.1396h11.5195
				c0.96,0,1.4404-0.4795,1.4404-1.4395s-0.4805-1.4404-1.4404-1.4404h-14.0996v-7.9805c0-0.999-0.501-1.5-1.5-1.5
				c-0.96,0-1.4404,0.501-1.4404,1.5v7.9805H929.5c-0.96,0-1.4404,0.4805-1.4404,1.4404s0.4805,1.4395,1.4404,1.4395h11.4004
				c-2.1602,8.2803-6.6406,16.1006-13.4404,23.46c-0.3203,0.3203-0.4795,0.6602-0.4795,1.0205c0,0.96,0.499,1.4395,1.5,1.4395
				c0.3984,0,0.7393-0.1396,1.0195-0.4199c2-2.1992,3.8193-4.4795,5.46-6.8398c3.96-5.6797,6.7393-11.2998,8.3398-16.8604V49.001
				H937.54c-1,0-1.5,0.4795-1.5,1.4395c0,1.001,0.5,1.5,1.5,1.5h5.7598v9.3604c0,0.96,0.4805,1.4404,1.4404,1.4404
				c0.999,0,1.5-0.4805,1.5-1.4404v-9.3604h6.4795c1,0,1.5-0.499,1.5-1.5c0-0.96-0.5-1.4395-1.5-1.4395h-6.4795V30.8809
				c2.5596,7.7998,7.2393,15.7197,14.04,23.7598c0.3193,0.3604,0.6797,0.54,1.0801,0.54
				C962.3203,55.1807,962.7998,54.6807,962.7998,53.6807z M934.5996,34.3604H931v7.2002
				C931.96,39.9609,933.1602,37.5615,934.5996,34.3604z"/>
			<path class="st0" d="M1027.8398,29.2012c0,2.1592-0.8604,3.8799-2.5801,5.1592c0.1592,0.6006,0.2402,1.2812,0.2402,2.04V46.541
				c0,1.5205-0.4404,2.8408-1.3203,3.96c-0.8799,1.1201-2.04,1.8398-3.4795,2.1602c1.2002,1.04,2.4199,1.9004,3.6602,2.5801
				c2.2393,1.1602,3.3594,2.9795,3.3594,5.46c0,1.5996-0.5605,3.0195-1.6797,4.2598c-1.2002,1.3994-2.7402,2.0996-4.6201,2.0996
				c-1.041,0-2.0303-0.2607-2.9697-0.7793c-0.9404-0.5205-1.8701-1.1211-2.79-1.8008c-2.1602-1.5596-4.1006-3.2998-5.8203-5.2197
				c-2.4805,3.1602-5.3799,5.6797-8.7002,7.5596c-0.96,0.5195-1.96,0.7803-3,0.7803c-1.5996,0-2.9395-0.4795-4.0195-1.4395
				c-0.8809,0.2393-1.9004,0.3594-3.0605,0.3594c-3.8799,0-6.4199-1.1602-7.6191-3.4795c-1.2002,1.3994-2.7607,2.0996-4.6807,2.0996
				c-2.1602,0-3.8799-0.8604-5.1602-2.5801c-0.8398-1.1191-1.2598-2.4795-1.2598-4.0801c0-0.3994,0.0391-0.7588,0.1201-1.0801
				c0.96-3.6797,1.5-7.4189,1.6201-11.2197c0.0391-1.5195,0.2402-2.7197,0.5996-3.5996V20.501c0-1.7998,0.5898-3.2998,1.7705-4.5
				c1.1787-1.2002,2.6699-1.7998,4.4697-1.7998h15.4805c2.7197,0,4.6396,1.2598,5.7598,3.7793
				c0.4795-0.5596,1.0996-1.3799,1.8594-2.46c1.3203-1.8389,3.04-2.7598,5.1602-2.7598c2.4004,0,4.2393,0.8604,5.5205,2.5801
				c2.4395,3.2803,5.7393,6.1006,9.8994,8.46C1026.7598,25.001,1027.8398,26.8008,1027.8398,29.2012z M981.6396,46.3604
				c0-0.8789-0.4404-1.3193-1.3193-1.3193c-0.8398,0-1.2607,0.4199-1.2607,1.2598c-0.04,1.4805-0.1191,2.8799-0.2393,4.2002
				c-0.3213,3.2402-0.7803,5.8799-1.3799,7.9199c-0.041,0.1201-0.0605,0.2607-0.0605,0.4199c0,0.8799,0.46,1.3203,1.3799,1.3203
				c0.6006,0,1-0.3203,1.2002-0.96C981.04,55.5215,981.5996,51.2412,981.6396,46.3604z M997.7197,20.501
				c0-0.8799-0.4404-1.3203-1.3193-1.3203h-15.4805c-0.8799,0-1.3203,0.4404-1.3203,1.3203v21.4199
				c0,0.8799,0.4404,1.3203,1.3203,1.3203h13.7402v1.4395c0,2.1211-0.1006,4.4209-0.2998,6.9004
				c-0.3604-1.8398-0.8613-3.9395-1.5-6.2998c-0.1611-0.6797-0.54-1.0205-1.1406-1.0205c-0.8799,0-1.3193,0.46-1.3193,1.3799
				c0,0.04,0.0195,0.1006,0.0596,0.1797c0,0.0811,0,0.1611,0,0.2402c0.3193,1.0801,0.7998,3.1406,1.4404,6.1807
				c0.1191,0.7197,0.5186,1.0791,1.1992,1.0791c0.5195,0,0.9004-0.1992,1.1406-0.5996c-0.0811,1.0801-0.2607,2.4404-0.54,4.0801
				c-0.2402,1.4004-1.1807,2.0996-2.8203,2.0996c-0.4404,0-0.96-0.0596-1.5596-0.1797h-0.3008c-0.8799,0-1.3193,0.46-1.3193,1.3799
				c0,0.7197,0.3896,1.1406,1.1699,1.2598c0.7803,0.1201,1.5088,0.1807,2.1895,0.1807c3.04,0,4.8008-1.46,5.2803-4.3799
				c0.6396-4.04,0.96-8.5,0.96-13.3799v-1.8604c-0.04-0.8398-0.4795-1.2598-1.3193-1.2598h-5.8203v-4.7402h5.5195
				c0.8799,0,1.3203-0.4395,1.3203-1.3203c0-0.8789-0.4404-1.3193-1.3203-1.3193h-5.5195v-4.5605h5.5195
				c0.8799,0,1.3203-0.4395,1.3203-1.3203c0-0.8789-0.4404-1.3193-1.3203-1.3193h-5.5195v-4.2607h6.2402
				C997.2793,21.8203,997.7197,21.3809,997.7197,20.501z M987.5195,26.0811h-5.2793v-4.2607h5.2793V26.0811z M987.5195,33.2812
				h-5.2793v-4.5605h5.2793V33.2812z M987.5195,40.6611h-5.2793v-4.7402h5.2793V40.6611z M985.6602,54.9404
				c0-2.3594-0.0811-5.2393-0.2402-8.6396c-0.04-0.8398-0.4404-1.2598-1.2002-1.2598c-0.9199,0-1.3604,0.4795-1.3193,1.4395
				c0.1191,3,0.1797,5.6211,0.1797,7.8604c0,0.5205-0.0205,1.3203-0.0605,2.4004c-0.04,0.8799,0.3994,1.3193,1.3203,1.3193
				c0.8398,0,1.2803-0.4199,1.3203-1.2598V54.9404z M990.3398,54.5205v-0.2393c-0.2002-2.1602-0.6201-4.96-1.2598-8.4004
				c-0.1201-0.6797-0.501-1.0205-1.1396-1.0205c-0.8408,0-1.2607,0.4209-1.2607,1.2607v0.2393
				c0.2793,1.6006,0.6602,4.3408,1.1406,8.2207c0.0391,0.8398,0.459,1.2598,1.2598,1.2598
				C989.9199,55.8408,990.3398,55.4014,990.3398,54.5205z M1022.7402,60.7012c0-0.5195-0.2402-0.8799-0.7207-1.0801
				c-1.5596-0.9199-2.96-1.9199-4.1992-3c-3.041-2.6406-5.1211-5.5596-6.2402-8.7607h7.6797c0.8799,0,1.3203-0.4395,1.3203-1.3193
				V36.4004c0-0.8789-0.4404-1.3193-1.3203-1.3193h-8.46v-4.4404h4.4404c0.8789,0,1.3193-0.4395,1.3193-1.3203
				c0-0.8789-0.4404-1.3193-1.3193-1.3193h-11.46c-0.8809,0-1.3203,0.4404-1.3203,1.3193c0,0.8809,0.4395,1.3203,1.3203,1.3203
				h4.3799v4.4404h-7.7998c-0.8408,0-1.2607,0.4404-1.2607,1.3193V46.541c0,0.8799,0.4199,1.3193,1.2607,1.3193h7.1396
				c-1.4805,5.0811-4.7998,9.1807-9.96,12.3008c-0.4805,0.2002-0.7197,0.5605-0.7197,1.0801c0,0.9199,0.4395,1.3799,1.3193,1.3799
				c0.2793,0,0.5-0.04,0.6602-0.1201c1.5605-0.9199,2.9795-1.96,4.2598-3.1201c3.0801-2.7998,5.2598-5.96,6.54-9.4805
				c2.0801,4.8408,5.7998,8.8604,11.1602,12.0605c0.2402,0.1201,0.46,0.1797,0.6602,0.1797
				C1022.2998,62.1406,1022.7402,61.6611,1022.7402,60.7012z M1022.8604,29.2012c0-0.5195-0.2207-0.9004-0.6602-1.1406
				c-4.8408-2.7197-8.6807-5.9795-11.5205-9.7793c-0.2002-0.3604-0.5605-0.54-1.0801-0.54h-0.4199
				c-0.4404,0-0.8008,0.2002-1.0801,0.5996c-2.1201,3.04-5.5596,6.501-10.3193,10.3799c-0.3213,0.2402-0.4805,0.5801-0.4805,1.0205
				c0,0.8799,0.4395,1.3193,1.3203,1.3193c0.3193,0,0.5996-0.0996,0.8398-0.2998c4.3994-3.5596,7.7197-6.8398,9.96-9.8398
				c2.9199,3.5996,6.7402,6.7598,11.46,9.4795c0.2002,0.1611,0.4395,0.2402,0.7197,0.2402
				C1022.4404,30.6406,1022.8604,30.1611,1022.8604,29.2012z M1008.1602,42.7607c0,0.5996-0.04,1.4199-0.1201,2.46h-6.3604v-7.5
				h6.4805V42.7607z M1017.9404,45.2207h-7.0205c-0.0801-0.6396-0.1201-1.1396-0.1201-1.5v-6h7.1406V45.2207z"/>
		</g>
	</g>
</g>
</svg>
