<?xml version="1.0" encoding="utf-8"?>
<!-- Generator: Adobe Illustrator 25.2.1, SVG Export Plug-In . SVG Version: 6.00 Build 0)  -->
<svg version="1.1" id="レイヤー_1" xmlns="http://www.w3.org/2000/svg" xmlns:xlink="http://www.w3.org/1999/xlink" x="0px"
	 y="0px" viewBox="0 0 1040 80" style="enable-background:new 0 0 1040 80;" xml:space="preserve">
<style type="text/css">
	.st0{fill:#1E1E28;}
</style>
<g>
	<g>
		<g>
			<path class="st0" d="M34,47.0811c0,1.1201-0.5605,1.6797-1.6797,1.6797c-0.4805,0-0.9004-0.2197-1.2607-0.6602
				c-1.7598-2.1992-3.3994-4.1592-4.9199-5.8799V65.501c0,1.1191-0.5801,1.6797-1.7393,1.6797
				c-1.1211,0-1.6807-0.5605-1.6807-1.6797V43.3008c-2.4404,2.9609-4.8799,5.5195-7.3193,7.6797
				c-0.3604,0.2402-0.7207,0.3604-1.0801,0.3604c-0.4805,0-0.8906-0.1797-1.2305-0.54s-0.5098-0.7803-0.5098-1.2598
				c0-0.5195,0.2402-0.9395,0.7197-1.2598c2.3604-1.96,4.5-4.04,6.4199-6.2402c4.5996-5.3193,7.6592-10.8398,9.1807-16.5605H14.9199
				c-1.1201,0-1.6797-0.5791-1.6797-1.7393c0-1.1201,0.5596-1.6807,1.6797-1.6807h6.5996v-7.8594
				c0-1.1201,0.5801-1.6807,1.7402-1.6807c1.1191,0,1.6807,0.5605,1.6807,1.6807v7.8594h6.1191
				c1.1201,0,1.6807,0.4805,1.6807,1.4404c0,0.2803-0.0205,0.4795-0.0605,0.5996c-1.04,4.7998-3.04,9.5205-6,14.1602
				c2.2803,2.1602,4.5996,4.7402,6.96,7.7402C33.8799,46.3213,34,46.6816,34,47.0811z M65.0801,50.501
				c0,1.1201-0.5605,1.6797-1.6797,1.6797H51.5801v13.4404c0,1.1191-0.5605,1.6797-1.6797,1.6797
				c-1.1211,0-1.6807-0.5605-1.6807-1.6797V52.1807H36.8203c-1.1211,0-1.6807-0.5596-1.6807-1.6797v-29.04
				c0-1.1191,0.5596-1.6797,1.6807-1.6797h11.3994v-5.5801c0-1.1201,0.5596-1.6807,1.6807-1.6807
				c1.1191,0,1.6797,0.5605,1.6797,1.6807v5.5801h11.8203c1.1191,0,1.6797,0.5605,1.6797,1.6797V50.501z M48.2197,33.9404V23.2012
				h-9.6602v10.7393H48.2197z M48.2197,48.7607V37.3604h-9.6602v11.4004H48.2197z M61.6602,33.9404V23.2012H51.5801v10.7393H61.6602
				z M61.6602,48.7607V37.3604H51.5801v11.4004H61.6602z"/>
			<path class="st0" d="M93.5801,15.4609c0,0.7197-0.3809,1.2207-1.1396,1.5c-2.7207,0.96-4.9609,1.6602-6.7207,2.0996v9.6602
				h5.7607c1.1191,0,1.6797,0.5801,1.6797,1.7402c0,1.1201-0.5605,1.6797-1.6797,1.6797h-5.7607v1.7998
				C87,35.7412,87.96,37.1611,88.5996,38.2012c0.96,1.5205,2.04,3.3398,3.2402,5.46c0.1592,0.2803,0.2402,0.5605,0.2402,0.8398
				c0,1.1201-0.5801,1.6797-1.7402,1.6797c-0.6406,0-1.1201-0.2998-1.4395-0.8994c-0.4004-0.7598-0.9004-1.7197-1.5-2.8809
				c-0.3604-0.6387-0.9209-1.5791-1.6807-2.8193v26.2197c0,1.1191-0.5801,1.6797-1.7393,1.6797
				c-1.1211,0-1.6807-0.5605-1.6807-1.6797V41.0205c-1.4395,3.5205-3.2607,7.0205-5.46,10.5
				c-0.2803,0.4404-0.7803,1.1611-1.5,2.1602c-0.3203,0.4004-0.7402,0.6006-1.2598,0.6006c-1.2002,0-1.7998-0.5801-1.7998-1.7402
				c0-0.3203,0.1592-0.6992,0.4795-1.1406c0.2002-0.2393,0.7803-1.0586,1.7402-2.46c3.5596-5.3594,6-10.959,7.3203-16.7998h-6.9004
				c-1.1201,0-1.6797-0.5596-1.6797-1.6797c0-1.1191,0.5596-1.6797,1.6797-1.6797h7.3799v-8.8203
				c-2.7998,0.6406-5.0205,1.0801-6.6602,1.3203l-0.4199,0.0596c-1.0801,0-1.6201-0.5791-1.6201-1.7402
				c0-0.8789,0.5801-1.4795,1.7402-1.7998c1-0.1201,1.9805-0.2598,2.9404-0.4199c4.8389-0.96,9.1592-2.1602,12.96-3.5996
				l0.7197-0.1201C93.04,13.6611,93.5801,14.2607,93.5801,15.4609z M121.96,18.7607l-0.0596,0.2998
				c-1.3604,6.7607-2.7812,12.0205-4.2607,15.7803c-3.2393,8.2002-7.7393,15.5996-13.5,22.2002v1.7402
				c0,1.5205,0.7207,2.5,2.1602,2.9395c0.6797,0.2402,2.04,0.3604,4.0801,0.3604c2.9199,0,4.9395-0.3301,6.0605-0.9902
				c1.1191-0.6602,1.7793-1.8496,1.9795-3.5703c0.0801-0.5596,0.1201-2.7598,0.1201-6.5996c0-1.1191,0.5596-1.6797,1.6797-1.6797
				s1.6807,0.5605,1.6807,1.6797c0,4.5205-0.1201,7.4199-0.3604,8.7002c-0.3604,2.2002-1.3301,3.7295-2.9102,4.5898
				c-1.5801,0.8594-4.3301,1.29-8.25,1.29c-2.8408,0-4.8203-0.2012-5.9395-0.6006c-1.9609-0.6807-3.1201-2.0996-3.4805-4.2598
				c-1.6006,1.6797-3.8008,3.6201-6.5996,5.8203c-0.3604,0.2793-0.7002,0.4199-1.0205,0.4199c-0.4795,0-0.8906-0.1797-1.2295-0.54
				c-0.3408-0.3604-0.5107-0.7803-0.5107-1.2598c0-0.4805,0.2197-0.9209,0.6602-1.3203c2.3604-1.7598,5.1992-4.4189,8.5205-7.9795
				V27.7012c0-1.1201,0.5596-1.6807,1.6797-1.6807c1.1191,0,1.6797,0.5605,1.6797,1.6807v24
				c7.7598-10.1602,12.5596-21.2197,14.4004-33.1807c0.1592-0.96,0.6992-1.4395,1.6201-1.4395
				C121.3604,17.0811,121.96,17.6416,121.96,18.7607z M98.2002,31.4805c0,1.5605-0.1807,4.1006-0.54,7.6201
				c-0.6006,6.04-1.5,11.4805-2.7002,16.3203c-0.2002,0.8398-0.7197,1.2598-1.5596,1.2598c-1.2002,0-1.8008-0.54-1.8008-1.6201
				l0.0605-0.4795c0.7197-3.1592,1.3799-6.8193,1.9795-10.9805c0.1602-1.1592,0.5596-5.1992,1.2002-12.1201
				c0.0801-1.1191,0.6797-1.6797,1.7998-1.6797c1.04,0,1.5605,0.4805,1.5605,1.4404V31.4805z M114.3398,23.4404
				c0,1.1211-0.5996,1.6807-1.7998,1.6807c-0.4805,0-0.9004-0.2002-1.2598-0.6006c-2.1602-2.3994-4.1611-4.4395-6-6.1201
				c-0.96-0.8398-1.9004-1.6191-2.8203-2.3398c-0.4795-0.3594-0.7197-0.7793-0.7197-1.2598c0-1.2002,0.5596-1.7998,1.6797-1.7998
				c0.4805,0,1.3994,0.5801,2.7598,1.7402c2.6797,2.2402,5.2402,4.7598,7.6807,7.5596
				C114.1797,22.6611,114.3398,23.041,114.3398,23.4404z M127.3604,52.3008c0,1.1201-0.6006,1.6797-1.8008,1.6797
				c-0.96,0-1.5205-0.4795-1.6797-1.4395c-0.96-6.0801-1.9199-11.2803-2.8799-15.6006c-0.2402-1.0391-0.501-2.1387-0.7803-3.2998
				l-0.0596-0.4199c0-1.1592,0.5996-1.7402,1.7998-1.7402c0.7998,0,1.3594,0.4805,1.6797,1.4404
				c0.1602,0.8398,0.3203,1.6797,0.4805,2.5195c1.2393,5.6406,2.2998,11.1406,3.1797,16.5L127.3604,52.3008z"/>
			<path class="st0" d="M155.9199,61.0605c0,1.1611-0.5996,1.7402-1.7998,1.7402h-17.4004c-1.1602,0-1.7393-0.5791-1.7393-1.7402
				V23.3203c0-1.1992,0.5791-1.7998,1.7393-1.7998h5.04c1.04-2.3193,1.8799-4.7998,2.5205-7.4395
				c0.1992-0.8799,0.7588-1.3203,1.6797-1.3203c1.2002,0,1.7998,0.5605,1.7998,1.6797c0,0.2012-0.0205,0.3604-0.0596,0.4805
				c-0.4404,2.001-1.1807,4.2002-2.2197,6.5996h8.6396c1.2002,0,1.7998,0.6006,1.7998,1.7998V61.0605z M152.3799,40.3604V25.0605
				h-13.8604v15.2998H152.3799z M152.3799,59.2607V43.8408h-13.8604v15.4199H152.3799z M185.3203,21.4004
				c0,8.5605-0.2607,18.7607-0.7803,30.6006c-0.2402,5.5195-1.0605,9.2998-2.46,11.3398c-1.4004,2.04-3.8809,3.0596-7.4404,3.0596
				c-1.7197,0-3.9199-0.2002-6.5996-0.5996c-1.041-0.1602-1.5596-0.7402-1.5596-1.7402c0-1.2002,0.5596-1.7998,1.6797-1.7998h0.3594
				c2.04,0.3203,3.7207,0.4805,5.04,0.4805c2.6797,0,4.5498-0.7705,5.6104-2.3105c1.0596-1.5391,1.6895-4.3896,1.8896-8.5498
				c0.4404-9.7998,0.6797-19.3594,0.7207-28.6797h-17.04c-1.6006,3.8799-3.4805,7.3799-5.6406,10.5
				c-0.2393,0.4795-0.6807,0.7197-1.3193,0.7197c-1.2002,0-1.7998-0.5791-1.7998-1.7402c0-0.1992,0.0986-0.54,0.2998-1.0195
				c1.0801-1.5996,2.0791-3.2793,3-5.04c2.1992-4.2393,3.7393-8.4805,4.6201-12.7207c0.1992-0.9189,0.7588-1.3799,1.6797-1.3799
				c1.2002,0,1.7998,0.5605,1.7998,1.6807c0,0.2002-0.0205,0.3398-0.0596,0.4199c-0.2012,1.04-0.6211,2.7207-1.2607,5.04h17.5205
				C184.7393,19.6611,185.3203,20.2412,185.3203,21.4004z M172.54,49.541c0,0.4795-0.1904,0.8906-0.5703,1.2295
				c-0.3799,0.3408-0.8096,0.5107-1.29,0.5107c-0.7598,0-1.2803-0.3994-1.5596-1.2002c-1.1201-3.3604-3.1201-7.54-6-12.54
				c-0.1602-0.2793-0.2402-0.5596-0.2402-0.8398c0-0.5195,0.1895-0.96,0.5703-1.3203c0.3799-0.3604,0.8096-0.54,1.29-0.54
				c0.6387,0,1.1191,0.3203,1.4395,0.96c0.8799,1.5205,1.7002,3,2.46,4.4404c1.7598,3.3994,3.0205,6.2803,3.7803,8.6396
				C172.5,49.1211,172.54,49.3408,172.54,49.541z"/>
			<path class="st0" d="M221.3799,23.1406c0,1.1201-0.5605,1.7207-1.6797,1.7998c-2.1602,0.1611-5.8604,0.4609-11.1006,0.9004
				c-3.7598,13-7.5205,23.3008-11.2793,30.9004c-0.3213,0.6807-0.8398,1.0195-1.5605,1.0195c-0.4795,0-0.9102-0.1797-1.29-0.54
				s-0.5693-0.7803-0.5693-1.2598c0-0.2793,0.0596-0.54,0.1797-0.7803c3.4795-7.1191,7.04-16.7998,10.6797-29.04
				c-4.5596,0.2402-7.6406,0.3604-9.2402,0.3604c-1.1992,0-1.7998-0.6006-1.7998-1.7998c0-1.2002,0.6006-1.8008,1.7998-1.8008
				c1.7598,0,5.2002-0.1592,10.3203-0.4795c0.7598-2.6396,1.4795-5.46,2.1602-8.46c0.1992-0.9199,0.7803-1.3799,1.7402-1.3799
				c0.5596,0,1.0195,0.2002,1.3799,0.5996c0.3604,0.4004,0.4795,0.9209,0.3604,1.5605c-0.6006,2.7598-1.2002,5.2197-1.8008,7.3799
				l9.7803-0.8398c0.5596-0.04,1.0205,0.1299,1.3799,0.5098C221.2002,22.1719,221.3799,22.6211,221.3799,23.1406z M247.54,58.6611
				c0,0.4795-0.1904,0.9102-0.5703,1.29s-0.8096,0.5693-1.29,0.5693c-0.4795,0-0.8994-0.1592-1.2598-0.4795
				c-2.7998-2.5596-5.7998-4.7793-9-6.6602v0.8398c0,3.8809-1.3408,6.8809-4.0195,9c-2.5205,2.04-5.9609,3.0605-10.3203,3.0605
				c-4,0-7.2002-1.1016-9.5996-3.3008c-2.1211-1.959-3.1807-4.2988-3.1807-7.0195c0-3.2793,1.3203-5.8594,3.96-7.7402
				c2.3193-1.6396,5.1797-2.46,8.5801-2.46c3.5195,0,7.04,0.6406,10.5605,1.9199c-0.4004-6.3994-0.6006-10.7598-0.6006-13.0801
				c0-1.2793,0.0195-2.2803,0.0605-3c0.0791-1.1592,0.6797-1.7402,1.7998-1.7402c1.2002,0.0811,1.7998,0.7012,1.7998,1.8604
				c0,0.3203,0,0.8203,0,1.5c-0.04,0.6406-0.0596,1.1396-0.0596,1.5c0,2.6396,0.2598,7.5,0.7793,14.5801
				c4.04,1.96,7.9404,4.6406,11.7002,8.04C247.3193,57.7412,247.54,58.1807,247.54,58.6611z M231.7598,53.9805
				c0-0.999-0.0205-1.8193-0.0596-2.46c-3.7197-1.5986-7.3203-2.3994-10.7998-2.3994c-2.3203,0-4.3203,0.54-6,1.6201
				c-1.9609,1.2803-2.9404,3.04-2.9404,5.2793c0,1.7998,0.7998,3.3408,2.4004,4.6201c1.7188,1.4004,3.9795,2.1006,6.7793,2.1006
				c3.2002,0,5.7197-0.6797,7.5605-2.04C230.7402,59.1807,231.7598,56.9414,231.7598,53.9805z M245.6201,26.2012
				c0,0.5996-0.2305,1.0898-0.6904,1.4697c-0.46,0.3809-0.9893,0.4902-1.5898,0.3301c-4.6797-1.1191-10.0605-2.0791-16.1396-2.8799
				c-1.1201-0.1602-1.6807-0.7803-1.6807-1.8604c0-0.5596,0.1895-1.0195,0.5703-1.3799c0.3799-0.3604,0.8701-0.5,1.4697-0.4199
				c6.1201,0.7598,11.6797,1.7803,16.6807,3.0596C245.1602,24.7607,245.6201,25.3213,245.6201,26.2012z"/>
			<path class="st0" d="M303.1602,63.4609c0,0.4795-0.2012,0.8994-0.6006,1.2598s-0.8398,0.54-1.3193,0.54
				c-0.7207,0-1.2402-0.3604-1.5605-1.0801l-7.1992-15.7803h-24.8408L260.5,64.1807c-0.3203,0.7197-0.8398,1.0801-1.5596,1.0801
				c-0.4805,0-0.9209-0.1797-1.3203-0.54c-0.4004-0.3604-0.6006-0.7803-0.6006-1.2598c0-0.2402,0.0605-0.501,0.1807-0.7803
				l21.2402-46.7998c0.3994-0.9199,0.9385-1.3799,1.6191-1.3799c0.6797,0,1.2197,0.46,1.6201,1.3799l21.3008,46.7998
				C303.0996,62.96,303.1602,63.2207,303.1602,63.4609z M290.8604,44.7412L280.0596,21.041l-10.7998,23.7002H290.8604z"/>
			<path class="st0" d="M360.2803,63.4609c0,0.5195-0.2012,0.9688-0.6006,1.3496c-0.4004,0.3799-0.8604,0.5703-1.3799,0.5703
				c-0.6396,0-1.1396-0.2998-1.5-0.9004c-0.5205-0.8008-1.04-2.3594-1.5596-4.6797c-0.96-4.0801-1.4805-6.2998-1.5605-6.6602
				c-1-3.7197-2.2002-6.4395-3.5996-8.1602c-2.001-2.5195-4.8604-3.7793-8.5801-3.7793h-17.7598v22.1992
				c0,1.2002-0.6006,1.8008-1.7998,1.8008c-1.2002,0-1.8008-0.6006-1.8008-1.8008V17.501c0-1.2002,0.6006-1.7998,1.8008-1.7998
				h23.7598c4.2002,0,7.6289,1.1299,10.29,3.3896c2.6592,2.2607,3.9902,5.25,3.9902,8.9697c0,3-1.0205,5.6406-3.0605,7.9199
				c-1.9199,2.1211-4.2998,3.5205-7.1396,4.2002c2.0791,1.2803,3.7393,3.0605,4.9795,5.3398
				c0.8398,1.5605,1.6201,3.7803,2.3398,6.6602c0.7207,2.8799,1.7002,6.3203,2.9404,10.3203
				C360.1992,62.8203,360.2803,63.1406,360.2803,63.4609z M356.3203,28.0605c0-2.7197-1.0508-4.8594-3.1504-6.4199
				c-2.0996-1.5596-4.8301-2.3398-8.1895-2.3398h-21.2402V37.541h20.8799c2.8799,0,5.4795-0.7998,7.7998-2.4004
				C355.0195,33.3018,356.3203,30.9404,356.3203,28.0605z"/>
			<path class="st0" d="M383.5,36.9404c0.0801,0.5605-0.0596,1.0303-0.4199,1.4102c-0.3604,0.3809-0.8008,0.5703-1.3203,0.5703
				c-1.04,0-1.6602-0.54-1.8594-1.6201c-1.1611-6.5195-2.501-12.4395-4.0205-17.7598c-0.04-0.2002-0.0596-0.3799-0.0596-0.54
				c0-1.1602,0.6387-1.7402,1.9199-1.7402c0.9199,0,1.4795,0.4404,1.6797,1.3203C381.4199,26.501,382.7803,32.6211,383.5,36.9404z
				 M424.4805,19.4209c-0.6406,13.4395-4.3203,24.2002-11.04,32.2803c-6.2803,7.5205-15.041,12.5596-26.2803,15.1191
				c-0.6006,0.1201-1.1201-0.0205-1.5605-0.4199c-0.4404-0.4004-0.6592-0.8799-0.6592-1.4395c0-0.96,0.4795-1.5605,1.4395-1.7998
				c22.1191-5.1201,33.6006-19.7402,34.4404-43.8604c0.0391-1.1602,0.6387-1.7402,1.7998-1.7402
				C423.8994,17.5605,424.5195,18.1816,424.4805,19.4209z M401.2598,35.2607c0.1592,1.3604-0.46,2.04-1.8594,2.04
				c-1.0801,0-1.6807-0.54-1.8008-1.6201c-0.5996-5.2393-1.6602-11.2393-3.1797-18c-0.1602-0.6396-0.04-1.1699,0.3604-1.5898
				c0.3994-0.4199,0.8994-0.6299,1.5-0.6299c0.9189,0,1.5,0.4795,1.7393,1.4395C399.2598,22.0215,400.3398,28.1416,401.2598,35.2607
				z"/>
			<path class="st0" d="M485.0195,19.4805c0,0.2402-0.0205,0.4609-0.0596,0.6602c-2.3604,12.04-8.8604,20.3604-19.5,24.96
				c-0.2803,0.1201-0.54,0.1807-0.7803,0.1807c-0.5195,0-0.96-0.2002-1.3193-0.6006c-0.3604-0.3994-0.54-0.8398-0.54-1.3203
				c0-0.7588,0.3594-1.2988,1.0801-1.6191c4.5195-1.96,8.2393-4.6396,11.1592-8.04c3.0801-3.5195,5.04-7.5605,5.8809-12.1201
				h-43.8008c-1.1992,0-1.7998-0.6006-1.7998-1.7998c0-1.2002,0.6006-1.8008,1.7998-1.8008h46.0801
				C484.4199,17.9805,485.0195,18.4814,485.0195,19.4805z M458.6797,35.6211c0,7.4805-1.8799,14.0996-5.6396,19.8594
				c-3.5205,5.4004-7.9805,9.0801-13.3799,11.04c-0.1602,0.0801-0.4004,0.1201-0.7197,0.1201c-1.2002,0-1.8008-0.6406-1.8008-1.9199
				c0-0.8008,0.3994-1.3408,1.2002-1.6201c4.8398-1.8389,8.7803-5.0791,11.8203-9.7197c3.2402-5.04,4.8594-10.959,4.8594-17.7598
				v-5.6406c0-1.1992,0.6006-1.7998,1.8008-1.7998c1.2393,0,1.8594,0.6006,1.8594,1.7998V35.6211z"/>
			<path class="st0" d="M547.1201,37.9609c0,1.2002-0.6006,1.7998-1.7998,1.7998h-50.8799c-1.2002,0-1.8008-0.5996-1.8008-1.7998
				s0.6006-1.7998,1.8008-1.7998h50.8799C546.5195,36.1611,547.1201,36.7607,547.1201,37.9609z"/>
			<path class="st0" d="M604.54,19.8408c0,1.0801-0.5801,1.6602-1.7402,1.7402c-8.4805,0.5205-15.7803,3.1797-21.8994,7.9795
				c-5.9209,4.6807-8.8809,9.8203-8.8809,15.4199c0,5.001,1.9209,8.9209,5.7607,11.7607
				c4.2393,3.2002,10.5391,4.7998,18.8994,4.7998c0.4805,0,0.8604-0.0195,1.1406-0.0605c1.1992,0,1.7998,0.6006,1.7998,1.8008
				c0,1.2393-0.6006,1.8594-1.7998,1.8594h-1.0205c-8.5605,0-15.3594-1.6797-20.3994-5.04
				c-5.3203-3.5596-7.9805-8.6191-7.9805-15.1797c0-5.4795,2.4004-10.5801,7.2002-15.2998
				c4.3594-4.2393,9.3389-7.0801,14.9395-8.5205h-0.96c-10.8799,0-22.2402,0.6406-34.0801,1.9199
				c-0.5605,0.0811-1.0303-0.0791-1.4092-0.4795c-0.3809-0.3994-0.5703-0.8604-0.5703-1.3799c0-1.0801,0.54-1.6807,1.6201-1.8008
				c10.1592-1.0391,22.1396-1.5596,35.9395-1.5596c2.9199,0,6.7598,0.0596,11.5205,0.1797
				C603.8994,18.0215,604.54,18.6406,604.54,19.8408z M597.7598,38.7412c0,0.4404-0.1699,0.8203-0.5098,1.1396
				c-0.3398,0.3203-0.7305,0.4795-1.1699,0.4795c-0.5605,0-1-0.2998-1.3203-0.8994c-1.04-2.0791-2.6006-4.3799-4.6797-6.9004
				c-0.2803-0.3594-0.4199-0.6992-0.4199-1.0195c0-0.3994,0.1699-0.7598,0.5098-1.0801s0.7295-0.4805,1.1699-0.4805
				c0.4805,0,0.8799,0.2012,1.2002,0.6006C596.0195,34.8213,597.7598,37.541,597.7598,38.7412z M604.6602,35.2607
				c0,1.0801-0.5605,1.6201-1.6797,1.6201c-0.6406,0-1.1016-0.2793-1.3809-0.8398c-0.8398-1.6396-2.3799-3.96-4.6191-6.96
				c-0.2012-0.2793-0.3008-0.6006-0.3008-0.96c0-1.0801,0.5195-1.6201,1.5605-1.6201c0.4795,0,0.8789,0.2002,1.2002,0.5996
				c1.959,2.3203,3.6191,4.7803,4.9795,7.3799C604.5791,34.8018,604.6602,35.0615,604.6602,35.2607z"/>
			<path class="st0" d="M659.4404,48.1611c0,5.3604-1.7803,9.5693-5.3408,12.6299c-3.5605,3.0596-8.5195,4.5898-14.8799,4.5898
				c-10.4805,0-16.7998-3.9395-18.96-11.8203c-0.0801-0.2402-0.1201-0.4795-0.1201-0.7197c0-1.0801,0.6396-1.6201,1.9199-1.6201
				c0.8799,0,1.4404,0.46,1.6807,1.3799c1.6797,6.0811,6.8398,9.1201,15.4795,9.1201c5,0,8.9902-1.2002,11.9707-3.5996
				c2.9785-2.4004,4.4697-5.6797,4.4697-9.8398c0-3.8799-1.251-6.8203-3.75-8.8203c-2.5-2-5.9697-3-10.4102-3
				c-6.2803,0-11.8203,2.0205-16.6201,6.0596c-0.5205,0.4404-1.0605,0.6602-1.6201,0.6602c-1.0801,0-1.5596-0.6992-1.4395-2.0996
				l1.8594-23.6406c0.0801-1.1191,0.6797-1.6797,1.8008-1.6797h30.2393c1.2002,0,1.7998,0.5996,1.7998,1.7998
				s-0.5996,1.7998-1.7998,1.7998h-28.5596l-1.4404,18.1807c5.1602-3.04,10.4199-4.5605,15.7803-4.5605
				c5.4795,0,9.7998,1.2402,12.96,3.7207C657.7793,39.3408,659.4404,43.1611,659.4404,48.1611z"/>
			<path class="st0" d="M727.4199,41.2012c0,1.1201-0.5605,1.6797-1.6797,1.6797h-42v3.4199h37.7402
				c1.1992,0,1.7793,0.5605,1.7393,1.6797c0.04,6.2402-0.1406,10.3604-0.54,12.3604c-0.8008,4.1191-3.6396,6.1797-8.5195,6.1797
				c-1.4404,0-2.9209-0.1201-4.4404-0.3594c-0.96-0.1611-1.4395-0.7207-1.4395-1.6807c0-1.1992,0.5791-1.7998,1.7393-1.7998
				c0.2402,0.04,0.3398,0.0605,0.3008,0.0605c1.5195,0.2393,2.7988,0.3594,3.8398,0.3594c2.96,0,4.6592-1.1592,5.0996-3.4795
				c0.2793-1.5195,0.4199-4.8203,0.4199-9.9004h-25.8594v8.8799h13.9199v-5.5801c0-1.1191,0.5596-1.6797,1.6797-1.6797
				c1.1602,0,1.7402,0.5605,1.7402,1.6797v7.2607c0,1.1201-0.5801,1.6797-1.7402,1.6797h-33.2402
				c-1.1602,0-1.7393-0.5596-1.7393-1.6797v-9c0-1.1201,0.5791-1.6807,1.7393-1.6807c1.1201,0,1.6807,0.54,1.6807,1.6201v7.3799
				H690.46v-8.8799h-8.5195c-1.1211,0-1.6807-0.5596-1.6807-1.6797V20.4404c0-1.1191,0.5596-1.6797,1.6807-1.6797h11.8193
				c0.6797-1.1592,1.7002-2.9404,3.0605-5.3398c0.3193-0.6006,0.7998-0.9004,1.4395-0.9004c0.4395,0,0.8398,0.1602,1.2002,0.4805
				s0.54,0.7197,0.54,1.2002c0,0.5195-0.8008,2.04-2.4004,4.5596h17.46c1.1201,0,1.6807,0.5605,1.6807,1.6797v13.9199
				c0,1.1611-0.5605,1.7402-1.6807,1.7402h-31.3193v3.3604h42C726.8594,39.4609,727.4199,40.041,727.4199,41.2012z
				 M713.2598,25.6611v-3.54h-29.5195v3.54H713.2598z M713.2598,32.6807v-3.7803h-29.5195v3.7803H713.2598z"/>
			<path class="st0" d="M787.4199,63.7012c0,1.1191-0.5605,1.6797-1.6797,1.6797h-27.0605c-7.4395,0-12.54-1.7402-15.2998-5.2197
				c-2.4805,2.6006-5.0205,4.7393-7.6201,6.4199c-0.3594,0.2393-0.7002,0.3594-1.0195,0.3594c-0.4805,0-0.8906-0.1904-1.2305-0.5693
				c-0.3398-0.3809-0.5098-0.8105-0.5098-1.29c0-0.5605,0.2793-1.0205,0.8398-1.3799c2.04-1.3203,3.9795-2.9404,5.8203-4.8604
				c0.7197-0.7998,1.4395-1.6201,2.1602-2.46c-0.041-0.2402-0.0605-0.6396-0.0605-1.2002V38.501h-7.5
				c-1.1602,0-1.7402-0.6006-1.7402-1.7998c0-1.1602,0.5801-1.7402,1.7402-1.7402h9.2998c1.1602,0,1.7402,0.5801,1.7402,1.7402
				v18.4795c0,4.4404,4.4795,6.6602,13.4404,6.6602h26.8799C786.8203,61.8408,787.4199,62.4609,787.4199,63.7012z M746.9199,22.7207
				c0,0.4404-0.1797,0.8398-0.54,1.2002s-0.7598,0.54-1.2002,0.54s-0.8604-0.2002-1.2598-0.6006
				c-2.0801-2.1592-4.7803-4.2393-8.0996-6.2393c-0.6006-0.3203-0.9004-0.7998-0.9004-1.4404c0-1.2393,0.5791-1.8604,1.7402-1.8604
				c0.3193,0,0.6191,0.0811,0.8994,0.2402c1.0801,0.6406,2.1006,1.3203,3.0605,2.04c2.3594,1.6807,4.2793,3.3213,5.7598,4.9199
				C746.7402,21.9209,746.9199,22.3213,746.9199,22.7207z M761.5,56.8008c0,1.1602-0.6211,1.7402-1.8604,1.7402
				c-0.8398,0-1.3799-0.4199-1.6201-1.2598c-1.7197-5.7197-4.7803-12.8799-9.1797-21.4805
				c-0.0801-0.3193-0.1201-0.6201-0.1201-0.9004c0-0.2393,0.04-0.5186,0.1201-0.8398c1.1191-2.1191,2.1602-4.2002,3.1201-6.2402
				c2.3594-4.8389,4.1602-9,5.4004-12.4795c0.2793-0.7598,0.7998-1.1396,1.5596-1.1396c1.2393,0,1.8604,0.5605,1.8604,1.6797
				c0,0.1602-0.041,0.3604-0.1201,0.5996c-1.6406,4.7607-4.4004,10.9414-8.2803,18.54c4.3994,8.7607,7.3994,15.8398,9,21.2402
				C761.46,56.541,761.5,56.7207,761.5,56.8008z M772.96,56.8008c0,1.1602-0.5996,1.7402-1.7998,1.7402
				c-0.8809,0-1.4404-0.4199-1.6797-1.2598c-1.7207-5.7197-4.7607-12.8799-9.1201-21.4805
				c-0.1201-0.2793-0.1807-0.5791-0.1807-0.9004c0-0.2793,0.0605-0.5596,0.1807-0.8398c1.1191-2.1191,2.1592-4.2002,3.1201-6.2402
				c2.3193-4.8389,4.0996-9,5.3398-12.4795c0.2793-0.7598,0.8193-1.1396,1.6201-1.1396c1.1992,0,1.7998,0.5605,1.7998,1.6797
				c0,0.1602-0.041,0.3604-0.1201,0.5996c-1.6406,4.7607-4.4004,10.9414-8.2803,18.54c1.5195,2.9209,3.2793,6.6406,5.2803,11.1602
				C771.6797,51.9814,772.96,55.5215,772.96,56.8008z M785.4404,56.8008c0,1.1602-0.6006,1.7402-1.8008,1.7402
				c-0.8799,0-1.4395-0.4199-1.6797-1.2598c-1.7207-5.7197-4.7607-12.8799-9.1201-21.4805
				c-0.1201-0.2793-0.1797-0.5791-0.1797-0.9004c0-0.2793,0.0596-0.5596,0.1797-0.8398c1.1191-2.1191,2.1602-4.2002,3.1201-6.2402
				c2.3193-4.8389,4.0996-9,5.3398-12.4795c0.2793-0.7598,0.8193-1.1396,1.6201-1.1396c1.2002,0,1.7998,0.5605,1.7998,1.6797
				c0,0.1602-0.04,0.3604-0.1201,0.5996c-1.6406,4.7607-4.4004,10.9414-8.2793,18.54c1.5195,2.9209,3.2793,6.6406,5.2793,11.1602
				C784.1592,51.9814,785.4404,55.5215,785.4404,56.8008z"/>
			<path class="st0" d="M840.2803,37.6611c0,18.0801-9.6807,27.8193-29.04,29.2197c-1.2812,0.0801-1.9199-0.5205-1.9199-1.7998
				c0-1.1611,0.5596-1.7803,1.6797-1.8604c7.5996-0.6396,13.46-2.5596,17.5801-5.7598c5.3594-4.2002,8.04-10.7002,8.04-19.5
				c0-12.7998-3.8398-19.2002-11.5205-19.2002c-5.3203,0-10.1992,3.2998-14.6396,9.9004c-4,5.96-6.1006,11.7598-6.2998,17.3994
				c-0.04,1.2812-0.6807,1.9199-1.9199,1.9199c-1.0801,0-1.6602-0.5791-1.7402-1.7393c-0.04-0.7598-0.0596-1.9805-0.0596-3.6602
				c0-7.0801,0.5186-16,1.5596-26.7607c0.1201-1.1992,0.7803-1.7998,1.9805-1.7998c1.1992,0,1.7393,0.6006,1.6191,1.7998
				l-1.6191,18.8408c2.2393-5.7607,5.2197-10.4004,8.9395-13.9199c3.96-3.7207,8.1992-5.5801,12.7197-5.5801
				c5.3193,0,9.2402,2.5596,11.7607,7.6797C839.3203,26.7617,840.2803,31.7012,840.2803,37.6611z"/>
			<path class="st0" d="M904.8398,36.4609c0,1.04-0.5205,1.6406-1.5596,1.7998c-5.6807,0.8398-10.6006,1.8203-14.7607,2.9404
				c0.2402,1.6797,0.3604,3.8203,0.3604,6.4199c0,0.8008-0.0205,1.9004-0.0596,3.2998c-0.041,1.4004-0.0605,2.3994-0.0605,3
				c0,1.2002-0.5996,1.7998-1.7998,1.7998s-1.7998-0.5996-1.7998-1.7998c0-0.6006,0.0303-1.7402,0.0898-3.4199
				c0.0596-1.6807,0.0898-3,0.0898-3.96c0-1.6396-0.0801-3.0801-0.2402-4.3203c-11.2002,3.4805-16.8203,7.7402-16.8594,12.7803
				c-0.041,3.8398,3.0996,6.1797,9.4199,7.0195c2.1191,0.2803,4.3994,0.4199,6.8398,0.4199c3.4395,0,8.9404-0.3193,16.5-0.96
				c1.2793-0.1201,1.9199,0.501,1.9199,1.8604c0,1.1191-0.5605,1.7197-1.6797,1.7998c-5.2412,0.4395-10.2402,0.6602-15,0.6602
				c-3.7207,0-6.8008-0.1602-9.2402-0.4805c-8.2002-1.0791-12.3398-4.4189-12.4199-10.0195
				c-0.0811-6.7598,6.5195-12.2598,19.7998-16.5c-1.2002-3.5195-3.6807-5.2803-7.4395-5.2803c-2.8408,0-5.9014,1.0801-9.1807,3.2402
				c-3.4795,2.2402-6.6602,5.3604-9.54,9.3604c-0.3203,0.4404-0.7402,0.6602-1.2598,0.6602c-0.4795,0-0.9209-0.2002-1.3203-0.6006
				c-0.4004-0.3994-0.5996-0.8594-0.5996-1.3799c0-0.3994,0.1592-0.7803,0.4795-1.1396
				c4.5996-5.1201,9.3799-11.8799,14.3408-20.2803h-12.3008c-1.1992,0-1.7998-0.5791-1.7998-1.7402
				c0-1.1191,0.6006-1.6797,1.7998-1.6797h14.2207c1.2393-2.1992,2.3594-4.3594,3.3594-6.4805
				c0.3203-0.7197,0.8408-1.0801,1.5605-1.0801c1.2793,0,1.9199,0.6006,1.9199,1.8008c0,0.2803-0.0605,0.54-0.1797,0.7793
				c-0.8008,1.6406-1.6611,3.3008-2.5801,4.9805h20.7598c1.2002,0,1.7998,0.5605,1.7998,1.6797
				c0,1.1611-0.5996,1.7402-1.7998,1.7402h-22.6797c-2.3613,3.8799-4.7012,7.4004-7.0205,10.5596
				c3.999-2.3193,7.5605-3.4795,10.6797-3.4795c5.2402,0,8.6201,2.4404,10.1406,7.3203c4.5996-1.3203,9.6191-2.3799,15.0596-3.1807
				C904.1592,34.4014,904.8398,35.0205,904.8398,36.4609z"/>
			<path class="st0" d="M928.0596,14.501c0,0.2002-0.04,0.4199-0.1191,0.6602c-1.2002,3.6396-2.6006,7.1396-4.2002,10.5v40.0195
				c0,1.1602-0.6006,1.7402-1.7998,1.7402c-1.1611,0-1.7402-0.5801-1.7402-1.7402V32.2607
				c-1.5605,2.7207-3.1006,5.1807-4.6201,7.3799c-0.3203,0.5205-0.7607,0.7803-1.3203,0.7803c-0.4795,0-0.9102-0.1797-1.29-0.54
				s-0.5693-0.7998-0.5693-1.3203c0-0.3193,0.1191-0.6602,0.3594-1.0195c1.4795-2.1201,2.8799-4.3398,4.2002-6.6602
				c3.2002-5.5596,5.7598-11.1992,7.6797-16.9199c0.2402-0.7598,0.7598-1.1406,1.5605-1.1406
				C927.4395,12.8203,928.0596,13.3818,928.0596,14.501z M967.4805,56.501c0,0.4795-0.1807,0.8906-0.54,1.2295
				c-0.3604,0.3408-0.7607,0.5107-1.2002,0.5107c-0.4805,0-0.9209-0.2002-1.3203-0.6006c-2.4004-2.8398-4.6006-5.7197-6.5996-8.6396
				c-4.8008-7.04-8.2412-13.7002-10.3203-19.9805v21.8398h7.8604c1.1592,0,1.7393,0.5811,1.7393,1.7402
				c0,1.1611-0.5801,1.7402-1.7393,1.7402H947.5v11.3398c0,1.1602-0.5801,1.7402-1.7402,1.7402
				c-1.2002,0-1.7998-0.5801-1.7998-1.7402V54.3408h-7.4404c-1.1602,0-1.7393-0.5791-1.7393-1.7402
				c0-1.1592,0.5791-1.7402,1.7393-1.7402h7.4404V29.7412c-2.8408,10-8.3799,19.5205-16.6201,28.5596
				c-0.3594,0.3604-0.7598,0.54-1.2002,0.54c-0.4795,0-0.8994-0.1797-1.2598-0.54s-0.54-0.7803-0.54-1.2598
				c0-0.4395,0.1797-0.8398,0.54-1.2002c2.4004-2.5996,4.5801-5.2998,6.54-8.0996c4.6797-6.7207,7.8994-13.4404,9.6602-20.1602
				h-13.7402c-1.1602,0-1.7402-0.5801-1.7402-1.7402c0-1.2002,0.5801-1.7998,1.7402-1.7998H943.96v-9.6006
				c0-1.1592,0.5996-1.7393,1.7998-1.7393c1.1602,0,1.7402,0.5801,1.7402,1.7393v9.6006h16.9805
				c1.1992,0,1.7998,0.5996,1.7998,1.7998c0,1.1602-0.6006,1.7402-1.7998,1.7402h-13.8604c3,9.1602,8.46,18.4004,16.3799,27.7197
				C967.3193,55.6211,967.4805,56.0205,967.4805,56.501z"/>
			<path class="st0" d="M977.9199,47.6807c0,2.5605-0.2002,5.3398-0.5996,8.3398c-0.3604,2.7607-0.8398,5.1406-1.4404,7.1406
				c-0.2402,0.7588-0.7803,1.1396-1.6201,1.1396c-0.5205,0-0.9404-0.1904-1.2598-0.5703c-0.3203-0.3799-0.4199-0.8301-0.2998-1.3496
				c0.9199-3.2793,1.5391-6.6201,1.8594-10.0205c0-1.2393,0.0205-2.4795,0.0605-3.7197c0.1201-1.6797,0.6797-2.5195,1.6797-2.5195
				C977.3799,46.1211,977.9199,46.6406,977.9199,47.6807z M997.2402,16.4805c0,1.0801-0.5205,1.6201-1.5605,1.6201h-7.5v5.1602
				h6.6006c1.0391,0,1.5596,0.5205,1.5596,1.5596c0,1.041-0.5205,1.5605-1.5596,1.5605h-6.6006v5.5195h6.6006
				c1.0391,0,1.5596,0.54,1.5596,1.6201c0,1.041-0.5205,1.5605-1.5596,1.5605h-6.6006v5.7002h6.96
				c0.8799,0,1.4004,0.46,1.5605,1.3799c0.0391,0.2002,0.0596,1,0.0596,2.3994c0,6.041-0.3809,11.4209-1.1396,16.1406
				c-0.5605,3.5186-2.7002,5.2793-6.4199,5.2793c-2.6807,0-4.0205-0.5996-4.0205-1.7998c0-1.1201,0.54-1.6797,1.6201-1.6797
				c0.2402,0.04,0.3398,0.0596,0.2998,0.0596c0.7207,0.1201,1.3594,0.1807,1.9199,0.1807c2.04,0,3.1807-0.8408,3.4209-2.5205
				c0.3594-2.2803,0.5791-3.9199,0.6592-4.9199c-0.3203,0.5205-0.7793,0.7803-1.3799,0.7803c-0.8008,0-1.2803-0.4404-1.4395-1.3203
				c-0.4004-2.3594-0.9805-4.8604-1.7402-7.5c-0.04-0.1201-0.0596-0.2793-0.0596-0.4795c0-1.0801,0.5186-1.6201,1.5596-1.6201
				c0.6797,0,1.1191,0.3799,1.3203,1.1396c0.4795,1.6006,1.0996,4.1396,1.8594,7.6201c0.2402-2.6396,0.3604-5.4004,0.3604-8.2803
				v-1.7402h-16.5605c-1.04,0-1.5596-0.5186-1.5596-1.5596V16.4805c0-1.0391,0.5195-1.5596,1.5596-1.5596h18.6602
				C996.7197,14.9209,997.2402,15.4414,997.2402,16.4805z M985,23.2607v-5.1602h-6.3604v5.1602H985z M985,31.9004v-5.5195h-6.3604
				v5.5195H985z M985,40.7812v-5.7002h-6.3604v5.7002H985z M982.7197,60.2207c-0.04,1-0.5605,1.5-1.5596,1.5
				c-1.1201,0-1.6602-0.5195-1.6201-1.5596c0.0391-1.1602,0.0596-2.1201,0.0596-2.8799c0-2.4805-0.0801-5.6406-0.2393-9.4805
				c-0.041-1.1602,0.499-1.7402,1.6201-1.7402c0.9189,0,1.3994,0.501,1.4395,1.5c0.2002,4.2812,0.2998,7.7607,0.2998,10.4404
				V60.2207z M988.3604,57.5205c0,1.001-0.501,1.5-1.5,1.5c-0.9209,0-1.4209-0.4795-1.5-1.4395
				c-0.2012-2.6406-0.6807-5.9404-1.4404-9.9004v-0.2998c0-1.04,0.5195-1.5605,1.5605-1.5605c0.7197,0,1.1592,0.4209,1.3193,1.2607
				c0.4805,2.6797,1,6.0996,1.5605,10.2598V57.5205z M1027.4199,65.6807c0,0.4395-0.1602,0.8301-0.4795,1.1699
				c-0.3213,0.3398-0.7012,0.5098-1.1406,0.5098c-0.2402,0-0.5-0.0801-0.7803-0.2393c-6.9199-4.1211-11.4199-9.2002-13.5-15.2402
				c-2.2793,6.3203-6.5996,11.3789-12.96,15.1797c-0.2803,0.1592-0.5605,0.2402-0.8398,0.2402c-0.4004,0-0.7793-0.1797-1.1396-0.54
				s-0.54-0.7402-0.54-1.1396c0-0.6006,0.2793-1.0605,0.8398-1.3799c6.3604-3.7207,10.3994-8.6602,12.1201-14.8203h-8.5195
				c-1.0801,0-1.6201-0.5195-1.6201-1.5605V35.6807c0-1.0801,0.54-1.6201,1.6201-1.6201h9.3594v-5.3398h-5.2803
				c-1.04,0-1.5596-0.54-1.5596-1.6201c0-1.0391,0.5195-1.5596,1.5596-1.5596h13.8008c1.0391,0,1.5596,0.5205,1.5596,1.5596
				c0,1.0801-0.5205,1.6201-1.5596,1.6201h-5.3408v5.3398h10.2002c1.04,0,1.5605,0.54,1.5605,1.6201v12.1797
				c0,1.041-0.5205,1.5605-1.5605,1.5605h-9.2998c1.959,5.7598,6.1592,10.7402,12.5996,14.9395
				C1027.1201,64.6807,1027.4199,65.1201,1027.4199,65.6807z M1027.54,26.9805c0,1.1211-0.5205,1.6807-1.5596,1.6807
				c-0.2012,0-0.4609-0.0605-0.7803-0.1807c-5.6807-3.2793-10.3008-7.0996-13.8604-11.46c-2.6396,3.6406-6.6406,7.5811-12,11.8203
				c-0.2803,0.2803-0.6201,0.4199-1.0195,0.4199c-1.041,0-1.5605-0.54-1.5605-1.6201c0-0.5195,0.2002-0.9395,0.6006-1.2598
				c5.5195-4.3994,9.6592-8.5801,12.4199-12.54c0.3193-0.4395,0.7588-0.6602,1.3193-0.6602h0.4805
				c0.5996,0,1.04,0.2012,1.3203,0.6006c3.2793,4.5596,7.8789,8.5195,13.7998,11.8799
				C1027.2598,25.9814,1027.54,26.4209,1027.54,26.9805z M1009.8398,43.3604v-6.1191h-7.7998v9h7.6201
				C1009.7803,45.3213,1009.8398,44.3613,1009.8398,43.3604z M1021.5996,46.2412v-9h-8.5801v7.2598
				c0,0.5996,0.0605,1.1797,0.1807,1.7402H1021.5996z"/>
		</g>
	</g>
</g>
</svg>
