<?xml version="1.0" encoding="utf-8"?>
<!-- Generator: Adobe Illustrator 25.2.1, SVG Export Plug-In . SVG Version: 6.00 Build 0)  -->
<svg version="1.1" id="レイヤー_1" xmlns="http://www.w3.org/2000/svg" xmlns:xlink="http://www.w3.org/1999/xlink" x="0px"
	 y="0px" viewBox="0 0 1040 80" style="enable-background:new 0 0 1040 80;" xml:space="preserve">
<style type="text/css">
	.st0{fill:#1E1E28;}
</style>
<g>
	<g>
		<g>
			<path class="st0" d="M66.0996,49.4209c0,1.5205-0.4902,2.7705-1.4697,3.75c-0.9805,0.9805-2.2305,1.4697-3.75,1.4697h-6.7803
				v8.1006c0,1.5986-0.5605,2.8994-1.6797,3.8994c-1,0.8398-2.1602,1.2598-3.4795,1.2598c-1.3203,0-2.4814-0.4199-3.4805-1.2598
				c-1.1602-1-1.7402-2.3008-1.7402-3.8994v-8.1006H37.54c-2.4004,0-4-1.0391-4.7998-3.1201c-0.5605,0-1.0801-0.1201-1.5605-0.3594
				v11.5801c0,1.5986-0.5605,2.8994-1.6797,3.8994c-1,0.8398-2.1602,1.2598-3.4805,1.2598c-1.3193,0-2.4805-0.4199-3.4795-1.2598
				c-1.1611-1-1.7402-2.3008-1.7402-3.8994V52.1807l-0.54,0.54c-0.7598,0.7607-1.8594,1.1396-3.2998,1.1396
				c-1.4805,0-2.7207-0.5293-3.7197-1.5898c-1.001-1.0596-1.5-2.2891-1.5-3.6895c0-1.6807,0.6992-3.04,2.0996-4.0801
				c1.1602-0.8398,2.5596-2.1602,4.2002-3.96c2.9189-3.1201,5.1797-6.3994,6.7803-9.8398H17.5
				c-1.6006,0-2.9004-0.5605-3.9004-1.6807c-0.8398-0.999-1.2598-2.1602-1.2598-3.4795c0-1.3203,0.4199-2.4795,1.2598-3.4805
				c1-1.1592,2.2998-1.7402,3.9004-1.7402h2.2803v-3.1191c0-1.5996,0.5596-2.9004,1.6797-3.9004
				c0.999-0.8398,2.1602-1.2598,3.4805-1.2598c1.3193,0,2.4795,0.4199,3.4795,1.2598c1.1602,1,1.7402,2.3008,1.7402,3.9004v3.1191
				h1.6797c0.4805,0,0.9199,0.0605,1.3203,0.1807c0.96-1.4795,2.4199-2.2197,4.3799-2.2197h6.1797v-1.0801
				c0-1.5996,0.5801-2.9004,1.7402-3.9004c0.999-0.8398,2.1602-1.2598,3.4805-1.2598c1.3193,0,2.4795,0.4199,3.4795,1.2598
				c1.1191,1,1.6797,2.3008,1.6797,3.9004v1.0801h6.7803c1.5195,0,2.7695,0.4795,3.75,1.4395
				c0.9795,0.96,1.4697,2.2197,1.4697,3.7803V49.4209z M34.0596,45.2812c0-0.4404-0.1602-0.8604-0.4795-1.2607
				c-1.4004-1.7998-3.3604-4.0195-5.8799-6.6602c2.4395-3.8789,4.1191-8.04,5.04-12.4795c0.0791-0.3994,0.1201-0.6201,0.1201-0.6602
				c0-1.2002-0.7002-1.7998-2.1006-1.7998H25.96v-6.2998c0-1.3203-0.6807-1.9805-2.04-1.9805c-1.3604,0-2.04,0.6602-2.04,1.9805
				v6.2998h-5.3994c-1.3604,0-2.04,0.6807-2.04,2.04c0,1.3604,0.6797,2.04,2.04,2.04h11.8193
				c-2.1602,7.3193-6.7002,13.7998-13.6201,19.4395c-0.5605,0.4414-0.8398,0.96-0.8398,1.5605c0,0.5605,0.21,1.0605,0.6299,1.5
				c0.4199,0.4404,0.9092,0.6602,1.4707,0.6602c0.5186,0,0.9385-0.1602,1.2598-0.4805c0.8398-0.7197,2.7393-2.6592,5.7002-5.8203
				v18.3604c0,1.3203,0.6797,1.9805,2.04,1.9805c1.3594,0,2.04-0.6602,2.04-1.9805V42.3408
				c0.9189,1.0801,2.0791,2.4805,3.4795,4.2002c0.4395,0.5605,0.96,0.8398,1.5596,0.8398c0.5605,0,1.04-0.21,1.4404-0.6299
				C33.8594,46.3311,34.0596,45.8418,34.0596,45.2812z M61.9004,48.4004V22.4209c0-1.3594-0.6807-2.04-2.04-2.04h-9.96v-4.2598
				c0-1.3203-0.6807-1.9805-2.04-1.9805c-1.3604,0-2.04,0.6602-2.04,1.9805v4.2598h-9.3008c-1.4004,0-2.0996,0.6807-2.0996,2.04
				v25.9795c0,1.3604,0.6992,2.04,2.0996,2.04h9.3008v11.2803c0,1.3203,0.6797,1.9805,2.04,1.9805c1.3594,0,2.04-0.6602,2.04-1.9805
				V50.4404h9.96C61.2197,50.4404,61.9004,49.7607,61.9004,48.4004z M45.8203,33.041h-7.2607v-8.5801h7.2607V33.041z
				 M45.8203,46.3604h-7.2607v-9.1797h7.2607V46.3604z M43.7197,31.001v-2.3398h-1.3193v2.3398H43.7197z M43.7197,44.2607v-2.8799
				h-1.3193v2.8799H43.7197z M57.7598,33.041h-7.8594v-8.5801h7.8594V33.041z M57.7598,46.3604h-7.8594v-9.1797h7.8594V46.3604z
				 M55.6602,31.001v-2.3398h-1.5605v2.3398H55.6602z M55.6602,44.2607v-2.8799h-1.5605v2.8799H55.6602z"/>
			<path class="st0" d="M128.0801,51.041c0,1.5996-0.5303,2.8496-1.5898,3.75c-1.0605,0.8994-2.2305,1.3701-3.5098,1.4102
				c-0.4004,4.04-1.5508,6.7695-3.4502,8.1895c-1.9004,1.4199-5.3311,2.1299-10.29,2.1299c-4.2812,0-7.2812-0.7402-9-2.2197
				c-0.96,0.7598-1.9199,1.5195-2.8799,2.2803C96.1602,67.3809,95.04,67.7812,94,67.7812c-1.6797,0-3.0596-0.6807-4.1396-2.04
				c-1.001,1.3994-2.4004,2.0996-4.2002,2.0996c-1.3203,0-2.4805-0.4199-3.4805-1.2598c-1.1602-1.001-1.7393-2.3008-1.7393-3.9004
				v-7.5596c-0.96,0.96-2.1211,1.4395-3.4805,1.4395c-1.4404,0-2.6504-0.5293-3.6299-1.5898
				c-0.9805-1.0596-1.4697-2.2891-1.4697-3.6895c0-1.2002,0.3994-2.3799,1.1992-3.54c2.5205-3.7207,4.54-7.4004,6.0605-11.04H77.5
				c-1.6006,0-2.9004-0.5801-3.9004-1.7402c-0.8398-1-1.2598-2.1602-1.2598-3.4805c0-2.4795,1.1191-4.0996,3.3604-4.8594
				c-2.001-0.8398-3-2.46-3-4.8604c0-1.2002,0.3799-2.2891,1.1396-3.2695s1.8398-1.5908,3.2402-1.8301
				c1.5596-0.2793,3.0996-0.5801,4.6201-0.9004c3.5596-0.7598,6.5996-1.6201,9.1201-2.5801
				c0.6387-0.2402,1.2793-0.3604,1.9199-0.3604c1.5596,0,2.8398,0.5811,3.8398,1.7402c0.8789,1.041,1.3203,2.2207,1.3203,3.54
				c0,2.2002-1.0205,3.7197-3.0605,4.5605c-1.1201,0.4404-2.46,0.9199-4.0195,1.4395v2.2197h1.5596
				c1.3594,0,2.499,0.4209,3.4199,1.2607c0.7998,0.7598,1.3203,1.7002,1.5605,2.8193v-1.3799c0-1.5195,0.54-2.7793,1.6201-3.7793
				c0.9189-0.7998,2.0186-1.2607,3.2998-1.3809c-0.7207-0.7197-1.3799-1.2988-1.9805-1.7393
				c-1.4395-1.04-2.1602-2.4004-2.1602-4.0801c0-1.3594,0.5-2.5801,1.5-3.6602s2.2402-1.6201,3.7207-1.6201
				c0.96,0,1.9795,0.3809,3.0596,1.1396c2.5596,1.8408,4.7598,3.8008,6.5996,5.8809c0.3203-1.2402,0.9805-2.2402,1.9805-3
				c0.8789-0.6396,1.8799-0.9609,3-0.9609c1.3203,0,2.5293,0.4609,3.6299,1.3809c1.0996,0.9199,1.6504,2.1807,1.6504,3.7793
				c0,0.2803-0.041,0.7412-0.1201,1.3799c-0.6006,2.3613-1.4609,5.3408-2.5801,8.9404c2.3594,0.1201,3.8789,1.4805,4.5596,4.0801
				C127.0996,42.6611,128.0801,47.8818,128.0801,51.041z M93.7002,17.0205c0-0.5195-0.1904-0.999-0.5703-1.4395
				c-0.3809-0.4404-0.8506-0.6602-1.4102-0.6602c-0.1602,0-0.4404,0.04-0.8398,0.1201c-3.9209,1.5205-8.7207,2.7402-14.3994,3.6602
				c-1.1211,0.1602-1.6807,0.8398-1.6807,2.04c0,1.4004,0.6396,2.0996,1.9199,2.0996c0.2002,0,0.3604-0.0195,0.4805-0.0596
				c0.7588-0.1201,2.5391-0.4805,5.3398-1.0801v6.7197h-6.0596c-1.3604,0-2.04,0.6807-2.04,2.04c0,1.3604,0.6797,2.04,2.04,2.04
				h5.9395c-1.0801,4.4395-3.7803,9.8994-8.0996,16.3799c-0.2402,0.3604-0.3604,0.8008-0.3604,1.3203
				c0,0.5996,0.1895,1.1094,0.5703,1.5293c0.3799,0.4199,0.8291,0.6299,1.3496,0.6299c0.6797,0,1.2002-0.2793,1.5605-0.8398
				c2.1191-3.1592,3.8193-6.2998,5.0996-9.4199v19.5605c0,1.3193,0.6797,1.9795,2.04,1.9795c1.3594,0,2.04-0.6602,2.04-1.9795
				V40.4805c0.4795,0.9209,0.9395,1.8213,1.3799,2.7002c0.7197,1.2002,1.4189,1.7998,2.0996,1.7998c0.5195,0,1-0.21,1.4404-0.6299
				c0.4395-0.4199,0.6602-0.9297,0.6602-1.5303c0-0.3984-0.1006-0.7793-0.2998-1.1396c-1.4404-2.5996-3.2012-5.2803-5.2803-8.04
				V32.501h4.6797c1.3594,0,2.04-0.6797,2.04-2.04c0-1.3594-0.6807-2.04-2.04-2.04h-4.6797v-7.7402
				c2.1602-0.5996,4.0596-1.2002,5.7002-1.7998C93.2393,18.5615,93.7002,17.9414,93.7002,17.0205z M95.7998,33.4609
				c-1.2402,0-1.96,0.6201-2.1602,1.8594c-0.2393,2.1602-0.5,4.2412-0.7793,6.2402c-0.6807,4.7607-1.4209,8.6201-2.2207,11.5801
				c-0.04,0.1602-0.0596,0.3408-0.0596,0.54c0,0.5205,0.1992,0.9805,0.5996,1.3799c0.3994,0.4004,0.9004,0.6006,1.5,0.6006
				c1,0,1.6396-0.5195,1.9199-1.5605c1.5605-6.1201,2.54-12.2998,2.9404-18.54C97.6201,34.1611,97.0391,33.4609,95.7998,33.4609z
				 M119.0801,19.9609c0-0.6006-0.21-1.0898-0.6299-1.4697s-0.9102-0.5703-1.4697-0.5703c-1.041,0-1.7012,0.5205-1.9805,1.5596
				c-3.2803,12.96-7.0801,22.4404-11.4004,28.4404V28.001c0-1.3594-0.7002-2.04-2.0996-2.04c-1.3604,0-2.04,0.6807-2.04,2.04
				v24.8994c-1.9199,2.1211-4.5205,4.4404-7.7998,6.96c-0.5605,0.4414-0.8398,0.96-0.8398,1.5605c0,0.5605,0.21,1.0605,0.6299,1.5
				s0.9092,0.6602,1.4697,0.6602c0.4395,0,0.8594-0.1602,1.2598-0.4805c1.3594-0.999,3.2598-2.5391,5.7002-4.6201
				c0.4805,1.5205,1.3398,2.541,2.5801,3.0605c1.1191,0.5205,3.0195,0.7793,5.7002,0.7793c3.4395,0,5.8203-0.2588,7.1396-0.7793
				c1.5195-0.6006,2.54-1.8604,3.0605-3.7803c0.4395-1.6396,0.6592-4.6396,0.6592-9c0-1.3594-0.6797-2.04-2.0391-2.04
				c-1.3604,0-2.04,0.6807-2.04,2.04c0,3.4404-0.1006,5.6611-0.3008,6.6602c-0.2393,1.3203-0.8398,2.1406-1.7998,2.46
				c-0.6807,0.2402-2.2402,0.3604-4.6797,0.3604c-1.7607,0-2.8203-0.0605-3.1797-0.1807c-0.9209-0.2793-1.3809-1.0195-1.3809-2.2197
				v-1.3799c2.9199-3.4395,6.1807-9.0195,9.7803-16.7402C117.1797,29.5605,119.0801,23.6416,119.0801,19.9609z M111.8203,24.041
				c0-0.5195-0.1602-0.96-0.4805-1.3203c-2.6006-3-5.2002-5.4795-7.7998-7.4395c-0.4004-0.2803-0.8203-0.4209-1.2598-0.4209
				c-0.5205,0-0.9902,0.21-1.4102,0.6309c-0.4199,0.4199-0.6299,0.9102-0.6299,1.4697c0,0.6406,0.2998,1.1602,0.8994,1.5596
				c1.0801,0.8008,3.4404,3.0811,7.0801,6.8398c0.4404,0.5205,0.9395,0.7803,1.5,0.7803c0.5596,0,1.0498-0.21,1.4707-0.6299
				C111.6104,25.0908,111.8203,24.6016,111.8203,24.041z M110.0195,30.2812c-0.7197-0.1602-1.4795-0.5195-2.2793-1.0801v7.2598
				C108.3398,35.0615,109.0996,33.001,110.0195,30.2812z M112.9004,48.4004c-1.001,1.7207-2.6406,4.2402-4.9199,7.5605
				c0.1191,0,0.3496,0.0205,0.6895,0.0596c0.3398,0.041,0.7695,0.0605,1.29,0.0605c1.3594,0,2.1992-0.4199,2.5205-1.2607
				c0.2393-0.7197,0.3594-2.6191,0.3594-5.6992c0-0.0801,0.0195-0.2002,0.0605-0.3604
				C112.9004,48.6016,112.9004,48.4814,112.9004,48.4004z M123.8799,50.0205v-0.4199c-1.2402-7.3594-2.2002-12.2402-2.8799-14.6396
				c-0.1602-1.0801-0.7803-1.6201-1.8604-1.6201c-0.5605,0-1.0596,0.1904-1.5,0.5703s-0.6592,0.8906-0.6592,1.5293
				c0,0.041,0.0195,0.1201,0.0596,0.2402c0,0.0811,0,0.1602,0,0.2402c0.4395,1.7998,1.3594,6.5996,2.7598,14.3994
				c0.1592,1.1211,0.8193,1.6807,1.9805,1.6807C123.1797,52.001,123.8799,51.3408,123.8799,50.0205z"/>
			<path class="st0" d="M186.2803,23.9209c0,7.8809-0.2207,16.9004-0.6602,27.0596c-0.2402,5.6406-1.2207,9.7002-2.9404,12.1807
				c-1.96,2.7598-5.1807,4.1396-9.6602,4.1396c-3.1191,0-5.4395-0.2402-6.96-0.7197c-2.6396-0.8809-3.96-2.5605-3.96-5.04
				c0-1.3203,0.4199-2.5,1.2607-3.54c0.96-1.2002,2.2588-1.7998,3.8994-1.7998c0.5596,0,1.3301,0.0703,2.3105,0.21
				c0.9795,0.1406,1.7295,0.21,2.25,0.21c1.999,0,3.0986-2.04,3.2998-6.1201c0.3604-6.7998,0.5791-13.8994,0.6602-21.2998h-9.2998
				c-0.2402,0.5195-0.6807,1.4004-1.3203,2.6396c1.3594,0.2803,2.5596,1.2002,3.5996,2.7598
				c0.2793,0.4004,1.04,1.7998,2.2803,4.2002c2.2803,4.4004,3.4199,7.6602,3.4199,9.7803c0,1.5996-0.501,2.8701-1.5,3.8096
				c-1,0.9404-2.1406,1.4102-3.4199,1.4102c-2.4404,0-4.0605-1.1797-4.8604-3.54c-0.4004-1.2002-1.9795-4.46-4.7393-9.7803v18.4199
				c0,1.5215-0.4912,2.7705-1.4707,3.75c-0.9805,0.9805-2.2305,1.4707-3.75,1.4707h-15.5996c-1.5205,0-2.7705-0.4902-3.75-1.4707
				c-0.9805-0.9795-1.4697-2.2285-1.4697-3.75V25.1211c0-1.5605,0.4893-2.8301,1.4697-3.8105
				c0.9795-0.9795,2.2295-1.4697,3.75-1.4697h2.04c0.5996-1.6797,1.2197-3.3604,1.8594-5.04
				c0.9199-1.7197,2.3604-2.5801,4.3203-2.5801c1.3594,0,2.5898,0.46,3.6904,1.3799c1.0996,0.9209,1.6494,2.1807,1.6494,3.7803
				c0,0.5996-0.1602,1.4199-0.4795,2.46h2.5195c1.4404,0,2.6602,0.46,3.6602,1.3799c0.4395-1.3203,1.1191-3.2598,2.04-5.8203
				c0.7998-2.1992,2.3799-3.2998,4.7402-3.2998c1.3203,0,2.499,0.4199,3.54,1.2598c1.1592,0.96,1.7402,2.2412,1.7402,3.8408
				c0,0.5195-0.0605,1.0195-0.1807,1.5h10.7998c1.5205,0,2.7695,0.4902,3.75,1.4697
				C185.79,21.1514,186.2803,22.4014,186.2803,23.9209z M182.0801,22.9004c0-1.3994-0.7002-2.0996-2.0996-2.0996h-15.0605
				c0.3193-0.8789,0.7402-2.1992,1.2598-3.96c0.04-0.1592,0.0605-0.3799,0.0605-0.6602c0-1.3203-0.7002-1.9795-2.1006-1.9795
				c-1.04,0-1.7002,0.5-1.9795,1.5c-1.6406,5.8799-3.7803,10.7803-6.4199,14.6992V24.041c0-1.4004-0.7002-2.1006-2.1006-2.1006
				h-6.96c0.4404-1.0801,1.0205-2.7598,1.7402-5.04c0-0.0791,0.0195-0.1797,0.0605-0.2998c0-0.1201,0-0.1992,0-0.2402
				c0-1.3594-0.7207-2.04-2.1602-2.04c-1.041,0-1.7012,0.5205-1.9805,1.5605c-0.4795,1.9199-1.1797,3.9404-2.0996,6.0596h-4.1406
				c-1.4004,0-2.0996,0.7002-2.0996,2.1006v33.7793c0,1.4014,0.6992,2.1006,2.0996,2.1006h15.54
				c1.4004,0,2.1006-0.6992,2.1006-2.1006V34.1807c0.4795,0.2402,0.8789,0.3604,1.2002,0.3604c0.6797,0,1.249-0.3203,1.71-0.96
				c0.459-0.6396,0.9492-1.3799,1.4697-2.2207c1.2393-1.959,2.3398-4.0791,3.2998-6.3594h14.46
				c-0.04,7.04-0.2607,15.2402-0.6602,24.5996c-0.1201,3.04-0.4404,5.1211-0.96,6.2402c-0.8398,1.9199-2.54,2.8799-5.0996,2.8799
				c-0.9209,0-2.4404-0.1396-4.5605-0.4199h-0.3594c-1.3604,0-2.04,0.7197-2.04,2.1602c0,1.2002,0.5996,1.9004,1.7998,2.0996
				c2.3594,0.3604,4.3398,0.54,5.9404,0.54c3.3594,0,5.7197-0.9492,7.0791-2.8496c1.3594-1.8994,2.1602-5.3896,2.4004-10.4697
				C181.8594,39.9404,182.0801,30.9814,182.0801,22.9004z M151.54,38.8008h-11.3398V26.1406H151.54V38.8008z M151.54,55.7207
				h-11.3398V43.001H151.54V55.7207z M149.4404,36.7012v-6.3604h-5.04v6.3604H149.4404z M149.4404,53.6211v-6.4199h-5.04v6.4199
				H149.4404z M170.6201,47.5605c0-0.2793-0.04-0.54-0.1201-0.7793c-0.6406-2.04-1.7607-4.5801-3.3604-7.6201
				c-0.7598-1.4004-1.5205-2.7998-2.2793-4.2002c-0.3604-0.7598-0.9209-1.1406-1.6807-1.1406c-0.5605,0-1.0703,0.2207-1.5293,0.6602
				c-0.4609,0.4414-0.6904,0.96-0.6904,1.5605c0,0.2002,0.0801,0.54,0.2402,1.0195c0.7588,1.2812,1.46,2.5205,2.0996,3.7207
				c1.5195,2.9199,2.6191,5.3799,3.2998,7.3799c0.3203,0.96,0.9395,1.4395,1.8604,1.4395c0.5596,0,1.0596-0.1992,1.5-0.5996
				C170.3994,48.6016,170.6201,48.1211,170.6201,47.5605z"/>
			<path class="st0" d="M247.7197,56.3809c0,1.4395-0.5205,2.6807-1.5596,3.7197c-1.041,1.041-2.2803,1.5605-3.7197,1.5605
				c-1.1211,0-2.2607-0.4404-3.4209-1.3203c-0.96-0.7598-1.9199-1.5391-2.8799-2.3398c-1.0801,2.8408-3.0596,5.0195-5.9395,6.54
				c-2.6406,1.4395-5.7402,2.1602-9.2998,2.1602c-4.4014,0-7.9609-1.2812-10.6807-3.8408
				c-2.5195-2.3994-3.7793-5.3594-3.7793-8.8799c0-4.1992,1.5986-7.4395,4.7998-9.7197c2.6787-1.9199,5.8398-2.8799,9.4795-2.8799
				c1.7998,0,3.5596,0.1797,5.2803,0.54c-0.1602-1.9199-0.2402-4.1191-0.2402-6.6006c0-1.8789,0.2002-3.4199,0.6006-4.6191
				c-1.4805-0.1201-2.6406-0.5801-3.4805-1.3809c-1.1201,0.7607-2.7803,1.2412-4.9795,1.4404
				c-1.6807,0.1201-3.3809,0.2207-5.1006,0.2998c-2.4404,7.9609-5.5801,16.3799-9.4199,25.2598
				c-0.8398,1.9609-2.3799,2.9404-4.6201,2.9404c-1.3193,0-2.5-0.459-3.54-1.3799c-1.2002-0.999-1.7998-2.2803-1.7998-3.8398
				c0-0.8398,0.1797-1.6201,0.54-2.3398c2.1602-4.4404,4.7002-11.0605,7.6201-19.8604c-0.4004,0-0.9404,0-1.6201,0
				c-0.6807,0.04-1.1602,0.0596-1.4404,0.0596c-1.6406,0-2.96-0.5791-3.96-1.7393c-0.8398-1.04-1.2598-2.2207-1.2598-3.54
				c0-1.3203,0.4199-2.4805,1.2598-3.4805c1-1.1592,2.3193-1.7402,3.96-1.7402c1.0801,0,3.1406-0.0791,6.1807-0.2393
				c0.4795-1.8008,0.8594-3.3008,1.1396-4.5c0.6797-2.8799,2.3799-4.3203,5.1006-4.3203c1.3193,0,2.4795,0.4199,3.4795,1.2598
				c1.2002,1.001,1.7998,2.3008,1.7998,3.9004c0,0.5605-0.1602,1.4805-0.4795,2.7598c0.9199-0.0801,2.1387-0.1592,3.6602-0.2402
				c1.4395-0.0391,2.6592,0.3809,3.6592,1.2607c0.8799-0.7598,1.96-1.1406,3.2402-1.1406c1.2393,0,3.9004,0.3809,7.9805,1.1406
				c3.5596,0.6797,6.1797,1.2402,7.8594,1.6797c1.2002,0.3203,2.1504,0.9502,2.8506,1.8896
				c0.6992,0.9404,1.0498,1.9707,1.0498,3.0898c0,1.2812-0.4404,2.4404-1.3203,3.4805c-1,1.2002-2.3008,1.7998-3.8994,1.7998
				c-0.6406,0-1.4404-0.1201-2.4004-0.3604c-0.7598-0.1592-1.54-0.3389-2.3398-0.54c0.1201,0.6807,0.1797,1.7207,0.1797,3.1201
				c0,2.7207,0.1592,6.2012,0.4805,10.4404c4.1191,2.2002,7.2002,4.4199,9.2402,6.6602
				C247.1396,53.7812,247.7197,55.0605,247.7197,56.3809z M220.6602,24.2207c0-1.4795-0.7412-2.1797-2.2197-2.0996
				c-1.5605,0.1201-4.1807,0.3203-7.8604,0.5996c0.96-3.8398,1.4395-5.9189,1.4395-6.2402c0-1.3594-0.7002-2.04-2.0996-2.04
				c-1.1201,0-1.7998,0.54-2.04,1.6201c-0.7197,3-1.2998,5.3398-1.7402,7.0205c-3.7598,0.2803-6.6592,0.4199-8.6992,0.4199
				c-1.3604,0-2.04,0.7002-2.04,2.0996c0,1.4004,0.6797,2.1006,2.04,2.1006c1.8789,0,4.3594-0.0996,7.4395-0.3008
				c-3.1602,10.3203-6.2002,18.54-9.1201,24.6602c-0.1602,0.2803-0.2402,0.5801-0.2402,0.9004c0,0.5996,0.2197,1.1006,0.6602,1.5
				c0.4404,0.4004,0.9395,0.5996,1.5,0.5996c0.8398,0,1.46-0.3994,1.8604-1.2002c3.2793-6.6387,6.54-15.5791,9.7803-26.8193
				l9.3594-0.7207C220,26.2412,220.6602,25.541,220.6602,24.2207z M243.5801,55.3604c0-0.5996-0.2607-1.1191-0.7803-1.5596
				c-3.5205-3.0801-6.8799-5.4199-10.0801-7.0195c-0.4404-5.2002-0.6602-9.3398-0.6602-12.4209
				c0-0.2793,0.0205-0.6992,0.0605-1.2598c0-0.5596,0-0.999,0-1.3193c0-1.4404-0.7002-2.1602-2.1006-2.1602
				c-1.3193,0-2.0195,0.6602-2.0996,1.9795c-0.04,0.7197-0.0596,1.6201-0.0596,2.7002c0,2.8008,0.1592,6.3604,0.4795,10.6797
				c-3.0801-0.999-5.9805-1.5-8.7002-1.5c-3,0-5.54,0.7607-7.6201,2.2803c-2.3203,1.7207-3.4795,4.1201-3.4795,7.2002
				c0,2.5605,0.9199,4.7197,2.7598,6.4795c2.0791,2.04,4.9395,3.0605,8.5801,3.0605c3.8799,0,7.0098-0.9395,9.3896-2.8203
				c2.3799-1.8799,3.5898-4.5596,3.6309-8.04c2.6396,1.5605,4.999,3.3203,7.0801,5.2803c0.4395,0.4004,0.9189,0.5996,1.4395,0.5996
				c0.5596,0,1.0596-0.2188,1.5-0.6602C243.3594,56.4209,243.5801,55.9219,243.5801,55.3604z M228.7002,51.2812
				c0,4.7598-2.9209,7.1396-8.7598,7.1396c-2.3203,0-4.1406-0.5791-5.46-1.7402c-1.1611-0.999-1.7402-2.2197-1.7402-3.6602
				c0-1.7598,0.7197-3.1592,2.1602-4.2002c1.2793-0.8789,2.8799-1.3193,4.7998-1.3193c2.7988,0,5.7793,0.6396,8.9395,1.9199
				C228.6797,49.9004,228.7002,50.5215,228.7002,51.2812z M226.5996,52.7207c-1.96-0.6797-3.9199-1.0195-5.8799-1.0195
				c-1.4004,0-2.4805,0.2803-3.2393,0.8398c-0.6006,0.4404-0.9004,0.96-0.9004,1.5596c0,0.7607,0.5996,1.3408,1.7998,1.7402
				c0.8799,0.3203,1.7402,0.4795,2.5801,0.4795C224.5996,56.3203,226.4805,55.1211,226.5996,52.7207z M241.8398,26.8604
				c0-1.0391-0.5205-1.6797-1.5596-1.9199c-1.7207-0.4395-4.2607-0.96-7.6201-1.5596c-3.9209-0.7598-6.3809-1.1396-7.3799-1.1396
				c-1.3604,0-2.04,0.7002-2.04,2.0996c0,1.2803,0.6387,2.001,1.9199,2.1602c0.7588,0.1201,3.3389,0.5996,7.7402,1.4395
				c3.8789,0.7207,6.1797,1.0801,6.8994,1.0801c0.6006,0,1.0898-0.2188,1.4697-0.6602
				C241.6494,27.9209,241.8398,27.4219,241.8398,26.8604z"/>
			<path class="st0" d="M303.7598,60.5811c0,1.5596-0.5801,2.8594-1.7402,3.8994c-1.04,0.8799-2.2197,1.3203-3.5391,1.3203
				c-2.3203,0-4.001-1.1396-5.04-3.4199c-1.4805-3.3994-3.1406-7.1797-4.9805-11.3398h-16.9795
				c-1.001,2.2402-2.6211,5.9805-4.8604,11.2197c-1,2.3594-2.7002,3.54-5.1006,3.54c-1.3193,0-2.5-0.4404-3.5391-1.3203
				c-1.1611-1.04-1.7402-2.3398-1.7402-3.8994c0-0.7598,0.1592-1.5,0.4795-2.2207l18.4805-40.9199
				c0.999-2.2393,2.5996-3.3594,4.7998-3.3594c2.1602,0,3.7393,1.1201,4.7402,3.3594l18.54,40.9199
				C303.5996,59.0811,303.7598,59.8213,303.7598,60.5811z M299.5596,59.501c0-0.3203-0.0596-0.6201-0.1797-0.9004l-18.54-40.9199
				c-0.4404-0.999-1.0801-1.5-1.9199-1.5s-1.4805,0.501-1.9199,1.5l-18.4805,40.9199c-0.1602,0.3604-0.2393,0.6602-0.2393,0.9004
				c0,0.5996,0.2295,1.1006,0.6895,1.5c0.46,0.4004,0.9697,0.5996,1.5303,0.5996c0.8398,0,1.4404-0.3994,1.7998-1.2002
				l6.1201-13.5596h21l6.1797,13.5596c0.3604,0.8008,0.96,1.2002,1.8008,1.2002c0.5596,0,1.0586-0.1992,1.5-0.5996
				C299.3398,60.6016,299.5596,60.1006,299.5596,59.501z M287.5596,42.6406h-17.2793l8.6396-19.0195L287.5596,42.6406z
				 M283.7197,40.541L280,32.2607l-3.7803,8.2803H283.7197z"/>
			<path class="st0" d="M361.7803,60.5205c0,1.5605-0.5312,2.8506-1.5898,3.8701c-1.0605,1.0205-2.3105,1.5303-3.75,1.5303
				c-2.6006,0-4.3203-1.3799-5.1602-4.1396c-0.5605-2.3604-1.1201-4.7197-1.6807-7.0801c-0.7598-3.0801-1.6191-5.3604-2.5801-6.8408
				c-1.3193-2.0791-3.04-3.1191-5.1592-3.1191h-11.7607v15.7793c0,1.6006-0.5498,2.8701-1.6494,3.8105
				c-1.1006,0.9395-2.3105,1.4102-3.6299,1.4102c-1.3203,0-2.4805-0.4414-3.4805-1.3203c-1.1602-1-1.7402-2.2998-1.7402-3.9004
				V20.3809c0-1.5195,0.4902-2.7695,1.4707-3.75c0.9795-0.9795,2.2295-1.4697,3.75-1.4697H345.46
				c4.5596,0,8.3398,1.2598,11.3398,3.7793c3.1592,2.6807,4.7402,6.2402,4.7402,10.6807c0,4.8398-2.04,8.7207-6.1201,11.6396
				c1.2393,1.7207,2.2598,3.96,3.0605,6.7197c0.6387,2.4004,1.2598,4.8008,1.8594,7.2002l0.9004,2.6396
				C361.5996,58.9814,361.7803,59.8818,361.7803,60.5205z M357.6396,59.501c0-0.3604-0.0996-0.6992-0.2998-1.0205
				c-0.4404-1.0801-0.8994-2.5391-1.3799-4.3799c-0.3604-1.5195-0.7197-3.0391-1.0801-4.5596
				c-1.3604-4.96-3.2607-8.3604-5.7002-10.2002c2.3193-0.7598,4.2607-2.1094,5.8203-4.0498c1.5596-1.9395,2.3398-4.1895,2.3398-6.75
				c0-3.4395-1.2002-6.1807-3.5996-8.2207c-2.4004-2.0391-5.501-3.0596-9.2998-3.0596h-20.6406
				c-1.4004,0-2.0996,0.7002-2.0996,2.0996v40.0801c0,1.4014,0.6992,2.1006,2.0996,2.1006c1.3994,0,2.1006-0.6992,2.1006-2.1006
				V40.541h14.8799c3.0391,0,5.3994,1.04,7.0801,3.1201c1.1592,1.4395,2.1592,3.7598,3,6.96c0.3994,1.7607,0.7998,3.5,1.1992,5.2197
				c0.6006,2.4805,1.1299,4.0801,1.5908,4.7998c0.459,0.7197,1.0498,1.0801,1.7695,1.0801c0.5596,0,1.0693-0.2197,1.5303-0.6602
				C357.4092,60.6211,357.6396,60.1006,357.6396,59.501z M353.2002,28.541c0,2.3203-1.0605,4.2402-3.1807,5.7598
				c-1.9199,1.3604-4.1006,2.04-6.5391,2.04h-17.5801V21.4609h17.9395c2.7998,0,5.0596,0.6406,6.7803,1.9199
				C352.3398,24.6611,353.2002,26.3809,353.2002,28.541z M350.7402,29.6211c0-2.6797-1.9609-4.0205-5.8799-4.0205h-14.7607v8.6406
				h14.46c1.8008,0,3.2803-0.46,4.4404-1.3809C350.1602,31.9414,350.7402,30.8613,350.7402,29.6211z"/>
			<path class="st0" d="M389.2002,37.7207c0,1.6006-0.5801,2.8799-1.7402,3.8398c-1.041,0.8008-2.1807,1.2002-3.4199,1.2002
				c-1.2002,0-2.3203-0.3799-3.3604-1.1396s-1.6797-1.8398-1.9199-3.2402c-0.8008-4.3994-1.9404-9.4805-3.4199-15.2402
				c-0.1201-0.4795-0.1797-0.96-0.1797-1.4395c0-1.6396,0.5996-2.96,1.7998-3.96c1.04-0.8408,2.2197-1.2607,3.54-1.2607
				c1.1191,0,2.1494,0.3408,3.0898,1.0205c0.9395,0.6807,1.5693,1.6406,1.8906,2.8799
				C387.96,30.0615,389.2002,35.8408,389.2002,37.7207z M385,36.6406c0-1.7188-1.2002-7.2197-3.5996-16.5
				c-0.2803-1.0391-0.9404-1.5596-1.9805-1.5596c-0.5605,0-1.041,0.1797-1.4395,0.54c-0.5205,0.4004-0.7803,0.8994-0.7803,1.5
				c0,0.2393,0.0391,0.46,0.1201,0.6602c1.3594,4.96,2.5195,10.1201,3.4795,15.4795c0.2402,1.2402,0.96,1.8604,2.1602,1.8604
				C384.3193,38.6211,385,37.9609,385,36.6406z M424.96,22.0605c-0.3203,12.5605-3.7402,22.7402-10.2598,30.54
				c-6.04,7.2402-14.4404,12.0801-25.2002,14.5205c-0.3604,0.0791-0.7607,0.1201-1.2002,0.1201
				c-1.6406,0-2.9395-0.6211-3.8994-1.8604c-0.8408-1.041-1.2607-2.2002-1.2607-3.4805c0-2.7598,1.3203-4.4785,3.96-5.1592
				c6.96-1.8008,12.4404-4.4199,16.4404-7.8604c7.1592-6.1592,10.8193-15.1592,10.9795-27c0.04-1.6396,0.6396-2.9404,1.8008-3.9004
				c0.999-0.7998,2.1387-1.1992,3.4199-1.1992c1.2793,0,2.4395,0.4199,3.4795,1.2598
				C424.4199,19.041,424.999,20.3809,424.96,22.0605z M418.7197,18.8809c-1.3604,0-2.0605,0.6602-2.0996,1.9795
				c-0.3604,20.7607-10.2803,33.4004-29.7598,37.9209c-1.0801,0.2393-1.6201,0.9395-1.6201,2.0996
				c0,0.6406,0.2402,1.1904,0.7197,1.6504c0.4805,0.459,1.0801,0.6094,1.7998,0.4492c10.0801-2.2793,17.9004-6.7393,23.46-13.3799
				c6.04-7.2002,9.2402-16.7188,9.6006-28.5596c0-0.6396-0.2207-1.1602-0.6602-1.5605
				C419.7197,19.0811,419.2393,18.8809,418.7197,18.8809z M404.7402,36.1611c0,1.6406-0.6006,2.96-1.7998,3.96
				c-1.041,0.8398-2.2012,1.2598-3.4805,1.2598c-1.2402,0-2.3398-0.3799-3.2998-1.1396c-1.1201-0.8799-1.7607-2.04-1.9199-3.4805
				c-0.4805-4.3203-1.3799-9.459-2.7002-15.4199c-0.0811-0.3604-0.1201-0.7598-0.1201-1.2002c0-1.5996,0.5791-2.8994,1.7402-3.8994
				c1.0391-0.8799,2.2197-1.3203,3.54-1.3203c1.1592,0,2.2197,0.3506,3.1797,1.0498c0.96,0.7002,1.5996,1.6904,1.9199,2.9697
				c0.5195,2.0811,1.0996,4.9199,1.7402,8.5205C404.3398,31.8213,404.7402,34.7207,404.7402,36.1611z M400.54,35.0811
				c0-1.2393-0.3809-3.9395-1.1396-8.1006c-0.6406-3.4795-1.2207-6.2598-1.7402-8.3398c-0.2803-1.0801-0.96-1.6201-2.04-1.6201
				c-0.6006,0-1.1396,0.251-1.6201,0.75c-0.4805,0.501-0.6406,1.1104-0.4805,1.8301c1.4004,6.1602,2.3408,11.4004,2.8203,15.7197
				c0.1592,1.2412,0.8398,1.8604,2.04,1.8604C399.8203,37.1807,400.54,36.4814,400.54,35.0811z"/>
			<path class="st0" d="M485.3799,23.4404c-2.2803,11.7607-8.6807,19.9199-19.2002,24.4805
				c-0.6396,0.2803-1.3604,0.4199-2.1602,0.4199c-1.1992,0-2.2598-0.3604-3.1797-1.0801
				c-1.4395,4.6797-3.7109,8.7305-6.8096,12.1504c-3.1006,3.4199-6.6514,5.8496-10.6504,7.29
				c-0.6807,0.2393-1.2998,0.3594-1.8604,0.3594c-1.5996,0-2.9004-0.5996-3.8994-1.7998c-0.8809-1.041-1.3203-2.2197-1.3203-3.54
				c0-2.1992,1.0205-3.7598,3.0605-4.6797c8.3994-3.7207,12.5996-10.8398,12.5996-21.3604v-4.3203
				c0-1.4785,0.4805-2.6992,1.4404-3.6592H439.96c-1.6006,0-2.9004-0.5801-3.9004-1.7402c-0.8799-1.04-1.3193-2.2197-1.3193-3.54
				s0.4395-2.4795,1.3193-3.4805c1-1.1592,2.2998-1.7393,3.9004-1.7393h40.2598c1.4004,0,2.5801,0.3799,3.54,1.1396
				c1.1602,0.9209,1.7402,2.1602,1.7402,3.7197C485.5,22.501,485.46,22.9609,485.3799,23.4404z M479.2002,19.3008h-40.2598
				c-1.4014,0-2.1006,0.7002-2.1006,2.0996c0,1.4014,0.6992,2.1006,2.1006,2.1006h37.6191
				c-0.7998,3.7197-2.4697,7.0195-5.0098,9.8994c-2.54,2.8809-5.6699,5.1211-9.3896,6.7207
				c-0.8398,0.3594-1.2598,0.9805-1.2598,1.8594c0,0.5605,0.1895,1.0605,0.5693,1.5c0.3799,0.4414,0.8896,0.6602,1.5303,0.6602
				c0.3193,0,0.6201-0.0596,0.9004-0.1797c9.3994-4.04,15.1797-11.4395,17.3398-22.2002c0.0391-0.1992,0.0596-0.3994,0.0596-0.5996
				C481.2998,19.9219,480.5996,19.3008,479.2002,19.3008z M458.2598,35.2012v-4.9199c0-1.4004-0.7002-2.1006-2.0996-2.1006
				c-1.4004,0-2.1006,0.7002-2.1006,2.1006v4.9199c0,5.8799-1.4004,10.96-4.1992,15.2393c-2.5605,3.96-5.9209,6.7412-10.0801,8.3408
				c-0.9209,0.3594-1.3799,1-1.3799,1.9199c0,0.5605,0.1992,1.0596,0.5996,1.5c0.3994,0.4404,0.9004,0.6592,1.5,0.6592
				c0.1992,0,0.459-0.04,0.7803-0.1191c4.8799-1.8008,8.8799-5.1006,12-9.9004C456.5996,47.7207,458.2598,41.8408,458.2598,35.2012z
				 M473.3203,27.7012H460.96c0.999,0.9199,1.5,2.1396,1.5,3.6592v4.9209c0,0.1602,0,0.4404,0,0.8398
				c-0.04,0.3594-0.0596,0.6396-0.0596,0.8398c3.3994-2.1201,5.2793-3.2998,5.6396-3.54
				C470.3203,32.6211,472.0801,30.3809,473.3203,27.7012z"/>
			<path class="st0" d="M547.3604,38.2012c0,1.5596-0.5605,2.8301-1.6807,3.8096c-1.1201,0.9805-2.46,1.4697-4.0195,1.4697H498.04
				c-1.5596,0-2.9004-0.4893-4.0205-1.4697c-1.1201-0.9795-1.6797-2.25-1.6797-3.8096c0-1.5605,0.5596-2.8301,1.6797-3.8105
				c1.1201-0.9795,2.4609-1.4697,4.0205-1.4697h43.6201c1.5596,0,2.8994,0.4902,4.0195,1.4697
				C546.7998,35.3711,547.3604,36.6406,547.3604,38.2012z M543.1602,37.1807c0-1.4395-0.8398-2.1602-2.5205-2.1602h-43.6201
				c-1.7197,0-2.5791,0.7207-2.5791,2.1602c0,1.4404,0.8594,2.1602,2.5791,2.1602h43.6201
				C542.3203,39.3408,543.1602,38.6211,543.1602,37.1807z"/>
			<path class="st0" d="M605.0801,35.0811c0,1.4395-0.5205,2.6094-1.5605,3.5098s-2.1592,1.3496-3.3594,1.3496
				c-0.6406,0-1.1406-0.0791-1.5-0.2393c-0.8398,1.96-2.3604,2.9395-4.5605,2.9395c-1.8799,0-3.2803-0.8594-4.1992-2.5801
				c0-0.0391-0.9004-1.3398-2.7002-3.8994c-1.1611-1.6396-1.7402-2.9795-1.7402-4.0205c-2.5605,1.4805-4.6709,3.3906-6.3301,5.7305
				c-1.6602,2.3398-2.4902,4.5293-2.4902,6.5693c0,7.2002,5.96,10.8008,17.8799,10.8008c1.8008,0,3.2402,0.3994,4.3203,1.1992
				c1.2803,0.8809,1.9199,2.2002,1.9199,3.96c0,1.3203-0.4404,2.5-1.3193,3.54c-0.96,1.1602-2.2412,1.7402-3.8408,1.7402h-0.8994
				c-8.1602,0-14.8008-1.6602-19.9199-4.9795c-5.7607-3.7998-8.6406-9.2402-8.6406-16.3203c0-6.2002,2.7607-11.7793,8.2803-16.7402
				c-1,0.0811-3.7002,0.3408-8.0996,0.7803c-3.2803,0.3203-5.9609,0.4795-8.04,0.4795c-1.6406,0-2.9404-0.5996-3.9004-1.7998
				c-0.8398-0.999-1.2598-2.1602-1.2598-3.4795c0-1.2393,0.4092-2.3701,1.2295-3.3906c0.8193-1.0195,1.9697-1.6094,3.4502-1.7695
				c8.6797-0.9199,19.2998-1.3799,31.8604-1.3799c4.6797,0,8.0791,0.04,10.2002,0.1201c1.5596,0.04,2.8389,0.6201,3.8398,1.7393
				c0.8789,1.001,1.3193,2.1807,1.3193,3.54c0,1.1611-0.3506,2.2207-1.0498,3.1807c-0.7002,0.96-1.6699,1.5801-2.9102,1.8594
				C603.7393,30.8809,605.0801,33.4004,605.0801,35.0811z M600.8203,21.4609c0-1.3994-0.7002-2.1201-2.1006-2.1602
				c-4.4395-0.1201-7.8203-0.1797-10.1396-0.1797c-12,0-22.5,0.46-31.5,1.3799c-1.2402,0.1201-1.8604,0.8203-1.8604,2.0996
				c0,0.6006,0.21,1.1201,0.6299,1.5605s0.9697,0.6201,1.6504,0.54c10.0801-1,19.2002-1.5605,27.3604-1.6807
				c-4.4805,1.7607-8.2803,4.3799-11.4004,7.8604c-3.4795,3.9209-5.2197,8.0605-5.2197,12.4199
				c0,5.9199,2.4199,10.4805,7.2598,13.6797c4.4795,3,10.5195,4.5,18.1201,4.5h0.8398c1.3994,0,2.0996-0.6992,2.0996-2.0996
				c0-1.3994-0.7002-2.0996-2.0996-2.0996h-1.0195c-7.1611,0-12.54-1.3594-16.1406-4.0801
				c-3.2402-2.4004-4.8594-5.6797-4.8594-9.8408c0-4.7188,2.5195-9.0791,7.5596-13.0791
				c5.2393-4.1201,11.5195-6.3994,18.8398-6.8408C600.1602,23.3613,600.8203,22.7012,600.8203,21.4609z M594.8799,36.7607
				c0-0.1592-0.0801-0.4395-0.2402-0.8398c-0.96-1.8398-2.2998-3.7998-4.0195-5.8799c-0.3604-0.4395-0.8008-0.6602-1.3203-0.6602
				c-0.4404,0-0.8398,0.1709-1.2002,0.5098c-0.3594,0.3408-0.54,0.75-0.54,1.2305c0,0.3594,0.1396,0.7197,0.4209,1.0801
				c1.4785,1.7998,2.6787,3.5801,3.5996,5.3398c0.3193,0.5996,0.8193,0.8994,1.5,0.8994
				C594.2803,38.4404,594.8799,37.8809,594.8799,36.7607z M600.8799,34.0605c0-0.3594-0.0801-0.6387-0.2402-0.8398
				c-0.96-1.8799-2.2793-3.8398-3.96-5.8799c-0.3594-0.4395-0.7793-0.6602-1.2598-0.6602c-1.1602,0-1.7402,0.5801-1.7402,1.7402
				c0,0.3604,0.1201,0.7002,0.3604,1.0195c0.8789,1.1611,2.0791,2.9609,3.5996,5.4004c0.3203,0.5996,0.7998,0.9004,1.4404,0.9004
				C600.2803,35.7412,600.8799,35.1807,600.8799,34.0605z"/>
			<path class="st0" d="M660.7002,47.2012c0,5.7998-1.9307,10.3701-5.79,13.71c-3.8604,3.3389-8.9912,5.0098-15.3906,5.0098
				c-5.1201,0-9.5605-1.1006-13.3193-3.2998c-4.6006-2.6797-6.9004-6.4199-6.9004-11.2207c0-1.4785,0.5195-2.7197,1.5605-3.7197
				c0.8789-0.8398,1.9199-1.3203,3.1201-1.4395c-2.1602-0.7207-3.2402-2.4004-3.2402-5.04c0-2.8809,0.1992-6.3994,0.5996-10.5605
				c0.3203-3.5195,0.6396-7.0391,0.96-10.5596c0.1201-1.4404,0.6602-2.6201,1.6201-3.54s2.1602-1.3799,3.5996-1.3799h26.4609
				c1.5986,0,2.8994,0.5801,3.8994,1.7393c0.8799,1.041,1.3203,2.2207,1.3203,3.54c0,1.3203-0.4404,2.4814-1.3203,3.4805
				c-1,1.1602-2.3008,1.7402-3.8994,1.7402h-21.6006l-0.4795,6.1797c3.0391-1.0801,6.2393-1.6201,9.5996-1.6201
				c5.5596,0,10.0596,1.3604,13.5,4.0801C658.7998,37.3008,660.7002,41.6016,660.7002,47.2012z M656.5,46.1211
				c0-4.5605-1.5-8.04-4.5-10.4404c-2.8408-2.2393-6.7002-3.3604-11.5801-3.3604c-4.4805,0-8.8604,1.2002-13.1396,3.6006
				l1.1396-14.46h24.4805c1.3994,0,2.0996-0.6992,2.0996-2.1006c0-1.3994-0.7002-2.0996-2.0996-2.0996H626.5
				c-1.2803,0-1.9805,0.6602-2.0996,1.9805c-0.3604,3.4795-0.7012,6.96-1.0205,10.4395c-0.4004,4.1611-0.5996,7.6602-0.5996,10.5
				c0,1.4404,0.5996,2.1602,1.7998,2.1602c0.5996,0,1.1797-0.2402,1.7402-0.7197c4.1191-3.4404,8.8193-5.1602,14.0996-5.1602
				c7.8398,0,11.7598,3.2607,11.7598,9.7803c0,3.5195-1.2207,6.2803-3.6602,8.2793c-2.4395,2.001-5.7998,3-10.0791,3
				c-7.2002,0-11.5205-2.5391-12.96-7.6201c-0.2812-1.0391-0.9404-1.5596-1.9805-1.5596c-1.4004,0-2.0996,0.6807-2.0996,2.04
				c0,0.2402,0.0195,0.4404,0.0596,0.5996c2,7.1611,7.6592,10.7402,16.9805,10.7402c5.6396,0,10.0586-1.3896,13.2598-4.1699
				C654.8994,54.7715,656.5,50.9609,656.5,46.1211z M650.0801,47.2607c0-4.3994-2.8604-6.5996-8.5801-6.5996
				c-4.4004,0-8.3398,1.4199-11.8203,4.2598c-0.96,0.7598-2.0605,1.2803-3.2998,1.5596c1.6396,0.4805,2.5996,1.4805,2.8799,3
				c0.7598,3.96,4.1797,5.9404,10.2598,5.9404c3.5195,0,6.2002-0.7598,8.04-2.2803
				C649.2402,51.7012,650.0801,49.7412,650.0801,47.2607z"/>
			<path class="st0" d="M728.1396,40.7812c0,1.1201-0.3506,2.1396-1.0498,3.0596c-0.7002,0.9209-1.6494,1.5205-2.8496,1.7998
				c0.1592,0.4404,0.2402,1,0.2402,1.6797c-0.041,4.6807-0.1406,7.7012-0.3008,9.0605c-0.4004,3.3604-1.3604,5.9004-2.8799,7.6201
				c-1.9199,2.1602-4.8203,3.2402-8.7002,3.2402c-2.2793,0-4.0195-0.1807-5.2197-0.54c-1.8809-0.5605-3.0801-1.6611-3.5996-3.3008
				h-25.5c-3.1201,0-4.6807-1.7393-4.6807-5.2197v-7.5596c0-1.5605,0.54-2.8203,1.6201-3.7803
				c0.96-0.8398,2.1006-1.2998,3.4199-1.3799V22.541c0-1.5195,0.4805-2.7695,1.4404-3.75c0.96-0.9795,2.1992-1.4707,3.7197-1.4707
				h8.5801c0.7598-1.1592,1.5195-2.2988,2.2803-3.4199c0.999-1.1592,2.2393-1.7393,3.7197-1.7393c1.3203,0,2.499,0.46,3.54,1.3799
				c1.1191,1.04,1.6797,2.3008,1.6797,3.7793h10.3809c1.5195,0,2.7598,0.4912,3.7197,1.4707c0.96,0.9805,1.4395,2.2305,1.4395,3.75
				v11.6396c0,0.6006-0.0596,1.1396-0.1797,1.6201h4.0205c1.5195,0,2.7598,0.4902,3.7197,1.4697
				C727.6602,38.251,728.1396,39.4219,728.1396,40.7812z M720.2803,46.2412c0-1.2002-0.6807-1.8008-2.04-1.8008h-33.3604v-2.8799
				h37.0205c1.3594,0,2.04-0.6191,2.04-1.8594c0-1.2002-0.6807-1.8008-2.04-1.8008h-37.0205v-2.7598h28.0205
				c1.3594,0,2.04-0.6797,2.04-2.04V21.4609c0-1.3594-0.6807-2.04-2.04-2.04h-15.1807c0.4404-0.5195,0.96-1.3203,1.5605-2.4004
				c0.0791-0.2393,0.1201-0.4795,0.1201-0.7197c0-0.5596-0.21-1.04-0.6309-1.4404c-0.4199-0.3994-0.9102-0.5996-1.4697-0.5996
				c-0.7197,0-1.2803,0.3604-1.6797,1.0801c-0.6807,1-1.5605,2.3604-2.6396,4.0801h-10.2002c-1.4014,0-2.1006,0.6807-2.1006,2.04
				v24.54c0,1.3604,0.6992,2.04,2.1006,2.04h7.0801v7.0801h-10.0205v-5.5205c0-1.3594-0.6807-2.04-2.04-2.04
				c-1.4004,0-2.0996,0.6807-2.0996,2.04v7.5605c0,1.3604,0.5195,2.04,1.5596,2.04h28.9805
				c-0.4404,0.4404-0.6602,0.96-0.6602,1.5596c0,1.1201,0.5791,1.7607,1.7402,1.9199c1.5986,0.2402,3,0.3604,4.1992,0.3604
				c4.6406,0,7.3398-1.9199,8.1006-5.7598C720.0596,55.001,720.2803,51.3213,720.2803,46.2412z M687.7598,53.0205v-1.5H684.04v1.5
				H687.7598z M710.7402,25.6006h-25.8604v-2.8193h25.8604V25.6006z M710.7402,31.8408h-25.8604v-2.9404h25.8604V31.8408z
				 M716.0195,48.041c0,3.3594-0.1406,6.0205-0.4199,7.9795c-0.2393,1.7998-1.4199,2.7002-3.54,2.7002
				c-0.7998,0-2.0605-0.0996-3.7793-0.2998c0.3193-0.3994,0.4795-0.9004,0.4795-1.5v-5.46c0-1.3203-0.6602-1.9805-1.9795-1.9805
				c-1.3203,0-1.9805,0.6602-1.9805,1.9805v3.6602h-10.8594V48.041H716.0195z M702.7002,51.5205h-4.5605v1.5h4.5605V51.5205z"/>
			<path class="st0" d="M787.8398,61.2412c0,1.3193-0.4404,2.4795-1.3203,3.4795c-0.96,1.1191-2.2402,1.6797-3.8398,1.6797h-23.9395
				c-5.7598,0-10.2812-1.1006-13.5605-3.2998c-3.3594,3.1592-5.9805,4.7402-7.8594,4.7402c-1.4805,0-2.7002-0.54-3.6602-1.6201
				s-1.4404-2.3008-1.4404-3.6602c0-1.8389,0.7803-3.3389,2.3398-4.5c2.3604-1.7188,4.1602-3.2598,5.4004-4.6201V42.3408h-2.4004
				c-1.6406,0-2.9395-0.5791-3.8994-1.7402c-0.8809-0.999-1.3203-2.1602-1.3203-3.4795c0-1.3594,0.4395-2.54,1.3203-3.54
				c0.96-1.1602,2.2588-1.7402,3.8994-1.7402h7.6807c0.6797,0,1.3193,0.1201,1.9199,0.3604c0.5195-0.96,1.0195-1.9404,1.5-2.9404
				c-0.7197,0.3203-1.4209,0.4805-2.1006,0.4805c-1.4004,0-2.6006-0.5195-3.5996-1.5605c-1.6797-1.7197-3.8398-3.3799-6.4795-4.9795
				c-1.7607-1.04-2.6406-2.5205-2.6406-4.4404c0-1.3594,0.4893-2.5996,1.4697-3.7197c0.9805-1.1191,2.2295-1.6807,3.75-1.6807
				c0.8799,0,1.7803,0.2607,2.7002,0.7803c1,0.6406,1.96,1.3008,2.8799,1.9805c2.2402,1.5996,4.0996,3.2002,5.5801,4.7998
				c0.6797,0.7197,1.1201,1.4395,1.3203,2.1602c0.96-2.0801,1.8301-4.2197,2.6104-6.4199c0.7793-2.2002,2.4492-3.3008,5.0098-3.3008
				c1.1592,0,2.2197,0.3213,3.1797,0.96c1.1602,0.8008,1.8203,1.9004,1.9805,3.3008c0.0791-0.2002,0.1797-0.5,0.2998-0.9004
				c0.7998-2.2393,2.4795-3.3604,5.04-3.3604c1.2393,0,2.3594,0.3604,3.3594,1.0801c1.2002,0.9209,1.8008,2.2002,1.8008,3.8408
				c0,0.2393-0.0205,0.4404-0.0605,0.5996c0.3604-0.8398,0.6396-1.5605,0.8398-2.1602c0.7998-2.2393,2.4805-3.3604,5.04-3.3604
				c1.2393,0,2.3408,0.3604,3.3008,1.0801c1.2393,0.9209,1.8594,2.2002,1.8594,3.8408c0,2.0801-2.3604,7.8398-7.0801,17.2793
				c5.1201,10.2402,7.6807,16.6807,7.6807,19.3203c0,0.8398-0.1611,1.5801-0.4805,2.2197
				C787.1992,58.1416,787.8398,59.5215,787.8398,61.2412z M783.6396,60.1611c0-1.4004-0.7197-2.1006-2.1592-2.1006h-23.7002
				c-3.3213,0-5.9805-0.3994-7.9805-1.2002c-2.3604-0.96-3.54-2.3789-3.54-4.2598V36.041c0-1.4004-0.7002-2.1006-2.0996-2.1006
				H736.54c-1.4004,0-2.0996,0.7002-2.0996,2.1006s0.6992,2.0996,2.0996,2.0996h5.5195v14.46c0,0.4004,0.0205,0.7002,0.0605,0.9004
				c-1.4004,1.7197-3.7002,3.8008-6.9004,6.2402c-0.5996,0.4404-0.8994,1.04-0.8994,1.7998c0,0.5605,0.1895,1.0498,0.5693,1.4697
				s0.8496,0.6299,1.4102,0.6299c0.3604,0,0.7598-0.1406,1.2002-0.4199c2.4004-1.5596,4.5596-3.3604,6.4805-5.4004
				c2.6396,2.9209,7.2188,4.3809,13.7393,4.3809h23.8799C782.959,62.2012,783.6396,61.5215,783.6396,60.1611z M747.5801,23.5605
				c0-0.5596-0.2207-1.0801-0.6602-1.5596c-2.04-2.1602-4.6602-4.2393-7.8604-6.2402c-0.3994-0.1992-0.7598-0.2998-1.0791-0.2998
				c-0.5615,0-1.041,0.2305-1.4404,0.6895c-0.4004,0.4609-0.5996,0.9707-0.5996,1.5303c0,0.7607,0.3389,1.3408,1.0195,1.7402
				c0.8398,0.5205,1.6592,1.0605,2.46,1.6201c1.9199,1.3193,3.5,2.6201,4.7402,3.8994c0.3994,0.4004,0.8594,0.6006,1.3799,0.6006
				c0.5195,0,0.9902-0.2002,1.4102-0.6006C747.3701,24.541,747.5801,24.0811,747.5801,23.5605z M760.7803,53.8604
				c0-0.1992-0.041-0.4395-0.1201-0.7197c-1.4004-4.7188-4.0605-10.9199-7.9805-18.5996c1.4404-2.9199,2.5596-5.1992,3.3604-6.8398
				c1.7197-3.7207,3.0391-6.9004,3.96-9.54c0.0801-0.2402,0.1201-0.54,0.1201-0.9004c0-1.2002-0.6602-1.7998-1.9805-1.7998
				c-1.1201,0-1.8203,0.4199-2.0996,1.2598c-1.6406,4.6006-4.1611,10.1807-7.5596,16.7402c-0.1201,0.2803-0.1807,0.5996-0.1807,0.96
				c0,0.4004,0.0605,0.7402,0.1807,1.0195c1.1191,2.2002,2.1592,4.3408,3.1191,6.4199c2.3193,4.9209,4,9.1006,5.04,12.54
				c0.3203,1.001,0.96,1.5,1.9199,1.5c0.5605,0,1.0703-0.1895,1.5303-0.5693S760.7803,54.4609,760.7803,53.8604z M754.54,55.9609
				c-0.7197-2.4004-2.0801-5.8398-4.0801-10.3203v7.9805C750.46,55.0605,751.8193,55.8408,754.54,55.9609z M771.2803,53.8604
				c0-0.1992-0.041-0.4395-0.1201-0.7197c-1.4004-4.7188-4.0605-10.9199-7.9805-18.5996c1.4404-2.8799,2.5596-5.1602,3.3604-6.8398
				c1.7197-3.7207,3.0195-6.9004,3.9004-9.54c0.1191-0.3604,0.1797-0.6602,0.1797-0.9004c0-1.2002-0.6602-1.7998-1.9805-1.7998
				c-1.1201,0-1.8203,0.4199-2.0996,1.2598c-1.6406,4.6006-4.1611,10.1807-7.5596,16.7402c-0.1201,0.2803-0.1807,0.5996-0.1807,0.96
				c0,0.4004,0.0605,0.7402,0.1807,1.0195c1.1191,2.2002,2.1592,4.3408,3.1191,6.4199c2.2803,4.9609,3.9395,9.1406,4.9805,12.54
				c0.3193,1.001,0.9795,1.5,1.9795,1.5c0.5605,0,1.0703-0.1895,1.5303-0.5693S771.2803,54.4609,771.2803,53.8604z
				 M782.2002,53.8604c0-2.2793-2.7002-8.7197-8.1006-19.3193c3.2402-6.1592,5.6797-11.6191,7.3203-16.3799
				c0.1201-0.3604,0.1797-0.6602,0.1797-0.9004c0-1.2002-0.6807-1.7998-2.04-1.7998c-1.04,0-1.7197,0.4199-2.04,1.2598
				c-1.6797,4.6006-4.2197,10.1807-7.6191,16.7402c-0.1201,0.2803-0.1807,0.5996-0.1807,0.96c0,0.4004,0.0605,0.7402,0.1807,1.0195
				c1.1592,2.2002,2.2197,4.3408,3.1797,6.4199c2.2803,4.9209,3.9395,9.1006,4.9795,12.54c0.2803,1.001,0.9395,1.5,1.9805,1.5
				C781.4805,55.9004,782.2002,55.2207,782.2002,53.8604z"/>
			<path class="st0" d="M841.2402,38.0205c0,8.8799-2.6201,15.8809-7.8604,21c-5.001,4.8799-11.9395,7.6201-20.8203,8.2207
				c-1.7197,0.1191-3.1191-0.4609-4.1992-1.7402c-0.8809-1.041-1.3203-2.2002-1.3203-3.4805c0-3.0391,1.5801-4.7998,4.7402-5.2793
				c3.5195-0.5195,5.7598-0.9199,6.7197-1.2002c3.4805-1,6.2197-2.6191,8.2197-4.8604c2.6797-3.0391,4.0205-7.1797,4.0205-12.4199
				c0-3.96-0.2803-6.8193-0.8398-8.5801c-0.9209-3.0391-2.7607-4.5596-5.5205-4.5596c-3.2402,0-6.46,2.3604-9.6602,7.0801
				c-3.1201,4.5596-4.7393,9-4.8594,13.3193c-0.041,1.5605-0.6006,2.8105-1.6807,3.75c-1.0801,0.9404-2.3008,1.4102-3.6602,1.4102
				c-2.2402,0-3.7402-0.96-4.5-2.8799c-0.4795-1.1602-0.7197-3-0.7197-5.5195c0-6.3604,0.46-14.2803,1.3799-23.7607
				c0.1602-1.5195,0.7998-2.7393,1.9199-3.6602c1-0.7988,2.1396-1.1992,3.4199-1.1992s2.4502,0.4404,3.5107,1.3193
				c1.0596,0.8809,1.5898,2.1211,1.5898,3.7207c0,0.1191-0.0605,0.8604-0.1797,2.2197c4.2793-4.2002,8.9189-6.2998,13.9199-6.2998
				c5.7598,0,10.0801,2.6797,12.96,8.04C840.0996,26.8604,841.2402,31.9814,841.2402,38.0205z M837.04,36.9404
				c0-5.3193-0.8604-9.7197-2.5801-13.1992c-2.2402-4.6807-5.7998-7.0205-10.6797-7.0205c-3.6406,0-7.1006,1.3799-10.3799,4.1396
				c-3.041,2.6006-5.6006,6.1006-7.6807,10.5c0.3203-3.6387,0.7207-8.1191,1.2002-13.4395
				c0.1201-1.4404-0.5205-2.1602-1.9199-2.1602c-1.3604,0-2.0996,0.6602-2.2197,1.9805
				c-0.9209,9.3594-1.3799,17.2002-1.3799,23.5195c0,1.4004,0.0195,2.4805,0.0596,3.2402c0.0801,1.3193,0.7598,1.9795,2.04,1.9795
				c1.3994,0,2.1201-0.7197,2.1602-2.1602c0.1592-4.8389,1.959-9.8193,5.3994-14.9395c3.7998-5.6396,7.8994-8.46,12.3008-8.46
				c6.3193,0,9.4795,5.4209,9.4795,16.2598c0,13.2803-7.2598,20.5-21.7803,21.6602c-1.2803,0.1201-1.9199,0.8203-1.9199,2.0996
				c0,0.5605,0.1895,1.0605,0.5703,1.5c0.3799,0.4404,0.9092,0.6396,1.5898,0.6006c7.5996-0.4395,13.5801-2.5205,17.9404-6.2402
				C834.4395,52.3604,837.04,45.7412,837.04,36.9404z"/>
			<path class="st0" d="M905.3203,36.9404c0,1.2002-0.3604,2.2803-1.0801,3.2402c-0.8398,1.0801-1.9805,1.7207-3.4199,1.9199
				c-2.1211,0.2803-5.2803,0.9805-9.4805,2.1006c0,4.5205-0.0205,7.1992-0.0596,8.04c-0.0811,1.4395-0.5205,2.6201-1.3203,3.54
				c2.4395-0.2402,5.1602-0.4209,8.1602-0.54c1.7197-0.0801,3.1201,0.5,4.2002,1.7393c0.8789,1.041,1.3193,2.2002,1.3193,3.4805
				s-0.4004,2.3994-1.1992,3.3594c-0.9209,1.1201-2.1406,1.7402-3.6602,1.8604c-5.3203,0.3994-9.7803,0.6006-13.3799,0.6006
				c-5.7207,0-10.4609-0.7207-14.2207-2.1602c-5.5596-2.1602-8.3398-5.7197-8.3398-10.6807c0-3.1592,1.4795-6.1992,4.4404-9.1201
				c2.6396-2.5586,6.1797-4.7998,10.6201-6.7197c-0.2803-0.4795-0.8008-0.7197-1.5605-0.7197c-4,0-8.3203,3.3809-12.96,10.1396
				c-1.04,1.5205-2.3398,2.2803-3.8994,2.2803c-1.4014,0-2.5801-0.5098-3.54-1.5303c-0.96-1.0195-1.4404-2.1895-1.4404-3.5098
				s0.4395-2.4795,1.3203-3.4795c2.6787-3.04,5.5996-6.9395,8.7598-11.7002h-4.2598c-1.5605,0-2.8203-0.5195-3.7803-1.5605
				c-0.96-1.0391-1.4404-2.2197-1.4404-3.54c0-1.3594,0.4805-2.5586,1.4404-3.5996c0.96-1.04,2.2197-1.5605,3.7803-1.5605h10.3193
				c0.3994-0.7988,0.9805-1.9795,1.7402-3.5391c0.999-2.04,2.5596-3.0605,4.6797-3.0605c1.3203,0,2.5,0.4404,3.54,1.3203
				c1.2002,1,1.8008,2.3008,1.8008,3.8994c0,0.4805-0.0605,0.9404-0.1807,1.3799h12.2998c1.5605,0,2.8203,0.5205,3.7803,1.5605
				c0.96,1.041,1.4404,2.2402,1.4404,3.5996c0,1.3604-0.4609,2.5205-1.3799,3.4805c-1.001,1.0801-2.2803,1.6201-3.8408,1.6201
				h-10.4395c1.9199,1.1201,3.5,2.7803,4.7402,4.9795c1.8789-0.5195,3.7588-1.0391,5.6396-1.5596
				c2.3193-0.5596,4.2197-0.8398,5.7002-0.8398c1.6396,0,2.9395,0.5996,3.8994,1.7998
				C904.9004,34.501,905.3203,35.6611,905.3203,36.9404z M901.1201,35.8604c0-1.4395-0.6807-2.1592-2.04-2.1592
				c-1.5605,0-5.9199,1.0195-13.0801,3.0596c-1.6406-4.7197-4.6406-7.0801-9-7.0801c-2.2402,0-4.7998,0.7002-7.6797,2.1006
				c1.8389-2.5596,3.3594-4.8398,4.5596-6.8408h19.5605c1.3994,0,2.0996-0.6797,2.0996-2.04c0-1.3193-0.7002-1.9795-2.0996-1.9795
				h-17.2803c0.7197-1.3994,1.3203-2.6191,1.7998-3.6602c0.1592-0.2793,0.2402-0.5791,0.2402-0.9004
				c0-0.5996-0.2207-1.0889-0.6602-1.4697c-0.4404-0.3799-0.9404-0.5703-1.5-0.5703c-0.8799,0-1.5,0.4004-1.8604,1.2002
				c-0.7598,1.6006-1.6797,3.4004-2.7598,5.4004h-12.1201c-1.4004,0-2.0996,0.6602-2.0996,1.9795c0,1.3604,0.6992,2.04,2.0996,2.04
				h9.8398c-4.1602,7.001-8.1807,12.6211-12.0596,16.8604c-0.3604,0.4004-0.54,0.8604-0.54,1.3799
				c0,0.6006,0.2295,1.1309,0.6904,1.5898c0.459,0.4609,0.9688,0.6904,1.5293,0.6904c0.6006,0,1.0996-0.2793,1.5-0.8398
				c2.5205-3.4805,5.2803-6.2402,8.2803-8.2803c2.8799-1.959,5.499-2.9404,7.8604-2.9404c2.5586,0,4.4395,1.5215,5.6396,4.5605
				c-4.8809,1.6006-8.8008,3.5205-11.7598,5.7598c-3.5605,2.6396-5.3398,5.5205-5.3398,8.6396c0,4.1211,2.4189,6.9404,7.2598,8.46
				c2.8398,0.8809,6.8789,1.3203,12.1201,1.3203c2.6396,0,7.0391-0.2188,13.1992-0.6602c1.2803-0.0791,1.9209-0.7793,1.9209-2.0996
				c0-1.4795-0.7412-2.1797-2.2207-2.0996c-0.96,0.04-3.4199,0.2002-7.3799,0.4795c-3,0.2402-5.3398,0.3604-7.0195,0.3604
				c-2.2002,0-4.1611-0.1201-5.8799-0.3604c-5.2412-0.7197-7.8408-2.5996-7.8008-5.6396c0.04-3.8398,4.6396-7.2393,13.8008-10.2002
				c0.1592,1.3604,0.1992,3.0205,0.1191,4.9795c-0.1191,2.9209-0.1797,4.3604-0.1797,4.3203c0,1.3604,0.6992,2.04,2.1006,2.04
				c1.3994,0,2.0996-0.6797,2.0996-2.04c0-0.5195,0.0195-1.6201,0.0596-3.2998c0.04-1.4404,0.0605-2.5996,0.0605-3.4805
				c-0.04-1.3193-0.1406-2.5391-0.2998-3.6592c6-1.5605,10.1396-2.5,12.4199-2.8203
				C900.5195,37.8018,901.1201,37.1016,901.1201,35.8604z M882.4004,56.0205c-1.041-0.96-1.5605-2.2197-1.5605-3.7793
				c0-0.4404,0.0195-1.2197,0.0605-2.3408c0.0391-1.1191,0.0596-1.999,0.0596-2.6396c-2.4805,0.8799-4.2803,1.7002-5.4004,2.46
				c-1.4795,1-2.2197,2.1602-2.2197,3.4805C873.2998,55.0811,876.3193,56.0205,882.4004,56.0205z"/>
			<path class="st0" d="M968.0801,52.3604c0,1.4014-0.5205,2.6406-1.5605,3.7207s-2.2793,1.6201-3.7197,1.6201
				c-1.4805,0-3.1797-1-5.0996-3c-1.041,1.2402-2.3809,1.8594-4.0205,1.8594h-3.3594v5.9404c0,1.6396-0.5811,2.9395-1.7402,3.8994
				c-1,0.8799-2.1807,1.3203-3.54,1.3203c-1.3203,0-2.4805-0.4404-3.4805-1.3203c-1.1602-0.96-1.7393-2.2598-1.7393-3.8994v-5.9404
				h-3.1807c-1.7607,0-3.1201-0.6387-4.0801-1.9199c-0.8799,0.8809-1.4004,1.4004-1.5596,1.5605
				c-0.6406,0.4795-1.3008,0.8203-1.9805,1.0195v5.2803c0,1.6396-0.5391,2.9189-1.6191,3.8398
				c-1.0801,0.9199-2.2803,1.3799-3.6006,1.3799c-1.3604,0-2.54-0.4404-3.54-1.3203c-1.1602-0.96-1.7402-2.2598-1.7402-3.8994
				V43.8408c-0.5195,0.2002-1.0596,0.2998-1.6191,0.2998c-1.4014,0-2.6406-0.5293-3.7207-1.5898
				c-1.0801-1.0596-1.6201-2.3096-1.6201-3.75c0-1.0801,0.3203-2.0996,0.96-3.0596c4.6406-6.8799,8.04-13.5996,10.2002-20.1602
				c0.7998-2.3604,2.4199-3.54,4.8604-3.54c1.3203,0,2.499,0.4404,3.54,1.3193c1.2002,1.001,1.7998,2.2803,1.7998,3.8408
				c0,1-0.46,2.6396-1.3799,4.9199h8.2803V17.501c0-1.6396,0.5791-2.9404,1.7393-3.9004c1-0.8789,2.1602-1.3193,3.4805-1.3193
				c1.3594,0,2.54,0.4404,3.54,1.3193c1.1592,0.96,1.7402,2.2607,1.7402,3.9004v4.6201h11.5195c1.6396,0,2.96,0.5605,3.96,1.6797
				c0.8799,1.041,1.3203,2.2197,1.3203,3.54c0,1.3604-0.4404,2.541-1.3203,3.54c-1,1.1602-2.3203,1.7402-3.96,1.7402h-7.9199
				c3,5.6797,7.1396,11,12.4199,15.96C967.5,49.6611,968.0801,50.9209,968.0801,52.3604z M963.8799,51.3408
				c0-0.5996-0.2402-1.1191-0.7197-1.5596c-7.3604-6.9609-12.4004-14.0801-15.1201-21.3604h12.7803
				c1.3994,0,2.0996-0.6992,2.0996-2.1006c0-1.3994-0.7002-2.0996-2.0996-2.0996h-14.7002v-7.7998
				c0-1.3994-0.7002-2.1006-2.1006-2.1006s-2.0996,0.7012-2.0996,2.1006v7.7998h-13.2002c-1.4004,0-2.0996,0.7002-2.0996,2.0996
				c0,1.4014,0.6992,2.1006,2.0996,2.1006h11.1602c-2.8799,6.9209-7.7998,14.001-14.7598,21.2402
				c-0.04,0.0801-0.1406,0.2002-0.2998,0.3594V26.2607c1.3594-2.7998,2.6191-5.9189,3.7793-9.3604
				c0.0801-0.2393,0.1201-0.4795,0.1201-0.7197c0-0.5996-0.2305-1.0889-0.6895-1.4697c-0.4609-0.3799-0.9707-0.5703-1.5303-0.5703
				c-0.9209,0-1.54,0.4609-1.8604,1.3799c-2.4805,7.2812-6,14.2607-10.5596,20.9404c-0.2803,0.4004-0.4199,0.8203-0.4199,1.2598
				c0,0.5996,0.2295,1.1201,0.6895,1.5605s0.9697,0.6592,1.5303,0.6592c0.6396,0,1.1797-0.3193,1.6201-0.96
				c0.4395-0.6387,1.4795-2.2998,3.1201-4.9795v27.4199c0,1.3994,0.6992,2.0996,2.0996,2.0996s2.1006-0.7002,2.1006-2.0996v-9.2402
				c0.4795,0.6807,1.0801,1.0205,1.7998,1.0205c0.5596,0,1.0596-0.2197,1.5-0.6602c6.7588-6.6797,11.3594-13.4004,13.7998-20.1602
				v15.7803h-6.3604c-1.4004,0-2.0996,0.7002-2.0996,2.0996c0,1.4004,0.6992,2.0996,2.0996,2.0996h6.3604v9.0605
				c0,1.3994,0.6992,2.0996,2.0996,2.0996s2.1006-0.7002,2.1006-2.0996v-9.0605h6.4795c1.4004,0,2.1006-0.6992,2.1006-2.0996
				c0-1.3994-0.7002-2.0996-2.1006-2.0996h-6.4795V32.3809c2.8799,7.3203,7.6201,14.1602,14.2197,20.5195
				c0.3994,0.4004,0.8799,0.6006,1.4404,0.6006c0.5596,0,1.0498-0.2197,1.4697-0.6602
				C963.6699,52.4014,963.8799,51.9014,963.8799,51.3408z M935.9199,32.6211h-6.1797c-0.0811,0-0.2012-0.0195-0.3604-0.0605
				c-0.1602,0-0.2803,0-0.3604,0v10.1406C931.7803,39.3408,934.0801,35.9805,935.9199,32.6211z"/>
			<path class="st0" d="M1027.8398,62.3809c0,1.2793-0.4707,2.46-1.4102,3.54c-0.9404,1.0801-2.1699,1.6201-3.6895,1.6201
				c-0.8809,0-1.7012-0.2207-2.46-0.6602c-1.0801-0.6807-2.1406-1.4199-3.1807-2.2197c-2.4805-1.96-4.6191-4.1201-6.4199-6.4805
				c-2.7998,3.9209-6.2607,6.9004-10.3799,8.9404c-0.8008,0.3994-1.6006,0.5996-2.3994,0.5996c-1.3203,0-2.4814-0.46-3.4805-1.3799
				c-1.2002,0.5596-2.6201,0.8398-4.2598,0.8398c-4.1611,0-6.501-1.4199-7.0205-4.2598c-0.5605,0-1.1602-0.1396-1.7998-0.4199
				c-0.8008,1.7998-2.2402,2.7002-4.3203,2.7002c-1.1992,0-2.2998-0.4004-3.2998-1.2002c-1.1201-0.9209-1.6797-2.1201-1.6797-3.6006
				c0-0.5596,0.0596-1.0391,0.1797-1.4395c1.2393-4.2393,1.8799-7.9199,1.9199-11.04c0-1.2002,0.3799-2.2402,1.1406-3.1201
				c-0.5205-0.8398-0.7803-1.7998-0.7803-2.8799V19.001c0-1.4795,0.4805-2.7002,1.4404-3.6602s2.1797-1.4404,3.6592-1.4404h16.2607
				c1.5195,0,2.749,0.4902,3.6895,1.4707c0.9395,0.9805,1.4102,2.1504,1.4102,3.5098c0,0.5205-0.0811,1-0.2402,1.4395
				c1.8398-1.7188,3.5-3.6387,4.9805-5.7598c0.999-1.4395,2.46-2.1602,4.3799-2.1602c1.7598,0,3.1592,0.6006,4.2002,1.8008
				c3.3594,3.7998,7.0801,7.1201,11.1602,9.96c1.5195,1.04,2.2793,2.46,2.2793,4.2598c0,2.2002-0.96,3.7598-2.8799,4.6797
				c0.6396,0.8809,0.96,1.9004,0.96,3.0605v10.9199c0,1.4805-0.4795,2.7002-1.4395,3.6602s-2.1807,1.4395-3.6602,1.4395h-1.9805
				c1.7998,2.3203,3.96,4.2402,6.4805,5.7598C1026.96,58.9004,1027.8398,60.3809,1027.8398,62.3809z M979.2998,47.0205
				c0-1.1592-0.5205-1.7393-1.5596-1.7393c-0.96,0-1.4609,0.5605-1.5,1.6797c-0.041,1.4004-0.4004,3.5-1.0801,6.2998
				c-0.6807,2.8008-1.0205,4.8203-1.0205,6.0596c0,1.1211,0.6006,1.6807,1.8008,1.6807c0.8398,0,1.3799-0.3994,1.6191-1.2002
				C978.6797,56.001,979.2598,51.7412,979.2998,47.0205z M996.7598,17.8008c0-1.2002-0.6396-1.7998-1.9199-1.7998h-16.2598
				c-1.3203,0-1.9805,0.6602-1.9805,1.9795v22.9199c0,1.2812,0.6602,1.9199,1.9805,1.9199h14.1602v0.3604
				c0,2.4004-0.0605,4.8604-0.1807,7.3799c-0.3203-1.2002-0.7197-2.7988-1.1992-4.7998c-0.2012-0.8398-0.6211-1.2598-1.2607-1.2598
				c-0.8799,0-1.3193,0.5205-1.3193,1.5596c0,0.2803,0.0391,0.501,0.1201,0.6602c0.3994,1.4004,0.8789,3.2402,1.4395,5.5205
				c0.1201,0.7598,0.4805,1.1396,1.0801,1.1396c0.2793,0,0.5791-0.0996,0.9004-0.2998c-0.1201,1.4395-0.2207,2.3994-0.3008,2.8799
				c-0.2393,1.3604-0.5801,2.2002-1.0195,2.5195c-0.4404,0.3213-1,0.4805-1.6797,0.4805c-0.4414,0-1.0605-0.0996-1.8604-0.2998
				h-0.3604c-1.3193,0-1.9795,0.7197-1.9795,2.1592c0,1.0801,0.54,1.7207,1.6201,1.9209c0.8789,0.1592,1.6797,0.2393,2.3994,0.2393
				c3.5195,0,5.5596-1.7998,6.1201-5.3994c0.6797-4.2803,1.0205-9.0996,1.0205-14.46v-2.04c0-1.2803-0.6406-1.9199-1.9199-1.9199
				h-5.5205v-4.3799H994c1.3203,0,1.9805-0.5801,1.9805-1.7402c0-1.2002-0.6602-1.7998-1.9805-1.7998h-5.1602V27.041H994
				c1.3203,0,1.9805-0.6006,1.9805-1.7998c0-1.1602-0.6602-1.7402-1.9805-1.7402h-5.1602v-3.9004h6
				C996.1201,19.6006,996.7598,19.001,996.7598,17.8008z M985.2998,23.501h-5.04v-3.9004h5.04V23.501z M985.2998,31.2412h-5.04
				V27.041h5.04V31.2412z M985.2998,39.1611h-5.04v-4.3799h5.04V39.1611z M983.7402,55.1807c0-1.5195-0.0508-3.3301-0.1504-5.4297
				c-0.1006-2.1006-0.1494-3.0498-0.1494-2.8506c0-1.0801-0.4414-1.6191-1.3203-1.6191c-0.96,0-1.4404,0.5801-1.4404,1.7393v0.2998
				c0.04,0.9209,0.0605,3.2207,0.0605,6.9004v2.8203c0,1.1201,0.499,1.6797,1.5,1.6797c0.96,0,1.459-0.54,1.5-1.6201V55.1807z
				 M988.7803,54.7012v-0.1807c-0.0811-0.96-0.54-3.6602-1.3799-8.0996c-0.1611-0.8799-0.6006-1.3203-1.3203-1.3203
				c-0.8809,0-1.3203,0.5205-1.3203,1.5605v0.4199c0.6006,3.1602,0.9795,5.7207,1.1406,7.6797
				c0.0791,1.041,0.5596,1.5596,1.4395,1.5596C988.2998,56.3203,988.7803,55.7812,988.7803,54.7012z M1001.0801,27.4609
				c0,1.2803,0.6396,1.9199,1.9199,1.9199h4.3799v3.7803h-7.3203c-1.2803,0-1.9199,0.6592-1.9199,1.9795V46.001
				c0,1.3193,0.6396,1.9795,1.9199,1.9795h6.4209c-1.6807,5.0811-5.2412,9.0205-10.6807,11.8203
				c-0.6807,0.4004-1.0195,0.9209-1.0195,1.5596c0,0.5615,0.1992,1.0605,0.5996,1.5c0.3994,0.4404,0.9004,0.6602,1.5,0.6602
				c0.3193,0,0.6396-0.0801,0.96-0.2393c1.5996-0.8408,3.0996-1.8203,4.5-2.9404c3.2793-2.6797,5.6602-5.7998,7.1406-9.3604
				c2.3994,4.8809,6.1592,8.9209,11.2793,12.1201c0.2793,0.1592,0.6006,0.2402,0.96,0.2402c0.5195,0,0.9697-0.21,1.3506-0.6299
				c0.3789-0.4199,0.5693-0.8896,0.5693-1.4102c0-0.7598-0.3398-1.2998-1.0195-1.6201c-1.4404-0.8789-2.7803-1.8799-4.0205-3
				c-2.9199-2.6396-5-5.54-6.2393-8.7002h7.3193c1.2803,0,1.9199-0.6602,1.9199-1.9795V35.1406
				c0-1.3203-0.6396-1.9795-1.9199-1.9795h-8.3994v-3.7803h4.0195c1.3203,0,1.9805-0.6396,1.9805-1.9199
				c0-0.2402-0.0811-0.5596-0.2402-0.96c1.0801,0.8398,2.2598,1.6797,3.54,2.5195c0.3604,0.2402,0.7197,0.3604,1.0801,0.3604
				c0.5195,0,0.96-0.21,1.3203-0.6299c0.3594-0.4199,0.5391-0.8896,0.5391-1.4102c0-0.6797-0.2998-1.2197-0.8994-1.6201
				c-4.2002-2.8398-8.1211-6.3389-11.7598-10.5c-0.4004-0.4795-1.0205-0.7197-1.8604-0.7197c-0.8008,0-1.3799,0.2607-1.7402,0.7803
				c-2.2793,3.3594-5.96,7.0791-11.04,11.1592c-0.5205,0.4004-0.7793,0.8809-0.7793,1.4404c0,0.5205,0.1992,0.9902,0.5996,1.4102
				c0.3994,0.4199,0.8594,0.6299,1.3799,0.6299c0.4395,0,0.8896-0.1895,1.3496-0.5703
				C999.2295,28.9707,1000,28.3408,1001.0801,27.4609z M1002.7598,51.8203h-1.9795c-0.0811,0-0.2207-0.0195-0.4199-0.0596
				c-0.2012,0-0.3604,0-0.4805,0c-0.04,0.8398-0.1201,2.001-0.2402,3.4805C1001.1191,53.8818,1002.1602,52.7412,1002.7598,51.8203z
				 M1007.3799,41.9805c0,0.96-0.0205,1.6602-0.0596,2.1006h-6.0605v-7.0205h6.1201V41.9805z M1015.8398,25.6006
				c-0.0801-0.0391-0.2607-0.0596-0.54-0.0596h-12.1201c2.4004-2.3193,4.3799-4.5,5.9404-6.54
				C1011,21.2412,1013.2393,23.4404,1015.8398,25.6006z M1017.7598,44.0811h-6.4199c-0.04-0.2402-0.0596-0.5801-0.0596-1.0205v-6
				h6.4795V44.0811z"/>
		</g>
	</g>
</g>
</svg>
