<?xml version="1.0" encoding="utf-8"?>
<!-- Generator: Adobe Illustrator 25.2.1, SVG Export Plug-In . SVG Version: 6.00 Build 0)  -->
<svg version="1.1" id="レイヤー_1" xmlns="http://www.w3.org/2000/svg" xmlns:xlink="http://www.w3.org/1999/xlink" x="0px"
	 y="0px" viewBox="0 0 1040 80" style="enable-background:new 0 0 1040 80;" xml:space="preserve">
<style type="text/css">
	.st0{fill:#1E1E28;}
</style>
<g>
	<g>
		<g>
			<path class="st0" d="M35.5596,47.6211c0,0.6807-0.2393,1.2695-0.7197,1.7695c-0.4795,0.501-1.0605,0.75-1.7402,0.75
				c-0.7197,0-1.3604-0.2793-1.9199-0.8398c-1.4004-1.3994-2.7207-2.8594-3.96-4.3799v19.5c0,0.6797-0.25,1.29-0.75,1.8301
				s-1.1094,0.8096-1.8301,0.8096c-0.7197,0-1.3301-0.2607-1.8301-0.7793c-0.5-0.5205-0.75-1.1211-0.75-1.8008V46.001
				c-1.5996,1.8809-3.3398,3.7402-5.2197,5.5801c-0.4795,0.4795-1.0801,0.7197-1.7998,0.7197S13.71,52.041,13.21,51.5205
				c-0.501-0.5195-0.75-1.1396-0.75-1.8594c0-0.7207,0.2793-1.3398,0.8398-1.8604c6.5596-6.1201,11.3799-12.3994,14.46-18.8398
				c0.0801-0.2002,0.1201-0.3799,0.1201-0.54c0-0.4805-0.3203-0.7197-0.96-0.7197H15.7598c-0.6807,0-1.25-0.2402-1.71-0.7207
				c-0.46-0.4795-0.6895-1.0586-0.6895-1.7393c0-0.6797,0.2295-1.25,0.6895-1.71s1.0293-0.6904,1.71-0.6904h5.8203v-6.6602
				c0-0.7197,0.2598-1.3398,0.7803-1.8604c0.5186-0.5186,1.1396-0.7793,1.8594-0.7793c0.7207,0,1.3398,0.2607,1.8604,0.7793
				c0.5195,0.5205,0.7803,1.1406,0.7803,1.8604v6.6602h2.8193c2.7998,0,4.2002,1.0801,4.2002,3.2402
				c0,0.6396-0.1602,1.3408-0.4795,2.0996c-1.3604,3.0811-3.2402,6.46-5.6406,10.1396c1.8398,2.2412,4.2002,4.7207,7.0801,7.4404
				C35.3203,46.2012,35.5596,46.8213,35.5596,47.6211z M65.7402,48.3408c0,3.2803-1.6602,4.9199-4.9805,4.9199h-7.2002v10.9805
				c0,0.7197-0.25,1.3389-0.75,1.8594c-0.5,0.5195-1.1094,0.7803-1.8291,0.7803c-0.7207,0-1.3408-0.2607-1.8604-0.7803
				c-0.5205-0.5205-0.7803-1.1396-0.7803-1.8594V53.2607h-6.6602c-3.3203,0-4.9795-1.6396-4.9795-4.9199V27.4609
				c0-3.3203,1.6592-4.9805,4.9795-4.9805h6.6602v-6.3594c0-0.7207,0.2598-1.3398,0.7803-1.8604
				c0.5195-0.5195,1.1396-0.7803,1.8604-0.7803c0.7197,0,1.3291,0.2607,1.8291,0.7803c0.5,0.5205,0.75,1.1396,0.75,1.8604v6.3594
				h7.2002c3.3203,0,4.9805,1.6602,4.9805,4.9805V48.3408z M48.46,35.3203v-7.8594h-4.9795c-1.2002,0-1.8008,0.5801-1.8008,1.7402
				v6.1191H48.46z M48.46,48.3408V40.001h-6.7803v6.5996c0,1.1611,0.6006,1.7402,1.8008,1.7402H48.46z M60.6396,35.3203v-6.1191
				c0-1.1602-0.5996-1.7402-1.7998-1.7402h-5.3994v7.8594H60.6396z M60.6396,46.6006V40.001h-7.1992v8.3398h5.3994
				C60.04,48.3408,60.6396,47.7617,60.6396,46.6006z"/>
			<path class="st0" d="M94.2402,30.4004c0,0.6807-0.2402,1.251-0.7207,1.71c-0.4795,0.4609-1.0596,0.6904-1.7393,0.6904H86.5
				v1.5596c1.6396,3.1611,3.5996,6.1807,5.8799,9.0605c0.3193,0.4004,0.4805,0.8604,0.4805,1.3799
				c0,0.6406-0.2314,1.1807-0.6904,1.6201c-0.46,0.4404-0.9902,0.6602-1.5898,0.6602c-0.8398,0-1.4805-0.3398-1.9199-1.0205
				c-0.8809-1.3193-1.6006-2.5596-2.1602-3.7197v21.96c0,0.6797-0.2305,1.2598-0.6904,1.7402
				c-0.46,0.4795-1.0303,0.7197-1.71,0.7197c-0.6807,0-1.2695-0.2402-1.7695-0.7197c-0.501-0.4805-0.75-1.0605-0.75-1.7402V43.1211
				c-1.1201,2.8799-2.5605,5.6602-4.3203,8.3398c-0.5205,0.8008-1.2002,1.2002-2.04,1.2002c-0.6396,0-1.2002-0.2402-1.6797-0.7207
				c-0.4805-0.4795-0.7197-1.0391-0.7197-1.6797c0-0.3994,0.1592-0.8398,0.4795-1.3203c3.5596-5.1592,6.3203-10.3799,8.2803-15.6592
				v-0.4805h-5.8799c-0.6807,0-1.251-0.2295-1.71-0.6904c-0.4609-0.459-0.6904-1.0293-0.6904-1.71
				c0-0.6797,0.2295-1.2598,0.6904-1.7393c0.459-0.4805,1.0293-0.7207,1.71-0.7207h5.8799V21.041
				c-0.8008,0.1602-2.46,0.4004-4.9805,0.7197c-0.6807,0.0811-1.2998-0.1201-1.8594-0.5996
				c-0.5605-0.4805-0.8398-1.0596-0.8398-1.7402c0-1.3994,0.6992-2.1797,2.0996-2.3398c5.1201-0.6396,9.5791-1.5996,13.3799-2.8799
				c0.2402-0.0801,0.4805-0.1201,0.7197-0.1201c0.6396,0,1.2002,0.2305,1.6807,0.6895c0.4795,0.4609,0.7197,1.0303,0.7197,1.71
				c0,1.1211-0.54,1.8604-1.6201,2.2207c-1.2002,0.4004-2.6602,0.8203-4.3799,1.2598v7.9795h5.2803
				c0.6797,0,1.2598,0.2402,1.7393,0.7207C94,29.1406,94.2402,29.7207,94.2402,30.4004z M100.7803,34.3008
				c-0.7607,5.9199-1.9199,11.4209-3.4805,16.5c-0.3594,1.2002-1.1602,1.7998-2.3994,1.7998c-0.7207,0-1.3105-0.2402-1.7705-0.7197
				c-0.46-0.4805-0.6895-1.0596-0.6895-1.7402c0-0.2793,0.0391-0.5596,0.1191-0.8398c1.5996-4.5596,2.7803-9.7598,3.54-15.5996
				c0.1602-1.3594,0.9395-2.04,2.3408-2.04c0.7197,0,1.3096,0.2607,1.7695,0.7793
				C100.6689,32.9609,100.8594,33.5811,100.7803,34.3008z M123.3398,54.2812c-0.1201,4.8398-0.7109,7.9404-1.7695,9.2998
				c-1.0605,1.3594-3.2705,2.04-6.6299,2.04h-4.9209c-2.7197,0-4.46-0.4199-5.2197-1.2607
				c-0.7598-0.8398-1.1396-2.5996-1.1396-5.2793c-2.2002,2.1201-4.4805,3.96-6.8398,5.5195
				c-0.4805,0.3203-0.96,0.4805-1.4404,0.4805c-0.7197,0-1.3408-0.2607-1.8604-0.7803c-0.5195-0.5205-0.7793-1.1396-0.7793-1.8604
				c0-0.96,0.3994-1.6992,1.2002-2.2197c3.6797-2.3193,6.9189-5.0195,9.7197-8.0996V29.2012c0-0.7207,0.2598-1.3398,0.7803-1.8604
				c0.5186-0.5195,1.1396-0.7803,1.8594-0.7803s1.3398,0.2607,1.8604,0.7803c0.5195,0.5205,0.7803,1.1396,0.7803,1.8604v15.8994
				c4.2393-6.7998,7.3389-15.3193,9.2998-25.5596c0.2793-1.4004,1.1396-2.1006,2.5801-2.1006c0.8398,0,1.5088,0.3213,2.0098,0.96
				c0.5,0.6406,0.6689,1.3604,0.5098,2.1602c-2.9199,13.3203-7.7197,24.2402-14.3994,32.7598v4.3203
				c0,1.2402,0.1592,2.0205,0.4795,2.3398c0.3193,0.3213,1.0996,0.4805,2.3398,0.4805h2.1602c1.8398,0,2.9795-0.3398,3.4199-1.0205
				c0.4395-0.6797,0.6992-2.4395,0.7803-5.2793c0-0.6797,0.2598-1.2803,0.7803-1.8008c0.5186-0.5186,1.1191-0.7793,1.7998-0.7793
				c0.7197,0,1.3398,0.2695,1.8594,0.8096S123.3398,53.5605,123.3398,54.2812z M113.9805,21.7012
				c0,0.7197-0.2607,1.3496-0.7803,1.8896c-0.5205,0.54-1.1611,0.8096-1.9199,0.8096c-0.4805,0-0.9209-0.1191-1.3203-0.3594
				c-2.5605-1.5195-5.2803-2.9004-8.1602-4.1406c-1.0801-0.4395-1.6201-1.2598-1.6201-2.46c0-0.7588,0.2598-1.3887,0.7803-1.8896
				c0.5195-0.5,1.1191-0.75,1.7998-0.75c0.3604,0,0.6992,0.0596,1.0205,0.1797c3.1201,1.3203,6.0596,2.7402,8.8193,4.2607
				C113.5195,19.7607,113.9805,20.5811,113.9805,21.7012z M128.2002,46.8408c0.0791,0.2803,0.1201,0.5605,0.1201,0.8398
				c0,0.6807-0.251,1.2705-0.75,1.7705c-0.501,0.5-1.1104,0.75-1.8301,0.75c-1.2402,0-2.04-0.5605-2.4004-1.6807
				c-1.2803-3.8398-2.6602-7.1396-4.1396-9.8994c-0.2012-0.3604-0.2998-0.7598-0.2998-1.2002c0-0.6797,0.249-1.2695,0.75-1.7705
				c0.499-0.499,1.0889-0.75,1.7695-0.75c0.999,0,1.7402,0.4609,2.2197,1.3809C125.3994,39.7217,126.9189,43.2412,128.2002,46.8408z
				"/>
			<path class="st0" d="M185.3799,39.1611c0,8.4805-0.2402,14.3604-0.7197,17.6396c-0.5605,3.6807-1.6406,6.0801-3.2402,7.2002
				c-1.3203,0.9199-3.7803,1.3799-7.3799,1.3799h-2.8799c-0.7197,0-1.3301-0.2607-1.8301-0.7803
				c-0.501-0.5205-0.75-1.1201-0.75-1.7998c0-0.7197,0.249-1.3291,0.75-1.8301c0.5-0.5,1.1104-0.75,1.8301-0.75h2.3994
				c2.2002,0,3.6797-0.3604,4.4404-1.0801c0.9199-0.8789,1.5-2.8398,1.7402-5.8799c0.2402-2.4795,0.3594-7.4189,0.3594-14.8203
				v-7.9199c0-1.7188-0.8604-2.5801-2.5801-2.5801h-11.5791c-1.0801,2.4404-2.46,5.04-4.1406,7.8008
				c-0.5205,0.8398-1.2207,1.2598-2.0996,1.2598c-1.3604,0-2.1807-0.6602-2.46-1.9805v22.6201c0,3.2803-1.6602,4.9199-4.9805,4.9199
				h-11.8193c-3.2803,0-4.9209-1.6396-4.9209-4.9199V28.3008c0-3.3193,1.6406-4.9805,4.9209-4.9805h2.1592
				c0.7998-2.2393,1.54-4.7393,2.2207-7.5c0.3193-1.3594,1.1992-2.0391,2.6396-2.0391c0.7197,0,1.3398,0.2695,1.8604,0.8096
				c0.5195,0.54,0.7793,1.1699,0.7793,1.8896c0,0.2402-0.04,0.4805-0.1191,0.7207c-0.7207,2.4805-1.3408,4.5205-1.8604,6.1191
				h4.1396c3.3203,0,4.9805,1.6611,4.9805,4.9805v5.6396c0.0391-0.1592,0.1201-0.3994,0.2402-0.7197
				c3.3984-5.7988,5.8994-11.5596,7.5-17.2803c0.3594-1.2793,1.1992-1.9199,2.5195-1.9199c0.7598,0,1.3799,0.251,1.8604,0.75
				c0.4795,0.501,0.7197,1.1104,0.7197,1.8301c0,0.7607-0.6807,2.8408-2.04,6.2402h11.1602c4.1191,0,6.1797,2.0605,6.1797,6.1797
				V39.1611z M152.0195,40.0605v-9.8994c0-1.2002-0.5996-1.8008-1.7998-1.8008h-7.6201c-1.1992,0-1.7998,0.6006-1.7998,1.8008
				v9.8994H152.0195z M152.0195,55.7207V45.041h-11.2197v10.6797c0,1.2002,0.6006,1.7998,1.7998,1.7998h7.6201
				C151.4199,57.5205,152.0195,56.9209,152.0195,55.7207z M173.5596,45.1006c0.1602,0.3604,0.2402,0.7197,0.2402,1.0801
				c0,0.6807-0.2402,1.2803-0.7197,1.7998c-0.4805,0.5205-1.0801,0.7803-1.7998,0.7803c-1.0801,0-1.8604-0.5195-2.3398-1.5596
				c-1.2412-2.7607-2.7002-5.5-4.3809-8.2207c-0.2002-0.3193-0.2998-0.7393-0.2998-1.2598c0-0.6797,0.2402-1.2598,0.7207-1.7402
				c0.4795-0.4795,1.0586-0.7197,1.7393-0.7197c0.96,0,1.6807,0.4004,2.1602,1.2002
				C170.6797,39.3809,172.2402,42.2607,173.5596,45.1006z"/>
			<path class="st0" d="M227.9199,24.1611c0,1.4795-0.7402,2.3604-2.2197,2.6396c-3.2803,0.5996-6.8008,1.4004-10.5605,2.4004
				c-3.5605,8.1592-7.5996,15.9805-12.1201,23.46c-0.5996,0.96-1.4395,1.4395-2.5195,1.4395c-0.8008,0-1.4902-0.2891-2.0703-0.8701
				c-0.5801-0.5791-0.8701-1.2695-0.8701-2.0693c0-0.6006,0.1807-1.1602,0.54-1.6807c3.8799-5.6787,7.3398-11.7988,10.3809-18.3594
				c-3.1201,1-6.0215,2.04-8.7002,3.1201c-0.3213,0.1191-0.6602,0.1797-1.0205,0.1797c-0.7197,0-1.3408-0.249-1.8594-0.75
				c-0.5205-0.5-0.7803-1.1299-0.7803-1.8896c0-1.3203,0.5996-2.1797,1.7998-2.5801c5.5596-1.9199,9.9795-3.3604,13.2598-4.3203
				c1.1201-2.7998,2.1201-5.7598,3-8.8799c0.3994-1.3594,1.3203-2.04,2.7607-2.04c0.8398,0,1.5293,0.2803,2.0693,0.8398
				c0.54,0.5605,0.8105,1.2207,0.8105,1.9805c0,0.3594-0.0605,0.7002-0.1807,1.0195c-0.7998,2.1602-1.4795,3.96-2.04,5.4004
				c3.1201-0.7598,5.4805-1.3203,7.0801-1.6807c0.8398-0.1592,1.5898,0.0303,2.25,0.5703S227.9199,23.3203,227.9199,24.1611z
				 M243.8203,59.8604c0,0.8408-0.3008,1.5508-0.9004,2.1309s-1.3203,0.8691-2.1602,0.8691c-0.7598,0-1.4004-0.2188-1.9199-0.6592
				c-2.1201-1.8008-4.3799-3.3604-6.7803-4.6807c-0.7598,5.7607-4.4199,8.6406-10.9795,8.6406
				c-3.2402,0-5.8799-0.7207-7.9199-2.1602c-2.2412-1.5195-3.3604-3.6006-3.3604-6.2402c0-2.7998,1.1406-4.9795,3.4199-6.54
				c2.0801-1.4795,4.7598-2.2197,8.04-2.2197c1.5605,0,3.2197,0.1797,4.9805,0.54c-0.3604-3.96-0.4805-6.8604-0.3604-8.7002
				c0.0801-0.96,0.2197-1.8604,0.4199-2.7002c0.3604-1.3994,1.2598-2.0996,2.7002-2.0996c0.8398,0,1.5303,0.3398,2.0703,1.0195
				c0.54,0.6807,0.7295,1.4209,0.5693,2.2207c-0.2002,1-0.2998,2.1396-0.2998,3.4199c0,0.4404,0.2402,3.2998,0.7197,8.5801
				c3.6797,1.4795,7.2197,3.5391,10.6201,6.1797C243.4395,58.0605,243.8203,58.8613,243.8203,59.8604z M226.54,54.9404
				c-2.0801-0.7998-3.8604-1.1992-5.3398-1.1992c-3.9209,0-5.8799,1.2803-5.8799,3.8398c0,2.3203,1.8594,3.4795,5.5801,3.4795
				c2.1592,0,3.6797-0.5791,4.5596-1.7402C226.1396,58.4014,226.5,56.9414,226.54,54.9404z M244.2402,35.1406
				c0,0.8008-0.2803,1.4697-0.8398,2.0098c-0.5605,0.54-1.2207,0.8105-1.9805,0.8105c-0.8398,0-1.54-0.2998-2.0996-0.9004
				c-1.6807-1.8389-3.4609-3.459-5.3398-4.8594c-0.7207-0.5605-1.0801-1.2998-1.0801-2.2207c0-0.7588,0.2695-1.4189,0.8096-1.9795
				c0.54-0.5596,1.1895-0.8398,1.9502-0.8398c0.5195,0,1.0391,0.1797,1.5596,0.54c2.1201,1.4395,4.2002,3.2393,6.2402,5.3994
				C243.9795,33.6611,244.2402,34.3408,244.2402,35.1406z"/>
			<path class="st0" d="M299.0801,58.9609c0.1201,0.3594,0.1797,0.7197,0.1797,1.0801c0,0.8398-0.2998,1.5703-0.8994,2.1895
				c-0.6006,0.6201-1.3604,0.9307-2.2803,0.9307c-1.5205,0-2.5205-0.7002-3-2.1006l-3.54-9.8994h-19.3799l-3.2998,9.8398
				c-0.4805,1.4395-1.4805,2.1602-3,2.1602c-0.8809,0-1.6309-0.3105-2.25-0.9307c-0.6211-0.6191-0.9307-1.3496-0.9307-2.1895
				c0-0.3604,0.0605-0.6992,0.1807-1.0205l12.96-37.2598c1.1592-3.3604,3.0986-5.04,5.8193-5.04
				c2.7197,0,4.6807,1.6602,5.8799,4.9805L299.0801,58.9609z M287.5596,45.4609l-7.3799-20.9404
				c-0.1201-0.3594-0.2998-0.54-0.54-0.54c-0.2393,0-0.4199,0.1807-0.54,0.54l-7.0195,20.9404H287.5596z"/>
			<path class="st0" d="M357.7598,58.6611C357.9189,59.0615,358,59.4814,358,59.9209c0,0.8799-0.3105,1.6602-0.9297,2.3398
				c-0.6211,0.6797-1.4102,1.0205-2.3701,1.0205c-1.4805,0-2.501-0.6797-3.0605-2.04l-5.04-12.6602
				c-1.4395-3.6396-4.2207-5.46-8.3398-5.46h-8.6396V60.041c0,0.8799-0.3203,1.6406-0.96,2.2793
				c-0.6406,0.6396-1.4004,0.9609-2.2803,0.9609c-0.9209,0-1.7002-0.3213-2.3398-0.9609c-0.6406-0.6387-0.96-1.3994-0.96-2.2793
				V22.9609c0-3.7998,1.8994-5.7002,5.7002-5.7002H343.54c4.0801,0,7.3594,0.96,9.8398,2.8799
				c2.8799,2.2002,4.3203,5.4404,4.3203,9.7197c0,6.2803-3.0811,10.2207-9.2402,11.8203c2.1201,1.2002,3.6992,3.1006,4.7402,5.7002
				L357.7598,58.6611z M351.04,30.1006c0-2.1602-0.7197-3.8789-2.1602-5.1602c-1.4395-1.2793-3.501-1.9199-6.1797-1.9199H331.54
				c-1.2803,0-1.9199,0.6406-1.9199,1.9199V37.541h12.96c2.6797,0,4.7598-0.6992,6.2402-2.1006
				C350.2998,34.041,351.04,32.2607,351.04,30.1006z"/>
			<path class="st0" d="M388.7197,35.2607c0,0.8008-0.2803,1.4902-0.8398,2.0703c-0.5605,0.5801-1.2402,0.8701-2.04,0.8701
				c-1.3203,0-2.2402-0.6006-2.7598-1.8008c-1.2402-2.959-2.5605-5.5586-3.96-7.7998c-0.2803-0.4395-0.4199-0.8994-0.4199-1.3799
				c0-0.7598,0.2793-1.4189,0.8398-1.9795c0.5596-0.5605,1.2197-0.8408,1.9795-0.8408c0.9609,0,1.7197,0.4199,2.2803,1.2607
				c1.8398,2.7998,3.3994,5.6006,4.6807,8.3994C388.6396,34.4209,388.7197,34.8213,388.7197,35.2607z M402.6396,29.0205
				c0.1201,0.3213,0.1807,0.6406,0.1807,0.96c0,0.8008-0.2803,1.4912-0.8398,2.0703c-0.5615,0.5801-1.2607,0.8701-2.1006,0.8701
				c-1.3604,0-2.2803-0.6602-2.7598-1.9805c-0.9209-2.5586-2.0605-5.1797-3.4199-7.8594c-0.2012-0.3994-0.2998-0.8398-0.2998-1.3203
				c0-0.7998,0.2793-1.4893,0.8398-2.0703c0.5596-0.5791,1.2393-0.8701,2.04-0.8701c1.1592,0,2.0195,0.54,2.5801,1.6201
				C400.6201,23.8408,401.8799,26.7012,402.6396,29.0205z M421.4805,25.541c-2.2412,6.7197-5.0205,13.0195-8.3408,18.8994
				c-3.6396,6.5205-8.2402,12.7207-13.7998,18.6006c-0.5996,0.6387-1.3604,0.96-2.2803,0.96c-0.8398,0-1.5596-0.2998-2.1592-0.9004
				C394.2998,62.501,394,61.7812,394,60.9404c0-0.8789,0.2793-1.5986,0.8398-2.1592c5.1992-5.3604,9.5596-11.1797,13.0801-17.4609
				c3.1592-5.6787,5.6396-11.5996,7.4404-17.7598c0.4395-1.4795,1.459-2.2197,3.0596-2.2197c0.9199,0,1.6895,0.3203,2.3105,0.96
				c0.6191,0.6406,0.9297,1.3799,0.9297,2.2197C421.6602,24.8809,421.5996,25.2207,421.4805,25.541z"/>
			<path class="st0" d="M483.3398,21.4004c0,1.0801-0.4004,1.9805-1.2002,2.7002c-4.7197,4.3203-8.7207,7.8809-12,10.6807
				c-0.5195,0.4404-1.1006,0.6592-1.7393,0.6592c-0.7607,0-1.4014-0.2598-1.9199-0.7793c-0.5205-0.5195-0.7803-1.1602-0.7803-1.9199
				c0-0.7998,0.3389-1.4795,1.0195-2.04c3-2.4805,5.6201-4.8398,7.8604-7.0801c-4.4004,0.4004-10.7207,1-18.96,1.7998
				c-4.6406,0.4404-9.6211,0.9805-14.9404,1.6201c-0.8799,0.1201-1.6602-0.1201-2.3398-0.7207
				c-0.6807-0.5996-1.0195-1.3389-1.0195-2.2197c0-0.7998,0.2793-1.4893,0.8398-2.0693c0.5596-0.5801,1.2393-0.8906,2.04-0.9307
				c1.2393-0.0791,7.6396-0.5996,19.2002-1.5596c8.3594-0.7207,14.959-1.3398,19.7998-1.8604
				c1.0801-0.1201,2.04,0.1904,2.8799,0.9297C482.9199,19.3516,483.3398,20.2812,483.3398,21.4004z M463.9004,35.501
				c-1.2402,5.7207-2.6611,10.3604-4.2607,13.9199c-2.3203,5.1201-5.2002,9.7598-8.6396,13.9199
				c-0.6406,0.7598-1.4199,1.1396-2.3398,1.1396c-0.8398,0-1.5605-0.2998-2.1602-0.8994c-0.5996-0.6006-0.9004-1.3203-0.9004-2.1602
				c0-0.7998,0.2197-1.46,0.6602-1.9805c6.0801-7.0801,9.9395-15.459,11.5801-25.1396c0.2793-1.7197,1.2998-2.5801,3.0605-2.5801
				c0.8398,0,1.5596,0.3105,2.1592,0.9297c0.6006,0.6211,0.9004,1.3506,0.9004,2.1904
				C463.96,35.041,463.9395,35.2607,463.9004,35.501z"/>
			<path class="st0" d="M543.5801,37.4209c0,0.8398-0.2998,1.5703-0.9004,2.1895c-0.5996,0.6211-1.3398,0.9307-2.2197,0.9307
				c-0.3203,0-0.8203-0.0195-1.5-0.0605c-0.6406,0-1.1396,0-1.5,0c-12.5605,0-25,0.6211-37.3203,1.8604
				c-0.8799,0.0811-1.6699-0.1895-2.3701-0.8096s-1.0498-1.3701-1.0498-2.25c0-0.7998,0.2705-1.5,0.8105-2.1006
				c0.54-0.5996,1.209-0.9395,2.0098-1.0195c5.6396-0.4404,11.6396-0.8193,18-1.1406c7.3994-0.3594,15.0391-0.5791,22.9199-0.6602
				c0.8799,0,1.6201,0.3008,2.2197,0.9004C543.2803,35.8604,543.5801,36.5811,543.5801,37.4209z"/>
			<path class="st0" d="M601.7803,21.1006c0,1.7998-0.8613,2.8203-2.5801,3.0605c-5.2412,0.7598-9.8008,2.6602-13.6807,5.6992
				c-4.6406,3.6406-6.96,8.1211-6.96,13.4404c0,7.2803,4.7002,12.4805,14.1006,15.5996c1.4795,0.4805,2.2197,1.5,2.2197,3.0605
				c0,0.9199-0.3301,1.6895-0.9902,2.3096c-0.6592,0.6201-1.4307,0.9307-2.3096,0.9307c-0.3604,0-0.7002-0.0605-1.0205-0.1807
				c-12.1191-4.1592-18.1797-11.0596-18.1797-20.7002c0-7.959,4.0596-14.3594,12.1797-19.1992c-10,1.5596-18,3.2607-24,5.0996
				c-0.2803,0.0811-0.5801,0.1201-0.8994,0.1201c-0.8398,0-1.5508-0.2793-2.1299-0.8398c-0.5811-0.5596-0.8701-1.2803-0.8701-2.1602
				c0-1.6396,0.7803-2.6396,2.3398-3c6.1201-1.3594,12.5195-2.5801,19.2002-3.6602c4.8799-0.7998,11.6191-1.6592,20.2197-2.5801
				c0.8799-0.0791,1.6592,0.1807,2.3398,0.7803C601.4395,19.4805,601.7803,20.2217,601.7803,21.1006z M600.6396,39.2207
				c0,0.6406-0.2197,1.1904-0.6592,1.6504c-0.4414,0.46-0.9814,0.6895-1.6201,0.6895c-0.7607,0-1.4014-0.3799-1.9199-1.1396
				c-0.96-1.4404-2.3408-3.0801-4.1406-4.9199c-0.3594-0.3604-0.54-0.8193-0.54-1.3799c0-0.6006,0.2002-1.1201,0.6006-1.5605
				c0.3994-0.4395,0.8994-0.6602,1.5-0.6602c0.5996,0,1.1191,0.2207,1.5596,0.6602c1.9199,1.9199,3.5,3.7002,4.7402,5.3398
				C600.4795,38.3418,600.6396,38.7812,600.6396,39.2207z M607.0596,34.9004c0,0.6406-0.2305,1.1807-0.6895,1.6201
				c-0.46,0.4404-1.0107,0.6602-1.6504,0.6602c-0.7598,0-1.3799-0.3193-1.8594-0.96c-0.8008-1.1191-2.2607-2.7002-4.3799-4.7402
				c-0.3604-0.3594-0.54-0.8398-0.54-1.4395c0-0.6006,0.1992-1.1494,0.5996-1.6504c0.3994-0.5,0.9199-0.75,1.5596-0.75
				c0.5605,0,1.0801,0.2207,1.5605,0.6602c1.7998,1.5596,3.4199,3.2803,4.8594,5.1602
				C606.8799,33.9404,607.0596,34.4209,607.0596,34.9004z"/>
			<path class="st0" d="M657.1602,48.5811c0,4.8799-1.6406,8.6006-4.9199,11.1602c-3,2.3604-7.0205,3.54-12.0605,3.54
				c-6.04,0-10.8594-1.5996-14.46-4.8008c-0.6807-0.5996-1.0195-1.3994-1.0195-2.3994c0-0.9199,0.3096-1.7002,0.9297-2.3398
				s1.3896-0.96,2.3105-0.96c0.8398,0,1.6191,0.3203,2.3398,0.96c2.9189,2.6797,6.0986,4.0195,9.54,4.0195
				c3.4795,0,6.1992-0.8789,8.1602-2.6396c1.8389-1.6396,2.7598-3.7998,2.7598-6.4805c0-2.5195-0.8311-4.4697-2.4902-5.8496
				c-1.6602-1.3799-3.9297-2.0703-6.8096-2.0703c-3.5205,0-6.4609,0.9209-8.8203,2.7598c-1.7207,1.3604-3.2402,1.9805-4.5605,1.8604
				c-2.3203-0.2002-3.3594-1.5801-3.1191-4.1396l1.6191-18c0.3203-3.6006,2.3193-5.4004,6-5.4004h20.2803
				c0.7998,0,1.4795,0.2695,2.04,0.8096c0.5596,0.54,0.8398,1.2109,0.8398,2.0107c0,0.8008-0.2803,1.4902-0.8398,2.0693
				c-0.5605,0.5811-1.2402,0.8701-2.04,0.8701h-18.2402c-1.1992,0-1.8594,0.6006-1.9795,1.7998l-1.3203,12.7803
				c0,0.0811,0.0605,0.1406,0.1807,0.1797c3.1992-2.1191,6.999-3.1797,11.3994-3.1797c4.1602,0,7.5801,1.2109,10.2598,3.6299
				C655.8193,41.1914,657.1602,44.4609,657.1602,48.5811z"/>
			<path class="st0" d="M727.54,42.1006c0,0.6006-0.2207,1.1201-0.6602,1.5605c-0.4404,0.4404-0.96,0.6592-1.5596,0.6592h-41.3398
				v1.4404c0,1.1201,0.5596,1.6797,1.6797,1.6797h34.1396c3.2793,0,4.9199,1.6406,4.9199,4.9199v4.5
				c0,3.8408-0.6104,6.46-1.8301,7.8604c-1.2207,1.3994-3.6699,2.0996-7.3496,2.0996h-2.7598c-0.7207,0-1.3311-0.2598-1.8301-0.7793
				c-0.501-0.5205-0.75-1.1406-0.75-1.8604c0-0.6807,0.249-1.2803,0.75-1.7998c0.499-0.5195,1.1094-0.7803,1.8301-0.7803h2.0996
				c1.96,0,3.1797-0.3799,3.6602-1.1396c0.3994-0.5596,0.5996-1.8799,0.5996-3.96v-3.0605c0-1.1992-0.5996-1.7998-1.7998-1.7998h-21
				v7.1406h8.3398c1.1201,0,1.6807-0.5605,1.6807-1.6807V55.541c0-0.7207,0.2598-1.3398,0.7793-1.8604
				c0.5195-0.5195,1.1602-0.7803,1.9199-0.7803c0.7207,0,1.3398,0.2607,1.8604,0.7803c0.5195,0.5205,0.7803,1.1396,0.7803,1.8604
				v3.1797c0,3.2012-1.6006,4.7998-4.7998,4.7998h-26.6406c-3.2002,0-4.7998-1.5986-4.7998-4.7998v-3.0596
				c0-0.7598,0.2705-1.4102,0.8096-1.9502c0.54-0.54,1.1904-0.8105,1.9502-0.8105s1.4102,0.2705,1.9502,0.8105
				s0.8105,1.1904,0.8105,1.9502v1.4395c0,1.1201,0.5596,1.6807,1.6797,1.6807h8.04v-7.1406h-7.5
				c-3.2012,0-4.7998-1.5996-4.7998-4.7998V23.501c0-3.2002,1.5986-4.7998,4.7998-4.7998h10.1396
				c0.6006-1.2002,1.1602-2.5205,1.6797-3.96c0.4404-1.2002,1.3203-1.8008,2.6406-1.8008c0.7588,0,1.3994,0.291,1.9199,0.8701
				c0.5195,0.5801,0.7803,1.2305,0.7803,1.9502c0,0.5605-0.3604,1.54-1.0801,2.9404h15.96c3.1992,0,4.7998,1.5996,4.7998,4.7998
				v8.6396c0,3.2012-1.6006,4.7998-4.7998,4.7998h-31.2598v2.9404h41.3398c0.5996,0,1.1191,0.2207,1.5596,0.6602
				C727.3193,40.9814,727.54,41.501,727.54,42.1006z M714.46,26.0205v-1.5c0-1.1191-0.5605-1.6797-1.6797-1.6797h-27.1201
				c-1.1201,0-1.6797,0.5605-1.6797,1.6797v1.5H714.46z M714.46,31.4805v-1.6201h-30.4795v3.3008h28.7998
				C713.8994,33.1611,714.46,32.6016,714.46,31.4805z"/>
			<path class="st0" d="M786.8203,62.6211c0,0.7197-0.2607,1.3291-0.7803,1.8301c-0.5205,0.499-1.1201,0.75-1.7998,0.75h-28.3203
				c-3.04,0-5.4805-0.3809-7.3203-1.1406c-1.96-0.8398-3.5996-2.2588-4.9199-4.2598c-1.7607,1.6006-3.5996,3.1201-5.5195,4.5596
				c-0.6006,0.4404-1.1807,0.6602-1.7402,0.6602c-0.8008,0-1.4902-0.2998-2.0703-0.8994c-0.5801-0.6006-0.8691-1.3008-0.8691-2.1006
				c0-0.999,0.459-1.7998,1.3799-2.3994c2.6396-1.7598,4.9199-3.5195,6.8398-5.2803V42.6406c0-1.0801-0.5205-1.6201-1.5605-1.6201
				h-4.0801c-0.7197,0-1.3496-0.2598-1.8896-0.7793s-0.8096-1.1602-0.8096-1.9209c0-0.7197,0.2695-1.3496,0.8096-1.8896
				s1.1699-0.8096,1.8896-0.8096h6.2402c3.2002,0,4.7998,1.5996,4.7998,4.7998v14.2197c0.6797,2.001,1.8008,3.4004,3.3604,4.2002
				c1.4404,0.8008,3.5,1.2002,6.1797,1.2002h27.6006c0.6797,0,1.2793,0.25,1.7998,0.75
				C786.5596,61.291,786.8203,61.9004,786.8203,62.6211z M746.6797,24.1611c0,0.7998-0.2695,1.4697-0.8096,2.0098
				s-1.21,0.8096-2.0098,0.8096c-0.8408,0-1.541-0.3193-2.1006-0.96c-1.4395-1.5986-3.1201-3.2598-5.04-4.9795
				c-0.6396-0.5596-0.96-1.2393-0.96-2.04c0-0.7598,0.2793-1.4199,0.8398-1.9805c0.5605-0.5596,1.2197-0.8398,1.9805-0.8398
				c0.6797,0,1.2988,0.2402,1.8604,0.7197c1.7588,1.5215,3.5791,3.2803,5.46,5.2803
				C746.4189,22.7412,746.6797,23.4014,746.6797,24.1611z M761.9199,18.7012c-1.8809,5.2402-3.96,9.9805-6.2402,14.2197
				c-0.6396,1.2002-0.7002,2.3799-0.1797,3.54c2.2803,5.2002,4.3594,10.7197,6.2402,16.5596
				c0.0791,0.2803,0.1201,0.5605,0.1201,0.8398c0,0.7607-0.2803,1.4307-0.8408,2.0107s-1.2197,0.8701-1.9795,0.8701
				c-1.4004,0-2.3008-0.6602-2.7002-1.9805c-1.8809-6.1592-3.8994-11.7793-6.0596-16.8604
				c-0.4805-1.1191-0.7207-2.1592-0.7207-3.1191c0-1.0801,0.3203-2.2207,0.96-3.4209c2.4395-4.6396,4.5205-9.459,6.2402-14.46
				c0.4395-1.2393,1.2998-1.8594,2.5801-1.8594c0.7598,0,1.4102,0.2803,1.9502,0.8398c0.54,0.5605,0.8096,1.2002,0.8096,1.9199
				C762.0996,18.1211,762.04,18.4219,761.9199,18.7012z M773.1396,19.3008c-1.7607,4.4404-3.8994,8.9199-6.4199,13.4404
				c-0.6396,1.1602-0.7197,2.2402-0.2393,3.2393c2.6396,5.4805,4.8389,10.7803,6.5996,15.9004
				c0.1201,0.3203,0.1797,0.6201,0.1797,0.9004c0,0.7598-0.2695,1.4092-0.8096,1.9492s-1.2109,0.8105-2.0098,0.8105
				c-1.2812,0-2.1406-0.6396-2.5801-1.9199c-1.8408-5.5205-3.9404-10.8203-6.3008-15.9004
				c-0.5195-1.1191-0.7793-2.1602-0.7793-3.1201c0-1.0801,0.3389-2.2393,1.0195-3.4795c2.2803-4.0801,4.4199-8.6602,6.4199-13.7402
				c0.4404-1.1191,1.2607-1.6797,2.46-1.6797c0.7598,0,1.3896,0.2598,1.8906,0.7793c0.499,0.5205,0.75,1.1406,0.75,1.8604
				C773.3203,18.6611,773.2598,18.9814,773.1396,19.3008z M786.0996,52.3008c0.1602,0.3203,0.2402,0.6807,0.2402,1.0801
				c0,0.7598-0.2803,1.4307-0.8398,2.0098c-0.5605,0.5801-1.2402,0.8701-2.04,0.8701c-1.3203,0-2.2197-0.5996-2.7002-1.7998
				c-2.3604-5.9199-4.8809-11.4395-7.5596-16.5605c-0.6006-1.1592-0.9004-2.2393-0.9004-3.2393c0-1.04,0.3398-2.1602,1.0205-3.3604
				c2.7197-4.7197,5.0596-9.4805,7.0195-14.2803c0.4805-1.1191,1.3398-1.6797,2.5801-1.6797c0.7998,0,1.4697,0.2803,2.0098,0.8398
				c0.54,0.5605,0.8105,1.2207,0.8105,1.9805c0,0.3594-0.0811,0.7197-0.2402,1.0801c-1.96,4.5596-4.2803,9.0996-6.96,13.6191
				c-0.4004,0.6807-0.5996,1.3008-0.5996,1.8604c0,0.4004,0.1191,0.8398,0.3594,1.3203
				C781.4199,41.8408,784.0195,47.2607,786.0996,52.3008z"/>
			<path class="st0" d="M835.6602,35.501c0,6.3203-1.1006,11.7402-3.2998,16.2598c-2.7207,5.6396-7.541,10.5596-14.46,14.7598
				c-0.4414,0.2793-1.001,0.4199-1.6807,0.4199c-0.8799,0-1.6299-0.3096-2.25-0.9297s-0.9297-1.3701-0.9297-2.25
				c0-1.2002,0.5195-2.1201,1.5596-2.7598c5.7607-3.5596,9.6797-7.2998,11.7607-11.2197c2.04-3.7998,3.0596-8.3799,3.0596-13.7402
				c0-2.7197-0.4004-5.1396-1.2002-7.2598c-1-2.5596-2.3994-3.8408-4.2002-3.8408c-2.6006,0-4.9795,2.2412-7.1396,6.7207
				c-1.9199,3.9199-3.0596,7.9404-3.4199,12.0596c-0.1201,1.4404-0.5703,2.4404-1.3496,3
				c-0.7803,0.5605-1.4502,0.8398-2.0107,0.8398c-1.7998,0-2.8604-0.8789-3.1797-2.6396c-0.7197-3.7998-1.0801-8.04-1.0801-12.7197
				c0-4.4795,0.5791-9.8193,1.7402-16.0205c0.2793-1.5996,1.2393-2.3994,2.8799-2.3994c0.8398,0,1.5498,0.29,2.1299,0.8691
				c0.5791,0.5811,0.8701,1.251,0.8701,2.0107c0,0.2803-0.04,0.54-0.1201,0.7793c-1.1602,4.2002-1.8203,8.04-1.9795,11.5205
				c-0.1201,2.3994-0.1611,4.4395-0.1201,6.1201c1.0801-4.0801,2.7598-7.6396,5.04-10.6807c2.7598-3.5996,5.7598-5.3994,9-5.3994
				c3.2393,0,5.8193,1.6201,7.7393,4.8594C834.7793,26.9014,835.6602,30.7812,835.6602,35.501z"/>
			<path class="st0" d="M902.3799,38.7412c0,1.5996-0.7598,2.54-2.2803,2.8193c-4.1602,0.8008-8.1592,1.8408-12,3.1201
				c0.2002,2.0801,0.3008,4.8809,0.3008,8.4004c0,0.7598-0.2705,1.4199-0.8105,1.9795c-0.54,0.5605-1.1904,0.8398-1.9502,0.8398
				c-0.7998,0-1.4697-0.2793-2.0098-0.8398c-0.54-0.5596-0.79-1.2393-0.75-2.04c0.0391-1.3994,0.0605-2.9395,0.0605-4.6201v-1.7393
				c-2.4404,1.1201-4.5,2.4199-6.1807,3.8994c-2.1201,1.8408-3.1797,3.6211-3.1797,5.3398c0,3.1611,2.7793,4.7402,8.3398,4.7402
				c3.2793,0,6.7998-0.2598,10.5605-0.7803c0.8398-0.1191,1.5898,0.1006,2.25,0.6602c0.6592,0.5605,0.9893,1.2812,0.9893,2.1602
				c0,0.7598-0.25,1.4102-0.75,1.9502s-1.1299,0.8496-1.8896,0.9297c-3.6807,0.3604-6.96,0.54-9.8398,0.54
				c-4.001,0-7.3203-0.5801-9.96-1.7402c-3.6406-1.5986-5.46-4.1592-5.46-7.6797c0-5.6797,4.7998-10.7402,14.3994-15.1797
				c-0.6396-2.1992-1.9404-3.2998-3.8994-3.2998c-1.7207,0-3.7207,0.6396-6,1.9199c-2.4004,1.3604-4.5205,3.1201-6.3604,5.2793
				c-0.5605,0.6406-1.2598,0.96-2.0996,0.96c-0.7607,0-1.4102-0.2695-1.9502-0.8096s-0.8105-1.1895-0.8105-1.9502
				c0-0.6396,0.2402-1.2393,0.7207-1.7998c3.7588-4.2793,7.2197-8.7598,10.3799-13.4404c-1.8408,0.1611-4.4805,0.4209-7.9199,0.7803
				c-0.7607,0.0811-1.4404-0.1494-2.04-0.6895c-0.6006-0.54-0.9004-1.21-0.9004-2.0107c0-0.7197,0.25-1.3389,0.75-1.8594
				c0.5-0.5195,1.1104-0.7998,1.8301-0.8398c4.4795-0.2002,8.4199-0.5,11.8203-0.9004c1.4395-2.4004,2.7793-4.8398,4.0195-7.3203
				c0.5195-1.0391,1.3594-1.5596,2.5205-1.5596c0.7998,0,1.4697,0.2695,2.0098,0.8096s0.8096,1.1904,0.8096,1.9502
				c0,0.5605-0.1406,1.0605-0.4199,1.5c-0.4795,0.8008-1.2402,2.0205-2.2793,3.6602c2.4795-0.4395,4.7998-0.96,6.96-1.5605
				c0.2393-0.0791,0.459-0.1191,0.6592-0.1191c0.7207,0,1.3398,0.2598,1.8604,0.7793c0.5195,0.5205,0.7803,1.1611,0.7803,1.9199
				c0,1.4404-0.7197,2.3008-2.1602,2.5801c-3.6406,0.7207-7.6006,1.4014-11.8799,2.04c-2.4805,3.6406-4.6006,6.5605-6.3604,8.7607
				c2.8799-1.5605,5.4395-2.3408,7.6807-2.3408c3.5596,0,5.959,1.8604,7.1992,5.5801c3.5596-1.2793,7.4795-2.4395,11.7607-3.4795
				c0.2393-0.04,0.459-0.0605,0.6592-0.0605c0.7598,0,1.4199,0.2705,1.9805,0.8105
				C902.0996,37.3311,902.3799,37.9814,902.3799,38.7412z"/>
			<path class="st0" d="M928.2402,16.7812c-0.7207,2.8398-1.7607,5.9199-3.1201,9.2393v38.04c0,0.7598-0.2705,1.4102-0.8105,1.9502
				s-1.1904,0.8096-1.9492,0.8096c-0.7607,0-1.4102-0.2695-1.9502-0.8096s-0.8105-1.1904-0.8105-1.9502V37.6611
				c-1,1.7998-2.0996,3.5996-3.2998,5.3994c-0.5205,0.7607-1.2598,1.1406-2.2197,1.1406c-0.7607,0-1.4004-0.2598-1.9199-0.7803
				c-0.5205-0.5195-0.7803-1.1602-0.7803-1.9199c0-0.6006,0.1592-1.1191,0.4805-1.5605c4.959-7.0391,8.6992-15.2393,11.2197-24.5996
				c0.3604-1.2793,1.2197-1.9199,2.5801-1.9199c0.7588,0,1.3994,0.2607,1.9199,0.7803c0.5195,0.5195,0.7803,1.1396,0.7803,1.8594
				C928.3604,16.3008,928.3193,16.541,928.2402,16.7812z M966.9404,53.7412c0,0.7598-0.251,1.3896-0.75,1.8896
				c-0.501,0.501-1.1104,0.75-1.8301,0.75c-0.8809,0-1.6006-0.3398-2.1602-1.0205c-4.9609-6.0791-9.1602-12.54-12.6006-19.3799
				v15.4805H955c0.6797,0,1.2598,0.2402,1.7402,0.7197c0.4795,0.4805,0.7197,1.0605,0.7197,1.7402
				c0,0.6807-0.2402,1.2598-0.7197,1.7402c-0.4805,0.4795-1.0605,0.7197-1.7402,0.7197h-5.4004v7.3203
				c0,0.7197-0.2598,1.3389-0.7793,1.8594c-0.5205,0.5195-1.1211,0.7803-1.8008,0.7803c-0.7197,0-1.3398-0.2607-1.8594-0.7803
				c-0.5205-0.5205-0.7803-1.1396-0.7803-1.8594v-7.3203H939.04c-0.6807,0-1.2598-0.2402-1.7402-0.7197
				c-0.4795-0.4805-0.7197-1.0596-0.7197-1.7402c0-0.6797,0.2402-1.2598,0.7197-1.7402c0.4805-0.4795,1.0596-0.7197,1.7402-0.7197
				h5.3398V35.6211c-3.5605,7.4805-7.7607,14.1396-12.5996,19.9795c-0.5605,0.6807-1.2402,1.0205-2.04,1.0205
				c-0.7207,0-1.3408-0.2598-1.8604-0.7803c-0.5205-0.5195-0.7803-1.1396-0.7803-1.8604c0-0.6387,0.2402-1.2197,0.7207-1.7393
				c5.5996-6.2002,10.5-14.0801,14.6992-23.6406h-12c-0.7197,0-1.3301-0.249-1.8291-0.75c-0.501-0.499-0.75-1.1299-0.75-1.8896
				c0-0.7197,0.249-1.3398,0.75-1.8604c0.499-0.5195,1.1094-0.7803,1.8291-0.7803h13.8008v-7.0791
				c0-0.7598,0.2598-1.4004,0.7793-1.9209c0.5195-0.5186,1.1602-0.7793,1.9199-0.7793c0.7207,0,1.3398,0.2607,1.8604,0.7793
				c0.5195,0.5205,0.7803,1.1611,0.7803,1.9209v7.0791h14.1602c0.7197,0,1.3398,0.2607,1.8594,0.7803
				c0.5195,0.5205,0.7803,1.1406,0.7803,1.8604s-0.2607,1.3408-0.7803,1.8594c-0.5195,0.5205-1.1396,0.7803-1.8594,0.7803h-12.6006
				c3.6797,8.2412,8.7197,16.041,15.1201,23.4004C966.7393,52.4805,966.9404,53.0615,966.9404,53.7412z"/>
			<path class="st0" d="M978.8203,49.9609c-0.6006,4.5205-1.3008,8.4805-2.1006,11.8799c-0.2393,0.999-0.8398,1.5-1.7998,1.5
				c-1.3203,0-1.9795-0.6201-1.9795-1.8604c0-0.1592,0.0195-0.3389,0.0596-0.54c0.9199-3.3594,1.6992-7.1787,2.3398-11.46
				c0.1592-0.999,0.7197-1.5,1.6797-1.5c0.5605,0,1.0205,0.1807,1.3809,0.54C978.7598,48.8809,978.8994,49.3604,978.8203,49.9609z
				 M998.9199,17.5605c0,0.6807-0.2402,1.251-0.7197,1.71c-0.4805,0.4609-1.041,0.6904-1.6807,0.6904h-5.8799v4.5h4.5605
				c0.5596,0,1.0498,0.21,1.4697,0.6299s0.6299,0.9102,0.6299,1.4697c0,0.6006-0.21,1.1104-0.6299,1.5303
				s-0.9102,0.6299-1.4697,0.6299h-4.5605v4.1396h4.5605c0.5596,0,1.0498,0.21,1.4697,0.6309
				c0.4199,0.4199,0.6299,0.9102,0.6299,1.4697c0,0.5605-0.21,1.0498-0.6299,1.4697s-0.9102,0.6299-1.4697,0.6299h-4.5605v4.5
				h2.2207c3.1992,0,4.7998,1.6006,4.7998,4.7998v9.96c0,4.2812-0.3408,7.0303-1.0205,8.25
				c-0.6807,1.2197-2.1201,1.8301-4.3193,1.8301h-2.7607c-0.7197,0-1.3398-0.2598-1.8594-0.7793
				c-0.5205-0.5205-0.7803-1.1406-0.7803-1.8604s0.2598-1.3398,0.7803-1.8604c0.5195-0.5186,1.1396-0.7793,1.8594-0.7793h1.0205
				c1.2393,0,2-0.3398,2.2803-1.0205c0.2393-0.5596,0.3594-2.1602,0.3594-4.7998v-7.5c0-1.1191-0.5605-1.6797-1.6797-1.6797
				h-11.0996c-3.2012,0-4.8008-1.5996-4.8008-4.8008V19.9609c0-3.2002,1.5996-4.7998,4.8008-4.7998h16.0791
				c0.6396,0,1.2002,0.2393,1.6807,0.7197C998.6797,16.3604,998.9199,16.9219,998.9199,17.5605z M982.96,60.5811
				c0.0391,1.0801-0.46,1.6201-1.5,1.6201c-0.96,0-1.4609-0.5-1.5-1.5c-0.1201-2.3604-0.3398-5.8398-0.6602-10.4404
				c-0.1201-1.0801,0.3604-1.6201,1.4404-1.6201c0.8789,0,1.3594,0.4609,1.4395,1.3799
				C982.3799,52.3408,982.6396,55.8613,982.96,60.5811z M985.9004,24.5205v-4.5596h-3.54c-1.1211,0-1.6807,0.5605-1.6807,1.6797
				v2.8799H985.9004z M985.9004,32.8008v-4.0195h-5.2207v4.0195H985.9004z M985.9004,41.5605V37.001h-5.2207v2.8799
				c0,1.1201,0.5596,1.6797,1.6807,1.6797H985.9004z M987.9404,58.8408c0.1191,1.041-0.3604,1.5596-1.4404,1.5596
				c-0.8799,0-1.3604-0.4395-1.4404-1.3193c-0.2393-2.96-0.5996-6.1201-1.0791-9.4805c-0.041-0.3994,0.0791-0.7588,0.3594-1.0801
				c0.2793-0.3193,0.6201-0.4795,1.0205-0.4795c0.7998,0,1.2598,0.4404,1.3799,1.3193
				C987.2598,52.8018,987.6602,55.9609,987.9404,58.8408z M992.3203,56.6211c0.0391,0.3594-0.0703,0.7002-0.3301,1.0195
				c-0.2607,0.3203-0.5908,0.4805-0.9902,0.4805c-0.8008,0-1.2402-0.3994-1.3203-1.2002c-0.2803-2.7998-0.6602-5.4395-1.1396-7.9199
				c-0.0811-0.3604,0.0098-0.71,0.2695-1.0498s0.5898-0.5107,0.9902-0.5107c0.7197,0,1.1602,0.3809,1.3203,1.1406
				C991.4805,50.4609,991.8789,53.1406,992.3203,56.6211z M1028.2598,29.7412c0,0.6807-0.2607,1.2695-0.7793,1.7695
				c-0.5205,0.501-1.1211,0.75-1.8008,0.75c-0.6807,0-1.2598-0.2197-1.7393-0.6602c-1.8008-1.6797-3.1611-3-4.0801-3.96
				l0.0596,0.3604c0,0.5996-0.21,1.1094-0.6299,1.5303c-0.4199,0.4199-0.9297,0.6299-1.5303,0.6299h-2.9395v3.96h5.3398
				c3.1992,0,4.7998,1.5996,4.7998,4.7998v5.2197c0,3.2012-1.6006,4.7998-4.7998,4.7998h-4.6797
				c2.1191,4.8809,5.6787,9.041,10.6797,12.4805c0.7588,0.5205,1.1396,1.2402,1.1396,2.1602c0,0.7197-0.2607,1.3291-0.7803,1.8301
				c-0.5195,0.499-1.1602,0.75-1.9199,0.75c-0.5605,0-1.04-0.1406-1.4395-0.4199c-4.6406-3.2402-8.2002-7.1201-10.6797-11.6406
				c-2.2803,4.4004-5.7812,8.3008-10.5,11.7002c-0.4805,0.3604-0.9814,0.54-1.5,0.54c-0.7207,0-1.3311-0.25-1.8301-0.75
				c-0.501-0.501-0.75-1.1104-0.75-1.8301c0-0.8799,0.3594-1.5596,1.0801-2.04c5.4385-3.7197,8.8799-7.9795,10.3193-12.7803h-4.5596
				c-3.2012,0-4.7998-1.5986-4.7998-4.7998v-5.2197c0-3.2002,1.5986-4.7998,4.7998-4.7998h5.1602v-3.96h-2.8203
				c-0.5996,0-1.1104-0.21-1.5303-0.6299c-0.4199-0.4209-0.6299-0.9307-0.6299-1.5303c0-0.0801,0.0195-0.2197,0.0605-0.4199
				c-1.2412,1.4004-2.6211,2.8193-4.1406,4.2598c-0.5205,0.4795-1.1006,0.7197-1.7402,0.7197c-0.6807,0-1.2598-0.2402-1.7393-0.7197
				c-0.4805-0.4805-0.7207-1.0596-0.7207-1.7402c0-0.7998,0.2793-1.4395,0.8408-1.9199c3.96-3.4395,7.1992-7.0996,9.7197-10.9795
				c1.3193-2.04,3-3.0605,5.04-3.0605c1.9199,0,3.499,0.9004,4.7402,2.7002c2.4795,3.5996,5.9189,7.2402,10.3193,10.9199
				C1027.9395,28.2812,1028.2598,28.9414,1028.2598,29.7412z M1009.9004,44.6807v-6.2998h-3.6602
				c-1.1201,0-1.6807,0.5605-1.6807,1.6797v2.9404c0,1.1201,0.5605,1.6797,1.6807,1.6797H1009.9004z M1018.2998,25.9609
				c-2-2.2402-3.7402-4.3994-5.2197-6.4805c-0.2803-0.4395-0.5801-0.6602-0.9004-0.6602s-0.6201,0.2207-0.8994,0.6602
				c-1.3604,2.04-3.0205,4.2207-4.9805,6.54c0.3203-0.1201,0.5791-0.1797,0.7803-0.1797h10.6797
				C1017.7998,25.8408,1017.9795,25.8809,1018.2998,25.9609z M1020.4004,43.001v-2.9404c0-1.1191-0.5605-1.6797-1.6807-1.6797
				h-3.8994v6.2998h3.8994C1019.8398,44.6807,1020.4004,44.1211,1020.4004,43.001z"/>
		</g>
	</g>
</g>
</svg>
