<?xml version="1.0" encoding="utf-8"?>
<!-- Generator: Adobe Illustrator 25.2.1, SVG Export Plug-In . SVG Version: 6.00 Build 0)  -->
<svg version="1.1" id="レイヤー_1" xmlns="http://www.w3.org/2000/svg" xmlns:xlink="http://www.w3.org/1999/xlink" x="0px"
	 y="0px" viewBox="0 0 1040 80" style="enable-background:new 0 0 1040 80;" xml:space="preserve">
<style type="text/css">
	.st0{fill:#1E1E28;}
</style>
<g>
	<g>
		<g>
			<path class="st0" d="M34.5996,47.0811c0,0.5996-0.2393,1.1299-0.7197,1.5898c-0.4795,0.46-1,0.6895-1.5596,0.6895
				c-0.6807,0-1.2607-0.2998-1.7402-0.8994c-0.8809-1.0801-2.1807-2.6406-3.9004-4.6797v21.5996
				c0,1.4795-0.7598,2.2197-2.2793,2.2197c-1.5215,0-2.2803-0.7402-2.2803-2.2197V44.8604c-2.2002,2.5605-4.3203,4.7402-6.3604,6.54
				c-0.4795,0.3604-0.96,0.54-1.4395,0.54c-0.6006,0-1.1406-0.249-1.6201-0.75c-0.4805-0.499-0.7197-1.0498-0.7197-1.6494
				c0-0.6797,0.3193-1.2598,0.96-1.7402c2.2393-1.8398,4.2988-3.8193,6.1797-5.9404c4.3994-5.04,7.4189-10.2988,9.0596-15.7793
				H14.9199c-1.4805,0-2.2197-0.7803-2.2197-2.3398c0-1.5205,0.7393-2.2803,2.2197-2.2803h6.0605v-7.0205
				c0-1.4795,0.7588-2.2197,2.2793-2.2197c1.5195,0,2.2803,0.7402,2.2803,2.2197v7.0205h5.4004c1.5195,0,2.2793,0.6807,2.2793,2.04
				c0,0.0801,0,0.2002,0,0.3594c-0.04,0.1611-0.0596,0.2803-0.0596,0.3604c-1.0801,4.96-2.9805,9.5996-5.7002,13.9199
				c2.7598,2.8799,4.959,5.3809,6.5996,7.5C34.4199,46.1211,34.5996,46.6006,34.5996,47.0811z M65.6797,50.501
				c0,1.5205-0.7598,2.2803-2.2793,2.2803H52.2998v12.5996c0,1.4795-0.7598,2.2197-2.2803,2.2197s-2.2793-0.7402-2.2793-2.2197
				V52.7812H37.2998c-1.5205,0-2.2803-0.7598-2.2803-2.2803v-29.04c0-1.5195,0.7598-2.2803,2.2803-2.2803h10.4404v-4.7402
				c0-1.4795,0.7588-2.2197,2.2793-2.2197s2.2803,0.7402,2.2803,2.2197v4.7402h11.1006c1.5195,0,2.2793,0.7607,2.2793,2.2803V50.501
				z M47.7402,33.4004v-9.6592h-8.1602v9.6592H47.7402z M47.7402,48.2207V37.9609h-8.1602v10.2598H47.7402z M61.1201,33.4004
				v-9.6592h-8.8203v9.6592H61.1201z M61.1201,48.2207V37.9609h-8.8203v10.2598H61.1201z"/>
			<path class="st0" d="M94.1797,15.4609c0,1-0.5195,1.6797-1.5596,2.04c-2.0801,0.7598-4.2002,1.4395-6.3604,2.04v8.6396h5.2207
				c1.5195,0,2.2793,0.7607,2.2793,2.2803c0,1.5205-0.7598,2.2803-2.2793,2.2803h-5.2207v1.2598c1.0801,1.4395,3.04,4.4395,5.8799,9
				c0.2402,0.4404,0.3604,0.8604,0.3604,1.2598c0,0.6406-0.2402,1.2002-0.7197,1.6797c-0.4805,0.4805-1.0205,0.7207-1.6201,0.7207
				c-0.7607,0-1.54-0.6602-2.3398-1.9805c-0.5205-0.999-1.041-2-1.5605-3v23.6396c0,1.4795-0.7598,2.2207-2.2793,2.2207
				c-1.5215,0-2.2803-0.7412-2.2803-2.2207V43.4209C79.9795,47.9414,78.0791,51.4814,76,54.041
				c-0.4805,0.5996-1.041,0.8994-1.6797,0.8994c-0.6006,0-1.1211-0.2393-1.5605-0.7197c-0.4404-0.4795-0.6602-1.04-0.6602-1.6797
				c0-0.5195,0.1396-1.0205,0.4199-1.5c3-5,4.6406-7.7402,4.9209-8.2207c2.04-3.7588,3.4199-7.1191,4.1396-10.0791h-6.6602
				c-1.4805,0-2.2197-0.7598-2.2197-2.2803c0-1.5195,0.7393-2.2803,2.2197-2.2803h6.7803v-7.5
				c-2.1211,0.4805-4.1201,0.8809-6,1.2002c-0.1201,0.04-0.2803,0.0596-0.4805,0.0596c-0.6396,0-1.1602-0.2393-1.5596-0.7197
				c-0.4004-0.4795-0.6006-1.0195-0.6006-1.6201c0-1.2002,0.6201-1.959,1.8604-2.2803c1.8398-0.3193,3.6396-0.6592,5.4004-1.0195
				c4.1992-0.9199,7.7793-1.9395,10.7393-3.0596c0.3203-0.1201,0.6201-0.1807,0.9004-0.1807c0.6396,0,1.1699,0.2402,1.5898,0.7207
				C93.9697,14.2607,94.1797,14.8213,94.1797,15.4609z M98.5,36.1611c-0.2402,2.1201-0.46,4.2402-0.6602,6.3594
				c-0.6406,4.9199-1.5205,9.7002-2.6396,14.3398c-0.2803,1.1611-1.001,1.7402-2.1602,1.7402c-0.5996,0-1.1396-0.21-1.6201-0.6299
				c-0.4795-0.4199-0.7197-0.9492-0.7197-1.5898c0-0.2402,0.0195-0.4395,0.0596-0.5996c1.5996-6.8799,2.7197-13.5,3.3604-19.8604
				c0.2402-1.3994,1.04-2.1006,2.3994-2.1006c1.3203,0,1.9805,0.6602,1.9805,1.9805V36.1611z M122.5596,18.7012
				c0,0.2803-0.0205,0.5-0.0596,0.6592c-4.1602,16.7207-9.9209,29.3613-17.2803,37.9209v1.5c0,1.2803,0.5801,2.0996,1.7402,2.46
				c0.5596,0.1602,1.7002,0.2393,3.4199,0.2393c2.4395,0,3.999-0.1396,4.6797-0.4199c1-0.3594,1.6396-1.2793,1.9209-2.7598
				c0.2393-1.2002,0.3594-3.6602,0.3594-7.3799c0-1.5195,0.7598-2.2803,2.2803-2.2803c1.5195,0,2.2803,0.7607,2.2803,2.2803
				c0,4.7607-0.2607,8.1201-0.7803,10.0801c-0.6006,2.1191-1.7207,3.54-3.3604,4.2598c-1.3604,0.5596-3.8203,0.8398-7.3799,0.8398
				c-3.2803,0-5.46-0.2002-6.54-0.5996c-1.5205-0.6006-2.4404-1.8408-2.7598-3.7197c-0.8008,0.7998-2.9199,2.5195-6.3604,5.1592
				c-0.4795,0.3604-0.9404,0.54-1.3799,0.54c-0.5996,0-1.1396-0.25-1.6201-0.75C91.2402,66.2305,91,65.6807,91,65.0811
				c0-0.7207,0.2998-1.3008,0.9004-1.7402c1.6396-1.2393,2.7393-2.0996,3.2998-2.5801c1.999-1.6396,3.8193-3.3799,5.46-5.2197
				V27.7012c0-1.5205,0.7588-2.2803,2.2803-2.2803c1.5195,0,2.2793,0.7598,2.2793,2.2803v22.2598
				c4.9199-6.7598,9.1807-17.3398,12.7803-31.7402c0.2793-1.1592,0.999-1.7402,2.1602-1.7402c0.6396,0,1.2002,0.2012,1.6797,0.6006
				C122.3203,17.4814,122.5596,18.0215,122.5596,18.7012z M114.46,23.3203c0,0.6406-0.2402,1.1914-0.7197,1.6504
				c-0.4805,0.46-1.0205,0.6904-1.6201,0.6904c-0.6807,0-1.2598-0.2793-1.7402-0.8408c-2.6807-3.0791-5.3203-5.6396-7.9199-7.6797
				c-0.6406-0.4795-0.96-1.0596-0.96-1.7402c0-0.5996,0.2295-1.1494,0.6904-1.6494c0.459-0.5,0.9893-0.75,1.5898-0.75
				c0.4395,0,0.8994,0.1797,1.3799,0.54c0.8398,0.6396,1.7188,1.3408,2.6396,2.0996c2.1201,1.8809,4.1406,3.9404,6.0605,6.1797
				C114.2598,22.3008,114.46,22.8018,114.46,23.3203z M127.9004,52.3008c0,1.4805-0.7803,2.2197-2.3408,2.2197
				c-1.2803,0-2.0195-0.6387-2.2197-1.9199c-0.96-6.2402-1.9795-11.5996-3.0596-16.0801c-0.041-0.1201-0.0605-0.2793-0.0605-0.4795
				c0-0.6797,0.2402-1.2393,0.7207-1.6807c0.4795-0.4395,1.0391-0.6592,1.6797-0.6592c1.2002,0,1.8994,0.5996,2.0996,1.7998
				c0.5195,2.1201,1.5801,7.5801,3.1807,16.3799V52.3008z"/>
			<path class="st0" d="M185.9199,22.001c0,7.96-0.2607,17.9805-0.7803,30.0596c-0.2393,5.6807-1.1201,9.5801-2.6396,11.7002
				c-1.5205,2.1201-4.1602,3.1797-7.9199,3.1797c-1.7998,0-4.0205-0.2002-6.6602-0.5996c-1.3604-0.2002-2.04-0.9805-2.04-2.3398
				c0-1.6396,0.7598-2.46,2.2803-2.46c0.5596,0,1.46,0.0801,2.7002,0.2402c1.2393,0.1602,2.1797,0.2393,2.8193,0.2393
				c2.4805,0,4.1797-0.6992,5.1006-2.0996c0.9189-1.3994,1.4795-4.0801,1.6797-8.04c0.4395-9.4395,0.6797-18.6201,0.7197-27.54
				H165.04c-1.6006,3.8398-3.4199,7.0605-5.46,9.6602c-0.4004,0.6807-0.9805,1.0195-1.7402,1.0195
				c-0.4404,0-0.8994-0.1396-1.3799-0.4199v26.46c0,1.5605-0.7803,2.3398-2.3398,2.3398h-17.4004
				c-1.5596,0-2.3398-0.7793-2.3398-2.3398V23.3203c0-1.5596,0.7803-2.3398,2.3398-2.3398h4.6807
				c0.5596-1.3193,1.3389-3.5791,2.3398-6.7793c0.2793-1.2002,1.0195-1.8008,2.2197-1.8008c0.5996,0,1.1494,0.21,1.6504,0.6309
				c0.499,0.4199,0.75,0.9697,0.75,1.6494c0,0.1602-0.041,0.3604-0.1201,0.6006c-0.2402,1.1201-0.8809,3.0205-1.9199,5.6992h7.7998
				c1.5596,0,2.3398,0.7803,2.3398,2.3398v7.0801c2.9189-4.2793,5.3193-9.7588,7.2002-16.4395
				c0.3193-1.1191,1.0391-1.6797,2.1602-1.6797c0.6387,0,1.1992,0.2002,1.6797,0.5996c0.4805,0.4004,0.7197,0.9404,0.7197,1.6201
				c0,0.3203-0.04,0.5605-0.1201,0.7197c-0.3203,1-0.7793,2.4805-1.3799,4.4404h16.8604
				C185.1396,19.6611,185.9199,20.4404,185.9199,22.001z M151.7803,39.7607V25.6611h-12.7207v14.0996H151.7803z M151.7803,58.7207
				V44.4404h-12.7207v14.2803H151.7803z M173.1396,49.541c0,0.6807-0.25,1.2295-0.75,1.6494s-1.0703,0.6299-1.71,0.6299
				c-1.04,0-1.7393-0.5186-2.0996-1.5596c-1.1201-3.3193-3.1201-7.46-6-12.4199c-0.1602-0.3193-0.2402-0.6992-0.2402-1.1396
				c0-0.6797,0.25-1.2607,0.75-1.7402c0.5-0.4805,1.0703-0.7197,1.71-0.7197c0.8398,0,1.46,0.4199,1.8604,1.2598
				c0.8398,1.5596,1.6992,3.1406,2.5801,4.7402c1.7598,3.3594,3,6.1797,3.7197,8.46
				C173.0801,49.0605,173.1396,49.3408,173.1396,49.541z"/>
			<path class="st0" d="M221.9805,23.501c0,1.4004-0.7412,2.1807-2.2207,2.3398c-2.04,0.2002-5.5195,0.4795-10.4395,0.8398
				c-3.6406,12.3604-7.3008,22.3408-10.9805,29.9404c-0.4404,0.8799-1.1201,1.3193-2.04,1.3193
				c-0.5996,0-1.1504-0.2188-1.6494-0.6592c-0.501-0.4404-0.75-0.9805-0.75-1.6201c0-0.3994,0.0791-0.7598,0.2393-1.0801
				c3.2002-6.6797,6.6201-15.9004,10.2607-27.6602c-2.04,0.1201-4.8213,0.2998-8.3408,0.54c-0.7197,0.04-1.29-0.2002-1.71-0.7197
				s-0.6299-1.1006-0.6299-1.7402c0-1.4795,0.7803-2.2598,2.3398-2.3398c3.5605-0.1602,6.7998-0.3398,9.7207-0.54
				c0.5596-2.04,1.2002-4.6201,1.9199-7.7402c0.2793-1.2002,1.0391-1.7998,2.2803-1.7998c0.5996,0,1.1396,0.2002,1.6191,0.5996
				c0.4805,0.4004,0.7207,0.9404,0.7207,1.6201c0,0.0811-0.54,2.4209-1.6201,7.0195c2.0791-0.1992,5.0596-0.4395,8.9395-0.7197
				c0.7207-0.0391,1.29,0.1904,1.71,0.6904S221.9805,22.8613,221.9805,23.501z M247.54,58.2412
				c0,0.6396-0.2402,1.1992-0.7197,1.6797c-0.4805,0.4795-1.041,0.7197-1.6807,0.7197s-1.1797-0.1992-1.6201-0.5996
				c-2.7197-2.4795-5.3398-4.46-7.8594-5.9404c-0.04,3.9209-1.4404,6.96-4.2002,9.1201c-2.6006,2.04-6.0596,3.0605-10.3799,3.0605
				c-4.0801,0-7.3408-1.1406-9.7803-3.4209c-2.2002-2.04-3.2998-4.459-3.2998-7.2598c0-3.3994,1.3594-6.0791,4.0801-8.04
				c2.4004-1.6797,5.3193-2.5195,8.7598-2.5195c3.3203,0,6.5596,0.5605,9.7197,1.6797c-0.3994-6.1201-0.5996-10.1191-0.5996-12
				c0-0.3604,0.0195-0.9004,0.0596-1.6201c0-0.7197,0-1.1592,0-1.3193c0-0.6797,0.25-1.2305,0.75-1.6504
				s1.0508-0.6299,1.6504-0.6299c1.5605,0,2.3398,0.8008,2.3398,2.3994c0,0.2012,0,0.6602,0,1.3809
				c-0.04,0.6797-0.0596,1.1992-0.0596,1.5596c0,2.9199,0.2402,7.54,0.7197,13.8604c3.8398,1.9199,7.5996,4.54,11.2803,7.8594
				C247.2598,57.0811,247.54,57.6406,247.54,58.2412z M230.9805,53.6807c0-0.1992,0-0.5195,0-0.96
				c-0.041-0.4395-0.0605-0.7803-0.0605-1.0195c-3.5605-1.4795-6.9004-2.2207-10.0195-2.2207c-2.1602,0-4.0205,0.501-5.5801,1.5
				c-1.7607,1.1611-2.6406,2.7207-2.6406,4.6807c0,1.5596,0.7207,2.9199,2.1602,4.0801c1.5605,1.2803,3.6602,1.9199,6.2998,1.9199
				C227.6992,61.6611,230.9805,59.001,230.9805,53.6807z M245.6201,26.4404c0,0.6406-0.21,1.2109-0.6299,1.71
				c-0.4199,0.501-0.9707,0.75-1.6504,0.75c-0.0801,0-0.2998-0.0391-0.6602-0.1191c-4.7998-1.1201-10.0195-2.04-15.6602-2.7607
				c-1.4395-0.1992-2.1592-0.999-2.1592-2.3994c0-1.5605,0.7588-2.3398,2.2793-2.3398c1.1201,0,3.8604,0.3994,8.2207,1.1992
				c3.8398,0.7607,6.6797,1.3604,8.5195,1.8008C245.04,24.5615,245.6201,25.2812,245.6201,26.4404z"/>
			<path class="st0" d="M303.1602,62.9209c0,0.6797-0.25,1.2393-0.75,1.6797c-0.501,0.4395-1.0703,0.6602-1.71,0.6602
				c-0.96,0-1.6406-0.46-2.04-1.3799l-6.8398-15.1201h-23.5205l-6.7803,15.1201c-0.3994,0.9199-1.0791,1.3799-2.0391,1.3799
				c-0.6406,0-1.2109-0.2207-1.7109-0.6602c-0.5-0.4404-0.75-1-0.75-1.6797c0-0.3193,0.0801-0.6602,0.2402-1.0205L277.96,16.1807
				c0.5195-1.1191,1.2197-1.6797,2.0996-1.6797s1.5801,0.5605,2.1006,1.6797l20.7598,45.7197
				C303.0791,62.2607,303.1602,62.6016,303.1602,62.9209z M289.6602,44.0811l-9.6006-21.2402L270.46,44.0811H289.6602z"/>
			<path class="st0" d="M360.2803,62.9209c0,0.6797-0.251,1.2598-0.75,1.7402c-0.501,0.4795-1.0713,0.7197-1.71,0.7197
				c-0.8398,0-1.5-0.3896-1.9805-1.1699c-0.4795-0.7803-1.0605-2.5703-1.7402-5.3701c-0.4795-1.959-0.9395-3.9199-1.3799-5.8799
				c-0.96-3.5596-2.0801-6.1396-3.3594-7.7402c-1.8408-2.3193-4.4609-3.4795-7.8604-3.4795h-16.6797v21.1191
				c0,1.5605-0.7803,2.3408-2.3398,2.3408c-1.5605,0-2.3408-0.7803-2.3408-2.3408V18.041c0-1.5605,0.7803-2.3398,2.3408-2.3398
				h23.0391c4.2803,0,7.7598,1.1504,10.4404,3.4492c2.6797,2.3008,4.0205,5.3701,4.0205,9.21c0,2.8408-0.8701,5.3506-2.6104,7.5303
				c-1.7402,2.1807-3.9102,3.6904-6.5098,4.5303c1.7598,1.2803,3.1797,3.0205,4.2598,5.2197
				c0.6797,1.4004,1.3799,3.4404,2.0996,6.1201c0.5596,2.6006,1.4795,5.9199,2.7607,9.96
				C360.1797,62.1611,360.2803,62.5605,360.2803,62.9209z M355.2998,28.3604c0-2.4385-0.9502-4.3799-2.8496-5.8193
				c-1.9004-1.4404-4.4307-2.1602-7.5898-2.1602h-20.04v16.6797H344.5c2.7197,0,5.1396-0.7588,7.2598-2.2793
				C354.1201,33.1006,355.2998,30.9609,355.2998,28.3604z"/>
			<path class="st0" d="M384.4004,36.7012c0.2393,1.9199-0.501,2.8799-2.2207,2.8799c-1.3604,0-2.1602-0.6992-2.3994-2.1006
				c-1.1611-6.5596-2.46-12.3193-3.9004-17.2793c-0.0801-0.2793-0.1201-0.5605-0.1201-0.8408c0-1.4395,0.8193-2.1592,2.46-2.1592
				c1.2002,0,1.96,0.54,2.2803,1.6191c0.5996,1.9609,1.3496,5.001,2.25,9.1201C383.6504,32.0615,384.1992,34.9814,384.4004,36.7012z
				 M424.4805,19.9609c-0.4004,13.2002-3.9609,23.8408-10.6807,31.9199c-6.2803,7.4805-15.0205,12.459-26.2197,14.9395
				c-0.8008,0.1602-1.4805-0.0293-2.04-0.5693c-0.5605-0.54-0.8398-1.1504-0.8398-1.8301c0-1.2402,0.6191-2,1.8594-2.2803
				c21.7207-5.0791,32.7803-19.2002,33.1807-42.3594c0.0391-1.5205,0.8193-2.2803,2.3398-2.2803c0.6396,0,1.209,0.2305,1.71,0.6895
				C424.29,18.6514,424.5195,19.2412,424.4805,19.9609z M401.8604,35.3203c0.0791,0.7607-0.1006,1.3906-0.54,1.8906
				c-0.4414,0.5-1.0605,0.75-1.8604,0.75c-1.4004,0-2.1807-0.6797-2.3398-2.04c-0.5205-4.7998-1.5605-10.6592-3.1201-17.5801
				c-0.04-0.2402-0.0596-0.459-0.0596-0.6602c0-1.4795,0.7988-2.2197,2.3994-2.2197c1.2803,0,2.0596,0.5996,2.3398,1.7998
				C400.0801,22.8213,401.1396,28.8408,401.8604,35.3203z"/>
			<path class="st0" d="M484.96,20.7412c-2.3203,11.9199-8.7803,20.2002-19.3799,24.8398
				c-0.3604,0.1201-0.7002,0.1797-1.0205,0.1797c-0.6807,0-1.2402-0.249-1.6797-0.75c-0.4404-0.5-0.6602-1.0693-0.6602-1.71
				c0-0.96,0.46-1.6396,1.3799-2.04c4.2002-1.7998,7.7197-4.3096,10.5605-7.5303c2.8398-3.2188,4.6992-6.9092,5.5801-11.0693
				h-42.0605c-1.5596,0-2.3398-0.7803-2.3398-2.3408c0-1.5596,0.7803-2.3398,2.3398-2.3398h45c1.5605,0,2.3398,0.7207,2.3398,2.1602
				C485.0195,20.3418,484.999,20.541,484.96,20.7412z M459.2803,35.7412c0,7.4395-1.8604,14.0195-5.5801,19.7393
				c-3.4805,5.4004-7.9404,9.0801-13.3799,11.04c-0.2402,0.0801-0.54,0.1201-0.9004,0.1201c-0.6807,0-1.2402-0.25-1.6797-0.75
				c-0.4404-0.5-0.6602-1.0498-0.6602-1.6494c0-1.041,0.5195-1.7598,1.5596-2.1602c4.6396-1.7598,8.3799-4.8604,11.2207-9.2998
				c3.1201-4.8008,4.6797-10.4795,4.6797-17.04v-5.46c0-1.5605,0.7998-2.3408,2.4004-2.3408c0.5996,0,1.1396,0.21,1.6191,0.6299
				c0.4805,0.4209,0.7207,0.9902,0.7207,1.7109V35.7412z"/>
			<path class="st0" d="M547.1201,37.9609c0,0.6406-0.2607,1.2002-0.7803,1.6797c-0.5205,0.4805-1.2207,0.7197-2.0996,0.7197
				h-48.7207c-0.8799,0-1.5801-0.2393-2.0996-0.7197c-0.5205-0.4795-0.7803-1.0391-0.7803-1.6797
				c0-0.6396,0.2598-1.2002,0.7803-1.6797c0.5195-0.4805,1.2197-0.7207,2.0996-0.7207h48.7207c0.8789,0,1.5791,0.2402,2.0996,0.7207
				C546.8594,36.7607,547.1201,37.3213,547.1201,37.9609z"/>
			<path class="st0" d="M604.54,20.3809c0,1.4395-0.7402,2.2002-2.2197,2.2803c-8.2002,0.5195-15.2207,3.0801-21.0605,7.6797
				c-5.6797,4.4004-8.5195,9.2607-8.5195,14.5801c0,4.6406,1.7998,8.3008,5.3994,10.9795
				c4.0801,3.041,10.1201,4.5605,18.1201,4.5605h1.1406c1.5596-0.0391,2.3398,0.7197,2.3398,2.2803
				c0,1.5986-0.7803,2.3994-2.3398,2.3994h-0.96c-8.4814,0-15.2402-1.6797-20.2803-5.04
				c-5.4004-3.5596-8.1006-8.6396-8.1006-15.2402c0-4.9199,1.96-9.5596,5.8809-13.9199c3.4395-3.8789,7.6797-6.7998,12.7197-8.7598
				c-10.2002,0.1201-20.3809,0.7412-30.54,1.8604c-0.6807,0.0801-1.2803-0.1396-1.7998-0.6602
				c-0.5205-0.5195-0.7803-1.0801-0.7803-1.6797c0-1.4004,0.6992-2.1797,2.0996-2.3408
				c10.2002-1.0391,21.9199-1.5596,35.1602-1.5596c4.2002,0,7.96,0.0596,11.2803,0.1797
				C603.7197,18.0215,604.54,18.8203,604.54,20.3809z M597.8203,38.2607c0,0.5605-0.2012,1.0205-0.6006,1.3799
				c-0.4004,0.3604-0.8604,0.54-1.3799,0.54c-0.7197,0-1.2598-0.3389-1.6201-1.0195c-1.04-1.9199-2.3994-3.9199-4.0801-6
				c-0.3203-0.3994-0.4795-0.7998-0.4795-1.2002c0-0.5195,0.1992-0.9697,0.5996-1.3506c0.3994-0.3789,0.8604-0.5693,1.3799-0.5693
				c0.5596,0,1.04,0.2402,1.4404,0.7197c1.6797,2.001,3.1797,4.2002,4.5,6.5996C597.7393,37.6406,597.8203,37.9414,597.8203,38.2607
				z M604.54,35.2607c0,0.5605-0.2002,1.0205-0.5996,1.3799c-0.4004,0.3604-0.8613,0.54-1.3809,0.54
				c-0.7197,0-1.2598-0.3389-1.6191-1.0195c-0.6406-1.2002-1.9805-3.2197-4.0205-6.0605c-0.2803-0.3994-0.4199-0.7803-0.4199-1.1396
				c0-0.5195,0.1895-0.9795,0.5703-1.3799c0.3789-0.3994,0.8291-0.6006,1.3496-0.6006c0.5996,0,1.0801,0.2607,1.4404,0.7803
				c1.7598,2.1602,3.2393,4.3408,4.4395,6.54C604.459,34.5811,604.54,34.9004,604.54,35.2607z"/>
			<path class="st0" d="M659.4404,47.9805c0,5.4004-1.791,9.6514-5.3701,12.75c-3.5811,3.0996-8.5107,4.6504-14.79,4.6504
				c-10.3203,0-16.6602-3.999-19.0205-12c-0.0801-0.2002-0.1201-0.4199-0.1201-0.6602c0-0.6396,0.25-1.1797,0.75-1.6201
				c0.5-0.4395,1.0508-0.6602,1.6504-0.6602c1.1592,0,1.8994,0.5811,2.2197,1.7402c1.5195,5.6807,6.3604,8.5205,14.5205,8.5205
				c4.7598,0,8.5098-1.1299,11.25-3.3906c2.7393-2.2588,4.1094-5.3291,4.1094-9.21c0-7.2793-4.3799-10.9199-13.1396-10.9199
				c-6,0-11.2803,1.9199-15.8398,5.7598c-0.6006,0.5205-1.2402,0.7803-1.9199,0.7803c-1.3203,0-1.9805-0.7998-1.9805-2.4004
				c0-3.1191,0.2197-7.0195,0.6602-11.6992c0.3994-3.9199,0.7803-7.8203,1.1396-11.7002c0.1201-1.4404,0.9004-2.1602,2.3408-2.1602
				h29.3398c1.5596,0,2.3398,0.7803,2.3398,2.3398c0,1.5605-0.7803,2.3398-2.3398,2.3398h-27.1807l-1.3193,16.1406
				c4.7598-2.6797,9.6797-4.0205,14.7598-4.0205c5.4395,0,9.7197,1.2598,12.8398,3.7803
				C657.7393,39.0215,659.4404,42.9014,659.4404,47.9805z"/>
			<path class="st0" d="M727.96,40.8408c0,1.3604-0.7402,2.04-2.2197,2.04h-41.4004v3.2402h37.2598
				c1.5996,0,2.3604,0.6602,2.2803,1.9795c0,5.8008-0.2402,9.9209-0.7197,12.3604c-0.8398,4.2793-3.8604,6.4199-9.0605,6.4199
				c-1.2803,0-2.8398-0.1406-4.6797-0.4199c-1.2803-0.2012-1.9199-0.9209-1.9199-2.1602c0-0.6807,0.2402-1.2598,0.7197-1.7402
				h-32.3994c-1.1611,0-1.7402-0.7588-1.7402-2.2793v-8.4609c0-1.4785,0.7598-2.2197,2.2803-2.2197
				c1.5596,0,2.3398,0.7412,2.3398,2.2197v6.1807h11.1602v-7.9199h-7.9199c-1.5215,0-2.2803-0.7598-2.2803-2.2803V20.4404
				c0-1.5195,0.7588-2.2793,2.2803-2.2793h11.46c0.6797-0.9199,1.6592-2.4395,2.9395-4.5605
				c0.4395-0.7998,1.0596-1.2002,1.8604-1.2002c0.5996,0,1.1494,0.2207,1.6494,0.6602c0.5,0.4404,0.75,0.96,0.75,1.5605
				c0,0.4004-0.0996,0.7793-0.2998,1.1396c-0.3594,0.4805-0.8994,1.2803-1.6201,2.4004h16.9805
				c1.5195,0,2.2803,0.7598,2.2803,2.2793v13.0205c0,1.5205-0.7607,2.2803-2.2803,2.2803h-31.3203v3h41.4004
				C727.2197,38.7412,727.96,39.4414,727.96,40.8408z M713.2598,25.0605v-3.1797h-28.9199v3.1797H713.2598z M713.2598,31.9609
				v-3.2402h-28.9199v3.2402H713.2598z M719.0801,50.0811h-24.6602v7.9199H706.54v-4.0801c0-1.4795,0.7598-2.2197,2.2803-2.2197
				c1.4795,0,2.2197,0.7402,2.2197,2.2197v6.1201c0,0.7197-0.2002,1.2803-0.5996,1.6797c1.999,0.2012,3.4199,0.2998,4.2598,0.2998
				c1.2793,0,2.2197-0.21,2.8193-0.6299c0.6006-0.4199,0.9805-1.209,1.1406-2.3701
				C718.9395,57.1816,719.0801,54.2012,719.0801,50.0811z"/>
			<path class="st0" d="M787.6602,63.7012c0,1.5195-0.7607,2.2793-2.2803,2.2793h-26.7002c-7.2803,0-12.4004-1.6406-15.3594-4.9199
				c-2.2803,2.3604-4.7012,4.3799-7.2607,6.0605c-0.4404,0.2793-0.8799,0.4199-1.3193,0.4199c-0.6006,0-1.1201-0.2402-1.5605-0.7207
				c-0.4404-0.4795-0.6602-1.04-0.6602-1.6797c0-0.8008,0.3398-1.4609,1.0205-1.9795c3.5996-2.7607,6.1592-5.0596,7.6797-6.9004
				V39.041h-6.2393c-1.5605,0-2.3408-0.7803-2.3408-2.3398c0-1.5605,0.7803-2.3408,2.3408-2.3408h8.5791
				c1.5605,0,2.3408,0.7803,2.3408,2.3408v18.4795c0,4.041,4.2793,6.0605,12.8398,6.0605h26.5195c0.7207,0,1.2998,0.25,1.7402,0.75
				C787.4395,62.4912,787.6602,63.0605,787.6602,63.7012z M747.3398,22.7207c0,0.5996-0.2305,1.1201-0.6895,1.5605
				c-0.4609,0.4404-0.9902,0.6592-1.5908,0.6592c-0.5996,0-1.1201-0.2188-1.5596-0.6592c-2.04-2.1201-4.7002-4.1797-7.9805-6.1807
				c-0.7998-0.4395-1.1992-1.0801-1.1992-1.9199c0-0.6396,0.2295-1.209,0.6895-1.71c0.46-0.5,1.0098-0.75,1.6504-0.75
				c0.3994,0,0.7998,0.1201,1.2002,0.3604c1.0391,0.6396,2.04,1.3193,3,2.04c2.2793,1.6406,4.1992,3.2803,5.7598,4.9199
				C747.0996,21.5615,747.3398,22.1211,747.3398,22.7207z M762.0996,56.6211c0,0.6807-0.25,1.2295-0.75,1.6494
				s-1.0703,0.6299-1.71,0.6299c-1.1602,0-1.9004-0.5596-2.2197-1.6797c-1.7207-5.6797-4.7402-12.7393-9.0596-21.1797
				c-0.1611-0.2793-0.2402-0.6602-0.2402-1.1406c0-0.4395,0.0791-0.7988,0.2402-1.0801c1.1191-2.1191,2.1592-4.1992,3.1201-6.2393
				c2.3193-4.8398,4.0996-8.9795,5.3398-12.4199c0.3594-1,1.1191-1.5,2.2793-1.5c1.5205,0,2.2803,0.6807,2.2803,2.04
				c0,0.3203-0.0596,0.6592-0.1797,1.0195c-1.4404,4.2402-4.1611,10.3408-8.1602,18.2998
				c4.3203,8.4805,7.2998,15.4199,8.9404,20.8203C762.0596,56.1211,762.0996,56.3809,762.0996,56.6211z M773.7998,56.6211
				c0,0.6807-0.25,1.2295-0.75,1.6494s-1.0703,0.6299-1.71,0.6299c-1.1201,0-1.8398-0.5596-2.1602-1.6797
				c-1.7197-5.6797-4.7607-12.7393-9.1201-21.1797c-0.1602-0.3604-0.2393-0.7402-0.2393-1.1406
				c0-0.3594,0.0791-0.7197,0.2393-1.0801c1.1201-2.1191,2.1602-4.1992,3.1201-6.2393c2.3193-4.8398,4.0996-8.9795,5.3398-12.4199
				c0.3604-1,1.1406-1.5,2.3408-1.5c1.4795,0,2.2197,0.6807,2.2197,2.04c0,0.3203-0.0605,0.6592-0.1797,1.0195
				c-1.4404,4.2402-4.1611,10.3408-8.1602,18.2998c1.6797,3.3213,3.0791,6.2207,4.2002,8.7002
				c2.1592,4.7207,3.7393,8.7598,4.7393,12.1201C773.7598,56.1211,773.7998,56.3809,773.7998,56.6211z M786.04,56.6211
				c0,0.6807-0.25,1.2295-0.75,1.6494c-0.501,0.4199-1.0703,0.6299-1.71,0.6299c-1.1201,0-1.8408-0.5596-2.1602-1.6797
				c-1.7207-5.6797-4.7607-12.7393-9.1201-21.1797c-0.1201-0.2793-0.1797-0.6602-0.1797-1.1406
				c0-0.4395,0.0596-0.7988,0.1797-1.0801c1.1191-2.1191,2.1602-4.1992,3.1201-6.2393c2.3193-4.8398,4.0996-8.9795,5.3398-12.4199
				c0.3604-1,1.1406-1.5,2.3398-1.5c1.4795,0,2.2207,0.6807,2.2207,2.04c0,0.3203-0.0605,0.6592-0.1807,1.0195
				c-1.5596,4.4805-4.2803,10.5811-8.1592,18.2998c1.6797,3.2803,3.0791,6.1807,4.1992,8.7002
				c2.1602,4.7207,3.7402,8.7598,4.7402,12.1201C786,56.001,786.04,56.2607,786.04,56.6211z"/>
			<path class="st0" d="M840.2803,37.7207c0,9.8398-2.8604,17.2607-8.5801,22.2598c-4.8809,4.2002-11.6006,6.5-20.1602,6.9004
				c-1.6406,0.0801-2.46-0.7002-2.46-2.3398c0-1.4404,0.7197-2.2207,2.1602-2.3398c16.2393-1.2803,24.3594-9.3398,24.3594-24.1807
				c0-12.1201-3.54-18.1797-10.6191-18.1797c-4.9609,0-9.54,3.1406-13.7402,9.4199c-3.8809,5.7207-5.9004,11.3008-6.0605,16.7402
				c-0.04,1.6006-0.8398,2.3994-2.3994,2.3994c-1.4404,0-2.2002-0.7393-2.2803-2.2197c-0.04-0.8789-0.0596-2.0996-0.0596-3.6602
				c0-7.5986,0.499-16.3398,1.5-26.2197c0.1592-1.5195,0.999-2.2803,2.5195-2.2803c0.5596,0,1.0801,0.2402,1.5596,0.7207
				c0.4805,0.4795,0.6797,1.04,0.6006,1.6797c-0.4404,3.5996-0.8809,8.6006-1.3203,15c2.2803-4.8799,5.1396-8.7598,8.5801-11.6396
				c3.6396-3.0801,7.5-4.6201,11.5801-4.6201c5.4395,0,9.4199,2.6006,11.9404,7.7998
				C839.3203,26.8818,840.2803,31.8018,840.2803,37.7207z"/>
			<path class="st0" d="M904.8398,36.5205c0,1.3203-0.6807,2.0811-2.04,2.2803c-4.6797,0.6807-9.2998,1.6201-13.8594,2.8203
				c0.1992,1.5996,0.2998,3.54,0.2998,5.8193c0,0.7607,0,1.8408,0,3.2402c-0.041,1.3604-0.0605,2.3398-0.0605,2.9404
				c0,0.7197-0.2393,1.29-0.7197,1.71c-0.4795,0.4199-1.0195,0.6299-1.6201,0.6299c-1.6006,0-2.3994-0.7803-2.3994-2.3398
				c0-0.6006,0.0391-1.7197,0.1191-3.3604c0.0801-1.6396,0.1201-2.9404,0.1201-3.9004c0-1.1992-0.0596-2.3594-0.1797-3.4795
				c-10.2402,3.3203-15.3809,7.2402-15.4199,11.7598c-0.04,3.4404,2.8594,5.5605,8.7002,6.3604
				c1.7998,0.2402,3.999,0.3594,6.5996,0.3594c1.7598,0,4.2598-0.1191,7.5-0.3594c3.9199-0.2793,6.7803-0.46,8.5801-0.54
				c1.6396-0.0801,2.46,0.7002,2.46,2.3398c0,1.4404-0.7197,2.2197-2.1602,2.3398c-5.3604,0.4395-10.2598,0.6602-14.7002,0.6602
				c-5.8799,0-10.4004-0.4805-13.5596-1.4404c-5.3604-1.6797-8.0605-4.8193-8.0996-9.4199
				c-0.0811-6.7588,6.2998-12.2598,19.1396-16.5c-1.2002-2.8389-3.3809-4.2598-6.54-4.2598c-2.6396,0-5.5195,1.0205-8.6396,3.0605
				c-3.3213,2.2002-6.3809,5.2197-9.1807,9.0596c-0.4404,0.5996-1,0.9004-1.6797,0.9004c-0.6406,0-1.21-0.2598-1.71-0.7803
				c-0.501-0.5195-0.75-1.0996-0.75-1.7402c0-0.5596,0.1992-1.0596,0.5996-1.5c4.3203-4.8389,8.7998-11.1396,13.4404-18.8994
				h-10.9805c-1.5596,0-2.3398-0.7402-2.3398-2.2207c0-1.5195,0.7803-2.2793,2.3398-2.2793h13.5605
				c1.1592-2.04,2.1797-4.04,3.0596-6c0.4404-0.9199,1.1201-1.3809,2.04-1.3809c0.6396,0,1.21,0.21,1.71,0.6309
				c0.5,0.4199,0.75,0.9697,0.75,1.6494c0,0.4805-0.7598,2.1807-2.2793,5.1006h19.3193c1.5605,0,2.3398,0.7598,2.3398,2.2793
				c0,0.6006-0.21,1.1201-0.6299,1.5605s-0.9893,0.6602-1.71,0.6602h-21.8994c-1.4805,2.4805-3.2207,5.1797-5.2207,8.0996
				c3.1201-1.5605,5.96-2.3398,8.5205-2.3398c5.1602,0,8.5801,2.3604,10.2598,7.0801c1.4404-0.3994,3.7998-0.96,7.0801-1.6807
				c3.9199-0.8789,6.4395-1.3193,7.5596-1.3193C904.0801,34.1211,904.8398,34.9219,904.8398,36.5205z"/>
			<path class="st0" d="M967.9004,53.8008c0,0.6406-0.2402,1.2002-0.7207,1.6797c-0.4795,0.4805-1.04,0.7207-1.6797,0.7207
				c-0.5996,0-1.1201-0.2197-1.5596-0.6602c-3.8008-3.9199-6.7207-7.2197-8.7607-9.9004c-3-3.96-5.3799-8.0996-7.1396-12.4199v17.04
				h7.2598c1.5605,0,2.3398,0.7803,2.3398,2.3398c0,1.5605-0.7793,2.3398-2.3398,2.3398H948.04v10.1406
				c0,1.5596-0.7803,2.3398-2.3398,2.3398c-1.5605,0-2.3398-0.7803-2.3398-2.3398V54.9404h-7.0801
				c-1.5605,0-2.3398-0.7793-2.3398-2.3398c0-1.5596,0.7793-2.3398,2.3398-2.3398h7.0801v-17.04
				c-2.6807,6.5205-7.7607,13.8203-15.2402,21.9004c-0.4404,0.4795-1.041,0.7197-1.7998,0.7197c-0.8809,0-1.5605-0.3799-2.04-1.1396
				v10.3799c0,1.5596-0.7803,2.3398-2.3398,2.3398c-1.5605,0-2.3408-0.7803-2.3408-2.3398V34.4209
				c-1.2803,2.0801-2.4805,3.9404-3.5996,5.5801c-0.4404,0.6807-1.0195,1.0195-1.7402,1.0195c-0.6396,0-1.21-0.2393-1.71-0.7197
				s-0.75-1.0596-0.75-1.7402c0-0.4395,0.1592-0.8994,0.4805-1.3799c2.0791-3.0791,4.2393-6.7998,6.4795-11.1602
				c2.3193-4.5596,4.0801-8.6396,5.2803-12.2393c0.3604-1.04,1.0596-1.5605,2.0996-1.5605c0.6396,0,1.21,0.21,1.71,0.6299
				s0.75,0.9707,0.75,1.6504c0,0.1602-0.04,0.4404-0.1191,0.8398c-1.2412,3.6406-2.6406,7.1201-4.2002,10.4404v26.5195
				c0.0391-0.0801,0.1592-0.2197,0.3594-0.4199c7.6396-7.6396,13.1201-15.54,16.4404-23.7002h-12.4805
				c-1.5596,0-2.3398-0.7803-2.3398-2.3398s0.7803-2.3398,2.3398-2.3398h14.7607v-8.7002c0-1.5596,0.7793-2.3398,2.3398-2.3398
				c1.5596,0,2.3398,0.7803,2.3398,2.3398v8.7002h16.4404c1.5596,0,2.3398,0.7803,2.3398,2.3398s-0.7803,2.3398-2.3398,2.3398
				h-14.2803c3.0391,8.2002,8.6787,16.1611,16.9199,23.8799C967.6396,52.541,967.9004,53.1211,967.9004,53.8008z"/>
			<path class="st0" d="M978.0996,48.9404c-0.04,5.4004-0.6807,10.1611-1.9199,14.2803c-0.2803,0.9199-0.8799,1.3799-1.7998,1.3799
				c-0.5605,0-1.0498-0.1709-1.4697-0.5098c-0.4199-0.3408-0.6299-0.79-0.6299-1.3496c0-0.1201,0.0391-0.3203,0.1201-0.6006
				c1.4395-4.9199,2.1992-9.3389,2.2793-13.2598c0.04-1.2002,0.6006-1.7998,1.6807-1.7998
				C977.5195,47.0811,978.0996,47.7012,978.0996,48.9404z M997.5996,16.3008c0,1.3604-0.7197,2.04-2.1592,2.04h-6.7207v4.3203
				h5.8203c1.4404,0,2.1602,0.6592,2.1602,1.9795s-0.7197,1.9805-2.1602,1.9805h-5.8203v4.6797h5.8203
				c1.4404,0,2.1602,0.6807,2.1602,2.04c0,1.3203-0.7197,1.9795-2.1602,1.9795h-5.8203v4.8604h6.1807
				c1.4395,0,2.1592,0.7197,2.1592,2.1602v2.2197c0,5.9209-0.3799,11.3203-1.1396,16.2002c-0.6406,3.999-2.9199,6-6.8398,6
				c-0.7607,0-1.6406-0.0811-2.6396-0.2402c-1.2002-0.2002-1.8008-0.9199-1.8008-2.1602c0-1.5986,0.7207-2.3994,2.1602-2.3994
				h0.4199c1,0.2002,1.7002,0.2998,2.1006,0.2998c1.5596,0,2.4795-0.6797,2.7598-2.04c0.2402-1.0801,0.4199-2.5801,0.54-4.5
				c-0.2402,0.2012-0.5605,0.2998-0.96,0.2998c-0.6807,0-1.1006-0.3994-1.2598-1.2002c-0.041-0.2393-0.5811-2.2988-1.6201-6.1797
				c-0.0811-0.3193-0.1201-0.5791-0.1201-0.7803c0-1.1592,0.5-1.7393,1.5-1.7393c0.7197,0,1.2002,0.4795,1.4395,1.4395
				c0.3994,1.1611,0.8408,2.9609,1.3203,5.4004c0.1201-2.8398,0.1797-5.5996,0.1797-8.2803v-0.4199h-15.8398
				c-1.4395,0-2.1602-0.7197-2.1602-2.1602V16.4805c0-1.4395,0.7207-2.1602,2.1602-2.1602h18.1807
				C996.8799,14.3203,997.5996,14.9805,997.5996,16.3008z M984.7598,22.6611v-4.3203h-5.5801v4.3203H984.7598z M984.7598,31.3008
				v-4.6797h-5.5801v4.6797H984.7598z M984.7598,40.1807v-4.8604h-5.5801v4.8604H984.7598z M983.0801,58.1211
				c0,0.96-0.0205,1.6602-0.0605,2.0996c0,1.2402-0.5605,1.8604-1.6797,1.8604c-1.0801,0-1.6201-0.6396-1.6201-1.9199V57.041
				c0-1.0801,0-2.54,0-4.3799c-0.04-1.8398-0.0596-2.96-0.0596-3.3604V49.001c0-1.3203,0.54-1.9805,1.6201-1.9805
				c0.96,0,1.4395,0.6006,1.4395,1.7998C982.96,50.0205,983.0801,53.1211,983.0801,58.1211z M988.6602,57.5205
				c0,1.2402-0.5205,1.8604-1.5605,1.8604c-1,0-1.54-0.5996-1.6191-1.7998c-0.0811-1-0.501-3.8604-1.2607-8.5801
				c-0.04-0.1201-0.0596-0.2793-0.0596-0.4805c0-1.1592,0.5-1.7393,1.5-1.7393c0.8398,0,1.3398,0.5195,1.5,1.5596
				c0-0.0801,0.2188,0.9404,0.6602,3.0596c0.4395,2.2803,0.7197,4.2607,0.8398,5.9404
				C988.6602,57.3809,988.6602,57.4414,988.6602,57.5205z M1027.6602,64.9609c0,0.5996-0.21,1.1299-0.6299,1.5898
				c-0.4199,0.459-0.9307,0.6904-1.5303,0.6904c-0.3203,0-0.6807-0.1006-1.0801-0.3008c-1.6406-1.04-3.2002-2.2002-4.6797-3.4795
				c-3.4404-3.0391-6.0811-6.3994-7.9199-10.0801c-2.4805,5.9199-6.8203,10.5-13.0205,13.7402
				c-0.4004,0.1992-0.7598,0.2998-1.0801,0.2998c-0.6396,0-1.1904-0.25-1.6494-0.75c-0.4609-0.501-0.6904-1.0498-0.6904-1.6504
				c0-0.7598,0.3799-1.3408,1.1396-1.7393c1.8008-0.9199,3.4209-1.9805,4.8604-3.1807c3.4805-2.8799,5.8398-6.2402,7.0801-10.0801
				h-7.2002c-1.4395,0-2.1602-0.7197-2.1602-2.1602V35.6807c0-1.4395,0.7207-2.1602,2.1602-2.1602h8.2207v-4.2598h-4.9209
				c-1.4395,0-2.1592-0.7197-2.1592-2.1602l-2.7002,2.2197c-0.4404,0.3604-0.9004,0.54-1.3799,0.54
				c-0.5605,0-1.0605-0.2295-1.5-0.6895c-0.4414-0.46-0.6602-0.9902-0.6602-1.5898c0-0.6396,0.2793-1.1797,0.8398-1.6201
				c5.5996-4.5195,9.6992-8.6602,12.2998-12.4199c0.4395-0.6396,1.0996-0.96,1.9805-0.96c0.8789,0,1.5791,0.2998,2.0996,0.8994
				c4.04,4.5605,8.4199,8.46,13.1396,11.7002c0.6797,0.4805,1.0205,1.0801,1.0205,1.7998c0,0.6006-0.21,1.1309-0.6299,1.5898
				c-0.4199,0.4609-0.9102,0.6904-1.4697,0.6904c-0.4414,0-0.8408-0.1201-1.2002-0.3604c-1.2402-0.7988-2.5605-1.7393-3.96-2.8193
				c0.1592,0.4004,0.2393,0.7402,0.2393,1.0195c0,1.4404-0.7197,2.1602-2.1592,2.1602h-4.5605v4.2598h9.4199
				c1.4404,0,2.1602,0.7207,2.1602,2.1602v12.1797c0,1.4404-0.7197,2.1602-2.1602,2.1602H1015
				c2.0791,5.2803,5.8994,9.6406,11.46,13.0801C1027.2598,63.5,1027.6602,64.1211,1027.6602,64.9609z M1009.4805,43.3604v-5.5195
				h-6.8408v7.8604h6.7207C1009.4395,45.1816,1009.4805,44.4014,1009.4805,43.3604z M1018.96,25.001
				c-2.7998-2.2803-5.3203-4.7402-7.5596-7.3799c-2.0811,2.7207-4.3008,5.1602-6.6602,7.3193h13.6201
				C1018.6396,24.9404,1018.8398,24.9609,1018.96,25.001z M1021.0596,45.7012v-7.8604h-7.2598v6.6602
				c0,0.2402,0.04,0.6396,0.1201,1.2002H1021.0596z"/>
		</g>
	</g>
</g>
</svg>
