<?xml version="1.0" encoding="utf-8"?>
<!-- Generator: Adobe Illustrator 25.2.1, SVG Export Plug-In . SVG Version: 6.00 Build 0)  -->
<svg version="1.1" id="レイヤー_1" xmlns="http://www.w3.org/2000/svg" xmlns:xlink="http://www.w3.org/1999/xlink" x="0px"
	 y="0px" viewBox="0 0 1040 80" style="enable-background:new 0 0 1040 80;" xml:space="preserve">
<style type="text/css">
	.st0{fill:#1E1E28;}
</style>
<g>
	<g>
		<g>
			<path class="st0" d="M35.5,47.501c0,1.3193-0.6602,1.9795-1.9805,1.9795c-0.5996,0-1.1006-0.1992-1.5-0.5996
				c-1.7598-1.7598-3.5195-3.6797-5.2793-5.7598v21.54c0,1.3594-0.6602,2.04-1.9805,2.04c-1.3604,0-2.04-0.6602-2.04-1.9805V44.5605
				c-2,2.3613-4.1602,4.6406-6.4795,6.8398c-0.4404,0.4004-0.9209,0.6006-1.4404,0.6006c-0.5605,0-1.04-0.2002-1.4395-0.6006
				c-0.4004-0.3994-0.6006-0.8789-0.6006-1.4395c0-0.6006,0.2197-1.0996,0.6602-1.5C20.5,41.8604,25.6201,35.2607,28.7803,28.6611
				c0.2393-0.5195,0.2598-0.9395,0.0596-1.2607c-0.2002-0.2793-0.5801-0.4199-1.1396-0.4199H15.46
				c-1.2402,0-1.8604-0.6387-1.8604-1.9199c0-1.2393,0.6201-1.8594,1.8604-1.8594h6.6602v-7.3203
				c0-0.5596,0.1992-1.0498,0.5996-1.4697c0.3994-0.4199,0.8799-0.6299,1.4404-0.6299c0.5596,0,1.0391,0.21,1.4395,0.6299
				c0.3994,0.4199,0.6006,0.9102,0.6006,1.4697v7.3203h3.3594c2.7197,0,4.0801,1.0596,4.0801,3.1797
				c0,0.5996-0.1797,1.2803-0.54,2.04c-1.3193,2.7998-3.2002,6.0801-5.6396,9.8398c2.5596,3,5.04,5.6006,7.4404,7.7998
				C35.2998,46.4209,35.5,46.9004,35.5,47.501z M65.2598,47.8008c0,3.4004-1.7002,5.0996-5.0996,5.0996h-6.96v11.7002
				c0,0.5596-0.2012,1.04-0.6006,1.4404c-0.4004,0.3994-0.8799,0.5996-1.4395,0.5996c-0.5605,0-1.0498-0.2002-1.4697-0.5996
				c-0.4209-0.4004-0.6309-0.8809-0.6309-1.4404V52.9004h-6.4795c-3.4004,0-5.0996-1.6992-5.0996-5.0996V27.9404
				c0-3.3994,1.6992-5.0996,5.0996-5.0996h6.4795v-7.0205c0-0.5596,0.21-1.0391,0.6309-1.4395
				c0.4199-0.3994,0.9092-0.5996,1.4697-0.5996c0.5596,0,1.0391,0.2002,1.4395,0.5996c0.3994,0.4004,0.6006,0.8799,0.6006,1.4395
				v7.0205h6.96c3.3994,0,5.0996,1.7002,5.0996,5.0996V47.8008z M49.1201,35.7412v-9h-5.4004c-1.5596,0-2.3398,0.7793-2.3398,2.3398
				v6.6602H49.1201z M49.1201,49.001v-9.54h-7.7402v7.2002c0,1.5596,0.7803,2.3398,2.3398,2.3398H49.1201z M61.2998,35.7412v-6.6602
				c0-1.5605-0.7803-2.3398-2.3398-2.3398h-5.8799v9H61.2998z M61.2998,46.6611v-7.2002h-8.2197v9.54H58.96
				C60.5195,49.001,61.2998,48.2207,61.2998,46.6611z"/>
			<path class="st0" d="M94.0596,30.2812c0,1.2803-0.6201,1.9199-1.8594,1.9199h-6.0605v1.8594
				c2,3.8809,4.0996,7.2812,6.3008,10.2002c0.2393,0.3203,0.3594,0.6807,0.3594,1.0801c0,1.2002-0.5801,1.7998-1.7402,1.7998
				c-0.6396,0-1.2998-0.4795-1.9795-1.4395c-0.6807-1.1602-1.6602-2.9404-2.9404-5.3408V64.541
				c0,1.3193-0.6396,1.9795-1.9199,1.9795c-1.3193,0-1.9795-0.6602-1.9795-1.9795V40.8408
				c-1.5605,4.1201-3.4609,7.8604-5.7002,11.2197c-0.4004,0.6006-0.9404,0.9004-1.6201,0.9004
				c-1.2803,0-1.9199-0.6201-1.9199-1.8604c0-0.2402,0.1201-0.5996,0.3604-1.0801c3.999-5.6787,6.96-11.3789,8.8799-17.0996v-0.7197
				h-6.8398c-1.2812,0-1.9199-0.6396-1.9199-1.9199c0-1.2402,0.6387-1.8604,1.9199-1.8604h6.8398v-7.9805
				c-1.6006,0.2803-3.5605,0.5811-5.8799,0.9004c-0.5605,0.0811-1.0508-0.0693-1.4707-0.4502
				c-0.4199-0.3799-0.6299-0.8496-0.6299-1.4102c0-1.1191,0.5596-1.7393,1.6807-1.8594c5.3994-0.6396,10.1592-1.6807,14.2793-3.1201
				c0.6006-0.2002,1.1602-0.1104,1.6807,0.2695c0.5186,0.3809,0.7793,0.8906,0.7793,1.5303c0,0.9209-0.4199,1.5205-1.2598,1.7998
				c-1.9199,0.6406-3.6807,1.1406-5.2803,1.5v8.8203h6.0605C93.4395,28.4209,94.0596,29.041,94.0596,30.2812z M100.2402,34.4209
				c-0.8398,5.7598-2.1807,11.3203-4.0205,16.6797c-0.3203,0.96-0.9404,1.4404-1.8594,1.4404c-0.6807,0-1.2207-0.29-1.6201-0.8701
				c-0.4004-0.5791-0.4805-1.1895-0.2402-1.8301c1.8398-4.7197,3.1592-10.0205,3.96-15.9004
				c0.1592-1.1191,0.7998-1.6797,1.9199-1.6797c0.5596,0,1.0293,0.2207,1.4102,0.6602
				C100.1699,33.3613,100.3193,33.8613,100.2402,34.4209z M122.8604,54.041c-0.0811,4.2002-0.4609,6.9199-1.1406,8.1602
				c-1.04,1.999-3.3594,3-6.96,3H109.96c-2.5605,0-4.2295-0.4004-5.0098-1.2002c-0.7803-0.8008-1.1699-2.4795-1.1699-5.04v-0.9004
				c-2.4004,2.3203-5.1006,4.4805-8.1006,6.4805c-0.3594,0.2402-0.7402,0.3594-1.1396,0.3594c-0.5605,0-1.041-0.2002-1.4404-0.5996
				C92.6992,63.9004,92.5,63.4209,92.5,62.8604c0-0.7588,0.3193-1.3389,0.96-1.7393c3.8398-2.3604,7.2793-5.2207,10.3203-8.5801
				V28.9609c0-0.5596,0.1992-1.04,0.5996-1.4404c0.3994-0.3994,0.8799-0.5996,1.4404-0.5996c0.5596,0,1.0498,0.2002,1.4697,0.5996
				c0.4199,0.4004,0.6299,0.8809,0.6299,1.4404v18.3594c5.1602-7.5195,8.7998-16.8389,10.9199-27.96
				c0.2002-1.0791,0.8594-1.6191,1.9805-1.6191c0.6797,0,1.209,0.25,1.5898,0.75c0.3799,0.5,0.5098,1.0703,0.3896,1.71
				c-2.7998,13.4004-7.7607,24.5-14.8799,33.2998v4.3799c0,1.4395,0.2002,2.3604,0.5996,2.7598
				c0.3994,0.4004,1.3203,0.6006,2.7607,0.6006h2.7002c2.2793,0,3.6992-0.6797,4.2598-2.04
				c0.2793-0.6006,0.4395-2.3604,0.4795-5.2803c0.04-1.3203,0.7207-1.9805,2.04-1.9805c0.5596,0,1.0498,0.21,1.4707,0.6299
				C122.6504,52.9912,122.8604,53.4814,122.8604,54.041z M113.5596,22.1211c0,1.4395-0.7002,2.1602-2.0996,2.1602
				c-0.4004,0-0.7607-0.0996-1.0801-0.3008c-2.9199-1.8789-5.8604-3.459-8.8203-4.7393c-0.7998-0.3604-1.1992-1-1.1992-1.9209
				c0-0.7988,0.2891-1.3887,0.8701-1.7695c0.5791-0.3799,1.2295-0.4102,1.9492-0.0898c3.3994,1.5205,6.5195,3.1201,9.3604,4.7998
				C113.2197,20.6611,113.5596,21.2812,113.5596,22.1211z M128.0195,47.4404c0.2402,0.6807,0.1602,1.3008-0.2393,1.8604
				c-0.4004,0.5605-0.96,0.8398-1.6807,0.8398c-0.96,0-1.5801-0.459-1.8594-1.3799c-1.1201-3.6396-2.6611-7.3203-4.6201-11.04
				c-0.1602-0.3193-0.2402-0.6396-0.2402-0.96c0-1.3203,0.6602-1.9795,1.9805-1.9795c0.8398,0,1.4395,0.3594,1.7998,1.0791
				C125.04,39.4609,126.6602,43.3213,128.0195,47.4404z"/>
			<path class="st0" d="M156.46,57.1006c0,3.4004-1.7002,5.1006-5.0996,5.1006H141.04c-3.4004,0-5.0996-1.7002-5.0996-5.1006
				V28.7812c0-3.3994,1.6992-5.1006,5.0996-5.1006h1.9795c0.7207-1.9199,1.4795-4.6201,2.2803-8.0996
				c0.2402-1.0801,0.9199-1.6201,2.04-1.6201c0.7197,0,1.29,0.2803,1.71,0.8398c0.4199,0.5605,0.5303,1.1807,0.3301,1.8604
				c-0.8398,3.04-1.54,5.3799-2.0996,7.0195h4.0801c3.3994,0,5.0996,1.7012,5.0996,5.1006V57.1006z M152.3799,40.4805v-10.5
				c0-1.5986-0.8008-2.3994-2.3994-2.3994H142.54c-1.6006,0-2.4004,0.8008-2.4004,2.3994v10.5H152.3799z M152.3799,55.7812V44.3809
				h-12.2402v11.4004c0,1.5996,0.7998,2.3994,2.4004,2.3994h7.4404C151.5791,58.1807,152.3799,57.3809,152.3799,55.7812z
				 M185.0195,38.8008c0,8.7207-0.2393,14.6006-0.7197,17.6396c-0.5605,3.6807-1.6201,6.0811-3.1797,7.2002
				c-1.2002,0.8799-3.5205,1.3203-6.96,1.3203h-3.4805c-1.3193,0-1.9795-0.6807-1.9795-2.04s0.6602-2.04,1.9795-2.04h3.1807
				c2.3193,0,3.8594-0.3604,4.6201-1.0801c1.1992-1.1602,1.9395-4.6396,2.2197-10.4404c0.0791-1.1992,0.1201-4.8594,0.1201-10.9795
				v-7.9199c0-2.1992-1.1006-3.2998-3.3008-3.2998h-12.1797c-1.0801,2.5596-2.6006,5.3994-4.5596,8.5195
				c-0.4004,0.6406-0.96,0.96-1.6807,0.96c-1.3193,0-1.9795-0.6602-1.9795-1.9795c0-0.3604,0.0996-0.7002,0.2998-1.0205
				c3.4805-5.6797,6.0996-11.6592,7.8604-17.9395c0.2793-1.04,0.96-1.5605,2.04-1.5605c0.7588,0,1.3193,0.2705,1.6797,0.8105
				s0.4395,1.1699,0.2402,1.8896c-0.6406,2.2803-1.3799,4.4004-2.2207,6.3604h11.7002c4.2002,0,6.2998,2.0996,6.2998,6.2998V38.8008
				z M173.5,45.7607c0.3193,0.6807,0.29,1.3301-0.0898,1.9502c-0.3809,0.6201-0.9512,0.9297-1.71,0.9297
				c-0.8398,0-1.4404-0.4199-1.7998-1.2598c-1.0801-2.4395-2.7607-5.4795-5.04-9.1201c-0.1611-0.2402-0.2402-0.5791-0.2402-1.0195
				c0-1.2803,0.6602-1.9209,1.9795-1.9209c0.6797,0,1.2197,0.3008,1.6201,0.9004C170.1396,39.2607,171.8994,42.4414,173.5,45.7607z"
				/>
			<path class="st0" d="M236.6201,23.3203c0,0.5615-0.2012,1.041-0.6006,1.4404c-0.3994,0.4004-0.8799,0.5996-1.4395,0.5996
				c-7.96,0-16.3203,0.1201-25.0801,0.3604c-3.5605,10.3604-6.5996,20.6201-9.1201,30.7803
				c-0.2803,1.0801-0.9805,1.6201-2.0996,1.6201c-0.6006,0-1.1201-0.2197-1.5605-0.6602c-0.4404-0.4395-0.6602-0.96-0.6602-1.5605
				c0-0.1992,0.0205-0.3789,0.0605-0.54c2.5596-9.8398,5.499-19.6797,8.8203-29.5195l-6.4805,0.2402
				c-0.5996,0.04-1.1104-0.1396-1.5303-0.54c-0.4199-0.3994-0.6299-0.9004-0.6299-1.5c0-1.3203,0.6602-2,1.9805-2.04
				c0.4395,0,3.1396-0.0801,8.0996-0.2402c0.6006-1.6797,1.2393-3.4395,1.9199-5.2803c0.3604-0.9189,1.0205-1.3799,1.9805-1.3799
				c0.5996,0,1.0996,0.21,1.5,0.6299c0.3994,0.4199,0.5996,0.9102,0.5996,1.4707c0,0.2803-0.04,0.54-0.1201,0.7793
				c-0.04,0.0811-0.4795,1.3008-1.3193,3.6602c9.6387-0.2402,17.5195-0.3594,23.6396-0.3594c0.5596,0,1.04,0.2002,1.4395,0.5996
				C236.4189,22.2812,236.6201,22.7607,236.6201,23.3203z M245.3203,51.2812c0,1.4395-0.7207,2.1592-2.1602,2.1592
				c-0.4404,0-0.8203-0.0986-1.1406-0.2998c-1.4795-0.96-2.9199-1.8389-4.3193-2.6396c-0.04,4.2002-1.0801,7.5596-3.1201,10.0801
				c-2.4404,3.0391-6.1602,4.5596-11.1602,4.5596c-3.8398,0-7.1006-0.96-9.7803-2.8799c-2.8799-2.0791-4.3193-4.8389-4.3193-8.2803
				c0-3.3994,1.3096-6.1396,3.9297-8.2197c2.6191-2.0791,6.1699-3.1201,10.6504-3.1201c3.2393,0,6.3994,0.4805,9.4795,1.4404
				c-0.1201-3.5596-0.2998-6.6006-0.54-9.1201c-5.8799,0.04-10.3799,0.1201-13.5,0.2402c-0.5205,0-0.9805-0.1807-1.3799-0.54
				c-0.4004-0.3604-0.5996-0.8193-0.5996-1.3799c0-1.2002,0.5996-1.8203,1.7998-1.8604c8.7598-0.2402,16.4189-0.3799,22.9795-0.4199
				c0.5596,0,1.0293,0.1904,1.4102,0.5693c0.3799,0.3809,0.5703,0.8506,0.5703,1.4102c0,0.5205-0.2012,0.9707-0.6006,1.3506
				s-0.8604,0.5693-1.3799,0.5693c-0.5605,0-1.4004,0-2.5195,0c-1.2402,0.041-2.0801,0.0605-2.5205,0.0605
				c0.3203,3.5205,0.5195,7.1201,0.6006,10.7998c2.2393,1,4.4395,2.2197,6.5996,3.6602
				C244.9795,49.8613,245.3203,50.4814,245.3203,51.2812z M233.5,50.2607v-1.7998c-3.3604-1.3994-6.5205-2.1006-9.4805-2.1006
				c-3.2803,0-5.8594,0.6904-7.7393,2.0703c-1.8809,1.3799-2.8203,3.1709-2.8203,5.3701c0,2.2803,1.04,4.0801,3.1201,5.4004
				c1.8389,1.1992,4.1191,1.7998,6.8398,1.7998c3.5195,0,6.1592-1.1602,7.9199-3.4805C232.7803,55.6006,233.5,53.1807,233.5,50.2607
				z"/>
			<path class="st0" d="M298.54,59.2607c0.0801,0.2803,0.1201,0.5605,0.1201,0.8398c0,0.6406-0.2402,1.2109-0.7197,1.71
				c-0.4805,0.501-1.0801,0.75-1.8008,0.75c-1.1602,0-1.9404-0.54-2.3398-1.6201l-4.0195-11.1592h-19.9199l-3.7803,11.0996
				c-0.4004,1.1201-1.1611,1.6797-2.2803,1.6797c-0.6807,0-1.2598-0.2402-1.7402-0.7197c-0.4795-0.4805-0.7197-1.0596-0.7197-1.7402
				c0-0.2402,0.0391-0.499,0.1201-0.7803l13.3203-37.7393c0.999-2.7998,2.6396-4.2002,4.9199-4.2002
				c2.2393,0,3.8594,1.3604,4.8594,4.0801L298.54,59.2607z M288.2197,45.3408l-7.7998-21.7197
				c-0.2002-0.5195-0.46-0.7803-0.7803-0.7803c-0.3594,0-0.6201,0.2607-0.7793,0.7803l-7.4404,21.7197H288.2197z"/>
			<path class="st0" d="M357.3398,59.0811c0.1201,0.3203,0.1797,0.6396,0.1797,0.96c0,0.6807-0.25,1.2803-0.75,1.7998
				c-0.5,0.5205-1.1299,0.7803-1.8896,0.7803c-1.1602,0-1.96-0.54-2.3994-1.6201l-5.1006-13.0801
				c-1.4805-3.8398-4.2598-5.7598-8.3398-5.7598h-9.8398v17.9395c0,0.6807-0.251,1.2812-0.75,1.7998
				c-0.501,0.5205-1.0908,0.7803-1.7705,0.7803c-0.7197,0-1.3301-0.2598-1.8301-0.7803c-0.5-0.5186-0.75-1.1191-0.75-1.7998V23.2607
				c0-3.5996,1.8008-5.4004,5.4004-5.4004h14.1602c3.96,0,7.1191,0.9004,9.4795,2.7002c2.7197,2.04,4.0801,5.0801,4.0801,9.1201
				c0,3.1602-0.9199,5.7598-2.7598,7.7998c-1.6797,1.8408-3.9404,3.041-6.7803,3.6006c2.1602,1.1602,3.7598,3.04,4.8008,5.6396
				L357.3398,59.0811z M352,29.8604c0-2.3594-0.7803-4.1992-2.3398-5.5195c-1.5605-1.3203-3.7607-1.9805-6.6006-1.9805h-11.6396
				c-1.4805,0-2.2197,0.7412-2.2197,2.2207v13.2002h13.6201c2.8398,0,5.0791-0.7207,6.7197-2.1602
				C351.1797,34.1807,352,32.2607,352,29.8604z"/>
			<path class="st0" d="M385.96,40.3604c0,0.6406-0.2305,1.2002-0.6904,1.6807c-0.46,0.4795-1.0303,0.7197-1.71,0.7197
				c-1.1992,0-1.96-0.5996-2.2793-1.7998c-1.4805-5.7998-3.1807-12.0391-5.1006-18.7197c-0.0801-0.2002-0.1201-0.4209-0.1201-0.6602
				c0-0.6396,0.2402-1.2002,0.7207-1.6807c0.4795-0.4795,1.0596-0.7197,1.7393-0.7197c1.2002,0,1.96,0.5801,2.2803,1.7402
				C384.2393,33.5205,385.96,40.001,385.96,40.3604z M402.46,36.8809c0.1592,0.7197,0,1.3604-0.4795,1.9199
				c-0.4805,0.5605-1.1016,0.8398-1.8604,0.8398c-1.2402,0-1.9805-0.6191-2.2197-1.8594c-1.4805-7.1201-2.8008-13.2402-3.96-18.3604
				c-0.1611-0.7197,0-1.3799,0.4795-1.9805c0.4805-0.5996,1.0801-0.8994,1.7998-0.8994c1.2803,0,2.0596,0.6201,2.3398,1.8594
				C399.8799,24.4004,401.1797,30.5615,402.46,36.8809z M424.54,25.1211c0,0.4004-0.1006,0.7793-0.2998,1.1396
				c-8.001,14.9609-14.3613,27.2998-19.0801,37.0205c-0.4404,0.9189-1.1611,1.3799-2.1602,1.3799
				c-0.6406,0-1.2002-0.2314-1.6797-0.6904c-0.4805-0.46-0.7207-1.0303-0.7207-1.71c0-0.3994,0.0801-0.7598,0.2402-1.0801
				c2.7598-5.7197,9.1396-18.1201,19.1406-37.2002c0.4395-0.8398,1.1396-1.2598,2.0996-1.2598c0.6797,0,1.2598,0.2305,1.7402,0.6904
				C424.2998,23.8711,424.54,24.4414,424.54,25.1211z"/>
			<path class="st0" d="M484.2998,26.4404c0,6.1611-6.5205,12.7002-19.5596,19.6201c-0.3213,0.1602-0.6807,0.2402-1.0801,0.2402
				c-0.6006,0-1.1201-0.2197-1.5605-0.6602c-0.4404-0.4395-0.6592-0.96-0.6592-1.5596c0-0.8799,0.3994-1.5195,1.1992-1.9199
				c4.4004-2.2803,8.0596-4.6396,10.9805-7.0801c3.5996-3,5.3994-5.6201,5.3994-7.8604c0-3.4795-3.0801-5.2197-9.2393-5.2197
				c-8.1211,0-18.2998,0.6201-30.54,1.8594c-0.6807,0.0811-1.29-0.1191-1.8301-0.5996c-0.54-0.4795-0.8105-1.0596-0.8105-1.7402
				c0-1.4395,0.7207-2.2197,2.1602-2.3398c13.04-1.1592,23.7002-1.7402,31.9805-1.7402c4.2793,0,7.6094,0.7705,9.9902,2.3105
				C483.1094,21.291,484.2998,23.5215,484.2998,26.4404z M459.8203,34.3604c-2.7607,9.4414-5.1406,18.8809-7.1406,28.3203
				c-0.2803,1.2393-1.0801,1.8604-2.3994,1.8604c-0.7607,0-1.3799-0.291-1.8604-0.8701c-0.4795-0.5801-0.6406-1.25-0.4795-2.0098
				c1.5596-6.96,4.0195-16.4795,7.3799-28.5605c0.3193-1.1592,1.0586-1.7402,2.2197-1.7402c0.6396,0,1.1895,0.2402,1.6504,0.7207
				c0.459,0.4795,0.6895,1.04,0.6895,1.6797C459.8799,33.9609,459.8594,34.1611,459.8203,34.3604z"/>
			<path class="st0" d="M544.1201,37.2412c0,0.6396-0.2207,1.1904-0.6602,1.6494c-0.4404,0.4609-0.9805,0.6904-1.6201,0.6904
				c-18.2402,0-32.5605,0.2803-42.96,0.8398c-0.6406,0.04-1.2002-0.1699-1.6797-0.6299c-0.4805-0.46-0.7197-1.0098-0.7197-1.6504
				c0-1.5195,0.7197-2.2998,2.1592-2.3398c14.5205-0.5996,28.8994-0.9004,43.1406-0.9004c0.6387,0,1.1895,0.2314,1.6494,0.6904
				C543.8896,36.0508,544.1201,36.6016,544.1201,37.2412z"/>
			<path class="st0" d="M602.9199,20.7412c0,1.3604-0.6201,2.1201-1.8604,2.2793c-6.6807,0.96-12.7002,3.54-18.0596,7.7402
				c-5.6396,4.4805-8.46,9.3408-8.46,14.5801c0,8.2402,6.2402,12.7607,18.7197,13.5596c0.6006,0.041,1.1104,0.291,1.5303,0.75
				c0.4199,0.4609,0.6299,0.9902,0.6299,1.5908c0,0.6807-0.25,1.25-0.75,1.71c-0.501,0.459-1.0898,0.6689-1.7695,0.6299
				c-15.4004-1.04-23.1006-7-23.1006-17.8799c0-4.5605,1.8203-8.96,5.46-13.2002c3.4395-4.04,7.8799-7.2197,13.3203-9.54
				c-8.4805,0.3594-18.0205,0.8799-28.6201,1.5596c-0.6807,0.041-1.2598-0.1689-1.7402-0.6299
				c-0.4795-0.459-0.7197-1.0098-0.7197-1.6494c0-1.4404,0.7393-2.2002,2.2197-2.2803c15.7598-0.96,29.3799-1.4795,40.8604-1.5605
				c0.6396,0,1.1895,0.2314,1.6504,0.6904C602.6895,19.5508,602.9199,20.1016,602.9199,20.7412z M598.96,29.5605
				c-0.7197,2.8799-1.3408,5.501-1.8604,7.8604c-0.2002,0.9209-0.7793,1.3799-1.7393,1.3799c-0.5205,0-0.96-0.21-1.3203-0.6299
				s-0.4805-0.8896-0.3604-1.4102c0.3994-1.9199,1.0205-4.5801,1.8604-7.9795c0.2402-0.9199,0.8193-1.3809,1.7402-1.3809
				c0.5596,0,1.0098,0.2207,1.3496,0.6602C598.9697,28.501,599.0801,29.001,598.96,29.5605z M606.5195,29.5605
				c-0.4404,1.7998-1.0791,4.4209-1.9199,7.8604c-0.2002,0.9209-0.7598,1.3799-1.6797,1.3799c-0.5205,0-0.96-0.21-1.3203-0.6299
				c-0.3594-0.4199-0.4795-0.8896-0.3594-1.4102c0.5596-2.7197,1.1592-5.3789,1.7998-7.9795
				c0.2402-0.9199,0.8398-1.3809,1.7998-1.3809c0.5596,0,1.0098,0.2207,1.3506,0.6602
				C606.5293,28.501,606.6396,29.001,606.5195,29.5605z"/>
			<path class="st0" d="M656.5,48.5205c0,4.6406-1.5811,8.2207-4.7402,10.7402c-2.9199,2.2803-6.8008,3.4199-11.6396,3.4199
				c-5.6396,0-10.3008-1.46-13.9805-4.3799c-0.5996-0.4805-0.8994-1.1191-0.8994-1.9199c0-0.7197,0.249-1.3291,0.75-1.8301
				c0.499-0.5,1.1094-0.75,1.8301-0.75c0.5996,0,1.1787,0.2207,1.7393,0.6602c3.2002,2.5605,6.6396,3.8398,10.3203,3.8398
				c3.6006,0,6.4297-0.8896,8.4902-2.6699c2.0596-1.7793,3.0898-4.1494,3.0898-7.1104c0-2.6396-0.9102-4.71-2.7295-6.21
				c-1.8213-1.5-4.2705-2.25-7.3506-2.25c-3.6406,0-6.7002,0.9404-9.1797,2.8203c-1.3604,1.041-2.541,1.5205-3.54,1.4395
				c-2.04-0.1592-2.9609-1.3994-2.7598-3.7197l1.6191-17.2197c0.3203-3.3994,2.2002-5.0996,5.6406-5.0996h19.5596
				c0.6006,0,1.1299,0.2197,1.5898,0.6592c0.46,0.4414,0.6904,0.96,0.6904,1.5605c0,0.6396-0.2207,1.1797-0.6602,1.6201
				c-0.4404,0.4404-0.9805,0.6602-1.6201,0.6602h-18.0596c-1.4404,0-2.2412,0.7197-2.4004,2.1592l-1.4395,13.6201
				c0,0.1602,0.0195,0.2607,0.0596,0.2998c0.0801,0.041,0.1797,0.0215,0.2998-0.0596c3.1602-2.0791,6.8799-3.1201,11.1602-3.1201
				c4.1191,0,7.5098,1.1611,10.1699,3.4805C655.1699,41.4814,656.5,44.6016,656.5,48.5205z"/>
			<path class="st0" d="M727.3604,42.1006c0,1.1611-0.5811,1.7402-1.7402,1.7402h-42.7197v1.6797
				c0,1.4404,0.7197,2.1602,2.1592,2.1602h34.1406c3.3994,0,5.0996,1.7012,5.0996,5.1006v3.7197
				c0,3.7197-0.5801,6.2607-1.7402,7.6201c-1.2402,1.5195-3.7002,2.2793-7.3799,2.2793h-3.1201c-0.5605,0-1.04-0.2002-1.4395-0.5996
				c-0.4004-0.4004-0.6006-0.8799-0.6006-1.4404c0-1.3193,0.6797-1.9795,2.04-1.9795h2.6406c2.3594,0,3.8789-0.5195,4.5596-1.5605
				c0.4805-0.7588,0.7207-2.2988,0.7207-4.6191V53.501c0-1.5996-0.8008-2.4004-2.4004-2.4004h-22.2002v7.9805h9.2402
				c1.4395,0,2.1602-0.7207,2.1602-2.1602v-2.2197c0-0.5605,0.21-1.0508,0.6299-1.4707s0.9092-0.6299,1.4697-0.6299
				c0.5596,0,1.04,0.21,1.4404,0.6299c0.3994,0.4199,0.5996,0.9102,0.5996,1.4707v3.4199c0,3.1201-1.6006,4.6797-4.7998,4.6797
				H680.5c-3.2002,0-4.7998-1.5996-4.7998-4.7998v-3.2402c0-0.5996,0.21-1.1104,0.6299-1.5303s0.9297-0.6299,1.5303-0.6299
				c0.5996,0,1.1094,0.21,1.5293,0.6299s0.6299,0.9307,0.6299,1.5303v2.1602c0,1.4395,0.7207,2.1602,2.1602,2.1602h8.7607v-7.9805
				h-7.6201c-3.2012,0-4.8008-1.5996-4.8008-4.7998V24.1006c0-3.1992,1.5996-4.7998,4.8008-4.7998h10.1992
				c0.7998-1.5195,1.4795-3.0801,2.04-4.6797c0.3203-0.96,1-1.4404,2.04-1.4404c0.5605,0,1.0596,0.2305,1.5,0.6904
				s0.6602,0.9697,0.6602,1.5293c0,0.2402-0.0596,0.501-0.1797,0.7803c-0.5605,1.3604-1.041,2.4004-1.4404,3.1201H715
				c3.1992,0,4.7998,1.6006,4.7998,4.7998v7.8604c0,3.2002-1.6006,4.7998-4.7998,4.7998h-32.0996v3.54h42.7197
				C726.7793,40.3008,727.3604,40.9004,727.3604,42.1006z M715.4805,26.501v-1.6201c0-1.4404-0.7207-2.1602-2.1602-2.1602h-28.2607
				c-1.4395,0-2.1592,0.7197-2.1592,2.1602v1.6201H715.4805z M715.4805,31.4805v-1.8594h-32.5801v4.0195h30.4199
				C714.7598,33.6406,715.4805,32.9209,715.4805,31.4805z"/>
			<path class="st0" d="M786.5801,62.7412c0,0.5596-0.2012,1.0391-0.5996,1.4395c-0.4004,0.3994-0.8809,0.6006-1.4404,0.6006
				h-28.3203c-2.96,0-5.3398-0.3809-7.1396-1.1406c-2.1211-0.9199-3.8604-2.5391-5.2197-4.8594
				c-1.8008,1.7197-3.9814,3.5801-6.54,5.5791c-0.4004,0.3203-0.8809,0.4805-1.4404,0.4805c-1.4805,0-2.2197-0.7607-2.2197-2.2803
				c0-0.7998,0.3389-1.4395,1.0195-1.9199c3.2402-2.2393,5.7803-4.2598,7.6201-6.0596V42.2812c0-1.4004-0.7002-2.1006-2.0996-2.1006
				h-4.5c-0.5605,0-1.0498-0.2197-1.4697-0.6602c-0.4209-0.4395-0.6309-0.9395-0.6309-1.5c0-0.5596,0.21-1.0498,0.6309-1.4697
				c0.4199-0.4199,0.9092-0.6299,1.4697-0.6299h6.0596c3.2002,0,4.7998,1.6006,4.7998,4.7998v14.04
				c0.7998,2.2803,2.1006,3.8799,3.9004,4.7998c1.4795,0.7607,3.54,1.1406,6.1797,1.1406H784.54c0.5596,0,1.04,0.2002,1.4404,0.5996
				C786.3789,61.7012,786.5801,62.1807,786.5801,62.7412z M746.2598,24.2207c0,1.4805-0.7402,2.2197-2.2197,2.2197
				c-0.6807,0-1.2207-0.2393-1.6201-0.7197c-1.3604-1.5596-3.2607-3.3994-5.7002-5.5195C736.2402,19.8018,736,19.2617,736,18.5811
				c0-0.6006,0.21-1.1104,0.6299-1.5303s0.9297-0.6299,1.5303-0.6299c0.5195,0,0.999,0.1797,1.4395,0.54
				c1.8398,1.4805,3.8408,3.4004,6,5.7598C746.04,23.2012,746.2598,23.7012,746.2598,24.2207z M761.5,18.2207
				c-1.9199,5.5605-4.0801,10.54-6.4805,14.9404c-0.6396,1.1992-0.7002,2.4199-0.1797,3.6592
				c2.7197,6.3213,4.8799,12.0811,6.4805,17.2803c0.1992,0.6807,0.0791,1.3408-0.3604,1.9805
				c-0.4404,0.6396-1.0195,0.96-1.7402,0.96c-1.0801,0-1.7803-0.5195-2.0996-1.5605c-1.7607-5.8398-3.8398-11.5996-6.2402-17.2793
				c-0.5205-1.2402-0.7598-2.3408-0.7197-3.3008c0.0391-0.999,0.3594-2.0791,0.96-3.2393c2.3994-4.6396,4.5-9.6006,6.2998-14.8799
				c0.3193-0.9609,0.999-1.4404,2.04-1.4404c0.5996,0,1.1104,0.21,1.5303,0.6299s0.6299,0.9297,0.6299,1.5303
				C761.6201,17.7412,761.5801,17.9805,761.5,18.2207z M772.7197,52.9609c0.2402,0.7197,0.1504,1.3799-0.2695,1.9795
				c-0.4199,0.6006-1.0107,0.9004-1.7705,0.9004c-1.04,0-1.7197-0.5-2.04-1.5c-1.9199-5.7197-4.0801-11.1396-6.4795-16.2598
				c-0.5605-1.1602-0.8203-2.2803-0.7803-3.3604c0-0.999,0.3398-2.0791,1.0205-3.2402c2.1191-3.7197,4.2793-8.3789,6.4795-13.9795
				c0.3604-0.8799,0.999-1.3203,1.9199-1.3203c0.7598,0,1.3398,0.2998,1.7402,0.9004c0.3994,0.5996,0.459,1.2598,0.1797,1.9795
				c-1.7607,4.5205-3.9805,9.1602-6.6602,13.9199c-0.6807,1.2002-0.7402,2.3809-0.1797,3.54
				C768.6797,42.2412,770.959,47.7207,772.7197,52.9609z M785.9805,53.6211c0.2793,0.7197,0.1885,1.4102-0.2705,2.0693
				c-0.46,0.6602-1.0703,0.9902-1.8301,0.9902c-1,0-1.6797-0.459-2.04-1.3799c-2.2402-5.5996-4.9004-11.2998-7.9795-17.0996
				c-0.6406-1.2002-0.9404-2.3193-0.9004-3.3604c0.0391-1.04,0.3799-2.1201,1.0205-3.2402
				c2.959-5.1992,5.3594-10.0996,7.1992-14.7002c0.3604-0.9189,1.04-1.3799,2.04-1.3799c1.2803,0,2,0.6602,2.1602,1.9805
				c0.0391,0.3203-0.0205,0.6807-0.1797,1.0801c-2.1211,5.2002-4.54,10.0195-7.2598,14.46
				c-0.4004,0.6396-0.6006,1.2998-0.6006,1.9795c0,0.5205,0.1396,1.041,0.4199,1.5605
				C781.1201,42.8203,783.8594,48.501,785.9805,53.6211z"/>
			<path class="st0" d="M821.9805,43.6006c0,0.6006-0.2402,1.1406-0.7207,1.6201c-4.5205,4.3203-8.6396,6.4805-12.3594,6.4805
				c-2.8408,0-5.1211-1.0596-6.8408-3.1807c-1.7998-2.2793-2.6992-5.4795-2.6992-9.5996c0-5.6396,0.9395-12.3994,2.8193-20.2803
				c0.2793-1.2393,1.04-1.8594,2.2803-1.8594c0.6797,0,1.25,0.2393,1.71,0.7197c0.459,0.4795,0.6904,1.04,0.6904,1.6797
				c0,0.2012-0.0205,0.4004-0.0605,0.6006c-1.96,7.6406-2.9395,13.96-2.9395,18.96c0,5.5596,1.7998,8.3398,5.3994,8.3398
				c2.6797,0,5.6797-1.6807,9-5.04c0.4395-0.4395,0.9395-0.6602,1.5-0.6602c0.6006,0,1.1191,0.2207,1.5605,0.6602
				C821.7598,42.4814,821.9805,43.001,821.9805,43.6006z M840.4004,18.8203C840,35.541,836.7998,50.4014,830.7998,63.4004
				c-0.4404,0.96-1.1602,1.4404-2.1602,1.4404c-0.6396,0-1.1904-0.2305-1.6494-0.6904c-0.4609-0.46-0.6904-1.0098-0.6904-1.6494
				c0-0.3604,0.0605-0.6797,0.1807-0.96c5.7598-12.5596,8.8193-26.8594,9.1797-42.9004c0-0.6396,0.2295-1.1797,0.6895-1.6201
				c0.46-0.4395,1.0098-0.6602,1.6504-0.6602c0.6797,0,1.25,0.2402,1.71,0.7207C840.1689,17.5605,840.4004,18.1406,840.4004,18.8203
				z"/>
			<path class="st0" d="M904.5996,31.3604c0,1.2412-0.5801,1.9609-1.7393,2.1602c-8.04,1.4404-14.8008,3.4805-20.2803,6.1201
				c5.0791,2.3203,9.3799,4.9805,12.9004,7.9805c0.5186,0.4404,0.7793,1,0.7793,1.6797c0,0.5996-0.2197,1.1201-0.6602,1.5596
				c-0.4404,0.4414-0.96,0.6602-1.5596,0.6602c-0.5205,0-1-0.1797-1.4404-0.54c-5.04-4.2793-9.8398-7.3193-14.3994-9.1201
				c-6.96,3.5205-10.4404,7.2412-10.4404,11.1602c0,4.6807,5.3193,7.041,15.96,7.0801c3.8799,0,8.6201-0.2598,14.2207-0.7803
				c0.5996-0.0391,1.1396,0.1504,1.6191,0.5703c0.4805,0.4199,0.7207,0.9297,0.7207,1.5303c0,1.3203-0.6406,2.04-1.9199,2.1602
				c-5.5205,0.4795-10.4014,0.7197-14.6406,0.7197c-13.8398,0-20.7598-3.6797-20.7598-11.04c0-4.4795,3.2402-8.8398,9.7197-13.0801
				c-2.6006-0.5596-5.0801-0.8398-7.4395-0.8398c-1.3604,0-2.6006,0.4199-3.7207,1.2598c-0.3594,0.2803-0.7793,0.4199-1.2598,0.4199
				c-0.5996,0-1.1201-0.2295-1.5596-0.6895c-0.4404-0.46-0.6602-0.9902-0.6602-1.5898c0-0.6006,0.1992-1.1201,0.5996-1.5605
				c3.7207-3.9199,7.2197-7.8389,10.5-11.7598c-3,0.04-6.5195,0.1201-10.5596,0.2402c-0.5605,0-1.0498-0.1895-1.4697-0.5703
				c-0.4199-0.3799-0.6299-0.8701-0.6299-1.4697c0-0.5596,0.1992-1.0508,0.5996-1.4707c0.3994-0.4199,0.8789-0.6299,1.4395-0.6299
				c1.6406-0.0391,6.2803-0.1201,13.9209-0.2393c1.6396-1.96,3.1592-3.8604,4.5596-5.7002c0.4395-0.6006,1.04-0.9004,1.7998-0.9004
				c0.6006,0,1.1104,0.2207,1.5303,0.6602c0.4199,0.4404,0.6299,0.96,0.6299,1.5596c0,0.6406-0.3604,1.4209-1.0801,2.3408
				c-0.5996,0.6396-1.2002,1.2998-1.7998,1.9795l16.9795-0.2402c0.6006,0,1.1006,0.21,1.5,0.6299
				c0.3994,0.4209,0.6006,0.9111,0.6006,1.4707c0,0.5605-0.2012,1.04-0.6006,1.4395c-0.3994,0.4004-0.8799,0.6006-1.4395,0.6006
				c-3.4004,0-10.1807,0.0801-20.3398,0.2393c-2.2002,2.5205-5.2207,5.9805-9.0605,10.3809
				c3.7998-0.2002,7.7002,0.3594,11.7002,1.6797c7.0801-3.6396,15.2998-6.3604,24.6602-8.1602
				c0.6396-0.1201,1.2197,0.0303,1.7402,0.4502C904.3398,30.1309,904.5996,30.6807,904.5996,31.3604z"/>
			<path class="st0" d="M928.1201,16.3008c-0.96,3.4805-2.1807,7-3.6602,10.5596v37.4404c0,0.5996-0.21,1.1104-0.6299,1.5303
				s-0.9297,0.6299-1.5303,0.6299c-0.5996,0-1.1094-0.21-1.5303-0.6299c-0.4199-0.4199-0.6299-0.9307-0.6299-1.5303V35.9209
				c-1.3604,2.4805-2.8604,5.001-4.5,7.5596c-0.4004,0.6006-0.9805,0.9004-1.7393,0.9004c-0.5605,0-1.0508-0.21-1.4707-0.6299
				s-0.6299-0.9092-0.6299-1.4697c0-0.4805,0.1201-0.9004,0.3604-1.2607c5.3994-7.7598,9.3799-16.3594,11.9395-25.7998
				c0.2793-1.04,0.9395-1.5596,1.9805-1.5596c0.7197,0,1.29,0.2695,1.71,0.8096S928.3193,15.6211,928.1201,16.3008z
				 M966.7598,54.4004c0,0.5605-0.21,1.0508-0.6299,1.4707s-0.9102,0.6299-1.4697,0.6299c-0.6406,0-1.1807-0.2598-1.6201-0.7803
				c-5.5605-6.6396-10.3008-13.8799-14.2197-21.7197v17.7002h6.1201c1.3193,0,1.9795,0.6396,1.9795,1.9199
				c0,1.3193-0.6602,1.9795-1.9795,1.9795h-6.1201v8.4004c0,1.3594-0.6602,2.04-1.9805,2.04c-0.5605,0-1.04-0.2012-1.4395-0.6006
				c-0.4004-0.4004-0.6006-0.8799-0.6006-1.4395v-8.4004h-6.0596c-1.2812,0-1.9199-0.6602-1.9199-1.9795
				c0-1.2803,0.6387-1.9199,1.9199-1.9199h6.0596V33.8203c-4.04,8.4814-8.7207,15.8408-14.04,22.0801
				c-0.4004,0.4805-0.9404,0.7207-1.6201,0.7207c-0.5605,0-1.04-0.2002-1.4395-0.6006c-0.4004-0.3994-0.6006-0.8789-0.6006-1.4395
				c0-0.5195,0.1807-0.9795,0.54-1.3799c6.0801-6.5605,11.3799-14.96,15.9004-25.2002h-13.7402c-0.5605,0-1.0498-0.21-1.4697-0.6299
				s-0.6299-0.9102-0.6299-1.4707c0-0.5596,0.21-1.0391,0.6299-1.4395c0.4199-0.3994,0.9092-0.6006,1.4697-0.6006h14.9404v-7.9199
				c0-1.3994,0.6992-2.0996,2.0996-2.0996c1.3594,0,2.04,0.7002,2.04,2.0996v7.9199h15.2998c0.5596,0,1.0508,0.2012,1.4707,0.6006
				c0.4199,0.4004,0.6299,0.8799,0.6299,1.4395c0,0.5605-0.21,1.0508-0.6299,1.4707s-0.9111,0.6299-1.4707,0.6299H949.96
				c3.999,8.8799,9.4199,17.2197,16.2598,25.0195C966.5801,53.4209,966.7598,53.8818,966.7598,54.4004z"/>
			<path class="st0" d="M978.46,49.7207c-0.8008,5.4805-1.5596,9.6406-2.2803,12.4805c-0.2002,0.7988-0.7002,1.1992-1.5,1.1992
				c-0.5195,0-0.9404-0.2002-1.2598-0.5996c-0.3203-0.3994-0.4004-0.8594-0.2402-1.3799c0.7998-2.6797,1.5996-6.7197,2.4004-12.1201
				c0.1201-0.8398,0.5996-1.2598,1.4395-1.2598c0.4404,0,0.8105,0.1699,1.1104,0.5098S978.54,49.2812,978.46,49.7207z
				 M998.6201,17.4404c0,1.2402-0.6406,1.8604-1.9199,1.8604h-6.96v5.5195h5.46c1.1592,0,1.7402,0.5615,1.7402,1.6807
				c0,1.1201-0.5811,1.6797-1.7402,1.6797h-5.46v5.1006h5.5195c1.1191,0,1.6807,0.5605,1.6807,1.6797
				c0,1.1201-0.5615,1.6797-1.6807,1.6797h-5.5195v5.4004h2.8799c3.1992,0,4.7998,1.5996,4.7998,4.7998v9.2998
				c0,3.5605-0.1602,5.8008-0.4795,6.7197c-0.6807,2.1201-2.3613,3.1807-5.04,3.1807h-2.7607c-0.5605,0-1.04-0.2012-1.4395-0.6006
				c-0.4004-0.4004-0.6006-0.8799-0.6006-1.4395c0-1.3203,0.6797-1.9805,2.04-1.9805h1.5c1.5605,0,2.5-0.4199,2.8203-1.2598
				c0.2793-0.7197,0.4199-2.5596,0.4199-5.5195v-7.4404c0-1.4404-0.7197-2.1602-2.1602-2.1602h-11.0996
				c-3.2012,0-4.7998-1.5996-4.7998-4.7998v-20.46c0-3.2002,1.5986-4.7998,4.7998-4.7998h16.0801
				C997.9795,15.5811,998.6201,16.2012,998.6201,17.4404z M982.8398,60.4004c0.0391,0.8809-0.4004,1.3203-1.3203,1.3203
				c-0.7598,0-1.1602-0.3994-1.1992-1.2002c-0.2402-4.3594-0.5205-7.8594-0.8398-10.5c-0.1201-0.9189,0.2793-1.3799,1.1992-1.3799
				c0.7598,0,1.1797,0.3809,1.2607,1.1406C982.3398,53.541,982.6396,57.0811,982.8398,60.4004z M985.96,24.8203v-5.5195h-4.0801
				c-1.4395,0-2.1602,0.7197-2.1602,2.1602v3.3594H985.96z M985.96,33.2207v-4.9795h-6.2402v4.9795H985.96z M985.96,42.041v-5.46
				h-6.2402v3.2998c0,1.4395,0.7207,2.1602,2.1602,2.1602H985.96z M988,58.541c0.1201,0.8799-0.2998,1.3193-1.2598,1.3193
				c-0.7207,0-1.1201-0.3594-1.2002-1.0791c-0.4004-3.9609-0.8203-7.0801-1.2598-9.3604c-0.1602-0.8799,0.2188-1.3203,1.1396-1.3203
				c0.6396,0,1.0205,0.3408,1.1396,1.0205C987.1602,52.6006,987.6396,55.7412,988,58.541z M992.6201,56.3809
				c0.0791,0.3203,0,0.6104-0.2402,0.8701c-0.2402,0.2607-0.54,0.3896-0.8994,0.3896c-0.6807,0-1.0605-0.3193-1.1406-0.96
				c-0.2402-1.9199-0.7197-4.5791-1.4395-7.9795c-0.2012-0.8799,0.1592-1.3203,1.0801-1.3203c0.5996,0,0.96,0.2998,1.0791,0.9004
				C991.8193,51.6016,992.3398,54.3018,992.6201,56.3809z M1028.0801,30.2812c0,1.3193-0.6602,1.9795-1.9805,1.9795
				c-0.5605,0-1.04-0.1797-1.4395-0.54c-5.1211-4.7998-8.9609-9.0596-11.5205-12.7803c-0.3203-0.4795-0.6592-0.7197-1.0195-0.7197
				c-0.4004,0.04-0.7412,0.2803-1.0205,0.7197c-3.2393,4.8008-6.9395,9.1201-11.0996,12.96
				c-0.4404,0.4004-0.9004,0.6006-1.3799,0.6006c-1.3203,0-1.9805-0.6602-1.9805-1.9805c0-0.5996,0.2402-1.0996,0.7207-1.5
				c3.96-3.3594,7.459-7.2988,10.5-11.8193c1.1592-1.7598,2.5586-2.6602,4.1992-2.7002c1.5996-0.04,3,0.7803,4.2002,2.46
				c2.8799,4.1201,6.5801,8.04,11.1006,11.7598C1027.8398,29.1211,1028.0801,29.6416,1028.0801,30.2812z M1027.1797,64.1211
				c0,1.3594-0.6807,2.04-2.04,2.04c-0.4795,0-0.8604-0.1201-1.1396-0.3604c-5.2002-3.5596-9.0811-7.8398-11.6396-12.8398
				c-2.3203,4.96-6.1006,9.2607-11.3408,12.8994c-0.3594,0.2402-0.7402,0.3604-1.1396,0.3604c-1.3604,0-2.04-0.6602-2.04-1.9795
				c0-0.7207,0.2998-1.2812,0.9004-1.6807c6.0791-4.0801,9.7793-8.7197,11.0996-13.9199h-4.9795
				c-3.2012,0-4.8008-1.5996-4.8008-4.7998v-4.5c0-3.2002,1.5996-4.7998,4.8008-4.7998h5.3994v-4.7998h-3.6602
				c-1.1201,0-1.6797-0.5801-1.6797-1.7402c0-1.1191,0.5596-1.6807,1.6797-1.6807h11.5205c1.1191,0,1.6797,0.5615,1.6797,1.6807
				c0,1.1602-0.5605,1.7402-1.6797,1.7402h-3.96v4.7998h5.7002c3.1992,0,4.7998,1.5996,4.7998,4.7998v4.5
				c0,3.2002-1.6006,4.7998-4.7998,4.7998h-5.2803c2.0791,5.2412,6,9.8398,11.7598,13.7998
				C1026.8994,62.8398,1027.1797,63.4004,1027.1797,64.1211z M1010.2598,45.2207v-7.2598h-4.3193
				c-1.4404,0-2.1602,0.7197-2.1602,2.1602v2.9395c0,1.4404,0.7197,2.1602,2.1602,2.1602H1010.2598z M1021.0596,43.0605v-2.9395
				c0-1.4404-0.7197-2.1602-2.1592-2.1602h-4.7402v7.2598h4.7402C1020.3398,45.2207,1021.0596,44.501,1021.0596,43.0605z"/>
		</g>
	</g>
</g>
</svg>
