<?xml version="1.0" encoding="utf-8"?>
<!-- Generator: Adobe Illustrator 25.2.1, SVG Export Plug-In . SVG Version: 6.00 Build 0)  -->
<svg version="1.1" id="レイヤー_1" xmlns="http://www.w3.org/2000/svg" xmlns:xlink="http://www.w3.org/1999/xlink" x="0px"
	 y="0px" viewBox="0 0 1040 80" style="enable-background:new 0 0 1040 80;" xml:space="preserve">
<style type="text/css">
	.st0{fill:#1E1E28;}
</style>
<g>
	<g>
		<g>
			<path class="st0" d="M35.3799,47.4404c0,0.96-0.4795,1.4404-1.4395,1.4404c-0.4004,0-0.7412-0.1396-1.0205-0.4199
				c-2.3604-2.2803-4.5596-4.6396-6.5996-7.0801v23.5801c0,0.96-0.501,1.4395-1.5,1.4395c-1.001,0-1.5-0.4795-1.5-1.4395V43.1211
				c-2.3613,2.9199-4.9414,5.6396-7.7402,8.1602c-0.2402,0.2803-0.5801,0.4199-1.0205,0.4199c-0.96,0-1.4395-0.5-1.4395-1.5
				c0-0.3994,0.1592-0.7402,0.4795-1.0205c7.3594-6.6396,12.7598-13.5596,16.2002-20.7598
				c0.1592-0.3193,0.2402-0.6201,0.2402-0.9004c0-0.7998-0.54-1.2002-1.6201-1.2002H15.1602c-0.9209,0-1.3799-0.459-1.3799-1.3799
				c0-0.9189,0.459-1.3799,1.3799-1.3799h7.4395v-8.04c0-0.96,0.5-1.4395,1.5-1.4395s1.5,0.4795,1.5,1.4395v8.04h3.7803
				c2.5596,0,3.8398,1.001,3.8398,3c0,0.6406-0.1602,1.3203-0.4795,2.04c-1.4404,3.04-3.3213,6.2402-5.6406,9.6006
				c2.7607,3.2803,5.3604,6.0205,7.8008,8.2197C35.2197,46.7012,35.3799,47.041,35.3799,47.4404z M64.8398,47.2607
				c0,3.4805-1.7607,5.2197-5.2803,5.2197h-6.7793v12.4199c0,1-0.501,1.5-1.5,1.5c-1.001,0-1.5-0.5-1.5-1.5V52.4805h-6.3604
				c-3.4795,0-5.2197-1.7393-5.2197-5.2197V28.4209c0-3.5195,1.7402-5.2803,5.2197-5.2803h6.3604v-7.6201c0-0.999,0.499-1.5,1.5-1.5
				c0.999,0,1.5,0.501,1.5,1.5v7.6201h6.7793c3.5195,0,5.2803,1.7607,5.2803,5.2803V47.2607z M49.8398,36.1611V26.0205h-5.8203
				c-1.96,0-2.9395,0.96-2.9395,2.8799v7.2607H49.8398z M49.8398,49.7207V38.9209h-8.7598v7.8604
				c0,1.96,0.9795,2.9395,2.9395,2.9395H49.8398z M61.9004,36.1611v-7.2607c0-1.9199-0.96-2.8799-2.8809-2.8799h-6.2998v10.1406
				H61.9004z M61.9004,46.7812v-7.8604h-9.1807v10.7998h6.2998C60.9404,49.7207,61.9004,48.7412,61.9004,46.7812z"/>
			<path class="st0" d="M93.9404,30.2207c0,0.96-0.4609,1.4404-1.3809,1.4404h-6.7793v2.1592
				c1.959,4.1611,4.2197,7.9209,6.7793,11.2803c0.1602,0.2012,0.2402,0.4609,0.2402,0.7803c0,0.8799-0.4404,1.3203-1.3193,1.3203
				c-0.4414,0-0.8008-0.2002-1.0801-0.6006c-1.5605-2.2803-3.1006-4.999-4.6201-8.1602v26.4004
				c0,0.9199-0.4609,1.3799-1.3799,1.3799c-1.001,0-1.5-0.46-1.5-1.3799V38.6211c-1.7607,4.9199-4.1406,9.5801-7.1406,13.9795
				c-0.3203,0.4805-0.7197,0.7197-1.2002,0.7197c-0.9199,0-1.3799-0.4795-1.3799-1.4395c0-0.2402,0.0996-0.5,0.3008-0.7803
				c4.3594-6.1592,7.5-12.3594,9.4199-18.5996v-0.8398H75.04c-0.8799,0-1.3203-0.4805-1.3203-1.4404
				c0-0.9199,0.4404-1.3799,1.3203-1.3799h7.8604v-8.9404c-1.8809,0.3604-4.1611,0.7012-6.8408,1.0205
				c-1,0.1201-1.5-0.3193-1.5-1.3203c0-0.8398,0.4209-1.2988,1.2607-1.3799c5.5195-0.5596,10.5986-1.6797,15.2393-3.3604
				c0.1201-0.0391,0.2598-0.0596,0.4209-0.0596c0.96,0,1.4395,0.46,1.4395,1.3799c0,0.6406-0.3203,1.0801-0.96,1.3203
				c-1.8398,0.6807-3.9004,1.2803-6.1797,1.7998v9.54h6.7793C93.4795,28.8408,93.9404,29.3008,93.9404,30.2207z M122.3203,53.8008
				c-0.0811,4.6406-0.6104,7.6406-1.5898,9c-0.9814,1.3594-3.0508,2.04-6.2109,2.04H109.96c-2.4805,0-4.1201-0.3896-4.9199-1.1699
				c-0.8008-0.7803-1.2002-2.4092-1.2002-4.8896v-1.8008c-2.7207,2.7607-5.8408,5.2412-9.3594,7.4404
				c-0.2402,0.1992-0.4805,0.2998-0.7207,0.2998c-1,0-1.5-0.501-1.5-1.5c0-0.5596,0.2197-0.9795,0.6602-1.2598
				c4.0801-2.4395,7.7197-5.4199,10.9199-8.9404V28.7812c0-1.04,0.5-1.5605,1.5-1.5605s1.5,0.5205,1.5,1.5605v20.6396
				c6.0801-8.04,10.2598-18.0996,12.54-30.1797c0.1592-0.7998,0.6396-1.2002,1.4404-1.2002c0.4395,0,0.8096,0.1797,1.1094,0.54
				c0.3008,0.3594,0.4102,0.7598,0.3301,1.2002c-2.7998,13.7197-7.9404,25-15.4199,33.8398v4.5c0,1.7197,0.2402,2.79,0.7197,3.21
				c0.4805,0.4199,1.54,0.6299,3.1807,0.6299h3.2402c2.3193,0,3.7695-0.46,4.3496-1.3799c0.5791-0.9199,0.9092-3.2002,0.9902-6.8398
				c0-1,0.499-1.5,1.5-1.5C121.8193,52.2412,122.3203,52.7607,122.3203,53.8008z M99.6396,34.541
				c-0.9199,6.04-2.4199,11.6797-4.5,16.9199c-0.2803,0.6807-0.7402,1.0195-1.3799,1.0195c-0.96,0-1.4395-0.499-1.4395-1.5
				c0-0.1992,0.0391-0.3789,0.1201-0.54c2.1191-4.959,3.5791-10.3994,4.3799-16.3193c0.1201-0.7998,0.5996-1.2002,1.4395-1.2002
				c0.3994,0,0.75,0.1602,1.0498,0.4795C99.6104,33.7217,99.7197,34.1016,99.6396,34.541z M113.2002,22.6006
				c0,1.041-0.5205,1.5605-1.5605,1.5605c-0.2803,0-0.54-0.0801-0.7793-0.2402c-3-2.0791-6.1807-3.8594-9.54-5.3398
				c-0.5605-0.2402-0.8398-0.6797-0.8398-1.3203c0-0.999,0.4795-1.5,1.4395-1.5c0.2002,0,0.3994,0.04,0.5996,0.1201
				c3.6006,1.6406,6.9004,3.4199,9.9004,5.3398C112.9395,21.541,113.2002,22.001,113.2002,22.6006z M127.9004,48.1006
				c0.0391,0.1602,0.0596,0.3213,0.0596,0.4805c0,0.96-0.5205,1.4395-1.5596,1.4395c-0.6807,0-1.1211-0.3389-1.3203-1.0195
				c-1.3604-4.5996-3.0205-8.6602-4.9805-12.1807c-0.1191-0.1992-0.1797-0.4199-0.1797-0.6592c0-0.96,0.4805-1.4404,1.4404-1.4404
				c0.5596,0,0.9795,0.2607,1.2598,0.7803C124.6992,39.4219,126.46,43.6211,127.9004,48.1006z"/>
			<path class="st0" d="M155.7402,56.5605c0,3.4805-1.7607,5.2207-5.2803,5.2207h-8.8203c-3.4795,0-5.2197-1.7402-5.2197-5.2207
				V29.2607c0-3.5195,1.7402-5.2803,5.2197-5.2803h1.7402c0.7598-2.1191,1.5391-4.9795,2.3398-8.5801
				c0.2002-0.7988,0.7207-1.1992,1.5605-1.1992c0.4795,0,0.8701,0.2002,1.1699,0.5996c0.2998,0.4004,0.3896,0.8398,0.2695,1.3203
				c-0.7598,2.8799-1.5205,5.5-2.2793,7.8594h4.0195c3.5195,0,5.2803,1.7607,5.2803,5.2803V56.5605z M152.6797,40.9609V29.8604
				c0-1.999-1-3-3-3h-7.2598c-2.001,0-3,1.001-3,3v11.1006H152.6797z M152.6797,55.9004V43.7812h-13.2598v12.1191
				c0,2.001,0.999,3,3,3h7.2598C151.6797,58.9004,152.6797,57.9014,152.6797,55.9004z M184.5996,38.501
				c0,8.3604-0.2598,14.2598-0.7793,17.7002c-0.5605,3.5996-1.5811,5.96-3.0605,7.0801c-1.2002,0.8398-3.3809,1.2598-6.54,1.2598
				h-3.96c-1,0-1.5-0.4805-1.5-1.4404c0-0.999,0.5-1.5,1.5-1.5h3.8398c2.3604,0,3.96-0.3994,4.8008-1.2002
				c1.0801-0.96,1.8193-3.0596,2.2197-6.2998c0.3193-3,0.4795-8.2803,0.4795-15.8398v-7.7998c0-2.6797-1.3604-4.0205-4.0801-4.0205
				h-12.8398c-1.3193,2.9609-2.96,6.0205-4.9199,9.1807c-0.2803,0.4795-0.6807,0.7197-1.2002,0.7197c-0.96,0-1.4395-0.5-1.4395-1.5
				c0-0.3193,0.0596-0.5596,0.1797-0.7197c3.7197-5.9199,6.5-12.1396,8.3398-18.6602c0.2002-0.7598,0.6797-1.1406,1.4404-1.1406
				c0.999,0,1.5,0.501,1.5,1.5c0,0.9209-0.8809,3.4805-2.6396,7.6807h12.2393c4.2803,0,6.4199,2.1602,6.4199,6.4795V38.501z
				 M173.4404,46.3604c0.0791,0.2012,0.1191,0.4209,0.1191,0.6602c0,1.001-0.4795,1.5-1.4395,1.5
				c-0.6006,0-1.041-0.2998-1.3203-0.8994c-1.4004-3.0801-3.2803-6.4199-5.6396-10.0205c-0.1602-0.2402-0.2402-0.499-0.2402-0.7803
				c0-0.96,0.5-1.4395,1.5-1.4395c0.5195,0,0.9199,0.2207,1.2002,0.6602C169.8193,39.4004,171.7598,42.8418,173.4404,46.3604z"/>
			<path class="st0" d="M223.7197,24.7607c0,0.8799-0.4199,1.4199-1.2598,1.6201c-3.6807,0.8799-7.3203,1.5596-10.9199,2.04
				c-3.1201,9.6406-6.8203,18.6406-11.0996,27c-0.3604,0.6807-0.8809,1.0195-1.5605,1.0195c-1.1602,0-1.7402-0.5996-1.7402-1.7998
				c0-0.3594,0.0605-0.6191,0.1807-0.7803c4.3594-8.3594,7.8994-16.6992,10.6201-25.0195
				c-3.1201,0.2803-6.1611,0.3809-9.1201,0.2998c-1.041-0.0391-1.5605-0.5791-1.5605-1.6201c0-1.1592,0.5801-1.7188,1.7402-1.6797
				c3.2793,0.1201,6.5996,0,9.96-0.3604c0.5996-1.959,1.4189-4.9395,2.46-8.9395c0.2002-0.8799,0.7402-1.3203,1.6201-1.3203
				c0.5596,0,1.0195,0.2207,1.3799,0.6602c0.3604,0.4404,0.4805,0.9209,0.3604,1.4395c-0.6406,2.5205-1.3604,5.1006-2.1602,7.7402
				c2.8799-0.4395,5.8994-1.0801,9.0596-1.9199c0.4805-0.1201,0.9395-0.0195,1.3799,0.2998
				C223.5,23.7617,223.7197,24.2012,223.7197,24.7607z M243.6396,58.3604c0,1.1211-0.5605,1.6807-1.6797,1.6807
				c-0.3604,0-0.6602-0.0996-0.9004-0.2998c-3.3594-2.1201-6.54-3.7598-9.54-4.9209c-0.1602,3.1201-0.8799,5.4404-2.1592,6.9609
				c-1.6807,1.959-4.5,2.9395-8.46,2.9395c-2.6807,0-4.9609-0.5801-6.8408-1.7402c-2.2002-1.3594-3.2998-3.2793-3.2998-5.7598
				c0-2.5996,1.0996-4.6201,3.2998-6.0596c1.8799-1.1602,4.1797-1.7402,6.9004-1.7402c2.1992,0,4.6201,0.3604,7.2598,1.0801
				c0-0.96-0.0205-3.2998-0.0596-7.0205c-0.04-3.0791-0.0605-5.5195-0.0605-7.3193c0-1.0801,0.5605-1.6201,1.6807-1.6201
				c1.1191,0,1.6797,0.54,1.6797,1.6201c0,2.0801,0,4.7002,0,7.8594c0.0391,4.6006,0.0596,7.1006,0.0596,7.5
				c3.6396,1.2812,7.4199,3.0811,11.3408,5.4004C243.3789,57.2412,243.6396,57.7217,243.6396,58.3604z M228.2803,53.6211
				c-2.6406-0.7998-5.1006-1.2002-7.3799-1.2002c-2.001,0-3.6309,0.4199-4.8906,1.2598s-1.8896,2.0205-1.8896,3.54
				c0,1.3604,0.5996,2.4404,1.7998,3.2402c1.2002,0.8008,2.7793,1.2002,4.7402,1.2002c3,0,5.0596-0.7002,6.1797-2.1006
				C227.7598,58.4414,228.2393,56.4609,228.2803,53.6211z M244.96,31.9004c0,1.1211-0.5605,1.6807-1.6797,1.6807
				c-0.4004,0-0.7412-0.0996-1.0205-0.2998c-3.4795-2.5596-7.1396-4.6602-10.9795-6.3008c-0.6406-0.2793-0.96-0.7793-0.96-1.5
				c0-1.0801,0.5596-1.6201,1.6797-1.6201c0.1992,0,0.3994,0.041,0.5996,0.1201c4.1201,1.8008,7.9805,3.96,11.5801,6.4805
				C244.6992,30.8203,244.96,31.3008,244.96,31.9004z"/>
			<path class="st0" d="M297.9404,59.6211c0.0791,0.2002,0.1191,0.4004,0.1191,0.5996c0,1.2002-0.5996,1.7998-1.7998,1.7998
				c-0.8398,0-1.4004-0.3994-1.6797-1.2002l-4.5605-12.3594h-20.3994l-4.2598,12.3594c-0.2803,0.8008-0.8408,1.2002-1.6807,1.2002
				c-1.1992,0-1.7998-0.5791-1.7998-1.7393c0-0.2002,0.0391-0.3994,0.1201-0.6006l13.7998-38.3398
				c0.7998-2.1992,2.1006-3.2998,3.9004-3.2998s3.0996,1.0801,3.8994,3.2402L297.9404,59.6211z M288.8799,45.2207l-8.2197-22.5
				c-0.2402-0.6797-0.5801-1.0195-1.0205-1.0195s-0.7793,0.3398-1.0195,1.0195l-7.8604,22.5H288.8799z"/>
			<path class="st0" d="M356.8604,59.4404c0.0791,0.2402,0.1201,0.4609,0.1201,0.6602c0,1.2812-0.6211,1.9199-1.8604,1.9199
				c-0.8398,0-1.4209-0.3994-1.7402-1.2002l-5.1602-13.6191c-1.5205-3.96-4.2998-5.9404-8.3398-5.9404h-11.1602v18.96
				c0,1.2002-0.5996,1.7998-1.7998,1.7998c-1.2402,0-1.8604-0.5996-1.8604-1.7998V23.501c0-3.3994,1.7002-5.1006,5.1006-5.1006
				h13.5596c3.8398,0,6.8799,0.8613,9.1201,2.5801c2.5596,1.9199,3.8398,4.7803,3.8398,8.5801c0,3.0811-0.9404,5.6006-2.8193,7.5605
				c-1.7607,1.7998-4.1006,2.9199-7.0205,3.3594c2.1992,1.1211,3.8193,3,4.8604,5.6406L356.8604,59.4404z M352.9004,29.6807
				c0-5.3594-3.1406-8.04-9.4199-8.04h-12.1201c-1.7607,0-2.6406,0.8809-2.6406,2.6406v13.7998H343c3,0,5.4004-0.75,7.2002-2.25
				S352.9004,32.2812,352.9004,29.6807z"/>
			<path class="st0" d="M387.8203,36.4004c0.0791,0.2012,0.1201,0.4004,0.1201,0.6006c0,0.4795-0.1807,0.9102-0.54,1.29
				c-0.3604,0.3809-0.8008,0.5693-1.3203,0.5693c-0.7607,0-1.3008-0.3994-1.6201-1.1992c-1.6797-4.5205-3.6807-8.54-6-12.0605
				c-0.1602-0.2402-0.2402-0.54-0.2402-0.8994c0-1.1602,0.5801-1.7402,1.7402-1.7402c0.5996,0,1.0801,0.2803,1.4404,0.8398
				C384.04,28.0811,386.1797,32.2812,387.8203,36.4004z M402.46,33.5811c0.0801,0.2002,0.1201,0.4004,0.1201,0.5996
				c0,1.2002-0.6211,1.7998-1.8604,1.7998c-0.8008,0-1.3408-0.3994-1.6201-1.1992c-1.4004-4-3.2998-8-5.6992-12
				c-0.1611-0.2803-0.2402-0.5605-0.2402-0.8408c0-1.1592,0.5791-1.7393,1.7402-1.7393c0.7197,0,1.2393,0.2803,1.5596,0.8398
				C398.9395,25.3604,400.9395,29.541,402.46,33.5811z M422.3203,23.9209c-3.1201,16.9199-11.8604,29.9395-26.2207,39.0596
				c-0.3203,0.2002-0.6396,0.3008-0.96,0.3008c-1.2402,0-1.8594-0.6201-1.8594-1.8604c0-0.6797,0.3193-1.2197,0.96-1.6201
				c6.999-4.4795,12.4795-9.6797,16.4395-15.5996c3.7998-5.7607,6.4805-12.7207,8.04-20.8809c0.2002-0.999,0.7803-1.5,1.7402-1.5
				c0.5596,0,1.04,0.2109,1.4404,0.6309C422.2998,22.8711,422.4404,23.3613,422.3203,23.9209z"/>
			<path class="st0" d="M481.0596,27.3408c-3.1191,4.0801-7.1396,8.4209-12.0596,13.0195
				c-0.3604,0.3213-0.7607,0.4805-1.2002,0.4805c-1.2002,0-1.7998-0.5791-1.7998-1.7402c0-0.5195,0.1992-0.96,0.5996-1.3193
				c4.3203-3.7998,8-7.7402,11.04-11.8203c0.2793-0.3604,0.4199-0.7197,0.4199-1.0801c0-0.7197-0.5195-1.0801-1.5596-1.0801
				h-37.4404c-1.1201,0-1.6797-0.5596-1.6797-1.6797s0.5596-1.6807,1.6797-1.6807h38.7607c3.0791,0,4.6201,1.1611,4.6201,3.4805
				C482.4404,25.041,481.9795,26.1807,481.0596,27.3408z M461.3203,39.2207c0,10.6006-4.9199,18.7197-14.7607,24.3604
				c-0.3594,0.1992-0.6592,0.2998-0.8994,0.2998c-1.2002,0-1.7998-0.6211-1.7998-1.8604c0-0.6797,0.2998-1.2002,0.8994-1.5596
				c4.4404-2.5596,7.7197-5.5703,9.8398-9.0303c2.1201-3.459,3.1807-7.6895,3.1807-12.6895v-7.3809
				c0-1.1592,0.5996-1.7393,1.7998-1.7393c1.1592,0,1.7402,0.5801,1.7402,1.7393V39.2207z"/>
			<path class="st0" d="M544.4199,38.9209c0,1.1602-0.5801,1.7402-1.7402,1.7402h-45.2998c-1.1602,0-1.7402-0.5801-1.7402-1.7402
				s0.5801-1.7402,1.7402-1.7402h45.2998C543.8398,37.1807,544.4199,37.7607,544.4199,38.9209z"/>
			<path class="st0" d="M602.2598,21.7607c0,1-0.5,1.54-1.5,1.6201c-6.0801,0.4404-11.7402,2.8799-16.9795,7.3203
				c-5.4004,4.5205-8.1006,9.3398-8.1006,14.46c0,7,5.5996,11.7598,16.8008,14.2793c0.96,0.2012,1.4395,0.7803,1.4395,1.7402
				c0,0.5605-0.2207,1.0205-0.6602,1.3799c-0.4404,0.3604-0.9404,0.4805-1.5,0.3604c-13-2.7998-19.5-8.6602-19.5-17.5801
				c0-4.3994,1.7197-8.5996,5.1602-12.5996c3.0391-3.5605,6.96-6.4404,11.7598-8.6406c-9.6807,0.8008-20.3994,1.9404-32.1602,3.4199
				c-0.4795,0.0811-0.9102-0.0498-1.2891-0.3896c-0.3809-0.3398-0.5703-0.7695-0.5703-1.29c0-1.04,0.5-1.6201,1.5-1.7402
				c14.04-1.5195,28.6592-2.8594,43.8594-4.0195c0.4805-0.04,0.8906,0.1104,1.2305,0.4502S602.2598,21.2812,602.2598,21.7607z
				 M599.3799,39.1611c0,0.8799-0.46,1.3193-1.3799,1.3193c-0.4805,0-0.8203-0.1797-1.0195-0.54
				c-1.5605-1.959-3.3008-3.7197-5.2207-5.2793c-0.2803-0.2402-0.4199-0.5596-0.4199-0.96c0-0.8799,0.4199-1.3203,1.2598-1.3203
				c0.3203,0,0.6201,0.1201,0.9004,0.3604c1.8799,1.5996,3.7393,3.46,5.5801,5.5791
				C599.2793,38.6416,599.3799,38.9209,599.3799,39.1611z M605.3799,35.5605c0,0.8398-0.4404,1.2598-1.3203,1.2598
				c-0.4795,0-0.8398-0.1592-1.0791-0.4795c-1.7207-2.1201-3.4609-3.9004-5.2207-5.3398c-0.2803-0.2402-0.4199-0.5596-0.4199-0.96
				c0-0.8398,0.4395-1.2598,1.3203-1.2598c0.3594,0,0.6396,0.0996,0.8398,0.2998c1.7197,1.4004,3.5791,3.2803,5.5801,5.6396
				C605.2793,35.041,605.3799,35.3203,605.3799,35.5605z"/>
			<path class="st0" d="M655.7803,48.4609c0,4.4395-1.541,7.8809-4.6201,10.3203c-2.8408,2.2002-6.5605,3.2998-11.1602,3.2998
				c-5.1602,0-9.6602-1.3398-13.5-4.0205c-0.4404-0.3193-0.6602-0.7998-0.6602-1.4395c0-1.2002,0.6006-1.8008,1.7998-1.8008
				c0.3604,0,0.7402,0.1406,1.1406,0.4209c3.4795,2.4395,7.1787,3.6592,11.0996,3.6592c3.7197,0,6.6992-0.9297,8.9404-2.79
				c2.2393-1.8594,3.3594-4.4092,3.3594-7.6494c0-2.7197-0.9805-4.8994-2.9395-6.54c-1.9609-1.6396-4.5811-2.46-7.8604-2.46
				c-3.7598,0-6.9404,0.96-9.54,2.8799c-0.9209,0.6807-1.7803,1-2.5801,0.96c-1.8398-0.0801-2.6602-1.1602-2.46-3.2402l1.6201-16.5
				c0.3193-3.1992,2.1201-4.7998,5.4004-4.7998h18.7793c1.0801,0,1.6201,0.5205,1.6201,1.5596c0,1.1211-0.54,1.6807-1.6201,1.6807
				h-17.8799c-1.6797,0-2.6201,0.8604-2.8193,2.5801l-1.5,14.46c-0.041,0.2002,0,0.3203,0.1191,0.3594
				c0.0801,0.0811,0.2002,0.0605,0.3604-0.0596c3.1201-2.04,6.7803-3.0596,10.9805-3.0596c4.0801,0,7.4189,1.1006,10.0195,3.2998
				C654.4795,41.7812,655.7803,44.7412,655.7803,48.4609z"/>
			<path class="st0" d="M727.1797,42.1006c0,0.8809-0.4404,1.3203-1.3193,1.3203h-44.1006v1.8604
				c0,1.7598,0.8799,2.6396,2.6406,2.6396h34.2598c3.4795,0,5.2197,1.7402,5.2197,5.2197v3c0,3.4404-0.5205,5.8604-1.5596,7.2598
				c-1.3203,1.7598-3.8398,2.6406-7.5605,2.6406h-3.4795c-0.96,0-1.4404-0.4805-1.4404-1.4404c0-1,0.4805-1.5,1.4404-1.5h3.2998
				c2.7598,0,4.5391-0.6602,5.3398-1.9795c0.5596-0.8799,0.8398-2.6201,0.8398-5.2207V53.501c0-2-1-3-3-3h-23.3994v8.8799H704.5
				c1.7598,0,2.6396-0.8799,2.6396-2.6396v-2.8203c0-1.04,0.5-1.5605,1.5-1.5605c1.04,0,1.5605,0.5205,1.5605,1.5605v3.54
				c0,3.1201-1.6006,4.6797-4.7998,4.6797h-24.7207c-3.2002,0-4.7998-1.5996-4.7998-4.7998v-3.4199
				c0-1.04,0.5195-1.5605,1.5605-1.5605c1.0391,0,1.5596,0.5205,1.5596,1.5605v2.8203c0,1.7598,0.8789,2.6396,2.6396,2.6396h9.6006
				V50.501h-7.8604c-3.2002,0-4.7998-1.5996-4.7998-4.7998V24.7607c0-3.1992,1.5996-4.7998,4.7998-4.7998h10.2598
				c1.0801-2.04,1.8994-3.8398,2.46-5.4004c0.2402-0.7197,0.7402-1.0801,1.5-1.0801c1.04,0,1.5605,0.54,1.5605,1.6201
				c0,0.2012-0.04,0.3809-0.1201,0.54c-0.4004,1.041-1.1006,2.4805-2.0996,4.3203h17.8799c3.1992,0,4.7998,1.6006,4.7998,4.7998
				v6.96c0,3.2012-1.6006,4.7998-4.7998,4.7998h-33.0605v4.2607h44.1006C726.7393,40.7812,727.1797,41.2217,727.1797,42.1006z
				 M716.4404,26.9209v-1.7402c0-1.7598-0.8809-2.6396-2.6406-2.6396h-29.3994c-1.7607,0-2.6406,0.8799-2.6406,2.6396v1.7402
				H716.4404z M716.4404,31.4209v-1.9805h-34.6807v4.6201h32.04C715.5596,34.0605,716.4404,33.1816,716.4404,31.4209z"/>
			<path class="st0" d="M786.3398,62.8604c0,1-0.5,1.5-1.5,1.5H756.46c-3.2002,0-5.7598-0.5-7.6797-1.5
				c-1.9199-0.999-3.5205-2.6787-4.7998-5.04c-2.4004,2.3613-4.9209,4.541-7.5605,6.54c-0.3203,0.2402-0.6602,0.3604-1.0195,0.3604
				c-1.0801,0-1.6201-0.5605-1.6201-1.6797c0-0.5195,0.2393-0.96,0.7197-1.3203c3.7598-2.7598,6.5596-5.0596,8.4004-6.9004V41.9209
				c0-1.7598-0.8613-2.6396-2.5801-2.6396h-4.9805c-1,0-1.5-0.5-1.5-1.5s0.5-1.5,1.5-1.5h5.8799
				c3.2002,0,4.7998,1.5996,4.7998,4.7998v13.8594c0.8799,2.3613,2.1396,4.0205,3.7803,4.9805
				c1.6396,0.96,3.9004,1.4395,6.7803,1.4395h28.2598C785.8398,61.3604,786.3398,61.8613,786.3398,62.8604z M745.7803,24.3408
				c0,1.041-0.54,1.5596-1.6201,1.5596c-0.4404,0-0.8203-0.1797-1.1406-0.54c-2.0391-2.2393-4.1201-4.2598-6.2393-6.0596
				c-0.4004-0.3193-0.6006-0.6992-0.6006-1.1396c0-1.04,0.54-1.5605,1.6201-1.5605c0.3604,0,0.6992,0.1406,1.0205,0.4199
				c2.1992,1.8809,4.3594,3.96,6.4795,6.2402C745.6201,23.6211,745.7803,23.9805,745.7803,24.3408z M761.0195,17.7412
				c-2.0391,5.96-4.2402,11.1592-6.5996,15.5996c-0.4004,0.7607-0.5996,1.4609-0.5996,2.0996c0,0.5605,0.1396,1.1611,0.4199,1.8008
				c2.6396,6.04,4.8594,12.04,6.6602,18c0.0391,0.1602,0.0596,0.3203,0.0596,0.4795c0,1.0801-0.54,1.6201-1.6201,1.6201
				c-0.8008,0-1.2998-0.3799-1.5-1.1396c-1.6006-5.6406-3.7402-11.54-6.4199-17.7002c-0.4795-1.0801-0.7197-2.0791-0.7197-3
				c0-1.0801,0.3389-2.2598,1.0195-3.54c2.3193-4.4795,4.4404-9.5596,6.3604-15.2402c0.2402-0.6797,0.7197-1.0195,1.4395-1.0195
				c1.04,0,1.5605,0.5195,1.5605,1.5596C761.0801,17.4209,761.0596,17.5811,761.0195,17.7412z M772.4199,54.041
				c0.0391,0.1602,0.0605,0.3203,0.0605,0.4795c0,1.041-0.5205,1.5605-1.5605,1.5605c-0.7197,0-1.2002-0.3604-1.4395-1.0801
				c-1.8809-5.5596-4.1406-11.0596-6.7803-16.5c-0.5605-1.1191-0.8398-2.1602-0.8398-3.1201c0-1.0801,0.3594-2.2402,1.0801-3.4805
				c2.1592-3.8398,4.3389-8.5801,6.54-14.2197c0.2393-0.6396,0.7197-0.96,1.4395-0.96c1.04,0,1.5605,0.501,1.5605,1.5
				c0,0.2012-0.041,0.3809-0.1201,0.54c-1.8809,4.7607-4.1807,9.5996-6.9004,14.5205c-0.4004,0.7197-0.5996,1.4199-0.5996,2.0996
				c0,0.5205,0.1396,1.0801,0.4199,1.6797C768.3193,43.3008,770.6992,48.9609,772.4199,54.041z M785.7998,55.001
				c0.0801,0.2002,0.1201,0.4004,0.1201,0.5996c0,1.041-0.5205,1.5605-1.5596,1.5605c-0.7207,0-1.2207-0.3398-1.5-1.0205
				c-2.3203-5.7197-5.1211-11.5801-8.4004-17.5801c-0.6406-1.1191-0.96-2.1992-0.96-3.2402c0-1.0791,0.3604-2.2197,1.0801-3.4199
				c2.96-5.0791,5.4395-10.1396,7.4395-15.1797c0.2402-0.6396,0.7207-0.96,1.4404-0.96c1.0801,0,1.6201,0.54,1.6201,1.6201
				c0,0.2002-0.04,0.4004-0.1201,0.5996c-2.04,4.9199-4.6006,10.0205-7.6797,15.3008c-0.4404,0.7197-0.6602,1.3799-0.6602,1.9795
				s0.1797,1.2002,0.54,1.7998C780.4795,43.1016,783.3594,49.0811,785.7998,55.001z"/>
			<path class="st0" d="M814.3604,37.0605c-2.04,3.6807-3.7002,7.1807-4.9805,10.5c-0.4004,1.041-1.0801,1.5605-2.04,1.5605
				c-1.3203,0-2.0801-0.7207-2.2803-2.1602c-0.3203-2.0791-0.4795-5.3799-0.4795-9.9004c0-5.04,0.7197-11.0996,2.1602-18.1797
				c0.1992-0.9199,0.7588-1.3799,1.6797-1.3799c0.5596,0,1.0098,0.2197,1.3496,0.6602s0.4502,0.9404,0.3301,1.5
				c-1.5205,6.6396-2.2793,12.5996-2.2793,17.8799c0,3.2803,0.0596,5.3799,0.1797,6.2998c0.8789-2.04,2.2393-4.7402,4.0801-8.0996
				c0.1992-0.3994,0.5791-0.6006,1.1396-0.6006c0.8799,0,1.3203,0.4199,1.3203,1.2598
				C814.54,36.6406,814.4805,36.8613,814.3604,37.0605z M835,37.7207c0,6.6807-1.2207,12.1602-3.6602,16.4404
				c-2.4805,4.4004-6.5205,8.0801-12.1201,11.04c-0.2803,0.1592-0.5605,0.2393-0.8398,0.2393c-0.4795,0-0.8906-0.1904-1.2295-0.5693
				c-0.3408-0.3809-0.5107-0.8105-0.5107-1.29c0-0.6006,0.3203-1.0801,0.96-1.4404c5.0801-2.7197,8.7002-6.0195,10.8604-9.8994
				c2.0791-3.7207,3.1201-8.5801,3.1201-14.5801c0-5.5205-0.54-11.8398-1.6201-18.96c-0.0811-0.5195,0.0596-0.9902,0.4199-1.4102
				s0.7998-0.6299,1.3203-0.6299c0.999,0,1.5791,0.5,1.7402,1.5C834.4795,25.6006,835,32.1211,835,37.7207z"/>
			<path class="st0" d="M902.2002,35.6211c0,0.7197-0.3408,1.2207-1.0205,1.5c-4.7607,2.04-9.3799,4.2598-13.8594,6.6602
				c0.0391,0.8799,0.0596,2.1797,0.0596,3.8994v6.1797c0,1.041-0.54,1.5605-1.6201,1.5605c-1.04,0-1.5596-0.5195-1.5596-1.5605
				v-8.46c-7.9609,4.4805-11.9404,8.2412-11.9404,11.2803c0,1.6406,0.9502,2.8301,2.8506,3.5703
				c1.8994,0.7402,5.209,1.1094,9.9297,1.1094c3.2793,0,7.4404-0.3994,12.4795-1.1992c0.4805-0.0801,0.9102,0.0498,1.29,0.3896
				s0.5703,0.75,0.5703,1.2305c0,0.96-0.4795,1.5-1.4395,1.6191c-4.9209,0.6396-9.2803,0.96-13.0801,0.96
				c-5.2803,0-9.1807-0.5195-11.7002-1.5596c-2.8799-1.2002-4.3203-3.1797-4.3203-5.9404c0-4.1191,5.0596-9.0195,15.1797-14.6992
				c-0.3594-3.1201-1.8203-4.6807-4.3799-4.6807c-2.2402,0-5.0195,1.0205-8.3398,3.0605c-2.6396,1.6406-5.1807,3.6396-7.6201,6
				c-0.4795,0.6396-1.2207,1.5801-2.2197,2.8193c-0.3203,0.4004-0.7402,0.6006-1.2598,0.6006c-1.1201,0-1.6807-0.5596-1.6807-1.6797
				c0-0.3994,0.1201-0.7402,0.3604-1.0205c5.1201-6.1592,9.5-12.9199,13.1396-20.2803c-3.7998,0.2803-7.5996,0.4199-11.3994,0.4199
				c-1,0-1.5-0.4795-1.5-1.4395c0-1.0801,0.5-1.5996,1.5-1.5605c4.6396,0.1201,8.9189,0.0215,12.8398-0.2998
				c1.2393-2.6787,2.2998-5.2803,3.1797-7.7998c0.2402-0.7197,0.7402-1.0801,1.5-1.0801c1.0801,0,1.6201,0.54,1.6201,1.6201
				c0,0.2002-0.04,0.4004-0.1201,0.5996c-0.8799,2.2002-1.7803,4.3203-2.6992,6.3604c3.9189-0.3604,8.4385-0.999,13.5596-1.9199
				c0.4805-0.0801,0.9092,0.04,1.29,0.3604c0.3799,0.3203,0.5703,0.7197,0.5703,1.1992c0,0.9209-0.4609,1.4404-1.3799,1.5605
				c-6.0811,0.8799-11.2412,1.4805-15.4805,1.7998c-1.9199,3.9209-4.3408,8.2002-7.2598,12.8398
				c4.5996-3.3994,8.5596-5.0996,11.8799-5.0996c3.7197,0,5.9795,2.04,6.7803,6.1201c2.5996-1.4004,6.9189-3.5596,12.96-6.4805
				c0.2393-0.1201,0.4795-0.1797,0.7197-0.1797C901.6602,34.001,902.2002,34.541,902.2002,35.6211z"/>
			<path class="st0" d="M923.7402,27.6406v36.96c0,1.04-0.5205,1.5605-1.5605,1.5605s-1.5596-0.5205-1.5596-1.5605V34.2412
				c-1.6006,3.1602-3.501,6.3799-5.7002,9.6592c-0.2803,0.4414-0.6807,0.6602-1.2002,0.6602c-1.04,0-1.5596-0.499-1.5596-1.5
				c0-0.3193,0.0996-0.6191,0.2998-0.8994c5.5996-8.0801,9.7998-17.1201,12.5996-27.1201c0.2002-0.7207,0.6797-1.0801,1.4404-1.0801
				c0.999,0,1.5,0.5,1.5,1.5C928,17.0205,926.5801,21.0811,923.7402,27.6406z M966.5195,55.0605c0,1.001-0.5,1.5-1.5,1.5
				c-0.4795,0-0.8799-0.1797-1.1992-0.54c-6.1602-7.0391-11.4004-15.0195-15.7207-23.9395V52.001h6.7803
				c0.96,0,1.4404,0.46,1.4404,1.3799c0,0.96-0.4805,1.4395-1.4404,1.4395h-6.7803v9.4209c0,0.999-0.5,1.5-1.5,1.5
				c-0.96,0-1.4395-0.501-1.4395-1.5v-9.4209H938.5c-0.96,0-1.4404-0.4795-1.4404-1.4395c0-0.9199,0.4805-1.3799,1.4404-1.3799
				h6.6602v-20.04c-4.4004,9.4795-9.5605,17.54-15.4805,24.1797c-0.3203,0.3604-0.6807,0.54-1.0801,0.54
				c-1.04,0-1.5596-0.4795-1.5596-1.4395c0-0.3604,0.1592-0.7002,0.4795-1.0205c6.3604-6.6396,12.0205-15.5596,16.9805-26.7598
				h-15.4805c-1,0-1.5-0.5195-1.5-1.5605c0-0.999,0.5-1.5,1.5-1.5h16.0801v-8.8193c0-1,0.5-1.5,1.5-1.5s1.5,0.5,1.5,1.5v8.8193
				h16.3809c1.0391,0,1.5596,0.501,1.5596,1.5c0,1.041-0.5205,1.5605-1.5596,1.5605h-15.8408
				c4.0801,9.1602,9.9199,18.04,17.5205,26.6396C966.4004,54.3809,966.5195,54.7012,966.5195,55.0605z"/>
			<path class="st0" d="M978.04,49.4209c-0.6807,5.0801-1.4805,9.4404-2.4004,13.0801c-0.1602,0.5996-0.54,0.8994-1.1396,0.8994
				c-0.4004,0-0.7197-0.1602-0.96-0.4795s-0.2998-0.6602-0.1797-1.0205c1.0801-3.8789,1.9199-8.1387,2.5195-12.7793
				c0.0801-0.6396,0.4395-0.96,1.0801-0.96C977.7998,48.1611,978.1602,48.5811,978.04,49.4209z M998.2598,17.3203
				c0,0.9209-0.46,1.3809-1.3799,1.3809h-8.0996v6.4199h6.4795c0.8398,0,1.2598,0.4199,1.2598,1.2598
				c0,0.8799-0.4199,1.3203-1.2598,1.3203h-6.4795v6h6.4795c0.8398,0,1.2598,0.4199,1.2598,1.2598s-0.4199,1.2598-1.2598,1.2598
				h-6.4795v6.3604h3.54c3.1992,0,4.7998,1.5996,4.7998,4.7998v8.5801c0,4-0.3203,6.5996-0.96,7.7998
				c-0.7197,1.3203-2.2803,1.9805-4.6797,1.9805h-2.7002c-0.96,0-1.4404-0.4805-1.4404-1.4404s0.4805-1.4404,1.4404-1.4404h1.8594
				c1.8398,0,2.96-0.459,3.3604-1.3799c0.3604-0.7588,0.54-2.8398,0.54-6.2393v-7.3809c0-1.7588-0.8799-2.6396-2.6396-2.6396
				h-11.1006c-3.2002,0-4.7998-1.5996-4.7998-4.7998V20.7412c0-3.2002,1.5996-4.8008,4.7998-4.8008h16.0801
				C997.7998,15.9404,998.2598,16.4014,998.2598,17.3203z M986.0801,25.1807v-6.4795H981.46c-1.7607,0-2.6396,0.8799-2.6396,2.6396
				v3.8398H986.0801z M986.0801,33.7012v-6h-7.2598v6H986.0801z M986.0801,42.5811v-6.3604h-7.2598v3.7197
				c0,1.7607,0.8789,2.6406,2.6396,2.6406H986.0801z M982.6602,60.2812c0.0391,0.6797-0.2998,1.0195-1.0205,1.0195
				c-0.6396,0-0.9805-0.3193-1.0195-0.96c-0.2012-4.2393-0.501-7.7402-0.9004-10.5c-0.1201-0.7598,0.2002-1.1396,0.96-1.1396
				c0.5596,0,0.8799,0.2998,0.96,0.8994C981.9189,51.9209,982.2598,55.4805,982.6602,60.2812z M988,58.3008
				c0.0801,0.7197-0.2402,1.0801-0.96,1.0801c-0.5605,0-0.8799-0.2793-0.96-0.8398c-0.4004-3.0801-0.9209-6.2002-1.5605-9.3604
				c-0.1602-0.7197,0.1602-1.0801,0.9609-1.0801c0.4795,0,0.7793,0.2803,0.8994,0.8398
				C986.7793,50.9014,987.3193,54.0215,988,58.3008z M992.8604,56.2012c0.1201,0.6807-0.1807,1.0195-0.9004,1.0195
				c-0.5205,0-0.8203-0.2598-0.9004-0.7803c-0.4404-2.7197-1.0195-5.3789-1.7393-7.9795c-0.2012-0.7197,0.0791-1.0801,0.8398-1.0801
				c0.4795,0,0.7803,0.2207,0.8994,0.6602C991.5791,49.8809,992.1797,52.6006,992.8604,56.2012z M1027.9004,30.8203
				c0,0.9609-0.4805,1.4404-1.4404,1.4404c-0.4004,0-0.7402-0.1201-1.0195-0.3604c-5.1211-4.6396-9.2012-9.1191-12.2402-13.4395
				c-0.3604-0.5195-0.7412-0.7803-1.1406-0.7803c-0.3594,0-0.7197,0.2607-1.0791,0.7803
				c-3.2812,4.8398-7.2412,9.3594-11.8809,13.5596c-0.3203,0.2803-0.6592,0.4199-1.0195,0.4199
				c-0.9209,0-1.3799-0.4795-1.3799-1.4395c0-0.4395,0.1592-0.7998,0.4795-1.0801c4.3203-3.6396,8.0801-7.8604,11.2803-12.6602
				c1.04-1.5596,2.2393-2.3398,3.5996-2.3398c1.2803,0,2.4199,0.7197,3.4209,2.1602c3.0391,4.3193,6.999,8.5195,11.8799,12.5996
				C1027.7197,30.001,1027.9004,30.3809,1027.9004,30.8203z M1027.1201,64.6611c0,0.96-0.501,1.4395-1.5,1.4395
				c-0.3604,0-0.6406-0.0801-0.8398-0.2402c-5.7607-3.8789-9.9404-8.5791-12.54-14.0996
				c-2.2412,5.4004-6.2803,10.1006-12.1201,14.0996c-0.2803,0.2002-0.5801,0.3008-0.9004,0.3008c-0.96,0-1.4395-0.501-1.4395-1.5
				c0-0.5205,0.2188-0.9209,0.6602-1.2002c2.9189-1.9199,5.4189-4.0996,7.5-6.54c2.3994-2.8799,3.8789-5.7598,4.4395-8.6396h-5.3994
				c-3.2012,0-4.8008-1.5996-4.8008-4.8008v-3.7793c0-3.2002,1.5996-4.8008,4.8008-4.8008h5.6396v-5.5195h-4.9199
				c-0.8809,0-1.3203-0.4395-1.3203-1.3203c0-0.8789,0.4395-1.3193,1.3203-1.3193h12.96c0.8398,0,1.2598,0.4404,1.2598,1.3193
				c0,0.8809-0.4199,1.3203-1.2598,1.3203H1013.5v5.5195h6.0596c3.2002,0,4.8008,1.6006,4.8008,4.8008v3.7793
				c0,3.2012-1.6006,4.8008-4.8008,4.8008h-5.8193c2.1191,5.7998,6.3594,10.8398,12.7197,15.1191
				C1026.8994,63.6797,1027.1201,64.1006,1027.1201,64.6611z M1010.6201,45.7012v-8.2207h-5.04
				c-1.7607,0-2.6396,0.8809-2.6396,2.6406v2.9395c0,1.7607,0.8789,2.6406,2.6396,2.6406H1010.6201z M1021.6602,43.0605v-2.9395
				c0-1.7598-0.8809-2.6406-2.6406-2.6406H1013.5v8.2207h5.5195C1020.7793,45.7012,1021.6602,44.8213,1021.6602,43.0605z"/>
		</g>
	</g>
</g>
</svg>
