<?xml version="1.0" encoding="utf-8"?>
<!-- Generator: Adobe Illustrator 25.2.1, SVG Export Plug-In . SVG Version: 6.00 Build 0)  -->
<svg version="1.1" id="レイヤー_1" xmlns="http://www.w3.org/2000/svg" xmlns:xlink="http://www.w3.org/1999/xlink" x="0px"
	 y="0px" viewBox="0 0 1040 80" style="enable-background:new 0 0 1040 80;" xml:space="preserve">
<style type="text/css">
	.st0{fill:#1E1E28;}
</style>
<g>
	<g>
		<g>
			<path class="st0" d="M34.5996,47.0811c0,0.5996-0.2393,1.1299-0.7197,1.5898c-0.4795,0.46-1,0.6895-1.5596,0.6895
				c-0.6807,0-1.2607-0.2998-1.7402-0.8994c-0.8809-1.0801-2.1807-2.6406-3.9004-4.6797v21.5996
				c0,1.4795-0.7598,2.2197-2.2793,2.2197c-1.5215,0-2.2803-0.7402-2.2803-2.2197V44.8604c-2.2002,2.5605-4.3203,4.7402-6.3604,6.54
				c-0.4795,0.3604-0.96,0.54-1.4395,0.54c-0.6006,0-1.1406-0.249-1.6201-0.75c-0.4805-0.499-0.7197-1.0498-0.7197-1.6494
				c0-0.6797,0.3193-1.2598,0.96-1.7402c2.2393-1.8398,4.2988-3.8193,6.1797-5.9404c4.3994-5.04,7.4189-10.2988,9.0596-15.7793
				H14.9199c-1.4805,0-2.2197-0.7803-2.2197-2.3398c0-1.5205,0.7393-2.2803,2.2197-2.2803h6.0605v-7.0205
				c0-1.4795,0.7588-2.2197,2.2793-2.2197c1.5195,0,2.2803,0.7402,2.2803,2.2197v7.0205h5.4004c1.5195,0,2.2793,0.6807,2.2793,2.04
				c0,0.0801,0,0.2002,0,0.3594c-0.04,0.1611-0.0596,0.2803-0.0596,0.3604c-1.0801,4.96-2.9805,9.5996-5.7002,13.9199
				c2.7598,2.8799,4.959,5.3809,6.5996,7.5C34.4199,46.1211,34.5996,46.6006,34.5996,47.0811z M65.6797,50.501
				c0,1.5205-0.7598,2.2803-2.2793,2.2803H52.2998v12.5996c0,1.4795-0.7598,2.2197-2.2803,2.2197s-2.2793-0.7402-2.2793-2.2197
				V52.7812H37.2998c-1.5205,0-2.2803-0.7598-2.2803-2.2803v-29.04c0-1.5195,0.7598-2.2803,2.2803-2.2803h10.4404v-4.7402
				c0-1.4795,0.7588-2.2197,2.2793-2.2197s2.2803,0.7402,2.2803,2.2197v4.7402h11.1006c1.5195,0,2.2793,0.7607,2.2793,2.2803V50.501
				z M47.7402,33.4004v-9.6592h-8.1602v9.6592H47.7402z M47.7402,48.2207V37.9609h-8.1602v10.2598H47.7402z M61.1201,33.4004
				v-9.6592h-8.8203v9.6592H61.1201z M61.1201,48.2207V37.9609h-8.8203v10.2598H61.1201z"/>
			<path class="st0" d="M94.1797,15.4609c0,1-0.5195,1.6797-1.5596,2.04c-2.0801,0.7598-4.2002,1.4395-6.3604,2.04v8.6396h5.2207
				c1.5195,0,2.2793,0.7607,2.2793,2.2803c0,1.5205-0.7598,2.2803-2.2793,2.2803h-5.2207v1.2598c1.0801,1.4395,3.04,4.4395,5.8799,9
				c0.2402,0.4404,0.3604,0.8604,0.3604,1.2598c0,0.6406-0.2402,1.2002-0.7197,1.6797c-0.4805,0.4805-1.0205,0.7207-1.6201,0.7207
				c-0.7607,0-1.54-0.6602-2.3398-1.9805c-0.5205-0.999-1.041-2-1.5605-3v23.6396c0,1.4795-0.7598,2.2207-2.2793,2.2207
				c-1.5215,0-2.2803-0.7412-2.2803-2.2207V43.4209C79.9795,47.9414,78.0791,51.4814,76,54.041
				c-0.4805,0.5996-1.041,0.8994-1.6797,0.8994c-0.6006,0-1.1211-0.2393-1.5605-0.7197c-0.4404-0.4795-0.6602-1.04-0.6602-1.6797
				c0-0.5195,0.1396-1.0205,0.4199-1.5c3-5,4.6406-7.7402,4.9209-8.2207c2.04-3.7588,3.4199-7.1191,4.1396-10.0791h-6.6602
				c-1.4805,0-2.2197-0.7598-2.2197-2.2803c0-1.5195,0.7393-2.2803,2.2197-2.2803h6.7803v-7.5
				c-2.1211,0.4805-4.1201,0.8809-6,1.2002c-0.1201,0.04-0.2803,0.0596-0.4805,0.0596c-0.6396,0-1.1602-0.2393-1.5596-0.7197
				c-0.4004-0.4795-0.6006-1.0195-0.6006-1.6201c0-1.2002,0.6201-1.959,1.8604-2.2803c1.8398-0.3193,3.6396-0.6592,5.4004-1.0195
				c4.1992-0.9199,7.7793-1.9395,10.7393-3.0596c0.3203-0.1201,0.6201-0.1807,0.9004-0.1807c0.6396,0,1.1699,0.2402,1.5898,0.7207
				C93.9697,14.2607,94.1797,14.8213,94.1797,15.4609z M98.5,36.1611c-0.2402,2.1201-0.46,4.2402-0.6602,6.3594
				c-0.6406,4.9199-1.5205,9.7002-2.6396,14.3398c-0.2803,1.1611-1.001,1.7402-2.1602,1.7402c-0.5996,0-1.1396-0.21-1.6201-0.6299
				c-0.4795-0.4199-0.7197-0.9492-0.7197-1.5898c0-0.2402,0.0195-0.4395,0.0596-0.5996c1.5996-6.8799,2.7197-13.5,3.3604-19.8604
				c0.2402-1.3994,1.04-2.1006,2.3994-2.1006c1.3203,0,1.9805,0.6602,1.9805,1.9805V36.1611z M122.5596,18.7012
				c0,0.2803-0.0205,0.5-0.0596,0.6592c-4.1602,16.7207-9.9209,29.3613-17.2803,37.9209v1.5c0,1.2803,0.5801,2.0996,1.7402,2.46
				c0.5596,0.1602,1.7002,0.2393,3.4199,0.2393c2.4395,0,3.999-0.1396,4.6797-0.4199c1-0.3594,1.6396-1.2793,1.9209-2.7598
				c0.2393-1.2002,0.3594-3.6602,0.3594-7.3799c0-1.5195,0.7598-2.2803,2.2803-2.2803c1.5195,0,2.2803,0.7607,2.2803,2.2803
				c0,4.7607-0.2607,8.1201-0.7803,10.0801c-0.6006,2.1191-1.7207,3.54-3.3604,4.2598c-1.3604,0.5596-3.8203,0.8398-7.3799,0.8398
				c-3.2803,0-5.46-0.2002-6.54-0.5996c-1.5205-0.6006-2.4404-1.8408-2.7598-3.7197c-0.8008,0.7998-2.9199,2.5195-6.3604,5.1592
				c-0.4795,0.3604-0.9404,0.54-1.3799,0.54c-0.5996,0-1.1396-0.25-1.6201-0.75C91.2402,66.2305,91,65.6807,91,65.0811
				c0-0.7207,0.2998-1.3008,0.9004-1.7402c1.6396-1.2393,2.7393-2.0996,3.2998-2.5801c1.999-1.6396,3.8193-3.3799,5.46-5.2197
				V27.7012c0-1.5205,0.7588-2.2803,2.2803-2.2803c1.5195,0,2.2793,0.7598,2.2793,2.2803v22.2598
				c4.9199-6.7598,9.1807-17.3398,12.7803-31.7402c0.2793-1.1592,0.999-1.7402,2.1602-1.7402c0.6396,0,1.2002,0.2012,1.6797,0.6006
				C122.3203,17.4814,122.5596,18.0215,122.5596,18.7012z M114.46,23.3203c0,0.6406-0.2402,1.1914-0.7197,1.6504
				c-0.4805,0.46-1.0205,0.6904-1.6201,0.6904c-0.6807,0-1.2598-0.2793-1.7402-0.8408c-2.6807-3.0791-5.3203-5.6396-7.9199-7.6797
				c-0.6406-0.4795-0.96-1.0596-0.96-1.7402c0-0.5996,0.2295-1.1494,0.6904-1.6494c0.459-0.5,0.9893-0.75,1.5898-0.75
				c0.4395,0,0.8994,0.1797,1.3799,0.54c0.8398,0.6396,1.7188,1.3408,2.6396,2.0996c2.1201,1.8809,4.1406,3.9404,6.0605,6.1797
				C114.2598,22.3008,114.46,22.8018,114.46,23.3203z M127.9004,52.3008c0,1.4805-0.7803,2.2197-2.3408,2.2197
				c-1.2803,0-2.0195-0.6387-2.2197-1.9199c-0.96-6.2402-1.9795-11.5996-3.0596-16.0801c-0.041-0.1201-0.0605-0.2793-0.0605-0.4795
				c0-0.6797,0.2402-1.2393,0.7207-1.6807c0.4795-0.4395,1.0391-0.6592,1.6797-0.6592c1.2002,0,1.8994,0.5996,2.0996,1.7998
				c0.5195,2.1201,1.5801,7.5801,3.1807,16.3799V52.3008z"/>
			<path class="st0" d="M185.9199,22.001c0,7.96-0.2607,17.9805-0.7803,30.0596c-0.2393,5.6807-1.1201,9.5801-2.6396,11.7002
				c-1.5205,2.1201-4.1602,3.1797-7.9199,3.1797c-1.7998,0-4.0205-0.2002-6.6602-0.5996c-1.3604-0.2002-2.04-0.9805-2.04-2.3398
				c0-1.6396,0.7598-2.46,2.2803-2.46c0.5596,0,1.46,0.0801,2.7002,0.2402c1.2393,0.1602,2.1797,0.2393,2.8193,0.2393
				c2.4805,0,4.1797-0.6992,5.1006-2.0996c0.9189-1.3994,1.4795-4.0801,1.6797-8.04c0.4395-9.4395,0.6797-18.6201,0.7197-27.54
				H165.04c-1.6006,3.8398-3.4199,7.0605-5.46,9.6602c-0.4004,0.6807-0.9805,1.0195-1.7402,1.0195
				c-0.4404,0-0.8994-0.1396-1.3799-0.4199v26.46c0,1.5605-0.7803,2.3398-2.3398,2.3398h-17.4004
				c-1.5596,0-2.3398-0.7793-2.3398-2.3398V23.3203c0-1.5596,0.7803-2.3398,2.3398-2.3398h4.6807
				c0.5596-1.3193,1.3389-3.5791,2.3398-6.7793c0.2793-1.2002,1.0195-1.8008,2.2197-1.8008c0.5996,0,1.1494,0.21,1.6504,0.6309
				c0.499,0.4199,0.75,0.9697,0.75,1.6494c0,0.1602-0.041,0.3604-0.1201,0.6006c-0.2402,1.1201-0.8809,3.0205-1.9199,5.6992h7.7998
				c1.5596,0,2.3398,0.7803,2.3398,2.3398v7.0801c2.9189-4.2793,5.3193-9.7588,7.2002-16.4395
				c0.3193-1.1191,1.0391-1.6797,2.1602-1.6797c0.6387,0,1.1992,0.2002,1.6797,0.5996c0.4805,0.4004,0.7197,0.9404,0.7197,1.6201
				c0,0.3203-0.04,0.5605-0.1201,0.7197c-0.3203,1-0.7793,2.4805-1.3799,4.4404h16.8604
				C185.1396,19.6611,185.9199,20.4404,185.9199,22.001z M151.7803,39.7607V25.6611h-12.7207v14.0996H151.7803z M151.7803,58.7207
				V44.4404h-12.7207v14.2803H151.7803z M173.1396,49.541c0,0.6807-0.25,1.2295-0.75,1.6494s-1.0703,0.6299-1.71,0.6299
				c-1.04,0-1.7393-0.5186-2.0996-1.5596c-1.1201-3.3193-3.1201-7.46-6-12.4199c-0.1602-0.3193-0.2402-0.6992-0.2402-1.1396
				c0-0.6797,0.25-1.2607,0.75-1.7402c0.5-0.4805,1.0703-0.7197,1.71-0.7197c0.8398,0,1.46,0.4199,1.8604,1.2598
				c0.8398,1.5596,1.6992,3.1406,2.5801,4.7402c1.7598,3.3594,3,6.1797,3.7197,8.46
				C173.0801,49.0605,173.1396,49.3408,173.1396,49.541z"/>
			<path class="st0" d="M237.9404,22.6006c0,1.5205-0.8008,2.2803-2.4004,2.2803c-7.7207,0-16.5,0.1201-26.3398,0.3604
				c-3.4805,10.0791-6.7412,21.0205-9.7803,32.8193c-0.2803,1.1201-1.0605,1.6807-2.3398,1.6807
				c-1.6006,0-2.4004-0.6797-2.4004-2.04c0-0.2402,0.04-0.4805,0.1201-0.7207c3.2002-11.8799,6.3604-22.4189,9.4805-31.6201
				l-7.3203,0.3008c-1.4805,0.0801-2.2197-0.6602-2.2197-2.2207c0-1.4795,0.7393-2.2588,2.2197-2.3398
				c1.8398-0.0791,4.7998-0.1797,8.8799-0.2998l1.9199-5.4004c0.3203-0.9189,1.0801-1.3799,2.2803-1.3799
				c0.6396,0,1.209,0.1709,1.71,0.5107c0.5,0.3398,0.75,0.79,0.75,1.3496c0,0.2002-0.04,0.4004-0.1201,0.5996
				c-0.3604,0.9209-0.8799,2.3008-1.5596,4.1406c8.1992-0.1602,16.4395-0.2402,24.7197-0.2402
				C237.1396,20.3809,237.9404,21.1211,237.9404,22.6006z M246.8203,52.001c0,0.6807-0.2012,1.3105-0.6006,1.8896
				c-0.4004,0.5801-0.8799,0.8701-1.4395,0.8701c-0.3604,0-0.7412-0.1396-1.1406-0.4199c-1.7998-1.2793-3.4795-2.3398-5.04-3.1797
				c-0.0801,4.4004-1.2207,7.9199-3.4199,10.5596c-2.6006,3.0801-6.46,4.6201-11.5801,4.6201c-4.0801,0-7.5205-1-10.3193-3
				c-3.041-2.1602-4.5605-5.0596-4.5605-8.7002c0-3.5996,1.3896-6.5098,4.1699-8.7295c2.7803-2.2207,6.5107-3.3301,11.1904-3.3301
				c3.2793,0,6.54,0.5205,9.7803,1.5596c-0.1201-3.9199-0.3008-6.999-0.54-9.2402c-3.4805,0.041-8.3203,0.1406-14.5205,0.3008
				c-1.4805,0.0801-2.2197-0.6006-2.2197-2.04c0-1.4795,0.7393-2.2402,2.2197-2.2803c7-0.2402,15.2197-0.3604,24.6602-0.3604
				c1.4404,0,2.1602,0.7412,2.1602,2.2207c0,1.4395-0.7197,2.1592-2.1602,2.1592h-5.5195
				c0.2793,2.6006,0.4795,6.3008,0.5996,11.1006c1.4404,0.6396,3.8193,1.9795,7.1396,4.0195
				C246.4395,50.501,246.8203,51.1611,246.8203,52.001z M233.9805,50.8008v-1.9199c-3.2812-1.3994-6.5615-2.0996-9.8408-2.0996
				c-3.4004,0-6.0596,0.7002-7.9795,2.0996c-1.9199,1.4004-2.8799,3.2402-2.8799,5.5195c0,2.3613,1.0801,4.2402,3.2393,5.6406
				c1.9209,1.2402,4.2803,1.8594,7.0801,1.8594c3.5605,0,6.2402-1.1396,8.04-3.4199
				C233.2002,56.5215,233.9805,53.9609,233.9805,50.8008z"/>
			<path class="st0" d="M303.1602,62.9209c0,0.6797-0.25,1.2393-0.75,1.6797c-0.501,0.4395-1.0703,0.6602-1.71,0.6602
				c-0.96,0-1.6406-0.46-2.04-1.3799l-6.8398-15.1201h-23.5205l-6.7803,15.1201c-0.3994,0.9199-1.0791,1.3799-2.0391,1.3799
				c-0.6406,0-1.2109-0.2207-1.7109-0.6602c-0.5-0.4404-0.75-1-0.75-1.6797c0-0.3193,0.0801-0.6602,0.2402-1.0205L277.96,16.1807
				c0.5195-1.1191,1.2197-1.6797,2.0996-1.6797s1.5801,0.5605,2.1006,1.6797l20.7598,45.7197
				C303.0791,62.2607,303.1602,62.6016,303.1602,62.9209z M289.6602,44.0811l-9.6006-21.2402L270.46,44.0811H289.6602z"/>
			<path class="st0" d="M360.2803,62.9209c0,0.6797-0.251,1.2598-0.75,1.7402c-0.501,0.4795-1.0713,0.7197-1.71,0.7197
				c-0.8398,0-1.5-0.3896-1.9805-1.1699c-0.4795-0.7803-1.0605-2.5703-1.7402-5.3701c-0.4795-1.959-0.9395-3.9199-1.3799-5.8799
				c-0.96-3.5596-2.0801-6.1396-3.3594-7.7402c-1.8408-2.3193-4.4609-3.4795-7.8604-3.4795h-16.6797v21.1191
				c0,1.5605-0.7803,2.3408-2.3398,2.3408c-1.5605,0-2.3408-0.7803-2.3408-2.3408V18.041c0-1.5605,0.7803-2.3398,2.3408-2.3398
				h23.0391c4.2803,0,7.7598,1.1504,10.4404,3.4492c2.6797,2.3008,4.0205,5.3701,4.0205,9.21c0,2.8408-0.8701,5.3506-2.6104,7.5303
				c-1.7402,2.1807-3.9102,3.6904-6.5098,4.5303c1.7598,1.2803,3.1797,3.0205,4.2598,5.2197
				c0.6797,1.4004,1.3799,3.4404,2.0996,6.1201c0.5596,2.6006,1.4795,5.9199,2.7607,9.96
				C360.1797,62.1611,360.2803,62.5605,360.2803,62.9209z M355.2998,28.3604c0-2.4385-0.9502-4.3799-2.8496-5.8193
				c-1.9004-1.4404-4.4307-2.1602-7.5898-2.1602h-20.04v16.6797H344.5c2.7197,0,5.1396-0.7588,7.2598-2.2793
				C354.1201,33.1006,355.2998,30.9609,355.2998,28.3604z"/>
			<path class="st0" d="M385.54,40.6611c0.1592,0.7998-0.0596,1.4697-0.6602,2.0098c-0.5996,0.54-1.2998,0.8096-2.0996,0.8096
				c-1.2002,0-1.9404-0.5596-2.2207-1.6797c-0.7197-2.9189-2.6396-9.9004-5.7598-20.9404c-0.04-0.1992-0.0596-0.3994-0.0596-0.5996
				c0-0.6797,0.2998-1.2393,0.8994-1.6797c0.6006-0.4404,1.2607-0.6602,1.9805-0.6602c1.2002,0,1.959,0.5605,2.2803,1.6797
				C382.7393,29.6807,384.6191,36.7012,385.54,40.6611z M402.8203,37.7207c0.1592,0.7607-0.041,1.3906-0.6006,1.8896
				c-0.5605,0.501-1.2207,0.75-1.9795,0.75c-1.3203,0-2.1406-0.5791-2.46-1.7393c-1.7207-9.0801-3.1807-16-4.3799-20.7607
				c-0.041-0.1992-0.0605-0.3994-0.0605-0.5996c0-0.6797,0.2705-1.2295,0.8105-1.6504c0.54-0.4199,1.1699-0.6299,1.8896-0.6299
				c1.3203,0,2.1201,0.6211,2.4004,1.8604C400.1592,24.5205,401.6201,31.4805,402.8203,37.7207z M426.04,23.9209
				c0,0.3604-0.1006,0.7197-0.2998,1.0801c-6.9209,12.6807-13.7607,25.9404-20.5205,39.7803c-0.4795,0.999-1.2803,1.5-2.3994,1.5
				c-0.7207,0-1.3604-0.2314-1.9199-0.6904c-0.5605-0.46-0.8408-1.0107-0.8408-1.6504c0-0.2803,0.0996-0.6201,0.3008-1.0195
				c2.8799-5.96,9.7197-19.3203,20.5195-40.0801c0.4805-0.9199,1.2393-1.3799,2.2803-1.3799c0.7588,0,1.4297,0.2402,2.0098,0.7197
				C425.749,22.6611,426.04,23.2412,426.04,23.9209z"/>
			<path class="st0" d="M485.5,25.9004c0,6.4004-6.9004,13.2607-20.7002,20.5801c-0.5996,0.3213-1.1602,0.4805-1.6797,0.4805
				c-1.6006,0-2.4004-0.7803-2.4004-2.3398c0-1.04,0.46-1.8008,1.3799-2.2803c4.4404-2.2393,8.2402-4.6201,11.4004-7.1396
				c4.1191-3.2793,6.1797-6.1201,6.1797-8.5205c0-3.5596-3.1797-5.3398-9.54-5.3398c-8.6396,0-19.3604,0.6602-32.1592,1.9795
				c-0.9209,0.0811-1.6504-0.1191-2.1904-0.5996c-0.54-0.4795-0.8096-1.0801-0.8096-1.7998c0-1.6797,0.8594-2.5996,2.5791-2.7598
				c13.0801-1.2393,24.2803-1.8604,33.6006-1.8604c4.4795,0,7.9893,0.8311,10.5303,2.4902
				C484.2295,20.4512,485.5,22.8213,485.5,25.9004z M460.3604,33.041c-2.9209,9.4795-5.5801,19.7607-7.9805,30.8398
				c-0.3203,1.5195-1.2598,2.2803-2.8203,2.2803c-0.6807,0-1.2695-0.2012-1.7695-0.6006c-0.501-0.4004-0.75-0.9404-0.75-1.6201
				c0-0.1602,0.0195-0.3398,0.0596-0.54c2.1602-9.6387,4.8398-20.04,8.04-31.1992c0.3203-1.1602,1.2002-1.7402,2.6406-1.7402
				c0.6797,0,1.29,0.1904,1.8301,0.5703s0.8096,0.8691,0.8096,1.4697C460.4199,32.6611,460.3994,32.8408,460.3604,33.041z"/>
			<path class="st0" d="M545.7402,37.1211c0,1.6797-0.9209,2.5195-2.7598,2.5195c-15.4414,0-30.6406,0.3604-45.6006,1.0801
				c-0.8008,0.04-1.4307-0.21-1.8896-0.75c-0.4609-0.54-0.6904-1.1699-0.6904-1.8896c0-1.6396,0.8604-2.5,2.5801-2.5801
				c16.96-0.6006,32.1602-0.9004,45.6006-0.9004C544.8193,34.6006,545.7402,35.4404,545.7402,37.1211z"/>
			<path class="st0" d="M604.54,19.8408c0,0.5996-0.1904,1.1504-0.5703,1.6504s-0.8906,0.7705-1.5293,0.8096
				c-6.2402,0.2803-12.4004,2.8203-18.4805,7.6201c-6.3604,5.04-9.54,10.2998-9.54,15.7803c0,8.8398,6.6797,13.5205,20.04,14.04
				c1.5195,0.0801,2.2803,0.8604,2.2803,2.3398c0,0.7588-0.2607,1.4102-0.7803,1.9502c-0.5205,0.5391-1.2207,0.7891-2.0996,0.75
				c-7.2002-0.3213-12.8809-1.7812-17.04-4.3809c-5.0811-3.1992-7.6201-7.999-7.6201-14.3994c0-4.6807,1.8994-9.2793,5.7002-13.7998
				c3.4795-4.0801,7.8193-7.3398,13.0195-9.7803c-4.6406,0.1602-14.4209,0.7002-29.3398,1.6201
				C556.8594,24.1611,556,23.3613,556,21.6406c0-1.5996,0.8398-2.46,2.5195-2.5801c17.6406-1.0801,32.1602-1.6201,43.5605-1.6201
				C603.7197,17.4404,604.54,18.2412,604.54,19.8408z M597.4004,34.4805c-0.2012,0.9209-0.8008,1.3799-1.8008,1.3799
				c-1.4795,0-2.0996-0.5996-1.8594-1.7998c0.1992-0.96,0.7588-3.2402,1.6797-6.8398c0.2002-0.8398,0.8193-1.2598,1.8604-1.2598
				c0.5596,0,1.0293,0.1602,1.4102,0.4795c0.3789,0.3213,0.5098,0.7412,0.3896,1.2607
				C598.6396,29.3809,598.0801,31.6406,597.4004,34.4805z M603.8799,34.4805c-0.2002,0.9209-0.8008,1.3799-1.7998,1.3799
				c-1.4805,0-2.0801-0.5996-1.7998-1.7998c0.3193-1.4395,0.8594-3.7197,1.6201-6.8398c0.1992-0.8398,0.8398-1.2598,1.9199-1.2598
				c0.5195,0,0.9688,0.1602,1.3496,0.4795c0.3799,0.3213,0.5098,0.7412,0.3896,1.2607
				C605.1191,29.3809,604.5596,31.6406,603.8799,34.4805z"/>
			<path class="st0" d="M659.4404,47.9805c0,5.4004-1.791,9.6514-5.3701,12.75c-3.5811,3.0996-8.5107,4.6504-14.79,4.6504
				c-10.3203,0-16.6602-3.999-19.0205-12c-0.0801-0.2002-0.1201-0.4199-0.1201-0.6602c0-0.6396,0.25-1.1797,0.75-1.6201
				c0.5-0.4395,1.0508-0.6602,1.6504-0.6602c1.1592,0,1.8994,0.5811,2.2197,1.7402c1.5195,5.6807,6.3604,8.5205,14.5205,8.5205
				c4.7598,0,8.5098-1.1299,11.25-3.3906c2.7393-2.2588,4.1094-5.3291,4.1094-9.21c0-7.2793-4.3799-10.9199-13.1396-10.9199
				c-6,0-11.2803,1.9199-15.8398,5.7598c-0.6006,0.5205-1.2402,0.7803-1.9199,0.7803c-1.3203,0-1.9805-0.7998-1.9805-2.4004
				c0-3.1191,0.2197-7.0195,0.6602-11.6992c0.3994-3.9199,0.7803-7.8203,1.1396-11.7002c0.1201-1.4404,0.9004-2.1602,2.3408-2.1602
				h29.3398c1.5596,0,2.3398,0.7803,2.3398,2.3398c0,1.5605-0.7803,2.3398-2.3398,2.3398h-27.1807l-1.3193,16.1406
				c4.7598-2.6797,9.6797-4.0205,14.7598-4.0205c5.4395,0,9.7197,1.2598,12.8398,3.7803
				C657.7393,39.0215,659.4404,42.9014,659.4404,47.9805z"/>
			<path class="st0" d="M727.96,40.8408c0,1.3604-0.7402,2.04-2.2197,2.04h-41.4004v3.2402h37.2598
				c1.5996,0,2.3604,0.6602,2.2803,1.9795c0,5.8008-0.2402,9.9209-0.7197,12.3604c-0.8398,4.2793-3.8604,6.4199-9.0605,6.4199
				c-1.2803,0-2.8398-0.1406-4.6797-0.4199c-1.2803-0.2012-1.9199-0.9209-1.9199-2.1602c0-0.6807,0.2402-1.2598,0.7197-1.7402
				h-32.3994c-1.1611,0-1.7402-0.7588-1.7402-2.2793v-8.4609c0-1.4785,0.7598-2.2197,2.2803-2.2197
				c1.5596,0,2.3398,0.7412,2.3398,2.2197v6.1807h11.1602v-7.9199h-7.9199c-1.5215,0-2.2803-0.7598-2.2803-2.2803V20.4404
				c0-1.5195,0.7588-2.2793,2.2803-2.2793h11.46c0.6797-0.9199,1.6592-2.4395,2.9395-4.5605
				c0.4395-0.7998,1.0596-1.2002,1.8604-1.2002c0.5996,0,1.1494,0.2207,1.6494,0.6602c0.5,0.4404,0.75,0.96,0.75,1.5605
				c0,0.4004-0.0996,0.7793-0.2998,1.1396c-0.3594,0.4805-0.8994,1.2803-1.6201,2.4004h16.9805
				c1.5195,0,2.2803,0.7598,2.2803,2.2793v13.0205c0,1.5205-0.7607,2.2803-2.2803,2.2803h-31.3203v3h41.4004
				C727.2197,38.7412,727.96,39.4414,727.96,40.8408z M713.2598,25.0605v-3.1797h-28.9199v3.1797H713.2598z M713.2598,31.9609
				v-3.2402h-28.9199v3.2402H713.2598z M719.0801,50.0811h-24.6602v7.9199H706.54v-4.0801c0-1.4795,0.7598-2.2197,2.2803-2.2197
				c1.4795,0,2.2197,0.7402,2.2197,2.2197v6.1201c0,0.7197-0.2002,1.2803-0.5996,1.6797c1.999,0.2012,3.4199,0.2998,4.2598,0.2998
				c1.2793,0,2.2197-0.21,2.8193-0.6299c0.6006-0.4199,0.9805-1.209,1.1406-2.3701
				C718.9395,57.1816,719.0801,54.2012,719.0801,50.0811z"/>
			<path class="st0" d="M787.6602,63.7012c0,1.5195-0.7607,2.2793-2.2803,2.2793h-26.7002c-7.2803,0-12.4004-1.6406-15.3594-4.9199
				c-2.2803,2.3604-4.7012,4.3799-7.2607,6.0605c-0.4404,0.2793-0.8799,0.4199-1.3193,0.4199c-0.6006,0-1.1201-0.2402-1.5605-0.7207
				c-0.4404-0.4795-0.6602-1.04-0.6602-1.6797c0-0.8008,0.3398-1.4609,1.0205-1.9795c3.5996-2.7607,6.1592-5.0596,7.6797-6.9004
				V39.041h-6.2393c-1.5605,0-2.3408-0.7803-2.3408-2.3398c0-1.5605,0.7803-2.3408,2.3408-2.3408h8.5791
				c1.5605,0,2.3408,0.7803,2.3408,2.3408v18.4795c0,4.041,4.2793,6.0605,12.8398,6.0605h26.5195c0.7207,0,1.2998,0.25,1.7402,0.75
				C787.4395,62.4912,787.6602,63.0605,787.6602,63.7012z M747.3398,22.7207c0,0.5996-0.2305,1.1201-0.6895,1.5605
				c-0.4609,0.4404-0.9902,0.6592-1.5908,0.6592c-0.5996,0-1.1201-0.2188-1.5596-0.6592c-2.04-2.1201-4.7002-4.1797-7.9805-6.1807
				c-0.7998-0.4395-1.1992-1.0801-1.1992-1.9199c0-0.6396,0.2295-1.209,0.6895-1.71c0.46-0.5,1.0098-0.75,1.6504-0.75
				c0.3994,0,0.7998,0.1201,1.2002,0.3604c1.0391,0.6396,2.04,1.3193,3,2.04c2.2793,1.6406,4.1992,3.2803,5.7598,4.9199
				C747.0996,21.5615,747.3398,22.1211,747.3398,22.7207z M762.0996,56.6211c0,0.6807-0.25,1.2295-0.75,1.6494
				s-1.0703,0.6299-1.71,0.6299c-1.1602,0-1.9004-0.5596-2.2197-1.6797c-1.7207-5.6797-4.7402-12.7393-9.0596-21.1797
				c-0.1611-0.2793-0.2402-0.6602-0.2402-1.1406c0-0.4395,0.0791-0.7988,0.2402-1.0801c1.1191-2.1191,2.1592-4.1992,3.1201-6.2393
				c2.3193-4.8398,4.0996-8.9795,5.3398-12.4199c0.3594-1,1.1191-1.5,2.2793-1.5c1.5205,0,2.2803,0.6807,2.2803,2.04
				c0,0.3203-0.0596,0.6592-0.1797,1.0195c-1.4404,4.2402-4.1611,10.3408-8.1602,18.2998
				c4.3203,8.4805,7.2998,15.4199,8.9404,20.8203C762.0596,56.1211,762.0996,56.3809,762.0996,56.6211z M773.7998,56.6211
				c0,0.6807-0.25,1.2295-0.75,1.6494s-1.0703,0.6299-1.71,0.6299c-1.1201,0-1.8398-0.5596-2.1602-1.6797
				c-1.7197-5.6797-4.7607-12.7393-9.1201-21.1797c-0.1602-0.3604-0.2393-0.7402-0.2393-1.1406
				c0-0.3594,0.0791-0.7197,0.2393-1.0801c1.1201-2.1191,2.1602-4.1992,3.1201-6.2393c2.3193-4.8398,4.0996-8.9795,5.3398-12.4199
				c0.3604-1,1.1406-1.5,2.3408-1.5c1.4795,0,2.2197,0.6807,2.2197,2.04c0,0.3203-0.0605,0.6592-0.1797,1.0195
				c-1.4404,4.2402-4.1611,10.3408-8.1602,18.2998c1.6797,3.3213,3.0791,6.2207,4.2002,8.7002
				c2.1592,4.7207,3.7393,8.7598,4.7393,12.1201C773.7598,56.1211,773.7998,56.3809,773.7998,56.6211z M786.04,56.6211
				c0,0.6807-0.25,1.2295-0.75,1.6494c-0.501,0.4199-1.0703,0.6299-1.71,0.6299c-1.1201,0-1.8408-0.5596-2.1602-1.6797
				c-1.7207-5.6797-4.7607-12.7393-9.1201-21.1797c-0.1201-0.2793-0.1797-0.6602-0.1797-1.1406
				c0-0.4395,0.0596-0.7988,0.1797-1.0801c1.1191-2.1191,2.1602-4.1992,3.1201-6.2393c2.3193-4.8398,4.0996-8.9795,5.3398-12.4199
				c0.3604-1,1.1406-1.5,2.3398-1.5c1.4795,0,2.2207,0.6807,2.2207,2.04c0,0.3203-0.0605,0.6592-0.1807,1.0195
				c-1.5596,4.4805-4.2803,10.5811-8.1592,18.2998c1.6797,3.2803,3.0791,6.1807,4.1992,8.7002
				c2.1602,4.7207,3.7402,8.7598,4.7402,12.1201C786,56.001,786.04,56.2607,786.04,56.6211z"/>
			<path class="st0" d="M821.8604,43.4805c0,0.6406-0.3408,1.3008-1.0205,1.9805c-4.6006,4.6006-8.9609,6.8994-13.0801,6.8994
				c-3,0-5.3994-1.1191-7.2002-3.3594c-1.9199-2.4004-2.8799-5.7803-2.8799-10.1406c0-5.8799,1.0205-13.0791,3.0605-21.5996
				c0.3193-1.2793,1.1787-1.9199,2.5801-1.9199c0.7197,0,1.3398,0.2002,1.8594,0.5996c0.5195,0.4004,0.7803,0.9404,0.7803,1.6201
				c0,0.2012-0.0205,0.4004-0.0596,0.6006c-2.2012,8.3203-3.3008,15.1602-3.3008,20.5195c0,5.7598,1.8799,8.6396,5.6406,8.6396
				c2.959,0,6.1396-1.8984,9.54-5.6992c0.3994-0.4404,0.8994-0.6602,1.5-0.6602c0.6387,0,1.2295,0.25,1.7695,0.75
				S821.8604,42.8008,821.8604,43.4805z M842.0801,17.1406c-0.2012,17.4404-3.5996,33.2607-10.2002,47.46
				c-0.5205,1.1602-1.4199,1.7402-2.7002,1.7402c-0.6807,0-1.2803-0.2207-1.7998-0.6602c-0.5205-0.4404-0.7803-0.96-0.7803-1.5596
				c0-0.4004,0.0605-0.7207,0.1807-0.96c6.5596-13.3203,9.8994-28.7197,10.0195-46.2002c0-1.4404,0.8799-2.1602,2.6406-2.1602
				C841.1992,14.8008,842.0801,15.5811,842.0801,17.1406z"/>
			<path class="st0" d="M906.4004,30.9404c0,1.3604-0.6406,2.1406-1.9199,2.3408c-7.8809,1.2803-14.9609,3.3594-21.2402,6.2393
				c5.1602,2.4004,9.7998,5.46,13.9199,9.1807c0.3994,0.3594,0.5996,0.7793,0.5996,1.2598c0,0.5996-0.2607,1.1602-0.7793,1.6797
				c-0.5205,0.5205-1.1406,0.7803-1.8604,0.7803c-0.6006,0-1.1807-0.2402-1.7402-0.7197
				c-5.3604-4.4795-10.4805-7.6807-15.3604-9.6006c-7.1201,3.6807-10.6797,7.5205-10.6797,11.5205
				c0,4.7998,5.5205,7.2207,16.5605,7.2598c5.4795,0,10.5791-0.2793,15.2998-0.8398c0.8398-0.0801,1.4893,0.0996,1.9502,0.54
				c0.459,0.4404,0.6895,1,0.6895,1.6797c0,1.4795-0.8008,2.2998-2.3994,2.46c-5.8809,0.5195-11.0615,0.7803-15.54,0.7803
				c-14.5605,0-21.8408-3.9004-21.8408-11.7002c0-4.6797,3.3008-9.1797,9.9004-13.5c-2.8408-0.6396-5.8604-0.9004-9.0596-0.7803
				c-0.7607,0.1201-1.541,0.54-2.3408,1.2607c-0.4795,0.4404-0.9805,0.6592-1.5,0.6592c-0.6807,0-1.29-0.2295-1.8291-0.6895
				c-0.54-0.46-0.8105-1.0098-0.8105-1.6504c0-0.5996,0.2002-1.0996,0.5996-1.5c2.6406-2.7197,6.4209-6.9395,11.3408-12.6602
				c-2.6006,0.0811-6.3008,0.1807-11.1006,0.3008c-1.6406,0.04-2.46-0.7002-2.46-2.2207c0-1.5195,0.8193-2.2998,2.46-2.3398
				l14.7598-0.2998c1.0801-1.3594,2.6602-3.2998,4.7402-5.8203c0.6006-0.7197,1.3799-1.0801,2.3398-1.0801
				c0.6797,0,1.29,0.2012,1.8301,0.6006c0.54,0.4004,0.8105,0.8604,0.8105,1.3799c0,0.3594-0.1201,0.7002-0.3604,1.0195
				c-0.5996,0.8008-1.6406,2.0605-3.1201,3.7803l17.9404-0.1797c1.5596,0,2.3398,0.7197,2.3398,2.1602
				c0,1.5996-0.7803,2.3994-2.3398,2.3994c-6.3213,0-13.5,0.0811-21.54,0.2402c-1.5205,1.7998-4.6406,5.3008-9.3604,10.5
				c3.8398-0.1201,7.8203,0.4795,11.9404,1.7998c7.4795-3.8398,16.0996-6.6396,25.8594-8.3994
				c0.2402-0.04,0.4805-0.0605,0.7207-0.0605C905.5391,28.7207,906.4004,29.4609,906.4004,30.9404z"/>
			<path class="st0" d="M967.9004,53.8008c0,0.6406-0.2402,1.2002-0.7207,1.6797c-0.4795,0.4805-1.04,0.7207-1.6797,0.7207
				c-0.5996,0-1.1201-0.2197-1.5596-0.6602c-3.8008-3.9199-6.7207-7.2197-8.7607-9.9004c-3-3.96-5.3799-8.0996-7.1396-12.4199v17.04
				h7.2598c1.5605,0,2.3398,0.7803,2.3398,2.3398c0,1.5605-0.7793,2.3398-2.3398,2.3398H948.04v10.1406
				c0,1.5596-0.7803,2.3398-2.3398,2.3398c-1.5605,0-2.3398-0.7803-2.3398-2.3398V54.9404h-7.0801
				c-1.5605,0-2.3398-0.7793-2.3398-2.3398c0-1.5596,0.7793-2.3398,2.3398-2.3398h7.0801v-17.04
				c-2.6807,6.5205-7.7607,13.8203-15.2402,21.9004c-0.4404,0.4795-1.041,0.7197-1.7998,0.7197c-0.8809,0-1.5605-0.3799-2.04-1.1396
				v10.3799c0,1.5596-0.7803,2.3398-2.3398,2.3398c-1.5605,0-2.3408-0.7803-2.3408-2.3398V34.4209
				c-1.2803,2.0801-2.4805,3.9404-3.5996,5.5801c-0.4404,0.6807-1.0195,1.0195-1.7402,1.0195c-0.6396,0-1.21-0.2393-1.71-0.7197
				s-0.75-1.0596-0.75-1.7402c0-0.4395,0.1592-0.8994,0.4805-1.3799c2.0791-3.0791,4.2393-6.7998,6.4795-11.1602
				c2.3193-4.5596,4.0801-8.6396,5.2803-12.2393c0.3604-1.04,1.0596-1.5605,2.0996-1.5605c0.6396,0,1.21,0.21,1.71,0.6299
				s0.75,0.9707,0.75,1.6504c0,0.1602-0.04,0.4404-0.1191,0.8398c-1.2412,3.6406-2.6406,7.1201-4.2002,10.4404v26.5195
				c0.0391-0.0801,0.1592-0.2197,0.3594-0.4199c7.6396-7.6396,13.1201-15.54,16.4404-23.7002h-12.4805
				c-1.5596,0-2.3398-0.7803-2.3398-2.3398s0.7803-2.3398,2.3398-2.3398h14.7607v-8.7002c0-1.5596,0.7793-2.3398,2.3398-2.3398
				c1.5596,0,2.3398,0.7803,2.3398,2.3398v8.7002h16.4404c1.5596,0,2.3398,0.7803,2.3398,2.3398s-0.7803,2.3398-2.3398,2.3398
				h-14.2803c3.0391,8.2002,8.6787,16.1611,16.9199,23.8799C967.6396,52.541,967.9004,53.1211,967.9004,53.8008z"/>
			<path class="st0" d="M978.0996,48.9404c-0.04,5.4004-0.6807,10.1611-1.9199,14.2803c-0.2803,0.9199-0.8799,1.3799-1.7998,1.3799
				c-0.5605,0-1.0498-0.1709-1.4697-0.5098c-0.4199-0.3408-0.6299-0.79-0.6299-1.3496c0-0.1201,0.0391-0.3203,0.1201-0.6006
				c1.4395-4.9199,2.1992-9.3389,2.2793-13.2598c0.04-1.2002,0.6006-1.7998,1.6807-1.7998
				C977.5195,47.0811,978.0996,47.7012,978.0996,48.9404z M997.5996,16.3008c0,1.3604-0.7197,2.04-2.1592,2.04h-6.7207v4.3203
				h5.8203c1.4404,0,2.1602,0.6592,2.1602,1.9795s-0.7197,1.9805-2.1602,1.9805h-5.8203v4.6797h5.8203
				c1.4404,0,2.1602,0.6807,2.1602,2.04c0,1.3203-0.7197,1.9795-2.1602,1.9795h-5.8203v4.8604h6.1807
				c1.4395,0,2.1592,0.7197,2.1592,2.1602v2.2197c0,5.9209-0.3799,11.3203-1.1396,16.2002c-0.6406,3.999-2.9199,6-6.8398,6
				c-0.7607,0-1.6406-0.0811-2.6396-0.2402c-1.2002-0.2002-1.8008-0.9199-1.8008-2.1602c0-1.5986,0.7207-2.3994,2.1602-2.3994
				h0.4199c1,0.2002,1.7002,0.2998,2.1006,0.2998c1.5596,0,2.4795-0.6797,2.7598-2.04c0.2402-1.0801,0.4199-2.5801,0.54-4.5
				c-0.2402,0.2012-0.5605,0.2998-0.96,0.2998c-0.6807,0-1.1006-0.3994-1.2598-1.2002c-0.041-0.2393-0.5811-2.2988-1.6201-6.1797
				c-0.0811-0.3193-0.1201-0.5791-0.1201-0.7803c0-1.1592,0.5-1.7393,1.5-1.7393c0.7197,0,1.2002,0.4795,1.4395,1.4395
				c0.3994,1.1611,0.8408,2.9609,1.3203,5.4004c0.1201-2.8398,0.1797-5.5996,0.1797-8.2803v-0.4199h-15.8398
				c-1.4395,0-2.1602-0.7197-2.1602-2.1602V16.4805c0-1.4395,0.7207-2.1602,2.1602-2.1602h18.1807
				C996.8799,14.3203,997.5996,14.9805,997.5996,16.3008z M984.7598,22.6611v-4.3203h-5.5801v4.3203H984.7598z M984.7598,31.3008
				v-4.6797h-5.5801v4.6797H984.7598z M984.7598,40.1807v-4.8604h-5.5801v4.8604H984.7598z M983.0801,58.1211
				c0,0.96-0.0205,1.6602-0.0605,2.0996c0,1.2402-0.5605,1.8604-1.6797,1.8604c-1.0801,0-1.6201-0.6396-1.6201-1.9199V57.041
				c0-1.0801,0-2.54,0-4.3799c-0.04-1.8398-0.0596-2.96-0.0596-3.3604V49.001c0-1.3203,0.54-1.9805,1.6201-1.9805
				c0.96,0,1.4395,0.6006,1.4395,1.7998C982.96,50.0205,983.0801,53.1211,983.0801,58.1211z M988.6602,57.5205
				c0,1.2402-0.5205,1.8604-1.5605,1.8604c-1,0-1.54-0.5996-1.6191-1.7998c-0.0811-1-0.501-3.8604-1.2607-8.5801
				c-0.04-0.1201-0.0596-0.2793-0.0596-0.4805c0-1.1592,0.5-1.7393,1.5-1.7393c0.8398,0,1.3398,0.5195,1.5,1.5596
				c0-0.0801,0.2188,0.9404,0.6602,3.0596c0.4395,2.2803,0.7197,4.2607,0.8398,5.9404
				C988.6602,57.3809,988.6602,57.4414,988.6602,57.5205z M1027.6602,64.9609c0,0.5996-0.21,1.1299-0.6299,1.5898
				c-0.4199,0.459-0.9307,0.6904-1.5303,0.6904c-0.3203,0-0.6807-0.1006-1.0801-0.3008c-1.6406-1.04-3.2002-2.2002-4.6797-3.4795
				c-3.4404-3.0391-6.0811-6.3994-7.9199-10.0801c-2.4805,5.9199-6.8203,10.5-13.0205,13.7402
				c-0.4004,0.1992-0.7598,0.2998-1.0801,0.2998c-0.6396,0-1.1904-0.25-1.6494-0.75c-0.4609-0.501-0.6904-1.0498-0.6904-1.6504
				c0-0.7598,0.3799-1.3408,1.1396-1.7393c1.8008-0.9199,3.4209-1.9805,4.8604-3.1807c3.4805-2.8799,5.8398-6.2402,7.0801-10.0801
				h-7.2002c-1.4395,0-2.1602-0.7197-2.1602-2.1602V35.6807c0-1.4395,0.7207-2.1602,2.1602-2.1602h8.2207v-4.2598h-4.9209
				c-1.4395,0-2.1592-0.7197-2.1592-2.1602l-2.7002,2.2197c-0.4404,0.3604-0.9004,0.54-1.3799,0.54
				c-0.5605,0-1.0605-0.2295-1.5-0.6895c-0.4414-0.46-0.6602-0.9902-0.6602-1.5898c0-0.6396,0.2793-1.1797,0.8398-1.6201
				c5.5996-4.5195,9.6992-8.6602,12.2998-12.4199c0.4395-0.6396,1.0996-0.96,1.9805-0.96c0.8789,0,1.5791,0.2998,2.0996,0.8994
				c4.04,4.5605,8.4199,8.46,13.1396,11.7002c0.6797,0.4805,1.0205,1.0801,1.0205,1.7998c0,0.6006-0.21,1.1309-0.6299,1.5898
				c-0.4199,0.4609-0.9102,0.6904-1.4697,0.6904c-0.4414,0-0.8408-0.1201-1.2002-0.3604c-1.2402-0.7988-2.5605-1.7393-3.96-2.8193
				c0.1592,0.4004,0.2393,0.7402,0.2393,1.0195c0,1.4404-0.7197,2.1602-2.1592,2.1602h-4.5605v4.2598h9.4199
				c1.4404,0,2.1602,0.7207,2.1602,2.1602v12.1797c0,1.4404-0.7197,2.1602-2.1602,2.1602H1015
				c2.0791,5.2803,5.8994,9.6406,11.46,13.0801C1027.2598,63.5,1027.6602,64.1211,1027.6602,64.9609z M1009.4805,43.3604v-5.5195
				h-6.8408v7.8604h6.7207C1009.4395,45.1816,1009.4805,44.4014,1009.4805,43.3604z M1018.96,25.001
				c-2.7998-2.2803-5.3203-4.7402-7.5596-7.3799c-2.0811,2.7207-4.3008,5.1602-6.6602,7.3193h13.6201
				C1018.6396,24.9404,1018.8398,24.9609,1018.96,25.001z M1021.0596,45.7012v-7.8604h-7.2598v6.6602
				c0,0.2402,0.04,0.6396,0.1201,1.2002H1021.0596z"/>
		</g>
	</g>
</g>
</svg>
