<?xml version="1.0" encoding="utf-8"?>
<!-- Generator: Adobe Illustrator 25.2.1, SVG Export Plug-In . SVG Version: 6.00 Build 0)  -->
<svg version="1.1" id="レイヤー_1" xmlns="http://www.w3.org/2000/svg" xmlns:xlink="http://www.w3.org/1999/xlink" x="0px"
	 y="0px" viewBox="0 0 1040 80" style="enable-background:new 0 0 1040 80;" xml:space="preserve">
<style type="text/css">
	.st0{fill:#1E1E28;}
</style>
<g>
	<g>
		<g>
			<path class="st0" d="M35.6797,47.6807c0,0.8398-0.29,1.5605-0.8701,2.1602s-1.29,0.9004-2.1299,0.9004
				c-0.8799,0-1.6602-0.3398-2.3398-1.0205c-1.2002-1.2002-2.0996-2.1992-2.7002-3v17.46c0,0.8398-0.3096,1.5801-0.9297,2.2197
				s-1.3496,0.96-2.1904,0.96c-0.8799,0-1.6191-0.3096-2.2197-0.9297c-0.5996-0.6201-0.8994-1.3496-0.8994-2.1895V47.4404
				c-1.6807,1.9199-2.9805,3.3408-3.9004,4.2607c-0.5996,0.5996-1.3408,0.8994-2.2197,0.8994c-0.8809,0-1.6309-0.3096-2.25-0.9297
				c-0.6211-0.6201-0.9307-1.3701-0.9307-2.25s0.3398-1.6396,1.0205-2.2803c6.1592-5.8398,10.6992-11.8203,13.6201-17.9395
				c0.2793-0.5605,0.0996-0.8408-0.54-0.8408H16.0596c-0.7998,0-1.4902-0.2891-2.0693-0.8691
				c-0.5801-0.5801-0.8701-1.2695-0.8701-2.0703c0-0.7998,0.29-1.4902,0.8701-2.0703c0.5791-0.5791,1.2695-0.8701,2.0693-0.8701
				H21.04V16.541c0-0.8799,0.3193-1.6396,0.96-2.2803c0.6396-0.6396,1.3994-0.96,2.2803-0.96c0.8789,0,1.6289,0.3203,2.25,0.96
				c0.6191,0.6406,0.9297,1.4004,0.9297,2.2803v5.9395h2.3398c2.9199,0,4.3799,1.1406,4.3799,3.4199
				c0,0.6406-0.1602,1.3408-0.4795,2.1006c-1.4004,3.2803-3.2607,6.7402-5.5801,10.3799c1.6396,2.001,3.8594,4.3604,6.6602,7.0801
				C35.3799,46.0215,35.6797,46.7607,35.6797,47.6807z M66.1602,48.8809c0,3.2002-1.6006,4.7998-4.7998,4.7998h-7.3799v10.2598
				c0,0.8799-0.3105,1.6299-0.9307,2.25s-1.3701,0.9307-2.25,0.9307s-1.6299-0.3105-2.25-0.9307s-0.9297-1.3701-0.9297-2.25V53.6807
				h-6.8398c-3.2012,0-4.7998-1.5996-4.7998-4.7998V26.9805c0-3.1992,1.5986-4.7998,4.7998-4.7998h6.8398v-5.7598
				c0-0.8799,0.3096-1.6299,0.9297-2.25s1.3701-0.9297,2.25-0.9297s1.6299,0.3096,2.25,0.9297s0.9307,1.3701,0.9307,2.25v5.7598
				h7.3799c3.1992,0,4.7998,1.6006,4.7998,4.7998V48.8809z M47.7402,34.9004v-6.7197h-4.5605c-0.8008,0-1.1992,0.4004-1.1992,1.2002
				v5.5195H47.7402z M47.7402,47.6807V40.541h-5.7598v5.9395c0,0.8008,0.3984,1.2002,1.1992,1.2002H47.7402z M59.9805,34.9004
				v-5.5195c0-0.7998-0.4004-1.2002-1.2002-1.2002h-4.9805v6.7197H59.9805z M59.9805,46.4805V40.541h-6.1807v7.1396h4.9805
				C59.5801,47.6807,59.9805,47.2812,59.9805,46.4805z"/>
			<path class="st0" d="M94.3604,30.4609c0,0.8008-0.291,1.4902-0.8701,2.0703c-0.5801,0.5801-1.2705,0.8691-2.0703,0.8691h-4.5596
				v1.2607c1.4795,2.6396,3.2793,5.2793,5.3994,7.9199c0.3994,0.4795,0.6006,1.04,0.6006,1.6797
				c0,0.7607-0.2705,1.4102-0.8105,1.9502s-1.1904,0.8096-1.9502,0.8096c-1,0-1.7598-0.4199-2.2793-1.2598l-0.96-1.5v19.7998
				c0,0.7998-0.291,1.5-0.8701,2.1006c-0.5801,0.5996-1.2705,0.8994-2.0703,0.8994c-0.8398,0-1.5508-0.2998-2.1299-0.8994
				c-0.5801-0.6006-0.8701-1.3008-0.8701-2.1006V45.4004c-0.8398,1.8408-1.8203,3.6807-2.9395,5.5205
				c-0.6006,0.96-1.4209,1.4395-2.4609,1.4395c-0.7598,0-1.4297-0.2891-2.0098-0.8691s-0.8701-1.25-0.8701-2.0107
				c0-0.5596,0.1807-1.0996,0.54-1.6201c3.2002-4.7188,5.7803-9.4395,7.7402-14.1592v-0.3008H76
				c-0.8008,0-1.4902-0.2891-2.0703-0.8691s-0.8701-1.2695-0.8701-2.0703c0-0.7998,0.29-1.4902,0.8701-2.0703
				c0.5801-0.5791,1.2695-0.8701,2.0703-0.8701h4.9199v-5.9395c-0.5996,0.1201-1.96,0.3203-4.0801,0.5996
				c-0.8398,0.1201-1.5898-0.1094-2.25-0.6895s-0.9902-1.29-0.9902-2.1309c0-0.7197,0.25-1.3496,0.75-1.8896
				s1.0898-0.8496,1.7705-0.9297c4.7197-0.6396,8.8594-1.54,12.4199-2.7002c0.2402-0.0801,0.5195-0.1201,0.8398-0.1201
				c0.7998,0,1.4795,0.2803,2.04,0.8398c0.5596,0.5605,0.8398,1.2402,0.8398,2.04c0,1.3604-0.6396,2.2607-1.9199,2.7002
				c-1,0.3203-2.1602,0.6602-3.4795,1.0195v7.2002h4.5596c0.7998,0,1.4902,0.291,2.0703,0.8701
				C94.0693,28.9707,94.3604,29.6611,94.3604,30.4609z M101.3799,34.1807c-0.6807,5.9209-1.6797,11.3398-3,16.2598
				c-0.4004,1.4805-1.3799,2.2207-2.9395,2.2207c-0.8008,0-1.5-0.29-2.1006-0.8701c-0.5996-0.5801-0.8994-1.29-0.8994-2.1299
				c0-0.04,0.0596-0.3604,0.1797-0.96c1.2793-4,2.3193-9.0605,3.1201-15.1807c0.1992-1.6797,1.1396-2.5195,2.8193-2.5195
				c0.8408,0,1.54,0.3203,2.1006,0.96C101.2197,32.6016,101.46,33.3408,101.3799,34.1807z M128.5,47.2607
				c0,0.8398-0.2998,1.5596-0.9004,2.1602c-0.5996,0.5996-1.3398,0.8994-2.2197,0.8994c-1.4395,0-2.3994-0.6797-2.8799-2.0391
				c-1.1201-3.1602-2.3799-6.0801-3.7803-8.7607c-0.2002-0.3994-0.3203-0.7793-0.3594-1.1396
				c-2.4004,5.6006-5.2002,10.5205-8.4004,14.7598v4.2598c0,1.001,0.1201,1.6406,0.3604,1.9199
				c0.2393,0.2812,0.8789,0.4209,1.9199,0.4209h1.6201c1.5596,0,2.5391-0.2803,2.9395-0.8408
				c0.3994-0.5596,0.6396-2.0596,0.7197-4.5c0.04-0.8398,0.3604-1.5693,0.9609-2.1895c0.5996-0.6201,1.3193-0.9297,2.1592-0.9297
				c0.8799,0,1.6396,0.3203,2.2803,0.96c0.6396,0.6396,0.9395,1.4004,0.9004,2.2793c-0.1602,4.9199-0.7803,8.0605-1.8604,9.4199
				s-3.3604,2.04-6.8398,2.04h-5.1006c-2.6797,0-4.4395-0.4004-5.2793-1.1992c-0.7207-0.6807-1.1006-2.2207-1.1406-4.6201
				c-1.8799,1.7607-3.7598,3.2793-5.6396,4.5596c-0.5205,0.3604-1.1201,0.54-1.7998,0.54c-0.8809,0-1.6309-0.3105-2.25-0.9297
				c-0.6211-0.6211-0.9297-1.3711-0.9297-2.25c0-1.2002,0.4795-2.1006,1.4395-2.7002c3.4805-2.2402,6.54-4.8193,9.1797-7.7402
				V29.4404c0-0.8789,0.3096-1.6289,0.9307-2.25c0.6191-0.6191,1.3691-0.9297,2.25-0.9297c0.8789,0,1.6289,0.3105,2.25,0.9297
				c0.6191,0.6211,0.9297,1.3711,0.9297,2.25v13.2002c3.3994-6.1592,5.9795-13.8193,7.7402-22.9795
				c0.3193-1.6807,1.3594-2.5205,3.1201-2.5205c0.8789,0,1.6201,0.3105,2.2197,0.9297c0.5996,0.6211,0.9004,1.3711,0.9004,2.25
				c0,0.2012-0.0215,0.4209-0.0605,0.6602c-1.2002,5.2803-2.6807,10.2002-4.4395,14.7607c0.5596-0.4805,1.2197-0.7207,1.9795-0.7207
				c1.2793,0,2.1992,0.5605,2.7598,1.6807c1.5996,3.1602,2.9795,6.3203,4.1406,9.4795C128.4404,46.501,128.5,46.8613,128.5,47.2607z
				 M114.3398,21.2207c0,0.9209-0.3203,1.7012-0.96,2.3398c-0.6406,0.6406-1.4004,0.96-2.2803,0.96
				c-0.5605,0-1.1006-0.1396-1.6191-0.4199c-2.2412-1.2393-4.7207-2.4199-7.4404-3.54c-1.3203-0.5596-1.9805-1.5596-1.9805-3
				c0-0.8789,0.3096-1.6396,0.9307-2.2793c0.6191-0.6396,1.3691-0.9609,2.25-0.9609c0.3994,0,0.7998,0.0811,1.2002,0.2402
				c3.1191,1.2402,5.8594,2.4805,8.2197,3.7207C113.7793,18.8418,114.3398,19.8213,114.3398,21.2207z"/>
			<path class="st0" d="M185.7402,39.4609c0,8.5195-0.2402,14.3799-0.7207,17.5801c-0.5195,3.7197-1.6191,6.1592-3.2998,7.3193
				c-1.4004,0.96-4,1.4404-7.7998,1.4404h-2.3398c-0.8809,0-1.6201-0.3105-2.2197-0.9297
				c-0.6006-0.6211-0.9004-1.3506-0.9004-2.1904c0-0.8789,0.2998-1.6289,0.9004-2.25c0.5996-0.6191,1.3389-0.9297,2.2197-0.9297
				h1.7402c2.1191,0,3.5195-0.3203,4.1992-0.96c0.8408-0.8398,1.3594-2.7393,1.5605-5.7002
				c0.1592-2.1201,0.2402-6.8799,0.2402-14.2803v-8.04c0-1.2002-0.6006-1.7998-1.8008-1.7998H166.54
				c-1,2.2402-2.2402,4.6006-3.7197,7.0801c-0.6406,1.041-1.5,1.5596-2.5801,1.5596c-0.9209,0-1.6807-0.3389-2.2803-1.0195v21.8398
				c0,3.2012-1.6006,4.7998-4.7998,4.7998h-13.3203c-3.2002,0-4.7998-1.5986-4.7998-4.7998V27.8203
				c0-3.1992,1.5996-4.7998,4.7998-4.7998h2.4004c0.7197-1.999,1.4189-4.3193,2.0996-6.96c0.4395-1.6396,1.5-2.46,3.1797-2.46
				c0.8799,0,1.6406,0.3213,2.2803,0.96c0.6396,0.6406,0.96,1.4004,0.96,2.2803c0,0.3203-0.04,0.6201-0.1201,0.9004
				c-0.5605,1.8398-1.1201,3.5996-1.6797,5.2793h4.2002c3.1992,0,4.7998,1.6006,4.7998,4.7998v4.3203
				c3-5.3594,5.2197-10.6797,6.6602-15.96c0.4395-1.5596,1.46-2.3398,3.0596-2.3398c0.8799,0,1.6201,0.3105,2.2207,0.9297
				c0.5996,0.6211,0.8994,1.3711,0.8994,2.25c0,0.2012-0.04,0.501-0.1201,0.9004c-0.3203,1.04-0.8398,2.5801-1.5596,4.6201h10.6201
				c3.999,0,6,2,6,6V39.4609z M151.6602,39.6406v-9.3594c0-0.7998-0.4004-1.2002-1.2002-1.2002h-7.7998
				c-0.8008,0-1.2002,0.4004-1.2002,1.2002v9.3594H151.6602z M151.6602,55.6006v-9.96H141.46v9.96
				c0,0.8008,0.3994,1.2002,1.2002,1.2002h7.7998C151.2598,56.8008,151.6602,56.4014,151.6602,55.6006z M173.9199,45.8203
				c0,0.8408-0.2998,1.5605-0.9004,2.1602c-0.5996,0.6006-1.3193,0.9004-2.1592,0.9004c-1.3203,0-2.2607-0.6201-2.8203-1.8604
				c-1.1611-2.5996-2.4209-5.04-3.7803-7.3193c-0.2402-0.3994-0.3594-0.9004-0.3594-1.5c0-0.8408,0.2891-1.5498,0.8691-2.1309
				c0.5801-0.5791,1.29-0.8691,2.1309-0.8691c1.1592,0,2.0186,0.4795,2.5801,1.4395c1.5596,2.5605,2.9395,5.1807,4.1396,7.8604
				C173.8193,44.9414,173.9199,45.3809,173.9199,45.8203z"/>
			<path class="st0" d="M237.2197,23.1406c0,0.8398-0.3096,1.5605-0.9297,2.1602c-0.6211,0.5996-1.3496,0.9004-2.1904,0.9004
				c-8.4805,0.04-16.2402,0.1602-23.2793,0.3594c-3.3604,9.7607-6.3213,19.6006-8.8799,29.5205
				c-0.4414,1.7197-1.5215,2.5801-3.2402,2.5801c-0.96,0-1.7705-0.3398-2.4307-1.0205c-0.6592-0.6797-0.9893-1.4795-0.9893-2.3994
				c0-0.3203,0.0391-0.6201,0.1201-0.9004c2.6396-9.5195,5.4395-18.6992,8.3994-27.54c-1.0801,0.04-2.7803,0.1201-5.0996,0.2402
				c-0.8809,0.04-1.6406-0.25-2.2803-0.8701c-0.6406-0.6201-0.96-1.3701-0.96-2.25c0-0.8398,0.29-1.5605,0.8701-2.1602
				c0.5791-0.5996,1.29-0.9199,2.1299-0.96c0.999-0.0391,3.5-0.1201,7.5-0.2402c0.7197-2.04,1.2598-3.5596,1.6201-4.5596
				c0.5195-1.4404,1.5596-2.1602,3.1201-2.1602c0.96,0,1.7598,0.3301,2.3994,0.9902s0.96,1.4307,0.96,2.3096
				c0,0.4004-0.0801,0.8008-0.2393,1.2002l-0.7803,2.04c8.7998-0.2002,15.8193-0.3193,21.0596-0.3604
				c0.8408,0,1.5693,0.2998,2.1904,0.9004C236.9102,21.5205,237.2197,22.2617,237.2197,23.1406z M245.9805,51.5205
				c0,0.9209-0.3301,1.71-0.9902,2.3701s-1.4502,0.9902-2.3701,0.9902c-0.6006,0-1.3408-0.2402-2.2197-0.7197
				c-0.6807-0.4404-1.3604-0.8604-2.04-1.2607c-0.7207,8.6406-5.6611,12.96-14.8203,12.96c-4.041,0-7.4404-0.9805-10.2002-2.9395
				c-3.04-2.1201-4.5596-5-4.5596-8.6396s1.4189-6.5195,4.2598-8.6406c2.7197-2.0791,6.3193-3.1201,10.7998-3.1201
				c2.6406,0,5.2803,0.2998,7.9199,0.9004c-0.0801-1.7998-0.2402-4.04-0.4795-6.7197c-4.4014,0.04-8.2412,0.1191-11.5205,0.2393
				c-0.8008,0.041-1.5-0.2393-2.0996-0.8398c-0.6006-0.5996-0.9004-1.2988-0.9004-2.0996c0-0.7998,0.2705-1.4795,0.8105-2.04
				c0.54-0.5596,1.209-0.8594,2.0098-0.9004c6.3994-0.1592,13.8799-0.2793,22.4395-0.3594c0.7998,0,1.5,0.29,2.1006,0.8691
				c0.5996,0.5811,0.8994,1.29,0.8994,2.1309c0,0.7998-0.2998,1.4902-0.8994,2.0693c-0.6006,0.5811-1.3008,0.8701-2.1006,0.8701
				h-4.0791c0.1992,2.6807,0.3389,5.6611,0.4199,8.9404c1.9199,0.8398,3.8994,1.8594,5.9395,3.0596
				C245.4189,49.3213,245.9805,50.2812,245.9805,51.5205z M231.9404,50.8008v-0.96c-2.9209-1.1191-5.5605-1.6797-7.9209-1.6797
				c-2.7998,0-4.9902,0.5195-6.5693,1.5596c-1.5811,1.041-2.3701,2.4404-2.3701,4.2002c0,1.8398,0.8789,3.2803,2.6396,4.3203
				c1.5605,0.9199,3.5,1.3799,5.8203,1.3799c2.9189,0,5.0996-0.9004,6.54-2.7002
				C231.3193,55.3604,231.9404,53.3203,231.9404,50.8008z"/>
			<path class="st0" d="M299.6201,58.6006c0.1592,0.4404,0.2402,0.8809,0.2402,1.3203c0,1.04-0.3711,1.9404-1.1104,2.7002
				c-0.7402,0.7588-1.6709,1.1396-2.79,1.1396c-1.8398,0-3.0596-0.8604-3.6602-2.5801l-3-8.7002h-18.8994l-2.8203,8.6406
				c-0.5605,1.7598-1.7803,2.6396-3.6602,2.6396c-1.0801,0-1.9902-0.3809-2.7295-1.1396c-0.7412-0.7598-1.1104-1.6602-1.1104-2.7002
				c0-0.3994,0.0596-0.7998,0.1797-1.2002l12.54-36.7197c1.3594-4,3.6396-6,6.8398-6c3.1602,0,5.4395,1.96,6.8408,5.8799
				L299.6201,58.6006z M286.9004,45.5811l-6.96-20.1602c-0.0811-0.2002-0.1807-0.2998-0.3008-0.2998s-0.2197,0.0996-0.2998,0.2998
				l-6.6602,20.1602H286.9004z"/>
			<path class="st0" d="M358.4805,59.8604c0,1.1211-0.3906,2.0703-1.1709,2.8506c-0.7793,0.7803-1.7305,1.1699-2.8496,1.1699
				c-1.7998,0-3.04-0.8203-3.7197-2.46l-4.9805-12.1201c-1.4395-3.5195-4.2207-5.2803-8.3398-5.2803h-7.3203v15.9004
				c0,1.0801-0.3896,2.0205-1.1699,2.8203c-0.7793,0.7988-1.71,1.1992-2.79,1.1992c-1.1201,0-2.0693-0.4004-2.8496-1.1992
				c-0.7803-0.7998-1.1699-1.7402-1.1699-2.8203V22.7207c0-3.999,2-6,6-6h15.2998c4.2002,0,7.6201,1,10.2598,3
				c3.04,2.3604,4.5605,5.7803,4.5605,10.2598c0,6.3213-2.9805,10.4209-8.9404,12.3008c2,1.1992,3.54,3.1191,4.6201,5.7598
				l4.2598,10.2598C358.3799,58.7812,358.4805,59.3008,358.4805,59.8604z M350.0801,30.3408c0-1.9199-0.6406-3.4805-1.9199-4.6797
				c-1.4004-1.2803-3.3604-1.9199-5.8799-1.9199h-10.6807c-1,0-1.5,0.5-1.5,1.5v12.0596h12.2402
				c2.4795,0,4.4404-0.7197,5.8799-2.1602C349.459,33.9014,350.0801,32.3008,350.0801,30.3408z"/>
			<path class="st0" d="M387.3398,38.7412c0.0801,0.2803,0.1201,0.5605,0.1201,0.8398c0,1-0.3604,1.8594-1.0801,2.5801
				c-0.7197,0.7197-1.5801,1.0801-2.5801,1.0801c-1.9199,0-3.1006-0.9199-3.54-2.7607c-1.4805-6.1592-3.0205-11.9189-4.6201-17.2793
				c-0.1201-0.3604-0.1797-0.7207-0.1797-1.0801c0-1,0.3496-1.8604,1.0498-2.5801c0.6992-0.7207,1.5898-1.0801,2.6699-1.0801
				c1.8799,0,3.0605,0.8994,3.54,2.7002C384.8398,28.8809,386.3799,34.7412,387.3398,38.7412z M403.8398,35.7412
				c0.2002,1.1201-0.0596,2.1104-0.7803,2.9697c-0.7197,0.8604-1.6406,1.29-2.7598,1.29c-1.9199,0-3.0801-0.96-3.4795-2.8799
				c-1.4404-7.0801-2.6611-12.7402-3.6602-16.9805c-0.0811-0.2793-0.1201-0.5596-0.1201-0.8398c0-0.96,0.3604-1.7998,1.0801-2.5195
				c0.7197-0.7207,1.5791-1.0801,2.5801-1.0801c1.999,0,3.1992,0.9395,3.5996,2.8193
				C401.9395,26.1211,403.1201,31.8613,403.8398,35.7412z M424.96,25.7812c0,0.5996-0.1602,1.1992-0.4795,1.7998
				C417,41.501,410.8398,53.4209,406,63.3408c-0.6807,1.3994-1.7998,2.0996-3.3604,2.0996c-1,0-1.8701-0.3594-2.6094-1.0801
				c-0.7412-0.7197-1.1104-1.5986-1.1104-2.6396c0-0.5195,0.1396-1.0596,0.4199-1.6201c4.8398-9.96,10.9805-21.999,18.4199-36.1201
				c0.7207-1.3594,1.8398-2.04,3.3604-2.04c1.04,0,1.9395,0.3809,2.7002,1.1406C424.5791,23.8408,424.96,24.7412,424.96,25.7812z"/>
			<path class="st0" d="M485.0801,26.3809c0,6.5996-6.3809,13.4199-19.1396,20.46c-0.5205,0.2803-1.0801,0.4199-1.6807,0.4199
				c-0.96,0-1.7803-0.3389-2.46-1.0195c-0.6807-0.6797-1.0195-1.5-1.0195-2.46c0-1.3594,0.5996-2.3604,1.7998-3
				c3.8789-2.1201,7.0996-4.2607,9.6602-6.4209c3-2.5586,4.5-4.7393,4.5-6.54c0-2.7598-2.8203-4.1396-8.46-4.1396
				c-7.7998,0-17.3398,0.6211-28.6201,1.8604c-1.0801,0.1201-2.0312-0.1807-2.8506-0.9004
				c-0.8203-0.7197-1.2295-1.6201-1.2295-2.7002c0-0.96,0.3193-1.7891,0.96-2.4893c0.6396-0.7002,1.4189-1.0898,2.3398-1.1699
				c12.5596-1.1602,22.8799-1.7402,30.96-1.7402c5.0791,0,8.9404,0.9199,11.5801,2.7598
				C483.8594,21.0215,485.0801,23.3809,485.0801,26.3809z M460.1201,36.1006c-2.4404,8.8408-4.54,17.6807-6.2998,26.5205
				c-0.4004,1.959-1.6006,2.9395-3.6006,2.9395c-1.04,0-1.9102-0.3594-2.6094-1.0801c-0.7002-0.7197-1.0508-1.5996-1.0508-2.6396
				c0-0.2402,0.0205-0.5,0.0605-0.7803c1.4395-6.6387,3.6191-15.5791,6.54-26.8193c0.4795-1.8008,1.6396-2.7002,3.4795-2.7002
				c1,0,1.8496,0.3594,2.5508,1.0801c0.6992,0.7197,1.0498,1.5596,1.0498,2.5195
				C460.2402,35.4609,460.1992,35.7812,460.1201,36.1006z"/>
			<path class="st0" d="M544.6602,37.3008c0,1-0.3506,1.8506-1.0498,2.5498c-0.7002,0.7002-1.5508,1.0498-2.5508,1.0498
				c-16.7998,0-30.6592,0.2803-41.5791,0.8408c-1.041,0.04-1.9307-0.29-2.6709-0.9902c-0.7402-0.6992-1.1094-1.5498-1.1094-2.5498
				s0.3301-1.8398,0.9902-2.5205c0.6592-0.6797,1.4697-1.04,2.4297-1.0801c15-0.5596,28.959-0.8594,41.8799-0.8994
				c0.999,0,1.8604,0.3506,2.5801,1.0498C544.2998,35.4512,544.6602,36.3018,544.6602,37.3008z"/>
			<path class="st0" d="M603.7598,21.1006c0,1.9199-0.9404,3.1006-2.8193,3.54c-6.6807,1.5605-12.3213,4.1406-16.9209,7.7402
				c-5.0801,3.96-7.6191,8.2402-7.6191,12.8398c0,3.7607,1.5391,6.6406,4.6191,8.6396c2.5205,1.6406,6.3398,2.7607,11.4609,3.3604
				c0.9189,0.1201,1.6992,0.5303,2.3398,1.2305c0.6387,0.7002,0.96,1.5098,0.96,2.4297c0,1.0801-0.4111,1.9893-1.2305,2.7295
				c-0.8203,0.7402-1.7695,1.0508-2.8496,0.9307c-6.96-0.7607-12.3809-2.5996-16.2598-5.5205
				c-4.3203-3.1992-6.4805-7.5391-6.4805-13.0195c0-8.3193,5.1201-15.46,15.3604-21.4199
				c-4.2402,0.1602-12.2207,0.6201-23.9404,1.3799c-1.04,0.0801-1.9404-0.2295-2.7002-0.9297s-1.1396-1.5703-1.1396-2.6104
				c0-0.96,0.3301-1.79,0.9902-2.4902c0.6602-0.6992,1.4697-1.0693,2.4297-1.1104c14.1992-0.7588,27.5791-1.1992,40.1396-1.3193
				c1,0,1.8604,0.3506,2.5801,1.0498C603.4004,19.251,603.7598,20.1016,603.7598,21.1006z M599.6797,31.7207
				c-0.3203,1.6006-0.7793,3.8809-1.3799,6.8398c-0.2803,1.4004-1.1006,2.1006-2.46,2.1006c-0.7598,0-1.3906-0.29-1.8896-0.8701
				c-0.501-0.5801-0.6904-1.25-0.5703-2.0098c0.2402-1.5996,0.6396-3.9609,1.2002-7.0801c0.2793-1.4404,1.1396-2.1602,2.5801-2.1602
				c0.7998,0,1.46,0.3203,1.9795,0.96S599.8398,30.8809,599.6797,31.7207z M607.54,31.7207l-1.3203,6.8398
				c-0.2803,1.4004-1.1006,2.1006-2.46,2.1006c-0.7598,0-1.3896-0.29-1.8896-0.8701c-0.501-0.5801-0.6904-1.25-0.5703-2.0098
				c0.2402-1.5996,0.6396-3.9609,1.2002-7.0801c0.2793-1.4404,1.1396-2.1602,2.5801-2.1602c0.7998,0,1.4492,0.3203,1.9502,0.96
				C607.5293,30.1406,607.6992,30.8809,607.54,31.7207z"/>
			<path class="st0" d="M657.8203,48.6406c0,5.1211-1.6807,9-5.04,11.6406c-3.0811,2.3994-7.2607,3.5996-12.54,3.5996
				c-6.4404,0-11.4209-1.7197-14.9404-5.1602c-0.8008-0.7998-1.2002-1.7598-1.2002-2.8799c0-1.1191,0.3906-2.0791,1.1699-2.8799
				c0.7803-0.7998,1.7305-1.2002,2.8506-1.2002c1.1191,0,2.0791,0.4199,2.8799,1.2598c2.6797,2.7607,5.5996,4.1406,8.7598,4.1406
				c3.3604,0,5.96-0.8408,7.7998-2.5205c1.6396-1.5195,2.46-3.5,2.46-5.9395c0-2.4004-0.7598-4.2305-2.2793-5.4902
				c-1.5205-1.2598-3.6211-1.8906-6.2998-1.8906c-3.3604,0-6.1807,0.9209-8.46,2.7607c-2.0811,1.6797-3.9209,2.4404-5.5205,2.2793
				c-2.5605-0.2393-3.7197-1.7588-3.4795-4.5596l1.6191-18.7803c0.3203-3.7998,2.4199-5.7002,6.3008-5.7002H652.96
				c0.96,0,1.79,0.3408,2.4902,1.0205c0.6992,0.6807,1.0498,1.5,1.0498,2.46c0,1-0.3506,1.8398-1.0498,2.5195
				c-0.7002,0.6807-1.5303,1.0205-2.4902,1.0205H634.54c-0.9209,0-1.4404,0.4795-1.5596,1.4404l-1.2607,11.9395
				c0,0.0811,0.04,0.1006,0.1201,0.0605c3.2002-2.1201,7.04-3.1807,11.5205-3.1807c4.1992,0,7.6396,1.2402,10.3193,3.7197
				C656.4404,40.9219,657.8203,44.3613,657.8203,48.6406z"/>
			<path class="st0" d="M727.7197,42.1006c0,0.7197-0.2607,1.3408-0.7793,1.8604c-0.5205,0.5205-1.1406,0.7803-1.8604,0.7803h-39.96
				v1.2598c0,0.8008,0.3994,1.2002,1.2002,1.2002h34.0195c3.2002,0,4.7998,1.5996,4.7998,4.7998v5.2197
				c0,4.041-0.6201,6.71-1.8594,8.0098c-1.2402,1.2998-3.7002,1.9502-7.3799,1.9502H713.5c-0.8799,0-1.6201-0.3105-2.2197-0.9297
				c-0.6006-0.6211-0.9004-1.3711-0.9004-2.25c0-0.04,0.0195-0.2012,0.0605-0.4805c-0.7607,0.4404-1.7012,0.6602-2.8203,0.6602
				h-27.6006c-3.2002,0-4.7998-1.5996-4.7998-4.7998V56.501c0-0.9199,0.3301-1.71,0.9902-2.3701s1.4492-0.9902,2.3701-0.9902
				c0.9199,0,1.71,0.3301,2.3701,0.9902s0.9902,1.4502,0.9902,2.3701v0.7803c0,0.7998,0.3994,1.1992,1.1992,1.1992h7.2607v-6.2393
				h-7.3203c-3.2012,0-4.7998-1.5996-4.7998-4.8008V22.8408c0-3.2002,1.5986-4.7998,4.7998-4.7998h10.0801
				c0.4795-1,0.9199-2.0596,1.3203-3.1807c0.5596-1.4785,1.6191-2.2197,3.1797-2.2197c0.9199,0,1.6992,0.3301,2.3398,0.9902
				c0.6396,0.6602,0.96,1.4502,0.96,2.3701c0,0.5205-0.0508,0.9102-0.1504,1.1699c-0.0996,0.2607-0.2305,0.5498-0.3896,0.8701h15
				c3.2002,0,4.7998,1.5996,4.7998,4.7998v9.54c0,3.2002-1.5996,4.7998-4.7998,4.7998h-30.2998v2.2803h39.96
				c0.7197,0,1.3398,0.2607,1.8604,0.7803C727.459,40.7607,727.7197,41.3809,727.7197,42.1006z M713.4404,25.6006v-1.3799
				c0-0.7998-0.4004-1.2002-1.2002-1.2002h-25.9199c-0.8008,0-1.2002,0.4004-1.2002,1.2002v1.3799H713.4404z M713.4404,31.541
				v-1.4404h-28.3203v2.6406h27.1201C713.04,32.7412,713.4404,32.3418,713.4404,31.541z M718.3604,56.8008v-3.3604
				c0-0.7998-0.4004-1.1992-1.2002-1.1992h-19.8604v6.2393h7.5c0.7998,0,1.2002-0.3994,1.2002-1.1992v-0.9004
				c0-0.8799,0.3193-1.6396,0.96-2.2803c0.6396-0.6396,1.3994-0.96,2.2803-0.96c0.8789,0,1.6289,0.3203,2.25,0.96
				c0.6191,0.6406,0.9297,1.4004,0.9297,2.2803v3c0,0.6406-0.0801,1.2402-0.2402,1.7998c0.4404-0.1992,0.8799-0.2998,1.3203-0.2998
				h1.5c1.5996,0,2.5596-0.2295,2.8799-0.6904C718.1992,59.7314,718.3604,58.6006,718.3604,56.8008z"/>
			<path class="st0" d="M787.0596,62.501c0,0.8789-0.3096,1.6201-0.9297,2.2197s-1.3496,0.9004-2.1895,0.9004h-28.2607
				c-3,0-5.3799-0.3213-7.1396-0.96c-2.04-0.7607-3.7197-2.0596-5.04-3.9004c-1.7207,1.4805-3.2002,2.6797-4.4404,3.5996
				c-0.7197,0.5195-1.4395,0.7803-2.1592,0.7803c-1.001,0-1.8408-0.3506-2.5205-1.0498c-0.6807-0.7002-1.0195-1.5498-1.0195-2.5498
				c0-1.2803,0.5596-2.2803,1.6797-3c2.1602-1.4004,4.1797-2.8799,6.0596-4.4404V43.001c0-0.7197-0.3594-1.0801-1.0801-1.0801
				h-3.5996c-0.8799,0-1.6504-0.3301-2.3096-0.9902c-0.6602-0.6602-0.9902-1.4297-0.9902-2.3096
				c0-0.9199,0.3301-1.7002,0.9902-2.3398c0.6592-0.6396,1.4297-0.9609,2.3096-0.9609h6.4199c3.2002,0,4.7998,1.6006,4.7998,4.8008
				v14.3398c0.6006,1.7998,1.6104,3.0703,3.0303,3.8096c1.4199,0.7412,3.4102,1.1104,5.9697,1.1104h27.3008
				c0.8398,0,1.5693,0.2998,2.1895,0.9004C786.75,60.8809,787.0596,61.6211,787.0596,62.501z M747.1602,24.041
				c0,0.96-0.3408,1.7803-1.0205,2.46c-0.6807,0.6807-1.5,1.0195-2.46,1.0195c-1.04,0-1.9004-0.3799-2.5801-1.1396
				c-1.1602-1.3203-2.6396-2.7998-4.4395-4.4404c-0.7607-0.6797-1.1406-1.5195-1.1406-2.5195c0-0.9199,0.3398-1.7197,1.0205-2.4004
				c0.6797-0.6797,1.4795-1.0195,2.4004-1.0195c0.8789,0,1.6396,0.2803,2.2793,0.8398c1.6396,1.4404,3.2998,3.04,4.9805,4.7998
				C746.8398,22.3213,747.1602,23.1211,747.1602,24.041z M762.5195,18.041c0,0.4404-0.0596,0.8203-0.1797,1.1396
				c-1.7998,4.8809-3.8203,9.4004-6.0596,13.5605c-0.6006,1.1201-0.6602,2.2197-0.1807,3.2998
				c2.1602,4.9199,4.1797,10.2207,6.0605,15.8994c0.0791,0.2402,0.1201,0.6006,0.1201,1.0801c0,0.9209-0.3301,1.7207-0.9902,2.4004
				c-0.6602,0.6807-1.4697,1.0195-2.4297,1.0195c-1.6807,0-2.7607-0.7998-3.2402-2.3994
				c-1.9199-6.1201-3.9004-11.5996-5.9404-16.4404c-0.4795-1.1191-0.7197-2.1602-0.7197-3.1201c0-1.0801,0.3193-2.2197,0.96-3.4199
				c2.4795-4.7188,4.5391-9.4199,6.1797-14.0996c0.5195-1.4795,1.5605-2.2197,3.1201-2.2197c0.9199,0,1.7002,0.3203,2.3398,0.96
				S762.5195,17.1211,762.5195,18.041z M773.7402,18.4004c0,0.4004-0.0811,0.8008-0.2402,1.2002
				c-1.6406,4.0801-3.7002,8.3604-6.1797,12.8398c-0.6006,1.0801-0.6807,2.0811-0.2402,3c2.3594,4.9609,4.46,10.0801,6.2998,15.3604
				c0.1592,0.4805,0.2402,0.8398,0.2402,1.0801c0,0.9209-0.3408,1.7207-1.0205,2.4004c-0.6807,0.6797-1.4795,1.0195-2.3994,1.0195
				c-1.6006,0-2.6611-0.7803-3.1807-2.3398c-1.9199-5.8799-3.9199-11.0791-6-15.6006c-0.5195-1.1592-0.7793-2.1992-0.7793-3.1191
				c0-1.1201,0.3389-2.2803,1.0195-3.4805c2.2402-3.96,4.3398-8.46,6.2998-13.5c0.5195-1.3594,1.5205-2.04,3-2.04
				c0.8799,0,1.6299,0.3105,2.25,0.9297C773.4297,16.7715,773.7402,17.5215,773.7402,18.4004z M786.46,52.3604
				c0,0.96-0.3398,1.7803-1.0195,2.46c-0.6807,0.6807-1.5,1.0205-2.46,1.0205c-1.6006,0-2.7002-0.7393-3.3008-2.2197
				c-2.3994-6.04-4.7803-11.3799-7.1396-16.0205c-0.5605-1.1191-0.8398-2.1797-0.8398-3.1797c0-1.0801,0.3389-2.2197,1.0195-3.4199
				c2.5596-4.4795,4.8203-9.0801,6.7803-13.7998c0.5996-1.4004,1.6396-2.1006,3.1201-2.1006c0.9199,0,1.7197,0.3408,2.3994,1.0205
				c0.6797,0.6807,1.0205,1.4805,1.0205,2.3994c0,0.4805-0.1006,0.9404-0.2998,1.3799c-1.8408,4.1611-4.041,8.4004-6.6006,12.7207
				c-0.6396,1.04-0.7197,2.0195-0.2393,2.9395c2.8389,5.4805,5.2793,10.6201,7.3193,15.4199
				C786.3789,51.3809,786.46,51.8418,786.46,52.3604z"/>
			<path class="st0" d="M822.5195,43.8408c0,1.041-0.3799,1.9004-1.1396,2.5801c-4.6797,4.0801-8.9395,6.1201-12.7803,6.1201
				c-3.0801,0-5.5195-1.1406-7.3193-3.4199c-1.9199-2.4004-2.8799-5.8398-2.8799-10.3203c0-5.5996,0.8594-12.2402,2.5801-19.9199
				c0.4395-1.8799,1.6396-2.8203,3.5996-2.8203c1.04,0,1.9092,0.3604,2.6104,1.0801c0.6992,0.7197,1.0498,1.5811,1.0498,2.5801
				c0,0.3203-0.041,0.6211-0.1201,0.9004c-1.8408,7.2803-2.7598,13.2207-2.7598,17.8193c0,4.5605,1.3389,6.8408,4.0195,6.8408
				c1.96,0,4.4199-1.3398,7.3799-4.0205c0.6797-0.5996,1.46-0.9004,2.3398-0.9004c0.96,0,1.7705,0.3408,2.4307,1.0205
				C822.1904,42.0615,822.5195,42.8809,822.5195,43.8408z M841.4199,19.3604c-0.6807,16.2812-3.8008,30.9404-9.3604,43.9805
				c-0.6396,1.5195-1.7598,2.2803-3.3594,2.2803c-1.001,0-1.8701-0.3604-2.6104-1.0801c-0.7402-0.7207-1.1094-1.6006-1.1094-2.6406
				c0-0.4395,0.0986-0.8994,0.2998-1.3799c2.7988-6.5996,4.8896-13.1299,6.2695-19.5898c1.3799-6.459,2.21-13.7295,2.4902-21.8096
				c0.0391-1,0.4092-1.8496,1.1104-2.5508c0.6992-0.6992,1.5488-1.0498,2.5498-1.0498c1.0391,0,1.9287,0.3809,2.6699,1.1406
				C841.1094,17.4209,841.459,18.3213,841.4199,19.3604z"/>
			<path class="st0" d="M905.0195,32.8604c0,1.8408-0.8994,2.9209-2.6992,3.2402c-6.5605,1.1611-11.6211,2.4805-15.1807,3.96
				c3.6006,2.0801,6.46,4.0205,8.5801,5.8203c0.7998,0.6807,1.2002,1.54,1.2002,2.5801c0,0.9209-0.3398,1.7197-1.0195,2.3994
				c-0.6807,0.6807-1.4805,1.0205-2.4004,1.0205c-0.8008,0-1.5205-0.2793-2.1602-0.8398
				c-4.1602-3.5195-7.8594-6.0801-11.0996-7.6807c-2.9209,1.2412-5.3398,2.6807-7.2598,4.3203
				c-2.0811,1.7998-3.1201,3.5205-3.1201,5.1602c0,3.8008,4.6992,5.7207,14.0996,5.7598c3.5596,0,8.1396-0.2793,13.7402-0.8398
				c0.96-0.0801,1.8096,0.21,2.5498,0.8701c0.7393,0.6602,1.1104,1.4697,1.1104,2.4297c0,0.8809-0.291,1.6309-0.8701,2.25
				c-0.5801,0.6201-1.29,0.9697-2.1299,1.0498C892.7998,64.8408,888,65.0811,883.96,65.0811
				c-14.4404,0-21.6602-3.9795-21.6602-11.9404c0-4.2793,3.0195-8.4395,9.0605-12.4795c-1.2402-0.1602-2.4814-0.2402-3.7207-0.2402
				c-1.8398,0-3.6592,0.5605-5.46,1.6797c-0.5996,0.3604-1.2207,0.54-1.8594,0.54c-1.001,0-1.8506-0.3496-2.5508-1.0498
				c-0.7002-0.6992-1.0498-1.5498-1.0498-2.5498s0.3604-1.8604,1.0801-2.5801c3.7598-3.6797,6.9395-6.96,9.54-9.8398
				c-1.6797,0.04-4.4805,0.0996-8.3994,0.1797c-0.8809,0.04-1.6406-0.2598-2.2803-0.9004c-0.6406-0.6387-0.96-1.3994-0.96-2.2793
				s0.2998-1.6299,0.8994-2.25c0.6006-0.6201,1.3398-0.9307,2.2207-0.9307c1.0801-0.0391,5.6396-0.0986,13.6797-0.1797
				c1.04-1.2793,2.3193-2.9795,3.8398-5.0996c0.6797-0.96,1.6201-1.4404,2.8203-1.4404c0.96,0,1.7695,0.3408,2.4297,1.0205
				c0.6602,0.6807,0.9902,1.5,0.9902,2.46c0,0.8799-0.4404,1.8594-1.3203,2.9395c6.2793-0.0791,11.04-0.1201,14.2803-0.1201
				c0.8789,0,1.6396,0.3105,2.2803,0.9307c0.6387,0.6201,0.96,1.3701,0.96,2.25s-0.3105,1.6299-0.9307,2.25
				s-1.3701,0.9297-2.25,0.9297c-4.1201,0-10.5596,0.04-19.3193,0.1201c-1.9609,2.1201-4.6006,4.9199-7.9199,8.3994
				c0.7197-0.0791,1.4795-0.1191,2.2793-0.1191c2.8398,0,5.7803,0.5,8.8203,1.5c2.7197-1.2002,6.4395-2.5596,11.1602-4.0801
				c5.4395-1.7197,9.1592-2.5801,11.1602-2.5801c0.8789,0,1.6396,0.3096,2.2793,0.9297
				C904.6992,31.1719,905.0195,31.9414,905.0195,32.8604z"/>
			<path class="st0" d="M928.4805,16.3604c0,0.2402-0.041,0.5205-0.1201,0.8408c-0.6807,2.7598-1.5205,5.4395-2.5205,8.04v38.5195
				c0,0.9199-0.3301,1.71-0.9902,2.3701c-0.6592,0.6602-1.4502,0.9902-2.3691,0.9902c-0.9209,0-1.7109-0.3301-2.3701-0.9902
				c-0.6602-0.6602-0.9902-1.4502-0.9902-2.3701V39.3408c-0.4404,0.7197-1.1611,1.8203-2.1602,3.2998
				c-0.6406,0.9209-1.54,1.3799-2.7002,1.3799c-0.9199,0-1.7002-0.3193-2.3398-0.96c-0.6406-0.6387-0.96-1.4189-0.96-2.3398
				c0-0.7197,0.2002-1.3594,0.5996-1.9199c4.6807-6.5996,8.2002-14.3594,10.5605-23.2803c0.4395-1.5986,1.4795-2.3994,3.1201-2.3994
				c0.9199,0,1.6895,0.3096,2.3096,0.9297C928.1699,14.6719,928.4805,15.4414,928.4805,16.3604z M967.1797,53.0811
				c0,0.8799-0.3096,1.6406-0.9297,2.2793c-0.6211,0.6406-1.3711,0.96-2.25,0.96c-1.0801,0-1.9404-0.4199-2.5801-1.2598
				c-4.4395-5.7197-8.1406-11.4395-11.0996-17.1602v13.3203h4.7393c0.7998,0,1.5,0.291,2.1006,0.8701
				c0.5996,0.5801,0.8994,1.2705,0.8994,2.0703c0,0.8398-0.2998,1.5498-0.8994,2.1299c-0.6006,0.5801-1.3008,0.8701-2.1006,0.8701
				h-4.7393v6.2998c0,0.8789-0.3105,1.6289-0.9307,2.25c-0.6201,0.6191-1.3496,0.9297-2.1895,0.9297
				c-0.8809,0-1.6309-0.3105-2.25-0.9297c-0.6211-0.6211-0.9307-1.3711-0.9307-2.25v-6.2998h-4.7393
				c-0.8008,0-1.4912-0.29-2.0703-0.8701c-0.5801-0.5801-0.8701-1.29-0.8701-2.1299c0-0.7998,0.29-1.4902,0.8701-2.0703
				c0.5791-0.5791,1.2695-0.8701,2.0703-0.8701h4.7393V37.4805c-3.0801,6.3604-6.8203,12.3213-11.2197,17.8799
				c-0.6396,0.8008-1.4805,1.2002-2.5195,1.2002c-0.8809,0-1.6309-0.3096-2.25-0.9297c-0.6211-0.6201-0.9307-1.3701-0.9307-2.25
				c0-0.7598,0.2793-1.46,0.8408-2.0996c5.3193-6.0801,9.8594-13.4404,13.6191-22.0801h-10.2598c-0.8799,0-1.6299-0.3203-2.25-0.96
				s-0.9297-1.4004-0.9297-2.2803s0.3096-1.6299,0.9297-2.25s1.3701-0.9297,2.25-0.9297h12.6006v-6.1807
				c0-0.9199,0.3193-1.6992,0.96-2.3398c0.6387-0.6396,1.4189-0.96,2.3398-0.96c0.8789,0,1.6396,0.3203,2.2803,0.96
				c0.6387,0.6406,0.96,1.4199,0.96,2.3398v6.1807H963.46c0.8799,0,1.6396,0.3096,2.2803,0.9297
				c0.6387,0.6201,0.96,1.3701,0.96,2.25s-0.3213,1.6406-0.96,2.2803c-0.6406,0.6396-1.4004,0.96-2.2803,0.96h-10.9795
				c3.5186,7.7998,8.1592,15.0596,13.9199,21.7793C966.9189,51.5811,967.1797,52.2812,967.1797,53.0811z"/>
			<path class="st0" d="M983.1396,60.7607c0.04,0.5205-0.1201,0.96-0.4795,1.3203c-0.3604,0.3594-0.8008,0.54-1.3203,0.54
				c-1.0801,0-1.6602-0.5801-1.7402-1.7402c-0.0801-2.2803-0.2393-5.5996-0.4795-9.96c-0.5605,4-1.1807,7.54-1.8604,10.6201
				c-0.2803,1.2002-1.0195,1.7998-2.2197,1.7998c-0.6406,0-1.1807-0.2305-1.6201-0.6904c-0.4404-0.459-0.6602-0.9893-0.6602-1.5898
				c0-0.1992,0.0195-0.3994,0.0605-0.5996c0.7998-2.96,1.5391-6.5596,2.2197-10.7998c0.1992-1.2002,0.9004-1.8008,2.0996-1.8008
				c1.2002,0,1.8799,0.6006,2.04,1.8008c0.2793-0.7207,0.7998-1.0801,1.5605-1.0801c1.0801,0,1.6592,0.54,1.7402,1.6201
				C982.7598,53.8818,982.9795,57.4004,983.1396,60.7607z M1028.4404,29.2012c0,0.8398-0.3105,1.5596-0.9307,2.1592
				c-0.6201,0.6006-1.3496,0.9004-2.1895,0.9004c-0.8809,0-1.6006-0.2598-2.1602-0.7803c-1.041-0.96-2.1211-2.04-3.2402-3.2393
				c-0.0801,0.6396-0.3701,1.1904-0.8701,1.6494c-0.5,0.4609-1.0703,0.6904-1.71,0.6904h-1.8594v3.1797h4.9795
				c3.2002,0,4.7998,1.6006,4.7998,4.7998v5.9404c0,3.2002-1.5996,4.7998-4.7998,4.7998h-4.1396
				c2.1191,4.4404,5.3398,8.1602,9.6602,11.1602c0.9189,0.6406,1.3799,1.5,1.3799,2.5801c0,0.8789-0.3105,1.6289-0.9307,2.25
				c-0.6201,0.6191-1.3896,0.9297-2.3096,0.9297c-0.6807,0-1.2803-0.1797-1.7998-0.54c-4.1211-2.9189-7.3604-6.4199-9.7207-10.5
				c-2.2402,3.9209-5.4805,7.4609-9.7197,10.6201c-0.5605,0.3994-1.1602,0.5996-1.7998,0.5996
				c-0.8809,0-1.6201-0.2998-2.2197-0.8994c-0.6006-0.6006-0.9004-1.3203-0.9004-2.1602c0-1.0801,0.4395-1.9199,1.3203-2.5205
				c4.7998-3.3594,7.959-7.1992,9.4795-11.5195h-4.1396c-3.2012,0-4.7998-1.5996-4.7998-4.7998v-5.9404
				c0-3.1992,1.5986-4.7998,4.7998-4.7998h4.9199v-3.1797h-1.7998c-0.6807,0-1.2812-0.2402-1.7998-0.7207
				c-0.5205-0.4795-0.7803-1.0791-0.7803-1.7998c-1.0801,1.2002-2.2412,2.4209-3.4805,3.6602
				c-0.5996,0.5996-1.2998,0.9004-2.0996,0.9004c-0.8398,0-1.5508-0.3008-2.1299-0.9004c-0.5801-0.5996-0.8701-1.2988-0.8701-2.0996
				c0-0.3604,0.0391-0.6602,0.1201-0.9004c-0.4805,0.3604-1.001,0.54-1.5605,0.54H991.54v3.1797h3.6602
				c0.6797,0,1.2695,0.251,1.7695,0.75c0.5,0.501,0.75,1.0908,0.75,1.7705c0,0.6807-0.25,1.2705-0.75,1.7695
				c-0.5,0.501-1.0898,0.75-1.7695,0.75H991.54v3.6006h1.6201c3.1992,0,4.7998,1.5996,4.7998,4.7998V56.501
				c0,4.4004-0.3604,7.2393-1.0801,8.5195c-0.6406,1.1201-2.0205,1.6807-4.1396,1.6807h-2.8203c-0.8799,0-1.6406-0.3213-2.2803-0.96
				c-0.6396-0.6406-0.96-1.4014-0.96-2.2803c0-0.8799,0.3203-1.6299,0.96-2.25s1.4004-0.9297,2.2803-0.9297h0.6602
				c1.1191,0,1.7793-0.5801,1.9795-1.7402c0,0.04,0-1.0205,0-3.1807v-7.5596c0-0.7998-0.3994-1.2002-1.1992-1.2002h-11.1006
				c-3.2002,0-4.7998-1.5996-4.7998-4.7998V19.6006c0-3.1992,1.5996-4.7998,4.7998-4.7998h16.0801
				c0.7998,0,1.4902,0.291,2.0703,0.8701c0.5791,0.5801,0.8701,1.251,0.8701,2.0098c0,0.8008-0.291,1.4912-0.8701,2.0703
				c-0.5801,0.5801-1.2705,0.8701-2.0703,0.8701H991.54v3.54h3.5996c0.6797,0,1.2803,0.25,1.8008,0.75
				c0.5186,0.5,0.7793,1.0898,0.7793,1.7695c0,0.2402-0.0205,0.4404-0.0596,0.6006c3.6797-3.2402,6.6396-6.6201,8.8799-10.1406
				c1.4404-2.2393,3.3604-3.3594,5.7598-3.3594c2.2402,0,4.04,0.9805,5.4004,2.9395c2.1602,3.1602,5.3594,6.5205,9.5996,10.0801
				C1028.0596,27.4414,1028.4404,28.2412,1028.4404,29.2012z M985.7803,24.2207v-3.5996h-3c-0.8008,0-1.2002,0.4004-1.2002,1.1992
				v2.4004H985.7803z M985.7803,32.3809v-3.0605h-4.2002v3.0605H985.7803z M985.7803,41.0811v-3.6602h-4.2002v2.46
				c0,0.8008,0.3994,1.2002,1.2002,1.2002H985.7803z M987.9404,59.0811c0.0391,0.4795-0.1113,0.8994-0.4502,1.2598
				c-0.3408,0.3604-0.7705,0.54-1.29,0.54c-1.041,0-1.6006-0.5195-1.6807-1.5605c-0.2002-3.0791-0.4795-6.2393-0.8398-9.4795
				c-0.04-0.4805,0.0996-0.9004,0.4199-1.2598c0.3203-0.3604,0.7207-0.54,1.2002-0.54c1,0,1.5605,0.5,1.6807,1.5
				C987.2598,51.9014,987.5801,55.0811,987.9404,59.0811z M992.0801,56.8604c0.0391,0.4414-0.1006,0.8311-0.4199,1.1709
				c-0.3203,0.3398-0.7002,0.5098-1.1406,0.5098c-0.96,0-1.4795-0.46-1.5596-1.3799c-0.2803-3.3604-0.5605-6-0.8398-7.9199
				c-0.0811-0.4404,0.0303-0.8408,0.3301-1.2002c0.2998-0.3604,0.6895-0.54,1.1699-0.54c0.8789,0,1.3799,0.4404,1.5,1.3193
				C991.4395,51.1406,991.7598,53.8213,992.0801,56.8604z M1009.54,44.2012v-5.3408h-3c-0.8008,0-1.2002,0.4004-1.2002,1.2002
				v2.9404c0,0.8008,0.3994,1.2002,1.2002,1.2002H1009.54z M1017.3398,25.4209c-1.6797-1.9199-3.1201-3.7402-4.3203-5.46
				c-0.2803-0.3604-0.5605-0.54-0.8398-0.54c-0.2803,0-0.54,0.1797-0.7793,0.54c-1.1211,1.7607-2.46,3.5801-4.0205,5.46h0.3604
				H1017.3398z M1019.7998,43.001v-2.9404c0-0.7998-0.4004-1.2002-1.2002-1.2002h-3.1191v5.3408h3.1191
				C1019.3994,44.2012,1019.7998,43.8018,1019.7998,43.001z"/>
		</g>
	</g>
</g>
</svg>
