<?xml version="1.0" encoding="utf-8"?>
<!-- Generator: Adobe Illustrator 25.2.1, SVG Export Plug-In . SVG Version: 6.00 Build 0)  -->
<svg version="1.1" id="レイヤー_1" xmlns="http://www.w3.org/2000/svg" xmlns:xlink="http://www.w3.org/1999/xlink" x="0px"
	 y="0px" viewBox="0 0 1040 80" style="enable-background:new 0 0 1040 80;" xml:space="preserve">
<style type="text/css">
	.st0{fill:#1E1E28;}
</style>
<g>
	<g>
		<g>
			<path class="st0" d="M66.6396,48.8809c0,3.5205-1.7607,5.2803-5.2793,5.2803H54.46v9.7793c0,1-0.3604,1.8604-1.0801,2.5801
				c-0.7197,0.7207-1.5801,1.0801-2.5801,1.0801s-1.8594-0.3594-2.5801-1.0801c-0.7197-0.7197-1.0801-1.5801-1.0801-2.5801v-9.7793
				h-6.3594c-3.2012,0-4.9404-1.4795-5.2207-4.4404c-0.6807,1-1.6406,1.5-2.8799,1.5c-1.0801,0-1.9795-0.3799-2.6992-1.1396
				c-0.5205-0.5195-1.1406-1.2002-1.8604-2.04v16.1396c0,0.96-0.3506,1.8096-1.0498,2.5498
				c-0.7002,0.7402-1.5508,1.1104-2.5508,1.1104s-1.8506-0.3604-2.5498-1.0801c-0.7002-0.7197-1.0498-1.5596-1.0498-2.5195v-15.54
				c-0.6406,0.7598-1.6602,1.8799-3.0596,3.3594c-0.6807,0.6807-1.541,1.0205-2.5801,1.0205c-1.001,0-1.8604-0.3496-2.5801-1.0498
				s-1.0801-1.5703-1.0801-2.6104c0-0.999,0.3994-1.8799,1.2002-2.6396c6.1201-5.7998,10.6201-11.7197,13.5-17.7607
				c0.0391-0.1201,0-0.1797-0.1201-0.1797H16.0596c-0.96,0-1.7695-0.3301-2.4297-0.9902s-0.9902-1.4697-0.9902-2.4297
				s0.3301-1.7705,0.9902-2.4297c0.6602-0.6602,1.4697-0.9902,2.4297-0.9902h4.5v-5.46c0-1,0.3604-1.8691,1.0801-2.6104
				c0.7207-0.7393,1.5996-1.1104,2.6406-1.1104c0.999,0,1.8594,0.3711,2.5801,1.1104c0.7197,0.7412,1.0801,1.6104,1.0801,2.6104
				v5.46h1.8594c1.4795,0,2.6602,0.3506,3.54,1.0498c0.8799,0.7002,1.3203,1.6299,1.3203,2.79c0,0.7197-0.1797,1.5-0.54,2.3398
				c-1.4004,3.2803-3.2012,6.6602-5.4004,10.1396c1.7998,1.8008,4.0596,4.2002,6.7803,7.2002v-18.54
				c0-3.5195,1.7598-5.2793,5.2803-5.2793h6.3594v-5.2803c0-0.999,0.3604-1.8604,1.0801-2.5801
				c0.7207-0.7197,1.5801-1.0801,2.5801-1.0801s1.8604,0.3604,2.5801,1.0801s1.0801,1.5811,1.0801,2.5801v5.2803h6.9004
				c3.5186,0,5.2793,1.7598,5.2793,5.2793V48.8809z M47.2598,34.4209v-5.7598h-4.0801c-0.4795,0-0.7197,0.2393-0.7197,0.7197v5.04
				H47.2598z M47.2598,47.2012v-6.1807H42.46v5.46c0,0.4805,0.2402,0.7207,0.7197,0.7207H47.2598z M59.5,34.4209v-5.04
				c0-0.4805-0.2402-0.7197-0.7197-0.7197h-4.5v5.7598H59.5z M59.5,46.4805v-5.46h-5.2197v6.1807h4.5
				C59.2598,47.2012,59.5,46.9609,59.5,46.4805z"/>
			<path class="st0" d="M101.8604,34.2412c-0.6807,6-1.6807,11.4395-3,16.3193c-0.4805,1.7207-1.6201,2.5801-3.4199,2.5801
				c-1.001,0-1.8301-0.3389-2.4902-1.0195c-0.6602-0.6797-0.9902-1.5-0.9902-2.46c0-0.0801,0.3398-1.3799,1.0205-3.9004
				c-0.6406,1.1611-1.6006,1.7402-2.8809,1.7402c-1.1602,0-2.0605-0.5-2.6992-1.5l-0.0605-0.1201v18.1797
				c0,0.96-0.3301,1.7793-0.9902,2.46c-0.6592,0.6797-1.4697,1.0205-2.4297,1.0205s-1.7803-0.3408-2.46-1.0205
				c-0.6807-0.6807-1.0195-1.5-1.0195-2.46V47.501c-0.6406,1.2803-1.3115,2.4902-2.0107,3.6299
				c-0.7002,1.1396-1.6699,1.71-2.9102,1.71c-0.9199,0-1.71-0.3301-2.3691-0.9902c-0.6602-0.6602-0.9902-1.4492-0.9902-2.3701
				c0-0.6387,0.1992-1.2598,0.5996-1.8594c3.1201-4.5996,5.6406-9.1807,7.5605-13.7402H76c-0.96,0-1.7695-0.3301-2.4297-0.9902
				s-0.9902-1.4697-0.9902-2.4297s0.3301-1.7705,0.9902-2.4297C74.2305,27.3711,75.04,27.041,76,27.041h4.4404v-4.8604
				c-0.8008,0.1201-1.9805,0.2803-3.54,0.4805c-1.001,0.1201-1.8809-0.1504-2.6406-0.8105s-1.1396-1.4893-1.1396-2.4902
				c0-0.8398,0.29-1.5693,0.8701-2.1895c0.5791-0.6201,1.2695-0.9902,2.0693-1.1104c4.6396-0.6387,8.7607-1.5391,12.3604-2.7002
				c0.3193-0.1191,0.6602-0.1797,1.0205-0.1797c0.8789,0,1.6494,0.3301,2.3096,0.9902s0.9902,1.4697,0.9902,2.4297
				c0,1.6406-0.7412,2.7002-2.2207,3.1807c-0.5195,0.1602-1.5801,0.46-3.1797,0.8994v6.3604h4.0801
				c0.96,0,1.7705,0.3301,2.4297,0.9902c0.6602,0.6592,0.9902,1.4697,0.9902,2.4297s-0.3301,1.7695-0.9902,2.4297
				c-0.6592,0.6602-1.4697,0.9902-2.4297,0.9902h-4.0801v0.6602c1.4404,2.6006,3.2002,5.1807,5.2803,7.7402
				c0.4795,0.5996,0.7197,1.2598,0.7197,1.9795c0.7598-3.0801,1.3994-6.6797,1.9199-10.7998
				c0.1201-0.8398,0.4893-1.5391,1.1104-2.1006c0.6191-0.5596,1.3496-0.8398,2.1895-0.8398c1,0,1.8301,0.3701,2.4902,1.1104
				S101.9805,33.2412,101.8604,34.2412z M128.7998,46.001c0.1592,0.4004,0.2402,0.8008,0.2402,1.2002
				c0,0.96-0.3604,1.7998-1.0801,2.5195s-1.5811,1.0801-2.5801,1.0801c-1.6797,0-2.7998-0.7803-3.3604-2.3398
				c-1.1602-3.2793-2.3994-6.1797-3.7197-8.7002c-2.2402,5.0801-4.8594,9.5996-7.8594,13.5596v4.0801
				c0,0.8008,0.0898,1.3105,0.2695,1.5303c0.1797,0.2207,0.6904,0.3301,1.5303,0.3301h1.6201c1.3994,0,2.2588-0.2197,2.5801-0.6602
				c0.3193-0.4395,0.5186-1.8389,0.5996-4.2002c0.0391-0.96,0.4092-1.7998,1.1104-2.5195c0.6992-0.7197,1.5293-1.0801,2.4893-1.0801
				c1,0,1.8701,0.3604,2.6104,1.0801c0.7393,0.7197,1.0898,1.6006,1.0498,2.6396c-0.1602,5.04-0.8203,8.29-1.9795,9.75
				c-1.1611,1.46-3.5605,2.1904-7.2002,2.1904h-5.1006c-2.6396,0-4.4092-0.3506-5.3096-1.0498
				c-0.9004-0.7002-1.4102-2.0703-1.5303-4.1104c-1.4805,1.3203-3.1201,2.5996-4.9199,3.8398
				c-0.5996,0.3994-1.2998,0.6006-2.0996,0.6006c-1,0-1.8604-0.3604-2.5801-1.0801C92.8604,63.9404,92.5,63.0801,92.5,62.0811
				c0-1.3594,0.5596-2.4004,1.6797-3.1201c3.3994-2.1602,6.3799-4.6592,8.9404-7.5V29.4404c0-0.999,0.3604-1.8594,1.0801-2.5801
				c0.7197-0.7197,1.5791-1.0791,2.5801-1.0791c0.999,0,1.8594,0.3594,2.5801,1.0791c0.7197,0.7207,1.0801,1.5811,1.0801,2.5801
				v11.2207c2.9189-5.7998,5.1797-12.8408,6.7793-21.1201c0.3604-1.9199,1.5605-2.8799,3.6006-2.8799
				c0.999,0,1.8496,0.3594,2.5498,1.0801c0.6992,0.7197,1.0498,1.5801,1.0498,2.5791c0,0.2812-0.0205,0.54-0.0596,0.7803
				c-1.1211,5.001-2.4404,9.54-3.96,13.6201c0.3994-0.1201,0.7393-0.1797,1.0195-0.1797c1.4795,0,2.54,0.6396,3.1797,1.9199
				C126.2803,39.7812,127.6797,42.9609,128.7998,46.001z M114.8203,21.2207c0,1.041-0.3604,1.9307-1.0801,2.6699
				c-0.7207,0.7412-1.6006,1.1104-2.6406,1.1104c-0.6807,0-1.2998-0.1592-1.8594-0.4805c-2.3613-1.2793-4.8213-2.46-7.3799-3.54
				c-1.5205-0.6387-2.2803-1.7793-2.2803-3.4199c0-1.0391,0.3604-1.9199,1.0801-2.6396s1.5791-1.0801,2.5801-1.0801
				c0.4795,0,0.9395,0.1006,1.3799,0.2998c3.2793,1.3203,6.0391,2.5605,8.2803,3.7197
				C114.1797,18.541,114.8203,19.6611,114.8203,21.2207z"/>
			<path class="st0" d="M186.2197,39.4609c0,8.5605-0.2393,14.46-0.7197,17.7002c-0.5605,3.7998-1.7002,6.2998-3.4199,7.5
				c-1.5205,1.0801-4.2402,1.6201-8.1602,1.6201h-2.3398c-1,0-1.8506-0.3604-2.5498-1.0801
				c-0.7002-0.7207-1.0498-1.5605-1.0498-2.5205c0-0.999,0.3496-1.8604,1.0498-2.5801c0.6992-0.7197,1.5498-1.0801,2.5498-1.0801
				h1.7402c1.959,0,3.2188-0.2598,3.7793-0.7793c0.7998-0.7598,1.2998-2.54,1.5-5.3408c0.1602-2.1992,0.2402-6.9795,0.2402-14.3398
				v-8.04c0-0.8789-0.4404-1.3193-1.3203-1.3193h-10.6797c-1,2.2402-2.2002,4.5205-3.5996,6.8398
				c-0.7207,1.2002-1.7207,1.7998-3,1.7998c-0.6807,0-1.2812-0.1592-1.7998-0.4805v20.8203c0,3.5205-1.7607,5.2803-5.2803,5.2803
				h-13.3203c-3.5205,0-5.2803-1.7598-5.2803-5.2803V27.8203c0-3.5186,1.7598-5.2793,5.2803-5.2793h2.04
				c0.6797-1.96,1.3398-4.1602,1.9805-6.6006c0.4795-1.8789,1.6992-2.8193,3.6592-2.8193c1.04,0,1.9209,0.3701,2.6406,1.1094
				c0.7197,0.7412,1.0801,1.6113,1.0801,2.6104c0,0.3604-0.041,0.7002-0.1201,1.0195c-0.3604,1.2412-0.8604,2.8008-1.5,4.6807h3.54
				c3.5195,0,5.2803,1.7607,5.2803,5.2793v2.4609c2.4795-4.5996,4.3799-9.3398,5.6992-14.2207
				c0.4805-1.7998,1.6602-2.7002,3.54-2.7002c1.1201,0,1.9893,0.3711,2.6104,1.1104c0.6201,0.7402,0.9297,1.6309,0.9297,2.6699
				c0,0.3203-0.0205,0.6211-0.0596,0.9004c-0.3604,1.1201-0.8203,2.46-1.3799,4.0195h9.96c4.3193,0,6.4795,2.1602,6.4795,6.4805
				V39.4609z M151.1797,39.1611v-8.8799c0-0.4805-0.2393-0.7207-0.7197-0.7207h-7.7998c-0.4805,0-0.7197,0.2402-0.7197,0.7207
				v8.8799H151.1797z M151.1797,55.6006v-9.4795h-9.2393v9.4795c0,0.4805,0.2393,0.7197,0.7197,0.7197h7.7998
				C150.9404,56.3203,151.1797,56.0811,151.1797,55.6006z M174.04,44.3203c0.1992,0.4805,0.2998,0.9814,0.2998,1.5
				c0,0.9609-0.3203,1.791-0.96,2.4902c-0.6406,0.7002-1.4805,1.0498-2.5195,1.0498c-1.5205,0-2.6006-0.7197-3.2402-2.1592
				c-1.0801-2.4395-2.3398-4.8604-3.7803-7.2607c-0.2803-0.4795-0.4199-1.0586-0.4199-1.7393c0-0.96,0.3398-1.7793,1.0205-2.46
				c0.6797-0.6797,1.5-1.0205,2.46-1.0205c1.3193,0,2.3193,0.5605,3,1.6797C171.3789,38.8408,172.7598,41.4814,174.04,44.3203z"/>
			<path class="st0" d="M228.5801,24.2812c0,0.8799-0.291,1.6699-0.8701,2.3691c-0.5801,0.7012-1.3105,1.1309-2.1904,1.29
				c-3.6396,0.6406-6.8604,1.3008-9.6592,1.9805c-3.6006,8.1201-7.5811,15.8008-11.9404,23.04
				c-0.7598,1.2803-1.9199,1.9199-3.4795,1.9199c-1.0801,0-2.0205-0.3896-2.8203-1.1699c-0.8008-0.7803-1.2002-1.7295-1.2002-2.8506
				c0-0.7988,0.2402-1.5596,0.7197-2.2793c3.6797-5.3604,6.8193-10.7002,9.4199-16.0205c-2.5195,0.8008-4.5596,1.5-6.1191,2.1006
				c-0.4414,0.1602-0.9004,0.2393-1.3809,0.2393c-1,0-1.8701-0.3389-2.6094-1.0195c-0.7412-0.6797-1.1104-1.5605-1.1104-2.6396
				c0-1.8398,0.8398-3.04,2.5205-3.6006c4.7998-1.5996,8.9795-2.8799,12.54-3.8398c1.0391-2.6797,1.9395-5.3193,2.6992-7.9199
				c0.5605-1.8799,1.8203-2.8203,3.7803-2.8203c1.1191,0,2.0498,0.3809,2.79,1.1406s1.1104,1.6602,1.1104,2.6992
				c0,0.4805-0.0811,0.96-0.2402,1.4404l-1.2598,3.2998c3.2793-0.7197,5.1387-1.0801,5.5801-1.0801
				c0.999,0,1.8691,0.3604,2.6094,1.0801S228.5801,23.2412,228.5801,24.2812z M244.7197,59.4404
				c0,1.1211-0.4004,2.0811-1.2002,2.8799c-0.7998,0.7998-1.7803,1.2002-2.9395,1.2002c-1,0-1.8604-0.2998-2.5801-0.8994
				c-1.2402-1.04-2.9199-2.2207-5.04-3.54c-1.2402,5.3594-5.1406,8.04-11.7002,8.04c-3.5996,0-6.5605-0.8008-8.8799-2.4004
				c-2.4805-1.7607-3.7197-4.1592-3.7197-7.2002c0-3.1592,1.2598-5.6396,3.7803-7.4395c2.2793-1.6396,5.1992-2.46,8.7598-2.46
				c1.2793,0,2.5801,0.0996,3.8994,0.2998c-0.3594-4.3203-0.2803-7.5195,0.2402-9.6006c0.4805-1.959,1.7402-2.9395,3.7803-2.9395
				c1.04,0,1.9297,0.3809,2.6699,1.1396c0.7393,0.7607,1.1104,1.6406,1.1104,2.6406c0,0.4404-0.0605,1.1006-0.1807,1.9795
				c-0.1201,0.8809-0.1797,1.54-0.1797,1.9805c0,1.1602,0.1992,3.54,0.5996,7.1396c3.5195,1.4805,6.8604,3.46,10.0205,5.9404
				C244.1992,57.001,244.7197,58.0811,244.7197,59.4404z M225.5801,55.2412c-1.7207-0.6396-3.1797-0.96-4.3799-0.96
				c-3.2803,0-4.9199,1.0195-4.9199,3.0596c0,1.7998,1.5391,2.7002,4.6201,2.7002c1.6797,0,2.8799-0.4199,3.5996-1.2598
				C225.1396,58.0605,225.499,56.8818,225.5801,55.2412z M245.2002,34.4209c0,1.0801-0.3809,2.001-1.1406,2.7598
				c-0.7598,0.7607-1.6797,1.1396-2.7598,1.1396c-1.1602,0-2.1201-0.3789-2.8799-1.1396c-1.7607-1.7598-3.4004-3.2197-4.9199-4.3799
				c-1-0.7598-1.5-1.7793-1.5-3.0596c0-1.0801,0.3691-1.9902,1.1104-2.7305c0.7393-0.7393,1.6494-1.1104,2.7295-1.1104
				c0.7598,0,1.4795,0.2207,2.1602,0.6602c2.1602,1.4404,4.2002,3.1201,6.1201,5.04
				C244.8398,32.3203,245.2002,33.2607,245.2002,34.4209z"/>
			<path class="st0" d="M300.0996,58.4209c0.1602,0.4795,0.2402,0.9805,0.2402,1.5c0,1.1602-0.4199,2.1699-1.2598,3.0303
				c-0.8398,0.8594-1.8809,1.29-3.1201,1.29c-2.1201,0-3.501-0.96-4.1396-2.8809l-2.8799-8.3994h-18.1201l-2.7607,8.3398
				c-0.6396,1.959-2.0195,2.9404-4.1396,2.9404c-1.2002,0-2.2305-0.4307-3.0898-1.29c-0.8604-0.8604-1.29-1.8701-1.29-3.0303
				c0-0.4805,0.0801-0.9395,0.2402-1.3799l12.54-36.7207c0.6797-2.0391,1.7188-3.6191,3.1201-4.7393
				c1.2793-1.04,2.6787-1.5605,4.1992-1.5605c3.3994,0,5.8398,2.0605,7.3203,6.1807L300.0996,58.4209z M286.2402,45.1006
				l-6.6006-19.0801l-6.2393,19.0801H286.2402z"/>
			<path class="st0" d="M358.7197,29.9805c0,6.1602-2.7803,10.3008-8.3398,12.4199c1.6396,1.2002,2.96,3.0215,3.96,5.46
				l4.2598,10.2607c0.2402,0.5605,0.3604,1.1396,0.3604,1.7393c0,1.2002-0.4307,2.25-1.29,3.1504
				c-0.8604,0.9004-1.9307,1.3496-3.21,1.3496c-2.001,0-3.3809-0.9199-4.1396-2.7598l-4.9805-12.1201
				c-1.3604-3.3193-4-4.9795-7.9199-4.9795h-6.8398v15.4199c0,1.2002-0.4404,2.25-1.3203,3.1494
				c-0.8799,0.9004-1.9199,1.3506-3.1201,1.3506c-1.2402,0-2.2998-0.4502-3.1797-1.3506c-0.8799-0.8994-1.3203-1.9492-1.3203-3.1494
				V22.7207c0-4.3203,2.1602-6.4795,6.4805-6.4795h15.2998c4.3203,0,7.8398,1.04,10.5605,3.1191
				C357.1396,21.8008,358.7197,25.3408,358.7197,29.9805z M349.5996,30.3408c0-1.7998-0.6201-3.2705-1.8594-4.4102
				c-1.2402-1.1396-3.0605-1.71-5.46-1.71h-10.6807c-0.6807,0-1.0195,0.3408-1.0195,1.0205v11.5791h11.7598
				c2.3594,0,4.2002-0.6592,5.5205-1.9795C349.0195,33.6406,349.5996,32.1406,349.5996,30.3408z"/>
			<path class="st0" d="M389.3799,34.9004c0,1.0801-0.3896,2.0107-1.1699,2.79c-0.7803,0.7803-1.71,1.1699-2.79,1.1699
				c-1.7607,0-2.9805-0.7988-3.6602-2.3994c-1.0801-2.5996-2.2793-5-3.5996-7.2002c-0.3604-0.5996-0.54-1.2393-0.54-1.9199
				c0-1.0801,0.3691-1.9893,1.1104-2.7305c0.7393-0.7393,1.6494-1.1094,2.7295-1.1094c1.3994,0,2.4795,0.5996,3.2402,1.7998
				c1.6797,2.6396,3.1201,5.3008,4.3193,7.9805C389.2598,33.8008,389.3799,34.3408,389.3799,34.9004z M403.4805,28.3008
				c0.1191,0.4004,0.1797,0.8203,0.1797,1.2598c0,1.0801-0.3809,2.0098-1.1406,2.79s-1.7002,1.1699-2.8193,1.1699
				c-1.8809,0-3.1406-0.8789-3.7803-2.6396c-0.96-2.6797-1.96-5.1201-3-7.3203c-0.2803-0.5996-0.4199-1.1787-0.4199-1.7402
				c0-1.0791,0.3896-2.0186,1.1699-2.8193c0.7803-0.7998,1.71-1.2002,2.79-1.2002c1.6396,0,2.8203,0.7607,3.54,2.2803
				C401.6396,23.4404,402.7998,26.1807,403.4805,28.3008z M422.4404,25.9004c-4.8809,14.4004-12.2012,26.9404-21.96,37.6201
				c-0.8408,0.9199-1.8809,1.3799-3.1201,1.3799c-1.1611,0-2.1514-0.4102-2.9707-1.2295c-0.8203-0.8203-1.2295-1.8096-1.2295-2.9697
				c0-1.1201,0.3799-2.0801,1.1396-2.8809c9.3994-9.96,16.04-21.4795,19.9199-34.5596c0.6006-2.04,1.9805-3.0596,4.1406-3.0596
				c1.1992,0,2.2197,0.4297,3.0596,1.29s1.2598,1.8701,1.2598,3.0293C422.6797,25.001,422.5996,25.4609,422.4404,25.9004z"/>
			<path class="st0" d="M484.2998,21.6406c0,1.4004-0.54,2.6006-1.6201,3.6006c-4.1602,3.8398-8.0195,7.2998-11.5801,10.3799
				c-0.6807,0.5996-1.4795,0.8994-2.3994,0.8994c-1.041,0-1.9199-0.3594-2.6406-1.0801c-0.7197-0.7197-1.0791-1.5986-1.0791-2.6396
				c0-1.1191,0.459-2.0596,1.3799-2.8203c1.999-1.6797,3.8594-3.3389,5.5801-4.9795c-11.8809,1-22.2002,2-30.96,3
				c-1.2002,0.1201-2.2607-0.2197-3.1807-1.0205c-0.9209-0.7998-1.3799-1.7998-1.3799-3c0-1.0801,0.3799-2.0098,1.1396-2.79
				c0.7598-0.7793,1.6807-1.209,2.7607-1.29c2.8799-0.1592,9.2793-0.6387,19.1992-1.4395
				c8.3203-0.6797,14.7607-1.2598,19.3203-1.7402c1.4404-0.1592,2.71,0.2607,3.8105,1.2598
				C483.75,18.9814,484.2998,20.2012,484.2998,21.6406z M464.7402,36.5811c-1.2002,5.2793-2.6406,9.7598-4.3203,13.4395
				c-2.3604,5.2002-5.2598,9.8203-8.7002,13.8604c-0.8398,0.999-1.9004,1.5-3.1797,1.5c-1.1611,0-2.1406-0.4004-2.9404-1.2002
				c-0.7998-0.8008-1.1992-1.7793-1.1992-2.9395c0-1.04,0.3193-1.9404,0.96-2.7002c5.7598-6.7207,9.4795-14.5996,11.1592-23.6406
				c0.2002-0.999,0.6797-1.8301,1.4404-2.4893c0.7598-0.6602,1.6592-0.9902,2.7002-0.9902c1.1592,0,2.1494,0.4199,2.9697,1.2598
				c0.8193,0.8398,1.2305,1.8203,1.2305,2.9404C464.8604,35.9414,464.8193,36.2607,464.7402,36.5811z"/>
			<path class="st0" d="M544.4199,37.541c0,1.1602-0.4102,2.1504-1.2295,2.9697c-0.8203,0.8203-1.8105,1.2305-2.9707,1.2305h-3.2393
				c-12.6807,0-24.8613,0.5801-36.54,1.7393c-1.2002,0.1201-2.2715-0.2393-3.21-1.0801c-0.9404-0.8398-1.4102-1.8789-1.4102-3.1191
				c0-1.0801,0.3691-2.0303,1.1094-2.8506c0.7402-0.8193,1.6504-1.2695,2.7305-1.3496c14.3594-1.0801,27.8789-1.6592,40.5596-1.7402
				c1.1602,0,2.1504,0.4102,2.9707,1.2295C544.0098,35.3906,544.4199,36.3809,544.4199,37.541z"/>
			<path class="st0" d="M602.8604,21.2207c0,1.041-0.3408,1.9502-1.0205,2.7305c-0.6807,0.7793-1.5205,1.25-2.5195,1.4092
				c-5.1211,0.8008-9.3809,2.501-12.7803,5.1006c-4.4805,3.4004-6.7197,7.6602-6.7197,12.7803c0,3.5195,1.0996,6.4404,3.2998,8.7598
				c2.0791,2.2402,5.3594,4.1006,9.8398,5.5801c1.959,0.6396,2.9404,2.0205,2.9404,4.1396c0,1.2393-0.4502,2.2891-1.3506,3.1504
				c-0.8994,0.8594-1.9297,1.29-3.0898,1.29c-0.4795,0-0.9404-0.0811-1.3799-0.2402
				c-12.4805-4.2393-18.7197-11.4395-18.7197-21.6006c0-6.9189,3.0791-12.7393,9.2393-17.46
				c-8.3203,1.4404-14.9199,2.8604-19.7998,4.2607c-0.4004,0.1201-0.8008,0.1797-1.2002,0.1797
				c-1.1201,0-2.0801-0.3994-2.8799-1.2002c-0.8008-0.7998-1.2002-1.7793-1.2002-2.9395c0-1,0.3096-1.8799,0.9307-2.6406
				c0.6191-0.7588,1.3896-1.2393,2.3096-1.4395c11.7197-2.4795,24.8799-4.4795,39.4805-6c1.2393-0.1201,2.3193,0.2305,3.2402,1.0498
				C602.3994,18.9512,602.8604,19.9814,602.8604,21.2207z M597.9404,42.2207c-1.0801,0-1.9414-0.5-2.5801-1.5
				c-0.8008-1.2393-1.9414-2.7197-3.4199-4.4395c-0.5205-0.6006-0.7803-1.2402-0.7803-1.9209c0-0.7988,0.2793-1.5,0.8398-2.0996
				c0.5596-0.5996,1.2598-0.9004,2.0996-0.9004c0.8799,0,1.6201,0.3213,2.2207,0.96c1.5986,1.8008,2.9395,3.4609,4.0195,4.9805
				c0.3994,0.5605,0.6006,1.1807,0.6006,1.8604c0,0.8398-0.291,1.5596-0.8701,2.1592
				C599.4893,41.9209,598.7803,42.2207,597.9404,42.2207z M605.0195,37.9609c-1.04,0-1.8896-0.4805-2.5498-1.4404
				s-1.8701-2.3594-3.6299-4.2002c-0.4404-0.5186-0.6602-1.2393-0.6602-2.1592c0-0.7998,0.2793-1.5,0.8398-2.1006
				c0.5605-0.5996,1.2607-0.8994,2.1006-0.8994c0.7998,0,1.5,0.2803,2.0996,0.8398c1.4404,1.4395,2.8594,3.1006,4.2607,4.9795
				c0.4795,0.6406,0.7197,1.2607,0.7197,1.8604c0,0.8398-0.3105,1.5703-0.9307,2.1904S605.8994,37.9609,605.0195,37.9609z"/>
			<path class="st0" d="M658.2998,48.6406c0,5.2803-1.7402,9.2803-5.2197,12c-3.1602,2.4795-7.4404,3.7197-12.8398,3.7197
				c-6.6006,0-11.7002-1.7588-15.2998-5.2793c-0.8809-0.8398-1.3203-1.9199-1.3203-3.2402c0-1.2793,0.4395-2.3594,1.3203-3.2402
				c0.8789-0.8789,1.9395-1.3193,3.1797-1.3193c1.2793,0,2.3594,0.46,3.2402,1.3799c2.5996,2.6797,5.3994,4.0195,8.3994,4.0195
				c3.2402,0,5.7393-0.7998,7.5-2.3994c1.5195-1.4404,2.2803-3.3008,2.2803-5.5801c0-4.5996-2.7002-6.9004-8.0996-6.9004
				c-3.2803,0-6,0.8799-8.1602,2.6396c-0.5205,0.4414-1.3203,1.0205-2.4004,1.7402c-1.0801,0.5605-2.2402,0.7803-3.4795,0.6602
				c-1.3604-0.1201-2.3809-0.6494-3.0605-1.5898c-0.6807-0.9395-0.96-2.1094-0.8398-3.5098l1.6201-18.7803
				c0.3604-4.0801,2.6191-6.1201,6.7803-6.1201H652.96c1.0801,0,2.0195,0.3896,2.8203,1.1699c0.7998,0.7803,1.2002,1.71,1.2002,2.79
				c0,1.1201-0.4004,2.0703-1.2002,2.8496c-0.8008,0.7803-1.7402,1.1699-2.8203,1.1699H634.54c-0.6406,0-1,0.3408-1.0801,1.0205
				l-1.2002,11.0996c3.2002-1.8789,6.9004-2.8193,11.1006-2.8193c4.3193,0,7.8594,1.2803,10.6201,3.8398
				C656.8604,40.6406,658.2998,44.2012,658.2998,48.6406z"/>
			<path class="st0" d="M728.2002,42.1006c0,0.8398-0.3105,1.5703-0.9307,2.1904s-1.3496,0.9297-2.1895,0.9297h-39.4805v0.7803
				c0,0.4795,0.2402,0.7197,0.7207,0.7197h34.0195c3.5195,0,5.2803,1.7607,5.2803,5.2803v5.2197
				c0,4.2002-0.6709,6.9902-2.0098,8.3701c-1.3408,1.3799-3.9111,2.0703-7.71,2.0703H713.5c-0.96,0-1.7803-0.3301-2.46-0.9902
				c-0.6807-0.6602-1.0605-1.4502-1.1396-2.3701c-0.6807,0.2402-1.4404,0.3604-2.2803,0.3604h-27.6006
				c-3.5195,0-5.2793-1.7607-5.2793-5.2803V56.501c0-1.0801,0.3691-1.9893,1.1094-2.7305c0.7402-0.7393,1.6504-1.1094,2.7305-1.1094
				s1.9893,0.3701,2.7295,1.1094c0.7402,0.7412,1.1104,1.6504,1.1104,2.7305v0.7803c0,0.4795,0.2402,0.7197,0.7197,0.7197h6.7803
				v-5.2803h-6.8398c-3.5205,0-5.2803-1.7598-5.2803-5.2803V22.8408c0-3.5195,1.7598-5.2803,5.2803-5.2803h9.7803
				c0.2793-0.5996,0.6592-1.5596,1.1396-2.8799c0.5996-1.6797,1.8193-2.5195,3.6602-2.5195c1.0391,0,1.9395,0.4004,2.7002,1.1992
				c0.7588,0.8008,1.1396,1.7012,1.1396,2.7002c0,0.4805-0.1006,0.9404-0.2998,1.3799c0,0.041-0.0205,0.0811-0.0605,0.1201h14.2803
				c3.5195,0,5.2803,1.7607,5.2803,5.2803v9.4199c0,3.5205-1.7607,5.2803-5.2803,5.2803h-29.8203v1.4395h39.4805
				c0.8398,0,1.5693,0.3105,2.1895,0.9307S728.2002,41.2607,728.2002,42.1006z M712.96,25.2412v-1.0205
				c0-0.4795-0.2402-0.7197-0.7197-0.7197h-25.9199c-0.4805,0-0.7207,0.2402-0.7207,0.7197v1.0205H712.96z M712.96,31.541v-0.96
				h-27.3604v1.6797h26.6406C712.7197,32.2607,712.96,32.0205,712.96,31.541z M708.5801,52.7207h-10.7998v5.2803h7.0195
				c0.4805,0,0.7197-0.2402,0.7197-0.7197v-0.9004c0-0.8799,0.29-1.6699,0.8701-2.3701
				C706.9697,53.3115,707.6992,52.8809,708.5801,52.7207z M717.8799,56.8008v-3.3604c0-0.4795-0.2402-0.7197-0.7197-0.7197h-7.2598
				c0.8398,0.1602,1.5488,0.5908,2.1299,1.29c0.5791,0.7002,0.8701,1.4902,0.8701,2.3701v3c0,0.4404-0.0215,0.8008-0.0605,1.0801
				c0.2002-0.0391,0.4199-0.0605,0.6602-0.0605h1.5c1.3994,0,2.2295-0.1689,2.4902-0.5098
				C717.75,59.5518,717.8799,58.5215,717.8799,56.8008z"/>
			<path class="st0" d="M787.54,62.501c0,0.999-0.3604,1.8496-1.0801,2.5498c-0.7197,0.6992-1.5596,1.0498-2.5195,1.0498h-28.2607
				c-5.7598,0-9.8398-1.54-12.2393-4.6201c-1.3203,1.1211-2.6807,2.1992-4.0801,3.2402c-0.8408,0.5996-1.6611,0.9004-2.46,0.9004
				c-1.1211,0-2.0703-0.4004-2.8506-1.2002c-0.7803-0.8008-1.1699-1.7598-1.1699-2.8799c0-1.4404,0.6396-2.5801,1.9199-3.4199
				c2.04-1.3203,3.9795-2.7393,5.8203-4.2607V43.001c0-0.3994-0.2012-0.6006-0.6006-0.6006h-3.5996
				c-1.041,0-1.9307-0.3691-2.6699-1.1094c-0.7402-0.7402-1.1104-1.6299-1.1104-2.6699s0.3701-1.9297,1.1104-2.6699
				c0.7393-0.7402,1.6289-1.1104,2.6699-1.1104h6.4199c3.5195,0,5.2803,1.7607,5.2803,5.2803v14.2793
				c0.5596,1.6406,1.5,2.8008,2.8203,3.4805c1.3193,0.6807,3.2188,1.0195,5.6992,1.0195h27.3008c0.96,0,1.7998,0.3506,2.5195,1.0508
				S787.54,61.501,787.54,62.501z M747.6396,24.041c0,1.0801-0.3896,2.0098-1.1699,2.79c-0.7793,0.7793-1.71,1.1699-2.79,1.1699
				c-1.1602,0-2.1396-0.4395-2.9395-1.3203c-1.1611-1.2793-2.6201-2.7393-4.3799-4.3799c-0.8809-0.7998-1.3203-1.7598-1.3203-2.8799
				c0-1.0801,0.3799-2,1.1396-2.7598s1.6807-1.1406,2.7607-1.1406c0.999,0,1.8594,0.3213,2.5791,0.96
				c1.8799,1.6406,3.5605,3.2402,5.04,4.8008C747.2803,22.041,747.6396,22.9609,747.6396,24.041z M762.8203,19.3604
				c-1.7607,4.7607-3.8008,9.3008-6.1201,13.6201c-0.5205,1.001-0.5801,1.9609-0.1807,2.8799
				c2.3203,5.2803,4.3594,10.5811,6.1201,15.9004c0.1201,0.3604,0.1807,0.7402,0.1807,1.1396c0,1.0801-0.3906,2.0205-1.1699,2.8203
				c-0.7803,0.8008-1.71,1.2002-2.79,1.2002c-1.9199,0-3.1611-0.9199-3.7207-2.7598c-1.96-6.3203-3.9199-11.7803-5.8799-16.3799
				c-0.5205-1.2002-0.7793-2.2998-0.7793-3.3008c0-1.1592,0.3389-2.3789,1.0195-3.6602c2.4004-4.5596,4.4404-9.2393,6.1201-14.0391
				c0.5996-1.6807,1.7998-2.5205,3.5996-2.5205c1.0801,0,1.9893,0.3809,2.7305,1.1396c0.7393,0.7607,1.1094,1.6611,1.1094,2.7002
				C763.0596,18.541,762.9795,18.9609,762.8203,19.3604z M773.9199,19.7812c-1.6797,4.2402-3.7402,8.54-6.1797,12.8994
				c-0.5205,0.96-0.6006,1.8203-0.2402,2.5801c2.5195,5.2402,4.6396,10.3604,6.3604,15.3604
				c0.1592,0.4404,0.2393,0.8799,0.2393,1.3193c0,1.041-0.3701,1.9414-1.1094,2.7002c-0.7412,0.7607-1.6709,1.1406-2.79,1.1406
				c-1.8408,0-3.0605-0.8799-3.6602-2.6406c-2.04-6.1992-4.0205-11.3994-5.9404-15.5996c-0.5605-1.2002-0.8398-2.3193-0.8398-3.3604
				c0-1.1592,0.3604-2.3789,1.0801-3.6602c2.2803-4.0801,4.3799-8.5596,6.2998-13.4395c0.6006-1.5605,1.7402-2.3398,3.4199-2.3398
				c1.04,0,1.8994,0.3594,2.5801,1.0791c0.6797,0.7207,1.0205,1.5811,1.0205,2.5801
				C774.1602,18.8809,774.0791,19.3408,773.9199,19.7812z M786.6396,50.8008c0.2002,0.4805,0.3008,0.9805,0.3008,1.5
				c0,1.0801-0.3809,2.0205-1.1406,2.8203c-0.7598,0.8008-1.7002,1.1992-2.8193,1.1992c-1.8008,0-3.041-0.8398-3.7207-2.5195
				c-2.3203-5.8799-4.7002-11.1992-7.1396-15.96c-0.6006-1.2002-0.9004-2.3398-0.9004-3.4199c0-1.1602,0.3604-2.3799,1.0801-3.6602
				c2.5996-4.5996,4.8604-9.1797,6.7803-13.7402c0.6797-1.5986,1.8604-2.3994,3.54-2.3994c1.1191,0,2.0488,0.3896,2.79,1.1699
				c0.7393,0.7793,1.1094,1.6904,1.1094,2.7295c0,0.5205-0.1191,1.041-0.3594,1.5605c-1.9199,4.3193-4.1201,8.5801-6.6006,12.7793
				c-0.5605,0.9209-0.6396,1.7402-0.2393,2.46C782.0801,40.6406,784.5195,45.8008,786.6396,50.8008z"/>
			<path class="st0" d="M836.9805,35.8604c0,6.3213-1.1211,11.7812-3.3604,16.3809c-2.8008,5.7998-7.6797,10.7393-14.6396,14.8193
				c-0.6006,0.3604-1.3408,0.54-2.2207,0.54c-1.2002,0-2.2197-0.4199-3.0596-1.2598s-1.2598-1.8604-1.2598-3.0596
				c0-1.6406,0.6992-2.8809,2.0996-3.7207c5.4395-3.3193,9.1094-6.7393,11.0098-10.2598c1.8994-3.5195,2.8506-7.7598,2.8506-12.7197
				c0-2.5596-0.3008-4.7598-0.9004-6.6006c-0.8008-2.4795-2.001-3.7197-3.5996-3.7197c-2.2012,0-4.2812,1.9404-6.2402,5.8203
				c-1.6797,3.4404-2.7598,7.1602-3.2402,11.1602c-0.2402,2.2002-0.96,3.6396-2.1602,4.3193
				c-0.7598,0.4404-1.5596,0.6602-2.3994,0.6602c-1.0801,0-2.0312-0.3496-2.8506-1.0498c-0.8203-0.6992-1.3105-1.5693-1.4697-2.6104
				c-0.5605-3.5195-0.8398-7.7998-0.8398-12.8398c0-4.3594,0.499-9.54,1.5-15.54c0.1592-0.9199,0.6094-1.6992,1.3496-2.3398
				c0.7402-0.6396,1.5898-0.96,2.5498-0.96c1.1201,0,2.0703,0.3896,2.8506,1.1699s1.1699,1.71,1.1699,2.79
				c0,0.3203-0.04,0.6406-0.1201,0.96c-0.9209,3.7607-1.4609,6.9404-1.6201,9.54l-0.1201,1.8604
				c1.4404-3.1602,3.2197-5.7197,5.3398-7.6807c2.4805-2.3193,5.1201-3.4795,7.9199-3.4795c3.6396,0,6.5,1.7998,8.5801,5.3994
				C836.0195,26.7207,836.9805,30.8613,836.9805,35.8604z"/>
			<path class="st0" d="M903.4004,39.1611c0,0.96-0.3008,1.7998-0.9004,2.5195s-1.3604,1.1611-2.2803,1.3203
				c-3.7197,0.6807-7.2002,1.5205-10.4395,2.5195c0.1592,2.04,0.2393,4.4209,0.2393,7.1406c0,1.04-0.3701,1.9404-1.1094,2.6992
				c-0.7412,0.7607-1.6309,1.1406-2.6699,1.1406c-1.0801,0-2.001-0.3906-2.7598-1.1699c-0.7607-0.7803-1.1211-1.71-1.0801-2.79
				c0.0791-2.2803,0.1191-3.6602,0.1191-4.1406v-0.1797c-2.0391,1-3.7402,2.1211-5.0996,3.3604
				c-1.5596,1.4805-2.3398,2.8604-2.3398,4.1396c0,2.4805,2.3398,3.7197,7.0195,3.7197c3.1201,0,6.54-0.2393,10.2607-0.7197
				c1.1592-0.1592,2.1895,0.1504,3.0898,0.9297c0.8994,0.7803,1.3496,1.7705,1.3496,2.9707c0,1.0391-0.3398,1.9395-1.0195,2.6992
				c-0.6807,0.7598-1.541,1.1797-2.5801,1.2607c-3.3213,0.2793-6.5205,0.4199-9.6006,0.4199c-4.2402,0-7.7598-0.6211-10.5596-1.8604
				c-3.96-1.7607-5.9404-4.5791-5.9404-8.46c0-6.0791,4.7793-11.2998,14.3408-15.6602c-0.6006-1.2002-1.5811-1.7998-2.9404-1.7998
				c-1.7207,0-3.6211,0.5801-5.7002,1.7402c-2.2803,1.2402-4.3604,2.9609-6.2402,5.1602c-0.7598,0.8799-1.7197,1.3193-2.8799,1.3193
				c-1.04,0-1.9297-0.3691-2.6699-1.1094s-1.1094-1.6299-1.1094-2.6699c0-0.9199,0.3193-1.7402,0.96-2.46
				c3.2393-3.6797,6.2998-7.5801,9.1797-11.7002l-5.5205,0.54c-1.0791,0.1201-2.0303-0.2002-2.8496-0.96
				c-0.8203-0.7598-1.2295-1.6807-1.2295-2.7607c0-0.999,0.3496-1.8594,1.0498-2.5791c0.6992-0.7207,1.5498-1.1006,2.5498-1.1406
				c3.8398-0.1201,7.4795-0.3594,10.9199-0.7197c1.2793-2.1602,2.4795-4.3799,3.5996-6.6602
				c0.7207-1.4395,1.8604-2.1602,3.4209-2.1602c1.0791,0,1.9893,0.3701,2.7295,1.1104c0.7393,0.7402,1.1104,1.6494,1.1104,2.7295
				c0,0.8408-0.5205,2.0811-1.5605,3.7207c1.4795-0.2793,3.2402-0.6797,5.2803-1.2002c0.3604-0.0801,0.6992-0.1201,1.0195-0.1201
				c1.04,0,1.8799,0.3896,2.5205,1.1699c0.6396,0.7803,0.96,1.6709,0.96,2.6699c0,1.9609-0.9805,3.1201-2.9404,3.4805
				c-2.7598,0.4795-6.7998,1.1006-12.1191,1.8594c-1.7207,2.5205-3.0811,4.4209-4.0801,5.7002
				c1.959-0.6797,3.7988-1.0195,5.5195-1.0195c3.7998,0,6.4395,1.7197,7.9199,5.1592c3.1592-1.0791,6.5791-2.0596,10.2598-2.9395
				c0.3203-0.0801,0.6201-0.1201,0.9004-0.1201c1.0801,0,2,0.3809,2.7598,1.1396
				C903.0195,37.1611,903.4004,38.0811,903.4004,39.1611z"/>
			<path class="st0" d="M928.8398,17.3203c-0.6406,2.6016-1.4805,5.2607-2.5195,7.9805v38.46c0,1.0801-0.3711,1.9893-1.1104,2.7305
				c-0.7402,0.7393-1.6504,1.1094-2.7295,1.1094c-1.0801,0-1.9912-0.3701-2.7305-1.1094c-0.7402-0.7412-1.1104-1.6504-1.1104-2.7305
				V41.0205c-0.2803,0.4004-0.7002,1.0205-1.2598,1.8604c-0.7197,1.0801-1.7607,1.6201-3.1201,1.6201
				c-1.04,0-1.9297-0.3691-2.6699-1.1104c-0.7402-0.7393-1.1094-1.6289-1.1094-2.6699c0-0.8398,0.2188-1.5801,0.6592-2.2197
				c4.6396-6.5596,8.1396-14.2598,10.5-23.1006c0.4805-1.8389,1.6807-2.7598,3.6006-2.7598c1.0801,0,1.9697,0.3701,2.6699,1.1104
				c0.6992,0.7402,1.0498,1.6104,1.0498,2.6094C928.96,16.6816,928.9199,17.001,928.8398,17.3203z M967.6602,53.0811
				c0,1.04-0.3604,1.9199-1.0801,2.6396S964.999,56.8008,964,56.8008c-1.2002,0-2.1807-0.4805-2.9404-1.4404
				c-4.04-5.1992-7.46-10.3799-10.2598-15.54v10.9209h4.2598c0.96,0,1.7803,0.3291,2.46,0.9893s1.0205,1.4707,1.0205,2.4307
				s-0.3408,1.7803-1.0205,2.46c-0.6797,0.6807-1.5,1.0195-2.46,1.0195h-4.2598v5.8203c0,0.999-0.3594,1.8594-1.0801,2.5801
				c-0.7197,0.7197-1.5596,1.0801-2.5195,1.0801c-1.001,0-1.8604-0.3604-2.5801-1.0801c-0.7197-0.7207-1.0801-1.5811-1.0801-2.5801
				v-5.8203h-4.2598c-0.96,0-1.7705-0.3389-2.4307-1.0195c-0.6592-0.6797-0.9893-1.5-0.9893-2.46s0.3301-1.7705,0.9893-2.4307
				c0.6602-0.6602,1.4707-0.9893,2.4307-0.9893h4.2598V39.5205c-2.8799,5.6406-6.3408,11.0205-10.3799,16.1406
				c-0.7197,0.9199-1.6797,1.3799-2.8799,1.3799c-1.001,0-1.8604-0.3604-2.5801-1.0801s-1.0801-1.5801-1.0801-2.5801
				c0-0.8799,0.3193-1.6797,0.96-2.4004c5.1992-5.9189,9.6191-13.0195,13.2598-21.2998h-9.54c-1,0-1.8594-0.3604-2.5801-1.0801
				c-0.7197-0.7197-1.0801-1.5996-1.0801-2.6396c0-1,0.3604-1.8604,1.0801-2.5801c0.7207-0.7197,1.5801-1.0801,2.5801-1.0801
				h12.1201v-5.7002c0-1.0391,0.3691-1.9287,1.1104-2.6699c0.7393-0.7393,1.6289-1.1104,2.6699-1.1104
				c1.0391,0,1.9199,0.3711,2.6396,1.1104c0.7197,0.7412,1.0801,1.6309,1.0801,2.6699v5.7002h12.54
				c0.999,0,1.8691,0.3604,2.6104,1.0801c0.7393,0.7197,1.1094,1.5801,1.1094,2.5801c0,1.04-0.3701,1.9199-1.1094,2.6396
				c-0.7412,0.7197-1.6113,1.0801-2.6104,1.0801h-10.2598c3.4395,7.4404,7.959,14.4404,13.5596,21
				C967.3604,51.4004,967.6602,52.2012,967.6602,53.0811z"/>
			<path class="st0" d="M978.4004,50.3809c-0.6006,4.5205-1.2402,8.2803-1.9199,11.2803c-0.2812,1.1992-1.0205,1.7998-2.2207,1.7998
				c-0.6396,0-1.1797-0.2305-1.6201-0.6904c-0.4404-0.459-0.6592-0.9893-0.6592-1.5898c0-0.1992,0.0195-0.3994,0.0596-0.5996
				c0.7998-2.96,1.5391-6.5596,2.2197-10.7998c0.2002-1.2002,0.9004-1.8008,2.1006-1.8008c0.5996,0,1.1094,0.2402,1.5293,0.7207
				C978.3096,49.1807,978.4795,49.7412,978.4004,50.3809z M992.7402,66.9404h-2.8203c-0.96,0-1.7803-0.3398-2.46-1.0195
				c-0.6807-0.6807-1.0195-1.5-1.0195-2.46c0-0.9199,0.3496-1.7197,1.0498-2.4004c0.6992-0.6797,1.5088-1.0195,2.4297-1.0195h0.6602
				c0.8398,0,1.3398-0.2197,1.5-0.6602c0.1592-0.4395,0.2402-1.7793,0.2402-4.0205v-7.5596c0-0.6396-0.3213-0.96-0.96-0.96h-11.1006
				c-3.3594,0-5.04-1.6797-5.04-5.04V19.6006c0-3.3594,1.6807-5.04,5.04-5.04h16.0801c0.8398,0,1.5801,0.3105,2.2197,0.9307
				s0.96,1.3496,0.96,2.1895c0,0.8809-0.3203,1.6309-0.96,2.25c-0.6396,0.6211-1.3799,0.9297-2.2197,0.9297h-4.5596v3.0605h3.3594
				c0.7598,0,1.4199,0.2695,1.9805,0.8096c0.5596,0.54,0.8398,1.1914,0.8398,1.9502c3.4805-3.1201,6.2793-6.3389,8.4004-9.6602
				c1.4795-2.3193,3.459-3.4795,5.9395-3.4795c2.3193,0,4.1797,1.0195,5.5801,3.0596c2.1201,3.0811,5.3193,6.4199,9.6006,10.0205
				c0.7988,0.6807,1.1992,1.54,1.1992,2.5801c0,0.9199-0.3301,1.7002-0.9893,2.3398c-0.6602,0.6396-1.4512,0.96-2.3701,0.96
				c-0.96,0-1.7402-0.2793-2.3398-0.8398c-1.2812-1.2393-2.2607-2.2002-2.9404-2.8799c-0.4004,1.3594-1.3008,2.0391-2.7002,2.0391
				h-1.6201v2.7002h4.7402c3.3604,0,5.04,1.6807,5.04,5.04v5.9404c0,3.3594-1.6797,5.04-5.04,5.04h-3.7803
				c2.1201,4.2402,5.2598,7.8203,9.4199,10.7402c1,0.6797,1.5,1.5996,1.5,2.7598c0,0.96-0.3398,1.7695-1.0195,2.4297
				c-0.6807,0.6602-1.5,0.9902-2.46,0.9902c-0.7197,0-1.3604-0.2012-1.9199-0.6006c-4.041-2.8799-7.2402-6.2793-9.6006-10.1992
				c-2.2402,3.7998-5.4395,7.2393-9.5996,10.3193c-0.5996,0.4404-1.2402,0.6602-1.9199,0.6602c-0.9209,0-1.71-0.3203-2.3701-0.96
				c-0.6602-0.6406-0.9902-1.4199-0.9902-2.3398c-0.4004,1.8799-1.2998,3-2.7002,3.3604
				C994.459,66.8604,993.7002,66.9404,992.7402,66.9404z M983.0801,60.7607c0.0391,0.5605-0.1309,1.0303-0.5098,1.4102
				c-0.3809,0.3809-0.8506,0.5703-1.4102,0.5703c-1.1611,0-1.7803-0.6201-1.8604-1.8604c-0.1201-2.4004-0.2998-5.8799-0.54-10.4404
				c-0.04-0.5186,0.1201-0.9795,0.4805-1.3799c0.3594-0.3994,0.7998-0.5996,1.3193-0.5996c1.1602,0,1.7803,0.5801,1.8604,1.7402
				C982.6992,53.8818,982.9199,57.4004,983.0801,60.7607z M985.54,23.9805v-3.1201h-2.7598c-0.6406,0-0.96,0.3213-0.96,0.96v2.1602
				H985.54z M985.54,32.1406v-2.5801h-3.7197v2.5801H985.54z M985.54,40.8408v-3.1797h-3.7197v2.2197
				c0,0.6406,0.3193,0.96,0.96,0.96H985.54z M987.8799,59.0811c0.0391,0.5205-0.1201,0.9697-0.4795,1.3496
				c-0.3604,0.3809-0.8203,0.5703-1.3809,0.5703c-1.1201,0-1.7197-0.5596-1.7998-1.6807c-0.2002-3.0791-0.4795-6.2393-0.8398-9.4795
				c-0.04-0.5195,0.1094-0.9697,0.4502-1.3496c0.3389-0.3799,0.7695-0.5703,1.29-0.5703c1.0801,0,1.6797,0.54,1.7998,1.6201
				C987.1992,51.9014,987.5195,55.0811,987.8799,59.0811z M991.9004,56.8604c0.0391,0.4414-0.1006,0.8311-0.4199,1.1709
				c-0.3213,0.3398-0.7012,0.5098-1.1406,0.5098c-0.96,0-1.4805-0.46-1.5596-1.3799c-0.2803-3.3604-0.5605-6-0.8398-7.9199
				c-0.0811-0.4404,0.0293-0.8408,0.3291-1.2002c0.3008-0.3604,0.6904-0.54,1.1709-0.54c0.8789,0,1.3799,0.4404,1.5,1.3193
				C991.2598,51.1406,991.5791,53.8213,991.9004,56.8604z M1009.2998,33.5205v-2.7002h-1.5596
				c-1.5205,0-2.4404-0.7393-2.7598-2.2197c-1.1211,1.2402-2.1602,2.3398-3.1201,3.2998c-0.6406,0.6406-1.4014,0.96-2.2803,0.96
				c-0.9209,0-1.6904-0.3193-2.3105-0.96c-0.6201-0.6387-0.9297-1.3994-0.9297-2.2793v-0.4199
				c-0.4004,0.2002-0.8008,0.2998-1.2002,0.2998h-3.3594v2.7002h3.4199c0.7588,0,1.4102,0.2695,1.9502,0.8096
				s0.8096,1.1904,0.8096,1.9502s-0.2695,1.4102-0.8096,1.9502s-1.1914,0.8096-1.9502,0.8096h-3.4199v3.1201h1.3799
				c3.3594,0,5.04,1.6797,5.04,5.04V56.501c0,2.3203-0.1006,4.2207-0.2998,5.7002c0.2393-0.6006,0.6592-1.1201,1.2598-1.5605
				c4.5996-3.1992,7.6797-6.8994,9.2402-11.0996h-3.7803c-3.3604,0-5.04-1.6807-5.04-5.04v-5.9404c0-3.3594,1.6797-5.04,5.04-5.04
				H1009.2998z M1009.2998,43.9609v-4.8604h-2.7598c-0.6406,0-0.96,0.3213-0.96,0.96v2.9404c0,0.6396,0.3193,0.96,0.96,0.96
				H1009.2998z M1016.7998,25.1807c-1.4395-1.6797-2.7598-3.3799-3.96-5.0996c-0.4404-0.6396-0.8604-0.6396-1.2598,0
				c-1.041,1.5596-2.2803,3.2607-3.7197,5.0996H1016.7998z M1019.5596,43.001v-2.9404c0-0.6387-0.3203-0.96-0.96-0.96h-2.8799
				v4.8604h2.8799C1019.2393,43.9609,1019.5596,43.6406,1019.5596,43.001z"/>
		</g>
	</g>
</g>
</svg>
