<?xml version="1.0" encoding="utf-8"?>
<!-- Generator: Adobe Illustrator 25.2.1, SVG Export Plug-In . SVG Version: 6.00 Build 0)  -->
<svg version="1.1" id="レイヤー_1" xmlns="http://www.w3.org/2000/svg" xmlns:xlink="http://www.w3.org/1999/xlink" x="0px"
	 y="0px" viewBox="0 0 1040 80" style="enable-background:new 0 0 1040 80;" xml:space="preserve">
<style type="text/css">
	.st0{fill:#1E1E28;}
</style>
<g>
	<g>
		<g>
			<path class="st0" d="M35.5596,47.6211c0,0.6807-0.2393,1.2695-0.7197,1.7695c-0.4795,0.501-1.0605,0.75-1.7402,0.75
				c-0.7197,0-1.3604-0.2793-1.9199-0.8398c-1.4004-1.3994-2.7207-2.8594-3.96-4.3799v19.5c0,0.6797-0.25,1.29-0.75,1.8301
				s-1.1094,0.8096-1.8301,0.8096c-0.7197,0-1.3301-0.2607-1.8301-0.7793c-0.5-0.5205-0.75-1.1211-0.75-1.8008V46.001
				c-1.5996,1.8809-3.3398,3.7402-5.2197,5.5801c-0.4795,0.4795-1.0801,0.7197-1.7998,0.7197S13.71,52.041,13.21,51.5205
				c-0.501-0.5195-0.75-1.1396-0.75-1.8594c0-0.7207,0.2793-1.3398,0.8398-1.8604c6.5596-6.1201,11.3799-12.3994,14.46-18.8398
				c0.0801-0.2002,0.1201-0.3799,0.1201-0.54c0-0.4805-0.3203-0.7197-0.96-0.7197H15.7598c-0.6807,0-1.25-0.2402-1.71-0.7207
				c-0.46-0.4795-0.6895-1.0586-0.6895-1.7393c0-0.6797,0.2295-1.25,0.6895-1.71s1.0293-0.6904,1.71-0.6904h5.8203v-6.6602
				c0-0.7197,0.2598-1.3398,0.7803-1.8604c0.5186-0.5186,1.1396-0.7793,1.8594-0.7793c0.7207,0,1.3398,0.2607,1.8604,0.7793
				c0.5195,0.5205,0.7803,1.1406,0.7803,1.8604v6.6602h2.8193c2.7998,0,4.2002,1.0801,4.2002,3.2402
				c0,0.6396-0.1602,1.3408-0.4795,2.0996c-1.3604,3.0811-3.2402,6.46-5.6406,10.1396c1.8398,2.2412,4.2002,4.7207,7.0801,7.4404
				C35.3203,46.2012,35.5596,46.8213,35.5596,47.6211z M65.7402,48.3408c0,3.2803-1.6602,4.9199-4.9805,4.9199h-7.2002v10.9805
				c0,0.7197-0.25,1.3389-0.75,1.8594c-0.5,0.5195-1.1094,0.7803-1.8291,0.7803c-0.7207,0-1.3408-0.2607-1.8604-0.7803
				c-0.5205-0.5205-0.7803-1.1396-0.7803-1.8594V53.2607h-6.6602c-3.3203,0-4.9795-1.6396-4.9795-4.9199V27.4609
				c0-3.3203,1.6592-4.9805,4.9795-4.9805h6.6602v-6.3594c0-0.7207,0.2598-1.3398,0.7803-1.8604
				c0.5195-0.5195,1.1396-0.7803,1.8604-0.7803c0.7197,0,1.3291,0.2607,1.8291,0.7803c0.5,0.5205,0.75,1.1396,0.75,1.8604v6.3594
				h7.2002c3.3203,0,4.9805,1.6602,4.9805,4.9805V48.3408z M48.46,35.3203v-7.8594h-4.9795c-1.2002,0-1.8008,0.5801-1.8008,1.7402
				v6.1191H48.46z M48.46,48.3408V40.001h-6.7803v6.5996c0,1.1611,0.6006,1.7402,1.8008,1.7402H48.46z M60.6396,35.3203v-6.1191
				c0-1.1602-0.5996-1.7402-1.7998-1.7402h-5.3994v7.8594H60.6396z M60.6396,46.6006V40.001h-7.1992v8.3398h5.3994
				C60.04,48.3408,60.6396,47.7617,60.6396,46.6006z"/>
			<path class="st0" d="M94.2402,30.4004c0,0.6807-0.2402,1.251-0.7207,1.71c-0.4795,0.4609-1.0596,0.6904-1.7393,0.6904H86.5
				v1.5596c1.6396,3.1611,3.5996,6.1807,5.8799,9.0605c0.3193,0.4004,0.4805,0.8604,0.4805,1.3799
				c0,0.6406-0.2314,1.1807-0.6904,1.6201c-0.46,0.4404-0.9902,0.6602-1.5898,0.6602c-0.8398,0-1.4805-0.3398-1.9199-1.0205
				c-0.8809-1.3193-1.6006-2.5596-2.1602-3.7197v21.96c0,0.6797-0.2305,1.2598-0.6904,1.7402
				c-0.46,0.4795-1.0303,0.7197-1.71,0.7197c-0.6807,0-1.2695-0.2402-1.7695-0.7197c-0.501-0.4805-0.75-1.0605-0.75-1.7402V43.1211
				c-1.1201,2.8799-2.5605,5.6602-4.3203,8.3398c-0.5205,0.8008-1.2002,1.2002-2.04,1.2002c-0.6396,0-1.2002-0.2402-1.6797-0.7207
				c-0.4805-0.4795-0.7197-1.0391-0.7197-1.6797c0-0.3994,0.1592-0.8398,0.4795-1.3203c3.5596-5.1592,6.3203-10.3799,8.2803-15.6592
				v-0.4805h-5.8799c-0.6807,0-1.251-0.2295-1.71-0.6904c-0.4609-0.459-0.6904-1.0293-0.6904-1.71
				c0-0.6797,0.2295-1.2598,0.6904-1.7393c0.459-0.4805,1.0293-0.7207,1.71-0.7207h5.8799V21.041
				c-0.8008,0.1602-2.46,0.4004-4.9805,0.7197c-0.6807,0.0811-1.2998-0.1201-1.8594-0.5996
				c-0.5605-0.4805-0.8398-1.0596-0.8398-1.7402c0-1.3994,0.6992-2.1797,2.0996-2.3398c5.1201-0.6396,9.5791-1.5996,13.3799-2.8799
				c0.2402-0.0801,0.4805-0.1201,0.7197-0.1201c0.6396,0,1.2002,0.2305,1.6807,0.6895c0.4795,0.4609,0.7197,1.0303,0.7197,1.71
				c0,1.1211-0.54,1.8604-1.6201,2.2207c-1.2002,0.4004-2.6602,0.8203-4.3799,1.2598v7.9795h5.2803
				c0.6797,0,1.2598,0.2402,1.7393,0.7207C94,29.1406,94.2402,29.7207,94.2402,30.4004z M100.7803,34.3008
				c-0.7607,5.9199-1.9199,11.4209-3.4805,16.5c-0.3594,1.2002-1.1602,1.7998-2.3994,1.7998c-0.7207,0-1.3105-0.2402-1.7705-0.7197
				c-0.46-0.4805-0.6895-1.0596-0.6895-1.7402c0-0.2793,0.0391-0.5596,0.1191-0.8398c1.5996-4.5596,2.7803-9.7598,3.54-15.5996
				c0.1602-1.3594,0.9395-2.04,2.3408-2.04c0.7197,0,1.3096,0.2607,1.7695,0.7793
				C100.6689,32.9609,100.8594,33.5811,100.7803,34.3008z M123.3398,54.2812c-0.1201,4.8398-0.7109,7.9404-1.7695,9.2998
				c-1.0605,1.3594-3.2705,2.04-6.6299,2.04h-4.9209c-2.7197,0-4.46-0.4199-5.2197-1.2607
				c-0.7598-0.8398-1.1396-2.5996-1.1396-5.2793c-2.2002,2.1201-4.4805,3.96-6.8398,5.5195
				c-0.4805,0.3203-0.96,0.4805-1.4404,0.4805c-0.7197,0-1.3408-0.2607-1.8604-0.7803c-0.5195-0.5205-0.7793-1.1396-0.7793-1.8604
				c0-0.96,0.3994-1.6992,1.2002-2.2197c3.6797-2.3193,6.9189-5.0195,9.7197-8.0996V29.2012c0-0.7207,0.2598-1.3398,0.7803-1.8604
				c0.5186-0.5195,1.1396-0.7803,1.8594-0.7803s1.3398,0.2607,1.8604,0.7803c0.5195,0.5205,0.7803,1.1396,0.7803,1.8604v15.8994
				c4.2393-6.7998,7.3389-15.3193,9.2998-25.5596c0.2793-1.4004,1.1396-2.1006,2.5801-2.1006c0.8398,0,1.5088,0.3213,2.0098,0.96
				c0.5,0.6406,0.6689,1.3604,0.5098,2.1602c-2.9199,13.3203-7.7197,24.2402-14.3994,32.7598v4.3203
				c0,1.2402,0.1592,2.0205,0.4795,2.3398c0.3193,0.3213,1.0996,0.4805,2.3398,0.4805h2.1602c1.8398,0,2.9795-0.3398,3.4199-1.0205
				c0.4395-0.6797,0.6992-2.4395,0.7803-5.2793c0-0.6797,0.2598-1.2803,0.7803-1.8008c0.5186-0.5186,1.1191-0.7793,1.7998-0.7793
				c0.7197,0,1.3398,0.2695,1.8594,0.8096S123.3398,53.5605,123.3398,54.2812z M113.9805,21.7012
				c0,0.7197-0.2607,1.3496-0.7803,1.8896c-0.5205,0.54-1.1611,0.8096-1.9199,0.8096c-0.4805,0-0.9209-0.1191-1.3203-0.3594
				c-2.5605-1.5195-5.2803-2.9004-8.1602-4.1406c-1.0801-0.4395-1.6201-1.2598-1.6201-2.46c0-0.7588,0.2598-1.3887,0.7803-1.8896
				c0.5195-0.5,1.1191-0.75,1.7998-0.75c0.3604,0,0.6992,0.0596,1.0205,0.1797c3.1201,1.3203,6.0596,2.7402,8.8193,4.2607
				C113.5195,19.7607,113.9805,20.5811,113.9805,21.7012z M128.2002,46.8408c0.0791,0.2803,0.1201,0.5605,0.1201,0.8398
				c0,0.6807-0.251,1.2705-0.75,1.7705c-0.501,0.5-1.1104,0.75-1.8301,0.75c-1.2402,0-2.04-0.5605-2.4004-1.6807
				c-1.2803-3.8398-2.6602-7.1396-4.1396-9.8994c-0.2012-0.3604-0.2998-0.7598-0.2998-1.2002c0-0.6797,0.249-1.2695,0.75-1.7705
				c0.499-0.499,1.0889-0.75,1.7695-0.75c0.999,0,1.7402,0.4609,2.2197,1.3809C125.3994,39.7217,126.9189,43.2412,128.2002,46.8408z
				"/>
			<path class="st0" d="M185.3799,39.1611c0,8.4805-0.2402,14.3604-0.7197,17.6396c-0.5605,3.6807-1.6406,6.0801-3.2402,7.2002
				c-1.3203,0.9199-3.7803,1.3799-7.3799,1.3799h-2.8799c-0.7197,0-1.3301-0.2607-1.8301-0.7803
				c-0.501-0.5205-0.75-1.1201-0.75-1.7998c0-0.7197,0.249-1.3291,0.75-1.8301c0.5-0.5,1.1104-0.75,1.8301-0.75h2.3994
				c2.2002,0,3.6797-0.3604,4.4404-1.0801c0.9199-0.8789,1.5-2.8398,1.7402-5.8799c0.2402-2.4795,0.3594-7.4189,0.3594-14.8203
				v-7.9199c0-1.7188-0.8604-2.5801-2.5801-2.5801h-11.5791c-1.0801,2.4404-2.46,5.04-4.1406,7.8008
				c-0.5205,0.8398-1.2207,1.2598-2.0996,1.2598c-1.3604,0-2.1807-0.6602-2.46-1.9805v22.6201c0,3.2803-1.6602,4.9199-4.9805,4.9199
				h-11.8193c-3.2803,0-4.9209-1.6396-4.9209-4.9199V28.3008c0-3.3193,1.6406-4.9805,4.9209-4.9805h2.1592
				c0.7998-2.2393,1.54-4.7393,2.2207-7.5c0.3193-1.3594,1.1992-2.0391,2.6396-2.0391c0.7197,0,1.3398,0.2695,1.8604,0.8096
				c0.5195,0.54,0.7793,1.1699,0.7793,1.8896c0,0.2402-0.04,0.4805-0.1191,0.7207c-0.7207,2.4805-1.3408,4.5205-1.8604,6.1191
				h4.1396c3.3203,0,4.9805,1.6611,4.9805,4.9805v5.6396c0.0391-0.1592,0.1201-0.3994,0.2402-0.7197
				c3.3984-5.7988,5.8994-11.5596,7.5-17.2803c0.3594-1.2793,1.1992-1.9199,2.5195-1.9199c0.7598,0,1.3799,0.251,1.8604,0.75
				c0.4795,0.501,0.7197,1.1104,0.7197,1.8301c0,0.7607-0.6807,2.8408-2.04,6.2402h11.1602c4.1191,0,6.1797,2.0605,6.1797,6.1797
				V39.1611z M152.0195,40.0605v-9.8994c0-1.2002-0.5996-1.8008-1.7998-1.8008h-7.6201c-1.1992,0-1.7998,0.6006-1.7998,1.8008
				v9.8994H152.0195z M152.0195,55.7207V45.041h-11.2197v10.6797c0,1.2002,0.6006,1.7998,1.7998,1.7998h7.6201
				C151.4199,57.5205,152.0195,56.9209,152.0195,55.7207z M173.5596,45.1006c0.1602,0.3604,0.2402,0.7197,0.2402,1.0801
				c0,0.6807-0.2402,1.2803-0.7197,1.7998c-0.4805,0.5205-1.0801,0.7803-1.7998,0.7803c-1.0801,0-1.8604-0.5195-2.3398-1.5596
				c-1.2412-2.7607-2.7002-5.5-4.3809-8.2207c-0.2002-0.3193-0.2998-0.7393-0.2998-1.2598c0-0.6797,0.2402-1.2598,0.7207-1.7402
				c0.4795-0.4795,1.0586-0.7197,1.7393-0.7197c0.96,0,1.6807,0.4004,2.1602,1.2002
				C170.6797,39.3809,172.2402,42.2607,173.5596,45.1006z"/>
			<path class="st0" d="M223.2402,25.3604c0,0.7607-0.2607,1.4014-0.7803,1.9209c-0.5205,0.5195-1.1396,0.7793-1.8604,0.7793
				h-9.7197c-2.2002,8.6406-5.5605,18.4004-10.0801,29.2803c-0.5205,1.2402-1.4199,1.8604-2.7002,1.8604
				c-0.7998,0-1.4902-0.29-2.0693-0.8701c-0.5811-0.5801-0.8701-1.2695-0.8701-2.0703c0-0.3604,0.0996-0.7598,0.2998-1.2002
				c3.96-8.5596,7.1191-17.5596,9.4805-27h-6.3604c-0.7197,0-1.3301-0.2598-1.8301-0.7793c-0.501-0.5195-0.75-1.1602-0.75-1.9209
				c0-0.7197,0.249-1.3291,0.75-1.8291c0.5-0.5,1.1104-0.75,1.8301-0.75h7.5596c0.4404-2.1602,0.7998-3.9805,1.0801-5.4609
				c0.2793-1.6396,1.2393-2.46,2.8799-2.46c0.9199,0,1.6807,0.3604,2.2803,1.0801c0.6006,0.7207,0.8193,1.541,0.6602,2.46
				c-0.2002,1.1211-0.501,2.5801-0.9004,4.3809h8.46c0.7207,0,1.3398,0.25,1.8604,0.75
				C222.9795,24.0312,223.2402,24.6406,223.2402,25.3604z M246.5195,53.9209c0,0.7598-0.2695,1.4004-0.8096,1.9199
				c-0.54,0.5205-1.1904,0.7803-1.9502,0.7803c-0.5996,0-1.1396-0.1807-1.6201-0.54c-1.8799-1.4004-3.6201-2.5801-5.2197-3.54
				c-0.04,4.3193-1.3799,7.5801-4.0195,9.7793c-2.4004,2-5.7812,3-10.1406,3c-4.4004,0-7.9004-0.9893-10.5-2.9697
				c-2.6006-1.9795-3.8994-4.6289-3.8994-7.9502c0-3.3594,1.2988-6.0693,3.8994-8.1299c2.5996-2.0596,6.0195-3.0898,10.2598-3.0898
				c3.0801,0,6.0205,0.4004,8.8203,1.2002V28.0605H229c-0.7197,0-1.3408-0.2598-1.8604-0.7793s-0.7793-1.1602-0.7793-1.9209
				c0-0.7197,0.2598-1.3291,0.7793-1.8291s1.1406-0.75,1.8604-0.75h13.5596c0.7207,0,1.3398,0.25,1.8604,0.75
				c0.5195,0.5,0.7803,1.1094,0.7803,1.8291c0,0.7607-0.2607,1.4014-0.7803,1.9209c-0.5205,0.5195-1.1396,0.7793-1.8604,0.7793
				h-5.5791v18.54c2.4795,1.2002,5.2793,2.9004,8.3994,5.1006C246.1396,52.2207,246.5195,52.9609,246.5195,53.9209z
				 M231.3398,51.3408v-1.5596c-2.9609-1.1201-5.8408-1.6807-8.6396-1.6807c-2.9609,0-5.2109,0.5703-6.75,1.71
				c-1.54,1.1406-2.3105,2.6104-2.3105,4.4102c0,2.001,0.8408,3.5205,2.5205,4.5605c1.5195,1,3.6191,1.5,6.2998,1.5
				C228.3789,60.2812,231.3398,57.3018,231.3398,51.3408z"/>
			<path class="st0" d="M299.0801,58.9609c0.1201,0.3594,0.1797,0.7197,0.1797,1.0801c0,0.8398-0.2998,1.5703-0.8994,2.1895
				c-0.6006,0.6201-1.3604,0.9307-2.2803,0.9307c-1.5205,0-2.5205-0.7002-3-2.1006l-3.54-9.8994h-19.3799l-3.2998,9.8398
				c-0.4805,1.4395-1.4805,2.1602-3,2.1602c-0.8809,0-1.6309-0.3105-2.25-0.9307c-0.6211-0.6191-0.9307-1.3496-0.9307-2.1895
				c0-0.3604,0.0605-0.6992,0.1807-1.0205l12.96-37.2598c1.1592-3.3604,3.0986-5.04,5.8193-5.04
				c2.7197,0,4.6807,1.6602,5.8799,4.9805L299.0801,58.9609z M287.5596,45.4609l-7.3799-20.9404
				c-0.1201-0.3594-0.2998-0.54-0.54-0.54c-0.2393,0-0.4199,0.1807-0.54,0.54l-7.0195,20.9404H287.5596z"/>
			<path class="st0" d="M357.7598,58.6611C357.9189,59.0615,358,59.4814,358,59.9209c0,0.8799-0.3105,1.6602-0.9297,2.3398
				c-0.6211,0.6797-1.4102,1.0205-2.3701,1.0205c-1.4805,0-2.501-0.6797-3.0605-2.04l-5.04-12.6602
				c-1.4395-3.6396-4.2207-5.46-8.3398-5.46h-8.6396V60.041c0,0.8799-0.3203,1.6406-0.96,2.2793
				c-0.6406,0.6396-1.4004,0.9609-2.2803,0.9609c-0.9209,0-1.7002-0.3213-2.3398-0.9609c-0.6406-0.6387-0.96-1.3994-0.96-2.2793
				V22.9609c0-3.7998,1.8994-5.7002,5.7002-5.7002H343.54c4.0801,0,7.3594,0.96,9.8398,2.8799
				c2.8799,2.2002,4.3203,5.4404,4.3203,9.7197c0,6.2803-3.0811,10.2207-9.2402,11.8203c2.1201,1.2002,3.6992,3.1006,4.7402,5.7002
				L357.7598,58.6611z M351.04,30.1006c0-2.1602-0.7197-3.8789-2.1602-5.1602c-1.4395-1.2793-3.501-1.9199-6.1797-1.9199H331.54
				c-1.2803,0-1.9199,0.6406-1.9199,1.9199V37.541h12.96c2.6797,0,4.7598-0.6992,6.2402-2.1006
				C350.2998,34.041,351.04,32.2607,351.04,30.1006z"/>
			<path class="st0" d="M386.9805,37.2412c0.1992,1-0.0303,1.8594-0.6904,2.5791c-0.6602,0.7207-1.4502,1.0801-2.3701,1.0801
				c-1.6797,0-2.6807-0.8789-3-2.6396c-0.8398-4.8389-2.1807-10.3594-4.0195-16.5596c-0.0811-0.2402-0.1201-0.5-0.1201-0.7803
				c0-0.7998,0.3096-1.5098,0.9297-2.1299s1.3496-0.9307,2.1904-0.9307c1.5195,0,2.499,0.7803,2.9395,2.3408
				C384.7197,26.7207,386.0996,32.4014,386.9805,37.2412z M423.5801,20.6807c-0.4404,12-3.3203,21.46-8.6396,28.3799
				c-5.4814,7.0801-13.8008,11.9404-24.96,14.5801c-0.2402,0.0391-0.4609,0.0605-0.6602,0.0605
				c-0.8008,0-1.4912-0.2803-2.0703-0.8408c-0.5801-0.5596-0.8701-1.2598-0.8701-2.0996c0-1.5195,0.7598-2.46,2.2803-2.8203
				c9.8398-2.3193,17.04-6.6992,21.5996-13.1396c4.1602-5.8799,6.3994-14.0195,6.7207-24.4199
				c0.0391-0.8799,0.3691-1.6299,0.9893-2.25s1.3701-0.9297,2.25-0.9297c0.96,0,1.7705,0.3398,2.4307,1.0195
				C423.3096,18.9014,423.6191,19.7207,423.5801,20.6807z M404.2002,36.5205c0.1592,0.9209-0.0703,1.751-0.6904,2.4902
				c-0.6201,0.7402-1.4102,1.1104-2.3701,1.1104c-1.7197,0-2.7207-0.8604-3-2.5801c-0.7598-4.6396-2.04-10.1602-3.8398-16.5605
				c-0.0801-0.2393-0.1201-0.4795-0.1201-0.7197c0-0.7998,0.3096-1.5098,0.9307-2.1299c0.6191-0.6201,1.3496-0.9297,2.1895-0.9297
				c1.5195,0,2.5,0.7598,2.9404,2.2793C401.9199,25.4805,403.2402,31.1611,404.2002,36.5205z"/>
			<path class="st0" d="M483.4004,25.001c-0.7207,3.96-2.4404,7.7197-5.1602,11.2803c-4.2812,5.5596-10.7012,9.1191-19.2598,10.6797
				c-2.6807,7.8398-8.04,13.3799-16.0801,16.6201c-0.3604,0.1201-0.7207,0.1797-1.0801,0.1797
				c-0.7607,0-1.4307-0.2695-2.0107-0.8096s-0.8691-1.2305-0.8691-2.0703c0-1.2002,0.5596-2.0596,1.6797-2.5801
				c4.9199-2.1992,8.5195-5.1797,10.7998-8.9404c2.4795-3.999,3.7197-9.3193,3.7197-15.96v-1.4395
				c0-0.7998,0.29-1.4902,0.8701-2.0703c0.5801-0.5791,1.2695-0.8701,2.0703-0.8701c0.7998,0,1.4795,0.291,2.04,0.8701
				c0.5596,0.5801,0.8398,1.2705,0.8398,2.0703v1.7402c0,2.6396-0.1602,5.0195-0.4795,7.1396
				c8.6396-2.0791,13.9795-6.9795,16.0195-14.7002c0.0801-0.2793,0.1201-0.54,0.1201-0.7803c0-1.2393-0.8008-1.8594-2.4004-1.8594
				h-34.3193c-0.8008,0-1.4707-0.2793-2.0107-0.8398c-0.54-0.5596-0.8096-1.2197-0.8096-1.9805
				c0-0.7588,0.2695-1.4189,0.8096-1.9795s1.21-0.8408,2.0107-0.8408h36.8994c2.0791,0,3.7197,0.4912,4.9199,1.4707
				c1.2002,0.9805,1.7998,2.3701,1.7998,4.1699C483.5195,23.9805,483.4795,24.4814,483.4004,25.001z"/>
			<path class="st0" d="M544.3604,37.4805c0,0.8008-0.2803,1.4805-0.8408,2.04c-0.5605,0.5605-1.2402,0.8398-2.0391,0.8398h-42.9004
				c-0.8008,0-1.4805-0.2793-2.04-0.8398c-0.5605-0.5596-0.8398-1.2393-0.8398-2.04c0-0.7998,0.2793-1.4795,0.8398-2.04
				c0.5596-0.5596,1.2393-0.8398,2.04-0.8398h42.9004c0.7988,0,1.4785,0.2803,2.0391,0.8398
				C544.0801,36.001,544.3604,36.6807,544.3604,37.4805z"/>
			<path class="st0" d="M604.0596,21.5811c0,0.7598-0.2695,1.4199-0.8096,1.9795c-0.54,0.5605-1.1904,0.8613-1.9502,0.9004
				l-4.2002,0.1201c-5.6797,0.1602-10.8506,2.2197-15.5098,6.1797c-4.6602,3.96-6.9902,8.3008-6.9902,13.0205
				c0,8.7998,7.1602,13.4795,21.4805,14.0391c0.7998,0.041,1.4795,0.3516,2.04,0.9307c0.5596,0.5801,0.8398,1.2705,0.8398,2.0693
				c0,0.8408-0.3105,1.5605-0.9297,2.1602c-0.6211,0.6006-1.3506,0.8799-2.1904,0.8398
				c-8.6396-0.2393-15.3398-2.0293-20.0996-5.3691c-4.7607-3.3398-7.1406-8.0498-7.1406-14.1309
				c0-3.999,1.2998-7.7998,3.9004-11.3994c2.4795-3.3193,5.7998-6.0996,9.96-8.3398l-23.3398,0.7793
				c-0.8008,0.041-1.4912-0.2188-2.0703-0.7793c-0.5801-0.5596-0.8701-1.2393-0.8701-2.04c0-0.7598,0.2705-1.4199,0.8105-1.9805
				c0.54-0.5596,1.1895-0.8398,1.9502-0.8398l42.1797-0.96c0.7998,0,1.4893,0.2705,2.0703,0.8096
				C603.7695,20.1104,604.0596,20.7812,604.0596,21.5811z M598.1201,37.7207c0,0.6406-0.21,1.1807-0.6299,1.6201
				c-0.4199,0.4404-0.9512,0.6602-1.5898,0.6602c-0.6807,0-1.251-0.2197-1.71-0.6602c-0.4609-0.4395-0.6904-0.9795-0.6904-1.6201
				v-7.3203c0-0.6387,0.2295-1.1787,0.6904-1.6191c0.459-0.4404,1.0293-0.6602,1.71-0.6602c0.6387,0,1.1699,0.2197,1.5898,0.6602
				s0.6299,0.9805,0.6299,1.6191V37.7207z M606.04,37.7207c0,0.6406-0.2207,1.1807-0.6602,1.6201
				c-0.4404,0.4404-0.9805,0.6602-1.6201,0.6602s-1.1797-0.2197-1.6201-0.6602c-0.4404-0.4395-0.6592-0.9795-0.6592-1.6201v-7.3799
				c0-0.5996,0.2188-1.1191,0.6592-1.5596s0.9805-0.6602,1.6201-0.6602s1.1797,0.2197,1.6201,0.6602
				c0.4395,0.4404,0.6602,0.96,0.6602,1.5596V37.7207z"/>
			<path class="st0" d="M657.1602,48.5811c0,4.8799-1.6406,8.6006-4.9199,11.1602c-3,2.3604-7.0205,3.54-12.0605,3.54
				c-6.04,0-10.8594-1.5996-14.46-4.8008c-0.6807-0.5996-1.0195-1.3994-1.0195-2.3994c0-0.9199,0.3096-1.7002,0.9297-2.3398
				s1.3896-0.96,2.3105-0.96c0.8398,0,1.6191,0.3203,2.3398,0.96c2.9189,2.6797,6.0986,4.0195,9.54,4.0195
				c3.4795,0,6.1992-0.8789,8.1602-2.6396c1.8389-1.6396,2.7598-3.7998,2.7598-6.4805c0-2.5195-0.8311-4.4697-2.4902-5.8496
				c-1.6602-1.3799-3.9297-2.0703-6.8096-2.0703c-3.5205,0-6.4609,0.9209-8.8203,2.7598c-1.7207,1.3604-3.2402,1.9805-4.5605,1.8604
				c-2.3203-0.2002-3.3594-1.5801-3.1191-4.1396l1.6191-18c0.3203-3.6006,2.3193-5.4004,6-5.4004h20.2803
				c0.7998,0,1.4795,0.2695,2.04,0.8096c0.5596,0.54,0.8398,1.2109,0.8398,2.0107c0,0.8008-0.2803,1.4902-0.8398,2.0693
				c-0.5605,0.5811-1.2402,0.8701-2.04,0.8701h-18.2402c-1.1992,0-1.8594,0.6006-1.9795,1.7998l-1.3203,12.7803
				c0,0.0811,0.0605,0.1406,0.1807,0.1797c3.1992-2.1191,6.999-3.1797,11.3994-3.1797c4.1602,0,7.5801,1.2109,10.2598,3.6299
				C655.8193,41.1914,657.1602,44.4609,657.1602,48.5811z"/>
			<path class="st0" d="M727.54,42.1006c0,0.6006-0.2207,1.1201-0.6602,1.5605c-0.4404,0.4404-0.96,0.6592-1.5596,0.6592h-41.3398
				v1.4404c0,1.1201,0.5596,1.6797,1.6797,1.6797h34.1396c3.2793,0,4.9199,1.6406,4.9199,4.9199v4.5
				c0,3.8408-0.6104,6.46-1.8301,7.8604c-1.2207,1.3994-3.6699,2.0996-7.3496,2.0996h-2.7598c-0.7207,0-1.3311-0.2598-1.8301-0.7793
				c-0.501-0.5205-0.75-1.1406-0.75-1.8604c0-0.6807,0.249-1.2803,0.75-1.7998c0.499-0.5195,1.1094-0.7803,1.8301-0.7803h2.0996
				c1.96,0,3.1797-0.3799,3.6602-1.1396c0.3994-0.5596,0.5996-1.8799,0.5996-3.96v-3.0605c0-1.1992-0.5996-1.7998-1.7998-1.7998h-21
				v7.1406h8.3398c1.1201,0,1.6807-0.5605,1.6807-1.6807V55.541c0-0.7207,0.2598-1.3398,0.7793-1.8604
				c0.5195-0.5195,1.1602-0.7803,1.9199-0.7803c0.7207,0,1.3398,0.2607,1.8604,0.7803c0.5195,0.5205,0.7803,1.1396,0.7803,1.8604
				v3.1797c0,3.2012-1.6006,4.7998-4.7998,4.7998h-26.6406c-3.2002,0-4.7998-1.5986-4.7998-4.7998v-3.0596
				c0-0.7598,0.2705-1.4102,0.8096-1.9502c0.54-0.54,1.1904-0.8105,1.9502-0.8105s1.4102,0.2705,1.9502,0.8105
				s0.8105,1.1904,0.8105,1.9502v1.4395c0,1.1201,0.5596,1.6807,1.6797,1.6807h8.04v-7.1406h-7.5
				c-3.2012,0-4.7998-1.5996-4.7998-4.7998V23.501c0-3.2002,1.5986-4.7998,4.7998-4.7998h10.1396
				c0.6006-1.2002,1.1602-2.5205,1.6797-3.96c0.4404-1.2002,1.3203-1.8008,2.6406-1.8008c0.7588,0,1.3994,0.291,1.9199,0.8701
				c0.5195,0.5801,0.7803,1.2305,0.7803,1.9502c0,0.5605-0.3604,1.54-1.0801,2.9404h15.96c3.1992,0,4.7998,1.5996,4.7998,4.7998
				v8.6396c0,3.2012-1.6006,4.7998-4.7998,4.7998h-31.2598v2.9404h41.3398c0.5996,0,1.1191,0.2207,1.5596,0.6602
				C727.3193,40.9814,727.54,41.501,727.54,42.1006z M714.46,26.0205v-1.5c0-1.1191-0.5605-1.6797-1.6797-1.6797h-27.1201
				c-1.1201,0-1.6797,0.5605-1.6797,1.6797v1.5H714.46z M714.46,31.4805v-1.6201h-30.4795v3.3008h28.7998
				C713.8994,33.1611,714.46,32.6016,714.46,31.4805z"/>
			<path class="st0" d="M786.8203,62.6211c0,0.7197-0.2607,1.3291-0.7803,1.8301c-0.5205,0.499-1.1201,0.75-1.7998,0.75h-28.3203
				c-3.04,0-5.4805-0.3809-7.3203-1.1406c-1.96-0.8398-3.5996-2.2588-4.9199-4.2598c-1.7607,1.6006-3.5996,3.1201-5.5195,4.5596
				c-0.6006,0.4404-1.1807,0.6602-1.7402,0.6602c-0.8008,0-1.4902-0.2998-2.0703-0.8994c-0.5801-0.6006-0.8691-1.3008-0.8691-2.1006
				c0-0.999,0.459-1.7998,1.3799-2.3994c2.6396-1.7598,4.9199-3.5195,6.8398-5.2803V42.6406c0-1.0801-0.5205-1.6201-1.5605-1.6201
				h-4.0801c-0.7197,0-1.3496-0.2598-1.8896-0.7793s-0.8096-1.1602-0.8096-1.9209c0-0.7197,0.2695-1.3496,0.8096-1.8896
				s1.1699-0.8096,1.8896-0.8096h6.2402c3.2002,0,4.7998,1.5996,4.7998,4.7998v14.2197c0.6797,2.001,1.8008,3.4004,3.3604,4.2002
				c1.4404,0.8008,3.5,1.2002,6.1797,1.2002h27.6006c0.6797,0,1.2793,0.25,1.7998,0.75
				C786.5596,61.291,786.8203,61.9004,786.8203,62.6211z M746.6797,24.1611c0,0.7998-0.2695,1.4697-0.8096,2.0098
				s-1.21,0.8096-2.0098,0.8096c-0.8408,0-1.541-0.3193-2.1006-0.96c-1.4395-1.5986-3.1201-3.2598-5.04-4.9795
				c-0.6396-0.5596-0.96-1.2393-0.96-2.04c0-0.7598,0.2793-1.4199,0.8398-1.9805c0.5605-0.5596,1.2197-0.8398,1.9805-0.8398
				c0.6797,0,1.2988,0.2402,1.8604,0.7197c1.7588,1.5215,3.5791,3.2803,5.46,5.2803
				C746.4189,22.7412,746.6797,23.4014,746.6797,24.1611z M761.9199,18.7012c-1.8809,5.2402-3.96,9.9805-6.2402,14.2197
				c-0.6396,1.2002-0.7002,2.3799-0.1797,3.54c2.2803,5.2002,4.3594,10.7197,6.2402,16.5596
				c0.0791,0.2803,0.1201,0.5605,0.1201,0.8398c0,0.7607-0.2803,1.4307-0.8408,2.0107s-1.2197,0.8701-1.9795,0.8701
				c-1.4004,0-2.3008-0.6602-2.7002-1.9805c-1.8809-6.1592-3.8994-11.7793-6.0596-16.8604
				c-0.4805-1.1191-0.7207-2.1592-0.7207-3.1191c0-1.0801,0.3203-2.2207,0.96-3.4209c2.4395-4.6396,4.5205-9.459,6.2402-14.46
				c0.4395-1.2393,1.2998-1.8594,2.5801-1.8594c0.7598,0,1.4102,0.2803,1.9502,0.8398c0.54,0.5605,0.8096,1.2002,0.8096,1.9199
				C762.0996,18.1211,762.04,18.4219,761.9199,18.7012z M773.1396,19.3008c-1.7607,4.4404-3.8994,8.9199-6.4199,13.4404
				c-0.6396,1.1602-0.7197,2.2402-0.2393,3.2393c2.6396,5.4805,4.8389,10.7803,6.5996,15.9004
				c0.1201,0.3203,0.1797,0.6201,0.1797,0.9004c0,0.7598-0.2695,1.4092-0.8096,1.9492s-1.2109,0.8105-2.0098,0.8105
				c-1.2812,0-2.1406-0.6396-2.5801-1.9199c-1.8408-5.5205-3.9404-10.8203-6.3008-15.9004
				c-0.5195-1.1191-0.7793-2.1602-0.7793-3.1201c0-1.0801,0.3389-2.2393,1.0195-3.4795c2.2803-4.0801,4.4199-8.6602,6.4199-13.7402
				c0.4404-1.1191,1.2607-1.6797,2.46-1.6797c0.7598,0,1.3896,0.2598,1.8906,0.7793c0.499,0.5205,0.75,1.1406,0.75,1.8604
				C773.3203,18.6611,773.2598,18.9814,773.1396,19.3008z M786.0996,52.3008c0.1602,0.3203,0.2402,0.6807,0.2402,1.0801
				c0,0.7598-0.2803,1.4307-0.8398,2.0098c-0.5605,0.5801-1.2402,0.8701-2.04,0.8701c-1.3203,0-2.2197-0.5996-2.7002-1.7998
				c-2.3604-5.9199-4.8809-11.4395-7.5596-16.5605c-0.6006-1.1592-0.9004-2.2393-0.9004-3.2393c0-1.04,0.3398-2.1602,1.0205-3.3604
				c2.7197-4.7197,5.0596-9.4805,7.0195-14.2803c0.4805-1.1191,1.3398-1.6797,2.5801-1.6797c0.7998,0,1.4697,0.2803,2.0098,0.8398
				c0.54,0.5605,0.8105,1.2207,0.8105,1.9805c0,0.3594-0.0811,0.7197-0.2402,1.0801c-1.96,4.5596-4.2803,9.0996-6.96,13.6191
				c-0.4004,0.6807-0.5996,1.3008-0.5996,1.8604c0,0.4004,0.1191,0.8398,0.3594,1.3203
				C781.4199,41.8408,784.0195,47.2607,786.0996,52.3008z"/>
			<path class="st0" d="M840.8799,37.541c0,17.1201-9.7197,26.1387-29.1602,27.0596c-0.8008,0.04-1.5-0.2197-2.0996-0.7803
				c-0.6006-0.5605-0.9004-1.2393-0.9004-2.0391c0-0.7207,0.2598-1.3594,0.7803-1.9209c0.5195-0.5596,1.1396-0.8594,1.8604-0.8994
				c7.7598-0.5195,13.4795-2.3594,17.1592-5.5205c4.04-3.4395,6.0605-8.6992,6.0605-15.7793c0-4.1602-0.7607-7.6396-2.2803-10.4404
				c-1.8809-3.5195-4.7197-5.2803-8.5195-5.2803c-4.0801,0-7.6807,2.501-10.7998,7.5c-2.7607,4.4404-4.7607,10.1611-6,17.1602
				c-0.2812,1.5605-1.2207,2.3398-2.8203,2.3398c-0.8008,0-1.4912-0.2793-2.0703-0.8398c-0.5801-0.5596-0.8701-1.2393-0.8701-2.04
				c0.2402-10.6797,0.5-19.5195,0.7803-26.5195c0.0391-0.7598,0.3301-1.4102,0.8701-1.9502s1.209-0.8096,2.0098-0.8096
				c0.7998,0,1.4795,0.3096,2.04,0.9297c0.5596,0.6201,0.8193,1.3496,0.7803,2.1895c-0.1201,2.7607-0.3213,6.6211-0.6006,11.5801
				c0.8799-3.1992,2.5-6.1797,4.8604-8.9395c3.4395-4,7.5801-6,12.4199-6c5.1992,0,9.2998,2.0605,12.2998,6.1797
				C839.4795,26.5605,840.8799,31.501,840.8799,37.541z"/>
			<path class="st0" d="M904.0596,36.3408c0,1.6006-0.8203,2.5-2.46,2.7002c-3.8398,0.4404-7.5801,1.1602-11.2197,2.1602
				c0.5596,2.96,0.8799,6.5996,0.96,10.9199c0,0.7598-0.2695,1.4199-0.8096,1.9795c-0.54,0.5605-1.1904,0.8398-1.9502,0.8398
				c-0.7607,0-1.4004-0.2598-1.9199-0.7793c-0.5205-0.5195-0.7803-1.1602-0.7803-1.9199c-0.04-4.04-0.2402-7.1797-0.5996-9.4209
				c-7.9609,2.9609-11.9404,6.3604-11.9404,10.2002c0,4.2002,4.7402,6.2998,14.2197,6.2998c3.0801,0,6.8604-0.2793,11.3408-0.8398
				c0.7988-0.1201,1.5195,0.1006,2.1592,0.6602c0.6396,0.5605,0.96,1.2402,0.96,2.04c0,0.7197-0.2393,1.3408-0.7197,1.8604
				c-0.4795,0.5195-1.0605,0.8193-1.7402,0.8994c-4.1602,0.4805-8.1201,0.7207-11.8799,0.7207
				c-6.4004,0-11.2197-0.7607-14.46-2.2803c-3.9199-1.8398-5.8799-4.8994-5.8799-9.1797c0-3,1.5391-5.8809,4.6201-8.6406
				c2.7998-2.5195,6.6797-4.7402,11.6396-6.6602c-0.8799-1.2393-2.0996-1.8594-3.6592-1.8594
				c-4.6807,0-9.7012,2.6006-15.0605,7.7998c-0.9209,0.9209-2.46,2.4004-4.6201,4.4404c-0.4795,0.4404-1.0801,0.6592-1.7998,0.6592
				c-0.7607,0-1.4004-0.2598-1.9199-0.7793c-0.5205-0.5195-0.7803-1.1406-0.7803-1.8604c0-0.7998,0.2998-1.4795,0.9004-2.04
				c6.0791-5.5195,10.9395-11.4004,14.5801-17.6396H859.96c-0.7197,0-1.3301-0.25-1.8301-0.75c-0.501-0.5-0.75-1.1104-0.75-1.8301
				c0-0.7207,0.249-1.3301,0.75-1.8301c0.5-0.5,1.1104-0.75,1.8301-0.75h13.9805c0.7197-1.5195,1.3994-3.0996,2.04-4.7402
				c0.4795-1.2002,1.3594-1.7998,2.6396-1.7998c0.7998,0,1.4795,0.29,2.04,0.8701c0.5596,0.5801,0.8398,1.25,0.8398,2.0098
				c0,0.4404-0.4805,1.6602-1.4404,3.6602h19.8008c0.6797,0,1.2793,0.25,1.7998,0.75c0.5195,0.5,0.7803,1.1094,0.7803,1.8301
				c0,0.7197-0.2607,1.3301-0.7803,1.8301c-0.5205,0.5-1.1201,0.75-1.7998,0.75h-22.4404c-1.4004,2.4805-3.0596,5-4.9795,7.5596
				c0.8789-0.6797,2.1299-1.3096,3.75-1.8896c1.6191-0.5801,3.1094-0.8701,4.4697-0.8701c3.8789,0,6.5996,1.5596,8.1602,4.6797
				c3.7197-1.1191,7.7598-1.959,12.1201-2.5195c0.7988-0.1201,1.5195,0.0996,2.1592,0.6602S904.0596,35.501,904.0596,36.3408z"/>
			<path class="st0" d="M928.2402,16.7812c-0.7207,2.8398-1.7607,5.9199-3.1201,9.2393v38.04c0,0.7598-0.2705,1.4102-0.8105,1.9502
				s-1.1904,0.8096-1.9492,0.8096c-0.7607,0-1.4102-0.2695-1.9502-0.8096s-0.8105-1.1904-0.8105-1.9502V37.6611
				c-1,1.7998-2.0996,3.5996-3.2998,5.3994c-0.5205,0.7607-1.2598,1.1406-2.2197,1.1406c-0.7607,0-1.4004-0.2598-1.9199-0.7803
				c-0.5205-0.5195-0.7803-1.1602-0.7803-1.9199c0-0.6006,0.1592-1.1191,0.4805-1.5605c4.959-7.0391,8.6992-15.2393,11.2197-24.5996
				c0.3604-1.2793,1.2197-1.9199,2.5801-1.9199c0.7588,0,1.3994,0.2607,1.9199,0.7803c0.5195,0.5195,0.7803,1.1396,0.7803,1.8594
				C928.3604,16.3008,928.3193,16.541,928.2402,16.7812z M966.9404,53.7412c0,0.7598-0.251,1.3896-0.75,1.8896
				c-0.501,0.501-1.1104,0.75-1.8301,0.75c-0.8809,0-1.6006-0.3398-2.1602-1.0205c-4.9609-6.0791-9.1602-12.54-12.6006-19.3799
				v15.4805H955c0.6797,0,1.2598,0.2402,1.7402,0.7197c0.4795,0.4805,0.7197,1.0605,0.7197,1.7402
				c0,0.6807-0.2402,1.2598-0.7197,1.7402c-0.4805,0.4795-1.0605,0.7197-1.7402,0.7197h-5.4004v7.3203
				c0,0.7197-0.2598,1.3389-0.7793,1.8594c-0.5205,0.5195-1.1211,0.7803-1.8008,0.7803c-0.7197,0-1.3398-0.2607-1.8594-0.7803
				c-0.5205-0.5205-0.7803-1.1396-0.7803-1.8594v-7.3203H939.04c-0.6807,0-1.2598-0.2402-1.7402-0.7197
				c-0.4795-0.4805-0.7197-1.0596-0.7197-1.7402c0-0.6797,0.2402-1.2598,0.7197-1.7402c0.4805-0.4795,1.0596-0.7197,1.7402-0.7197
				h5.3398V35.6211c-3.5605,7.4805-7.7607,14.1396-12.5996,19.9795c-0.5605,0.6807-1.2402,1.0205-2.04,1.0205
				c-0.7207,0-1.3408-0.2598-1.8604-0.7803c-0.5205-0.5195-0.7803-1.1396-0.7803-1.8604c0-0.6387,0.2402-1.2197,0.7207-1.7393
				c5.5996-6.2002,10.5-14.0801,14.6992-23.6406h-12c-0.7197,0-1.3301-0.249-1.8291-0.75c-0.501-0.499-0.75-1.1299-0.75-1.8896
				c0-0.7197,0.249-1.3398,0.75-1.8604c0.499-0.5195,1.1094-0.7803,1.8291-0.7803h13.8008v-7.0791
				c0-0.7598,0.2598-1.4004,0.7793-1.9209c0.5195-0.5186,1.1602-0.7793,1.9199-0.7793c0.7207,0,1.3398,0.2607,1.8604,0.7793
				c0.5195,0.5205,0.7803,1.1611,0.7803,1.9209v7.0791h14.1602c0.7197,0,1.3398,0.2607,1.8594,0.7803
				c0.5195,0.5205,0.7803,1.1406,0.7803,1.8604s-0.2607,1.3408-0.7803,1.8594c-0.5195,0.5205-1.1396,0.7803-1.8594,0.7803h-12.6006
				c3.6797,8.2412,8.7197,16.041,15.1201,23.4004C966.7393,52.4805,966.9404,53.0615,966.9404,53.7412z"/>
			<path class="st0" d="M978.8203,49.9609c-0.6006,4.5205-1.3008,8.4805-2.1006,11.8799c-0.2393,0.999-0.8398,1.5-1.7998,1.5
				c-1.3203,0-1.9795-0.6201-1.9795-1.8604c0-0.1592,0.0195-0.3389,0.0596-0.54c0.9199-3.3594,1.6992-7.1787,2.3398-11.46
				c0.1592-0.999,0.7197-1.5,1.6797-1.5c0.5605,0,1.0205,0.1807,1.3809,0.54C978.7598,48.8809,978.8994,49.3604,978.8203,49.9609z
				 M998.9199,17.5605c0,0.6807-0.2402,1.251-0.7197,1.71c-0.4805,0.4609-1.041,0.6904-1.6807,0.6904h-5.8799v4.5h4.5605
				c0.5596,0,1.0498,0.21,1.4697,0.6299s0.6299,0.9102,0.6299,1.4697c0,0.6006-0.21,1.1104-0.6299,1.5303
				s-0.9102,0.6299-1.4697,0.6299h-4.5605v4.1396h4.5605c0.5596,0,1.0498,0.21,1.4697,0.6309
				c0.4199,0.4199,0.6299,0.9102,0.6299,1.4697c0,0.5605-0.21,1.0498-0.6299,1.4697s-0.9102,0.6299-1.4697,0.6299h-4.5605v4.5
				h2.2207c3.1992,0,4.7998,1.6006,4.7998,4.7998v9.96c0,4.2812-0.3408,7.0303-1.0205,8.25
				c-0.6807,1.2197-2.1201,1.8301-4.3193,1.8301h-2.7607c-0.7197,0-1.3398-0.2598-1.8594-0.7793
				c-0.5205-0.5205-0.7803-1.1406-0.7803-1.8604s0.2598-1.3398,0.7803-1.8604c0.5195-0.5186,1.1396-0.7793,1.8594-0.7793h1.0205
				c1.2393,0,2-0.3398,2.2803-1.0205c0.2393-0.5596,0.3594-2.1602,0.3594-4.7998v-7.5c0-1.1191-0.5605-1.6797-1.6797-1.6797
				h-11.0996c-3.2012,0-4.8008-1.5996-4.8008-4.8008V19.9609c0-3.2002,1.5996-4.7998,4.8008-4.7998h16.0791
				c0.6396,0,1.2002,0.2393,1.6807,0.7197C998.6797,16.3604,998.9199,16.9219,998.9199,17.5605z M982.96,60.5811
				c0.0391,1.0801-0.46,1.6201-1.5,1.6201c-0.96,0-1.4609-0.5-1.5-1.5c-0.1201-2.3604-0.3398-5.8398-0.6602-10.4404
				c-0.1201-1.0801,0.3604-1.6201,1.4404-1.6201c0.8789,0,1.3594,0.4609,1.4395,1.3799
				C982.3799,52.3408,982.6396,55.8613,982.96,60.5811z M985.9004,24.5205v-4.5596h-3.54c-1.1211,0-1.6807,0.5605-1.6807,1.6797
				v2.8799H985.9004z M985.9004,32.8008v-4.0195h-5.2207v4.0195H985.9004z M985.9004,41.5605V37.001h-5.2207v2.8799
				c0,1.1201,0.5596,1.6797,1.6807,1.6797H985.9004z M987.9404,58.8408c0.1191,1.041-0.3604,1.5596-1.4404,1.5596
				c-0.8799,0-1.3604-0.4395-1.4404-1.3193c-0.2393-2.96-0.5996-6.1201-1.0791-9.4805c-0.041-0.3994,0.0791-0.7588,0.3594-1.0801
				c0.2793-0.3193,0.6201-0.4795,1.0205-0.4795c0.7998,0,1.2598,0.4404,1.3799,1.3193
				C987.2598,52.8018,987.6602,55.9609,987.9404,58.8408z M992.3203,56.6211c0.0391,0.3594-0.0703,0.7002-0.3301,1.0195
				c-0.2607,0.3203-0.5908,0.4805-0.9902,0.4805c-0.8008,0-1.2402-0.3994-1.3203-1.2002c-0.2803-2.7998-0.6602-5.4395-1.1396-7.9199
				c-0.0811-0.3604,0.0098-0.71,0.2695-1.0498s0.5898-0.5107,0.9902-0.5107c0.7197,0,1.1602,0.3809,1.3203,1.1406
				C991.4805,50.4609,991.8789,53.1406,992.3203,56.6211z M1028.2598,29.7412c0,0.6807-0.2607,1.2695-0.7793,1.7695
				c-0.5205,0.501-1.1211,0.75-1.8008,0.75c-0.6807,0-1.2598-0.2197-1.7393-0.6602c-1.8008-1.6797-3.1611-3-4.0801-3.96
				l0.0596,0.3604c0,0.5996-0.21,1.1094-0.6299,1.5303c-0.4199,0.4199-0.9297,0.6299-1.5303,0.6299h-2.9395v3.96h5.3398
				c3.1992,0,4.7998,1.5996,4.7998,4.7998v5.2197c0,3.2012-1.6006,4.7998-4.7998,4.7998h-4.6797
				c2.1191,4.8809,5.6787,9.041,10.6797,12.4805c0.7588,0.5205,1.1396,1.2402,1.1396,2.1602c0,0.7197-0.2607,1.3291-0.7803,1.8301
				c-0.5195,0.499-1.1602,0.75-1.9199,0.75c-0.5605,0-1.04-0.1406-1.4395-0.4199c-4.6406-3.2402-8.2002-7.1201-10.6797-11.6406
				c-2.2803,4.4004-5.7812,8.3008-10.5,11.7002c-0.4805,0.3604-0.9814,0.54-1.5,0.54c-0.7207,0-1.3311-0.25-1.8301-0.75
				c-0.501-0.501-0.75-1.1104-0.75-1.8301c0-0.8799,0.3594-1.5596,1.0801-2.04c5.4385-3.7197,8.8799-7.9795,10.3193-12.7803h-4.5596
				c-3.2012,0-4.7998-1.5986-4.7998-4.7998v-5.2197c0-3.2002,1.5986-4.7998,4.7998-4.7998h5.1602v-3.96h-2.8203
				c-0.5996,0-1.1104-0.21-1.5303-0.6299c-0.4199-0.4209-0.6299-0.9307-0.6299-1.5303c0-0.0801,0.0195-0.2197,0.0605-0.4199
				c-1.2412,1.4004-2.6211,2.8193-4.1406,4.2598c-0.5205,0.4795-1.1006,0.7197-1.7402,0.7197c-0.6807,0-1.2598-0.2402-1.7393-0.7197
				c-0.4805-0.4805-0.7207-1.0596-0.7207-1.7402c0-0.7998,0.2793-1.4395,0.8408-1.9199c3.96-3.4395,7.1992-7.0996,9.7197-10.9795
				c1.3193-2.04,3-3.0605,5.04-3.0605c1.9199,0,3.499,0.9004,4.7402,2.7002c2.4795,3.5996,5.9189,7.2402,10.3193,10.9199
				C1027.9395,28.2812,1028.2598,28.9414,1028.2598,29.7412z M1009.9004,44.6807v-6.2998h-3.6602
				c-1.1201,0-1.6807,0.5605-1.6807,1.6797v2.9404c0,1.1201,0.5605,1.6797,1.6807,1.6797H1009.9004z M1018.2998,25.9609
				c-2-2.2402-3.7402-4.3994-5.2197-6.4805c-0.2803-0.4395-0.5801-0.6602-0.9004-0.6602s-0.6201,0.2207-0.8994,0.6602
				c-1.3604,2.04-3.0205,4.2207-4.9805,6.54c0.3203-0.1201,0.5791-0.1797,0.7803-0.1797h10.6797
				C1017.7998,25.8408,1017.9795,25.8809,1018.2998,25.9609z M1020.4004,43.001v-2.9404c0-1.1191-0.5605-1.6797-1.6807-1.6797
				h-3.8994v6.2998h3.8994C1019.8398,44.6807,1020.4004,44.1211,1020.4004,43.001z"/>
		</g>
	</g>
</g>
</svg>
