<?xml version="1.0" encoding="utf-8"?>
<!-- Generator: Adobe Illustrator 25.2.1, SVG Export Plug-In . SVG Version: 6.00 Build 0)  -->
<svg version="1.1" id="レイヤー_1" xmlns="http://www.w3.org/2000/svg" xmlns:xlink="http://www.w3.org/1999/xlink" x="0px"
	 y="0px" viewBox="0 0 1040 80" style="enable-background:new 0 0 1040 80;" xml:space="preserve">
<style type="text/css">
	.st0{fill:#1E1E28;}
</style>
<g>
	<g>
		<g>
			<path class="st0" d="M35.2598,47.3809c0,0.5996-0.2998,0.9004-0.8994,0.9004c-0.2402,0-0.4414-0.0801-0.6006-0.2402
				c-2.7207-2.5996-5.3604-5.4199-7.9199-8.46v25.6201c0,0.5996-0.2998,0.8994-0.8994,0.8994c-0.6406,0-0.96-0.2998-0.96-0.8994
				V41.6807c-2.6406,3.3203-5.6611,6.4805-9.0605,9.4805c-0.1201,0.1602-0.3203,0.2393-0.5996,0.2393
				c-0.6006,0-0.9004-0.2998-0.9004-0.8994c0-0.3203,0.0996-0.54,0.2998-0.6602c7.8398-6.999,13.54-14.2197,17.1006-21.6602
				c0.1592-0.3604,0.2393-0.6992,0.2393-1.0195c0-1-0.6396-1.5-1.9199-1.5H14.8604c-0.5605,0-0.8408-0.3008-0.8408-0.9004
				c0-0.5596,0.2803-0.8398,0.8408-0.8398h8.2793v-8.7002c0-0.5996,0.3008-0.9004,0.9004-0.9004s0.9004,0.3008,0.9004,0.9004v8.7002
				h4.3193c2.4795,0,3.7207,0.9805,3.7207,2.9395c0,0.6006-0.1807,1.2607-0.54,1.9805c-1.3604,2.7998-3.2607,5.9004-5.7002,9.2998
				c3.0391,3.5605,5.7793,6.4199,8.2197,8.5801C35.1602,46.8809,35.2598,47.1016,35.2598,47.3809z M64.3604,46.7207
				c0,3.5996-1.8008,5.4004-5.4004,5.4004h-6.5996v13.1396c0,0.5996-0.3008,0.9004-0.9004,0.9004c-0.6406,0-0.96-0.3008-0.96-0.9004
				V52.1211h-6.1797c-3.6006,0-5.4004-1.8008-5.4004-5.4004V28.9004c0-3.5996,1.7998-5.3994,5.4004-5.3994H50.5v-8.2803
				c0-0.5996,0.3193-0.9004,0.96-0.9004c0.5996,0,0.9004,0.3008,0.9004,0.9004v8.2803H58.96c3.5996,0,5.4004,1.7998,5.4004,5.3994
				V46.7207z M50.5,36.5811V25.3008h-6.2402c-2.3203,0-3.4795,1.1602-3.4795,3.4805v7.7998H50.5z M50.5,50.3809v-12h-9.7197v8.5195
				c0,2.3203,1.1592,3.4805,3.4795,3.4805H50.5z M62.5596,36.5811v-7.7998c0-2.3203-1.1602-3.4805-3.4795-3.4805h-6.7197v11.2803
				H62.5596z M62.5596,46.9004v-8.5195H52.3604v12h6.7197C61.3994,50.3809,62.5596,49.2207,62.5596,46.9004z"/>
			<path class="st0" d="M93.7598,30.1611c0,0.5996-0.2803,0.8994-0.8398,0.8994h-7.5v2.46
				c2.1992,4.8408,4.5996,8.9805,7.2002,12.4199c0.0791,0.1611,0.1201,0.3213,0.1201,0.4805c0,0.5605-0.2607,0.8398-0.7803,0.8398
				c-0.3203,0-0.5605-0.1201-0.7197-0.3604c-1.8408-2.6787-3.7803-6.1396-5.8203-10.3799v28.5605
				c0,0.5996-0.2998,0.8994-0.9004,0.8994c-0.6396,0-0.96-0.2998-0.96-0.8994V36.3408c-2.1201,6.0811-4.96,11.7002-8.5195,16.8604
				c-0.2002,0.2803-0.46,0.4199-0.7803,0.4199c-0.5996,0-0.8994-0.3008-0.8994-0.9004c0-0.2402,0.0596-0.4199,0.1797-0.54
				c4.8389-6.7998,8.1797-13.4795,10.0195-20.04v-1.0801h-8.8193c-0.5605,0-0.8398-0.2998-0.8398-0.8994
				c0-0.5596,0.2793-0.8408,0.8398-0.8408h8.8193v-9.96c-2.2002,0.4004-4.7803,0.7803-7.7393,1.1406
				c-0.6406,0.0801-0.96-0.2002-0.96-0.8398c0-0.5596,0.2793-0.8604,0.8398-0.9004c5.96-0.5195,11.3594-1.6992,16.2002-3.54
				c0.2793-0.1201,0.5488-0.0801,0.8096,0.1201c0.2598,0.2002,0.3896,0.4404,0.3896,0.7197c0,0.4004-0.2002,0.6807-0.5996,0.8398
				c-1.96,0.7207-4.3203,1.4014-7.0801,2.04v10.3799h7.5C93.4795,29.3203,93.7598,29.6016,93.7598,30.1611z M121.8398,53.5605
				c-0.04,4.5605-0.5303,7.5205-1.4697,8.8799c-0.9404,1.3594-2.9502,2.04-6.0303,2.04h-4.4395
				c-2.3613,0-3.9209-0.3594-4.6807-1.0801c-0.8799-0.7988-1.3193-2.3789-1.3193-4.7393v-2.7607
				c-3.1611,3.2402-6.6807,6.0605-10.5605,8.46c-0.1201,0.1201-0.2607,0.1807-0.4199,0.1807c-0.5996,0-0.9004-0.2998-0.9004-0.9004
				c0-0.3594,0.1406-0.6201,0.4209-0.7803c4.2793-2.4795,8.0996-5.5791,11.46-9.2998V28.541c0-0.6396,0.3193-0.96,0.96-0.96
				c0.6387,0,0.96,0.3203,0.96,0.96v22.7998c6.96-8.5205,11.6592-19.2598,14.0996-32.2197
				c0.0801-0.5195,0.3799-0.7803,0.9004-0.7803c0.7588,0,1.0586,0.3604,0.8994,1.0801c-2.7598,13.96-8.0605,25.4199-15.8994,34.3799
				v4.5596c0,1.9609,0.3193,3.2012,0.96,3.7207c0.4795,0.4404,1.6396,0.6602,3.4795,0.6602h3.7803
				c2.5596,0,4.1699-0.5303,4.8301-1.5908c0.6602-1.0586,1.0098-3.6094,1.0498-7.6494c0-0.6006,0.3193-0.9004,0.96-0.9004
				C121.5195,52.6006,121.8398,52.9219,121.8398,53.5605z M99.04,34.6611c-1.0801,6.4404-2.7402,12.1602-4.9805,17.1592
				c-0.1191,0.4004-0.3994,0.6006-0.8398,0.6006c-0.3203,0-0.5801-0.1504-0.7793-0.4502c-0.2012-0.2998-0.2207-0.6094-0.0605-0.9297
				c2.3594-5,3.96-10.5605,4.7998-16.6807c0.0801-0.5186,0.3994-0.7793,0.96-0.7793C98.8604,33.5811,99.1602,33.9404,99.04,34.6611z
				 M112.7803,23.0811c0,0.6396-0.3213,0.96-0.96,0.96c-0.2402,0-0.4199-0.0605-0.54-0.1807
				c-3.3213-2.3594-6.7207-4.3389-10.2002-5.9395c-0.3203-0.1592-0.4805-0.4199-0.4805-0.7803c0-0.3193,0.1299-0.5703,0.3906-0.75
				c0.2598-0.1797,0.5488-0.1895,0.8701-0.0303c4.1592,1.9609,7.6592,3.9209,10.5,5.8809
				C112.6396,22.4414,112.7803,22.7207,112.7803,23.0811z M127.7197,48.7607c0.0801,0.2803,0.0303,0.5508-0.1494,0.8096
				c-0.1807,0.2607-0.4307,0.3906-0.75,0.3906c-0.4805,0-0.7803-0.2402-0.9004-0.7197c-1.4004-5-3.2002-9.4404-5.4004-13.3203
				c-0.0801-0.1592-0.1191-0.2998-0.1191-0.4199c0-0.6006,0.2998-0.9004,0.8994-0.9004c0.3994,0,0.6602,0.1602,0.7803,0.4805
				C124.2793,39.1211,126.1602,43.6816,127.7197,48.7607z"/>
			<path class="st0" d="M154.96,56.0205c0,3.6006-1.7998,5.4004-5.4004,5.4004h-7.3193c-3.6006,0-5.4004-1.7998-5.4004-5.4004
				V29.7412c0-3.6006,1.7998-5.4004,5.4004-5.4004h1.5c0.8398-2.4004,1.6592-5.46,2.46-9.1797
				c0.1201-0.5195,0.4395-0.7803,0.96-0.7803c0.3193,0,0.5703,0.1201,0.75,0.3604c0.1797,0.2393,0.2295,0.5195,0.1494,0.8398
				c-0.8799,3.4004-1.7002,6.3203-2.46,8.7598h3.96c3.6006,0,5.4004,1.7998,5.4004,5.4004V56.0205z M153.04,41.3809V29.7412
				c0-2.4004-1.2002-3.6006-3.5996-3.6006h-7.0801c-2.4004,0-3.6006,1.2002-3.6006,3.6006v11.6396H153.04z M149.4404,59.6211
				c2.3994,0,3.5996-1.2002,3.5996-3.6006V43.1807h-14.2803v12.8398c0,2.4004,1.2002,3.6006,3.6006,3.6006H149.4404z
				 M184.2402,38.2012c0,8.3203-0.2705,14.25-0.8105,17.79s-1.5508,5.8496-3.0293,6.9297
				c-1.0801,0.7998-3.1006,1.2002-6.0605,1.2002h-4.5596c-0.6006,0-0.9004-0.3008-0.9004-0.9004s0.2998-0.9004,0.9004-0.9004h4.5596
				c2.4395,0,4.1191-0.3984,5.04-1.1992c1.1602-1.04,1.9395-3.2402,2.3398-6.6006c0.3994-3.1992,0.6006-8.6396,0.6006-16.3193
				v-7.7402c0-3.2002-1.6006-4.7998-4.8008-4.7998h-13.4395c-1.4805,3.3594-3.2607,6.6592-5.3398,9.8994
				c-0.1201,0.2803-0.3809,0.4199-0.7803,0.4199c-0.5996,0-0.9004-0.3193-0.9004-0.96c0-0.2393,0.04-0.3994,0.1201-0.4795
				c3.8398-6,6.7598-12.4395,8.7607-19.3203c0.1191-0.4795,0.4395-0.7197,0.96-0.7197c0.3193,0,0.5693,0.1299,0.75,0.3896
				c0.1797,0.2607,0.2295,0.5508,0.1494,0.8701c-1.0801,3.3203-2.0605,6.0205-2.9395,8.0996h12.7793
				c4.4004,0,6.6006,2.2012,6.6006,6.6006V38.2012z M173.3799,47.0205c0.1592,0.3213,0.1504,0.6299-0.0303,0.9307
				c-0.1797,0.2998-0.4492,0.4492-0.8096,0.4492c-0.4404,0-0.7197-0.1992-0.8398-0.5996
				c-1.6807-3.5996-3.7607-7.2393-6.2402-10.9199c-0.1201-0.1592-0.1797-0.3398-0.1797-0.54c0-0.5996,0.3193-0.9004,0.96-0.9004
				c0.3594,0,0.5996,0.1406,0.7197,0.4199C169.2402,39.2607,171.3789,42.9814,173.3799,47.0205z"/>
			<path class="st0" d="M220.96,25.1807c0,0.6807-0.3203,1.0205-0.96,1.0205c-2.3203,0.0801-5.8203,0.1797-10.5,0.2998
				c-2.4004,7.7998-6.0205,17.3799-10.8604,28.7402c-0.2002,0.4404-0.54,0.6592-1.0195,0.6592
				c-0.6807,0-1.0205-0.3594-1.0205-1.0801c0-0.1592,0.0205-0.2998,0.0605-0.4199c4.6396-10.7188,8.1992-20.04,10.6797-27.96
				c-2.1201,0.0811-5.2197,0.1611-9.2998,0.2402c-0.6807,0-1.0205-0.3389-1.0205-1.0195c0-0.6797,0.3398-1.0205,1.0205-1.0205
				c2.04,0,5.3398-0.0391,9.9004-0.1201c0.8789-3.1201,1.5986-5.7988,2.1592-8.04c0.1201-0.5596,0.4805-0.8398,1.0801-0.8398
				c0.3604,0,0.6396,0.1504,0.8398,0.4502s0.2598,0.6104,0.1807,0.9297c-0.3213,1.3203-1.0205,3.8203-2.1006,7.5
				c0.6006,0,3.8799-0.0986,9.8408-0.2998C220.6201,24.1816,220.96,24.501,220.96,25.1807z M244.54,54.7012
				c0,0.6807-0.3408,1.0195-1.0205,1.0195c-0.2393,0-0.4404-0.0596-0.5996-0.1797c-3.2803-2.5205-6.46-4.5195-9.54-6l-0.1797,8.46
				c-0.0811,3.2002-1.54,4.9795-4.3799,5.3398c-1.8809,0.2402-3.6211,0.3604-5.2207,0.3604c-4.1992,0-7.5205-0.7803-9.96-2.3408
				c-2.6006-1.6396-3.8994-3.9795-3.8994-7.0195c0-2.7598,1.0996-5.0098,3.2998-6.75c2.1992-1.7402,5.2393-2.6104,9.1201-2.6104
				c2.8398,0,5.96,0.5811,9.3594,1.7402L232,26.7412c-1.2402-0.2803-3.1406-0.5801-5.7002-0.9004
				c-0.5605-0.0801-0.8398-0.3994-0.8398-0.96c0-0.7197,0.3604-1.04,1.0801-0.96c5.6396,0.7197,11.3193,1.8604,17.04,3.4199
				c0.5195,0.1602,0.7803,0.4795,0.7803,0.96c0,0.3203-0.1406,0.5801-0.4199,0.7803c-0.2803,0.2002-0.5811,0.2607-0.9004,0.1797
				c-2.6807-0.7998-5.7207-1.5195-9.1201-2.1602l-0.4795,20.4004c3.0791,1.3193,6.6387,3.4404,10.6797,6.3594
				C244.3994,54.0615,244.54,54.3408,244.54,54.7012z M231.46,48.7012c-3.1201-1.2402-6.1602-1.8604-9.1201-1.8604
				c-3.2402,0-5.8203,0.6807-7.7402,2.04c-1.9199,1.3604-2.8799,3.1797-2.8799,5.46c0,2.5195,1.1406,4.4199,3.4199,5.7002
				c2.04,1.1602,4.8398,1.7402,8.4004,1.7402c0.9199,0,2.2803-0.0996,4.0801-0.3008c2.2803-0.2393,3.459-1.5391,3.54-3.8994
				L231.46,48.7012z"/>
			<path class="st0" d="M297.4004,59.9805c0.0391,0.1201,0.0596,0.2402,0.0596,0.3604c0,0.7197-0.3809,1.0801-1.1396,1.0801
				c-0.5205,0-0.8613-0.2402-1.0205-0.7197l-5.04-13.5605h-20.8799l-4.7998,13.5605c-0.1602,0.4795-0.4805,0.7197-0.96,0.7197
				c-0.7197,0-1.0801-0.3604-1.0801-1.0801c0-0.1201,0.0195-0.2402,0.0596-0.3604l14.1602-38.8193
				c0.6006-1.6396,1.5801-2.46,2.9404-2.46c1.3594,0,2.3398,0.7998,2.9395,2.3994L297.4004,59.9805z M289.54,45.1006
				l-8.6396-23.2803c-0.3213-0.8398-0.7412-1.2598-1.2607-1.2598c-0.5605,0-0.9805,0.4199-1.2598,1.2598l-8.2803,23.2803H289.54z"/>
			<path class="st0" d="M356.4404,59.8604c0.0391,0.1201,0.0596,0.2402,0.0596,0.3604c0,0.8008-0.4004,1.2002-1.2002,1.2002
				c-0.5205,0-0.8799-0.2598-1.0801-0.7803L349,46.541c-1.5205-4.1191-4.3008-6.1807-8.3398-6.1807h-12.4199v19.9805
				c0,0.7197-0.3604,1.0801-1.0801,1.0801c-0.7607,0-1.1406-0.3604-1.1406-1.0801v-36.54c0-3.1992,1.5996-4.7998,4.8008-4.7998
				h13.0195c3.6797,0,6.5791,0.8008,8.7002,2.3994c2.4004,1.8008,3.5996,4.4805,3.5996,8.04c0,3-0.9404,5.4111-2.8193,7.2305
				c-1.8809,1.8203-4.3203,2.8906-7.3203,3.21c2.3193,1.1201,3.9795,2.9805,4.9805,5.5801L356.4404,59.8604z M353.8604,29.4404
				c0-5.6396-3.3408-8.46-10.0205-8.46h-12.5996c-2.001,0-3,1.001-3,3v14.3398h15c3.1992,0,5.7695-0.7695,7.71-2.3096
				C352.8896,34.4717,353.8604,32.2812,353.8604,29.4404z"/>
			<path class="st0" d="M385.2402,37.9609c0.0791,0.3203,0.0195,0.6201-0.1807,0.8994c-0.2002,0.2803-0.4795,0.4209-0.8398,0.4209
				c-0.5605,0-0.8994-0.2598-1.0195-0.7803c-1.9199-7.3594-3.6006-12.8398-5.04-16.4404c-0.04-0.1201-0.0605-0.2598-0.0605-0.4199
				c0-0.6797,0.3398-1.0195,1.0205-1.0195c0.5195,0,0.8594,0.2197,1.0195,0.6602
				C381.7393,25.7607,383.4404,31.3213,385.2402,37.9609z M401.3203,35.3203c0.0791,0.3213,0.0088,0.6309-0.21,0.9307
				c-0.2207,0.2998-0.5107,0.4502-0.8701,0.4502c-0.6006,0-0.96-0.3008-1.0801-0.9004c-1.0801-5.0791-2.5801-10.5-4.5-16.2598
				c-0.1201-0.3203-0.0811-0.6396,0.1201-0.96c0.1992-0.3203,0.4795-0.4805,0.8398-0.4805c0.5195,0,0.8594,0.2402,1.0195,0.7197
				C398.2002,23.2607,399.7598,28.7607,401.3203,35.3203z M422.0801,21.9404c-3.9209,14.7607-11.2197,28.2002-21.9004,40.3203
				c-0.2002,0.2402-0.46,0.3604-0.7793,0.3604c-0.7207,0-1.0801-0.3604-1.0801-1.0801c0-0.3203,0.0791-0.5596,0.2393-0.7207
				c10.3594-11.2793,17.5-24.4199,21.4209-39.4199c0.1592-0.5596,0.5186-0.8398,1.0791-0.8398c0.3203,0,0.5898,0.1504,0.8105,0.4502
				C422.0898,21.3105,422.1602,21.6211,422.0801,21.9404z"/>
			<path class="st0" d="M480.4004,24.9404c-3.8408,6.2402-8.9014,12.1201-15.1807,17.6406
				c-0.2393,0.2002-0.4795,0.2998-0.7197,0.2998c-0.7197,0-1.0801-0.3604-1.0801-1.0801c0-0.3604,0.1201-0.6396,0.3604-0.8398
				c5.8398-5,10.6797-10.6201,14.5195-16.8604c0.1592-0.2793,0.2402-0.5195,0.2402-0.7197c0-0.4805-0.3408-0.7197-1.0205-0.7197
				h-38.46c-0.6807,0-1.0195-0.3604-1.0195-1.0801c0-0.6797,0.3389-1.0205,1.0195-1.0205h38.8809
				c2.1191,0,3.1797,0.7607,3.1797,2.2803C481.1201,23.4814,480.8799,24.1816,480.4004,24.9404z M460.54,32.0205
				c-1.4004,11.8408-5.9404,22.2002-13.6201,31.0801c-0.2402,0.2793-0.5205,0.4199-0.8398,0.4199
				c-0.7607,0-1.1396-0.3799-1.1396-1.1396c0-0.2793,0.0986-0.54,0.2998-0.7803c7.5996-8.3994,11.959-18.3389,13.0801-29.8193
				c0.0791-0.6797,0.4395-1.0205,1.0801-1.0205C460.2402,30.7607,460.6201,31.1807,460.54,32.0205z"/>
			<path class="st0" d="M542.9199,38.9209c0,0.7197-0.3398,1.0801-1.0195,1.0801h-43.8008c-0.6807,0-1.0195-0.3604-1.0195-1.0801
				c0-0.6797,0.3389-1.0205,1.0195-1.0205h43.8008C542.5801,37.9004,542.9199,38.2412,542.9199,38.9209z"/>
			<path class="st0" d="M600.8203,22.0605c0,0.6406-0.3213,0.9805-0.96,1.0205l-1.5,0.0596
				c-5.8799,3.6006-10.9004,7.2002-15.0605,10.7998c-6.6396,5.7607-9.96,10.6406-9.96,14.6406c0,3.4795,1.8799,6.2197,5.6406,8.2197
				c3.0391,1.6406,7.8984,3.0205,14.5791,4.1396c0.6006,0.1201,0.9004,0.4805,0.9004,1.0801c0,0.8799-0.4199,1.2393-1.2598,1.0801
				c-7.2402-1.2393-12.5605-2.8594-15.96-4.8594c-4.041-2.3604-6.0605-5.5596-6.0605-9.6006
				c0-6.7998,7.7793-15.2793,23.3398-25.4395l-35.6992,1.1396c-0.7207,0.04-1.0801-0.2998-1.0801-1.0205
				c0-0.6387,0.3389-0.9795,1.0195-1.0195l41.04-1.2598C600.4795,21.001,600.8203,21.3408,600.8203,22.0605z M600.4004,40.541
				c0.0791,0.1602,0.1191,0.3203,0.1191,0.4795c0,0.6807-0.3398,1.0205-1.0195,1.0205c-0.4805,0-0.8008-0.1807-0.96-0.54
				c-1.6006-3.2402-3.0596-5.8594-4.3799-7.8604c-0.1201-0.1992-0.1797-0.3994-0.1797-0.5996c0-0.6396,0.3193-0.96,0.96-0.96
				c0.3594,0,0.6387,0.1406,0.8398,0.4199C597.2998,34.8213,598.8398,37.501,600.4004,40.541z M607.1797,38.5605
				c0,0.6807-0.3203,1.0205-0.96,1.0205c-0.4795,0-0.8203-0.1807-1.0195-0.54c-1.7207-3.3203-3.2207-5.9004-4.5-7.7402
				c-0.1201-0.1592-0.1807-0.3604-0.1807-0.5996c0-0.6797,0.3398-1.0205,1.0205-1.0205c0.3604,0,0.6396,0.1406,0.8398,0.4199
				c1.6396,2.4404,3.2002,5.1006,4.6797,7.9805C607.1396,38.2412,607.1797,38.4014,607.1797,38.5605z"/>
			<path class="st0" d="M655.1201,48.4004c0,4.2002-1.5,7.4805-4.5,9.8408c-2.7207,2.1592-6.2803,3.2393-10.6797,3.2393
				c-4.6006,0-8.9404-1.1992-13.0205-3.5996c-0.3604-0.2002-0.54-0.5195-0.54-0.96c0-0.7197,0.3604-1.0801,1.0801-1.0801
				c0.1592,0,0.3604,0.04,0.5996,0.1201c3.8408,2.3604,7.8008,3.54,11.8809,3.54c3.8789,0,7.0088-0.9697,9.3896-2.9102
				c2.3789-1.9395,3.5703-4.6699,3.5703-8.1904c0-2.8389-1.0605-5.1387-3.1807-6.8994c-2.1201-1.7598-4.9199-2.6406-8.3994-2.6406
				c-3.9209,0-7.2207,0.96-9.9004,2.8809c-0.4795,0.3594-1,0.54-1.5596,0.54c-1.6006,0-2.3008-0.9395-2.1006-2.8203l1.6201-15.7197
				c0.3193-3,2-4.5,5.04-4.5h18.0605c0.6387,0,0.96,0.3203,0.96,0.96c0,0.6807-0.3213,1.0195-0.96,1.0195h-17.7002
				c-1.9609,0-3.041,0.9805-3.2402,2.9404l-1.6201,15.2998c-0.04,0.2402,0,0.4004,0.1201,0.4795
				c0.1592,0.0811,0.3389,0.0605,0.54-0.0596c3.1201-2.04,6.6992-3.0605,10.7402-3.0605c4.0391,0,7.3496,1.041,9.9297,3.1201
				C653.8301,42.0215,655.1201,44.8408,655.1201,48.4004z"/>
			<path class="st0" d="M709.4199,56.8604c0,3.0811-1.6006,4.6201-4.7998,4.6201h-23.7002c-3.2002,0-4.7998-1.5986-4.7998-4.7998
				v-3.5996c0-0.6396,0.3193-0.96,0.96-0.96c0.6396,0,0.96,0.3203,0.96,0.96v3.4795c0,2.0801,1.04,3.1201,3.1201,3.1201h10.3203
				v-9.7197H683.5c-3.2002,0-4.7998-1.5996-4.7998-4.7998V25.4209c0-3.2002,1.5996-4.7998,4.7998-4.7998h10.3203
				c1.2393-2.2402,2.1797-4.2998,2.8193-6.1807c0.1602-0.4395,0.46-0.6592,0.9004-0.6592c0.3193,0,0.5791,0.1494,0.7803,0.4492
				c0.1992,0.3008,0.2393,0.5908,0.1201,0.8701c-0.5205,1.3604-1.4014,3.2012-2.6406,5.5205h18.7803
				c3.1992,0,4.7998,1.5996,4.7998,4.7998v6.1201c0,3.2002-1.6006,4.7998-4.7998,4.7998h-33.96v4.8604h45.4795
				c0.6006,0,0.9004,0.2998,0.9004,0.8994c0,0.6006-0.2998,0.9004-0.9004,0.9004h-45.4795v2.04c0,2.0801,1.04,3.1201,3.1201,3.1201
				h34.3193c3.6006,0,5.4004,1.7998,5.4004,5.3994v2.2207c0,3.2803-0.4795,5.6201-1.4404,7.0195
				c-1.3594,1.9199-3.8994,2.8799-7.6191,2.8799h-3.8408c-0.5996,0-0.8994-0.2998-0.8994-0.8994
				c0-0.6006,0.2998-0.9004,0.8994-0.9004h3.8408c3.1592,0,5.2197-0.8203,6.1797-2.46c0.6396-1.04,0.96-2.9795,0.96-5.8203v-2.04
				c0-2.3994-1.2002-3.5996-3.5996-3.5996h-24.54v9.7197h10.9795c2.0791,0,3.1201-1.04,3.1201-3.1201v-3.4795
				c0-0.6396,0.3193-0.96,0.96-0.96c0.6396,0,0.96,0.3203,0.96,0.96V56.8604z M717.46,27.4004V25.541
				c0-2.0801-1.041-3.1201-3.1201-3.1201h-30.5996c-2.0801,0-3.1201,1.04-3.1201,3.1201v1.8594H717.46z M714.3398,34.541
				c2.0791,0,3.1201-1.04,3.1201-3.1201v-2.2197h-36.8398v5.3398H714.3398z"/>
			<path class="st0" d="M786.0996,62.9805c0,0.6396-0.3203,0.96-0.96,0.96h-28.4395c-3.2803,0-5.8799-0.5498-7.7998-1.6494
				s-3.501-2.9102-4.7402-5.4307c-2.4805,2.4814-5.3604,4.9805-8.6406,7.5c-0.2002,0.1602-0.4199,0.2402-0.6592,0.2402
				c-0.6406,0-0.96-0.3398-0.96-1.0195c0-0.3213,0.1396-0.5811,0.4199-0.7803c2.1992-1.6797,3.7793-2.8994,4.7393-3.6602
				c1.7197-1.3994,3.2002-2.7598,4.4404-4.0801v-13.5c0-2.0791-1.041-3.1201-3.1201-3.1201h-5.3994
				c-0.6006,0-0.9004-0.3193-0.9004-0.96c0-0.5996,0.2998-0.8994,0.9004-0.8994h5.6992c3.2002,0,4.8008,1.5996,4.8008,4.7998
				v13.7402c0.999,2.5195,2.3594,4.2998,4.0791,5.3398s4.0596,1.5596,7.0205,1.5596h28.5596
				C785.7793,62.0205,786.0996,62.3418,786.0996,62.9805z M745.2998,24.4609c0,0.5996-0.3203,0.8994-0.96,0.8994
				c-0.3203,0-0.54-0.0986-0.6602-0.2998c-2.5195-2.7197-4.8203-4.9199-6.8994-6.5996c-0.2402-0.2402-0.3604-0.4805-0.3604-0.7197
				c0-0.6006,0.3193-0.9004,0.96-0.9004c0.2002,0,0.3994,0.0811,0.6006,0.2402c2.5195,2.1602,4.8594,4.4004,7.0195,6.7197
				C745.1992,24.001,745.2998,24.2207,745.2998,24.4609z M760.5996,17.2607c-2,6.1201-4.2803,11.5605-6.8398,16.3203
				c-0.4004,0.8008-0.5996,1.5205-0.5996,2.1602c0,0.5996,0.1396,1.2402,0.4199,1.9199c2.96,6.7598,5.2598,12.9805,6.9004,18.6592
				c0.0791,0.3213,0.0195,0.6211-0.1807,0.9004c-0.2002,0.2803-0.46,0.4199-0.7803,0.4199c-0.5195,0-0.8398-0.2402-0.96-0.7197
				c-1.5596-5.6797-3.7402-11.7197-6.54-18.1201c-0.4795-1.0801-0.7197-2.0791-0.7197-3c0-1.0801,0.3398-2.2598,1.0205-3.54
				c2.2793-4.4404,4.4189-9.6396,6.4199-15.5996c0.1592-0.4404,0.459-0.6602,0.8994-0.6602c0.3203,0,0.5801,0.1406,0.7803,0.4199
				C760.6201,16.7012,760.6797,16.9814,760.5996,17.2607z M772.0596,55.1211c0.0801,0.2803,0.0303,0.5605-0.1494,0.8398
				c-0.1797,0.2803-0.4307,0.4199-0.75,0.4199c-0.4404,0-0.7412-0.2197-0.9004-0.6602c-1.96-5.7197-4.2998-11.3398-7.0195-16.8604
				c-0.5605-1.1191-0.8398-2.1592-0.8398-3.1191c0-1.04,0.3594-2.2002,1.0801-3.4805c2.1992-3.9199,4.4189-8.7393,6.6592-14.46
				c0.1602-0.3994,0.46-0.5996,0.9004-0.5996c0.6396,0,0.96,0.3203,0.96,0.96c0,0.1201-0.0205,0.2393-0.0596,0.3594
				c-1.9209,4.9199-4.3008,9.9404-7.1406,15.0605c-0.4004,0.7197-0.5996,1.4199-0.5996,2.0996c0,0.6006,0.1592,1.2402,0.4795,1.9199
				C767.8799,44.0811,770.3398,49.9219,772.0596,55.1211z M785.6797,56.3203c0.1201,0.2812,0.0898,0.5615-0.0898,0.8408
				c-0.1797,0.2803-0.4502,0.4199-0.8096,0.4199c-0.4004,0-0.6807-0.2002-0.8398-0.6006
				c-2.3203-5.7197-5.2607-11.7598-8.8203-18.1201c-0.6406-1.1592-0.96-2.2588-0.96-3.2998c0-1.0391,0.3389-2.1602,1.0195-3.3594
				c3.1602-5.4004,5.7197-10.5996,7.6807-15.6006c0.1592-0.3994,0.459-0.5996,0.8994-0.5996c0.6396,0,0.96,0.3203,0.96,0.96
				c0,0.1201-0.0205,0.2402-0.0596,0.3594c-2.1602,5.4004-4.8203,10.8008-7.9805,16.2002
				c-0.4404,0.7607-0.6602,1.4805-0.6602,2.1602c0,0.6006,0.1807,1.2402,0.54,1.9199
				C780.2393,44.2012,783.2803,50.4404,785.6797,56.3203z"/>
			<path class="st0" d="M819.8203,44.0811c0,0.2803-0.1201,0.5205-0.3604,0.7197c-3.96,3.3604-7.2598,5.04-9.9004,5.04
				c-5.04,0-7.5596-3.6602-7.5596-10.9805c0-5.5996,0.8789-12.5791,2.6396-20.9395c0.1201-0.6006,0.4805-0.9004,1.0801-0.9004
				c0.3203,0,0.5898,0.1406,0.8105,0.4199c0.2188,0.2803,0.2891,0.5811,0.21,0.9004c-1.7998,8.3203-2.7002,15.0811-2.7002,20.2803
				c0,6.04,1.8193,9.0596,5.46,9.0596c1.6797,0,3.3193-0.5596,4.9199-1.6797c1.2793-0.9199,2.5801-1.8398,3.9004-2.7598
				c0.1201-0.0801,0.2998-0.1201,0.54-0.1201C819.499,43.1211,819.8203,43.4414,819.8203,44.0811z M838.1201,18.1006
				c-0.6807,16.4805-3.8203,31.6201-9.4199,45.4199c-0.1602,0.4404-0.4805,0.6602-0.96,0.6602
				c-0.7207,0-1.0801-0.3604-1.0801-1.0801c0-0.1602,0.0195-0.2998,0.0596-0.4199c2.96-6.9199,5.1602-13.8994,6.6006-20.9395
				c1.3994-6.9199,2.2793-14.8203,2.6396-23.7002c0.0391-0.7207,0.3994-1.0801,1.0801-1.0801
				C837.7998,16.9609,838.1592,17.3418,838.1201,18.1006z"/>
			<path class="st0" d="M903.0996,35.6211c0,0.5605-0.2803,0.8799-0.8398,0.96c-4.9199,0.8008-9.7402,2.0801-14.46,3.8398
				c0.5195,2.5195,0.7998,6.6602,0.8398,12.4199c0,0.6406-0.3203,0.96-0.96,0.96s-0.96-0.3193-0.96-0.96
				c0-5.4795-0.2197-9.3799-0.6602-11.7002c-9.2803,3.8008-13.9199,8.1406-13.9199,13.0205c0,2.7207,1.54,4.6602,4.6201,5.8193
				c2.7197,1.001,7.04,1.5,12.96,1.5c2.7998,0,6.2002-0.2998,10.2002-0.8994c0.7998-0.1201,1.2002,0.2197,1.2002,1.0195
				c0,0.6006-0.2998,0.9404-0.9004,1.0205c-3.8398,0.5195-7.3799,0.7793-10.6201,0.7793c-6.7598,0-11.6992-0.7285-14.8193-2.1895
				c-3.1201-1.46-4.6807-3.8105-4.6807-7.0498c0-5.5205,5.1797-10.4199,15.54-14.7002c-1-3.3604-3.2002-5.04-6.5996-5.04
				c-3.6406,0-7.8203,2.2598-12.54,6.7803c-1.2002,1.1602-2.5,2.7402-3.9004,4.7393c-1.1992,1.7207-2.3994,3.4414-3.5996,5.1602
				c-0.2402,0.3213-0.54,0.4805-0.9004,0.4805c-0.7598,0-1.1396-0.3799-1.1396-1.1406c0-0.2393,0.0801-0.459,0.2402-0.6592
				c6.3193-7.8008,11.3994-15.7998,15.2402-24c-4.4805,0.1191-8.6807,0.2002-12.6006,0.2393c-0.6406,0-0.96-0.3389-0.96-1.0195
				c0-0.6396,0.3193-0.96,0.96-0.96c4.1602,0,8.6406-0.04,13.4404-0.1201c1.1592-2.5996,2.1387-5.0596,2.9395-7.3799
				c0.1592-0.4805,0.4805-0.7207,0.96-0.7207c0.6396,0,0.96,0.3408,0.96,1.0205c0,0.4404-0.96,2.7803-2.8799,7.0195
				c6.2402-0.1592,13.3203-0.3994,21.2402-0.7197c0.6797-0.0391,1.0195,0.2803,1.0195,0.96c0,0.6807-0.3203,1.0205-0.96,1.0205
				l-22.1396,0.5996c-1.96,4.1611-4.1807,8.3008-6.6602,12.4199c4.3203-3.6797,8.0596-5.5195,11.2207-5.5195
				c4.3193,0,7.1191,2.04,8.3994,6.1201c4.5996-1.7598,9.4395-3.1396,14.5205-4.1406
				C902.6992,34.4414,903.0996,34.7812,903.0996,35.6211z"/>
			<path class="st0" d="M927.8203,15.4609c-1.2002,4.1602-2.8008,8.5-4.8008,13.0195v36.4199c0,0.6396-0.3203,0.96-0.96,0.96
				s-0.96-0.3203-0.96-0.96V32.5605c-2.1201,4.2402-4.4004,8.1602-6.8398,11.7598c-0.1201,0.2812-0.3594,0.4209-0.7197,0.4209
				c-0.6406,0-0.96-0.3008-0.96-0.9004c0-0.2402,0.0596-0.4199,0.1797-0.54c5.9199-8.6396,10.3398-18.0996,13.2598-28.3799
				c0.1201-0.4395,0.4209-0.6602,0.9004-0.6602C927.7598,14.2607,928.0596,14.6611,927.8203,15.4609z M966.2803,55.7207
				c0,0.6406-0.3213,0.96-0.96,0.96c-0.3213,0-0.5605-0.0996-0.7207-0.2998c-6.7598-7.5605-12.5195-16.2998-17.2793-26.2197v22.0801
				h7.5c0.5996,0,0.8994,0.2998,0.8994,0.8994c0,0.6006-0.2998,0.9004-0.8994,0.9004h-7.5v10.5
				c0,0.5996-0.3008,0.8994-0.9004,0.8994s-0.9004-0.2998-0.9004-0.8994v-10.5h-7.3193c-0.6006,0-0.9004-0.2998-0.9004-0.9004
				c0-0.5996,0.2998-0.8994,0.9004-0.8994h7.3193V30.1611c-4.8799,10.6406-10.5,19.4004-16.8594,26.2793
				c-0.1602,0.2012-0.3809,0.3008-0.6602,0.3008c-0.6406,0-0.96-0.3008-0.96-0.9004c0-0.2402,0.0996-0.459,0.2998-0.6602
				c6.7197-6.8789,12.7598-16.3203,18.1201-28.3203h-17.2197c-0.6406,0-0.96-0.3193-0.96-0.96c0-0.6387,0.3193-0.96,0.96-0.96
				h17.2793v-9.6592c0-0.6006,0.3008-0.9004,0.9004-0.9004s0.9004,0.2998,0.9004,0.9004v9.6592h17.5195
				c0.6396,0,0.96,0.3213,0.96,0.96c0,0.6406-0.3203,0.96-0.96,0.96h-17.46c4.3594,9.8408,10.5801,19.2607,18.6602,28.2607
				C966.1992,55.3604,966.2803,55.5615,966.2803,55.7207z"/>
			<path class="st0" d="M977.6797,49.1807c-0.6807,5.2412-1.54,9.8008-2.5801,13.6797c-0.1191,0.3994-0.3799,0.6006-0.7793,0.6006
				c-0.7207,0-0.9805-0.3604-0.7803-1.0801c1.1191-3.999,1.9795-8.4795,2.5801-13.4404c0.0391-0.4395,0.2998-0.6592,0.7803-0.6592
				C977.5,48.2812,977.7598,48.5811,977.6797,49.1807z M997.9004,17.2012c0,0.5605-0.2803,0.8398-0.8408,0.8398h-9.1797v7.4395
				h7.3799c0.5596,0,0.8398,0.2803,0.8398,0.8398c0,0.5615-0.2803,0.8408-0.8398,0.8408h-7.3799v6.96h7.3799
				c0.5596,0,0.8398,0.2803,0.8398,0.8398c0,0.5605-0.2803,0.8398-0.8398,0.8398h-7.3799v7.2598h4.1396
				c3.2002,0,4.8008,1.6006,4.8008,4.7998v7.9209c0,3.8799-0.3008,6.3994-0.9004,7.5596c-0.7197,1.3994-2.3398,2.0996-4.8604,2.0996
				h-2.6992c-0.5605,0-0.8408-0.2803-0.8408-0.8398c0-0.5605,0.2803-0.8398,0.8408-0.8398h2.2793c2.1201,0,3.4404-0.54,3.96-1.6201
				c0.3994-0.8398,0.6006-3.1592,0.6006-6.96v-7.3203c0-2.0791-1.041-3.1191-3.1201-3.1191h-11.0996
				c-3.2012,0-4.8008-1.5996-4.8008-4.8008V21.1611c0-3.2002,1.5996-4.8008,4.8008-4.8008h16.0791
				C997.6201,16.3604,997.9004,16.6406,997.9004,17.2012z M986.1396,25.4805V18.041h-5.1592c-2.0811,0-3.1201,1.04-3.1201,3.1201
				v4.3193H986.1396z M986.1396,34.1211v-6.96h-8.2793v6.96H986.1396z M986.1396,43.0605v-7.2598h-8.2793v4.1396
				c0,2.0811,1.0391,3.1201,3.1201,3.1201H986.1396z M982.4805,60.1006c0.0391,0.5205-0.2207,0.7803-0.7803,0.7803
				c-0.4404,0-0.6807-0.2402-0.7197-0.7197c-0.1611-3.8408-0.5205-7.3398-1.0801-10.5c-0.1201-0.6006,0.1191-0.9004,0.7197-0.9004
				c0.4795,0,0.7197,0.2207,0.7197,0.6602C981.9404,54.0215,982.3193,57.5811,982.4805,60.1006z M988,58.0605
				c0.0801,0.5605-0.1602,0.8398-0.7197,0.8398c-0.4004,0-0.6406-0.1992-0.7207-0.5996c-0.5605-3.7998-1.1396-6.9004-1.7393-9.2998
				c-0.1201-0.5596,0.1201-0.8398,0.7197-0.8398c0.3604,0,0.5791,0.1797,0.6602,0.54C987,52.3818,987.5996,55.501,988,58.0605z
				 M993.0996,55.9609c0.1201,0.5605-0.0996,0.8398-0.6592,0.8398c-0.4004,0-0.6406-0.1992-0.7207-0.5996
				c-0.5205-2.8809-1.2002-5.54-2.04-7.9805c-0.2002-0.5996,0.0195-0.9004,0.6602-0.9004c0.3203,0,0.54,0.1611,0.6602,0.4805
				C991.5596,49.4805,992.2598,52.2012,993.0996,55.9609z M1027.7197,31.3604c0,0.6006-0.2998,0.9004-0.8994,0.9004
				c-0.2012,0-0.4199-0.0801-0.6602-0.2402c-5.4805-4.959-9.7803-9.6387-12.9004-14.04c-0.4004-0.5596-0.8203-0.8398-1.2598-0.8398
				c-0.4004,0-0.8008,0.2803-1.2002,0.8398c-3.4795,5.1211-7.6602,9.8398-12.54,14.1602c-0.2402,0.1602-0.46,0.2402-0.6602,0.2402
				c-0.5996,0-0.8994-0.2998-0.8994-0.9004c0-0.2793,0.1201-0.5195,0.3594-0.7197c4.5205-3.7598,8.54-8.2393,12.0605-13.4404
				C1010.04,16.001,1011,15.3408,1012,15.3408c0.96,0,1.8799,0.6201,2.7598,1.8604c3.3994,4.7998,7.5996,9.2803,12.6006,13.4395
				C1027.5996,30.8418,1027.7197,31.0811,1027.7197,31.3604z M1027,65.2012c0,0.5996-0.2998,0.8994-0.9004,0.8994
				c-0.2002,0-0.3594-0.0596-0.4795-0.1797c-6.4805-4.2803-11.001-9.4395-13.5605-15.4805c-0.96,2.8408-2.7197,5.7402-5.2793,8.7002
				c-2.3203,2.6807-4.8604,4.9395-7.6201,6.7803c-0.2012,0.1201-0.3809,0.1797-0.54,0.1797c-0.6006,0-0.9004-0.3203-0.9004-0.96
				c0-0.3594,0.1396-0.6201,0.4199-0.7803c3.1602-1.999,5.8594-4.3389,8.1006-7.0195c2.6396-3.1201,4.1787-6.2402,4.6201-9.3604
				h-5.7607c-3.2002,0-4.7998-1.5986-4.7998-4.7998v-3.0596c0-3.2002,1.5996-4.8008,4.7998-4.8008h5.8809v-6.3594h-6
				c-0.5615,0-0.8408-0.2998-0.8408-0.9004c0-0.5596,0.2793-0.8398,0.8408-0.8398h14.0996c0.5596,0,0.8398,0.2803,0.8398,0.8398
				c0,0.6006-0.2803,0.9004-0.8398,0.9004h-6.2402v6.3594h6.4199c3.2002,0,4.7998,1.6006,4.7998,4.8008v3.0596
				c0,3.2012-1.5996,4.7998-4.7998,4.7998h-6.4199c2.1201,6.2402,6.7197,11.7207,13.7998,16.4404
				C1026.8799,64.5801,1027,64.8408,1027,65.2012z M1010.9805,46.2412v-9.1807h-5.7002c-2.0811,0-3.1201,1.041-3.1201,3.1201v2.9404
				c0,2.0801,1.0391,3.1201,3.1201,3.1201H1010.9805z M1022.2598,43.1211v-2.9404c0-2.0791-1.04-3.1201-3.1201-3.1201h-6.2998
				v9.1807h6.2998C1021.2197,46.2412,1022.2598,45.2012,1022.2598,43.1211z"/>
		</g>
	</g>
</g>
</svg>
