<?xml version="1.0" encoding="utf-8"?>
<!-- Generator: Adobe Illustrator 25.2.1, SVG Export Plug-In . SVG Version: 6.00 Build 0)  -->
<svg version="1.1" id="レイヤー_1" xmlns="http://www.w3.org/2000/svg" xmlns:xlink="http://www.w3.org/1999/xlink" x="0px"
	 y="0px" viewBox="0 0 1040 80" style="enable-background:new 0 0 1040 80;" xml:space="preserve">
<style type="text/css">
	.st0{fill:#1E1E28;}
</style>
<g>
	<g>
		<g>
			<path class="st0" d="M35.5596,47.2607c0,0.6807-0.2393,1.2598-0.7197,1.7402c-0.4795,0.4795-1.0605,0.7197-1.7402,0.7197
				c-0.7998,0-1.54-0.3604-2.2197-1.0801l-1.6797-1.7402c-0.4404-0.4395-0.8398-0.6592-1.2002-0.6592
				c-0.5205,0-0.7803,0.5-0.7803,1.5v16.7393c0,0.6797-0.25,1.2803-0.75,1.8008c-0.5,0.5186-1.1094,0.7793-1.8301,0.7793
				c-0.7197,0-1.3301-0.2607-1.8301-0.7793c-0.5-0.5205-0.75-1.1211-0.75-1.8008V49.3008c0-1.04-0.3203-1.5596-0.96-1.5596
				c-0.4004,0-0.8203,0.2393-1.2598,0.7197c-0.6406,0.6807-1.6406,1.7197-3,3.1201c-0.4795,0.4795-1.0801,0.7197-1.7998,0.7197
				S13.71,52.041,13.21,51.5205c-0.501-0.5195-0.75-1.1396-0.75-1.8594c0-0.7207,0.2793-1.3398,0.8398-1.8604
				c6.7197-6.3193,11.2803-12.0801,13.6807-17.2803c0.3193-0.7197,0.4795-1.2793,0.4795-1.6797
				c0-0.7598-0.6406-1.1396-1.9199-1.1396h-9.7803c-0.6807,0-1.25-0.2402-1.71-0.7207c-0.46-0.4795-0.6895-1.0586-0.6895-1.7393
				c0-1.5996,0.7998-2.4004,2.3994-2.4004h3.1807c1.5986,0,2.3994-0.7998,2.3994-2.4004v-4.2598
				c0-0.7197,0.2598-1.3398,0.7803-1.8604c0.5195-0.5186,1.1396-0.7793,1.8604-0.7793c0.7197,0,1.3389,0.2607,1.8594,0.7793
				c0.5195,0.5205,0.7803,1.1406,0.7803,1.8604v4.2598c0,1.6006,0.7998,2.4004,2.3994,2.4004h0.7207
				c2.7988,0,4.2002,1.0801,4.2002,3.2402c0,0.6396-0.1611,1.3408-0.4805,2.0996c-0.7607,1.8408-2.0205,4.2207-3.7803,7.1396
				c-0.5195,0.8809-0.7793,1.7012-0.7793,2.4609c0,0.9199,0.3789,1.7998,1.1396,2.6396c1.7197,1.9199,3.3193,3.5801,4.7998,4.9795
				C35.3203,45.8418,35.5596,46.4609,35.5596,47.2607z M65.7402,48.3408c0,3.2803-1.6602,4.9199-4.9805,4.9199H55.96
				c-1.6006,0-2.4004,0.8008-2.4004,2.4004v8.5801c0,0.7197-0.25,1.3389-0.75,1.8594c-0.5,0.5195-1.1094,0.7803-1.8291,0.7803
				c-0.7207,0-1.3408-0.2607-1.8604-0.7803c-0.5205-0.5205-0.7803-1.1396-0.7803-1.8594v-8.5801
				c0-1.5996-0.8008-2.4004-2.3994-2.4004h-4.2607c-3.3203,0-4.9795-1.6396-4.9795-4.9199V27.4609
				c0-3.3203,1.6592-4.9805,4.9795-4.9805h4.2607c1.5986,0,2.3994-0.7998,2.3994-2.3994v-3.96c0-0.7207,0.2598-1.3398,0.7803-1.8604
				c0.5195-0.5195,1.1396-0.7803,1.8604-0.7803c0.7197,0,1.3291,0.2607,1.8291,0.7803c0.5,0.5205,0.75,1.1396,0.75,1.8604v3.96
				c0,1.5996,0.7998,2.3994,2.4004,2.3994h4.7998c3.3203,0,4.9805,1.6602,4.9805,4.9805V48.3408z M48.46,33.2207v-3.6602
				c0-1.3994-0.7002-2.0996-2.0996-2.0996h-2.2803c-1.6006,0-2.4004,0.7803-2.4004,2.3398v3.4199
				c0,1.4004,0.6992,2.0996,2.1006,2.0996h2.5801C47.7598,35.3203,48.46,34.6211,48.46,33.2207z M48.46,46.2412v-4.1406
				c0-1.3994-0.7002-2.0996-2.0996-2.0996h-2.5801c-1.4014,0-2.1006,0.7002-2.1006,2.0996v3.9004
				c0,1.5596,0.7998,2.3398,2.4004,2.3398h2.2803C47.7598,48.3408,48.46,47.6416,48.46,46.2412z M60.6396,33.2207v-3.4199
				c0-1.5596-0.7998-2.3398-2.3994-2.3398H55.54c-1.4004,0-2.0996,0.7002-2.0996,2.0996v3.6602
				c0,1.4004,0.6992,2.0996,2.0996,2.0996h3C59.9395,35.3203,60.6396,34.6211,60.6396,33.2207z M60.6396,46.001v-3.9004
				c0-1.3994-0.7002-2.0996-2.0996-2.0996h-3c-1.4004,0-2.0996,0.7002-2.0996,2.0996v4.1406c0,1.4004,0.6992,2.0996,2.0996,2.0996
				h2.7002C59.8398,48.3408,60.6396,47.5605,60.6396,46.001z"/>
			<path class="st0" d="M94.2998,30.3408c0,0.6807-0.2305,1.2598-0.6895,1.7402c-0.4609,0.4795-1.0303,0.7197-1.71,0.7197h-3.6602
				c-1.041,0-1.5605,0.4199-1.5605,1.2598c0,0.3213,0.0996,0.6602,0.3008,1.0205c1.3994,2.7598,3.3389,5.7207,5.8193,8.8799
				c0.3203,0.4004,0.4805,0.8604,0.4805,1.3799c0,0.6406-0.2305,1.1807-0.6904,1.6201c-0.46,0.4404-0.9902,0.6602-1.5898,0.6602
				c-0.7607,0-1.2598-0.1807-1.5-0.54c-1.2803-1.8398-2.0605-2.7607-2.3398-2.7607c-0.4805,0-0.7197,0.4209-0.7197,1.2607v18.7793
				c0,0.6797-0.2314,1.2607-0.6904,1.7402c-0.46,0.4805-1.0303,0.7197-1.71,0.7197c-0.6807,0-1.2598-0.2393-1.7402-0.7197
				c-0.4795-0.4795-0.7197-1.0605-0.7197-1.7402V47.3809c0-0.8398-0.1797-1.2598-0.54-1.2598c-0.3203,0-0.6406,0.3203-0.96,0.96
				c-0.6406,1.2402-1.5205,2.7598-2.6396,4.5596c-0.4805,0.7607-1.1611,1.1406-2.04,1.1406c-0.6406,0-1.1914-0.2305-1.6504-0.6904
				c-0.46-0.459-0.6904-1.0098-0.6904-1.6504c0-0.5186,0.1396-0.9395,0.4209-1.2598c3.1191-4.6396,5.5391-9.1797,7.2598-13.6201
				c0.1992-0.5596,0.2998-1.0391,0.2998-1.4395c0-0.8799-0.501-1.3203-1.5-1.3203h-3.7197c-0.6807,0-1.251-0.2402-1.71-0.7197
				c-0.4609-0.4805-0.6904-1.0596-0.6904-1.7402c0-1.5996,0.7998-2.4004,2.4004-2.4004h3.96c1.2002,0,1.7998-0.5996,1.7998-1.7998
				v-3.1797c0-1.3203-0.6406-1.8799-1.9199-1.6797l-3.0605,0.4795c-0.6807,0.1201-1.29-0.0693-1.8301-0.5703
				c-0.5391-0.499-0.8096-1.0889-0.8096-1.7695c0-1.3594,0.6992-2.1396,2.0996-2.3398c4.2803-0.6006,8.6201-1.5801,13.0205-2.9404
				c0.2402-0.0791,0.4795-0.1201,0.7197-0.1201c0.6396,0,1.1895,0.2305,1.6504,0.6904c0.459,0.46,0.6895,1.0303,0.6895,1.71
				c0,0.8398-0.3398,1.4805-1.0195,1.9199C90.6396,18.6611,89.5996,19.041,88,19.4805c-1.041,0.2803-1.5596,0.9404-1.5596,1.9805
				v4.6797c0,1.2002,0.5996,1.7998,1.7998,1.7998h3.6602C93.499,27.9404,94.2998,28.7412,94.2998,30.3408z M123.3398,54.2812
				c-0.1201,4.7998-0.7002,7.8896-1.7402,9.2695s-3.2598,2.0703-6.6592,2.0703h-4.9209c-2.2002,0-3.7402-0.2305-4.6191-0.6904
				c-0.8809-0.46-1.4102-1.3408-1.5908-2.6396c-0.1797-1.2998-0.5303-1.9502-1.0498-1.9502c-0.3203,0-0.7793,0.2607-1.3799,0.7803
				c-1.6406,1.4395-3.1602,2.5996-4.5596,3.4795c-0.5205,0.3203-1.001,0.4805-1.4404,0.4805c-0.7197,0-1.3408-0.2607-1.8604-0.7803
				c-0.5195-0.5205-0.7793-1.1396-0.7793-1.8604c0-0.96,0.3994-1.6992,1.2002-2.2197c3-2,5.5391-3.9795,7.6191-5.9395
				c1.4004-1.3203,2.1006-3.04,2.1006-5.1602V29.2012c0-0.7207,0.2598-1.3398,0.7803-1.8604
				c0.5186-0.5195,1.1396-0.7803,1.8594-0.7803s1.3398,0.2607,1.8604,0.7803c0.5195,0.5205,0.7803,1.1396,0.7803,1.8604v11.3994
				c0,1.4004,0.2588,2.1006,0.7793,2.1006c0.4404,0,0.9199-0.5,1.4404-1.5c3.0391-5.9199,5.3994-13.1406,7.0801-21.6602
				c0.2793-1.4004,1.1396-2.1006,2.5801-2.1006c0.7197,0,1.3291,0.251,1.8301,0.75c0.499,0.501,0.75,1.1104,0.75,1.8301
				c0,3.3604-1.5811,8.6611-4.7402,15.9004c-2.8008,6.4795-5.46,11.5-7.9805,15.0596c-1.1602,1.6406-1.7393,3.3809-1.7393,5.2207
				v1.4395c0,1.6797,0.4795,2.6006,1.4395,2.7598c0.3193,0.041,0.7803,0.0605,1.3799,0.0605h2.1602
				c1.8398,0,2.9795-0.3398,3.4199-1.0205c0.4395-0.6797,0.6992-2.4395,0.7803-5.2793c0-0.6797,0.2598-1.2803,0.7803-1.8008
				c0.5186-0.5186,1.1191-0.7793,1.7998-0.7793c0.7197,0,1.3398,0.2695,1.8594,0.8096S123.3398,53.5605,123.3398,54.2812z
				 M101.3799,34.3008c-0.6807,5.6396-1.8398,11.1406-3.4795,16.5C97.54,52.001,96.7393,52.6006,95.5,52.6006
				c-0.7197,0-1.3105-0.2402-1.7695-0.7197c-0.4609-0.4805-0.6904-1.0596-0.6904-1.7402c0-0.1592,0.0391-0.4395,0.1201-0.8398
				c1.5596-4.3994,2.7393-9.5996,3.54-15.5996c0.1992-1.3594,0.9795-2.04,2.3398-2.04c0.7197,0,1.3096,0.2607,1.7695,0.7793
				C101.2695,32.9609,101.46,33.5811,101.3799,34.3008z M113.9805,21.7012c0,0.7197-0.2607,1.3496-0.7803,1.8896
				c-0.5205,0.54-1.1611,0.8096-1.9199,0.8096c-0.4805,0-0.9209-0.1191-1.3203-0.3594c-2.9199-1.6807-5.6396-3.0605-8.1602-4.1406
				c-1.0801-0.4395-1.6201-1.2598-1.6201-2.46c0-0.7588,0.2598-1.3887,0.7803-1.8896c0.5195-0.5,1.1191-0.75,1.7998-0.75
				c0.3994,0,0.7402,0.0596,1.0205,0.1797c3.1992,1.3604,6.1396,2.7812,8.8193,4.2607
				C113.5195,19.7607,113.9805,20.5811,113.9805,21.7012z M128.3203,47.6807c0,0.6807-0.251,1.2705-0.75,1.7705
				c-0.501,0.5-1.1104,0.75-1.8301,0.75c-1.2402,0-2.04-0.5605-2.4004-1.6807c-1.2002-3.7197-2.5801-7.0195-4.1396-9.8994
				c-0.2012-0.3604-0.2998-0.7598-0.2998-1.2002c0-0.6797,0.249-1.2695,0.75-1.7705c0.499-0.499,1.0889-0.75,1.7695-0.75
				c0.999,0,1.7402,0.4609,2.2197,1.3809c1.8008,3.5195,3.3203,7.04,4.5605,10.5596
				C128.2793,47.2412,128.3203,47.5215,128.3203,47.6807z"/>
			<path class="st0" d="M185.3799,39.1611c0,8.4805-0.2402,14.3604-0.7197,17.6396c-0.5205,3.6807-1.6006,6.0801-3.2402,7.2002
				c-1.3203,0.9199-3.7803,1.3799-7.3799,1.3799h-2.8799c-0.7197,0-1.3301-0.2607-1.8301-0.7803
				c-0.501-0.5205-0.75-1.1201-0.75-1.7998c0-0.7197,0.249-1.3291,0.75-1.8301c0.5-0.5,1.1104-0.75,1.8301-0.75h2.3994
				c2.4395,0,4.0596-0.54,4.8604-1.6201c0.6396-0.8398,1.0801-2.6299,1.3203-5.3701c0.2402-2.7393,0.3594-7.6689,0.3594-14.79
				v-7.3193c0-2.1201-1.0596-3.1807-3.1797-3.1807h-7.7998c-2.0801,0-3.6006,0.96-4.5605,2.8799
				c-0.8799,1.7207-1.7998,3.3604-2.7598,4.9209c-0.5205,0.8398-1.2207,1.2598-2.0996,1.2598c-1.3203,0-2.1406-0.6602-2.46-1.9805
				v22.6201c0,3.2803-1.6602,4.9199-4.9805,4.9199h-11.8193c-3.2803,0-4.9209-1.6396-4.9209-4.9199V28.3008
				c0-3.3193,1.4404-4.9805,4.3203-4.9805c1.8799,0,3.0996-0.8994,3.6602-2.6992c0.4805-1.4795,0.9199-3.0801,1.3203-4.8008
				c0.3193-1.3594,1.1992-2.0391,2.6396-2.0391c0.7197,0,1.3398,0.2695,1.8604,0.8096c0.5195,0.54,0.7793,1.1699,0.7793,1.8896
				c0,0.2012-0.04,0.4414-0.1191,0.7207l-1.0205,3.4199c-0.1201,0.3594-0.1797,0.6807-0.1797,0.96
				c0,1.1602,0.7197,1.7393,2.1602,1.7393h1.3193c3.3203,0,4.9805,1.6611,4.9805,4.9805v5.6396l0.2402-0.7197
				c3.3193-5.6797,5.8193-11.4395,7.5-17.2803c0.3594-1.2793,1.1992-1.9199,2.5195-1.9199c0.7598,0,1.3799,0.251,1.8604,0.75
				c0.4795,0.501,0.7197,1.1104,0.7197,1.8301c0,0.4805-0.3203,1.6006-0.96,3.3604c-0.1602,0.4004-0.2402,0.7803-0.2402,1.1396
				c0,1.1611,0.6992,1.7402,2.1006,1.7402h8.2197c4.1191,0,6.1797,2.0605,6.1797,6.1797V39.1611z M152.0195,47.4404
				c0-1.5986-0.7998-2.3994-2.3994-2.3994h-6.4199c-1.6006,0-2.4004,0.8008-2.4004,2.3994l-0.0596,7.6807
				c0,1.5996,0.8193,2.3994,2.46,2.3994h6.4199c1.5596,0,2.3398-0.7998,2.3398-2.3994L152.0195,47.4404z M152.0195,37.6611v-6.9004
				c0-1.5996-0.7998-2.4004-2.3994-2.4004h-6.4199c-1.6006,0-2.4004,0.8008-2.4004,2.4004v6.9004
				c0,1.5996,0.7998,2.3994,2.4004,2.3994h6.4199C151.2197,40.0605,152.0195,39.2607,152.0195,37.6611z M173.7998,46.1807
				c0,0.7197-0.2402,1.3301-0.7197,1.8301c-0.4805,0.501-1.0801,0.75-1.7998,0.75c-1.0801,0-1.8604-0.5195-2.3398-1.5596
				c-1.3604-3-2.8203-5.7402-4.3809-8.2207c-0.2002-0.3193-0.2998-0.7393-0.2998-1.2598c0-0.6797,0.2402-1.2598,0.7207-1.7402
				c0.4795-0.4795,1.0586-0.7197,1.7393-0.7197c0.96,0,1.6807,0.4004,2.1602,1.2002c1.7598,2.8408,3.3193,5.7207,4.6797,8.6396
				C173.7197,45.4219,173.7998,45.7812,173.7998,46.1807z"/>
			<path class="st0" d="M222.2803,28.2412c-2.04,0.4404-4.0205,0.7998-5.9404,1.0791c-2.2402,0.3604-3.7402,1.6006-4.5,3.7207
				c-2.7998,8.04-5.9805,15.6807-9.54,22.9199c-0.5605,1.1602-1.4805,1.7402-2.7598,1.7402c-0.8398,0-1.5596-0.3008-2.1602-0.9004
				c-0.5996-0.5996-0.8994-1.3203-0.8994-2.1602c0-0.4795,0.1191-0.96,0.3594-1.4395c3.3604-6.4805,6.2598-13.04,8.7002-19.6807
				c0.1592-0.4395,0.2402-0.8193,0.2402-1.1396c0-1.2393-0.8398-1.8604-2.5205-1.8604h-3.4199c-0.8008,0-1.4805-0.2891-2.04-0.8701
				c-0.5605-0.5791-0.8398-1.2686-0.8398-2.0693c0-0.8398,0.2998-1.5498,0.9004-2.1299c0.5996-0.5801,1.3193-0.8496,2.1592-0.8105
				c1.7598,0.0811,3.3994,0.1006,4.9209,0.0605c2.4385-0.04,3.96-1.2607,4.5596-3.6602c0.3193-1.3594,0.6602-2.7197,1.0195-4.0801
				c0.6006-1.5195,1.5801-2.2803,2.9404-2.2803c0.8398,0,1.5596,0.2998,2.1602,0.9004c0.5996,0.5996,0.8994,1.2998,0.8994,2.0996
				c0,0.3203-0.2002,1.1807-0.5996,2.5801c-0.1201,0.4805-0.1797,0.9004-0.1797,1.2598c0,1.2002,0.54,1.7998,1.6201,1.7998
				c0.1992,0,0.4199-0.0195,0.6592-0.0596l3.1201-0.6602c0.3604-0.0791,0.6006-0.1201,0.7207-0.1201
				c0.7998,0,1.4492,0.291,1.9492,0.8701c0.5,0.5801,0.75,1.29,0.75,2.1299C224.5596,27.001,223.7998,27.9209,222.2803,28.2412z
				 M245.0195,57.9404c0,0.8008-0.29,1.5-0.8691,2.1006c-0.5811,0.5996-1.29,0.8994-2.1309,0.8994
				c-0.5195,0-1.0596-0.1797-1.6191-0.54c-1.3203-0.8789-2.7207-1.7188-4.2002-2.5195c-0.4805-0.2793-0.9209-0.4199-1.3203-0.4199
				c-0.96,0-1.6406,0.7002-2.04,2.0996c-1.1602,4.04-4.7197,6.0605-10.6797,6.0605c-3.1602,0-5.8008-0.6807-7.9199-2.04
				c-2.5205-1.5605-3.7803-3.8398-3.7803-6.8398c0-2.96,1.1797-5.2207,3.54-6.7803c2.04-1.3594,4.6201-2.04,7.7402-2.04
				c0.8789,0,1.8799,0.0801,3,0.2402c0.9199,0.1201,1.6289-0.0205,2.1299-0.4199c0.5-0.3994,0.75-1.0801,0.75-2.04l-0.0605-8.7607
				c0-0.7998,0.2803-1.4893,0.8408-2.0693c0.5596-0.5801,1.2393-0.8701,2.04-0.8701c0.7988,0,1.4785,0.2803,2.04,0.8398
				c0.5596,0.5605,0.8398,1.2402,0.8398,2.04l0.0596,10.0801c0,2.2002,1.0996,3.8008,3.2998,4.7998
				c1.9199,0.8799,4.2002,2.0996,6.8398,3.6602C244.5195,56.0205,245.0195,56.8604,245.0195,57.9404z M227.5596,56.2607
				c0-1.6797-0.96-2.6797-2.8799-3c-1.1602-0.1992-2.1807-0.2998-3.0596-0.2998c-3.6406,0-5.46,1.2803-5.46,3.8398
				c0,1.1602,0.4893,2.0703,1.4697,2.7305c0.9795,0.6592,2.25,0.9893,3.8105,0.9893c2.7988,0,4.6191-0.6797,5.46-2.04
				C227.3398,57.7607,227.5596,57.0215,227.5596,56.2607z M245.5596,31.1807c0,0.8008-0.29,1.4912-0.8691,2.0703
				c-0.5811,0.5801-1.2705,0.8701-2.0703,0.8701c-0.5605,0-1.1006-0.1807-1.6201-0.54c-3.04-2.04-6.2607-3.7803-9.6602-5.2207
				c-1.1201-0.4795-1.6797-1.3594-1.6797-2.6396c0-0.7998,0.2891-1.4795,0.8701-2.04c0.5791-0.5596,1.249-0.8398,2.0098-0.8398
				c0.4395,0,0.7998,0.0811,1.0801,0.2402c3.7588,1.5996,7.2793,3.46,10.5596,5.5801
				C245.0996,29.2607,245.5596,30.1006,245.5596,31.1807z"/>
			<path class="st0" d="M299.2598,60.041c0,0.8398-0.2998,1.5703-0.8994,2.1895c-0.6006,0.6201-1.3604,0.9307-2.2803,0.9307
				c-1.4805,0-2.4805-0.7002-3-2.1006l-2.5205-7.0195c-0.6807-1.9199-2.04-2.8799-4.0791-2.8799h-13.2002
				c-2.04,0-3.4004,0.9805-4.0801,2.9395l-2.3398,6.9004c-0.4805,1.4395-1.4805,2.1602-3,2.1602
				c-0.8809,0-1.6309-0.3105-2.25-0.9307c-0.6211-0.6191-0.9307-1.3496-0.9307-2.1895c0-0.3203,0.0605-0.6602,0.1807-1.0205
				l12.96-37.2598c1.1592-3.3604,3.0986-5.04,5.8193-5.04c2.7197,0,4.6807,1.6602,5.8799,4.9805l13.5605,37.2598
				C299.2002,59.2812,299.2598,59.6416,299.2598,60.041z M286.5996,42.7012l-5.46-15.4805c-0.4004-1.1592-0.8994-1.7402-1.5-1.7402
				c-0.5605,0-1.04,0.5811-1.4395,1.7402l-5.2197,15.4805c-0.1201,0.3203-0.1807,0.6396-0.1807,0.96
				c0,1.1992,0.7197,1.7998,2.1602,1.7998h9.6602c1.4395,0,2.1602-0.6006,2.1602-1.7998
				C286.7803,43.3818,286.7197,43.0605,286.5996,42.7012z"/>
			<path class="st0" d="M357.7598,58.6611C357.9189,59.0615,358,59.4814,358,59.9209c0,0.8799-0.3203,1.6602-0.96,2.3398
				c-0.6406,0.6797-1.4199,1.0205-2.3398,1.0205c-1.4805,0-2.501-0.6797-3.0605-2.04l-5.04-12.6602
				c-1.4395-3.6396-4.2207-5.46-8.3398-5.46h-5.9395c-1.8008,0-2.7002,0.8994-2.7002,2.6992V60.041
				c0,0.8799-0.3203,1.6406-0.96,2.2793c-0.6406,0.6396-1.4004,0.9609-2.2803,0.9609c-0.9209,0-1.7002-0.3213-2.3398-0.9609
				c-0.6406-0.6387-0.96-1.3994-0.96-2.2793V22.9609c0-3.7998,1.8994-5.7002,5.7002-5.7002H343.54
				c4.2393,0,7.5996,1.0205,10.0801,3.0596c2.7197,2.2012,4.0801,5.3809,4.0801,9.54c0,5.4404-1.9609,8.9805-5.8799,10.6201
				c-1.001,0.4004-1.5,0.9004-1.5,1.5c0,0.4414,0.3086,1.0303,0.9297,1.7705c0.6201,0.7402,1.2695,1.9502,1.9502,3.6299
				L357.7598,58.6611z M351.04,30.1006c0-2.1992-0.7305-3.9297-2.1904-5.1895c-1.46-1.2607-3.5098-1.8906-6.1494-1.8906h-9.96
				c-1.2402,0-2.0703,0.21-2.4902,0.6299s-0.6299,1.251-0.6299,2.4902v8.7002c0,1.7998,0.8994,2.7002,2.7002,2.7002h10.2598
				c2.5996,0,4.6592-0.6904,6.1797-2.0703C350.2793,34.0908,351.04,32.3008,351.04,30.1006z"/>
			<path class="st0" d="M388.9004,36.041c0,0.8398-0.3105,1.5703-0.9307,2.1895c-0.6201,0.6211-1.3496,0.9307-2.1895,0.9307
				c-1.4805,0-2.46-0.6797-2.9404-2.04c-1.4004-3.8799-3.04-7.4404-4.9199-10.6807c-0.2402-0.3994-0.3604-0.8789-0.3604-1.4395
				c0-0.8398,0.3008-1.5605,0.9004-2.1602s1.3203-0.9004,2.1602-0.9004c1.1191,0,1.9795,0.501,2.5801,1.5
				c2.1992,3.8008,4.0391,7.6611,5.5195,11.5801C388.8398,35.3418,388.9004,35.6807,388.9004,36.041z M423.2197,24.5205
				c-2.9199,17.8408-12.1406,30.8809-27.6602,39.1201c-0.5195,0.2793-1,0.4199-1.4395,0.4199c-0.8809,0-1.6309-0.3203-2.25-0.96
				c-0.6211-0.6396-0.9297-1.3994-0.9297-2.2803c0-1.2793,0.5791-2.2393,1.7393-2.8799c7.2803-3.96,12.7803-8.6191,16.5-13.9795
				c3.7207-5.3594,6.2793-12.1592,7.6807-20.4004c0.1201-0.7588,0.4795-1.4102,1.0801-1.9502
				c0.5996-0.54,1.2988-0.8096,2.0996-0.8096c0.999,0,1.8193,0.3809,2.46,1.1396
				C423.1396,22.7012,423.3789,23.5605,423.2197,24.5205z M403.7803,33.1006c0,0.8008-0.2998,1.5107-0.9004,2.1299
				c-0.5996,0.6211-1.3408,0.9307-2.2197,0.9307c-1.4805,0-2.46-0.7207-2.9404-2.1602c-1-3-2.5195-6.54-4.5596-10.6201
				c-0.2012-0.3994-0.2998-0.8594-0.2998-1.3799c0-0.8799,0.2891-1.6104,0.8701-2.1904c0.5791-0.5791,1.3096-0.8701,2.1895-0.8701
				c1.2002,0,2.0791,0.5205,2.6396,1.5605c1.96,3.6807,3.6396,7.54,5.04,11.5801
				C403.7197,32.4404,403.7803,32.7812,403.7803,33.1006z"/>
			<path class="st0" d="M484.0596,23.3809c0,1.4004-0.5801,2.8604-1.7393,4.3799c-3.3604,4.4404-7.5,8.9404-12.4199,13.5
				c-0.6006,0.5605-1.3008,0.8398-2.1006,0.8398c-0.8799,0-1.6104-0.2998-2.1895-0.8994c-0.5811-0.6006-0.8701-1.3203-0.8701-2.1602
				c0-0.96,0.3389-1.7402,1.0195-2.3398c4.04-3.6396,6.6992-6.2793,7.9805-7.9199c0.5996-0.7598,0.8994-1.4404,0.8994-2.04
				c0-1.2002-0.96-1.8008-2.8799-1.8008h-32.2793c-0.8008,0-1.4805-0.2793-2.04-0.8398c-0.5615-0.5596-0.8408-1.2393-0.8408-2.04
				c0-0.7998,0.2793-1.4795,0.8408-2.04c0.5596-0.5596,1.2393-0.8398,2.04-0.8398h38.7598c1.7998,0,3.2188,0.3896,4.2598,1.1699
				C483.54,21.1309,484.0596,22.1416,484.0596,23.3809z M462.5801,39.041c0,11.04-4.8809,19.3604-14.6396,24.96
				c-0.5615,0.3193-1.1006,0.4795-1.6201,0.4795c-0.8809,0-1.6201-0.3096-2.2207-0.9297c-0.5996-0.6211-0.8994-1.3701-0.8994-2.25
				c0-1.2002,0.499-2.0996,1.5-2.7002c4.1191-2.4395,7.0996-5.21,8.9395-8.3096s2.7607-6.9697,2.7607-11.6104v-5.8203
				c0-0.8398,0.2998-1.5596,0.8994-2.1592c0.6006-0.6006,1.3398-0.9004,2.2197-0.9004c0.8408,0,1.5605,0.2998,2.1602,0.9004
				c0.6006,0.5996,0.9004,1.3193,0.9004,2.1592V39.041z"/>
			<path class="st0" d="M545.2002,38.9209c0,0.8799-0.291,1.6201-0.8701,2.2197c-0.5801,0.6006-1.3105,0.9004-2.1904,0.9004
				h-44.2197c-0.8799,0-1.6104-0.2998-2.1895-0.9004c-0.5811-0.5996-0.8701-1.3398-0.8701-2.2197s0.2891-1.6201,0.8701-2.2197
				c0.5791-0.6006,1.3096-0.9004,2.1895-0.9004h44.2197c0.8799,0,1.6104,0.2998,2.1904,0.9004
				C544.9092,37.3008,545.2002,38.041,545.2002,38.9209z"/>
			<path class="st0" d="M603.2803,22.0605c0,1.6006-1.0801,2.5605-3.2402,2.8799c-6.04,0.9209-11.4004,3.4111-16.0801,7.4707
				s-7.0195,8.3301-7.0195,12.8096c0,6.4805,5.1797,10.6201,15.54,12.4199c1.7188,0.2803,2.5791,1.3008,2.5791,3.0605
				c0,0.96-0.3701,1.7695-1.1094,2.4297c-0.7412,0.6602-1.5898,0.8896-2.5498,0.6895c-6.2012-1.1992-10.9199-3.0391-14.1602-5.5195
				c-4.2812-3.3193-6.4199-7.5195-6.4199-12.5996c0-4.3203,1.459-8.2402,4.3799-11.7607c1.2793-1.5195,2.5391-2.7988,3.7803-3.8398
				c1.2393-1.0391,1.8594-1.9199,1.8594-2.6396c0-0.96-1.0195-1.3594-3.0596-1.2002c-8.2002,0.7197-14.8604,1.4199-19.9805,2.0996
				c-0.8799,0.1201-1.6406-0.1191-2.2803-0.7197c-0.6396-0.5996-0.96-1.3398-0.96-2.2197c0-0.7598,0.25-1.4297,0.75-2.0098
				s1.1299-0.8896,1.8906-0.9307c7.3594-0.7197,21.499-1.7998,42.4199-3.2393c1.0801-0.04,1.959,0.21,2.6396,0.75
				C602.9395,20.5312,603.2803,21.2207,603.2803,22.0605z M600.04,39.7607c0,0.6406-0.2305,1.1904-0.6904,1.6504
				s-1.0098,0.6895-1.6494,0.6895c-0.96,0-1.6602-0.3594-2.1006-1.0801c-1.1602-1.8389-2.3994-3.4199-3.7197-4.7393
				c-0.4404-0.4404-0.6602-0.9805-0.6602-1.6201c0-1.5996,0.7803-2.4004,2.3398-2.4004c0.6797,0,1.2803,0.2998,1.8008,0.9004
				c1.6797,1.8799,3.0791,3.6396,4.1992,5.2793C599.8799,38.9209,600.04,39.3613,600.04,39.7607z M607.3604,36.3408
				c0,0.6406-0.2314,1.1904-0.6904,1.6504c-0.46,0.46-1.0107,0.6895-1.6504,0.6895c-0.9199,0-1.6191-0.3604-2.0996-1.0801
				c-1.3203-1.959-2.5605-3.5791-3.7197-4.8594c-0.4404-0.4805-0.6602-0.9805-0.6602-1.5c0-1.5996,0.7998-2.4004,2.4004-2.4004
				c0.5996,0,1.1787,0.2803,1.7393,0.8398c1.4004,1.4004,2.8203,3.1797,4.2607,5.3398
				C607.2197,35.5811,607.3604,36.0215,607.3604,36.3408z"/>
			<path class="st0" d="M657.0996,48.5811c0,4.8799-1.6602,8.6201-4.9795,11.2197c-2.9609,2.3203-6.96,3.4805-12,3.4805
				c-6.04,0-10.8604-1.5996-14.46-4.8008c-0.6807-0.5996-1.0205-1.3994-1.0205-2.3994c0-0.9199,0.3096-1.7002,0.9307-2.3398
				c0.6191-0.6396,1.3887-0.96,2.3096-0.96c0.8799,0,1.6592,0.3203,2.3398,0.96c2.9199,2.6797,6.0996,4.0195,9.54,4.0195
				c3.1201,0,5.6602-0.7197,7.6201-2.1602c2.1992-1.6396,3.2998-3.96,3.2998-6.96c0-2.5195-0.8301-4.4697-2.4893-5.8496
				c-1.6611-1.3799-3.9307-2.0703-6.8105-2.0703c-3.5605,0-6.501,0.9209-8.8203,2.7598c-1.6797,1.3604-3.2002,1.9805-4.5596,1.8604
				c-2.3203-0.2002-3.3604-1.5801-3.1201-4.1396l1.6201-18c0.3193-3.6006,2.3193-5.4004,6-5.4004h20.2803
				c0.7998,0,1.4795,0.2695,2.04,0.8096c0.5596,0.54,0.8398,1.2109,0.8398,2.0107c0,0.8008-0.2803,1.4902-0.8398,2.0693
				c-0.5605,0.5811-1.2402,0.8701-2.04,0.8701h-17.04c-1.2002,0-2.0205,0.2012-2.46,0.6006
				c-0.4404,0.4004-0.7207,1.1992-0.8398,2.3994l-0.96,8.5801c-0.1611,1.2402,0.2588,1.8604,1.2598,1.8604
				c0.3193,0,0.6797-0.0801,1.0801-0.2402c2.5996-1.0801,5.5996-1.6201,9-1.6201c4.1992,0,7.6289,1.2207,10.29,3.6602
				C655.7695,41.2412,657.0996,44.501,657.0996,48.5811z"/>
			<path class="st0" d="M727.54,42.1006c0,0.6006-0.2207,1.1201-0.6602,1.5605c-0.4404,0.4404-0.96,0.6592-1.5596,0.6592h-39.54
				c-1.2002,0-1.7998,0.4805-1.7998,1.4404c0,1.1201,0.7588,1.6797,2.2793,1.6797h33.54c3.2793,0,4.9199,1.6406,4.9199,4.9199v4.5
				c0,3.8809-0.6201,6.5107-1.8594,7.8906c-1.2402,1.3799-3.6807,2.0693-7.3203,2.0693h-2.7598
				c-0.7207,0-1.3311-0.2598-1.8301-0.7793c-0.501-0.5205-0.75-1.1406-0.75-1.8604c0-0.6807,0.249-1.2803,0.75-1.7998
				c0.499-0.5195,1.1094-0.7803,1.8301-0.7803h2.0996c1.96,0,3.1797-0.3799,3.6602-1.1396c0.3994-0.5195,0.5996-1.8398,0.5996-3.96
				v-2.46c0-1.5996-0.7998-2.4004-2.3994-2.4004h-18.6006c-1.1992,0-1.7998,0.6006-1.7998,1.7998v2.9404
				c0,1.6006,0.7998,2.4004,2.4004,2.4004h5.3398c1.5195,0,2.2803-0.7598,2.2803-2.2803v-0.96c0-0.7207,0.2598-1.3398,0.7793-1.8604
				c0.5195-0.5195,1.1602-0.7803,1.9199-0.7803c0.7207,0,1.3398,0.2607,1.8604,0.7803c0.5195,0.5205,0.7803,1.1396,0.7803,1.8604
				v3.1797c0,3.2012-1.6006,4.7998-4.7998,4.7998h-26.6406c-3.2002,0-4.7998-1.5986-4.7998-4.7998v-3.0596
				c0-0.7598,0.2705-1.4102,0.8096-1.9502c0.54-0.54,1.1904-0.8105,1.9502-0.8105s1.4102,0.2705,1.9502,0.8105
				s0.8105,1.1904,0.8105,1.9502v0.8398c0,1.5205,0.7588,2.2803,2.2793,2.2803h5.04c1.5996,0,2.4004-0.7998,2.4004-2.4004v-2.9404
				c0-1.1992-0.6006-1.7998-1.7998-1.7998h-5.7002c-3.2012,0-4.7998-1.5996-4.7998-4.7998V23.501
				c0-3.2002,1.5986-4.7998,4.7998-4.7998h7.2002c1.999,0,3.2793-0.6602,3.8398-1.9805c0.3594-0.8398,0.6191-1.5,0.7793-1.9795
				c0.3994-1.2002,1.2803-1.8008,2.6406-1.8008c0.7197,0,1.3496,0.291,1.8896,0.8701c0.54,0.5801,0.8105,1.2305,0.8105,1.9502
				c0,0.1602-0.0303,0.4004-0.0908,0.7197c-0.0596,0.3213-0.0898,0.5811-0.0898,0.7803c0,0.96,0.5596,1.4404,1.6807,1.4404h13.3799
				c3.1992,0,4.7998,1.5996,4.7998,4.7998v8.6396c0,3.2012-1.6006,4.7998-4.7998,4.7998h-29.46
				c-1.2002,0-1.7998,0.4805-1.7998,1.4404c0,1,0.5996,1.5,1.7998,1.5h39.54c0.5996,0,1.1191,0.2207,1.5596,0.6602
				C727.3193,40.9814,727.54,41.501,727.54,42.1006z M714.46,24.3408c0-0.999-0.6406-1.5-1.9199-1.5H685.96
				c-1.3203,0-1.9795,0.501-1.9795,1.5c0,1.1201,0.5996,1.6797,1.7998,1.6797h26.8799
				C713.8604,26.0205,714.46,25.4609,714.46,24.3408z M714.46,31.4805c0-1.0801-0.5996-1.6201-1.7998-1.6201h-26.8799
				c-1.2002,0-1.7998,0.54-1.7998,1.6201c0,1.1211,0.5996,1.6807,1.7998,1.6807H712.54
				C713.8193,33.1611,714.46,32.6016,714.46,31.4805z"/>
			<path class="st0" d="M786.8203,62.6211c0,0.7197-0.2607,1.3291-0.7803,1.8301c-0.5205,0.499-1.1201,0.75-1.7998,0.75h-28.3203
				c-4.7607,0-8.2803-1.1006-10.5596-3.3008c-0.7207-0.7197-1.4014-1.0801-2.04-1.0801c-0.5205,0-1.0801,0.2607-1.6807,0.7803
				c-1.1201,0.96-2.2793,1.8799-3.4795,2.7598c-0.6006,0.4404-1.1807,0.6602-1.7402,0.6602c-0.8008,0-1.4902-0.2998-2.0703-0.8994
				c-0.5801-0.6006-0.8691-1.3008-0.8691-2.1006c0-0.96,0.459-1.7598,1.3799-2.3994c1.7188-1.1602,3.2891-2.3105,4.71-3.4502
				c1.4189-1.1396,2.1299-2.71,2.1299-4.71v-8.8203c0-1.0801-0.5205-1.6201-1.5605-1.6201h-4.0801
				c-0.7197,0-1.3496-0.2598-1.8896-0.7793s-0.8096-1.1602-0.8096-1.9209c0-0.7197,0.2695-1.3496,0.8096-1.8896
				s1.1699-0.8096,1.8896-0.8096h6.2402c3.2002,0,4.7998,1.5996,4.7998,4.7998v11.7598c0,2.04,0.3604,3.6006,1.0801,4.6797
				c1.4404,2.1211,4.2607,3.1807,8.46,3.1807h27.6006c0.6797,0,1.2793,0.25,1.7998,0.75
				C786.5596,61.291,786.8203,61.9004,786.8203,62.6211z M746.6797,24.1611c0,0.7998-0.2695,1.4697-0.8096,2.0098
				s-1.21,0.8096-2.0098,0.8096c-0.8408,0-1.541-0.3193-2.1006-0.96c-1.3193-1.5195-3-3.1797-5.04-4.9795
				c-0.6396-0.5596-0.96-1.2393-0.96-2.04c0-0.7598,0.2793-1.4199,0.8398-1.9805c0.5605-0.5596,1.2197-0.8398,1.9805-0.8398
				c0.6797,0,1.2988,0.2402,1.8604,0.7197c1.6797,1.4404,3.499,3.2012,5.46,5.2803
				C746.4189,22.7412,746.6797,23.4014,746.6797,24.1611z M762.0996,17.8008c0,0.2803-0.0596,0.5801-0.1797,0.9004
				c-1.7998,5.04-3.7197,9.46-5.7598,13.2598c-0.5205,0.96-0.7803,1.9404-0.7803,2.9395c0,0.9209,0.2002,1.8213,0.6006,2.7002
				c2.0791,4.8408,3.999,9.9805,5.7598,15.4199c0.0791,0.4004,0.1201,0.6807,0.1201,0.8398c0,0.7607-0.2803,1.4307-0.8408,2.0107
				s-1.2197,0.8701-1.9795,0.8701c-1.4004,0-2.3008-0.6602-2.7002-1.9805c-1.8398-6-3.8604-11.6191-6.0596-16.8604
				c-0.4805-1.1191-0.7207-2.1592-0.7207-3.1191c0-1.0801,0.3203-2.2207,0.96-3.4209c2.3203-4.3193,4.4004-9.1396,6.2402-14.46
				c0.4395-1.2393,1.2998-1.8594,2.5801-1.8594c0.7598,0,1.4102,0.2803,1.9502,0.8398
				C761.8301,16.4414,762.0996,17.0811,762.0996,17.8008z M773.3203,18.3408c0,0.3203-0.0605,0.6406-0.1807,0.96
				c-1.7998,4.5596-3.7598,8.7402-5.8799,12.54c-0.5605,0.96-0.8398,1.9004-0.8398,2.8203c0,0.7998,0.2197,1.6406,0.6602,2.5195
				c2.1992,4.6006,4.2002,9.501,6,14.7002c0.1201,0.3604,0.1797,0.6602,0.1797,0.9004c0,0.7598-0.2695,1.4092-0.8096,1.9492
				s-1.2109,0.8105-2.0098,0.8105c-1.2812,0-2.1406-0.6396-2.5801-1.9199c-1.8408-5.5205-3.9404-10.8203-6.3008-15.9004
				c-0.5195-1.1191-0.7793-2.1602-0.7793-3.1201c0-1.0801,0.3389-2.2393,1.0195-3.4795c2.5205-4.5605,4.6592-9.1396,6.4199-13.7402
				c0.4404-1.1191,1.2607-1.6797,2.46-1.6797c0.7598,0,1.3896,0.2598,1.8906,0.7793
				C773.0693,17.001,773.3203,17.6211,773.3203,18.3408z M786.3398,53.3809c0,0.7598-0.2803,1.4307-0.8398,2.0098
				c-0.5605,0.5801-1.2402,0.8701-2.04,0.8701c-1.1201,0-2.001-0.5596-2.6396-1.6797c-0.4414-1.04-0.8809-2.1006-1.3203-3.1807
				c-1.96-4.7998-4.0605-9.2998-6.2998-13.5c-0.6006-1.1191-0.9004-2.1992-0.9004-3.2393s0.3398-2.1602,1.0205-3.3604
				c2.7598-4.8799,5.0996-9.6396,7.0195-14.2803c0.4805-1.1191,1.3398-1.6797,2.5801-1.6797c0.7998,0,1.4697,0.2803,2.0098,0.8398
				c0.54,0.5605,0.8105,1.2207,0.8105,1.9805c0,0.3594-0.0811,0.7197-0.2402,1.0801c-2.2402,5.0801-4.3799,9.3398-6.4199,12.7793
				c-0.5996,0.96-0.9004,1.8604-0.9004,2.7002c0,0.7197,0.2598,1.5605,0.7803,2.5205c2.7197,5.2002,5.0996,10.2197,7.1396,15.0596
				C786.2598,52.5811,786.3398,52.9414,786.3398,53.3809z"/>
			<path class="st0" d="M815.6201,37.3604c-2.0801,3.5615-3.8203,7.0205-5.2197,10.3809c-0.6006,1.4395-1.6201,2.1592-3.0605,2.1592
				c-2,0-3.1602-1.0391-3.4795-3.1191c-0.3604-2.3604-0.54-5.9004-0.54-10.6201c0-4.7598,0.6797-10.3799,2.04-16.8604
				c0.3994-1.959,1.4395-2.9404,3.1201-2.9404c0.8398,0,1.5391,0.291,2.0996,0.8701c0.5596,0.5811,0.8398,1.29,0.8398,2.1299
				c0,0.2402-0.0205,0.4805-0.0596,0.7207c-1.4404,6.5996-2.2002,11.5801-2.2803,14.9395c-0.04,1.3203,0.2598,1.9805,0.9004,1.9805
				c0.5186,0,1.0791-0.4805,1.6797-1.4404l0.2998-0.4795c0.3994-0.6396,0.999-0.96,1.7998-0.96
				c1.4404,0,2.1602,0.7197,2.1602,2.1602C815.9199,36.6807,815.8193,37.041,815.6201,37.3604z M836.2598,37.6611
				c0,6.7598-1.2207,12.2998-3.6602,16.6201C830.04,58.7607,825.8398,62.541,820,65.6211
				c-0.4404,0.2393-0.9209,0.3594-1.4404,0.3594c-0.8398,0-1.5596-0.3301-2.1592-0.9893c-0.6006-0.6602-0.9004-1.4102-0.9004-2.25
				c0-1.1201,0.5596-1.9805,1.6797-2.5801c4.8799-2.5596,8.2998-5.6406,10.2607-9.2402c1.8389-3.3193,2.7598-7.8193,2.7598-13.5
				c0-5.1602-0.54-11.2197-1.6201-18.1797c-0.1602-0.9199,0.0801-1.75,0.7197-2.4902s1.4199-1.1104,2.3398-1.1104
				c0.7598,0,1.4297,0.2607,2.0107,0.7803c0.5791,0.5205,0.9297,1.1602,1.0498,1.9199
				C835.7393,25.8213,836.2598,32.2607,836.2598,37.6611z"/>
			<path class="st0" d="M902.7998,36.2812c0,1.1992-0.5605,2.0391-1.6797,2.5195c-2.6807,1.1201-5.2002,2.2607-7.5605,3.4199
				c-1.6406,0.8008-2.6602,1.6406-3.0596,2.5205c-0.2803,0.6396-0.4199,1.9199-0.4199,3.8398v3.8398
				c0,0.8008-0.2803,1.4697-0.8398,2.0098c-0.5605,0.54-1.2402,0.8105-2.04,0.8105c-0.8008,0-1.4697-0.2705-2.0098-0.8105
				s-0.8105-1.209-0.8105-2.0098v-2.2803c0-1.3994-0.5205-2.0996-1.5596-2.0996c-0.4414,0-0.9209,0.1602-1.4404,0.4795
				c-4.8398,3-7.2598,5.5801-7.2598,7.7402c0,1.2402,0.8193,2.1299,2.46,2.6699c1.6396,0.54,4.4395,0.8105,8.4004,0.8105
				c3.1191,0,7.2598-0.3398,12.4199-1.0205c0.8398-0.1201,1.5693,0.1006,2.1895,0.6602c0.6201,0.5605,0.9297,1.2598,0.9297,2.0996
				c0,0.7207-0.2393,1.3506-0.7197,1.8906c-0.4795,0.54-1.0801,0.8486-1.7998,0.9297c-4.5596,0.5195-9.04,0.7803-13.4404,0.7803
				c-4.5596,0-8.0605-0.3809-10.5-1.1406c-4.0791-1.3193-6.1191-3.7393-6.1191-7.2598c0-4.0801,4.4189-8.7393,13.2598-13.9795
				c1.4395-0.8408,2.1602-1.6807,2.1602-2.5205c0-1.04-0.8408-1.5596-2.5205-1.5596c-2.3203,0-5.2598,1.1006-8.8203,3.2998
				c-2.8799,1.7998-5.4199,3.8008-7.6191,6l-1.5605,1.8604c-0.6406,0.5996-1.3408,0.8994-2.0996,0.8994
				c-0.8008,0-1.4707-0.2695-2.0098-0.8096c-0.54-0.54-0.8105-1.21-0.8105-2.0107c0-0.7197,0.2197-1.3389,0.6602-1.8594
				c4.1592-5,7.6396-10,10.4395-15c0.2803-0.4805,0.4209-0.9395,0.4209-1.3799c0-1.04-0.7412-1.54-2.2207-1.5
				c-1.3193,0.04-3.2607,0.0596-5.8193,0.0596c-0.7207,0-1.3311-0.2598-1.8301-0.7803c-0.501-0.5186-0.75-1.1396-0.75-1.8594
				c0-0.7598,0.2695-1.4004,0.8096-1.9199s1.1699-0.7598,1.8896-0.7207c2.4805,0.0811,5.2207,0.0811,8.2207,0
				c2.3594-0.0391,3.96-1.1396,4.7998-3.2998l1.2002-3.1201c0.4795-1.2393,1.3799-1.8594,2.7002-1.8594
				c0.7988,0,1.4697,0.2803,2.0098,0.8398c0.54,0.5605,0.8096,1.2207,0.8096,1.9795c0,0.3604-0.0596,0.7002-0.1797,1.0205
				c-0.2012,0.4795-0.3203,0.7803-0.3604,0.8994c-0.1602,0.4414-0.2393,0.8408-0.2393,1.2002c0,1.1611,0.7197,1.6602,2.1592,1.5
				c1.5205-0.1592,4.4004-0.5596,8.6406-1.2002c0.7998-0.1191,1.5195,0.0908,2.1602,0.6309c0.6387,0.54,0.96,1.21,0.96,2.0098
				c0,1.6006-0.8008,2.5-2.4004,2.7002c-4,0.5195-7.5811,0.8994-10.7402,1.1396c-1.7607,0.1602-3.0898,0.5303-3.9902,1.1104
				c-0.8994,0.5801-1.75,1.6104-2.5498,3.0898c-0.0801,0.1201-0.2803,0.4404-0.5996,0.96
				c-0.4404,0.7598-0.6602,1.3799-0.6602,1.8594c0,0.6006,0.3604,0.9004,1.0801,0.9004c0.4395,0,1.0195-0.1396,1.7402-0.4199
				c2.1191-0.7998,4.0596-1.2002,5.8193-1.2002c2.4004,0,4.2402,0.8008,5.5205,2.4004c0.8789,1.0801,1.7197,1.6201,2.5195,1.6201
				c0.4404,0,0.9199-0.1201,1.4404-0.3604l7.2598-3.54c0.3994-0.1992,0.7998-0.2998,1.2002-0.2998
				c0.7598,0,1.4102,0.2695,1.9502,0.8096S902.7998,35.4814,902.7998,36.2812z"/>
			<path class="st0" d="M928.3604,16.0605c0,0.1602-0.041,0.4004-0.1201,0.7207c-0.4004,1.6797-1.0605,3.7998-1.9805,6.3594
				c-0.7598,2.1211-1.1396,4.1006-1.1396,5.9404v34.9795c0,0.7598-0.2705,1.4102-0.8105,1.9502s-1.1904,0.8096-1.9492,0.8096
				c-0.7607,0-1.4102-0.2695-1.9502-0.8096s-0.8105-1.1904-0.8105-1.9502V41.8604c0-1.0391-0.3203-1.5596-0.96-1.5596
				c-0.4404,0-0.8398,0.2998-1.1992,0.9004l-1.1406,1.8594c-0.4795,0.7607-1.2207,1.1406-2.2197,1.1406
				c-0.7607,0-1.4004-0.2598-1.9199-0.7803c-0.5205-0.5195-0.7803-1.1602-0.7803-1.9199c0-0.6006,0.1592-1.1191,0.4805-1.5605
				c4.9199-6.9189,8.6592-15.1201,11.2197-24.5996c0.3604-1.2793,1.2197-1.9199,2.5801-1.9199c0.7588,0,1.3994,0.2607,1.9199,0.7803
				C928.0996,14.7207,928.3604,15.3408,928.3604,16.0605z M966.9404,53.7412c0,0.7598-0.251,1.3896-0.75,1.8896
				c-0.501,0.501-1.1104,0.75-1.8301,0.75c-0.8809,0-1.6006-0.3398-2.1602-1.0205c-3.8008-4.7188-7.1807-9.6592-10.1406-14.8193
				c-0.4404-0.7998-0.9199-1.2002-1.4395-1.2002c-0.6807,0-1.0205,0.5996-1.0205,1.7998v7.9199
				c0,1.6006,0.7998,2.4004,2.4004,2.4004h3c0.6797,0,1.2598,0.2402,1.7402,0.7197c0.4795,0.4805,0.7197,1.0605,0.7197,1.7402
				c0,0.6807-0.2402,1.2598-0.7197,1.7402c-0.4805,0.4795-1.0605,0.7197-1.7402,0.7197h-3c-1.6006,0-2.4004,0.8008-2.4004,2.4004
				v4.9199c0,0.7197-0.2598,1.3389-0.7793,1.8594c-0.5205,0.5195-1.1211,0.7803-1.8008,0.7803
				c-0.7197,0-1.3398-0.2607-1.8594-0.7803c-0.5205-0.5205-0.7803-1.1396-0.7803-1.8594v-4.9199
				c0-1.5996-0.8008-2.4004-2.3994-2.4004H939.04c-0.6807,0-1.2598-0.2402-1.7402-0.7197
				c-0.4795-0.4805-0.7197-1.0596-0.7197-1.7402c0-0.6797,0.2402-1.2598,0.7197-1.7402c0.4805-0.4795,1.0596-0.7197,1.7402-0.7197
				h2.9404c1.5986,0,2.3994-0.7998,2.3994-2.4004v-8.0996c0-1.1602-0.3203-1.7402-0.96-1.7402c-0.5205,0-1,0.4004-1.4395,1.2002
				c-2.9209,5.3994-6.3213,10.4609-10.2002,15.1797c-0.5605,0.6807-1.2402,1.0205-2.04,1.0205
				c-0.7207,0-1.3408-0.2598-1.8604-0.7803c-0.5205-0.5195-0.7803-1.1396-0.7803-1.8604c0-0.6387,0.2402-1.2197,0.7207-1.7393
				c4.959-5.4805,9.4199-12.4209,13.3799-20.8203c0.1992-0.4395,0.2998-0.8398,0.2998-1.2002c0-1.0801-0.7002-1.6201-2.0996-1.6201
				h-8.8809c-0.7197,0-1.3301-0.249-1.8291-0.75c-0.501-0.499-0.75-1.1299-0.75-1.8896c0-0.7197,0.249-1.3398,0.75-1.8604
				c0.499-0.5195,1.1094-0.7803,1.8291-0.7803h11.4004c1.5996,0,2.4004-0.7988,2.4004-2.3994v-4.6797
				c0-0.7598,0.2598-1.4004,0.7793-1.9209c0.5195-0.5186,1.1602-0.7793,1.9199-0.7793c0.7207,0,1.3398,0.2607,1.8604,0.7793
				c0.5195,0.5205,0.7803,1.1611,0.7803,1.9209v4.6797c0,1.6006,0.7998,2.3994,2.3994,2.3994h11.7607
				c0.7197,0,1.3398,0.2607,1.8594,0.7803c0.5195,0.5205,0.7803,1.1406,0.7803,1.8604s-0.2607,1.3408-0.7803,1.8594
				c-0.5195,0.5205-1.1396,0.7803-1.8594,0.7803h-9.4805c-1.4004,0-2.0996,0.54-2.0996,1.6201c0,0.3604,0.0996,0.7607,0.2998,1.2002
				c3.3994,7,8,13.8604,13.7998,20.5801C966.7393,52.4805,966.9404,53.0615,966.9404,53.7412z"/>
			<path class="st0" d="M978.8203,49.9609c-0.6006,4.5205-1.3008,8.4805-2.1006,11.8799c-0.2393,0.999-0.8398,1.5-1.7998,1.5
				c-1.3203,0-1.9795-0.6201-1.9795-1.8604l0.0596-0.54c0.8398-3.1592,1.6201-6.9795,2.3398-11.46
				c0.1592-0.999,0.7197-1.5,1.6797-1.5C978.4199,47.9805,979.0195,48.6406,978.8203,49.9609z M998.9199,17.5605
				c0,0.6807-0.2402,1.251-0.7197,1.71c-0.4805,0.4609-1.041,0.6904-1.6807,0.6904h-4.0791c-1.2002,0-1.8008,0.5996-1.8008,1.7998
				v0.9004c0,1.1992,0.6006,1.7998,1.8008,1.7998h2.7598c0.5596,0,1.0498,0.21,1.4697,0.6299s0.6299,0.9102,0.6299,1.4697
				c0,0.6006-0.21,1.1104-0.6299,1.5303s-0.9102,0.6299-1.4697,0.6299h-2.7598c-1.2002,0-1.8008,0.5996-1.8008,1.7998v0.54
				c0,1.2002,0.6006,1.7998,1.8008,1.7998h2.7598c0.5596,0,1.0498,0.21,1.4697,0.6309c0.4199,0.4199,0.6299,0.9102,0.6299,1.4697
				c0,0.5605-0.21,1.0498-0.6299,1.4697s-0.9102,0.6299-1.4697,0.6299h-2.7598c-1.2002,0-1.8008,0.6006-1.8008,1.7998v0.9004
				c0,1.2002,0.6006,1.7998,1.8008,1.7998h0.4199c3.1992,0,4.7998,1.6006,4.7998,4.7998v9.96c0,3.6006-0.1406,5.8604-0.4199,6.7803
				c-0.6406,2.1992-2.2803,3.2998-4.9199,3.2998h-2.7607c-0.7197,0-1.3398-0.2598-1.8594-0.7793
				c-0.5205-0.5205-0.7803-1.1406-0.7803-1.8604s0.2598-1.3398,0.7803-1.8604c0.5195-0.5186,1.1396-0.7793,1.8594-0.7793h1.0205
				c1.2002,0,1.959-0.3398,2.2803-1.0205c0.2393-0.5195,0.3594-2.1191,0.3594-4.7998v-6.9004c0-1.5195-0.7598-2.2793-2.2793-2.2793
				h-10.5c-3.2012,0-4.8008-1.5996-4.8008-4.8008V19.9609c0-3.2002,1.5996-4.7998,4.8008-4.7998h16.0791
				c0.6396,0,1.2002,0.2393,1.6807,0.7197C998.6797,16.3604,998.9199,16.9219,998.9199,17.5605z M982.96,60.5811
				c0.0801,1.0801-0.4199,1.6201-1.5,1.6201c-0.96,0-1.4609-0.5-1.5-1.5c-0.2002-3.6396-0.4199-7.1201-0.6602-10.4404
				c-0.0801-1.0801,0.3994-1.6201,1.4404-1.6201c0.8789,0,1.3594,0.4609,1.4395,1.3799
				C982.3398,51.9404,982.5996,55.4609,982.96,60.5811z M985.9004,22.7207v-0.96c0-1.2002-0.6006-1.7998-1.8008-1.7998h-1.7393
				c-1.1211,0-1.6807,0.5605-1.6807,1.6797v1.0801c0,1.2002,0.6006,1.7998,1.8008,1.7998h1.6191
				C985.2998,24.5205,985.9004,23.9209,985.9004,22.7207z M985.9004,31.001v-0.4199c0-1.2002-0.6006-1.7998-1.8008-1.7998h-1.6191
				c-1.2002,0-1.8008,0.5996-1.8008,1.7998v0.4199c0,1.2002,0.6006,1.7998,1.8008,1.7998h1.6191
				C985.2998,32.8008,985.9004,32.2012,985.9004,31.001z M985.9004,39.7607v-0.96c0-1.2002-0.6006-1.7998-1.8008-1.7998h-1.6191
				c-1.2002,0-1.8008,0.5996-1.8008,1.7998v1.0801c0,1.1201,0.5596,1.6797,1.6807,1.6797h1.7998
				C985.3193,41.5605,985.9004,40.9609,985.9004,39.7607z M987.9404,58.8408c0.1191,1.041-0.3604,1.5596-1.4404,1.5596
				c-0.8799,0-1.3604-0.4395-1.4404-1.3193c-0.1602-2-0.5195-5.1602-1.0791-9.4805c-0.041-0.3994,0.0791-0.7588,0.3594-1.0801
				c0.2793-0.3193,0.6201-0.4795,1.0205-0.4795c0.7998,0,1.2598,0.4404,1.3799,1.3193
				C987.1396,52.001,987.54,55.1611,987.9404,58.8408z M992.3203,56.6211c0.0391,0.3594-0.0703,0.7002-0.3301,1.0195
				c-0.2607,0.3203-0.5908,0.4805-0.9902,0.4805c-0.8008,0-1.2402-0.3994-1.3203-1.2002c-0.3203-3.1201-0.7002-5.7598-1.1396-7.9199
				c-0.0811-0.3604,0.0098-0.71,0.2695-1.0498s0.5898-0.5107,0.9902-0.5107c0.7197,0,1.1602,0.3809,1.3203,1.1406
				C991.5596,50.6611,991.96,53.3418,992.3203,56.6211z M1028.2598,29.7412c0,0.6807-0.2607,1.2695-0.7793,1.7695
				c-0.5205,0.501-1.1211,0.75-1.8008,0.75c-0.6807,0-1.2598-0.2197-1.7393-0.6602c-1.8008-1.6396-3.1611-2.96-4.0801-3.96
				l0.0596,0.3604c0,0.5996-0.21,1.1094-0.6299,1.5303c-0.4199,0.4199-0.9297,0.6299-1.5303,0.6299h-1.1396
				c-1.2002,0-1.7998,0.5996-1.7998,1.7998v0.3594c0,1.2002,0.5996,1.8008,1.7998,1.8008h3.54c3.1992,0,4.7998,1.5996,4.7998,4.7998
				v5.2197c0,3.2012-1.6006,4.7998-4.7998,4.7998h-2.2803c-1.0801,0-1.6201,0.4004-1.6201,1.2002
				c0,0.2803,0.0801,0.5801,0.2402,0.9004c2.1992,4,5.4199,7.46,9.6602,10.3799c0.7588,0.5205,1.1396,1.2402,1.1396,2.1602
				c0,0.7197-0.2607,1.3291-0.7803,1.8301c-0.5195,0.499-1.1602,0.75-1.9199,0.75c-0.5605,0-1.04-0.1406-1.4395-0.4199
				c-3.3604-2.3203-6.2207-5.1006-8.5801-8.3408c-0.7197-0.96-1.4004-1.4395-2.04-1.4395c-0.6807,0-1.3799,0.5-2.0996,1.5
				c-2.0811,3-4.9004,5.7793-8.46,8.3398c-0.4805,0.3604-0.9814,0.54-1.5,0.54c-0.7207,0-1.3311-0.25-1.8301-0.75
				c-0.501-0.501-0.75-1.1104-0.75-1.8301c0-0.8799,0.3594-1.5596,1.0801-2.04c4.6396-3.1992,7.8193-6.7803,9.5391-10.7402
				c0.1201-0.2793,0.1807-0.54,0.1807-0.7793c0-0.8408-0.54-1.2607-1.6201-1.2607h-2.3398c-3.2012,0-4.7998-1.5986-4.7998-4.7998
				v-5.2197c0-3.2002,1.5986-4.7998,4.7998-4.7998h3.3594c1.2002,0,1.8008-0.6006,1.8008-1.8008v-0.3594
				c0-1.2002-0.6006-1.7998-1.8008-1.7998h-1.0195c-0.5996,0-1.1104-0.21-1.5303-0.6299c-0.4199-0.4209-0.6299-0.9307-0.6299-1.5303
				l0.0605-0.4199c-1.5605,1.7197-2.9404,3.1406-4.1406,4.2598c-0.5205,0.4795-1.1006,0.7197-1.7402,0.7197
				c-0.6807,0-1.2598-0.2402-1.7393-0.7197c-0.4805-0.4805-0.7207-1.0596-0.7207-1.7402c0-0.7998,0.2793-1.4395,0.8408-1.9199
				c3.96-3.4395,7.1992-7.0996,9.7197-10.9795c1.3193-2.04,3-3.0605,5.04-3.0605c1.9199,0,3.499,0.9004,4.7402,2.7002
				c2.5195,3.6406,5.959,7.2803,10.3193,10.9199C1027.9395,28.2812,1028.2598,28.9414,1028.2598,29.7412z M1009.9004,42.8809
				v-2.7002c0-1.2002-0.6006-1.7998-1.8008-1.7998h-1.5596c-1.3203,0-1.9805,0.6406-1.9805,1.9199v2.4004
				c0,1.3193,0.6602,1.9795,1.9805,1.9795h1.5596C1009.2998,44.6807,1009.9004,44.0811,1009.9004,42.8809z M1018.2998,25.9609
				c-2.04-2.2803-3.46-4-4.2598-5.1602c-0.6406-0.8789-1.2598-1.3203-1.8604-1.3203c-0.6396,0-1.2402,0.4414-1.7998,1.3203
				c-0.7197,1.1201-2.0801,2.8604-4.0801,5.2197c0.3203-0.1201,0.5791-0.1797,0.7803-0.1797h10.6797L1018.2998,25.9609z
				 M1020.4004,42.7012v-2.4004c0-1.2793-0.6406-1.9199-1.9199-1.9199h-1.8604c-1.2002,0-1.7998,0.5996-1.7998,1.7998v2.7002
				c0,1.2002,0.5996,1.7998,1.7998,1.7998h1.8604C1019.7598,44.6807,1020.4004,44.0205,1020.4004,42.7012z"/>
		</g>
	</g>
</g>
</svg>
