<?xml version="1.0" encoding="utf-8"?>
<!-- Generator: Adobe Illustrator 25.2.1, SVG Export Plug-In . SVG Version: 6.00 Build 0)  -->
<svg version="1.1" id="レイヤー_1" xmlns="http://www.w3.org/2000/svg" xmlns:xlink="http://www.w3.org/1999/xlink" x="0px"
	 y="0px" viewBox="0 0 1040 80" style="enable-background:new 0 0 1040 80;" xml:space="preserve">
<style type="text/css">
	.st0{fill:#1E1E28;}
</style>
<g>
	<g>
		<g>
			<path class="st0" d="M66.6396,48.8809c0,3.5205-1.7607,5.2803-5.2793,5.2803H54.46v9.7793c0,1-0.3604,1.8604-1.0801,2.5801
				c-0.7197,0.7207-1.5801,1.0801-2.5801,1.0801s-1.8594-0.3594-2.5801-1.0801c-0.7197-0.7197-1.0801-1.5801-1.0801-2.5801v-9.7793
				h-6.3594c-3.2012,0-4.9404-1.4795-5.2207-4.4404c-0.6807,1-1.6406,1.5-2.8799,1.5c-1.0801,0-1.9795-0.3799-2.6992-1.1396
				c-0.5205-0.5195-1.1406-1.2002-1.8604-2.04v16.1396c0,0.96-0.3506,1.8096-1.0498,2.5498
				c-0.7002,0.7402-1.5508,1.1104-2.5508,1.1104s-1.8506-0.3604-2.5498-1.0801c-0.7002-0.7197-1.0498-1.5596-1.0498-2.5195v-15.54
				c-0.6406,0.7598-1.6602,1.8799-3.0596,3.3594c-0.6807,0.6807-1.541,1.0205-2.5801,1.0205c-1.001,0-1.8604-0.3496-2.5801-1.0498
				s-1.0801-1.5703-1.0801-2.6104c0-0.999,0.3994-1.8799,1.2002-2.6396c6.1201-5.7998,10.6201-11.7197,13.5-17.7607
				c0.0391-0.1201,0-0.1797-0.1201-0.1797H16.0596c-0.96,0-1.7695-0.3301-2.4297-0.9902s-0.9902-1.4697-0.9902-2.4297
				s0.3301-1.7705,0.9902-2.4297c0.6602-0.6602,1.4697-0.9902,2.4297-0.9902h4.5v-5.46c0-1,0.3604-1.8691,1.0801-2.6104
				c0.7207-0.7393,1.5996-1.1104,2.6406-1.1104c0.999,0,1.8594,0.3711,2.5801,1.1104c0.7197,0.7412,1.0801,1.6104,1.0801,2.6104
				v5.46h1.8594c1.4795,0,2.6602,0.3506,3.54,1.0498c0.8799,0.7002,1.3203,1.6299,1.3203,2.79c0,0.7197-0.1797,1.5-0.54,2.3398
				c-1.4004,3.2803-3.2012,6.6602-5.4004,10.1396c1.7998,1.8008,4.0596,4.2002,6.7803,7.2002v-18.54
				c0-3.5195,1.7598-5.2793,5.2803-5.2793h6.3594v-5.2803c0-0.999,0.3604-1.8604,1.0801-2.5801
				c0.7207-0.7197,1.5801-1.0801,2.5801-1.0801s1.8604,0.3604,2.5801,1.0801s1.0801,1.5811,1.0801,2.5801v5.2803h6.9004
				c3.5186,0,5.2793,1.7598,5.2793,5.2793V48.8809z M47.2598,34.4209v-5.7598h-4.0801c-0.4795,0-0.7197,0.2393-0.7197,0.7197v5.04
				H47.2598z M47.2598,47.2012v-6.1807H42.46v5.46c0,0.4805,0.2402,0.7207,0.7197,0.7207H47.2598z M59.5,34.4209v-5.04
				c0-0.4805-0.2402-0.7197-0.7197-0.7197h-4.5v5.7598H59.5z M59.5,46.4805v-5.46h-5.2197v6.1807h4.5
				C59.2598,47.2012,59.5,46.9609,59.5,46.4805z"/>
			<path class="st0" d="M101.8604,34.2412c-0.6807,6-1.6807,11.4395-3,16.3193c-0.4805,1.7207-1.6201,2.5801-3.4199,2.5801
				c-1.001,0-1.8301-0.3389-2.4902-1.0195c-0.6602-0.6797-0.9902-1.5-0.9902-2.46c0-0.0801,0.3398-1.3799,1.0205-3.9004
				c-0.6406,1.1611-1.6006,1.7402-2.8809,1.7402c-1.1602,0-2.0605-0.5-2.6992-1.5l-0.0605-0.1201v18.1797
				c0,0.96-0.3301,1.7793-0.9902,2.46c-0.6592,0.6797-1.4697,1.0205-2.4297,1.0205s-1.7803-0.3408-2.46-1.0205
				c-0.6807-0.6807-1.0195-1.5-1.0195-2.46V47.501c-0.6406,1.2803-1.3115,2.4902-2.0107,3.6299
				c-0.7002,1.1396-1.6699,1.71-2.9102,1.71c-0.9199,0-1.71-0.3301-2.3691-0.9902c-0.6602-0.6602-0.9902-1.4492-0.9902-2.3701
				c0-0.6387,0.1992-1.2598,0.5996-1.8594c3.1201-4.5996,5.6406-9.1807,7.5605-13.7402H76c-0.96,0-1.7695-0.3301-2.4297-0.9902
				s-0.9902-1.4697-0.9902-2.4297s0.3301-1.7705,0.9902-2.4297C74.2305,27.3711,75.04,27.041,76,27.041h4.4404v-4.8604
				c-0.8008,0.1201-1.9805,0.2803-3.54,0.4805c-1.001,0.1201-1.8809-0.1504-2.6406-0.8105s-1.1396-1.4893-1.1396-2.4902
				c0-0.8398,0.29-1.5693,0.8701-2.1895c0.5791-0.6201,1.2695-0.9902,2.0693-1.1104c4.6396-0.6387,8.7607-1.5391,12.3604-2.7002
				c0.3193-0.1191,0.6602-0.1797,1.0205-0.1797c0.8789,0,1.6494,0.3301,2.3096,0.9902s0.9902,1.4697,0.9902,2.4297
				c0,1.6406-0.7412,2.7002-2.2207,3.1807c-0.5195,0.1602-1.5801,0.46-3.1797,0.8994v6.3604h4.0801
				c0.96,0,1.7705,0.3301,2.4297,0.9902c0.6602,0.6592,0.9902,1.4697,0.9902,2.4297s-0.3301,1.7695-0.9902,2.4297
				c-0.6592,0.6602-1.4697,0.9902-2.4297,0.9902h-4.0801v0.6602c1.4404,2.6006,3.2002,5.1807,5.2803,7.7402
				c0.4795,0.5996,0.7197,1.2598,0.7197,1.9795c0.7598-3.0801,1.3994-6.6797,1.9199-10.7998
				c0.1201-0.8398,0.4893-1.5391,1.1104-2.1006c0.6191-0.5596,1.3496-0.8398,2.1895-0.8398c1,0,1.8301,0.3701,2.4902,1.1104
				S101.9805,33.2412,101.8604,34.2412z M128.7998,46.001c0.1592,0.4004,0.2402,0.8008,0.2402,1.2002
				c0,0.96-0.3604,1.7998-1.0801,2.5195s-1.5811,1.0801-2.5801,1.0801c-1.6797,0-2.7998-0.7803-3.3604-2.3398
				c-1.1602-3.2793-2.3994-6.1797-3.7197-8.7002c-2.2402,5.0801-4.8594,9.5996-7.8594,13.5596v4.0801
				c0,0.8008,0.0898,1.3105,0.2695,1.5303c0.1797,0.2207,0.6904,0.3301,1.5303,0.3301h1.6201c1.3994,0,2.2588-0.2197,2.5801-0.6602
				c0.3193-0.4395,0.5186-1.8389,0.5996-4.2002c0.0391-0.96,0.4092-1.7998,1.1104-2.5195c0.6992-0.7197,1.5293-1.0801,2.4893-1.0801
				c1,0,1.8701,0.3604,2.6104,1.0801c0.7393,0.7197,1.0898,1.6006,1.0498,2.6396c-0.1602,5.04-0.8203,8.29-1.9795,9.75
				c-1.1611,1.46-3.5605,2.1904-7.2002,2.1904h-5.1006c-2.6396,0-4.4092-0.3506-5.3096-1.0498
				c-0.9004-0.7002-1.4102-2.0703-1.5303-4.1104c-1.4805,1.3203-3.1201,2.5996-4.9199,3.8398
				c-0.5996,0.3994-1.2998,0.6006-2.0996,0.6006c-1,0-1.8604-0.3604-2.5801-1.0801C92.8604,63.9404,92.5,63.0801,92.5,62.0811
				c0-1.3594,0.5596-2.4004,1.6797-3.1201c3.3994-2.1602,6.3799-4.6592,8.9404-7.5V29.4404c0-0.999,0.3604-1.8594,1.0801-2.5801
				c0.7197-0.7197,1.5791-1.0791,2.5801-1.0791c0.999,0,1.8594,0.3594,2.5801,1.0791c0.7197,0.7207,1.0801,1.5811,1.0801,2.5801
				v11.2207c2.9189-5.7998,5.1797-12.8408,6.7793-21.1201c0.3604-1.9199,1.5605-2.8799,3.6006-2.8799
				c0.999,0,1.8496,0.3594,2.5498,1.0801c0.6992,0.7197,1.0498,1.5801,1.0498,2.5791c0,0.2812-0.0205,0.54-0.0596,0.7803
				c-1.1211,5.001-2.4404,9.54-3.96,13.6201c0.3994-0.1201,0.7393-0.1797,1.0195-0.1797c1.4795,0,2.54,0.6396,3.1797,1.9199
				C126.2803,39.7812,127.6797,42.9609,128.7998,46.001z M114.8203,21.2207c0,1.041-0.3604,1.9307-1.0801,2.6699
				c-0.7207,0.7412-1.6006,1.1104-2.6406,1.1104c-0.6807,0-1.2998-0.1592-1.8594-0.4805c-2.3613-1.2793-4.8213-2.46-7.3799-3.54
				c-1.5205-0.6387-2.2803-1.7793-2.2803-3.4199c0-1.0391,0.3604-1.9199,1.0801-2.6396s1.5791-1.0801,2.5801-1.0801
				c0.4795,0,0.9395,0.1006,1.3799,0.2998c3.2793,1.3203,6.0391,2.5605,8.2803,3.7197
				C114.1797,18.541,114.8203,19.6611,114.8203,21.2207z"/>
			<path class="st0" d="M186.2197,39.4609c0,8.5605-0.2393,14.46-0.7197,17.7002c-0.5605,3.7998-1.7002,6.2998-3.4199,7.5
				c-1.5205,1.0801-4.2402,1.6201-8.1602,1.6201h-2.3398c-1,0-1.8506-0.3604-2.5498-1.0801
				c-0.7002-0.7207-1.0498-1.5605-1.0498-2.5205c0-0.999,0.3496-1.8604,1.0498-2.5801c0.6992-0.7197,1.5498-1.0801,2.5498-1.0801
				h1.7402c1.959,0,3.2188-0.2598,3.7793-0.7793c0.7998-0.7598,1.2998-2.54,1.5-5.3408c0.1602-2.1992,0.2402-6.9795,0.2402-14.3398
				v-8.04c0-0.8789-0.4404-1.3193-1.3203-1.3193h-10.6797c-1,2.2402-2.2002,4.5205-3.5996,6.8398
				c-0.7207,1.2002-1.7207,1.7998-3,1.7998c-0.6807,0-1.2812-0.1592-1.7998-0.4805v20.8203c0,3.5205-1.7607,5.2803-5.2803,5.2803
				h-13.3203c-3.5205,0-5.2803-1.7598-5.2803-5.2803V27.8203c0-3.5186,1.7598-5.2793,5.2803-5.2793h2.04
				c0.6797-1.96,1.3398-4.1602,1.9805-6.6006c0.4795-1.8789,1.6992-2.8193,3.6592-2.8193c1.04,0,1.9209,0.3701,2.6406,1.1094
				c0.7197,0.7412,1.0801,1.6113,1.0801,2.6104c0,0.3604-0.041,0.7002-0.1201,1.0195c-0.3604,1.2412-0.8604,2.8008-1.5,4.6807h3.54
				c3.5195,0,5.2803,1.7607,5.2803,5.2793v2.4609c2.4795-4.5996,4.3799-9.3398,5.6992-14.2207
				c0.4805-1.7998,1.6602-2.7002,3.54-2.7002c1.1201,0,1.9893,0.3711,2.6104,1.1104c0.6201,0.7402,0.9297,1.6309,0.9297,2.6699
				c0,0.3203-0.0205,0.6211-0.0596,0.9004c-0.3604,1.1201-0.8203,2.46-1.3799,4.0195h9.96c4.3193,0,6.4795,2.1602,6.4795,6.4805
				V39.4609z M151.1797,39.1611v-8.8799c0-0.4805-0.2393-0.7207-0.7197-0.7207h-7.7998c-0.4805,0-0.7197,0.2402-0.7197,0.7207
				v8.8799H151.1797z M151.1797,55.6006v-9.4795h-9.2393v9.4795c0,0.4805,0.2393,0.7197,0.7197,0.7197h7.7998
				C150.9404,56.3203,151.1797,56.0811,151.1797,55.6006z M174.04,44.3203c0.1992,0.4805,0.2998,0.9814,0.2998,1.5
				c0,0.9609-0.3203,1.791-0.96,2.4902c-0.6406,0.7002-1.4805,1.0498-2.5195,1.0498c-1.5205,0-2.6006-0.7197-3.2402-2.1592
				c-1.0801-2.4395-2.3398-4.8604-3.7803-7.2607c-0.2803-0.4795-0.4199-1.0586-0.4199-1.7393c0-0.96,0.3398-1.7793,1.0205-2.46
				c0.6797-0.6797,1.5-1.0205,2.46-1.0205c1.3193,0,2.3193,0.5605,3,1.6797C171.3789,38.8408,172.7598,41.4814,174.04,44.3203z"/>
			<path class="st0" d="M223.6602,25.4805c0,1.041-0.3604,1.9199-1.0801,2.6406c-0.7197,0.7197-1.6006,1.0801-2.6396,1.0801h-8.2207
				c-2.0801,8.1201-5.2793,17.6006-9.5996,28.4395c-0.6807,1.6797-1.9004,2.5205-3.6602,2.5205
				c-1.1201,0-2.0703-0.3906-2.8496-1.1699c-0.7803-0.7803-1.1699-1.71-1.1699-2.79c0-0.5195,0.1191-1.0596,0.3594-1.6201
				c3.5195-8,6.4199-16.46,8.7002-25.3799h-4.7402c-1.04,0-1.9102-0.3604-2.6094-1.0801c-0.7012-0.7207-1.0508-1.5996-1.0508-2.6406
				c0-0.999,0.3496-1.8594,1.0508-2.5801c0.6992-0.7197,1.5693-1.0801,2.6094-1.0801h6.4805
				c0.3193-1.4395,0.5996-2.8994,0.8398-4.3799c0.1592-0.96,0.6094-1.7695,1.3496-2.4297s1.6104-0.9902,2.6104-0.9902
				c1.1191,0,2.0791,0.4004,2.8799,1.2002c0.7998,0.8008,1.2002,1.7607,1.2002,2.8799c0,0.3213-0.2207,1.5605-0.6602,3.7197h6.4805
				c1.0391,0,1.9199,0.3604,2.6396,1.0801C223.2998,23.6211,223.6602,24.4814,223.6602,25.4805z M247.4805,53.9209
				c0,1.04-0.3711,1.9199-1.1104,2.6396c-0.7412,0.7207-1.6309,1.0801-2.6699,1.0801c-0.7607,0-1.5-0.2598-2.2197-0.7803
				c-1.1211-0.8398-2.3203-1.6592-3.6006-2.46c-0.3604,3.9209-1.9004,6.9004-4.6201,8.9404
				c-2.5605,1.8799-5.9805,2.8203-10.2598,2.8203c-4.6406,0-8.3398-1.0605-11.0996-3.1807
				c-2.7607-2.1191-4.1406-4.9795-4.1406-8.5801c0-3.5996,1.3799-6.5098,4.1406-8.7295c2.7598-2.2197,6.3389-3.3301,10.7393-3.3301
				c2.5596,0,5.0596,0.2803,7.5,0.8398V29.2012h-1.0801c-1.04,0-1.9102-0.3604-2.6094-1.0801
				c-0.7002-0.7207-1.0498-1.5996-1.0498-2.6406c0-0.999,0.3496-1.8594,1.0498-2.5801c0.6992-0.7197,1.5693-1.0801,2.6094-1.0801
				h13.2002c1.04,0,1.9199,0.3604,2.6406,1.0801c0.7197,0.7207,1.0801,1.5811,1.0801,2.5801c0,1.041-0.3604,1.9199-1.0801,2.6406
				c-0.7207,0.7197-1.6006,1.0801-2.6406,1.0801h-4.3193V46.001c2.5586,1.2803,5.2197,2.8799,7.9795,4.7998
				C246.96,51.5205,247.4805,52.5615,247.4805,53.9209z M230.1396,51.4004v-0.8398c-2.4805-0.8398-4.9199-1.2598-7.3193-1.2598
				c-5.1602,0-7.7402,1.6201-7.7402,4.8604c0,3.2803,2.5195,4.9199,7.5596,4.9199
				C227.6396,59.0811,230.1396,56.5215,230.1396,51.4004z"/>
			<path class="st0" d="M300.0996,58.4209c0.1602,0.4795,0.2402,0.9805,0.2402,1.5c0,1.1602-0.4199,2.1699-1.2598,3.0303
				c-0.8398,0.8594-1.8809,1.29-3.1201,1.29c-2.1201,0-3.501-0.96-4.1396-2.8809l-2.8799-8.3994h-18.1201l-2.7607,8.3398
				c-0.6396,1.959-2.0195,2.9404-4.1396,2.9404c-1.2002,0-2.2305-0.4307-3.0898-1.29c-0.8604-0.8604-1.29-1.8701-1.29-3.0303
				c0-0.4805,0.0801-0.9395,0.2402-1.3799l12.54-36.7207c0.6797-2.0391,1.7188-3.6191,3.1201-4.7393
				c1.2793-1.04,2.6787-1.5605,4.1992-1.5605c3.3994,0,5.8398,2.0605,7.3203,6.1807L300.0996,58.4209z M286.2402,45.1006
				l-6.6006-19.0801l-6.2393,19.0801H286.2402z"/>
			<path class="st0" d="M358.7197,29.9805c0,6.1602-2.7803,10.3008-8.3398,12.4199c1.6396,1.2002,2.96,3.0215,3.96,5.46
				l4.2598,10.2607c0.2402,0.5605,0.3604,1.1396,0.3604,1.7393c0,1.2002-0.4307,2.25-1.29,3.1504
				c-0.8604,0.9004-1.9307,1.3496-3.21,1.3496c-2.001,0-3.3809-0.9199-4.1396-2.7598l-4.9805-12.1201
				c-1.3604-3.3193-4-4.9795-7.9199-4.9795h-6.8398v15.4199c0,1.2002-0.4404,2.25-1.3203,3.1494
				c-0.8799,0.9004-1.9199,1.3506-3.1201,1.3506c-1.2402,0-2.2998-0.4502-3.1797-1.3506c-0.8799-0.8994-1.3203-1.9492-1.3203-3.1494
				V22.7207c0-4.3203,2.1602-6.4795,6.4805-6.4795h15.2998c4.3203,0,7.8398,1.04,10.5605,3.1191
				C357.1396,21.8008,358.7197,25.3408,358.7197,29.9805z M349.5996,30.3408c0-1.7998-0.6201-3.2705-1.8594-4.4102
				c-1.2402-1.1396-3.0605-1.71-5.46-1.71h-10.6807c-0.6807,0-1.0195,0.3408-1.0195,1.0205v11.5791h11.7598
				c2.3594,0,4.2002-0.6592,5.5205-1.9795C349.0195,33.6406,349.5996,32.1406,349.5996,30.3408z"/>
			<path class="st0" d="M387.8203,36.6406c0.1992,1.3604-0.1406,2.5205-1.0205,3.4805s-1.9404,1.4395-3.1797,1.4395
				c-1.041,0-1.9502-0.3389-2.7305-1.0195c-0.7793-0.6797-1.25-1.54-1.4092-2.5801c-0.7607-5.0791-1.8408-10.3799-3.2402-15.9004
				c-0.0811-0.3193-0.1201-0.6387-0.1201-0.96c0-1.1191,0.4199-2.1094,1.2598-2.9697c0.8398-0.8594,1.8398-1.29,3-1.29
				c0.96,0,1.8193,0.3105,2.5801,0.9297c0.7598,0.6211,1.2598,1.3906,1.5,2.3105C385.7803,25.5215,386.8994,31.041,387.8203,36.6406
				z M424.4805,21.1006c-0.5205,12.4404-3.5205,22.1104-9,29.0098c-5.4814,6.9004-13.8408,11.6709-25.0801,14.3105
				c-0.3213,0.0791-0.6211,0.1201-0.9004,0.1201c-1.1201,0-2.0801-0.4004-2.8799-1.2002c-0.8008-0.7998-1.2002-1.7598-1.2002-2.8799
				c0-0.9199,0.2998-1.75,0.9004-2.4902c0.5996-0.7393,1.3398-1.209,2.2197-1.4102c9.5596-2.3193,16.4404-6.4795,20.6396-12.4795
				c3.8398-5.4795,5.96-13.2607,6.3604-23.3398c0.0391-1.2002,0.4893-2.2207,1.3496-3.0605s1.8906-1.2598,3.0908-1.2598
				c1.2793,0,2.3594,0.46,3.2393,1.3799C424.0996,18.7217,424.5195,19.8213,424.4805,21.1006z M404.9805,36.041
				c0.1992,1.2402-0.1201,2.3604-0.9609,3.3594c-0.8398,1.001-1.8994,1.5-3.1797,1.5c-1.04,0-1.9502-0.3389-2.7295-1.0195
				c-0.7803-0.6797-1.251-1.5391-1.4102-2.5801c-0.6406-4.5996-1.7012-9.9004-3.1807-15.9004
				c-0.0801-0.3193-0.1191-0.6191-0.1191-0.8994c0-1.1191,0.4092-2.1094,1.2295-2.9697c0.8193-0.8604,1.8096-1.29,2.9697-1.29
				c0.96,0,1.8203,0.2998,2.5801,0.8994c0.7598,0.6006,1.2607,1.3604,1.5,2.2803C402.96,24.7812,404.0596,30.3213,404.9805,36.041z"
				/>
			<path class="st0" d="M483.8203,27.8203c-0.7607,2.8008-1.9609,5.4404-3.6006,7.9209c-4.2402,6.3994-11.0996,10.5-20.5801,12.2998
				c-2.8398,7.7607-8.2598,13.2002-16.2598,16.3193c-0.4795,0.2002-0.9805,0.3008-1.5,0.3008c-1.04,0-1.96-0.3809-2.7598-1.1406
				c-0.8008-0.7588-1.2002-1.6992-1.2002-2.8193c0-1.6807,0.7803-2.8594,2.3398-3.54c4.5996-2.0801,8-4.9199,10.2002-8.5205
				c2.3193-3.8789,3.4805-8.96,3.4805-15.2402v-0.7197c0-1.0801,0.3896-2.0195,1.1699-2.8203
				c0.7793-0.7988,1.7295-1.1992,2.8496-1.1992c1.0801,0,2.0098,0.4004,2.79,1.1992c0.7803,0.8008,1.1699,1.7402,1.1699,2.8203
				v1.1396c0,2.0811-0.1006,3.9814-0.2998,5.7002c7.0801-2.04,11.5596-6.459,13.4395-13.2598c0.04-0.1992,0.0605-0.3799,0.0605-0.54
				c0-0.7598-0.4805-1.1396-1.4404-1.1396h-33.6602c-1.0791,0-2-0.3799-2.7598-1.1406c-0.7598-0.7588-1.1396-1.6797-1.1396-2.7598
				s0.3799-2,1.1396-2.7598s1.6807-1.1396,2.7598-1.1396h36.9609c2.2793,0,4.1094,0.5693,5.4893,1.71
				c1.3799,1.1396,2.0703,2.7295,2.0703,4.7695C484.54,24.3809,484.2998,25.9004,483.8203,27.8203z"/>
			<path class="st0" d="M545.2002,37.4805c0,1.1211-0.4004,2.0703-1.2002,2.8506c-0.8008,0.7793-1.7402,1.1699-2.8203,1.1699
				h-42.3594c-1.0801,0-2.0107-0.3906-2.79-1.1699c-0.7803-0.7803-1.1699-1.7295-1.1699-2.8506c0-1.0801,0.3896-2.0098,1.1699-2.79
				c0.7793-0.7793,1.71-1.1699,2.79-1.1699h42.3594c1.0801,0,2.0195,0.3906,2.8203,1.1699
				C544.7998,35.4707,545.2002,36.4004,545.2002,37.4805z"/>
			<path class="st0" d="M605.0195,21.7012c0,1.04-0.3701,1.9492-1.1094,2.7295c-0.7412,0.7803-1.6504,1.1904-2.7305,1.2305
				l-3.7793,0.1201c-5.2412,0.1602-10.1309,2.0996-14.6699,5.8193c-4.541,3.7197-6.8105,7.7803-6.8105,12.1807
				c0,7.9199,6.6602,12.1797,19.9805,12.7793c1.1191,0.041,2.0693,0.4609,2.8496,1.2598c0.7803,0.8008,1.1699,1.7607,1.1699,2.8809
				c0,1.1602-0.4199,2.1494-1.2598,2.9697c-0.8398,0.8193-1.8408,1.209-3,1.1699c-8.9209-0.2402-15.8105-2.1396-20.6699-5.7002
				c-4.8604-3.5596-7.29-8.4395-7.29-14.6396c0-3.7197,1.0596-7.2803,3.1797-10.6807c1.8799-3.0391,4.4199-5.6992,7.6201-7.9795
				l-19.1396,0.5996c-1.0801,0.041-2.0205-0.3301-2.8203-1.1094c-0.8008-0.7803-1.2002-1.71-1.2002-2.79
				s0.3604-1.9893,1.0801-2.7305c0.7197-0.7393,1.6201-1.1299,2.7002-1.1699l41.8203-0.8994
				c1.0791-0.04,2.0293,0.3398,2.8496,1.1396C604.6094,19.6816,605.0195,20.6211,605.0195,21.7012z M599.2598,38.3203
				c0,0.8408-0.2998,1.5605-0.8994,2.1602c-0.6006,0.6006-1.3203,0.9004-2.1602,0.9004c-0.8809,0-1.6309-0.2998-2.25-0.9004
				c-0.6211-0.5996-0.9307-1.3193-0.9307-2.1602v-6.6592c0-0.8408,0.3096-1.5693,0.9307-2.1904
				c0.6191-0.6191,1.3691-0.9297,2.25-0.9297c0.8398,0,1.5596,0.3105,2.1602,0.9297c0.5996,0.6211,0.8994,1.3496,0.8994,2.1904
				V38.3203z M607.8398,38.3203c0,0.8408-0.2998,1.5605-0.8994,2.1602c-0.6006,0.6006-1.3203,0.9004-2.1602,0.9004
				s-1.5703-0.2998-2.1904-0.9004c-0.6201-0.5996-0.9297-1.3193-0.9297-2.1602v-6.7197c0-0.7998,0.3096-1.5088,0.9297-2.1299
				c0.6201-0.6191,1.3506-0.9297,2.1904-0.9297s1.5596,0.3105,2.1602,0.9297c0.5996,0.6211,0.8994,1.3301,0.8994,2.1299V38.3203z"/>
			<path class="st0" d="M658.2998,48.6406c0,5.2803-1.7402,9.2803-5.2197,12c-3.1602,2.4795-7.4404,3.7197-12.8398,3.7197
				c-6.6006,0-11.7002-1.7588-15.2998-5.2793c-0.8809-0.8398-1.3203-1.9199-1.3203-3.2402c0-1.2793,0.4395-2.3594,1.3203-3.2402
				c0.8789-0.8789,1.9395-1.3193,3.1797-1.3193c1.2793,0,2.3594,0.46,3.2402,1.3799c2.5996,2.6797,5.3994,4.0195,8.3994,4.0195
				c3.2402,0,5.7393-0.7998,7.5-2.3994c1.5195-1.4404,2.2803-3.3008,2.2803-5.5801c0-4.5996-2.7002-6.9004-8.0996-6.9004
				c-3.2803,0-6,0.8799-8.1602,2.6396c-0.5205,0.4414-1.3203,1.0205-2.4004,1.7402c-1.0801,0.5605-2.2402,0.7803-3.4795,0.6602
				c-1.3604-0.1201-2.3809-0.6494-3.0605-1.5898c-0.6807-0.9395-0.96-2.1094-0.8398-3.5098l1.6201-18.7803
				c0.3604-4.0801,2.6191-6.1201,6.7803-6.1201H652.96c1.0801,0,2.0195,0.3896,2.8203,1.1699c0.7998,0.7803,1.2002,1.71,1.2002,2.79
				c0,1.1201-0.4004,2.0703-1.2002,2.8496c-0.8008,0.7803-1.7402,1.1699-2.8203,1.1699H634.54c-0.6406,0-1,0.3408-1.0801,1.0205
				l-1.2002,11.0996c3.2002-1.8789,6.9004-2.8193,11.1006-2.8193c4.3193,0,7.8594,1.2803,10.6201,3.8398
				C656.8604,40.6406,658.2998,44.2012,658.2998,48.6406z"/>
			<path class="st0" d="M728.2002,42.1006c0,0.8398-0.3105,1.5703-0.9307,2.1904s-1.3496,0.9297-2.1895,0.9297h-39.4805v0.7803
				c0,0.4795,0.2402,0.7197,0.7207,0.7197h34.0195c3.5195,0,5.2803,1.7607,5.2803,5.2803v5.2197
				c0,4.2002-0.6709,6.9902-2.0098,8.3701c-1.3408,1.3799-3.9111,2.0703-7.71,2.0703H713.5c-0.96,0-1.7803-0.3301-2.46-0.9902
				c-0.6807-0.6602-1.0605-1.4502-1.1396-2.3701c-0.6807,0.2402-1.4404,0.3604-2.2803,0.3604h-27.6006
				c-3.5195,0-5.2793-1.7607-5.2793-5.2803V56.501c0-1.0801,0.3691-1.9893,1.1094-2.7305c0.7402-0.7393,1.6504-1.1094,2.7305-1.1094
				s1.9893,0.3701,2.7295,1.1094c0.7402,0.7412,1.1104,1.6504,1.1104,2.7305v0.7803c0,0.4795,0.2402,0.7197,0.7197,0.7197h6.7803
				v-5.2803h-6.8398c-3.5205,0-5.2803-1.7598-5.2803-5.2803V22.8408c0-3.5195,1.7598-5.2803,5.2803-5.2803h9.7803
				c0.2793-0.5996,0.6592-1.5596,1.1396-2.8799c0.5996-1.6797,1.8193-2.5195,3.6602-2.5195c1.0391,0,1.9395,0.4004,2.7002,1.1992
				c0.7588,0.8008,1.1396,1.7012,1.1396,2.7002c0,0.4805-0.1006,0.9404-0.2998,1.3799c0,0.041-0.0205,0.0811-0.0605,0.1201h14.2803
				c3.5195,0,5.2803,1.7607,5.2803,5.2803v9.4199c0,3.5205-1.7607,5.2803-5.2803,5.2803h-29.8203v1.4395h39.4805
				c0.8398,0,1.5693,0.3105,2.1895,0.9307S728.2002,41.2607,728.2002,42.1006z M712.96,25.2412v-1.0205
				c0-0.4795-0.2402-0.7197-0.7197-0.7197h-25.9199c-0.4805,0-0.7207,0.2402-0.7207,0.7197v1.0205H712.96z M712.96,31.541v-0.96
				h-27.3604v1.6797h26.6406C712.7197,32.2607,712.96,32.0205,712.96,31.541z M708.5801,52.7207h-10.7998v5.2803h7.0195
				c0.4805,0,0.7197-0.2402,0.7197-0.7197v-0.9004c0-0.8799,0.29-1.6699,0.8701-2.3701
				C706.9697,53.3115,707.6992,52.8809,708.5801,52.7207z M717.8799,56.8008v-3.3604c0-0.4795-0.2402-0.7197-0.7197-0.7197h-7.2598
				c0.8398,0.1602,1.5488,0.5908,2.1299,1.29c0.5791,0.7002,0.8701,1.4902,0.8701,2.3701v3c0,0.4404-0.0215,0.8008-0.0605,1.0801
				c0.2002-0.0391,0.4199-0.0605,0.6602-0.0605h1.5c1.3994,0,2.2295-0.1689,2.4902-0.5098
				C717.75,59.5518,717.8799,58.5215,717.8799,56.8008z"/>
			<path class="st0" d="M787.54,62.501c0,0.999-0.3604,1.8496-1.0801,2.5498c-0.7197,0.6992-1.5596,1.0498-2.5195,1.0498h-28.2607
				c-5.7598,0-9.8398-1.54-12.2393-4.6201c-1.3203,1.1211-2.6807,2.1992-4.0801,3.2402c-0.8408,0.5996-1.6611,0.9004-2.46,0.9004
				c-1.1211,0-2.0703-0.4004-2.8506-1.2002c-0.7803-0.8008-1.1699-1.7598-1.1699-2.8799c0-1.4404,0.6396-2.5801,1.9199-3.4199
				c2.04-1.3203,3.9795-2.7393,5.8203-4.2607V43.001c0-0.3994-0.2012-0.6006-0.6006-0.6006h-3.5996
				c-1.041,0-1.9307-0.3691-2.6699-1.1094c-0.7402-0.7402-1.1104-1.6299-1.1104-2.6699s0.3701-1.9297,1.1104-2.6699
				c0.7393-0.7402,1.6289-1.1104,2.6699-1.1104h6.4199c3.5195,0,5.2803,1.7607,5.2803,5.2803v14.2793
				c0.5596,1.6406,1.5,2.8008,2.8203,3.4805c1.3193,0.6807,3.2188,1.0195,5.6992,1.0195h27.3008c0.96,0,1.7998,0.3506,2.5195,1.0508
				S787.54,61.501,787.54,62.501z M747.6396,24.041c0,1.0801-0.3896,2.0098-1.1699,2.79c-0.7793,0.7793-1.71,1.1699-2.79,1.1699
				c-1.1602,0-2.1396-0.4395-2.9395-1.3203c-1.1611-1.2793-2.6201-2.7393-4.3799-4.3799c-0.8809-0.7998-1.3203-1.7598-1.3203-2.8799
				c0-1.0801,0.3799-2,1.1396-2.7598s1.6807-1.1406,2.7607-1.1406c0.999,0,1.8594,0.3213,2.5791,0.96
				c1.8799,1.6406,3.5605,3.2402,5.04,4.8008C747.2803,22.041,747.6396,22.9609,747.6396,24.041z M762.8203,19.3604
				c-1.7607,4.7607-3.8008,9.3008-6.1201,13.6201c-0.5205,1.001-0.5801,1.9609-0.1807,2.8799
				c2.3203,5.2803,4.3594,10.5811,6.1201,15.9004c0.1201,0.3604,0.1807,0.7402,0.1807,1.1396c0,1.0801-0.3906,2.0205-1.1699,2.8203
				c-0.7803,0.8008-1.71,1.2002-2.79,1.2002c-1.9199,0-3.1611-0.9199-3.7207-2.7598c-1.96-6.3203-3.9199-11.7803-5.8799-16.3799
				c-0.5205-1.2002-0.7793-2.2998-0.7793-3.3008c0-1.1592,0.3389-2.3789,1.0195-3.6602c2.4004-4.5596,4.4404-9.2393,6.1201-14.0391
				c0.5996-1.6807,1.7998-2.5205,3.5996-2.5205c1.0801,0,1.9893,0.3809,2.7305,1.1396c0.7393,0.7607,1.1094,1.6611,1.1094,2.7002
				C763.0596,18.541,762.9795,18.9609,762.8203,19.3604z M773.9199,19.7812c-1.6797,4.2402-3.7402,8.54-6.1797,12.8994
				c-0.5205,0.96-0.6006,1.8203-0.2402,2.5801c2.5195,5.2402,4.6396,10.3604,6.3604,15.3604
				c0.1592,0.4404,0.2393,0.8799,0.2393,1.3193c0,1.041-0.3701,1.9414-1.1094,2.7002c-0.7412,0.7607-1.6709,1.1406-2.79,1.1406
				c-1.8408,0-3.0605-0.8799-3.6602-2.6406c-2.04-6.1992-4.0205-11.3994-5.9404-15.5996c-0.5605-1.2002-0.8398-2.3193-0.8398-3.3604
				c0-1.1592,0.3604-2.3789,1.0801-3.6602c2.2803-4.0801,4.3799-8.5596,6.2998-13.4395c0.6006-1.5605,1.7402-2.3398,3.4199-2.3398
				c1.04,0,1.8994,0.3594,2.5801,1.0791c0.6797,0.7207,1.0205,1.5811,1.0205,2.5801
				C774.1602,18.8809,774.0791,19.3408,773.9199,19.7812z M786.6396,50.8008c0.2002,0.4805,0.3008,0.9805,0.3008,1.5
				c0,1.0801-0.3809,2.0205-1.1406,2.8203c-0.7598,0.8008-1.7002,1.1992-2.8193,1.1992c-1.8008,0-3.041-0.8398-3.7207-2.5195
				c-2.3203-5.8799-4.7002-11.1992-7.1396-15.96c-0.6006-1.2002-0.9004-2.3398-0.9004-3.4199c0-1.1602,0.3604-2.3799,1.0801-3.6602
				c2.5996-4.5996,4.8604-9.1797,6.7803-13.7402c0.6797-1.5986,1.8604-2.3994,3.54-2.3994c1.1191,0,2.0488,0.3896,2.79,1.1699
				c0.7393,0.7793,1.1094,1.6904,1.1094,2.7295c0,0.5205-0.1191,1.041-0.3594,1.5605c-1.9199,4.3193-4.1201,8.5801-6.6006,12.7793
				c-0.5605,0.9209-0.6396,1.7402-0.2393,2.46C782.0801,40.6406,784.5195,45.8008,786.6396,50.8008z"/>
			<path class="st0" d="M841.96,37.4209c0,8.7998-2.3799,15.4795-7.1396,20.04c-4.8809,4.7197-12.4609,7.3398-22.7402,7.8594
				C810.96,65.3604,810,65,809.2002,64.2412C808.3994,63.4805,808,62.541,808,61.4209c0-0.999,0.3496-1.8691,1.0498-2.6104
				c0.6992-0.7393,1.5498-1.1494,2.5498-1.2295c7.4404-0.6006,12.8604-2.3398,16.2607-5.2207
				c3.6797-3.1592,5.5195-8.0791,5.5195-14.7598c0-3.8398-0.6807-7.0391-2.04-9.5996c-1.6797-3.1592-4.1797-4.7402-7.5-4.7402
				c-3.6406,0-6.9209,2.2607-9.8398,6.7803c-2.7207,4.2402-4.7002,9.7598-5.9404,16.5596c-0.1602,0.96-0.6104,1.751-1.3496,2.3701
				c-0.7402,0.6211-1.6104,0.9297-2.6104,0.9297c-1.1201,0-2.0801-0.3994-2.8799-1.1992c-0.8008-0.7998-1.1797-1.7402-1.1396-2.8203
				c0.1201-5.5996,0.3389-14.2998,0.6602-26.0996c0.0391-1.0801,0.4395-1.9902,1.2002-2.7305
				c0.7588-0.7393,1.6797-1.1104,2.7598-1.1104c1.1191,0,2.0596,0.4199,2.8193,1.2607c0.7598,0.8398,1.1201,1.8203,1.0801,2.9395
				l-0.2998,6.1201c1.4795-2.7197,3.3203-4.959,5.5205-6.7197c3.1992-2.5596,6.7998-3.8398,10.7998-3.8398
				c5.5596,0,9.8994,2.2002,13.0195,6.5996C840.5195,26.3008,841.96,31.3408,841.96,37.4209z"/>
			<path class="st0" d="M904.96,36.8203c0,0.9609-0.3301,1.8008-0.9902,2.5205s-1.4697,1.1396-2.4297,1.2598
				c-3.3604,0.4004-6.6211,0.9805-9.7803,1.7402c0.3604,2.4404,0.5801,5.5,0.6602,9.1797c0.0391,1.0801-0.3105,2.001-1.0498,2.7607
				c-0.7412,0.7598-1.6504,1.1396-2.7305,1.1396c-1.9199,0-3.1602-1.1602-3.7197-3.4805c-0.2002-0.8398-0.4004-3.2793-0.5996-7.3193
				c-6.4805,2.5596-9.7207,5.3203-9.7207,8.2793c0,3.4805,4.3594,5.2207,13.0801,5.2207c3.0801,0,6.7402-0.2598,10.9805-0.7803
				c1.1191-0.1201,2.1191,0.2002,3,0.96c0.8789,0.7607,1.3203,1.7002,1.3203,2.8203c0,1-0.3301,1.8691-0.9902,2.6094
				s-1.4707,1.1494-2.4307,1.2305c-3.8799,0.3994-7.8203,0.5996-11.8193,0.5996c-6.6006,0-11.6006-0.8008-15-2.3994
				c-4.2402-1.96-6.3604-5.2803-6.3604-9.96c0-6.04,5.2598-11.2002,15.7803-15.4805c-0.5605-0.3994-1.2598-0.5996-2.1006-0.5996
				c-4.5205,0-9.2598,2.2793-14.2197,6.8398c-0.8799,0.8799-2.4404,2.3398-4.6797,4.3799c-0.7197,0.6406-1.54,0.96-2.46,0.96
				c-1.041,0-1.9307-0.3604-2.6699-1.0801c-0.7412-0.7197-1.1104-1.5996-1.1104-2.6396c0-1.1201,0.4395-2.0596,1.3203-2.8203
				c5.2393-4.5996,9.5996-9.6797,13.0801-15.2402h-9.1807c-1,0-1.8506-0.3496-2.5498-1.0498
				c-0.7002-0.6992-1.0498-1.5498-1.0498-2.5498c0-0.999,0.3496-1.8496,1.0498-2.5498c0.6992-0.6992,1.5498-1.0508,2.5498-1.0508
				h13.0801c0.5195-1.1592,1.04-2.3994,1.5605-3.7197c0.6387-1.6797,1.8389-2.5195,3.5996-2.5195
				c1.1191,0,2.04,0.4004,2.7598,1.2002c0.7207,0.7998,1.0801,1.7393,1.0801,2.8193c0,0.4805-0.0801,0.96-0.2393,1.4404
				l-0.3008,0.7793h17.9404c0.96,0,1.7998,0.3516,2.5195,1.0508c0.7207,0.7002,1.0801,1.5508,1.0801,2.5498
				c0,1-0.3594,1.8506-1.0801,2.5498c-0.7197,0.7002-1.5596,1.0498-2.5195,1.0498h-21.6006
				c-0.8799,1.5605-1.7598,2.9609-2.6396,4.2002c2.0791-0.7998,3.96-1.2002,5.6396-1.2002c4.04,0,6.9199,1.5605,8.6406,4.6807
				c3.7197-1.04,7.3799-1.7793,10.9795-2.2207c1.1201-0.1592,2.1201,0.1504,3,0.9307
				C904.5195,34.6904,904.96,35.6611,904.96,36.8203z"/>
			<path class="st0" d="M928.8398,17.3203c-0.6406,2.6016-1.4805,5.2607-2.5195,7.9805v38.46c0,1.0801-0.3711,1.9893-1.1104,2.7305
				c-0.7402,0.7393-1.6504,1.1094-2.7295,1.1094c-1.0801,0-1.9912-0.3701-2.7305-1.1094c-0.7402-0.7412-1.1104-1.6504-1.1104-2.7305
				V41.0205c-0.2803,0.4004-0.7002,1.0205-1.2598,1.8604c-0.7197,1.0801-1.7607,1.6201-3.1201,1.6201
				c-1.04,0-1.9297-0.3691-2.6699-1.1104c-0.7402-0.7393-1.1094-1.6289-1.1094-2.6699c0-0.8398,0.2188-1.5801,0.6592-2.2197
				c4.6396-6.5596,8.1396-14.2598,10.5-23.1006c0.4805-1.8389,1.6807-2.7598,3.6006-2.7598c1.0801,0,1.9697,0.3701,2.6699,1.1104
				c0.6992,0.7402,1.0498,1.6104,1.0498,2.6094C928.96,16.6816,928.9199,17.001,928.8398,17.3203z M967.6602,53.0811
				c0,1.04-0.3604,1.9199-1.0801,2.6396S964.999,56.8008,964,56.8008c-1.2002,0-2.1807-0.4805-2.9404-1.4404
				c-4.04-5.1992-7.46-10.3799-10.2598-15.54v10.9209h4.2598c0.96,0,1.7803,0.3291,2.46,0.9893s1.0205,1.4707,1.0205,2.4307
				s-0.3408,1.7803-1.0205,2.46c-0.6797,0.6807-1.5,1.0195-2.46,1.0195h-4.2598v5.8203c0,0.999-0.3594,1.8594-1.0801,2.5801
				c-0.7197,0.7197-1.5596,1.0801-2.5195,1.0801c-1.001,0-1.8604-0.3604-2.5801-1.0801c-0.7197-0.7207-1.0801-1.5811-1.0801-2.5801
				v-5.8203h-4.2598c-0.96,0-1.7705-0.3389-2.4307-1.0195c-0.6592-0.6797-0.9893-1.5-0.9893-2.46s0.3301-1.7705,0.9893-2.4307
				c0.6602-0.6602,1.4707-0.9893,2.4307-0.9893h4.2598V39.5205c-2.8799,5.6406-6.3408,11.0205-10.3799,16.1406
				c-0.7197,0.9199-1.6797,1.3799-2.8799,1.3799c-1.001,0-1.8604-0.3604-2.5801-1.0801s-1.0801-1.5801-1.0801-2.5801
				c0-0.8799,0.3193-1.6797,0.96-2.4004c5.1992-5.9189,9.6191-13.0195,13.2598-21.2998h-9.54c-1,0-1.8594-0.3604-2.5801-1.0801
				c-0.7197-0.7197-1.0801-1.5996-1.0801-2.6396c0-1,0.3604-1.8604,1.0801-2.5801c0.7207-0.7197,1.5801-1.0801,2.5801-1.0801
				h12.1201v-5.7002c0-1.0391,0.3691-1.9287,1.1104-2.6699c0.7393-0.7393,1.6289-1.1104,2.6699-1.1104
				c1.0391,0,1.9199,0.3711,2.6396,1.1104c0.7197,0.7412,1.0801,1.6309,1.0801,2.6699v5.7002h12.54
				c0.999,0,1.8691,0.3604,2.6104,1.0801c0.7393,0.7197,1.1094,1.5801,1.1094,2.5801c0,1.04-0.3701,1.9199-1.1094,2.6396
				c-0.7412,0.7197-1.6113,1.0801-2.6104,1.0801h-10.2598c3.4395,7.4404,7.959,14.4404,13.5596,21
				C967.3604,51.4004,967.6602,52.2012,967.6602,53.0811z"/>
			<path class="st0" d="M978.4004,50.3809c-0.6006,4.5205-1.2402,8.2803-1.9199,11.2803c-0.2812,1.1992-1.0205,1.7998-2.2207,1.7998
				c-0.6396,0-1.1797-0.2305-1.6201-0.6904c-0.4404-0.459-0.6592-0.9893-0.6592-1.5898c0-0.1992,0.0195-0.3994,0.0596-0.5996
				c0.7998-2.96,1.5391-6.5596,2.2197-10.7998c0.2002-1.2002,0.9004-1.8008,2.1006-1.8008c0.5996,0,1.1094,0.2402,1.5293,0.7207
				C978.3096,49.1807,978.4795,49.7412,978.4004,50.3809z M992.7402,66.9404h-2.8203c-0.96,0-1.7803-0.3398-2.46-1.0195
				c-0.6807-0.6807-1.0195-1.5-1.0195-2.46c0-0.9199,0.3496-1.7197,1.0498-2.4004c0.6992-0.6797,1.5088-1.0195,2.4297-1.0195h0.6602
				c0.8398,0,1.3398-0.2197,1.5-0.6602c0.1592-0.4395,0.2402-1.7793,0.2402-4.0205v-7.5596c0-0.6396-0.3213-0.96-0.96-0.96h-11.1006
				c-3.3594,0-5.04-1.6797-5.04-5.04V19.6006c0-3.3594,1.6807-5.04,5.04-5.04h16.0801c0.8398,0,1.5801,0.3105,2.2197,0.9307
				s0.96,1.3496,0.96,2.1895c0,0.8809-0.3203,1.6309-0.96,2.25c-0.6396,0.6211-1.3799,0.9297-2.2197,0.9297h-4.5596v3.0605h3.3594
				c0.7598,0,1.4199,0.2695,1.9805,0.8096c0.5596,0.54,0.8398,1.1914,0.8398,1.9502c3.4805-3.1201,6.2793-6.3389,8.4004-9.6602
				c1.4795-2.3193,3.459-3.4795,5.9395-3.4795c2.3193,0,4.1797,1.0195,5.5801,3.0596c2.1201,3.0811,5.3193,6.4199,9.6006,10.0205
				c0.7988,0.6807,1.1992,1.54,1.1992,2.5801c0,0.9199-0.3301,1.7002-0.9893,2.3398c-0.6602,0.6396-1.4512,0.96-2.3701,0.96
				c-0.96,0-1.7402-0.2793-2.3398-0.8398c-1.2812-1.2393-2.2607-2.2002-2.9404-2.8799c-0.4004,1.3594-1.3008,2.0391-2.7002,2.0391
				h-1.6201v2.7002h4.7402c3.3604,0,5.04,1.6807,5.04,5.04v5.9404c0,3.3594-1.6797,5.04-5.04,5.04h-3.7803
				c2.1201,4.2402,5.2598,7.8203,9.4199,10.7402c1,0.6797,1.5,1.5996,1.5,2.7598c0,0.96-0.3398,1.7695-1.0195,2.4297
				c-0.6807,0.6602-1.5,0.9902-2.46,0.9902c-0.7197,0-1.3604-0.2012-1.9199-0.6006c-4.041-2.8799-7.2402-6.2793-9.6006-10.1992
				c-2.2402,3.7998-5.4395,7.2393-9.5996,10.3193c-0.5996,0.4404-1.2402,0.6602-1.9199,0.6602c-0.9209,0-1.71-0.3203-2.3701-0.96
				c-0.6602-0.6406-0.9902-1.4199-0.9902-2.3398c-0.4004,1.8799-1.2998,3-2.7002,3.3604
				C994.459,66.8604,993.7002,66.9404,992.7402,66.9404z M983.0801,60.7607c0.0391,0.5605-0.1309,1.0303-0.5098,1.4102
				c-0.3809,0.3809-0.8506,0.5703-1.4102,0.5703c-1.1611,0-1.7803-0.6201-1.8604-1.8604c-0.1201-2.4004-0.2998-5.8799-0.54-10.4404
				c-0.04-0.5186,0.1201-0.9795,0.4805-1.3799c0.3594-0.3994,0.7998-0.5996,1.3193-0.5996c1.1602,0,1.7803,0.5801,1.8604,1.7402
				C982.6992,53.8818,982.9199,57.4004,983.0801,60.7607z M985.54,23.9805v-3.1201h-2.7598c-0.6406,0-0.96,0.3213-0.96,0.96v2.1602
				H985.54z M985.54,32.1406v-2.5801h-3.7197v2.5801H985.54z M985.54,40.8408v-3.1797h-3.7197v2.2197
				c0,0.6406,0.3193,0.96,0.96,0.96H985.54z M987.8799,59.0811c0.0391,0.5205-0.1201,0.9697-0.4795,1.3496
				c-0.3604,0.3809-0.8203,0.5703-1.3809,0.5703c-1.1201,0-1.7197-0.5596-1.7998-1.6807c-0.2002-3.0791-0.4795-6.2393-0.8398-9.4795
				c-0.04-0.5195,0.1094-0.9697,0.4502-1.3496c0.3389-0.3799,0.7695-0.5703,1.29-0.5703c1.0801,0,1.6797,0.54,1.7998,1.6201
				C987.1992,51.9014,987.5195,55.0811,987.8799,59.0811z M991.9004,56.8604c0.0391,0.4414-0.1006,0.8311-0.4199,1.1709
				c-0.3213,0.3398-0.7012,0.5098-1.1406,0.5098c-0.96,0-1.4805-0.46-1.5596-1.3799c-0.2803-3.3604-0.5605-6-0.8398-7.9199
				c-0.0811-0.4404,0.0293-0.8408,0.3291-1.2002c0.3008-0.3604,0.6904-0.54,1.1709-0.54c0.8789,0,1.3799,0.4404,1.5,1.3193
				C991.2598,51.1406,991.5791,53.8213,991.9004,56.8604z M1009.2998,33.5205v-2.7002h-1.5596
				c-1.5205,0-2.4404-0.7393-2.7598-2.2197c-1.1211,1.2402-2.1602,2.3398-3.1201,3.2998c-0.6406,0.6406-1.4014,0.96-2.2803,0.96
				c-0.9209,0-1.6904-0.3193-2.3105-0.96c-0.6201-0.6387-0.9297-1.3994-0.9297-2.2793v-0.4199
				c-0.4004,0.2002-0.8008,0.2998-1.2002,0.2998h-3.3594v2.7002h3.4199c0.7588,0,1.4102,0.2695,1.9502,0.8096
				s0.8096,1.1904,0.8096,1.9502s-0.2695,1.4102-0.8096,1.9502s-1.1914,0.8096-1.9502,0.8096h-3.4199v3.1201h1.3799
				c3.3594,0,5.04,1.6797,5.04,5.04V56.501c0,2.3203-0.1006,4.2207-0.2998,5.7002c0.2393-0.6006,0.6592-1.1201,1.2598-1.5605
				c4.5996-3.1992,7.6797-6.8994,9.2402-11.0996h-3.7803c-3.3604,0-5.04-1.6807-5.04-5.04v-5.9404c0-3.3594,1.6797-5.04,5.04-5.04
				H1009.2998z M1009.2998,43.9609v-4.8604h-2.7598c-0.6406,0-0.96,0.3213-0.96,0.96v2.9404c0,0.6396,0.3193,0.96,0.96,0.96
				H1009.2998z M1016.7998,25.1807c-1.4395-1.6797-2.7598-3.3799-3.96-5.0996c-0.4404-0.6396-0.8604-0.6396-1.2598,0
				c-1.041,1.5596-2.2803,3.2607-3.7197,5.0996H1016.7998z M1019.5596,43.001v-2.9404c0-0.6387-0.3203-0.96-0.96-0.96h-2.8799
				v4.8604h2.8799C1019.2393,43.9609,1019.5596,43.6406,1019.5596,43.001z"/>
		</g>
	</g>
</g>
</svg>
