<?xml version="1.0" encoding="utf-8"?>
<!-- Generator: Adobe Illustrator 25.2.1, SVG Export Plug-In . SVG Version: 6.00 Build 0)  -->
<svg version="1.1" id="レイヤー_1" xmlns="http://www.w3.org/2000/svg" xmlns:xlink="http://www.w3.org/1999/xlink" x="0px"
	 y="0px" viewBox="0 0 1040 80" style="enable-background:new 0 0 1040 80;" xml:space="preserve">
<style type="text/css">
	.st0{fill:#1E1E28;}
</style>
<g>
	<g>
		<g>
			<path class="st0" d="M61.7197,45.6406c0,5.6406-2.1396,10.2598-6.4199,13.8604c-4.04,3.3994-8.9199,5.0996-14.6396,5.0996
				c-5.6406,0-10.0605-1.1396-13.2598-3.4199c-3.7207-2.6396-5.5801-6.6602-5.5801-12.0596V15.6406H27.46v33.4805
				c0,9.04,4.46,13.5596,13.3799,13.5596c5.2402,0,9.6797-1.5195,13.3203-4.5596c3.8398-3.2402,5.7598-7.4404,5.7598-12.6006
				c0-2.3594-0.4795-4.5596-1.4395-6.5996c-1.0801-2.3594-2.6016-3.9795-4.5605-4.8604C54,34.3008,54.04,34.5615,54.04,34.8408
				c0,0.9209-0.3203,1.7002-0.96,2.3398c-0.6406,0.6406-1.4199,0.96-2.3398,0.96c-0.8809,0-1.6602-0.3389-2.3398-1.0195
				c-0.6807-0.6797-1.0205-1.46-1.0205-2.3398c0-0.9609,0.3398-1.7402,1.0205-2.3408c0.6797-0.5996,1.5195-0.8994,2.5195-0.8994
				c3.3604,0,6.0605,1.5596,8.0996,4.6797C60.8203,38.9414,61.7197,42.0811,61.7197,45.6406z"/>
			<path class="st0" d="M125.5,49.6611c0,4.1992-1.4502,7.7002-4.3496,10.5c-2.9014,2.7988-6.4502,4.1992-10.6504,4.1992
				c-7.3604,0-11.04-3.2588-11.04-9.7793V38.3203c0-2.3594-0.9404-3.5391-2.8203-3.5391c-1.6406,0-3.3594,0.7998-5.1592,2.3994
				c-1.8008,1.6006-2.9404,3.2207-3.4209,4.8604l-6.2393,22.0195l-5.5205-0.8398l13.5605-48.1201L95.5,15.9404l-6.1201,21.3604
				c2.3193-3,5.2598-4.5,8.8203-4.5c4.5195,0,6.7803,2.2197,6.7803,6.6602v14.7002c0,2.6006,0.3389,4.54,1.0195,5.8193
				c0.96,1.6807,2.5996,2.5205,4.9199,2.5205c3.5996,0,6.6396-1.2305,9.1201-3.6904c2.4795-2.46,3.7197-5.5098,3.7197-9.1494
				c0-1.9199-0.46-3.6797-1.3799-5.2803c-1.04-1.7598-2.4209-2.8594-4.1396-3.2998c0.0391,0.2393,0.0596,0.4795,0.0596,0.7197
				c0,0.8799-0.3398,1.6602-1.0195,2.3398c-0.6807,0.6807-1.4805,1.0205-2.4004,1.0205c-0.9209,0-1.7002-0.3203-2.3398-0.96
				c-0.6406-0.6396-0.96-1.4199-0.96-2.3408c0-0.8789,0.3193-1.6494,0.96-2.3096c0.6396-0.6602,1.4189-0.9902,2.3398-0.9902
				c3.0801,0,5.6191,1.0713,7.6201,3.21C124.5,43.9111,125.5,46.541,125.5,49.6611z"/>
			<path class="st0" d="M185.7402,27.041c-0.0811,2.2402-1.1201,3.9805-3.1201,5.2197c-1.3203,0.8398-2.7803,1.2598-4.3799,1.2598
				c-0.7607,0-1.5605-0.0986-2.4004-0.2998c2.2402,4.7607,3.3604,9.3408,3.3604,13.7402c0,5.5195-1.8301,9.9102-5.4902,13.1699
				s-8.2705,4.8896-13.8301,4.8896c-6.1602,0-11.0801-1.6602-14.7598-4.9795c-3.8398-3.4805-5.7598-8.2598-5.7598-14.3398
				c0-5.3604,1.5-10.46,4.5-15.3008c2.4795-3.96,5.5586-7.5791,9.2393-10.8594h-15v-1.6807h22.5605v1.3809
				c-4.9199,4.5205-8.541,8.6201-10.8604,12.2998c-3.1201,4.9199-4.6797,10.0605-4.6797,15.4199
				c0,4.7998,1.3896,8.7002,4.1699,11.7002c2.7793,3,6.5498,4.5,11.3096,4.5c4.8008,0,8.8203-1.5098,12.0605-4.5303
				c3.2402-3.0195,4.8389-6.9092,4.7998-11.6699c-0.0811-6-2.04-11.7197-5.8799-17.1602l1.5596-0.8398
				c0.3203,0.4795,0.7998,1.2402,1.4404,2.2803c1.04,0.4404,2.1191,0.6592,3.2402,0.6592c2.1992,0,3.8193-0.6387,4.8594-1.9199
				c-0.8799,0.1201-1.6494-0.1201-2.3096-0.7197s-0.9902-1.3594-0.9902-2.2803c0-0.8398,0.3096-1.5498,0.9297-2.1299
				c0.6201-0.5791,1.3506-0.8701,2.1904-0.8701c0.8789,0,1.6396,0.3008,2.2803,0.9004
				C185.4189,25.4805,185.7402,26.2012,185.7402,27.041z M184.4199,18.041c0,1.4395-0.5303,2.6797-1.5898,3.7197
				c-1.0605,1.041-2.3311,1.5596-3.8105,1.5596c-1.5205,0-2.8193-0.499-3.8994-1.5c-1.0801-0.999-1.6201-2.2588-1.6201-3.7793
				c0-1.5195,0.54-2.8301,1.6201-3.9307c1.0801-1.0996,2.3789-1.6494,3.8994-1.6494s2.7998,0.5498,3.8408,1.6494
				C183.8994,15.2109,184.4199,16.5215,184.4199,18.041z M182.9199,18.041c0-1.1191-0.3701-2.0801-1.1104-2.8799
				s-1.6699-1.2002-2.79-1.2002c-1.1992,0-2.1699,0.3809-2.9092,1.1396C175.3691,15.8613,175,16.8408,175,18.041
				c0,1.1201,0.3896,2.0303,1.1699,2.7295c0.7803,0.7002,1.7295,1.0498,2.8496,1.0498c1.04,0,1.9502-0.3691,2.7305-1.1094
				S182.9199,19.0811,182.9199,18.041z"/>
			<path class="st0" d="M242.3203,20.2607c-8.2803,0-15.4805,2.2197-21.6006,6.6602c-6.8008,4.96-10.2002,11.4404-10.2002,19.4395
				c0,4.5215,1.2998,8.3008,3.9004,11.3408c2.7197,3.2002,6.2998,4.7998,10.7402,4.7998c3.5195,0,6.5596-0.9199,9.1201-2.7598
				c2.8398-2.04,4.2793-4.7598,4.3193-8.1602c0-2.96-1.1396-5.0195-3.4199-6.1807c0.1602,0.96-0.0996,1.8213-0.7793,2.5801
				c-0.6807,0.7607-1.5215,1.1406-2.5205,1.1406c-0.9209,0-1.6904-0.3008-2.3096-0.9004c-0.6211-0.5996-0.9307-1.3594-0.9307-2.2803
				c0-0.999,0.3203-1.8193,0.96-2.46c0.6396-0.6387,1.46-0.96,2.46-0.96c2.4395,0,4.4199,0.9004,5.9404,2.7002
				c1.5195,1.7998,2.2803,3.9209,2.2803,6.3604c0,4.0801-1.6406,7.2998-4.9199,9.6602c-2.9209,2.1191-6.4805,3.1797-10.6807,3.1797
				c-5.8398,0-10.6201-1.5605-14.3398-4.6797c-3.9209-3.3203-5.8799-7.8398-5.8799-13.5605c0-6.4395,2.8203-12.0996,8.46-16.9795
				c4.6396-4.04,10.46-7.04,17.46-9h-33.54v-1.8008h45.4805V20.2607z"/>
			<path class="st0" d="M305.0195,34.0605h-10.7998l1.5,12.4199h-5.3398c-4.4805-3.2793-9.3398-4.9199-14.5801-4.9199
				c-3.4404,0-6.3203,0.8398-8.6396,2.5205c-2.6006,1.9199-3.9004,4.5205-3.9004,7.7998c0,4.1602,1.7197,7.1807,5.1602,9.0596
				c2.7197,1.5205,6.3398,2.2803,10.8604,2.2803c2.7988,0,5.6191-0.4395,8.46-1.3203c3.4395-1.0801,5.7988-2.5586,7.0801-4.4395
				c-0.96,0.2002-1.3799,0.2998-1.2607,0.2998c-0.9199,0-1.6797-0.2695-2.2793-0.8096c-0.6006-0.54-0.9004-1.2695-0.9004-2.1904
				c0-0.999,0.3398-1.8193,1.0205-2.46c0.6797-0.6396,1.5195-0.96,2.5195-0.96c1.0801,0,1.959,0.3506,2.6396,1.0498
				c0.6797,0.7002,1.0205,1.5703,1.0205,2.6104c0,3.4404-2.5801,6.0801-7.7402,7.9199c-3.8008,1.3994-7.7607,2.0996-11.8799,2.0996
				c-5.4805,0-9.96-0.8398-13.4404-2.5195c-4.6797-2.2402-7.0195-5.7998-7.0195-10.6807c0-4.1592,1.9395-7.3389,5.8203-9.5391
				c3.1592-1.8008,6.9795-2.7002,11.46-2.7002c5.3594,0,10.3594,1.3604,15,4.0801l-1.2607-9.6006h-31.1396v-1.7402h30.96
				l-1.0195-7.6797h-29.9404v-1.6797h29.7598l-1.0195-7.8604h5.7598l0.9004,7.8604h12.2393v1.6797h-11.8799l0.8408,7.6797h11.0391
				V34.0605z"/>
			<path class="st0" d="M344.6797,25.3604h-13.4395l-10.9805,34.9209l-5.3398-1.2002l10.7402-33.7207h-9.3604v-1.6797h9.96l2.7598-9
				l5.3408,0.96l-2.4004,8.04h12.7197V25.3604z M366.8203,51.9404l-1.2002,1.3799c-3.8809-3.1191-7.54-5.4385-10.9805-6.96v6.8408
				c0,7.8799-4.2998,11.8193-12.8994,11.8193c-3.5605,0-6.501-0.8799-8.8203-2.6396c-2.6006-1.959-3.9004-4.6797-3.9004-8.1602
				c0-4.04,1.5205-7.1191,4.5605-9.2402c2.6396-1.8789,6.0801-2.8193,10.3203-2.8193c1.8789,0,3.6387,0.2197,5.2793,0.6592V23.6807
				h7.4404c2.6396,0,4.7998,0.5205,6.4795,1.5605c2.04,1.2402,3.0605,3.0996,3.0605,5.5791c0,1.4805-0.4199,2.6914-1.2598,3.6309
				c-0.8408,0.9395-2.001,1.4092-3.4805,1.4092c-0.96,0-1.7607-0.2891-2.4004-0.8691s-0.96-1.3506-0.96-2.3105
				c0-2.04,0.9199-3.1797,2.7607-3.4199c1.7998-0.2402,3,0.46,3.5996,2.0996c-0.2002-2.2793-1.041-3.8994-2.5195-4.8594
				c-1.2402-0.7598-3.1006-1.1406-5.5801-1.1406c0.0791,0-0.2012,0-0.8398,0c-1.041,0-1.3203,0-0.8408,0v19.0801
				C358.1592,45.9609,362.2197,48.4609,366.8203,51.9404z M349.1797,53.8008v-9.2402c-2.4805-0.3994-4.2402-0.5996-5.2793-0.5996
				c-3.7607,0-6.8008,0.7598-9.1201,2.2803c-2.6807,1.7998-4.0205,4.4795-4.0205,8.04c0,2.8398,1.0596,5.0801,3.1807,6.7197
				c1.9199,1.5596,4.3389,2.3398,7.2598,2.3398C346.5195,63.3408,349.1797,60.1611,349.1797,53.8008z"/>
			<path class="st0" d="M424.4805,59.9209v1.7998h-18.4209v-1.7998c3.7598,0,5.6406-0.8193,5.6406-2.46
				c0-0.4805-0.1406-1.0801-0.4199-1.7998l-3.54-9h-19.5l-2.1602,5.5801c-0.6807,1.7598-1.0205,3.1797-1.0205,4.2598
				c0,1.04,0.3008,1.8398,0.9004,2.3994c0.7197,0.6807,2.2197,1.0205,4.5,1.0205v1.7998h-14.7002v-1.7998
				c3.4395,0,5.8799-1.8193,7.3203-5.46l13.6201-34.2002l5.04-2.46L418,56.2607C419.04,58.7012,421.1992,59.9209,424.4805,59.9209z
				 M388.96,44.8604h18.1201L397.96,22.0605L388.96,44.8604z"/>
			<path class="st0" d="M463,40.3008l11.6396,16.7402c1.3203,1.9199,3.7402,2.8799,7.2607,2.8799v1.7998h-11.7002l-13.6201-21.4199
				h-5.0996v15.96c0,2.4404,1.1992,3.6602,3.5996,3.6602h2.2197v1.7998h-17.6396v-1.7998H442c2.5195,0,3.7803-1.2197,3.7803-3.6602
				V24.041c0-2.4795-1.2607-3.7207-3.7803-3.7207h-2.4004v-1.7998h20.46c4.1201,0,7.7197,0.7803,10.8008,2.3398
				c3.9189,1.9609,5.8799,4.8213,5.8799,8.5801c0,3.2803-1.5205,5.9805-4.5605,8.1006C469.5,39.3809,466.4395,40.3008,463,40.3008z
				 M451.4805,24.4609v14.04h7.1992c3.7207,0,6.6299-0.8193,8.7305-2.46c2.0996-1.6396,3.1494-3.8398,3.1494-6.6006
				c0-2.8389-1.0596-5.0693-3.1797-6.6895s-5.1201-2.4307-9-2.4307h-3.5996C452.5801,20.3203,451.4805,21.7012,451.4805,24.4609z"/>
			<path class="st0" d="M509.0801,39.1611l-5.8799,2.2793c-1.7207-8.5586-4.2207-15.999-7.5-22.3193l1.4395-0.9004
				C502.2598,24.501,506.2393,31.4805,509.0801,39.1611z M542.8604,17.6211c0,11.6797-1.9199,21.6602-5.7607,29.9395
				c-5.0801,10.9609-12.8203,16.4404-23.2197,16.4404c-3.1602,0-5.7598-0.6807-7.7998-2.04
				c-2.4004-1.5605-3.5996-3.8398-3.5996-6.8398c0-1.96,0.7197-3.6699,2.1592-5.1299c1.4404-1.46,3.1396-2.1904,5.1006-2.1904
				c0.999,0,1.8691,0.2803,2.6094,0.8398c0.7402,0.5605,1.1104,1.3203,1.1104,2.2803c0,0.9209-0.3301,1.7197-0.9902,2.3994
				c-0.6602,0.6807-1.4502,1.0205-2.3701,1.0205s-1.7197-0.2598-2.3994-0.7803c-0.6807-0.5195-1.0205-1.2197-1.0205-2.0996
				c0-0.2402,0.0195-0.46,0.0605-0.6602c-1.6807,0.9209-2.5205,2.3799-2.5205,4.3799c0,2.2412,0.9395,3.96,2.8203,5.1602
				c1.5996,1,3.5791,1.5,5.9404,1.5c9.0791,0,15.6592-5.499,19.7393-16.5c2.8398-7.5996,4.2607-16.8398,4.2607-27.7197H542.8604z
				 M524.5596,38.2012L518.5,40.0605c-1.1201-8.0791-3.2002-15.5791-6.2402-22.5l1.4404-0.8994
				C517.9395,22.0215,521.5596,29.2012,524.5596,38.2012z"/>
			<path class="st0" d="M583.5996,46.541c0,5.0801-1.3398,9.2002-4.0195,12.3594c-2.8408,3.4004-6.7607,5.1006-11.7598,5.1006
				c-3,0-5.4404-0.7803-7.3203-2.3398c-2.001-1.6396-3-3.9199-3-6.8408c0-1.7588,0.6094-3.4395,1.8301-5.0391
				c1.2197-1.5996,2.6895-2.4004,4.4102-2.4004c1.0391,0,1.9199,0.2803,2.6396,0.8398c0.7197,0.5605,1.0801,1.3408,1.0801,2.3398
				c0,0.96-0.3203,1.7803-0.96,2.46c-0.6406,0.6807-1.4609,1.0205-2.46,1.0205c-0.8799,0-1.6006-0.3203-2.1602-0.96
				c-0.5605-0.6396-0.8203-1.4004-0.7803-2.2803c-1.2402,1.1201-1.8594,2.4805-1.8594,4.0801c0,2.2002,0.8398,3.96,2.5195,5.2803
				c1.5605,1.1992,3.46,1.7998,5.7002,1.7998c4.1602,0,7.0801-1.7002,8.7598-5.1006c1.2803-2.5586,1.9199-6.1797,1.9199-10.8594
				V31.2412h5.46V46.541z M604.1201,18.4004c-3.5605,10.001-9.6211,18.3213-18.1797,24.96l-1.2607-1.5
				c5.1992-6.1992,9.2002-13.4189,12-21.6592h-37.9795v-1.8008H604.1201z"/>
			<path class="st0" d="M663.6396,32.6807c0,3.5205-1.2402,6.1797-3.7197,7.9805c-2.2002,1.5596-5.1201,2.3398-8.7598,2.3398
				h-35.1006v-5.1006h35.2207c2.5596,0,4.7598-0.4199,6.5996-1.2598c2.4004-1.0801,3.6006-2.7793,3.6006-5.0996
				c0-2-0.9404-3.5-2.8203-4.5c0.1592,1.04-0.0703,1.9707-0.6904,2.79c-0.6201,0.8203-1.4502,1.2295-2.4893,1.2295
				c-0.9609,0-1.751-0.3193-2.3701-0.96c-0.6211-0.6396-0.9307-1.4395-0.9307-2.3994c0-0.9199,0.3496-1.71,1.0508-2.3701
				c0.6992-0.6602,1.5293-0.9902,2.4893-0.9902c2.2402,0,4.1201,0.8203,5.6406,2.46
				C662.8799,28.4414,663.6396,30.4004,663.6396,32.6807z"/>
			<path class="st0" d="M722.0801,20.2607c-8.3203,0-15.5205,2.2197-21.5996,6.6602c-6.8008,4.9199-10.2002,11.3994-10.2002,19.4395
				c0,4.5215,1.2988,8.3008,3.8994,11.3408c2.7197,3.2002,6.3008,4.7998,10.7402,4.7998c3.5195,0,6.5596-0.9199,9.1201-2.7598
				c2.8398-2.04,4.2793-4.7598,4.3203-8.1602c0-2.96-1.1611-5.0195-3.4805-6.1807c0.0391,0.2012,0.0605,0.4004,0.0605,0.6006
				c0,0.8799-0.3408,1.6201-1.0205,2.2197c-0.6807,0.5996-1.4609,0.9004-2.3398,0.9004c-0.9209,0-1.6904-0.3008-2.3105-0.9004
				s-0.9297-1.3594-0.9297-2.2803c0-0.999,0.3301-1.8193,0.9902-2.46c0.6602-0.6387,1.4893-0.96,2.4902-0.96
				c2.4395,0,4.4297,0.9004,5.9697,2.7002c1.5391,1.7998,2.3096,3.9209,2.3096,6.3604c0,4.0801-1.6406,7.2998-4.9199,9.6602
				c-2.96,2.1191-6.54,3.1797-10.7393,3.1797c-5.8408,0-10.6006-1.5605-14.2803-4.6797c-3.96-3.3203-5.9404-7.8398-5.9404-13.5605
				c0-6.4795,2.8203-12.1592,8.46-17.04c4.6807-4.0391,10.5195-7.0195,17.5205-8.9395h-33.6006v-1.8008h45.4805V20.2607z
				 M721.2402,33.1611l-3.3604,2.3994c-1.2402-3.1201-2.8799-6-4.9199-8.6396l1.0205-1.0205
				C716.6992,27.7812,719.1191,30.2012,721.2402,33.1611z M726.5195,29.8008l-3.3594,2.2803
				c-1.041-2.7998-2.6807-5.6406-4.9199-8.5205l1.0801-1.1396C722.1191,24.3809,724.5195,26.8408,726.5195,29.8008z"/>
			<path class="st0" d="M772.5996,18.5205v4.5h-21L750.46,39.041c2.7598-2.6797,6.1592-4.0205,10.2002-4.0205
				c4.0801,0,7.4297,1.3203,10.0498,3.96c2.6191,2.6406,3.9297,6.0205,3.9297,10.1406c0,3.96-1.46,7.1797-4.3799,9.6602
				s-6.4404,3.7197-10.5596,3.7197c-3.2803,0-6.1406-0.7197-8.5801-2.1602c-2.9209-1.7598-4.3799-4.1602-4.3799-7.2002
				c0-1.3594,0.3496-2.4688,1.0498-3.3301c0.6992-0.8594,1.6289-1.29,2.79-1.29c0.9199,0,1.71,0.3506,2.3701,1.0498
				c0.6602,0.7012,0.9902,1.5107,0.9902,2.4307c0,0.3203-0.2803,1-0.8408,2.04s-0.8398,1.7607-0.8398,2.1602
				c0,1.4004,0.75,2.5,2.25,3.2998c1.5,0.8008,3.1104,1.2002,4.8301,1.2002c2.6797,0,4.8994-1.0098,6.6602-3.0303
				c1.7598-2.0195,2.6396-4.79,2.6396-8.3105c0-3.1592-0.8496-5.9893-2.5498-8.4893s-4.0498-3.75-7.0498-3.75
				c-3.6406,0-6.5996,1.5801-8.8799,4.7393h-1.8604l1.5605-23.3398H772.5996z"/>
			<path class="st0" d="M843.5195,51.6406c0,4.6797-2.8799,8.1406-8.6396,10.3799c-4.1602,1.5996-9,2.4004-14.5195,2.4004
				c-6.2803,0-11.3809-0.8809-15.3008-2.6396c-5.3604-2.4805-8.04-6.4805-8.04-12c0-4.2002,2-7.8008,6-10.8008
				c3.1201-2.3594,7.0596-4.1396,11.8203-5.3398l-1.6797-17.8203h5.6396l1.5,16.4404c6.4805-1.4404,13.2002-2.3193,20.1602-2.6396
				l0.1797,1.8594c-9.7998,0.4805-17.46,1.5811-22.9795,3.3008c-9.8008,3.0801-14.7002,8.1201-14.7002,15.1191
				c0,8.4004,6.3193,12.6006,18.96,12.6006c4.5195,0,8.5996-0.6992,12.2402-2.1006c4.959-1.9199,7.4395-4.7793,7.4395-8.5801
				c0-1.2393-0.3203-2.1797-0.96-2.8193c0.1201,0.8008-0.1602,1.5098-0.8398,2.1299c-0.6807,0.6201-1.4395,0.9297-2.2803,0.9297
				c-0.96,0-1.7803-0.3301-2.46-0.9902c-0.6807-0.6592-1.0195-1.4492-1.0195-2.3691s0.3604-1.6895,1.0801-2.3105
				c0.7197-0.6191,1.5391-0.9297,2.46-0.9297c1.6797,0,3.0898,0.6104,4.2295,1.8301
				C842.9502,48.5117,843.5195,49.9609,843.5195,51.6406z"/>
			<path class="st0" d="M901.5996,43.001c0,6.5205-2.3604,11.7803-7.0801,15.7803c-4.4395,3.7598-9.9805,5.6396-16.6191,5.6396
				c-3.2402,0-6.0215-0.7002-8.3408-2.1006c-2.7998-1.6396-4.1992-3.9795-4.1992-7.0195c0-3.2402,1.3193-4.8604,3.96-4.8604
				c0.999,0,1.8301,0.3008,2.4893,0.9004c0.6602,0.5996,0.9902,1.4004,0.9902,2.4004c0,0.8799-0.3105,1.6494-0.9297,2.3096
				c-0.6211,0.6602-1.3711,0.9902-2.25,0.9902c-1.3203,0-2.2002-0.3799-2.6396-1.1406c0,2.2012,1.1592,3.8809,3.4795,5.04
				c1.8398,0.9209,3.96,1.3799,6.3604,1.3799c5.3994,0,9.8896-1.8594,13.4697-5.5791c3.5791-3.7207,5.3701-8.2998,5.3701-13.7402
				c0-4.0801-1.2598-7.2197-3.7803-9.4199c-2.3604-2.1201-5.6006-3.1807-9.7197-3.1807c-6.8398,0-14.8408,1.5-24,4.5l-0.6006-1.8594
				c9.1201-3,17.5205-4.5,25.2002-4.5c5.3604,0,9.6797,1.04,12.96,3.1201C899.6396,34.1807,901.5996,37.9609,901.5996,43.001z
				 M893.1396,17.6211l-1.2598,5.3994c-12.8008-0.8789-22.3604-2.5801-28.6797-5.0996l0.54-1.6797
				c3.1992,0.6807,7.8389,1.1201,13.9199,1.3193c3.3994,0.1201,6.5,0.1807,9.2998,0.1807
				C889.1992,17.7412,891.2598,17.7012,893.1396,17.6211z"/>
			<path class="st0" d="M964.4805,43.9609c0,5.4805-1.3604,10.1602-4.0801,14.04c-3.041,4.3193-7.2002,6.4795-12.4805,6.4795
				c-2.3604,0-4.2998-0.5996-5.8203-1.7998c-1.6797-1.3203-2.5195-3.1396-2.5195-5.46c0-1.5996,0.5488-3.0195,1.6504-4.2598
				c1.0996-1.2393,2.4492-1.8604,4.0498-1.8604c0.96,0,1.7695,0.3213,2.4297,0.96c0.6602,0.6406,0.9902,1.4404,0.9902,2.4004
				c0,0.9209-0.3301,1.7002-0.9902,2.3398c-0.6602,0.6406-1.4307,0.96-2.3096,0.96c-1.8809,0-3-0.7393-3.3604-2.2197
				c-0.4004,0.6807-0.5996,1.3799-0.5996,2.0996c0,0.8398,0.2588,1.7012,0.7793,2.5801c1,1.6406,2.6797,2.46,5.04,2.46
				c4,0,7.04-2.2588,9.1201-6.7803c1.5996-3.4795,2.4004-7.459,2.4004-11.9395c0-11.1201-3.9805-17.4004-11.9404-18.8398
				c-1.5596,8.5596-3.6807,15.96-6.3594,22.1992c-4.2812,9.8809-9.3213,14.8203-15.1201,14.8203
				c-3.4004,0-5.9609-1.3203-7.6807-3.96c-1.4395-2.2393-2.1602-5.1602-2.1602-8.7598c0-7.2803,3-13.5801,9-18.9004l-3.3594-12.1201
				l5.2803-1.6191l2.7598,10.1396c4.0391-2.5205,8.7793-3.7803,14.2197-3.7803h0.96c0.2402,0,0.5,0.0205,0.7803,0.0605
				c0.3994-3.6797,0.5996-6.54,0.5996-8.5801h1.8604c0,1.96-0.1797,4.8398-0.54,8.6396c5.6797,0.5205,10.04,2.7002,13.0801,6.54
				C963.04,33.4004,964.4805,38.1211,964.4805,43.9609z M932.0801,56.9805l-6.96-24.5996
				c-5.2002,4.96-7.7998,10.6602-7.7998,17.0996c0,3.041,0.5791,5.501,1.7393,7.3799c1.4004,2.3613,3.5,3.54,6.3008,3.54
				C927.4795,60.4004,929.7197,59.2607,932.0801,56.9805z M944.9199,24.8809c-0.2402-0.0391-0.4795-0.0605-0.7197-0.0605h-0.9004
				c-5.2803,0-9.8398,1.3203-13.6797,3.9609l6.2998,23.1592C940.2793,44.9014,943.2793,35.8818,944.9199,24.8809z"/>
			<path class="st0" d="M1014.5195,63.5811l-6.1191,2.7598L977.3203,40.001c2.7598-1.5605,7.6592-4.0596,14.6992-7.5
				c6.3203-3.1201,11.1797-5.7197,14.5801-7.7998c2.96-1.8008,4.4404-3.6396,4.4404-5.5205c0-0.8398-0.2803-1.5391-0.8398-2.0996
				c0.1201,1.0801-0.1104,1.9795-0.6904,2.7002c-0.5801,0.7197-1.4102,1.0791-2.4902,1.0791c-2.3994,0-3.5996-1.1592-3.5996-3.4795
				c0-1.0801,0.3496-1.9805,1.0498-2.7002c0.6992-0.7197,1.5898-1.0801,2.6699-1.0801c1.5996,0,2.9404,0.54,4.0205,1.6201
				s1.6201,2.4004,1.6201,3.96c0,2.8008-1.9805,5.3203-5.9404,7.5605c-1.4805,0.8799-4.9795,2.7598-10.5,5.6396l-12.0596,6.2998
				L1014.5195,63.5811z M1019.3799,32.3203l-3.1797,2.6406c-1.3604-2.96-3.1807-5.7197-5.46-8.2803l1.0801-1.0801
				C1014.7002,27.4414,1017.2197,29.6807,1019.3799,32.3203z M1024.4199,28.6006l-3.1797,2.5801
				c-1.6006-3.4395-3.4404-6.1992-5.5205-8.2803l0.96-1.1396C1019.5996,23.4404,1022.1797,25.7207,1024.4199,28.6006z"/>
		</g>
	</g>
</g>
</svg>
