<?xml version="1.0" encoding="utf-8"?>
<!-- Generator: Adobe Illustrator 25.2.1, SVG Export Plug-In . SVG Version: 6.00 Build 0)  -->
<svg version="1.1" id="レイヤー_1" xmlns="http://www.w3.org/2000/svg" xmlns:xlink="http://www.w3.org/1999/xlink" x="0px"
	 y="0px" viewBox="0 0 1040 80" style="enable-background:new 0 0 1040 80;" xml:space="preserve">
<style type="text/css">
	.st0{fill:#1E1E28;}
</style>
<g>
	<g>
		<g>
			<path class="st0" d="M61,45.5205c0,5.8408-2.2197,10.5-6.6602,13.9805c-3.8799,3.04-8.4805,4.5596-13.7998,4.5596
				c-5.6396,0-10.0205-1.2402-13.1396-3.7197c-3.2402-2.5996-4.8604-6.3604-4.8604-11.2803v-33h4.3203v33
				c0,4.4004,1.1992,7.7207,3.5996,9.96c2.4004,2.2412,5.7598,3.3604,10.0801,3.3604c4.8799,0,9.1201-1.3994,12.7197-4.2002
				c4.04-3.1592,6.0605-7.3799,6.0605-12.6602c0-2.5996-0.5508-4.9287-1.6504-6.9893c-1.1006-2.0605-2.5303-3.4902-4.29-4.29
				c0.1201,0.8398-0.1006,1.5596-0.6602,2.1592c-0.5605,0.6006-1.2207,0.9004-1.9795,0.9004c-0.8008,0-1.4609-0.2598-1.9805-0.7803
				c-0.5205-0.5195-0.7793-1.1396-0.7793-1.8594c0-0.7207,0.2793-1.3506,0.8398-1.8906c0.5596-0.54,1.2197-0.8096,1.9795-0.8096
				c2.8398,0,5.25,1.2803,7.2305,3.8398C60.0098,38.3613,61,41.6016,61,45.5205z"/>
			<path class="st0" d="M124.8398,49.541c0,4.3193-1.5,7.8594-4.5,10.6201c-2.7998,2.5596-6.1006,3.8398-9.8994,3.8398
				c-7.041,0-10.5605-3.2197-10.5605-9.6602V38.3203c0-2.4385-0.9805-3.6592-2.9395-3.6592c-1.9609,0-3.9814,0.9805-6.0605,2.9395
				c-1.9199,1.7607-3.1602,3.6211-3.7197,5.5801L81.46,63.5811l-4.2002-0.7207l13.3203-47.1592l4.2002,0.5996l-6.1807,21.5996
				c0.9199-1.3994,2.2598-2.5801,4.0205-3.54c1.7598-0.96,3.459-1.4395,5.0996-1.4395c4.3203,0,6.4805,2.04,6.4805,6.1201v14.2197
				c0,5.9609,2.1191,8.9404,6.3594,8.9404c3.3203,0.04,6.2002-1.0596,8.6406-3.3008c2.5996-2.3994,3.8994-5.5195,3.8994-9.3594
				c0-2.04-0.5801-3.8701-1.7393-5.4902c-1.1611-1.6201-2.6211-2.6104-4.3799-2.9697c0.0791,0.2002,0.1191,0.4199,0.1191,0.6602
				c0,0.7197-0.2695,1.3496-0.8096,1.8896s-1.1904,0.8096-1.9502,0.8096c-0.7197,0-1.3496-0.2598-1.8896-0.7793
				s-0.8105-1.1602-0.8105-1.9199c0-0.7207,0.2705-1.3506,0.8105-1.8906s1.1699-0.8096,1.8896-0.8096
				c3.0391,0,5.5498,1.0195,7.5303,3.0596C123.8496,44.1406,124.8398,46.6211,124.8398,49.541z"/>
			<path class="st0" d="M177.2803,33.2207c-0.7207,0-1.4404-0.0801-2.1602-0.2402c2.4395,4.9199,3.6602,9.54,3.6602,13.8604
				c0,5.4004-1.8408,9.7607-5.5205,13.0801c-3.5605,3.1201-8.0205,4.6797-13.3799,4.6797c-5.6006,0-10.1807-1.5801-13.7402-4.7402
				c-3.8799-3.4395-5.8193-8.2197-5.8193-14.3398c0-5.1992,1.5391-10.2598,4.6201-15.1797
				c1.959-3.2002,4.8594-6.6396,8.6992-10.3203h-15.2393v-1.7393h21.4199v1.4395c-4.8809,4.7207-8.3008,8.6006-10.2607,11.6396
				c-3.1602,4.8809-4.7393,10.1211-4.7393,15.7207c0,5.5195,1.8594,9.7002,5.5801,12.54c2.7988,2.1201,6.0391,3.1797,9.7197,3.1797
				c4.6396,0,8.54-1.3203,11.7002-3.96c3.4395-2.9189,5.1602-6.9199,5.1602-12c0-5.7197-1.9209-11.4004-5.7607-17.04l1.5-0.7803
				c0.3203,0.4004,0.7207,1.041,1.2002,1.9199c1.04,0.4414,2.1201,0.6602,3.2402,0.6602c2,0,3.5596-0.5596,4.6797-1.6797
				c-0.6807-0.0391-1.2705-0.3193-1.7695-0.8398c-0.501-0.5195-0.75-1.1406-0.75-1.8604s0.2695-1.3496,0.8096-1.8896
				s1.1699-0.8105,1.8896-0.8105c0.7598,0,1.4004,0.2705,1.9209,0.8105c0.5186,0.54,0.7793,1.1699,0.7793,1.8896
				c0,1.8408-0.8008,3.3408-2.3994,4.5C180.8799,32.7207,179.2002,33.2207,177.2803,33.2207z M183.8203,18.6406
				c0,1.4404-0.5205,2.6904-1.5605,3.75c-1.04,1.0605-2.2793,1.5898-3.7197,1.5898c-1.4805,0-2.7402-0.5293-3.7803-1.5898
				c-1.04-1.0596-1.5596-2.3096-1.5596-3.75c0-1.4795,0.5195-2.7393,1.5596-3.7803c1.04-1.0391,2.2998-1.5596,3.7803-1.5596
				c1.4404,0,2.6797,0.5205,3.7197,1.5596C183.2998,15.9014,183.8203,17.1611,183.8203,18.6406z M182.3203,18.6406
				c0-1.0801-0.3604-1.9893-1.0801-2.7295c-0.7207-0.7402-1.6201-1.1104-2.7002-1.1104s-1.9902,0.3701-2.7305,1.1104
				s-1.1094,1.6494-1.1094,2.7295c0,1.041,0.3691,1.9307,1.1094,2.6699c0.7402,0.7412,1.6504,1.1104,2.7305,1.1104
				c1.04,0,1.9297-0.3691,2.6699-1.1104C181.9492,20.5713,182.3203,19.6816,182.3203,18.6406z"/>
			<path class="st0" d="M241.7197,20.6211c-8.4404,0-15.7402,2.3008-21.8994,6.8994c-6.5605,4.8809-9.8398,11.0605-9.8398,18.54
				c0,5.2002,1.6191,9.2803,4.8594,12.2402c2.7598,2.5605,6,3.8398,9.7197,3.8398c3.7207,0,6.8604-0.9902,9.4209-2.9697
				c2.5586-1.9805,3.8594-4.5498,3.8994-7.71c0-1.5996-0.3896-3.0195-1.1699-4.2598s-1.791-2.1396-3.0303-2.7002
				c0.04,0.2002,0.0605,0.4004,0.0605,0.5996c0,0.6807-0.2607,1.3008-0.7803,1.8604c-0.5205,0.5605-1.1602,0.8398-1.9199,0.8398
				c-0.7607,0-1.4004-0.2695-1.9199-0.8096c-0.5205-0.54-0.7803-1.1709-0.7803-1.8906c0-0.7588,0.2793-1.4102,0.8398-1.9502
				c0.5596-0.54,1.2393-0.8096,2.04-0.8096c2.1201,0,4.0205,0.8008,5.7002,2.4004c1.7998,1.7598,2.7002,4,2.7002,6.7197
				c0,3.6406-1.4307,6.6406-4.29,9c-2.8604,2.3594-6.5098,3.54-10.9502,3.54c-5.6396,0-10.2402-1.6396-13.7998-4.9199
				c-3.5605-3.2793-5.3398-7.6201-5.3398-13.0205c0-6.0791,2.5996-11.499,7.7998-16.2598
				c4.5596-4.1191,10.3203-7.1797,17.2803-9.1797h-33v-1.6807h44.3994V20.6211z"/>
			<path class="st0" d="M304.4805,34.1211h-11.1602l1.1992,12.4199h-3.8994c-4.7207-3.3604-9.7803-5.04-15.1797-5.04
				c-3.8008,0-6.8701,0.9697-9.21,2.9102c-2.3408,1.9404-3.5107,4.3496-3.5107,7.2295c0,4,1.7598,6.96,5.2803,8.8799
				c2.7998,1.5205,6.4805,2.2803,11.04,2.2803s8.3789-0.75,11.46-2.25c3.0801-1.5,4.6201-3.2295,4.6201-5.1904
				c-0.4404,1.1211-1.2002,1.6807-2.2803,1.6807c-0.7598,0-1.4004-0.2402-1.9199-0.7207c-0.5205-0.4795-0.7803-1.0996-0.7803-1.8594
				c0-0.7998,0.2793-1.4492,0.8408-1.9502c0.5596-0.5,1.2393-0.75,2.0391-0.75c1.0801,0,2,0.3408,2.7607,1.0205
				c0.7588,0.6797,1.1396,1.4795,1.1396,2.3994c0,2.6396-1.7402,4.8408-5.2197,6.6006c-3.6406,1.8389-8.2607,2.7598-13.8604,2.7598
				c-6.3594,0-11.2803-1.2002-14.7598-3.6006c-3.2803-2.2793-4.9199-5.3594-4.9199-9.2393c0-3.4805,1.5498-6.3496,4.6494-8.6104
				c3.0996-2.2598,7.1299-3.3896,12.0908-3.3896c3.1592,0,5.959,0.3799,8.3994,1.1396c1.8799,0.5996,4.0996,1.6406,6.6602,3.1201
				L289,34.1211h-31.0801v-1.7402h30.9004L288.04,25.001h-30.1201v-1.6807h30l-0.8398-7.6191h4.3799l0.7803,7.6191h12.2402v1.6807
				h-12.1201l0.7793,7.3799h11.3408V34.1211z"/>
			<path class="st0" d="M345.0996,25.6006h-14.3398L319.96,59.8604l-4.1396-1.0791l10.5596-33.1807h-9.54v-1.6797h10.0801
				l2.7598-8.7002l4.1406,0.96l-2.46,7.7402h13.7393V25.6006z M366.2803,51.6406l-1.1406,1.2598
				c-3.6396-3.0391-7.2998-5.3193-10.9795-6.8398v6.6006c0,7.9199-4.1611,11.8799-12.4805,11.8799
				c-3.3203,0-6.1201-0.8398-8.3994-2.5205c-2.6006-1.9199-3.9004-4.5791-3.9004-7.9795c0-3.6797,1.3203-6.5801,3.96-8.7002
				c2.6406-2.1201,6.2197-3.1797,10.7402-3.1797c2.1602,0,4.0801,0.2197,5.7598,0.6592V23.9209h5.2197
				c7.1201,0,10.6807,2.2598,10.6807,6.7803c0,1.4395-0.54,2.6602-1.6201,3.6592c-1.0801,1.001-2.3809,1.5-3.9004,1.5
				c-0.7598,0-1.4199-0.2695-1.9795-0.8096c-0.5605-0.54-0.8398-1.1699-0.8398-1.8896c0-1.8008,0.8789-2.7002,2.6396-2.7002
				c1.7998,0,2.7002,0.9209,2.7002,2.7598C363.5801,32.5811,364,31.7412,364,30.7012c0-3.4404-3.2803-5.1602-9.8398-5.1602v18.6602
				C358.0391,45.7607,362.0801,48.2412,366.2803,51.6406z M349.8398,52.6611v-8.04c-1.96-0.4805-3.8799-0.7207-5.7598-0.7207
				c-3.9209,0-7.0498,0.8906-9.3896,2.6699c-2.3408,1.7812-3.5107,4.2705-3.5107,7.4707c0,2.7998,1.1201,5.0205,3.3604,6.6602
				c1.9199,1.4004,4.2197,2.0996,6.9004,2.0996C347.04,62.8008,349.8398,59.4209,349.8398,52.6611z"/>
			<path class="st0" d="M390.04,61.7207h-13.7998v-1.7998c2.6787,0,4.9795-1.8193,6.8994-5.46l14.1006-34.4404l3.8994-2.2197
				l15.7207,37.9199c1.1592,2.8008,3.499,4.2002,7.0195,4.2002v1.7998h-17.2197v-1.7998c3.5195,0,5.2803-0.9795,5.2803-2.9404
				c0-0.4795-0.1201-1.0195-0.3604-1.6201l-3.2998-8.6992h-19.9805L385,55.001c-0.2803,0.7197-0.4199,1.3604-0.4199,1.9199
				c0,2.001,1.8193,3,5.46,3V61.7207z M398.6797,21.5205l-9.5996,23.3398H407.5L398.6797,21.5205z"/>
			<path class="st0" d="M456.1602,61.7207h-16.5v-1.7998c2.1191,0,3.5596-0.1797,4.3203-0.54
				c1.2793-0.5596,1.9199-1.7793,1.9199-3.6602V24.3408c0-1.7197-0.4307-2.8203-1.29-3.2998
				c-0.8613-0.4805-2.5107-0.7207-4.9502-0.7207v-1.7998h20.2803c3.7988,0,7.3389,0.9004,10.6191,2.7002s4.9209,4.5,4.9209,8.0996
				c0,3.3213-1.5605,5.9805-4.6807,7.9805c-2.6006,1.6406-5.7207,2.5801-9.3594,2.8203l12.2393,17.04
				c1.8398,1.8398,4.2002,2.7598,7.0801,2.7598v1.7998h-10.6201l-13.7393-21.5996h-6v15.5996c0,1.96,0.54,3.2012,1.6191,3.7197
				c0.6006,0.3213,1.9805,0.4805,4.1406,0.4805V61.7207z M450.4004,24.3408v13.9795h6.8398c3.6797,0,6.7197-0.6191,9.1201-1.8594
				c3.0791-1.5605,4.6201-4,4.6201-7.3203c0-3.3594-1.4209-5.6699-4.2607-6.9297c-2.8408-1.2598-6.2197-1.8906-10.1396-1.8906
				c-2.0801,0-3.501,0.1611-4.2598,0.4805C451.0391,21.3613,450.4004,22.541,450.4004,24.3408z"/>
			<path class="st0" d="M508.8398,39.2207l-4.6797,1.9805c-1.8809-8.4395-4.4609-15.54-7.7402-21.3008l1.3799-0.8994
				C502.2793,24.7217,505.96,31.4609,508.8398,39.2207z M542.3203,18.1006c-0.1201,14.04-2.751,25.0801-7.8906,33.1201
				s-12.1904,12.0605-21.1494,12.0605c-2.9209,0-5.3613-0.7207-7.3203-2.1602c-2.0801-1.5605-3.1201-3.6201-3.1201-6.1807
				c0-1.959,0.7803-3.6191,2.3398-4.9795c1.4404-1.3203,3.0605-1.9805,4.8604-1.9805c0.7998,0,1.4795,0.2607,2.04,0.7803
				c0.5596,0.5205,0.8398,1.1396,0.8398,1.8604c0,0.7598-0.2695,1.4004-0.8096,1.9199c-0.54,0.5205-1.1699,0.7793-1.8906,0.7793
				c-1.7607,0-2.6396-0.7988-2.6396-2.3994c0-0.2793,0.0195-0.4805,0.0596-0.6006c-2.04,0.8408-3.0596,2.3809-3.0596,4.6201
				c0,2.1602,0.9004,3.8203,2.7002,4.9805c1.5986,1.0801,3.5996,1.6201,6,1.6201c6.6797,0,12.2598-3.46,16.7393-10.3799
				c5.0801-7.8398,7.6807-18.8604,7.8008-33.0605H542.3203z M524.0195,38.0811l-4.7393,1.7998
				c-1.4014-8.4004-3.6006-15.6396-6.6006-21.7197l1.4404-0.8408C518.2393,23.2812,521.5391,30.2012,524.0195,38.0811z"/>
			<path class="st0" d="M582.8799,45.6406c0,5.7207-1.3799,10.1611-4.1396,13.3203c-2.6807,3-6.3213,4.4795-10.9199,4.4395
				c-2.4004-0.04-4.541-0.6992-6.4199-1.9795c-2.2803-1.5996-3.4199-3.8594-3.4199-6.7803c0-1.7188,0.5889-3.2998,1.7695-4.7402
				c1.1797-1.4395,2.4902-2.1592,3.9297-2.1592c0.8398,0,1.5605,0.2305,2.1602,0.6895c0.6006,0.46,0.9004,1.0908,0.9004,1.8896
				c0,0.8408-0.2607,1.5215-0.7803,2.04c-0.5205,0.5205-1.1807,0.7803-1.9795,0.7803c-1.6006,0-2.4004-0.8193-2.4004-2.46
				c-1.2002,1-1.7998,2.3398-1.7998,4.0205c0,2.3604,0.9189,4.1602,2.7598,5.3994c1.4795,0.96,3.2197,1.4404,5.2197,1.4404
				c7.2803,0,10.9199-5.2207,10.9199-15.6602V31.6611h4.2002V45.6406z M603.5195,18.9404
				c-3.2803,9.8008-9.0996,17.9404-17.46,24.4199l-1.0791-1.3193c5.8389-6.7207,10.0586-13.8604,12.6592-21.4199H559.54v-1.6807
				H603.5195z"/>
			<path class="st0" d="M663.0996,32.8008c0,2.8799-1.0801,5.1807-3.2393,6.9004c-2.1602,1.7197-5.0205,2.5801-8.5801,2.5801
				h-34.7998v-3.9004h34.2598c3,0,5.3994-0.4805,7.2002-1.4404c2.1191-1.0801,3.1797-2.6592,3.1797-4.7393
				c0-2.1201-1.041-3.5801-3.1201-4.3809c0.1592,0.8408-0.0303,1.5811-0.5703,2.2207s-1.2295,0.96-2.0693,0.96
				c-0.7207,0-1.3408-0.2598-1.8604-0.7803c-0.5205-0.5195-0.7803-1.1592-0.7803-1.9199c0-0.7598,0.2705-1.3994,0.8105-1.9199
				c0.54-0.5195,1.209-0.7803,2.0098-0.7803c2.04,0,3.8096,0.6807,5.3096,2.04C662.3496,29.001,663.0996,30.7217,663.0996,32.8008z"
				/>
			<path class="st0" d="M721.7197,20.6211c-8.4404,0-15.7402,2.3008-21.8994,6.8994c-6.5605,4.8809-9.8398,11.0605-9.8398,18.54
				c0,5.2002,1.6191,9.2803,4.8594,12.2402c2.7598,2.5605,6,3.8398,9.7197,3.8398c3.7207,0,6.8604-0.9902,9.4209-2.9697
				c2.5586-1.9805,3.8594-4.5498,3.8994-7.71c0-1.5996-0.3896-3.0195-1.1699-4.2598s-1.791-2.1396-3.0303-2.7002
				c0.04,0.2002,0.0605,0.4004,0.0605,0.5996c0,0.6807-0.2607,1.3008-0.7803,1.8604c-0.5205,0.5605-1.1602,0.8398-1.9199,0.8398
				c-0.7607,0-1.4004-0.2695-1.9199-0.8096c-0.5205-0.54-0.7803-1.1709-0.7803-1.8906c0-0.7588,0.2793-1.4102,0.8398-1.9502
				c0.5596-0.54,1.2393-0.8096,2.04-0.8096c2.1201,0,4.0205,0.8008,5.7002,2.4004c1.7998,1.7598,2.7002,4,2.7002,6.7197
				c0,3.6406-1.4307,6.6406-4.29,9c-2.8604,2.3594-6.5098,3.54-10.9502,3.54c-5.6396,0-10.2402-1.6396-13.7998-4.9199
				c-3.5605-3.2793-5.3398-7.6201-5.3398-13.0205c0-6.0791,2.5996-11.499,7.7998-16.2598
				c4.5596-4.1191,10.3203-7.1797,17.2803-9.1797h-33v-1.6807h44.3994V20.6211z M720.8203,33.2812l-3.0605,1.9795
				c-1.04-2.96-2.54-5.7002-4.5-8.2197l1.0801-1.0801C716.9805,28.2412,719.1396,30.6807,720.8203,33.2812z M725.6797,30.041
				l-2.8799,1.9795c-1.1602-3.0791-2.7002-5.8398-4.6201-8.2793l1.1406-1.0801C721.7598,24.7412,723.8799,27.2012,725.6797,30.041z"
				/>
			<path class="st0" d="M751.7803,22.1211l-1.0205,16.3193c3.2793-2.3594,6.54-3.54,9.7803-3.54c4.0801,0,7.3896,1.29,9.9297,3.8701
				s3.8105,5.8105,3.8105,9.6904c0,4.0801-1.4102,7.4395-4.2305,10.0801c-2.8193,2.6396-6.2695,3.96-10.3496,3.96
				c-3.1602,0-5.9805-0.8398-8.46-2.5205c-2.7598-1.8789-4.1406-4.3398-4.1406-7.3799c0-1.0801,0.3496-1.999,1.0508-2.7598
				c0.6992-0.7598,1.5488-1.1396,2.5498-1.1396c0.7998,0,1.5,0.3096,2.0996,0.9297c0.6006,0.6201,0.9004,1.4307,0.9004,2.4297
				c0,0.3213-0.21,0.9512-0.6299,1.8906s-0.6299,1.4902-0.6299,1.6494c0,1.5205,0.6387,2.751,1.9199,3.6904
				c1.2793,0.9404,3.0195,1.4102,5.2197,1.4102c2.9189,0,5.2998-1.0098,7.1396-3.0303c1.8398-2.0195,2.7607-4.8691,2.7607-8.5498
				c0-3.8398-0.9004-6.8193-2.7002-8.9404c-1.7998-2.1191-4.2812-3.1797-7.4404-3.1797c-3.7197,0-6.6807,1.4395-8.8799,4.3193
				l-1.7998-0.3594l1.4395-22.4404h21.7803v3.6006H751.7803z"/>
			<path class="st0" d="M843.2197,52.0605c0,3.4805-2.1396,6.3213-6.4199,8.5205c-4.2803,2.2002-9.5996,3.2998-15.96,3.2998
				c-15.4004,0-23.0996-4.7402-23.0996-14.2197c0-3.7598,1.6992-7.0801,5.0996-9.96c3.0801-2.6406,7.2197-4.6396,12.4199-6
				l-1.5596-17.4004h4.3799l1.3799,16.3203c6.2402-1.4004,13.04-2.2803,20.4004-2.6406l0.1201,1.7402
				c-25.041,1.3604-37.5605,7.3408-37.5605,17.9404c0,4.5596,2.1992,7.9199,6.5996,10.0801
				c3.3203,1.5996,7.5605,2.3994,12.7207,2.3994c4.4795,0,8.5195-0.7197,12.1201-2.1602c3.4795-1.3594,5.7598-3.0391,6.8398-5.04
				c0.5195-0.999,0.7803-2.0186,0.7803-3.0596c0-1.8799-0.8408-3.1396-2.5205-3.7803c0.1201,0.7607-0.1006,1.4502-0.6602,2.0703
				c-0.5605,0.6201-1.2402,0.9297-2.04,0.9297c-0.7197,0-1.3496-0.2695-1.8896-0.8096s-0.8105-1.1699-0.8105-1.8906
				c0-0.7588,0.2705-1.3994,0.8105-1.9199c0.54-0.5195,1.209-0.7793,2.0098-0.7793c1.7998,0,3.3398,0.5195,4.6201,1.5596
				C842.4795,48.4219,843.2197,50.0205,843.2197,52.0605z"/>
			<path class="st0" d="M901.0596,42.4609c0,7.1201-2.9004,12.6602-8.6992,16.6201c-4.5605,3.1201-9.6211,4.6797-15.1807,4.6797
				c-3.3594,0-6.0508-0.6406-8.0693-1.9199c-2.0205-1.2793-3.0303-3.0195-3.0303-5.2197c0-1.6807,0.6396-3.0801,1.9199-4.2002
				c1.1602-1.04,2.46-1.5605,3.9004-1.5605c0.7988,0,1.459,0.2607,1.9795,0.7803c0.5195,0.5205,0.7803,1.1611,0.7803,1.9199
				c0,0.7207-0.2705,1.3506-0.8105,1.8906s-1.1699,0.8096-1.8896,0.8096c-0.7607,0-1.4102-0.2598-1.9502-0.7803
				c-0.54-0.5195-0.8096-1.1787-0.8096-1.9795c-1.001,0.6807-1.5,1.7002-1.5,3.0596c0,1.4404,0.6396,2.6406,1.9199,3.6006
				c1.5596,1.1602,3.8398,1.7393,6.8398,1.7393c5.4795,0,10.1797-1.8789,14.0996-5.6396c3.9199-3.7598,5.8809-8.2803,5.8809-13.5596
				c0-3.7598-1.1406-6.7002-3.4209-8.8203c-2.3994-2.1992-5.7803-3.2998-10.1396-3.2998c-7.96,0-15.9209,1.4199-23.8799,4.2598
				l-0.5996-1.6201c7.959-2.96,16.1191-4.4395,24.4795-4.4395c5.4795,0,9.8398,1.1602,13.0801,3.4795
				C899.3594,34.7012,901.0596,38.1016,901.0596,42.4609z M892.7803,18.2207l-0.96,4.0205
				c-4.4404-0.1201-9.2207-0.5195-14.3398-1.2002c-5.9209-0.7998-10.4404-1.7402-13.5605-2.8203l0.54-1.6797
				C869.0195,17.6611,878.46,18.2207,892.7803,18.2207z"/>
			<path class="st0" d="M963.8203,43.9609c0,5.7207-1.4209,10.4609-4.2607,14.2197c-2.96,3.8398-6.7793,5.7598-11.46,5.7598
				c-2.2402,0-4.1006-0.6104-5.5801-1.8301s-2.2197-2.9092-2.2197-5.0693c0-1.3594,0.4805-2.6191,1.4404-3.7803
				c1.0391-1.3203,2.3789-1.9795,4.0195-1.9795c0.7207,0,1.3506,0.2695,1.8906,0.8096s0.8096,1.1904,0.8096,1.9502
				c0,0.7197-0.2695,1.3408-0.8096,1.8594c-0.54,0.5205-1.1699,0.7803-1.8906,0.7803c-1.5996,0-2.5-0.7803-2.7002-2.3398
				c-0.7197,0.8398-1.0791,1.7998-1.0791,2.8799c0,1.3203,0.499,2.4404,1.5,3.3604c1.0791,1.04,2.5195,1.5596,4.3193,1.5596
				c3.3994,0,6.1895-1.71,8.3701-5.1299c2.1797-3.4199,3.2705-7.7695,3.2705-13.0498c0-11.04-4.1211-17.1992-12.3604-18.4805
				c-1.96,10.2812-4.5,18.501-7.6201,24.6602c-3.8799,7.6006-8.4004,11.4004-13.5596,11.4004c-3,0-5.3506-1.0898-7.0508-3.2705
				c-1.7002-2.1797-2.5498-5.1689-2.5498-8.9697c0-7.2793,3.1201-13.6396,9.3604-19.0801l-3.2998-11.5801l4.0801-1.2598
				l2.7598,10.1396c4.2793-2.6787,9.0596-4.0195,14.3398-4.0195h1.9199c0.4395-3.0801,0.6602-5.8994,0.6602-8.46h1.7998
				c0,2.9199-0.2002,5.7598-0.5996,8.5195c5.1992,0.6006,9.249,2.7109,12.1494,6.3301
				C962.3701,33.5117,963.8203,38.2012,963.8203,43.9609z M932.9805,56.2012l-6.7803-24.1201
				c-5.4404,4.8799-8.1602,10.6201-8.1602,17.2197c0,3.2402,0.6797,5.79,2.04,7.6504c1.3594,1.8594,3.2998,2.79,5.8203,2.79
				C928.2197,59.7412,930.5801,58.5615,932.9805,56.2012z M945.2197,25.2412c-0.3594-0.04-0.9199-0.0605-1.6797-0.0605
				c-5.001,0-9.6211,1.3604-13.8604,4.0801l6.2402,23.2803C940.3193,45.8203,943.4199,36.7217,945.2197,25.2412z"/>
			<path class="st0" d="M1013.5,63.2812l-4.4404,2.5791l-31.0791-25.9795c11.5195-5.9199,20.6592-10.7402,27.4199-14.46
				c3.4395-1.8799,5.1592-3.9795,5.1592-6.2998c0-0.9199-0.3506-1.71-1.0498-2.3701c-0.7002-0.6602-1.5508-0.9902-2.5498-0.9902
				c-0.4404,0-0.8398,0.0596-1.2002,0.1797c0.9199,0.5205,1.3799,1.3008,1.3799,2.3408c0,0.7197-0.25,1.3496-0.75,1.8896
				s-1.1504,0.8096-1.9492,0.8096c-0.7207,0-1.3506-0.2695-1.8906-0.8096s-0.8096-1.1699-0.8096-1.8896
				c0-1.2002,0.4697-2.1904,1.4102-2.9707c0.9395-0.7793,2.25-1.1699,3.9297-1.1699s3.0195,0.54,4.0195,1.6201
				c0.8799,0.9209,1.3203,2.0605,1.3203,3.4199c0,3.04-2.0205,5.6611-6.0596,7.8604c-2.1602,1.2002-9.7002,5.2197-22.6201,12.0596
				L1013.5,63.2812z M1018.4805,32.3809l-2.8203,2.2803c-1.2002-2.6797-2.9404-5.2998-5.2197-7.8604l1.0195-1.1396
				C1014.2998,27.7412,1016.6396,29.9805,1018.4805,32.3809z M1023.0996,28.7207l-2.6992,2.2197
				c-1.3604-2.9189-3.1201-5.5195-5.2803-7.7998l0.96-1.1396C1018.7598,23.8408,1021.0996,26.0811,1023.0996,28.7207z"/>
		</g>
	</g>
</g>
</svg>
