<?xml version="1.0" encoding="utf-8"?>
<!-- Generator: Adobe Illustrator 25.2.1, SVG Export Plug-In . SVG Version: 6.00 Build 0)  -->
<svg version="1.1" id="レイヤー_1" xmlns="http://www.w3.org/2000/svg" xmlns:xlink="http://www.w3.org/1999/xlink" x="0px"
	 y="0px" viewBox="0 0 1040 80" style="enable-background:new 0 0 1040 80;" xml:space="preserve">
<style type="text/css">
	.st0{fill:#1E1E28;}
</style>
<g>
	<g>
		<g>
			<path class="st0" d="M35.6201,43.7812l-5.2197,3.7197l-3.4805-2.9404l-0.3604,11.3398l0.0605,11.8809l-7.0205-1.8604
				l0.6006-10.6797l0.2402-8.8809l-4.3203,4.2607l-6-2.8799l7.8604-7.4404l5.6396-7.1396l2.5801-4.9199l-14.4004,0.2393l2.46-6
				l5.9404-0.4795l0.1797-9.7197l6.7803,2.0391l-0.4805,7.8008l3.0605-0.3008L31,20.7412l4.0801,4.5L31.96,31.3008l-4.2002,6.4199
				L35.6201,43.7812z M67.1201,54.2207l-6.6006,2.46l-0.7197-4.0195l-5.6396,0.2998L54.46,66.1006l-7.2598,2.04l0.4795-15.5996
				l-5.3398,0.54l-0.4795,2.5801l-6.7207,1.6797l0.8408-19.1396l-0.1201-16.7402l11.8193,0.1797l-0.1201-7.9795l7.3203-1.8008
				l-0.2998,9.7207l11.9395,0.3594l-0.3594,15.8408L67.1201,54.2207z M48.0996,39.9404L42.46,40.1807l-0.1201,7.0801l5.3398-0.3604
				L48.0996,39.9404z M48.04,34.3008l-0.1201-6.4805l-5.5195,0.1201v6.6602L48.04,34.3008z M59.4404,34.9609l-0.0605-7.2002
				l-5.0996,0.2998l-0.2998,6.2402L59.4404,34.9609z M59.6201,47.0811v-6.7207l-5.46-0.2998l0.1201,6.96L59.6201,47.0811z"/>
			<path class="st0" d="M101.8604,35.9805l-0.9004,9.3604l-1.1396,6.96l-7.0801,0.96l1.6797-7.2002l-3.1201,2.3398L88,45.041
				l-0.1797,8.1602v12.6592l-7.3799,2.2207l0.8398-12.3604l0.2393-8.8203l-5.0391,7.1406l-6.2402-2.46l7.3799-10.0205l3.54-7.0801
				L73.54,34.1211l-2.1602-6.1201l10.2002,0.1797l0.0596-6.1797l-6.4199,0.8398l-4.3799-5.5801L82.54,15.4004l8.2197-2.7598
				l5.1006,4.6201L88.54,20.3809l-0.2998,8.04l8.5801-0.1797l-2.1602,5.8799L88,34.6006l0.1201,2.8799l6.96,5.8203l0.0596-0.3604
				l1.0801-10.7393L101.8604,35.9805z M129.7598,45.4609l-5.7002,4.3203L120.04,39.3408l-4.0205,8.4004l-5.6396,8.8193
				l0.2402,1.8604l2.0996,1.2598l5.4004-0.1201l2.04-1.4395l1.0801-7.6201l6.3594,7.0195l-1.8594,7.0205l-6.54,2.1602
				l-10.1406-0.0605l-4.5-2.8799L104.5,60.7012l-6.1201,5.2793l-7.3203-3.54l8.7607-6.1201l3.5996-3.5391l0.5996-14.04
				l-0.2998-12.6006l6.96,3.3604l-1.2598,18.3594l4.2598-10.0195l3.54-12.3604l1.8604-11.2793l6.7803,5.3994l-2.2207,8.8799
				L121,35.9209l3.54-1.3799L129.7598,45.4609z M115.3604,19.4805l-5.8203,5.1602L100,18.2207l4.4404-4.9795L115.3604,19.4805z"/>
			<path class="st0" d="M186.04,38.7412l-1.0801,14.04l-1.0195,10.9795l-8.5205,4.0801l-8.04-8.8203l8.8799-0.0596l1.2598-1.9805
				l1.3809-16.6201l-0.4199-10.2598l-10.8008,0.1807l-4.1992,7.1992l-5.3408-1.0801l-0.2998,11.46l0.1797,13.5l-8.8193,0.96
				l-7.9199-0.1191l-0.4805,2.5801l-6.96,1.6191L134.5,22.0605l6.7803-0.1201l3.3594-9.7197L151,15.5205l-1.6797,6.4805
				l9.1797,0.6602l-0.2998,11.46l4.2002-8.8799l3.3594-13.0801l6.2998,3.96l-2.0996,7.2598l6.4199,0.1797l9.4199-0.7793
				L186.04,38.7412z M150.8203,55.2412l-0.0605-11.04l-9.2402,0.2998l-0.2998,10.9199L150.8203,55.2412z M151.54,28.6611h-10.0205
				l-0.1797,9.3594l9.7197,0.1807L151.54,28.6611z M175.5996,45.6406l-6.4795,4.4404l-6.54-10.7402l6.6602-2.2197L175.5996,45.6406z
				"/>
			<path class="st0" d="M224.4404,20.2012l-0.7207,7.9199l-7.2002,1.6797l-2.3398,0.2998l-3.7793,9.6006l-6.2402,11.6396
				l-8.5205-1.6797l7.5605-11.2207l3.1201-7.4395l-6.9004,0.54l-3.3604-7.5l12.7803-0.2402l3-12.3604l6.54,4.5l-1.9795,6.8408
				L224.4404,20.2012z M244.4199,56.1406l-6.5996,5.3398l-6.54-3.6602l-0.1807,4.8008l-5.2197,4.4395l-8.04-0.3594l-6.4199-3.3604
				l-3.1797-4.7402l1.0801-4.9795l4.7393-4.0801l5.5801-1.0801l4.8604,0.2402l-0.1201-6.1201l0.1201-8.7002l7.6201,3l-0.8398,8.04
				l-0.1807,5.3994l2.8809,1.1406L244.4199,56.1406z M224.3203,55.541l-3.96-0.7207l-3.7207,1.0801l-0.54,1.6807l1.7402,1.7393
				l4.5605,0.8408l1.7998-1.5605L224.3203,55.541z M247.1797,33.5205l-7.3193,4.5605l-5.9404-5.8799l-6-4.1406l6.7803-3.8994
				l4.3193,3.1797L247.1797,33.5205z"/>
			<path class="st0" d="M292.9004,64.6006l-4.9805-13.7998l-16.5596,0.54l-4.3799,13.2598l-8.4609-1.5l6.3604-16.2002L269.5,30.8809
				l4.7402-14.3398l10.7998-1.2002l4.9795,16.9199l5.1006,14.8799l6.4199,15.8398L292.9004,64.6006z M279.5801,22.6006
				l-6.3604,21.1201l12.7207,0.54L279.5801,22.6006z"/>
			<path class="st0" d="M359.2002,62.8008l-9.6602,1.6201l-3.96-10.1396l-5.1602-10.2607l-9-0.0596l0.4805,19.4395l-8.1006,1.6201
				l0.2998-33.2998l-0.4199-15.54l18.4805-0.1201l8.5801,1.5605l5.3994,4.1992l2.2207,8.4004l-3.4805,8.8203l-6.4199,3.1201
				l3.5996,8.46L359.2002,62.8008z M350.2002,29.7412l-2.1602-4.5l-5.6396-1.9805l-10.3809,0.2998l-0.5391,13.5h10.4395
				l5.8203-1.7402L350.2002,29.7412z"/>
			<path class="st0" d="M390.8203,36.6406l-6.7207,4.8604l-3.7197-9.7197l-4.7998-8.5205l7.8604-0.96l3.8994,5.8203
				L390.8203,36.6406z M423.5195,23.6211l-2.8799,11.7598l-4.2598,8.9395l-3.8994,6.9609l-5.7607,6.8994l-7.6797,6l-9.5996-3.7197
				l12.4795-8.8203l6.54-8.5801l4.7402-11.04l2.7598-14.3398L423.5195,23.6211z M405.2197,32.7412l-6.6602,4.5l-2.8799-9.1807
				l-3.96-8.46l7.6201-1.0801l3.2998,6.1807L405.2197,32.7412z"/>
			<path class="st0" d="M485.4404,21.8809L479.5,30.041l-6.0596,6.7793l-5.8809,4.4404l-4.5-1.8604l-0.54,4.3203l-2.46,8.6396
				l-4.3193,7.3203l-5.2207,5.7002l-9.8994-2.5205l9.2402-8.04l3.96-7.3193l1.8594-7.3799L455.5,28.541l7.7402,2.8799
				l-0.1201,3.8398l2.6396-1.6201l5.2803-4.6201l2.5195-3.4795L451.96,26.6211l-13.0195,0.8994l-4.3809-8.04l15.3604,0.0605
				l15.1201-0.54l12.54-0.9004l1.7998-1.2598L485.4404,21.8809z"/>
			<path class="st0" d="M545.6201,43.0605l-17.04-0.3594l-30.54,0.4795l-3.54-7.8604l18.6602,0.3008l12.4795-0.1807l16.5-0.4199
				L545.6201,43.0605z"/>
			<path class="st0" d="M604.54,24.2207l-9.96,1.5605l-6.7803,6.0596l-4.0801,5.6396l-2.46,6.4805l-0.2998,4.6797l1.1396,4.1406
				l3.1807,3.6592l10.7393,5.46l-9.8994,4.6201l-7.2598-4.6797L574.96,56.501l-2.1602-8.2197l1.4404-8.4004l5.2197-9.0605
				l5.2197-4.6797l-10.0195,1.4404l-7.7402,1.3799l-8.8203,1.9199l-5.3398-7.9805l13.6201-1.3193l23.3398-2.8799l9.7207-1.5605
				L604.54,24.2207z M602.2002,39.5811l-5.6406,2.5801l-5.6992-8.9404l5.1592-1.5596L602.2002,39.5811z M610.0596,36.5205
				l-5.6992,2.8203l-5.1602-8.8799l5.1602-1.9199L610.0596,36.5205z"/>
			<path class="st0" d="M656.3799,48.1006l-1.8604,9.9004l-5.6396,5.04l-8.8203,1.7998l-8.3398-1.4404l-5.0996-4.0195
				l-2.2803-5.4004L631,49.4209l2.5801,5.9395l5.9395,2.2803l6.8408-2.46l1.9199-6.4795l-0.96-4.6201l-2.7002-3.1201l-5.2803-1.1406
				l-5.2803,2.1602l-2.5791,2.7607l-6.54-2.1602l1.6797-12.3604l1.5596-13.8604l11.1006,0.1201l15.6602-0.3594l-2.5205,7.5596
				l-17.1602,0.1797l-1.8594,11.2803l3.1191-1.7402l5.9404-0.5996l7.6797,2.0996l4.5605,5.7002L656.3799,48.1006z"/>
			<path class="st0" d="M728.2002,38.6211l-2.7598,6.2393l-39.6602,0.1201l-0.1807,2.1006l13.3203,0.2393l12.7197-0.0596
				l12.0605-0.4795v16.9795l-7.5,4.4404l-5.6406-5.04v0.1797l-18.1191,0.3604l-11.3408-0.3604l-0.7197,3.3604l-6.4795-1.8604
				l0.6592-13.0801l6.4209,2.5205l0.1191,3l8.04,0.1797l0.1807-4.8604L678.04,52.3008l1.1396-17.6396L679,17.3203l14.3398-0.5391
				l1.9805-4.7402l7.1396,1.3193l-0.5996,3.6602l17.1592,0.54l-0.3594,10.4404l0.1797,9.0596L702.46,37.2412l-16.2002-0.0605
				l-0.2402,2.2803l14.04,0.1201l12.3008-0.1201L728.2002,38.6211z M711.2803,32.3203v-2.3994L699.46,29.8008l-13.2002,0.0596
				v2.5205l14.2207,0.1201L711.2803,32.3203z M711.46,23.0811l-11.8203-0.4805h-13.0801l-0.1191,2.7002l13.4395,0.1797
				l11.5205-0.1201L711.46,23.0811z M716.3799,52.9004l-11.5195-0.3594l-8.7002,0.0596l0.1201,5.2803l7.2002-0.4199l0.4199-4.2598
				l6.2998,2.04l0.2402,5.0996l4.3799-0.1201l1.4395-1.2598L716.3799,52.9004z"/>
			<path class="st0" d="M789.2197,57.9404l-3.8994,7.8008l-16.2607,0.5996l-17.1592-1.0801l-7.6201-3.54l-6.7803,6l-7.1396-5.04
				l9.1797-5.7002l0.2998-14.0996l-8.04,0.2998l2.8203-7.2002l12.7197,0.3604l-0.96,19.0801l8.4004,3.4199l16.5,0.7197
				L789.2197,57.9404z M747.9404,19.6611l-4.3203,7.1992l-9.0605-7.4395l5.5205-4.5L747.9404,19.6611z M762.7002,16.7207l-3,8.7002
				l-4.6201,9.0596l2.6396,7.2002l4.3203,13.4404l-7.6797,1.1396l-2.1602-10.2002l-3.6006-11.7002l4.6201-9.8994l3.54-11.3398
				L762.7002,16.7207z M774.3398,54.041l-7.6201,1.2002l-3.1201-9.6006l-4.4395-10.7998l4.9795-9.5996l4.0801-10.8604l5.46,4.0195
				l-4.0801,9.4199l-3.7197,7.0205l3.54,8.3398L774.3398,54.041z M789.2197,53.8008l-7.9795,2.04l-5.5801-11.1602l-5.5801-10.1396
				l6.6602-11.2207l4.4395-9.6592l5.9404,4.7393l-4.5605,7.8604l-5.0996,8.2197l5.1602,9.4199L789.2197,53.8008z"/>
			<path class="st0" d="M835.3604,43.3604l-1.6807,8.8809l-3.2393,7.5l-5.04,7.5596l-9.6602-1.5596l7.5596-9.4805l3.54-7.9795
				l1.2598-10.9209l-0.7197-6.0596l-1.6797-5.0996l-1.7402-1.0801l-3.1201,2.7598l-3.5996,7.2002l-2.5801,7.0801l-0.6006,8.6396
				l-7.1992-2.04l-0.54-7.9795l-0.2402-7.3203l0.5996-10.0801l1.8604-11.7002l7.3799,4.8604l-1.7402,5.6396l-1.1396,6.2998
				l-0.1201,3l2.5205-6.4795l4.2598-5.1006l4.2002-2.46l6.0596,2.04l3.7197,6.1201l1.6807,7.5605V43.3604z"/>
			<path class="st0" d="M907.96,41.2012L894.04,44.501l-7.0205,2.7598l0.3008,8.3398l-7.4404,1.6807l0.6006-4.2607v-2.7002
				l-4.0801,2.7002l-1.5605,3.1807l1.4404,2.0996l6.3594,1.4404L889,59.3809l8.2197-1.5l-2.46,8.4004l-11.2793,0.4795
				l-8.2803-1.3203l-5.8203-2.8193l-2.5195-6.0605l2.3398-5.9395l6.2402-4.9805l2.8799-1.4395l-1.6201-2.46l-5.2197-0.0605
				l-6.3008,7.6201l-8.5801-1.7402l8.46-9l4.8008-7.4395l-7.1406,0.3594l-4.6201-6.6602l11.8203-0.4199l3.4199-0.4199
				l4.5605-12.0596l5.8799,5.5195l-2.2207,5.1006l10.8604-3.7207l-1.9795,7.8604l-7.3203,2.2197l-4.9805,1.3203l-3.8994,5.8799
				l2.6396-0.2998l3.8398,0.3604l3.0605,3.3594l1.0801,1.6201l5.6396-2.3398l11.46-3.5996L907.96,41.2012z"/>
			<path class="st0" d="M969.8799,52.7812l-6.1797,4.0791l-4.5-5.6396l-1.2598,4.9199l-6.3008,0.3604L951.04,67.9004l-6.54-2.2197
				l-0.3604-9.3604l-6.3594-0.4795l-1.3203-3.9004l-4.2002,4.6807l-5.5195-2.9404l0.4199,14.1602l-8.04-1.9199l0.7197-14.8799
				l0.0605-10.7998l-3.4805,4.7393l-6.2998-2.3994l5.8799-9l5.1602-9.2998l4.7998-11.9404l5.5205,5.2803l-1.9209,5.04l14.46,0.1797
				l0.3008-8.3398l6.96-2.2197l0.2998,10.6797l16.3799-0.54l-2.7002,7.0801L952.96,29.9209l4.6201,8.5801l5.7598,7.7998
				L969.8799,52.7812z M942.6396,29.6807l-10.9795-0.4199l-2.3398-6.0596l-2.7607,7.3193l0.2402,10.2607l-0.0596,11.0391
				l6.4795-6.4199l5.7607-8.0996L942.6396,29.6807z M944.9199,38.6807L941.5,44.7412l-3.4805,5.2793l6.3008-0.2393L944.9199,38.6807
				z M958.4199,50.2012l-0.1797-0.1807l-4.3203-6.2393l-2.9395-5.2803l0.1797,11.46L958.4199,50.2012z"/>
			<path class="st0" d="M978.0996,53.3203l-2.8193,11.2207l-4.6807-1.2002l1.8604-11.2803L978.0996,53.3203z M1029.8799,29.0811
				l-6.0596,3.7793l-3.3008-2.8193l-1.3799-1.4404l-0.4795,2.2197l-3.1797,0.4805l-0.1807,2.7598l10.3799,0.2402l0.3008,15
				l-8.6406,0.4805l2.04,3.8398l4.4404,5.2197l6,4.4404l-6.4805,4.3193l-4.5596-4.6797l-3.2402-4.3799l-2.7002-4.4404l-1.3799,3.54
				l-3.1797,5.2197l-4.3799,5.04l-7.0205-3.1797l6.1797-5.2803l3.1201-4.3193l1.9805-5.2803l-8.3398-0.3604l0.54-15.2393
				l9.0596-0.3008l-0.1797-2.5801l-3.3604-0.4795l-0.4795-1.9199l-0.1807,0.1201l-3.7793,4.0195l-6-3.2998l0.6592-0.5996
				l-5.3398,0.5996l-0.1797,3.5996l7.0195-0.4199l-1.0801,4.8008l-5.5791,0.8994l-0.3008,3.0605l7.1406-0.6602l-0.1201,12.2393
				L997,64.6006l-6.0596,3.6006l-6.54-7.1406l6.0596-0.4199l0.96-0.8994l0.4199-3.6602l-1.9199,0.8994l-2.04-7.2598l2.6396-0.6602
				l1.6807,5.46l-0.2998-6.8994l-11.8809,0.0596l-0.6592,2.2197l-5.5801,0.6602l0.7197-18.96l0.1201-17.46l11.2803,0.3604
				l13.5596-0.6602l-1.8604,6.7197l-6.7793,0.0605L991,24.5205l4.7402,0.0605l1.5596,3.54l3.9004-3.54l4.9795-6.1807l3.3604-6.4199
				l6.8398,1.3799l-0.3604,1.2607l3.54,4.8594l5.5205,5.7607L1029.8799,29.0811z M983.7402,60.4609l-4.6807,1.8594l-1.0791-11.0391
				l3.6592,0.1191L983.7402,60.4609z M985,41.8604l-0.1201-3.8398L980.5,38.4404l-0.1797,3.54L985,41.8604z M985.4199,29.6211
				l-4.7998-0.0605v3.4805h4.5L985.4199,29.6211z M985,24.5205v-4.0801l-4.2598-0.1201l0.1201,4.1406L985,24.5205z
				 M988.6602,58.0605l-3.2998,1.6201l-2.46-9.2402l3.2393-0.2998L988.6602,58.0605z M1009.6602,39.4004l-4.0801-0.1191v4.9199
				l3.9004,0.2998L1009.6602,39.4004z M1017.0996,25.6006l-1.5596-1.6797l-3.3604-4.6797l-2.3994,3.8994l-2.1602,2.5801
				l4.6201,0.2402L1017.0996,25.6006z M1020.04,39.6406l-4.4404-0.4199l-0.2393,5.3398l4.5-0.1201L1020.04,39.6406z"/>
		</g>
	</g>
</g>
</svg>
