<?xml version="1.0" encoding="utf-8"?>
<!-- Generator: Adobe Illustrator 25.2.1, SVG Export Plug-In . SVG Version: 6.00 Build 0)  -->
<svg version="1.1" id="レイヤー_1" xmlns="http://www.w3.org/2000/svg" xmlns:xlink="http://www.w3.org/1999/xlink" x="0px"
	 y="0px" viewBox="0 0 1040 80" style="enable-background:new 0 0 1040 80;" xml:space="preserve">
<style type="text/css">
	.st0{fill:#1E1E28;}
</style>
<g>
	<g>
		<g>
			<path class="st0" d="M61.96,45.4609c0,5.6797-2.1201,10.3604-6.3604,14.04c-4,3.4795-8.9004,5.2197-14.6992,5.2197
				c-13.001,0-19.5-5.2393-19.5-15.7197V15.7012h7.0195v33.54c0,9.0801,4.2598,13.6191,12.7803,13.6191
				c5.1992,0,9.6191-1.5791,13.2598-4.7393c3.8398-3.2793,5.7598-7.5,5.7598-12.6602c0-2.2803-0.4795-4.46-1.4395-6.54
				c-1.0801-2.3193-2.5605-3.9395-4.4404-4.8604c0.1201,0.3604,0.1797,0.7002,0.1797,1.0205c0,1.1201-0.3799,2.0498-1.1396,2.79
				s-1.7002,1.1094-2.8203,1.1094c-1.04,0-1.9404-0.3691-2.6992-1.1094c-0.7607-0.7402-1.1406-1.6299-1.1406-2.6699
				c0-1.1602,0.3799-2.1094,1.1406-2.8506c0.7588-0.7393,1.7393-1.1094,2.9395-1.1094c3.4395,0,6.2197,1.5596,8.3398,4.6797
				C61.0195,38.6807,61.96,41.8604,61.96,45.4609z"/>
			<path class="st0" d="M125.6201,49.541c0,4.3193-1.4609,7.8809-4.3799,10.6797c-2.9209,2.7998-6.54,4.2002-10.8604,4.2002
				c-7.6006,0-11.3994-3.3193-11.3994-9.96V38.3203c0-2.1592-0.8008-3.2393-2.4004-3.2393c-1.4004,0-2.8604,0.6396-4.3799,1.9199
				c-1.6406,1.4004-2.6406,2.7207-3,3.96l-6.4805,23.0996L76,63.1006l13.4404-48.1201l6.8994,0.96L90.46,36.5811
				c2.4004-2.4795,5.1201-3.7207,8.1602-3.7207c4.7197,0,7.0801,2.3809,7.0801,7.1406v14.8799c0,5.0801,1.8594,7.6201,5.5801,7.6201
				c3.5596,0,6.5488-1.2598,8.9697-3.7803c2.4199-2.5195,3.6299-5.5801,3.6299-9.1797c0-1.7998-0.3809-3.46-1.1396-4.9805
				c-0.8809-1.7188-2.1006-2.8799-3.6602-3.4795c0.0801,0.2803,0.1201,0.5605,0.1201,0.8398c0,1.0801-0.3701,2.0205-1.1104,2.8203
				s-1.6299,1.1992-2.6699,1.1992c-1.1201,0-2.0703-0.3789-2.8496-1.1396c-0.7803-0.7598-1.1699-1.6992-1.1699-2.8203
				c0-1.1191,0.3896-2.04,1.1699-2.7598c0.7793-0.7197,1.7295-1.0801,2.8496-1.0801c3.0391,0,5.499,1.1309,7.3799,3.3906
				C124.6797,43.791,125.6201,46.4609,125.6201,49.541z"/>
			<path class="st0" d="M186.2803,27.2207c0,2.3604-1.0205,4.2002-3.0605,5.5205c-1.3193,0.8799-2.7998,1.3193-4.4395,1.3193
				c-0.8398,0-1.7012-0.0996-2.5801-0.2998c2.1992,4.6797,3.3193,9.0811,3.3594,13.2002c0.0801,5.4805-1.8203,9.8994-5.6992,13.2598
				c-3.7207,3.2002-8.3408,4.7998-13.8604,4.7998c-6.2803,0-11.3203-1.6201-15.1201-4.8594c-4-3.4404-6-8.2402-6-14.4004
				c0-5.3594,1.5391-10.46,4.6201-15.2998c2.4395-3.8398,5.499-7.4795,9.1797-10.9199h-14.46v-1.6807h23.2207v1.2607
				c-7.4404,6.96-12.1611,13.46-14.1602,19.5c-0.8809,2.6006-1.3203,5.3203-1.3203,8.1602c0,4.8398,1.2998,8.7197,3.9004,11.6396
				c2.7598,3.0801,6.5186,4.6201,11.2793,4.6201c4.6396,0,8.5801-1.5195,11.8203-4.5605c3.2402-3.0391,4.8398-6.8789,4.7998-11.5195
				c-0.04-5.8799-2-11.54-5.8799-16.9805l1.5605-0.8994c0.3994,0.5996,0.9795,1.4805,1.7393,2.6396
				c0.96,0.4404,1.9805,0.6602,3.0605,0.6602c0.4795,0,0.9795-0.0391,1.5-0.1201c1.6797-0.2793,2.8398-0.9004,3.4795-1.8604
				c-1.04,0.1611-1.9902-0.0693-2.8496-0.6895c-0.8604-0.6201-1.29-1.4697-1.29-2.5498c0-0.96,0.3389-1.7793,1.0195-2.46
				c0.6797-0.6797,1.5205-1.0205,2.5205-1.0205c1.04,0,1.9092,0.3301,2.6104,0.9902
				C185.9297,25.3311,186.2803,26.1807,186.2803,27.2207z M184.6602,17.6807c0,1.4805-0.5508,2.7705-1.6504,3.8701
				c-1.1006,1.1006-2.4102,1.6504-3.9297,1.6504c-1.5205,0-2.8105-0.54-3.8701-1.6201c-1.0605-1.0801-1.5898-2.3799-1.5898-3.9004
				c0-1.5195,0.5293-2.8203,1.5898-3.8994c1.0596-1.0801,2.3496-1.6201,3.8701-1.6201c1.5195,0,2.8291,0.5498,3.9297,1.6494
				C184.1094,14.9111,184.6602,16.2012,184.6602,17.6807z M183.1602,17.6807c0-1.1191-0.3906-2.0703-1.1699-2.8496
				c-0.7803-0.7803-1.751-1.1699-2.9102-1.1699c-1.1611,0-2.1104,0.3799-2.8496,1.1396c-0.7412,0.7607-1.1104,1.7207-1.1104,2.8799
				c0,1.1611,0.3691,2.1104,1.1104,2.8506c0.7393,0.7402,1.6885,1.1094,2.8496,1.1094c1.1592,0,2.1299-0.3691,2.9102-1.1094
				C182.7695,19.791,183.1602,18.8418,183.1602,17.6807z"/>
			<path class="st0" d="M242.6201,20.2607c-8.2803,0-15.4004,2.2607-21.3604,6.7803c-6.5605,4.96-9.8398,11.46-9.8398,19.5
				c0,4.5996,1.2002,8.3604,3.5996,11.2793c2.6006,3.1201,6.1602,4.6807,10.6807,4.6807c3.4395,0,6.459-0.9199,9.0596-2.7598
				c2.8398-2.0801,4.2598-4.8008,4.2598-8.1602c0-2.3604-0.8604-4.1201-2.5791-5.2803c0.1992,1.1201-0.1006,2.0996-0.9004,2.9404
				c-0.8008,0.8398-1.7803,1.2598-2.9404,1.2598c-1.0801,0-2-0.3604-2.7598-1.0801s-1.1396-1.6201-1.1396-2.7002
				c0-1.1592,0.3799-2.1094,1.1396-2.8496s1.7402-1.1104,2.9404-1.1104c2.3594,0,4.29,0.8799,5.79,2.6396
				c1.5,1.7607,2.25,3.8203,2.25,6.1807c0,4.04-1.6807,7.2598-5.04,9.6602c-2.9609,2.1191-6.5205,3.1797-10.6807,3.1797
				c-6.04,0-10.96-1.5-14.7598-4.5c-4.1602-3.3193-6.2402-7.8994-6.2402-13.7402c0-6.4395,2.8809-12.1201,8.6406-17.04
				c4.7598-4.1191,10.6396-7.0996,17.6396-8.9395h-33.54v-1.8008h45.7803V20.2607z"/>
			<path class="st0" d="M305.2002,34.1807h-10.3203l1.6201,12h-6.2998c-4.2812-3.0791-8.8799-4.6201-13.7998-4.6201
				c-3.3604,0-6.2012,0.8613-8.5205,2.5801c-2.5605,1.9199-3.8398,4.5-3.8398,7.7402c0,4.041,1.6797,7.0605,5.04,9.0596
				c2.6797,1.6006,6.1992,2.4004,10.5596,2.4004c2.8398,0,5.7393-0.4404,8.7002-1.3203c3.8799-1.1592,6.2197-2.7393,7.0205-4.7393
				c-0.5605,0.6797-1.2812,1.0195-2.1602,1.0195c-1.1201,0-2.0312-0.3604-2.7305-1.0801c-0.7002-0.7197-1.0498-1.6396-1.0498-2.7598
				c0-1.1191,0.3799-2.04,1.1396-2.7598c0.7598-0.7207,1.7197-1.0801,2.8809-1.0801c1.3193,0,2.4092,0.4199,3.2695,1.2598
				c0.8594,0.8398,1.29,1.9199,1.29,3.2402c0,3.5195-2.6006,6.2002-7.7998,8.04c-3.7607,1.3193-7.7607,1.9795-12,1.9795
				c-5.6406,0-10.2598-0.8398-13.8604-2.5195c-4.7998-2.2803-7.2002-5.9404-7.2002-10.9805c0-4.1592,2-7.3203,6-9.4795
				c3.2402-1.8008,7.1201-2.7002,11.6406-2.7002c5.6396,0,10.459,1.2998,14.46,3.8994l-1.2598-9.1797h-30.6006V32.501h30.2998
				l-1.1396-7.8604h-29.1602v-1.6797h28.8604l-1.1406-7.8604h7.0801l1.0801,7.8604h11.9404v1.6797H293.5l1.0801,7.8604h10.6201
				V34.1807z"/>
			<path class="st0" d="M344.2002,25.3604h-12.1201l-10.9805,35.04l-6.4795-1.4395l10.5596-33.6006h-8.9395v-1.6797h9.4795l2.8799-9
				l6.4805,1.0801l-2.5205,7.9199h11.6406V25.3604z M366.8203,52.3008l-1.2002,1.3799c-3.6807-3.1592-7.2002-5.499-10.5605-7.0195
				v6.8398c0,7.7607-4.3604,11.6396-13.0791,11.6396c-3.6406,0-6.6602-0.8604-9.0605-2.5801
				c-2.7207-1.9199-4.0801-4.6592-4.0801-8.2197c0-4.04,1.5391-7.1191,4.6201-9.2402c2.6797-1.8799,6.1201-2.8193,10.3203-2.8193
				c1.4795,0,3,0.1602,4.5596,0.4795V23.6807h8.6406c2.5996,0,4.7793,0.54,6.5391,1.6201c2.04,1.3203,3.0605,3.2207,3.0605,5.7002
				c0,1.4805-0.4307,2.7002-1.29,3.6602c-0.8604,0.96-2.0303,1.4395-3.5098,1.4395c-1.0801,0-2.001-0.3496-2.7607-1.0498
				c-0.7598-0.6992-1.1396-1.6094-1.1396-2.7305c0-1.1191,0.3691-2.0293,1.1104-2.7295c0.7393-0.6992,1.6699-1.0498,2.79-1.0498
				c1.5596,0,2.5801,0.7002,3.0596,2.0996c-0.1201-1.7188-1.0195-3.0596-2.7002-4.0195c-1.4004-0.8398-3.0205-1.2607-4.8594-1.2607
				h-2.2207v19.3203C358.54,46.2012,362.46,48.7412,366.8203,52.3008z M348.3398,54.6406V44.4404
				c-1.6406-0.2393-3.1602-0.3594-4.5596-0.3594c-3.7607,0-6.7803,0.7598-9.0605,2.2793c-2.7207,1.7607-4.0801,4.4209-4.0801,7.9805
				c0,2.7998,1.0205,5.0205,3.0605,6.6602c1.9199,1.5596,4.3193,2.3398,7.2002,2.3398
				C345.8594,63.3408,348.3398,60.4414,348.3398,54.6406z"/>
			<path class="st0" d="M423.6396,59.9209h1.0205v1.7998h-19.3799v-1.7998h1.5c2.8799,0,4.3193-0.8398,4.3193-2.5205
				c0-0.6797-0.2002-1.4785-0.5996-2.3994l-3.3604-8.2803h-18.96L385.54,53.501c-0.4404,1.1602-0.6602,2.1602-0.6602,3
				c0,0.8799,0.2598,1.5801,0.7803,2.0996c0.9199,0.8809,2.1602,1.3203,3.7197,1.3203H391v1.7998h-15.7197v-1.7998h1.2002
				c3.1191,0,5.6787-2.6602,7.6797-7.9805l11.8203-31.1396l6.1797-3L418.54,56.4404
				C419.5391,58.7607,421.2402,59.9209,423.6396,59.9209z M388.8398,44.9209h17.5205l-9.1201-22.2002L388.8398,44.9209z"/>
			<path class="st0" d="M464.0801,40.0605l9.4795,14.4004c1.4404,2.1602,2.8398,3.6406,4.2002,4.4395
				c1.2002,0.6807,2.7598,1.0205,4.6807,1.0205v1.7998H469.96l-13.6797-21.6602h-4.1406v16.2002
				c0,1.7998,0.6006,2.9199,1.8008,3.3604c0.5596,0.2002,1.9395,0.2998,4.1396,0.2998v1.7998h-18.9004v-1.7998
				c2,0,3.3604-0.1396,4.0801-0.4199c1.3203-0.4805,1.9805-1.5605,1.9805-3.2402V24.8203c0-1.8789-0.3809-3.0986-1.1406-3.6592
				c-0.7598-0.5596-2.3994-0.8408-4.9199-0.8408v-1.7998h22.3799c4.4404,0,8.2002,0.9307,11.2803,2.79
				c3.0801,1.8604,4.6201,4.6709,4.6201,8.4307c0,3.2803-1.4609,5.8604-4.3799,7.7393
				C470.5996,39.0811,467.5996,39.9404,464.0801,40.0605z M452.1396,24.8203v13.4404h7.5c4.1201,0,6.7998-0.8398,8.04-2.5195
				c1.5195-2.04,2.2803-4.1797,2.2803-6.4209c0-3.5996-1.4004-6.0986-4.2002-7.5c-2-0.999-5.04-1.5-9.1201-1.5
				c-1.7998,0-3,0.3008-3.5996,0.9004S452.1396,23.0205,452.1396,24.8203z"/>
			<path class="st0" d="M509.6797,39.2812l-7.2598,2.2793c-1.3203-7.959-3.6201-15.5195-6.9004-22.6797l1.5-0.8398
				C502.2197,23.7617,506.4404,30.8418,509.6797,39.2812z M543.1602,17.8008c0,12.04-1.9199,22.0801-5.7598,30.1201
				c-5.0811,10.7197-12.9814,16.0801-23.7002,16.0801c-3.1201,0-5.6807-0.7002-7.6807-2.1006
				c-2.2402-1.5986-3.3594-3.8994-3.3594-6.8994c0-2,0.7197-3.7803,2.1602-5.3398c1.4395-1.5605,3.1396-2.3408,5.0996-2.3408
				c1.2393,0,2.2598,0.3516,3.0605,1.0508c0.7988,0.7002,1.1992,1.6699,1.1992,2.9102c0,1.0791-0.4004,2.0195-1.1992,2.8193
				c-0.8008,0.8008-1.7402,1.2002-2.8203,1.2002c-1.1201,0-2.0801-0.3193-2.8799-0.96c-0.8008-0.6396-1.2002-1.5-1.2002-2.5801
				c0-0.1992,0.0391-0.4199,0.1201-0.6602c-1.2402,0.96-1.8604,2.3203-1.8604,4.0801c0,2.2412,0.9004,3.9805,2.7002,5.2197
				c1.5596,1.0801,3.5,1.6201,5.8203,1.6201c8.5586,0,14.8389-5.6396,18.8398-16.9199c2.7988-7.8389,4.2002-16.9395,4.2002-27.2998
				H543.1602z M525.0996,38.2607l-7.1992,2.04c-0.96-7.8398-2.9404-15.5195-5.9404-23.04l1.4404-0.7197
				C518.2793,22.1016,522.1797,29.3418,525.0996,38.2607z"/>
			<path class="st0" d="M584.1396,47.2607c0,4.8408-1.46,8.8008-4.3799,11.8799c-3,3.2012-6.8994,4.7998-11.7002,4.7998
				c-3.04,0-5.5195-0.7793-7.4395-2.3398c-2.0801-1.6797-3.1201-3.999-3.1201-6.96c0-1.959,0.6396-3.7295,1.9199-5.3096
				c1.2793-1.5801,2.8799-2.3701,4.7998-2.3701c1.2002,0,2.1904,0.3506,2.9707,1.0498c0.7793,0.7002,1.1699,1.6299,1.1699,2.79
				c0,1.041-0.3906,1.9404-1.1699,2.7002c-0.7803,0.7598-1.6904,1.1396-2.7305,1.1396c-1.1602,0-2.0908-0.3594-2.79-1.0801
				c-0.7002-0.7197-0.9707-1.6592-0.8096-2.8193c-1.0801,0.8799-1.6201,2.2197-1.6201,4.0195c0,2.2002,0.8398,3.9805,2.5195,5.3398
				c1.5605,1.2402,3.46,1.8604,5.7002,1.8604c6.7598,0,10.1396-5.0596,10.1396-15.1797V30.9404h6.54V47.2607z M604.2402,18.4004
				c-3.5605,9.9209-9.7607,18.2012-18.6006,24.8408l-1.2598-1.5c4.7197-5.7998,8.4199-12.9805,11.1006-21.54h-37.3203v-1.8008
				H604.2402z"/>
			<path class="st0" d="M663.8799,32.0205c0,3.8008-1.21,6.6904-3.6299,8.6699c-2.4209,1.9805-5.5498,2.9707-9.3896,2.9707h-34.8008
				v-6.3008h35.6406c2.5996,0,4.7793-0.3994,6.54-1.1992c2.3193-1.1201,3.4795-2.8203,3.4795-5.1006
				c0-2.0791-0.8799-3.5596-2.6396-4.4395c0.1992,1.2402-0.0703,2.3398-0.8105,3.2998s-1.7305,1.4395-2.9697,1.4395
				c-1.1602,0-2.1201-0.3691-2.8799-1.1094s-1.1396-1.6895-1.1396-2.8506c0-1.1191,0.4287-2.04,1.29-2.7598
				c0.8594-0.7197,1.8691-1.0801,3.0293-1.0801c2.3193,0,4.2803,0.8311,5.8809,2.4902
				C663.0791,27.7109,663.8799,29.7012,663.8799,32.0205z"/>
			<path class="st0" d="M722.1396,20.2607c-8.2402,0-15.3398,2.2607-21.2998,6.7803c-6.5205,4.96-9.7803,11.46-9.7803,19.5
				c0,4.5596,1.2002,8.3203,3.6006,11.2793c2.5996,3.1201,6.1396,4.6807,10.6201,4.6807c3.4395,0,6.4395-0.9395,9-2.8203
				c2.8799-2.04,4.3398-4.7402,4.3799-8.0996c0-2.3604-0.8398-4.1201-2.5205-5.2803c0.1602,1.1201-0.1699,2.0996-0.9893,2.9404
				c-0.8203,0.8398-1.8105,1.2598-2.9707,1.2598c-1.04,0-1.9404-0.3691-2.6992-1.1104c-0.7607-0.7393-1.1406-1.6289-1.1406-2.6699
				c0-1.1191,0.3906-2.0596,1.1699-2.8203c0.7803-0.7588,1.7295-1.1396,2.8506-1.1396c2.3193,0,4.2393,0.8799,5.7598,2.6396
				c1.5195,1.7607,2.2803,3.8203,2.2803,6.1807c0,4.04-1.6807,7.2598-5.04,9.6602c-3,2.1191-6.5811,3.1797-10.7402,3.1797
				c-6.04,0-10.9404-1.5-14.7002-4.5c-4.1201-3.2793-6.1797-7.8604-6.1797-13.7402c0-6.4795,2.8799-12.1797,8.6396-17.0996
				c4.7998-4.1201,10.7002-7.0801,17.7002-8.8799h-33.6602v-1.8008h45.7197V20.2607z M721.4199,33.2207l-3.8398,2.8203
				c-1.5605-3.6396-3.2803-6.5801-5.1602-8.8203l1.0801-1.0195C716.5,28.0811,719.1396,30.4219,721.4199,33.2207z M726.8203,29.6211
				l-3.6602,2.8799c-1.2812-3.1592-3.04-6.0996-5.2803-8.8203l1.1396-1.0801C722.1396,24.5205,724.7393,26.8604,726.8203,29.6211z"
				/>
			<path class="st0" d="M773.2002,18.5205v5.4004h-22.0205l-1.0801,15.4199c2.7998-2.8799,6.2002-4.3203,10.2002-4.3203
				c4.0801,0,7.5303,1.2607,10.3506,3.7803c2.8193,2.5195,4.2295,5.8008,4.2295,9.8398c0,4.2812-1.54,7.6602-4.6201,10.1406
				s-6.6807,3.7197-10.7998,3.7197c-3.2402,0-6.1602-0.7598-8.7598-2.2803c-3.04-1.8389-4.5605-4.2598-4.5605-7.2598
				c0-1.3994,0.3994-2.5596,1.2002-3.4805c0.7998-0.9189,1.8398-1.3799,3.1201-1.3799c0.9199,0,1.7295,0.3408,2.4297,1.0205
				c0.7002,0.6807,1.0508,1.5205,1.0508,2.5195c0,0.6406-0.3008,1.4912-0.9004,2.5498c-0.5996,1.0605-0.9004,1.751-0.9004,2.0703
				c0,1.2002,0.6699,2.2402,2.0107,3.1201c1.3389,0.8799,2.8496,1.3203,4.5293,1.3203c5.7998,0,8.7002-3.8193,8.7002-11.46
				c0-3-0.7002-5.6201-2.0996-7.8604c-1.6406-2.6396-3.8809-3.96-6.7207-3.96c-1.7197,0-3.3994,0.4502-5.04,1.3496
				c-1.6406,0.9004-2.9004,2.0908-3.7793,3.5703h-1.9805l1.6201-23.8203H773.2002z"/>
			<path class="st0" d="M843.7002,51.1006c0,4.7998-2.9609,8.4209-8.8799,10.8604c-4.4014,1.7998-9.4004,2.7002-15,2.7002
				c-6.2012,0-11.2607-0.9404-15.1807-2.8203c-5.2793-2.5205-7.9199-6.54-7.9199-12.0596c0-4.1201,2.0195-7.7002,6.0605-10.7402
				c3.0791-2.3604,6.999-4.1602,11.7598-5.4004l-1.7402-17.8203h6.96l1.3799,16.2002c4.4795-1.0801,11.0195-1.9395,19.6201-2.5801
				L841,31.3008c-10.041,0.5996-17.6396,1.7207-22.7998,3.3604c-9.5205,3.04-14.2803,8.1201-14.2803,15.2393
				c0,8.4404,6.0996,12.6602,18.2998,12.6602c4.2393,0,8.2598-0.8193,12.0605-2.46c4.8799-2.1191,7.3193-4.999,7.3193-8.6396
				c0-0.3203-0.04-0.8398-0.1191-1.5605c-0.041,0.8008-0.4414,1.5-1.2002,2.1006c-0.7607,0.5996-1.5605,0.8994-2.4004,0.8994
				c-1.1602,0-2.1406-0.3691-2.9395-1.1094c-0.8008-0.7402-1.2002-1.6699-1.2002-2.79c0-1.1191,0.4092-2.0498,1.2295-2.79
				c0.8193-0.7402,1.79-1.1104,2.9102-1.1104c1.7598,0,3.1699,0.5508,4.2305,1.6504
				C843.1689,47.8516,843.7002,49.3008,843.7002,51.1006z"/>
			<path class="st0" d="M901.7803,43.541c0,6.5605-2.3398,11.7402-7.0205,15.54c-4.3193,3.4795-9.8398,5.2197-16.5596,5.2197
				c-3.4404,0-6.3408-0.6406-8.7002-1.9199c-2.9199-1.6396-4.3799-4.04-4.3799-7.2002c0-1.4395,0.459-2.7002,1.3799-3.7803
				c0.9199-1.0801,2.0791-1.6191,3.4805-1.6191c1.2393,0,2.2588,0.3291,3.0596,0.9893c0.7998,0.6602,1.2002,1.5898,1.2002,2.79
				c0,1.0801-0.3604,2.0205-1.0801,2.8203c-0.7197,0.8008-1.6201,1.2002-2.7002,1.2002c-1.7607,0-2.9199-0.6201-3.4795-1.8604
				c-0.0811,2.2002,1.0791,3.9404,3.4795,5.2197c1.9199,1.041,4.0801,1.5605,6.4805,1.5605c5.3193,0,9.6191-1.8994,12.8994-5.7002
				c3.0801-3.5996,4.6201-8.0996,4.6201-13.5c0-4.04-1.1602-7.1797-3.4795-9.4199c-2.3203-2.2402-5.5205-3.3604-9.6006-3.3604
				c-7.4004,0-15.2998,1.4805-23.7002,4.4404l-0.54-1.7998c9.4404-3.0801,17.96-4.6201,25.5605-4.6201
				c5.5596,0,9.9795,1.0801,13.2598,3.2402C899.8398,34.3408,901.7803,38.2607,901.7803,43.541z M893.1396,17.501l-1.3193,6.54
				c-12.041-0.7998-21.7607-2.7998-29.1602-6l0.5996-1.5605c3.6797,0.6807,8.5,1.0801,14.46,1.2002
				C883.7197,17.8008,888.8594,17.7412,893.1396,17.501z"/>
			<path class="st0" d="M964.7803,43.9609c0,5.6396-1.4209,10.4004-4.2607,14.2803c-3.1602,4.3193-7.46,6.4795-12.8994,6.4795
				c-2.5605,0-4.6006-0.6201-6.1201-1.8604c-1.7207-1.3994-2.5801-3.3389-2.5801-5.8193c0-1.6807,0.54-3.1396,1.6201-4.3799
				c1.0801-1.2393,2.4395-1.8604,4.0801-1.8604c1.1592,0,2.1602,0.3604,3,1.0801s1.2598,1.6406,1.2598,2.7598
				c0,1.1201-0.3809,2.0605-1.1396,2.8203c-0.7607,0.7598-1.7012,1.1396-2.8203,1.1396c-2.1602,0-3.4004-0.7393-3.7197-2.2197
				c-0.2402,0.5205-0.3604,1.041-0.3604,1.5596c0,0.9209,0.3604,1.8408,1.0801,2.7607c1.0801,1.4395,2.7002,2.1592,4.8604,2.1592
				c3.9189,0,6.8398-2.3398,8.7598-7.0195c1.4404-3.4395,2.1602-7.3994,2.1602-11.8799c0-4.7197-0.7607-8.6406-2.2803-11.7598
				c-1.8809-3.9199-4.8604-6.2793-8.9395-7.0801C945,33.4814,942.8398,40.9219,940,47.4404
				c-4.3203,10.041-9.2998,15.0605-14.9404,15.0605c-3.3594,0-5.8799-1.3994-7.5596-4.2002
				c-1.4004-2.3193-2.0996-5.2803-2.0996-8.8799c0-3.3604,0.7793-6.6992,2.3398-10.0205c1.4795-3.1592,3.4795-5.9395,6-8.3398
				l-3.4805-12.3594l6.4805-1.9805l2.8193,9.9004c3.7998-2.4004,8.3799-3.6006,13.7402-3.6006h1.4404
				c0.4395-3.96,0.6602-6.7393,0.6602-8.3398h1.8594c0,2.4805-0.1797,5.3008-0.54,8.46c5.8799,0.5605,10.3594,2.6807,13.4404,6.3604
				C963.2393,33.1816,964.7803,38.001,964.7803,43.9609z M931.2998,57.5205l-7.0195-24.6602
				c-4.7607,4.8408-7.1406,10.3809-7.1406,16.6201c0,3.041,0.5596,5.5605,1.6807,7.5605c1.3594,2.4805,3.4395,3.7197,6.2393,3.7197
				C927.0195,60.7607,929.0996,59.6807,931.2998,57.5205z M944.5596,24.8203c-0.2803-0.0391-0.5195-0.0596-0.7197-0.0596H943
				c-4.9199,0-9.2803,1.2002-13.0801,3.5996l6.1797,22.7402C940.2998,43.7812,943.1201,35.0205,944.5596,24.8203z"/>
			<path class="st0" d="M1015.4805,63.3408l-7.8604,3l-30.6006-26.2803c12.1201-5.7197,21.8604-10.6992,29.2207-14.9395
				c3.1201-1.7598,4.6797-3.6797,4.6797-5.7607c0-0.1191-0.0205-0.2998-0.0596-0.54c0-0.2793,0-0.4795,0-0.5996
				c-0.041,0.96-0.4414,1.7607-1.2002,2.4004c-0.7607,0.6396-1.6406,0.96-2.6406,0.96c-1.1201,0-2.0996-0.3799-2.9395-1.1406
				c-0.8398-0.7588-1.2598-1.6992-1.2598-2.8193c0-1.2803,0.4395-2.3301,1.3193-3.1504c0.8799-0.8193,1.96-1.2295,3.2402-1.2295
				c1.5195,0,2.8594,0.5303,4.0205,1.5898c1.1592,1.0596,1.7393,2.3496,1.7393,3.8701c0,3.04-1.9404,5.6797-5.8193,7.9199
				c-2.3613,1.4004-6.0811,3.4199-11.1602,6.0596l-10.8604,5.5801L1015.4805,63.3408z M1019.9805,32.501l-3.6006,3
				c-1.4004-3.04-3.2803-5.9199-5.6396-8.6406l1.0801-1.1396C1015.2598,27.7217,1017.9795,29.9805,1019.9805,32.501z
				 M1025.2598,28.6006l-3.54,2.9404c-1.6406-3.2793-3.54-6.1201-5.7002-8.5205l0.9609-1.2002
				C1020.3789,23.7012,1023.1396,25.9609,1025.2598,28.6006z"/>
		</g>
	</g>
</g>
</svg>
