<?xml version="1.0" encoding="utf-8"?>
<!-- Generator: Adobe Illustrator 25.2.1, SVG Export Plug-In . SVG Version: 6.00 Build 0)  -->
<svg version="1.1" id="レイヤー_1" xmlns="http://www.w3.org/2000/svg" xmlns:xlink="http://www.w3.org/1999/xlink" x="0px"
	 y="0px" viewBox="0 0 1040 80" style="enable-background:new 0 0 1040 80;" xml:space="preserve">
<style type="text/css">
	.st0{fill:#1E1E28;}
</style>
<g>
	<g>
		<g>
			<path class="st0" d="M35.6201,46.0605l-5.1006,2.7598l-4.4395-4.7998l-0.2402,12.3604l0.2998,10.0195L19.54,68.501l0.6602-9.4199
				l0.4199-12l-5.1006,5.04l-5.3398-2.3398l8.04-7.4404l5.7002-7.8604l2.7598-5.0996L12.46,29.5605l2.2197-4.9795l6.2402-0.6006
				l0.1201-9.3594l5.8203-1.9805l-0.1807,11.46l2.7607-0.2998l1.1992-0.8398l3.7803,3.3594l-2.5801,5.8203l-4.2002,6.0605
				l7.9805,7.1396l0.3604-7.6797l-0.1201-16.1406l11.9395,0.1807l-0.4199-7.7402l6.4805-1.9199l-0.54,9.3594l12.3594,0.3604
				l-0.3594,15.4805l0.96,15.96l-5.9404,1.5l-0.4199-3.1807l-6.96,0.2998l0.0596,14.4609l-6.2393,1.6797l0.7793-16.6201
				L40.96,52.001l-0.54,2.5801l-5.2803,1.6201L35.6201,46.0605z M48.2197,38.501l-6.7793,0.2402l-0.1201,7.6191l6.3594,0.1201
				L48.2197,38.501z M47.9805,26.3809l-6.6006,0.7197v7.0205l6.4805-0.3008L47.9805,26.3809z M59.5596,34.0605L59.5,26.3809
				l-6.1797,0.2998l-0.3008,6.6006L59.5596,34.0605z M60.04,46.9609l-0.2402-8.5205l-6.5996-0.0596l0.1201,7.9199L60.04,46.9609z"/>
			<path class="st0" d="M96.04,27.1611l-1.6797,5.5195L87.46,33.1006l0.1201,3l6.6602,4.9199l-3.1807,4.9199l-3.54-3.1201
				l-0.5391,12.1201l-0.0605,12.7803l-6-1.7998l0.7803-20.2803L76,52.9609l-5.8799-2.2803l5.5801-6.0596l4.2002-6.3008
				l1.7393-5.0996l-7.3193-0.3604l-1.4404-5.3994l9.0605,0.2402l-0.3604-6.3008l-5.9404,0.8408l-3.1201-4.9805l9.8408-1.6201
				l8.9395-2.8799l3.6006,4.4404l-6.96,2.8193l-0.4209,7.6201L96.04,27.1611z M129.5195,45.5205l-5.7598,3.1807l-5.04-11.7002
				l-1.9795,5.5801l-7.5,12.54l0.2998,2.9395l2.9404,1.5l4.6797-0.1797l2.8799-1.6201l2.0996-7.7402l4.4404,7.0205l-1.8604,6.4199
				L118,65.501l-9.7197-0.0605l-4.0205-3l-0.1201-2.9395l-8.1592,6.2402l-7.2002-2.5205l10.0801-6.7197l4.5-4.7402l0.4199-13.2002
				l-0.0605-12.96l6.1201,2.6406l-0.5996,8.46l-0.4805,9.3594l4.5-9.4199L116.5,25.1211l2.0996-10.8008l5.2803,4.3809
				l-2.6396,11.2197l-1.9805,5.5801l4.7998-0.4199L129.5195,45.5205z M101.5,36.4609l-3.3604,15l-6.54-0.7803l3.54-9.1201
				l1.3799-8.0996L101.5,36.4609z M114.46,18.8203l-5.2197,4.2607l-9.2998-5.3398l3.96-4.4404L114.46,18.8203z"/>
			<path class="st0" d="M185.7402,38.4404l-0.8398,14.46l-1.5,10.8604l-8.2803,3.0596l-6.7803-7.2598l8.1006-0.0596l1.5-2.4004
				l1.4395-17.04L178.96,29.2012l-12.7803,0.4199l-4.9795,8.6992l-3.4805-0.7197L157.54,47.8604l0.1797,13.0205l-8.5195,0.9004
				l-8.3398-0.1201l-0.54,2.46l-5.9404,1.3799l0.4199-43.3799l6.6006-0.1201l3.2998-9l5.2197,2.8193l-1.2598,5.7002l9.2998,0.9004
				l-0.1201,10.7998l3.9004-8.3398l3.7197-12.3604l5.8203,3.6006l-3.1807,7.5596l7.3809-0.0596l9.7793-0.7207L185.7402,38.4404z
				 M151.5996,55.541l-0.2998-12.3604l-10.3193,0.2998l-0.54,11.7607L151.5996,55.541z M152.0801,27.4004l-11.3398,0.2402
				l0.0596,10.2002l10.7998,0.4199L152.0801,27.4004z M174.9404,45.8203l-5.5801,3.7207l-5.9404-9.54l5.6396-1.8604
				L174.9404,45.8203z"/>
			<path class="st0" d="M223.8398,20.501l-0.5996,6.7197l-6.8398,1.5605l-2.5801,0.3594l-3.9004,9.8398l-6.0596,11.2803
				l-7.3203-1.4404l7.1396-10.6191l3.4805-8.2803l-7.3799,0.5996l-2.8799-6.4199l10.9795-0.1201l1.3799-0.1797l2.9404-11.9404
				l5.5801,3.8408l-2.1602,7.3799h0.1201L223.8398,20.501z M243.4004,55.7812l-5.6406,4.5596l-6.96-3.9004l-0.2402,5.46
				l-4.8594,4.1406l-7.7402-0.3604l-6.1797-3.2402l-2.9404-4.4395l0.96-4.5605l4.5-3.8994l5.4004-1.0205l5.3398,0.2998
				l-0.1201-6.7197l0.1201-7.9199l6.4795,2.5801l-0.7793,7.6201l-0.1807,5.8203l3.2402,1.2598L243.4004,55.7812z M224.8604,54.5811
				l-4.5605-0.7803l-4.0801,1.2002L215.5,57.2207l2.0996,2.0996l4.9805,0.9609l2.1602-1.9209L224.8604,54.5811z M246.2197,32.9805
				l-6.2998,3.96l-5.6396-5.6396l-5.3398-3.6602l5.6992-3.2998l4.0801,2.9404L246.2197,32.9805z"/>
			<path class="st0" d="M300.7598,62.5605l-7.5596,1.4404l-4.9805-13.7402l-17.3398,0.54l-4.3203,13.2002l-7.3799-1.3203
				l6.1807-15.5996l4.6201-16.0205l4.6191-14.04l9.96-1.0801l4.8604,16.5l5.1602,14.8799L300.7598,62.5605z M286.5996,44.8008
				l-2.6396-9.1201l-4.4404-13.5596l-3.8398,11.2793l-3.2393,10.8604L286.5996,44.8008z"/>
			<path class="st0" d="M358.3604,62.3809l-8.46,1.4395l-3.8408-9.7793l-5.2793-10.5605l-9.9004-0.0596l0.4805,19.5596
				l-7.0205,1.3799l0.2998-32.6396l-0.4199-15l17.8799-0.1201l8.4004,1.5l5.1602,4.0205l2.1602,8.04l-3.3604,8.46l-6.7197,3.2998
				l3.8398,8.9395L358.3604,62.3809z M350.7998,29.7412l-2.3398-4.9209l-6-2.0996l-10.9795,0.2998l-0.54,14.5801h11.04
				l6.1797-1.8594L350.7998,29.7412z"/>
			<path class="st0" d="M390.2803,36.5205l-6,4.3203l-3.54-9.2402l-4.5-7.9795l7.0195-0.9004l3.7207,5.5801L390.2803,36.5205z
				 M422.6797,23.8008l-2.8193,11.4004l-3.96,8.8799l-4.0801,6.8994l-5.7002,6.8398l-7.2002,5.7607l-8.3398-3.0605l11.7002-8.46
				l6.6602-8.7002l4.6797-11.1592l2.7002-13.5605L422.6797,23.8008z M404.7402,32.5605l-5.9404,4.0205l-2.7002-8.7002
				l-3.7793-7.9199l6.54-0.96l3.4199,5.8799L404.7402,32.5605z"/>
			<path class="st0" d="M484.7197,21.5205l-5.6396,8.1602l-6,6.7197l-5.8203,4.2607l-4.6797-2.04l-0.5996,4.9795l-2.4004,8.5205
				l-4.2598,7.2598l-4.9805,5.4004l-8.5801-1.9805l8.5205-7.3799l3.4199-6.3604l2.5195-8.1602L456.04,29.3203l6.6602,2.4609
				l-0.1807,3.8994l3.54-1.8604l5.4004-4.6797l2.9404-3.96l-11.46,0.3604l-10.9805,0.54l-12.7197,0.8994l-3.7803-6.96l14.46,0.0605
				l27.7803-1.4404l2.0996-1.1396L484.7197,21.5205z"/>
			<path class="st0" d="M541.7803,35.5605l3,6.96l-16.2002-0.3594l-30.1797,0.4795l-3.0605-6.7803l17.8203,0.3008l12.4795-0.1807
				L541.7803,35.5605z"/>
			<path class="st0" d="M603.8203,23.8008l-9.2402,1.5l-6.96,6.1797l-4.1396,5.7607l-2.5205,6.5996l-0.2998,4.8604l1.2002,4.3193
				l3.0596,3.8398L595,62.0811l-8.5801,3.8398l-6.96-4.5l-3.7803-5.1602l-2.0996-7.9795l1.4395-8.2207l4.8604-8.8799l5.9404-5.5801
				l-10.9805,1.6807l-7.7998,1.3799l-8.46,1.6201l-4.6201-6.9004l12.7197-1.0205l13.1406-1.8594l10.1992-1.2598l9.4209-1.5
				L603.8203,23.8008z M603.0996,37.3008l-4.5596,2.8799l-6.2998-6.8994l4.0801-1.9209L603.0996,37.3008z M609.8799,33.7607
				l-4.3799,3l-5.8799-6.8398l4.0801-2.2803L609.8799,33.7607z"/>
			<path class="st0" d="M655.8398,48.1006l-1.7998,9.6006l-5.4004,4.8594l-8.5801,1.7402l-8.0996-1.3799l-4.9199-3.9004L625,54.1611
				l5.7598-3.9004l2.4004,5.5205l6.3594,2.46l7.2607-2.6406l2.04-6.8994l-1.0205-4.8604l-2.8799-3.3604l-5.6396-1.1992
				l-5.5205,2.2197l-2.46,2.6396l-5.7598-1.9199l1.6201-11.9395l1.5-13.3809l10.6201,0.1201l14.8799-0.3594L652,23.1406
				l-17.2197,0.1797l-2.1006,12.8408l4.0205-2.2207l5.7002-0.5996l7.4395,2.04l4.3799,5.46L655.8398,48.1006z"/>
			<path class="st0" d="M727.7803,37.541l-2.4004,5.3994h-14.2197L685.54,43.1807l0.0596,2.46l24.3604-0.0596l13.5596-0.2998
				l-1.3799,19.6797l-8.8799,3l-5.5801-6.2402l-15.4795,0.2402l-11.5205-0.1201l-0.7197,3.7197l-5.7598-1.6201l0.4199-13.3193
				l5.3994,2.0996l0.3604,3.6602l9-0.54l0.3604-5.1602l-10.5605-0.1797l0.6006-17.04L679.54,17.4404l12-0.8398l2.2197-5.3994
				l6.2998,1.6797l-1.4395,3.54l17.6396,0.5996l-0.3594,18.4199l-15.1201,0.6602l-14.8799-0.1797l-0.1807,2.46l12.3604,0.1797
				L727.7803,37.541z M710.1396,25.1807l-0.5996-2.8799l-12.4199-0.3604l-11.04,0.3008l-0.5996,3.0596l12.0596-0.3604
				L710.1396,25.1807z M709.8398,31.8408l-0.1201-3.1797l-12.5996,0.3594l-11.2197-0.1797l-0.1201,3l11.7598,0.1797
				L709.8398,31.8408z M717.04,50.2012l-11.8203,0.4199l-9.8994-0.3604l0.1797,5.7598l8.2197,0.2998l0.4199-4.5596l5.3408,1.6797
				l0.2998,7.5l4.7393,0.3008l1.5-1.6201L717.04,50.2012z"/>
			<path class="st0" d="M788.2598,58.7812l-3.1201,6.6592l-14.7598-0.1797l-17.46-0.6602l-8.6396-4.5l-7.9805,6.6602l-5.2197-4.9199
				l9.0596-5.7002l0.1201-13.2002l-6.3594-0.54l-1.6807-5.5801l13.7402-0.1797l0.54,17.8799l7.5596,3.96l14.5205,0.7207
				l8.6396,0.0596L788.2598,58.7812z M748.2998,21.2207L745,27.4004l-9.6602-7.8594l5.2803-3.1201L748.2998,21.2207z
				 M761.2598,16.3008l-2.6396,8.46l-4.2598,8.8799l1.9199,8.04l4.2598,13.2002l-6.96,0.96l-1.7998-9.96l-3.6602-11.7598
				l4.3799-9.96l3.6602-10.7402L761.2598,16.3008z M773.2598,53.6807l-7.1396,0.8398l-3-9.3594l-3.96-10.8008l4.7402-9.5996
				l3.8994-10.4404l4.6807,3.4209L769,26.9209l-3.7197,7.3799l3.2393,8.7002L773.2598,53.6807z M788.6201,53.5605l-7.0801,2.46
				l-11.5205-22.2598l5.5801-9.7197l4.8604-10.9199l5.2197,4.1992l-3.96,7.6807l-5.0996,8.46l5.3994,10.2598L788.6201,53.5605z"/>
			<path class="st0" d="M834.8203,43.3604l-1.6807,9l-3.1797,7.5605l-4.7998,7.3799l-8.46-1.3799l7.0801-9.0605l3.5996-8.2793
				l1.2598-11.2803l-0.7197-6.2998l-1.7402-5.4004l-2.2793-1.4395l-3.4805,3.1797l-3.6602,7.4404l-2.6396,7.3193l-0.54,8.2197
				l-6.1797-1.7998l-0.54-7.7393l-0.2402-7.4404l0.5996-10.2598l1.7402-11.04l6.2998,4.2598l-1.6201,5.4004l-1.0195,6.7197l-0.54,6
				l3.7803-9.4199l4.1992-5.1006l3.9004-2.3398l5.6396,1.9805l3.6006,6l1.6201,7.5596V43.3604z"/>
			<path class="st0" d="M906.6396,40.9609l-13.0195,3.1201l-7.3799,3l0.2998,8.3994l-6.7803,1.5l0.54-4.9199v-2.04l-4.5596,2.9404
				L874,56.6211l1.7402,2.5801l6.5996,1.5l6.4805-0.3604l7.3799-1.3799l-2.1006,7.3799l-10.7998,0.4199l-8.1602-1.3203
				l-5.5801-2.7598l-2.3398-5.7598l2.2207-5.7598l7.7393-6.2402l1.5-0.6602L876.46,41.501L871,41.2012l-6.2402,7.1992l-7.3799-1.5
				l7.8604-8.5195l5.3994-8.5205l-7.8594,0.4209l-3.9004-5.7607l10.8604-0.3594l3.7793-0.7207l4.3809-11.5801l4.9795,4.8008
				l-2.5801,5.6992l11.1006-3.8398l-1.6807,7.0205l-7.2002,2.3994l-4.9795,1.1406l-4.2598,6.5996L880,36.4004l3.7197,4.0801
				l0.6006,1.3799l6.1201-2.5791l11.0996-3.54L906.6396,40.9609z"/>
			<path class="st0" d="M969.7002,51.041l-5.9404,3.7197l-5.7002-5.8799l-4.1992-5.4004l-4.2002-7.0195l0.2402,13.0801h8.6992
				l-1.5596,5.8193l-6.6602,0.1201l-0.54,12.1201l-5.2803-1.8594l-0.6592-10.1406l-6.7207-0.54l-1.7998-3.8994l-3.7803,4.5596
				l-5.5195-2.04l0.2402,13.9199l-6.4805-1.7998l0.9004-27.2998l-4.9199,7.1396l-5.5801-2.0996l5.8193-8.46l5.6406-11.5205
				l4.2002-11.46l4.6191,4.5605l-4.0791,11.8193l-0.3604,24.0605l6.5996-6.7803l5.5801-8.1602l4.0205-8.1602l-10.9805-0.4795
				l-2.0996-5.5205l14.5801,0.1807l0.5996-9.6602l5.4004-1.8604l0.2998,11.1602l16.3799-0.54l-2.2803,6l-12.8398,0.4805
				l5.5801,9.5996l5.3398,6.1797L969.7002,51.041z M944.5596,36.5205l-4.5,7.9199l-3.8398,5.7607l7.9199-0.6602L944.5596,36.5205z"
				/>
			<path class="st0" d="M978.2803,53.0205l-2.7607,11.1006l-4.2598-1.2002l1.8604-10.5605L978.2803,53.0205z M1000,14.0811
				l-2.04,6.2393l-8.1602-0.1797l0.7803,4.6201l5.2803-0.1797l1.3193,3.54l3.96-3.3604l4.3203-5.6396l4.2598-7.3203l6.3604,1.2598
				l-0.54,1.1406l3.5996,5.46l5.5205,5.7598l5.2803,3.6602l-5.6406,3.4795l-3.1201-2.8799l-1.6797-1.7998l-0.54,2.5195
				l-3.9004,0.4805l-0.2393,3.4795l10.1992-0.2393l0.2402,15.7197l-8.3398,0.4199l2.2803,3.96l4.4395,5.2803l6,4.2598
				l-6.2393,4.0205l-4.4404-4.8008l-3.2402-4.0801l-2.9395-5.0996l-1.7998,4.2002l-3.1201,5.2197l-4.2607,4.8604l-6.4795-2.46
				L1003,60.3408l3.1797-4.6201l2.1006-5.4004l-8.46-0.3594l0.7793-15.4805l9.1201-0.2998l-0.2393-3l-4.0801-0.4795l-0.6006-2.2207
				l-0.4199,0.4805l-4.2002,3.8398l-5.5195-2.5801l1.9795-1.6797l-6.1201,1.0801l-0.1797,3.5996l6.96-0.6602l-1.3193,4.0801
				l-5.2803,1.1406l-0.2998,4.2598l8.5801-0.6602l-0.1201,11.8203l-0.6602,9.7793l-5.4004,4.6201l-6.8994-6.3594l5.9395-0.3604
				l1.2598-1.0801l0.4805-4.3799l-2.9404,0.96l-1.9199-6.4805l2.8203-0.54l2.2197,4.5l-0.4199-6.7197l-13.2002,0.0605L979,48.8203
				l-4.9805,1.2002l0.7207-18.54l0.1201-17.0996l11.1592,0.3604L1000,14.0811z M984.0996,60.4004l-4.7393-0.54l-0.8408-8.5791
				l3.6006,0.1191L984.0996,60.4004z M985.7803,42.1006l-0.4805-4.6201l-5.5195,0.7803l0.3594,3.96L985.7803,42.1006z
				 M985.9004,29.0811l-6,0.4795v3.96l5.6992-0.2393L985.9004,29.0811z M985.4805,25.3008v-5.3398l-5.4609-0.1201l0.3604,4.7998
				L985.4805,25.3008z M989.3203,57.7012l-3.4805,0.96l-2.3398-8.04l3.4199-0.2402L989.3203,57.7012z M1009.96,39.2207
				l-4.6201-0.4199v6.1201l4.3799,0.3604L1009.96,39.2207z M1017.6396,25.7812l-1.8594-2.04l-3.8398-5.1602l-2.5801,4.4395
				l-2.46,2.9404l5.1592,0.2402L1017.6396,25.7812z M1020.1602,44.9805l-0.1201-5.2793l-5.1602-0.7207v5.8203L1020.1602,44.9805z"/>
		</g>
	</g>
</g>
</svg>
