<?xml version="1.0" encoding="utf-8"?>
<!-- Generator: Adobe Illustrator 25.2.1, SVG Export Plug-In . SVG Version: 6.00 Build 0)  -->
<svg version="1.1" id="レイヤー_1" xmlns="http://www.w3.org/2000/svg" xmlns:xlink="http://www.w3.org/1999/xlink" x="0px"
	 y="0px" viewBox="0 0 1040 80" style="enable-background:new 0 0 1040 80;" xml:space="preserve">
<style type="text/css">
	.st0{fill:#1E1E28;}
</style>
<g>
	<g>
		<path class="st0" d="M52.8398,48.9404l-1.0801,13.0205c-2.4404,1.1592-5.6006,2.2393-9.4795,3.2402
			c-5.001,1.3193-9.4199,1.9795-13.2607,1.9795c-7,0-11.3994-2.6006-13.1992-7.7998c-0.6807-1.959-1.0205-7.3398-1.0205-16.1396
			v-30.54l13.3799,0.8994c-0.7197,10.0801-1.0801,22.0801-1.0801,36c0,2.1602,0.29,3.6006,0.8701,4.3203
			s1.6104,1.0801,3.0898,1.0801c2.6797,0,6.3008-0.6797,10.8604-2.04C45.7998,51.8008,49.4395,50.4609,52.8398,48.9404z"/>
		<path class="st0" d="M122.0166,50.9805c-6.4404,11.6807-13.3193,17.5205-20.6396,17.5205c-4.5605,0-8.0605-2.7598-10.5-8.2803
			c-1.4404-3.1992-2.2002-4.8994-2.2803-5.0996c-0.96-1.6807-1.9199-2.5205-2.8799-2.5205c-0.8799,0-2.0205,0.5605-3.4199,1.6807
			c-1.0801,0.8799-2.2402,2.5-3.4805,4.8594c-0.5605,1.1201-1.6602,3.5605-3.2998,7.3203l-11.5195-5.2803
			c2.3193-5.7988,6.1992-14.0596,11.6396-24.7803c4.7998-9.5186,9.1396-17.6992,13.0205-24.54l11.9395,6.0605
			c-2.3604,3.1602-5.0801,7.251-8.1602,12.2695c-3.0801,5.0205-5.3799,9.0303-6.8994,12.0303
			c1.4795-0.7598,2.9395-1.1396,4.3799-1.1396c4.04,0,6.999,2.3994,8.8799,7.2002c0.5596,1.4004,1.0996,2.8193,1.6201,4.2598
			c0.7998,1.6797,1.6201,2.5195,2.46,2.5195c2.5596,0,6.0801-4.7188,10.5596-14.1602L122.0166,50.9805z"/>
		<path class="st0" d="M189.2725,45.9404l-6.7803,10.9805c-4-4.1191-6.6396-8-7.9199-11.6396c-0.5195,5.8398-2.3398,10.8398-5.46,15
			c-3.8398,5.0791-8.9795,7.6191-15.4199,7.6191c-6.2393,0-10.9404-1.9404-14.0996-5.8193
			c-2.6807-3.2793-4.0205-7.54-4.0205-12.7803c0-7.6797,3.3203-15.4395,9.96-23.2803c-1.9199,0-4.9199-0.4395-9-1.3193
			l3.6602-11.8203c5.1201,1.6406,10.0205,2.46,14.7002,2.46c1.5996,0,3.0391-0.0801,4.3203-0.2402l5.5195,8.8203
			c-11.2793,7.8809-16.9199,15.96-16.9199,24.2402c0,4.5596,2.1201,6.8398,6.3604,6.8398c4.4395,0,7.7598-3.2793,9.96-9.8398
			c1.5195-4.4795,2.1797-10.0205,1.9795-16.6201l11.4004-3.0605C179.752,33.2012,183.6719,40.0215,189.2725,45.9404z
			 M187.5928,18.3408c0,1.9199-0.6807,3.5498-2.04,4.8896c-1.3604,1.3408-2.9805,2.0107-4.8604,2.0107s-3.4902-0.6699-4.8301-2.0107
			c-1.3398-1.3398-2.0098-2.9697-2.0098-4.8896c0-1.8398,0.6699-3.4297,2.0098-4.7705c1.3398-1.3389,2.9502-2.0098,4.8301-2.0098
			s3.5,0.6709,4.8604,2.0098C186.9121,14.9111,187.5928,16.501,187.5928,18.3408z M183.6924,18.3408
			c0-0.8398-0.2803-1.5391-0.8398-2.0996c-0.5605-0.5605-1.2803-0.8408-2.1602-0.8408c-0.8008,0-1.4902,0.291-2.0693,0.8701
			c-0.5811,0.5811-0.8701,1.2705-0.8701,2.0703c0,0.8799,0.2891,1.6104,0.8701,2.1904c0.5791,0.5801,1.2686,0.8691,2.0693,0.8691
			c0.8799,0,1.5996-0.2891,2.1602-0.8691C183.4121,19.9512,183.6924,19.2207,183.6924,18.3408z"/>
		<path class="st0" d="M251.9688,24.8203c-3.1201,0.1201-6.1807,0.7012-9.1807,1.7402c-2.6396,0.9209-4.7803,2.0205-6.4199,3.2998
			c-3.7998,2.9609-5.6992,6.7412-5.6992,11.3408c0,4.1992,1.4785,7.46,4.4395,9.7793c2.7598,2.2002,7.5195,4.1006,14.2803,5.7002
			l-5.4004,11.2803c-7.1201-1.4404-12.8799-4-17.2793-7.6797c-5.4404-4.5605-8.1602-10.3809-8.1602-17.4609
			c0-6,1.5596-10.8193,4.6797-14.46c-5.6396,1.3203-11.7002,3.2402-18.1797,5.7607l-4.5605-11.8203
			c17.1602-4.9199,33.7998-8.0195,49.9199-9.2998L251.9688,24.8203z"/>
		<path class="st0" d="M308.2451,27.1006l-0.0596,10.5c-0.4404-0.0391-1.3008-0.0596-2.5801-0.0596
			c-1.8809,0-4.1396,0.1201-6.7803,0.3594c2.4004,3.7607,4.6396,6.9209,6.7207,9.4805l-7.7402,7.7402
			c-3.8398-1.9199-7.8408-2.8799-12-2.8799c-3.3604,0-5.04,0.7793-5.04,2.3398c0,1.8799,3.5596,2.8193,10.6797,2.8193
			c1.96,0,4.2998-0.0986,7.0205-0.2998l-2.5205,11.04c-1.2002,0.0801-2.9609,0.1201-5.2803,0.1201
			c-14.7998,0-22.1992-4.6201-22.1992-13.8604c0-3.3994,1.3594-6.1689,4.0801-8.3096c2.7188-2.1396,6.3389-3.21,10.8594-3.21
			c2.3594,0,4.6592,0.2803,6.9004,0.8398c-0.5605-0.9199-1.4404-2.4199-2.6406-4.5c-7.7197,1.2002-13.2998,2.541-16.7393,4.0205
			l-5.46-10.2607c4.1592-1.0801,9.8994-2.1602,17.2197-3.2393c-0.0811-0.2002-0.2207-0.5107-0.4199-0.9307
			c-0.2012-0.4199-0.3604-0.7295-0.4805-0.9297c-1.6797,0.0801-2.96,0.1201-3.8398,0.1201c-3.6807,0-7-0.3604-9.96-1.0801
			l-2.04-11.4004c2.3594,1.1201,6.1797,1.7402,11.46,1.8604c-0.8799-2.4395-1.5-4.2793-1.8594-5.5205l12.1191-1.0791
			c0.3994,1.96,0.8799,3.8994,1.4404,5.8193c3.2793-0.6396,5.8203-1.5791,7.6201-2.8193l4.9795,10.0791
			c-2.2402,0.8809-5.2197,1.7207-8.9395,2.5205c0.1201,0.2002,0.2695,0.501,0.4502,0.9004
			c0.1797,0.3994,0.3086,0.7002,0.3896,0.8994C299.6855,27.4609,304.5645,27.1006,308.2451,27.1006z"/>
		<path class="st0" d="M359.4824,26.0205c-4.2803,0.6006-8.9199,1.4805-13.9199,2.6406
			c-3.2402,6.9199-6.6211,13.1602-10.1406,18.7197l-10.7998-4.0205c2.6406-3.8789,4.8799-7.4785,6.7207-10.7998
			c-2.7207,0.8398-5.001,1.6807-6.8408,2.5205l-3.8398-11.04c4.8398-1.5996,10.4404-3.1201,16.7998-4.5605
			c1.04-2.9189,1.9209-5.8193,2.6406-8.6992l12.2402,2.0996c0,0.04-0.501,1.3203-1.5,3.8398
			c1.9199-0.3994,4.2598-0.8398,7.0195-1.3203L359.4824,26.0205z M374.6025,56.3809l-6.4805,10.6201
			c-2.1201-2.1602-4.2207-4.0801-6.2998-5.7598c-1.8398,5.04-6.2002,7.5596-13.0801,7.5596c-4.8809,0-8.79-1.0703-11.7295-3.21
			c-2.9404-2.1406-4.4102-5.1094-4.4102-8.9102c0-3.9199,1.3994-6.96,4.2002-9.1201c2.6396-2.0791,6.2598-3.1201,10.8594-3.1201
			c1.5195,0,2.8398,0.0811,3.96,0.2402c0.1592-1.5996,0.2998-2.8203,0.4199-3.6602c0.5596-3.7588,1.4795-6.0596,2.7607-6.8994
			l8.3398,5.04c-0.3604,1.1992-0.54,3.3799-0.54,6.54c0,0.96,0.0195,1.6797,0.0596,2.1592
			C366.9824,49.9004,370.9619,52.7412,374.6025,56.3809z M351.2627,54.7607c-1.2402-0.4795-2.3613-0.7197-3.3604-0.7197
			c-2.6006,0-3.9004,0.7793-3.9004,2.3398c0,0.6406,0.3496,1.1504,1.0508,1.5303c0.6992,0.3799,1.5293,0.5693,2.4893,0.5693
			c1.3203,0,2.2598-0.3193,2.8203-0.96C350.8428,57.001,351.1426,56.0811,351.2627,54.7607z M375.5625,33.2207l-7.7998,8.5205
			c-3.1201-4.7598-6.1406-8.1006-9.0605-10.0205l7.0205-8.3398C369.3613,25.4209,372.6416,28.7012,375.5625,33.2207z"/>
		<path class="st0" d="M405.3184,36.041l-10.3799,4.9795c-1.6807-5.5596-4.041-10.5-7.0801-14.8193l9.8398-5.2207
			C400.9775,25.541,403.5186,30.5615,405.3184,36.041z M439.3984,20.3203c-2.5605,8.2012-6.2012,16.7012-10.9199,25.5
			c-3.6807,6.8408-8.7207,13.9805-15.1201,21.4209l-12.1201-4.9209c6.6396-6.7197,12.1201-13.7998,16.4395-21.2393
			c4.2402-7.3203,7.4004-15.4404,9.4805-24.3604L439.3984,20.3203z M420.4385,30.8203l-10.7402,3.54
			c-1.6406-5.8389-3.6406-10.959-6-15.3594l10.7402-4.2002C417.2783,20.2012,419.2773,25.541,420.4385,30.8203z"/>
		<path class="st0" d="M502.9941,24.1611c-8.2793,7.6406-13.7803,12.54-16.5,14.6992l-3.6592-3.2998
			c-1.6006,6.2803-3.4609,11.5801-5.5801,15.9004c-3.0811,6.3203-6.9004,11.6592-11.46,16.0195l-10.8604-6.0596
			c5.04-4.6797,8.8398-9.4805,11.4004-14.4004c2.1992-4.1592,3.8789-9.2793,5.0391-15.3594l8.4004,1.1396l-1.0195-0.96
			c1.9199-1.4404,3.9189-3.2002,6-5.2803c-2.7207,0.2803-7.9414,0.7412-15.6602,1.3799l-16.3799,1.4404l-0.96-11.8799
			c12.7588-0.3203,27.2793-1.2002,43.5596-2.6406L502.9941,24.1611z"/>
		<path class="st0" d="M566.3506,44.3203c-2.7607-0.1592-6.1006-0.2393-10.0205-0.2393c-14.9609,0-28.3604,0.6807-40.2002,2.04
			l-0.7793-12.54c17.4395-1.5996,34.4395-2.2207,51-1.8604V44.3203z"/>
		<path class="st0" d="M618.4268,63.5811c-6.0801,1.7188-11.9395,2.5801-17.5801,2.5801c-6.4004,0-11.3994-1.2607-15-3.7803
			c-3.96-2.7598-5.9395-6.8193-5.9395-12.1797v-0.3008l10.5596-6.5996c0,0.1201,0,0.2998,0,0.54
			c-0.04,0.2402-0.0596,0.4199-0.0596,0.54c0,4.1201,1.4395,6.8604,4.3193,8.2197c1.5195,0.7197,3.9199,1.0801,7.2002,1.0801
			c4.8799,0,9.8594-1.0195,14.9404-3.0596L618.4268,63.5811z M616.0264,20.3809l-5.0391,10.6797
			c-4.5215,1.001-8.9209,2.9404-13.2002,5.8203l-5.1006-6.4199l4.1406-3.2402c-3.4805-1.2002-6.8809-2.04-10.2002-2.5195
			l5.5195-11.2207C600.5068,14.9609,608.4668,17.2607,616.0264,20.3809z M623.2871,20.7412l-4.7998,2.6396
			c-1.041-2.3594-2.4814-4.7002-4.3203-7.0205l4.5-2.5791C620.3066,15.7412,621.8467,18.0615,623.2871,20.7412z M629.8867,17.2607
			l-4.7998,2.7002c-1.1611-2.2402-2.6611-4.5801-4.5-7.0205l4.6201-2.5195C626.9668,12.501,628.5264,14.7812,629.8867,17.2607z"/>
		<path class="st0" d="M684.123,24.8203c-3.1201,0.1201-6.1797,0.7012-9.1797,1.7402c-2.6396,0.9209-4.7803,2.0205-6.4199,3.2998
			c-3.8008,2.9609-5.7002,6.7412-5.7002,11.3408c0,4.1992,1.4795,7.46,4.4404,9.7793c2.7598,2.2002,7.5195,4.1006,14.2793,5.7002
			l-5.3994,11.2803c-7.1201-1.4404-12.8809-4-17.2803-7.6797c-5.4404-4.5605-8.1602-10.3809-8.1602-17.4609
			c0-6,1.5605-10.8193,4.6807-14.46c-5.6406,1.3203-11.7002,3.2402-18.1807,5.7607l-4.5596-11.8203
			c17.1602-4.9199,33.7998-8.0195,49.9199-9.2998L684.123,24.8203z M680.8838,37.6611l-4.7402,2.6992
			c-1.0801-2.3193-2.5205-4.6797-4.3203-7.0791l4.4404-2.5205C678.0635,32.8408,679.6025,35.1406,680.8838,37.6611z
			 M687.4834,34.2412l-4.7998,2.6396c-1.2402-2.4004-2.7402-4.7197-4.5-6.96l4.6201-2.5801
			C684.7627,29.7012,686.3223,32.001,687.4834,34.2412z"/>
		<path class="st0" d="M739.6191,66.8203c-4.7998,0.5605-10.2803,0.8408-16.4395,0.8408c-9.041,0-15.3906-1.2607-19.0508-3.7803
			c-3.6592-2.5205-5.4893-6.1201-5.4893-10.7998c0-6.7598,4.3389-12.54,13.0195-17.3398c-0.96-5.7607-1.4395-13.6807-1.4395-23.7607
			l12.6592,0.3604c-0.4795,3.7607-0.7197,8.5605-0.7197,14.4004c0,1.96,0.0195,3.3594,0.0605,4.1992
			c3.0791-1.2393,6.7588-2.5801,11.0391-4.0195l3.4805,12.0596c-10.4004,2.4004-17.7803,5.0811-22.1396,8.04
			c-1.8809,1.2812-2.8203,2.8799-2.8203,4.7998c0,1.6006,0.9199,2.7002,2.7598,3.3008c1.4795,0.5195,4,0.7793,7.5605,0.7793
			c4.9199,0,10.5986-0.5596,17.04-1.6797L739.6191,66.8203z"/>
		<path class="st0" d="M792.415,41.8604c0,10.2002-5.7207,19.5215-17.1592,27.96l-11.5205-6.7793
			c5.3193-4,9.1797-7.4004,11.5801-10.2002c3.0391-3.5195,4.5596-6.9395,4.5596-10.2598c0-2.0801-0.5-3.6904-1.5-4.8301
			c-1-1.1406-2.3203-1.71-3.96-1.71c-1.7607,0-4.1992,0.96-7.3193,2.8799c-2.4404,1.5205-4.7012,3.2197-6.7803,5.0996
			l-8.2803-9.4795c8.6797-6.2002,15.8193-9.7207,21.4199-10.5605c-4.1602-1.6797-8.0801-2.7988-11.7598-3.3594l5.8203-10.2607
			c2.4395,0.2803,5.3193,0.9404,8.6396,1.9805c3.2002,1.041,5.8994,2.1406,8.1006,3.2998l-4.6201,8.2197
			c4.1592,0.6406,7.3799,2.7412,9.6592,6.3008C791.375,33.3613,792.415,37.2617,792.415,41.8604z"/>
		<path class="st0" d="M861.4717,42.041c0,5.4805-1.8809,10.3799-5.6396,14.7002c-4.4805,5.1592-11.7002,8.959-21.6602,11.3994
			l-6.2998-10.7998c1.1592-0.2002,2.4395-0.4805,3.8398-0.8398c-0.5205-0.3994-1.3203-1.0205-2.4004-1.8604
			c-4.4395,3.6006-8.7002,5.4004-12.7803,5.4004c-2.9199,0-5.3398-0.8799-7.2598-2.6406c-2.2402-2.04-3.3594-4.9795-3.3594-8.8193
			c0-7.4004,3.4795-13.8203,10.4395-19.2607c-0.96-3.999-1.6797-8.1387-2.1602-12.4199l11.2803-2.8799
			c0.1201,3.4805,0.4199,6.7412,0.9004,9.7803c3.3193-1.1602,6.9189-1.7402,10.7998-1.7402h0.8398
			c1.04-2.8799,2.0791-6.1201,3.1201-9.7197l11.46,4.8604c-0.3203,0.7998-0.8105,1.9902-1.4697,3.5693
			c-0.6602,1.5811-1.1699,2.7705-1.5303,3.5703c4.5596,2.001,7.8604,5.2002,9.9004,9.5996
			C860.8115,36.7012,861.4717,39.4004,861.4717,42.041z M822.4717,46.1211c-0.7607-1.4004-1.7402-3.54-2.9404-6.4199
			c-1.8398,2.0801-2.7598,4-2.7598,5.7598c0,1.4004,0.6992,2.0996,2.1006,2.0996
			C819.9111,47.5605,821.1113,47.0811,822.4717,46.1211z M833.6914,32.0811c-1.8398,0.2002-3.5605,0.6201-5.1602,1.2598
			c0.4404,1.4404,1.0205,2.9609,1.7402,4.5596C831.3516,36.2607,832.4922,34.3213,833.6914,32.0811z M849.0518,41.8604
			c0-2.959-1.4404-5.3789-4.3203-7.2598c-2.4805,4.7207-5.0801,8.8008-7.7998,12.2402c0.7598,0.6406,1.6592,1.3408,2.7002,2.0996
			l-6.54,7.2002c4.959-1.4795,8.8594-3.4795,11.7002-6C847.6318,47.6211,849.0518,44.8604,849.0518,41.8604z"/>
		<path class="st0" d="M908.6279,63.041l-12.7803,6.6602c-4.6406-7.2402-10.8398-15.3398-18.5996-24.3008
			c-1.4805-1.7188-2.2197-3.5186-2.2197-5.3994c0-1.9199,0.7695-3.9902,2.3096-6.21c1.5391-2.2207,4.4102-5.9102,8.6104-11.0703
			c5.6396-6.96,8.9395-11.0596,9.8994-12.2998l11.8203,7.3799c-2.2402,1.9199-7.7402,7.8398-16.5,17.7598
			c-1.2803,1.4404-1.9199,2.6006-1.9199,3.4805c0,0.8398,0.4395,1.7607,1.3203,2.7598c2.8799,3.2803,5.7598,6.54,8.6396,9.7803
			C902.8477,55.7812,905.9883,59.6016,908.6279,63.041z M914.0283,29.4404l-4.7402,2.6406
			c-1.041-2.2402-2.4805-4.5801-4.3203-7.0205l4.4404-2.5801C911.208,24.6807,912.7471,27.001,914.0283,29.4404z M920.6279,25.9609
			l-4.7998,2.7002c-1.1611-2.2402-2.6611-4.5801-4.5-7.0205l4.6201-2.5195C917.9072,21.4004,919.4678,23.6807,920.6279,25.9609z"/>
		<path class="st0" d="M962.8037,37.001c0,6.4795-1.1797,12.1406-3.54,16.9795c-2.7207,5.6006-8.0605,10.7793-16.0195,15.54
			l-9.6006-8.46c5.8809-3.6797,9.8408-6.6797,11.8809-9c3.1992-3.6387,4.7998-8.1797,4.7998-13.6201
			c0-2.7598-0.0811-4.6396-0.2402-5.6396c-0.4404-2.3193-1.3799-3.4805-2.8203-3.4805c-1.5996,0-2.9395,1.001-4.0195,3
			c-1.8809,3.5615-2.8604,8.4404-2.9404,14.6406l-9.8398,2.0996c-1.5205-5.7197-2.2803-12.1201-2.2803-19.2002
			c0-5.8799,0.46-12.2393,1.3809-19.0791l11.5195,2.0391c-0.4805,2.001-0.96,4.6807-1.4404,8.04
			c-0.1602,1.3203-0.2803,2.3408-0.3594,3.0605c3.1592-5.1201,7.0195-7.6797,11.5801-7.6797c3.96,0,6.999,2.04,9.1201,6.1191
			C961.8633,26.0811,962.8037,30.9609,962.8037,37.001z"/>
		<path class="st0" d="M1028.7998,45.2207c-4.3604,0.2803-8.7402,1-13.1396,2.1602c0.1201,1.4395,0.1797,3.7402,0.1797,6.9004
			l-11.2197,0.4795c0-1.7197-0.0205-2.9404-0.0596-3.6602c-2.9209,1.2402-4.3809,2.4805-4.3809,3.7197
			c0,1.7207,2.1006,2.5801,6.3008,2.5801c3.7197,0,7.2598-0.2598,10.6201-0.7793l-1.3809,11.9395
			c-2.7197,0.2002-5.3799,0.2998-7.9795,0.2998c-7.4004,0-12.7607-1.3799-16.0801-4.1396c-2.4805-2.04-3.7197-4.6992-3.7197-7.9795
			c0-3.1602,0.9395-5.9199,2.8193-8.2803c2.04-2.5596,5.4395-4.9805,10.2002-7.2598c-0.4795-0.1201-1.0605-0.1807-1.7402-0.1807
			c-4.8799,0-9.0596,2.7002-12.54,8.1006l-9.1191-6c3.1191-3.4805,6.1797-7.5801,9.1797-12.3008l-5.46,0.6602l-2.4004-11.3398
			c4.5195-0.1592,9.3398-0.54,14.46-1.1396c1.4795-3.04,2.6797-5.7598,3.6006-8.1602l11.8193,1.9199
			c-0.4404,0.8008-1.1992,2.1602-2.2793,4.0801c1.6396-0.3604,3.2998-0.8594,4.9795-1.5l3.2998,10.6201
			c-4.1201,1.0801-9.2393,2.0996-15.3594,3.0596c-1.0801,1.7607-1.8809,2.9805-2.4004,3.6602c2.0791-0.5195,4-0.7803,5.7598-0.7803
			c4.04,0.041,7.2002,1.6201,9.4805,4.7402c5.0791-1.6797,9.8594-2.8594,14.3398-3.54L1028.7998,45.2207z"/>
	</g>
</g>
</svg>
