<?xml version="1.0" encoding="utf-8"?>
<!-- Generator: Adobe Illustrator 25.2.1, SVG Export Plug-In . SVG Version: 6.00 Build 0)  -->
<svg version="1.1" id="レイヤー_1" xmlns="http://www.w3.org/2000/svg" xmlns:xlink="http://www.w3.org/1999/xlink" x="0px"
	 y="0px" viewBox="0 0 1040 80" style="enable-background:new 0 0 1040 80;" xml:space="preserve">
<style type="text/css">
	.st0{fill:#1E1E28;}
</style>
<g>
	<g>
		<g>
			<path class="st0" d="M62.3203,45.4609c0,5.7207-2.1406,10.4199-6.4199,14.0996c-4.1211,3.5195-9.0811,5.2803-14.8809,5.2803
				c-13.2402,0-19.8594-5.2803-19.8594-15.8398V15.7607h8.46v33.4805c0,4.4395,0.8594,7.7598,2.5801,9.96
				c1.8799,2.4805,4.959,3.7197,9.2402,3.7197c5.3193,0,9.7988-1.5996,13.4395-4.7998c3.8398-3.3203,5.7598-7.5996,5.7598-12.8398
				c0-2.2402-0.4795-4.3809-1.4395-6.4209c-1.041-2.3193-2.4805-3.9189-4.3203-4.7998c0.1201,0.4404,0.1797,0.8809,0.1797,1.3203
				c0,0.8799-0.2393,1.7607-0.7197,2.6396c-0.7598,1.3604-2.0801,2.04-3.96,2.04c-1.2803,0-2.3604-0.4395-3.2402-1.3193
				s-1.3193-1.9404-1.3193-3.1807c0-1.3594,0.4697-2.4902,1.4102-3.3896c0.9385-0.9004,2.1094-1.3506,3.5098-1.3506
				c3.5195,0,6.3799,1.6201,8.5801,4.8604C61.3193,38.5215,62.3203,41.7812,62.3203,45.4609z"/>
			<path class="st0" d="M125.9199,49.4209c0,4.4004-1.5,8.001-4.5,10.7998c-3,2.7998-6.7002,4.2002-11.0996,4.2002
				c-7.8809,0-11.8203-3.3604-11.8203-10.0801V38.3203c0-1.8789-0.7197-2.8193-2.1602-2.8193c-1,0-2.04,0.4004-3.1201,1.2002
				s-1.9004,1.6797-2.46,2.6396l-6.96,24.7197l-8.2803-1.0195l13.3809-48.0605l8.5801,0.96l-5.7002,19.9199
				c2.2393-1.8789,4.7393-2.8193,7.5-2.8193c4.8799,0,7.3193,2.54,7.3193,7.6201v15.2393c0,4.4014,1.6602,6.6006,4.9805,6.6006
				c3.5596,0,6.54-1.2695,8.9395-3.8105c2.4004-2.5391,3.6006-5.6094,3.6006-9.21c0-3.96-1.2402-6.6992-3.7197-8.2197
				c0.0391,0.3203,0.0596,0.6211,0.0596,0.9004c0,1.2803-0.4404,2.3701-1.3203,3.2695c-0.8799,0.9004-1.96,1.3506-3.2393,1.3506
				c-1.2812,0-2.3701-0.4502-3.2705-1.3506c-0.8994-0.8994-1.3496-1.9893-1.3496-3.2695s0.4502-2.3604,1.3496-3.2402
				c0.9004-0.8799,1.9893-1.3203,3.2705-1.3203c3.0391,0,5.499,1.2402,7.3799,3.7197
				C125.04,43.6006,125.9199,46.3008,125.9199,49.4209z"/>
			<path class="st0" d="M186.8799,27.4004c0,2.5205-0.9805,4.4805-2.9395,5.8809c-1.3203,0.96-2.8408,1.4395-4.5605,1.4395
				c-0.8398,0-1.7402-0.1201-2.7002-0.3604c2.04,4.3604,3.0605,8.5605,3.0605,12.6006c0.0391,5.5195-1.8604,9.96-5.7002,13.3203
				c-3.6406,3.1592-8.2607,4.7393-13.8604,4.7393c-6.4795,0-11.6602-1.5596-15.54-4.6797
				c-4.1602-3.3604-6.2393-8.1992-6.2393-14.5205c0-9.1191,4.6191-17.8799,13.8594-26.2793H138.46v-1.6807h24.2998v1.2607
				c-4.7998,4.4805-8.4199,8.6201-10.8594,12.4199c-3.3213,5.1201-4.9805,10.2598-4.9805,15.4199
				c0,4.7998,1.2598,8.6396,3.7803,11.5195c2.6396,3.041,6.2998,4.5605,10.9795,4.5605c4.5195,0,8.3799-1.5498,11.5801-4.6504
				c3.2002-3.0996,4.7793-6.9092,4.7402-11.4297c-0.04-2.7998-0.5908-5.7197-1.6504-8.7598s-2.4502-5.7002-4.1699-7.9805
				l1.5605-0.9004c0.4395,0.7207,1.1396,1.7207,2.0996,3c0.8799,0.4805,1.8799,0.7207,3,0.7207
				c0.5195,0,1.0596-0.0605,1.6201-0.1807c1.7598-0.3193,2.8994-0.999,3.4199-2.04c-0.4004,0.0811-0.7803,0.1201-1.1396,0.1201
				c-1.1201,0-2.0508-0.3389-2.79-1.0195c-0.7412-0.6797-1.1104-1.5801-1.1104-2.7002c0-1.0801,0.3691-2,1.1104-2.7598
				c0.7393-0.7598,1.6494-1.1406,2.7295-1.1406c1.2002,0,2.1992,0.3809,3,1.1406
				C186.4795,25.2207,186.8799,26.2012,186.8799,27.4004z M184.7803,17.3809c0,1.5596-0.54,2.8799-1.6201,3.96
				s-2.4004,1.6201-3.96,1.6201c-1.5205,0-2.8105-0.54-3.8701-1.6201c-1.0605-1.0801-1.5898-2.4004-1.5898-3.96
				c0-1.5195,0.5293-2.8096,1.5898-3.8701c1.0596-1.0596,2.3496-1.5898,3.8701-1.5898c1.5596,0,2.8799,0.5303,3.96,1.5898
				C184.2402,14.5713,184.7803,15.8613,184.7803,17.3809z M183.4004,17.3809c0-1.1602-0.4004-2.1299-1.2002-2.9102
				c-0.8008-0.7803-1.7998-1.1699-3-1.1699c-1.1611,0-2.1211,0.3896-2.8799,1.1699c-0.7607,0.7803-1.1406,1.75-1.1406,2.9102
				s0.3799,2.1406,1.1406,2.9395c0.7588,0.8008,1.7188,1.2002,2.8799,1.2002c1.2002,0,2.1992-0.3896,3-1.1699
				C183,19.5703,183.4004,18.5811,183.4004,17.3809z"/>
			<path class="st0" d="M242.9199,20.2607c-8.2803,0-15.2998,2.3203-21.0596,6.96c-6.2402,4.96-9.3604,11.46-9.3604,19.5
				c0,4.4805,1.1797,8.1807,3.54,11.0996c2.5596,3.1201,6.0195,4.6807,10.3799,4.6807c3.4395,0,6.4199-0.9395,8.9404-2.8203
				c2.7988-2.0791,4.1992-4.7793,4.1992-8.0996c0-1.7998-0.5195-3.2793-1.5596-4.4404c0.0801,1.3203-0.3701,2.4297-1.3496,3.3301
				c-0.9814,0.9004-2.1309,1.3496-3.4502,1.3496c-1.2812,0-2.3604-0.4199-3.2402-1.2598s-1.3203-1.8994-1.3203-3.1797
				c0-1.3594,0.46-2.4795,1.3799-3.3604c0.9199-0.8789,2.0605-1.3193,3.4209-1.3193c2.3594,0,4.2988,0.8994,5.8193,2.6992
				c1.3594,1.7207,2.04,3.7803,2.04,6.1807c0,4.04-1.6797,7.2598-5.04,9.6602c-3.04,2.1191-6.6396,3.1797-10.7998,3.1797
				c-6.1201,0-11.1602-1.4805-15.1201-4.4404c-4.4004-3.2793-6.5996-7.8789-6.5996-13.7998c0-6.5195,2.8994-12.2402,8.7002-17.1602
				c4.8789-4.1191,10.8594-7.0596,17.9395-8.8193h-33.54v-1.8008h46.0801V20.2607z"/>
			<path class="st0" d="M305.3203,34.3604h-9.4805l1.9199,11.5801h-7.9795c-3.9209-2.8799-8.1211-4.3193-12.6006-4.3193
				c-3.3203,0-6.0801,0.8799-8.2793,2.6396c-2.4004,1.9199-3.6006,4.4805-3.6006,7.6797c0,7.6406,4.9395,11.46,14.8203,11.46
				c2.8398,0,5.7002-0.4004,8.5801-1.1992c3.8789-1.1201,6.1797-2.6602,6.8994-4.6201c-0.7197,0.8398-1.54,1.2598-2.46,1.2598
				c-1.3604,0-2.5-0.4199-3.4199-1.2598s-1.3799-1.9404-1.3799-3.2998c0-1.3203,0.46-2.3799,1.3799-3.1807
				c0.9199-0.7998,2.0596-1.2002,3.4199-1.2002c1.6396,0,2.96,0.4414,3.96,1.3203c1,0.8809,1.5,2.1406,1.5,3.7803
				c0,3.6396-2.6396,6.3809-7.9199,8.2197c-3.7598,1.3203-7.8398,1.9805-12.2393,1.9805c-5.7607,0-10.4805-0.8203-14.1602-2.46
				c-5.001-2.2402-7.5-5.9004-7.5-10.9805c0-4.2393,1.999-7.46,6-9.6602c3.2393-1.7598,7.1592-2.6396,11.7598-2.6396
				c5.4004,0,10.1592,1.2002,14.2803,3.5996l-1.5605-8.7002h-29.8799v-1.7998H286.96l-1.5-7.9199h-28.0801v-1.6797h27.7197
				l-1.3193-7.8604h8.7002l1.2598,7.8604h11.5801v1.6797H294.04l1.4404,7.9199h9.8398V34.3604z"/>
			<path class="st0" d="M343.6602,25.3604h-10.6797l-10.8604,35.1006l-7.9199-1.5605l10.4395-33.54h-8.3994v-1.6797h8.9395l2.8799-9
				l7.9805,1.0801l-2.5205,7.9199h10.1406V25.3604z M367.3604,31.3604c0,1.4805-0.4805,2.7002-1.4404,3.6602
				s-2.1807,1.4404-3.6602,1.4404c-1.3193,0-2.4102-0.3906-3.2695-1.1699c-0.8613-0.7803-1.29-1.8301-1.29-3.1504
				c0-1.2002,0.3691-2.1602,1.1094-2.8799s1.71-1.0801,2.9102-1.0801c1.4795,0,2.5596,0.501,3.2402,1.5
				c-0.6807-1.6396-1.8203-2.7793-3.4199-3.4199c-1.4004-0.5996-3.4404-0.9004-6.1201-0.9004v19.6201
				c3.3193,1.5205,7.1191,4.0605,11.4004,7.6201l-1.2002,1.3799c-3.6807-3.2393-7.0801-5.5801-10.2002-7.0195v6.54
				c0,7.8398-4.4004,11.7598-13.2002,11.7598c-3.8008,0-6.9199-0.8398-9.3594-2.5195c-2.8008-1.96-4.2002-4.7598-4.2002-8.4004
				c0-4.04,1.5195-7.0996,4.5596-9.1797c2.6797-1.8398,6.1396-2.7607,10.3799-2.7607c1.7598,0,2.9795,0.1006,3.6602,0.3008V23.6807
				h9.4199c2.7607,0,5.1396,0.5605,7.1406,1.6797C366.1797,26.7617,367.3604,28.7607,367.3604,31.3604z M347.2598,55.541V44.4404
				c-1.04-0.1992-2.2598-0.2998-3.6602-0.2998c-3.7598,0-6.7998,0.7803-9.1191,2.3398c-2.6807,1.7607-4.0205,4.4209-4.0205,7.9805
				c0,2.7207,1.0205,4.9199,3.0596,6.5996c1.9209,1.5205,4.2803,2.2803,7.0801,2.2803
				C345.04,63.3408,347.2598,60.7412,347.2598,55.541z"/>
			<path class="st0" d="M424.96,59.9209v1.7998H404.5v-1.7998c4.04,0,6.0596-0.8193,6.0596-2.46
				c0-0.4805-0.1406-1.0596-0.4199-1.7402l-3.6592-8.8799H388l-2.7002,7.2598c-0.2803,0.8008-0.4199,1.5-0.4199,2.1006
				c0,2.4805,2.1992,3.7197,6.6006,3.7197v1.7998h-16.6201v-1.7998c2.2393,0,4.0391-0.4697,5.3994-1.4102
				c1.3594-0.9395,2.4395-2.5293,3.2402-4.7695l11.8799-32.5205l7.2002-3.4199L418.96,56.7412
				C419.8398,58.8613,421.8398,59.9209,424.96,59.9209z M388.6602,45.041h17.04L396.46,23.3203L388.6602,45.041z"/>
			<path class="st0" d="M465.1602,40.001l9.7803,15.1201c1.1992,1.8398,2.3594,3.0996,3.4795,3.7793
				c1.1191,0.6807,2.6602,1.0205,4.6201,1.0205v1.7998h-13.2598L456.04,40.001h-3.4805v16.2598c0,1.4004,0.4297,2.3604,1.29,2.8799
				c0.8604,0.5205,2.4902,0.7803,4.8906,0.7803v1.7998h-19.9805v-1.7998c2.2803,0,3.8496-0.2598,4.71-0.7803
				c0.8604-0.5195,1.29-1.4795,1.29-2.8799V24.3408c0-1.5996-0.4199-2.6699-1.2598-3.21s-2.4404-0.8105-4.7998-0.8105v-1.7998
				h23.8799c5,0,8.8994,1.001,11.7002,3c2.6787,1.9199,4.0195,4.5,4.0195,7.7402c0,3.4004-1.2598,6.04-3.7803,7.9199
				C472.2793,38.8604,469.1592,39.8008,465.1602,40.001z M452.5596,24.3408v13.8604h6.3008c4.2393,0,6.999-0.6602,8.2793-1.9805
				c1.6396-1.6797,2.46-3.999,2.46-6.96c0-3.0391-0.9199-5.3398-2.7598-6.9004c-1.6006-1.3594-4.2598-2.04-7.9795-2.04
				c-2.5205,0-4.2002,0.2607-5.04,0.7803C452.9805,21.6211,452.5596,22.7012,452.5596,24.3408z"/>
			<path class="st0" d="M510.46,39.4609l-8.9404,2.2803c-0.96-8.2402-3.0596-15.96-6.2998-23.1602l1.5605-0.9004
				C502.7803,23.8408,507.3398,31.1016,510.46,39.4609z M543.4004,17.8008c0,12-1.9199,22.041-5.7607,30.1201
				c-5.0801,10.7607-12.9805,16.1396-23.6992,16.1396c-3.1611,0-5.7412-0.7002-7.7402-2.0996c-2.3604-1.5996-3.54-3.9199-3.54-6.96
				c0-2.1992,0.6602-4.0801,1.9795-5.6406c1.4004-1.7188,3.1807-2.5791,5.3408-2.5791c1.3994,0,2.5996,0.4404,3.5996,1.3193
				c0.999,0.8809,1.5,2.001,1.5,3.3604c0,1.3203-0.4805,2.4502-1.4404,3.3896c-0.96,0.9404-2.0996,1.4102-3.4199,1.4102
				c-1.4395,0-2.6201-0.3994-3.54-1.2002c-1.04-0.8789-1.46-2.0195-1.2598-3.4199c-0.7197,0.8809-1.0801,2.0205-1.0801,3.4199
				c0,2.2002,0.8799,3.9404,2.6406,5.2207c1.5986,1.1602,3.5391,1.7393,5.8193,1.7393c8.1992,0,14.1396-5.7393,17.8203-17.2197
				c2.4395-7.5996,3.6797-16.5996,3.7197-27H543.4004z M525.8203,38.4404l-8.9404,2.1006
				c-0.5996-8.2402-2.3799-16.0996-5.3398-23.5801l1.5596-0.7197C518.2998,21.6406,522.54,29.041,525.8203,38.4404z"/>
			<path class="st0" d="M604.7197,18.4004c-2.0801,5.4404-4.6406,10.0908-7.6797,13.9502c-3.04,3.8604-6.96,7.5107-11.7598,10.9502
				l-0.3604-0.4805v3.54c0,5.1602-1.5,9.3809-4.5,12.6602c-3,3.2803-7.0605,4.9199-12.1797,4.9199c-3.041,0-5.541-0.7998-7.5-2.3994
				c-2.1211-1.7197-3.1807-4.0596-3.1807-7.0205c0-2.1992,0.6797-4.1299,2.04-5.79c1.3594-1.6592,3.1201-2.4893,5.2803-2.4893
				c1.3203,0,2.4395,0.4297,3.3604,1.29c0.9199,0.8604,1.3799,1.9492,1.3799,3.2695c0,1.2402-0.4502,2.3203-1.3506,3.2402
				c-0.8994,0.9199-1.9697,1.3799-3.21,1.3799c-1.2803,0-2.3604-0.46-3.2393-1.3799c-0.8809-0.9199-1.2207-2-1.0205-3.2402
				c-0.96,0.9209-1.4395,2.2002-1.4395,3.8398c0,2.2412,0.7793,4.0205,2.3398,5.3398c1.5596,1.3203,3.4795,1.9805,5.7598,1.9805
				c3.3994,0,5.9189-1.5996,7.5596-4.7998c1.2002-2.4395,1.8008-5.5596,1.8008-9.3604V30.5205h8.0996v10.2002
				c3.7598-5.0791,6.7998-11.9189,9.1201-20.5195h-36.4199v-1.8008H604.7197z"/>
			<path class="st0" d="M664.1201,31.541c0,4.1602-1.29,7.3496-3.8701,9.5693c-2.5801,2.2207-5.9697,3.3301-10.1699,3.3301h-34.0205
				v-7.6797h36.3604c2.4795,0,4.5605-0.4199,6.2402-1.2598c2.1191-1.1191,3.1797-2.8203,3.1797-5.1006
				c0-1.999-0.7197-3.4199-2.1602-4.2598c0.2002,1.4404-0.1406,2.7207-1.0195,3.8398c-0.8809,1.1211-2.0605,1.6807-3.54,1.6807
				c-1.3604,0-2.5-0.4404-3.4199-1.3203c-0.9209-0.8799-1.3799-2.0195-1.3799-3.4199c0-1.3203,0.499-2.4004,1.5-3.2402
				c0.999-0.8398,2.1797-1.2598,3.54-1.2598c2.4795,0,4.5596,0.8994,6.2393,2.7002
				C663.2803,26.9209,664.1201,29.0615,664.1201,31.541z"/>
			<path class="st0" d="M722.2598,20.2607c-8.2793,0-15.2998,2.3008-21.0596,6.9004c-6.2803,5-9.4199,11.5195-9.4199,19.5596
				c0,4.4805,1.1787,8.1807,3.54,11.0996c2.5195,3.1201,5.9795,4.6807,10.3799,4.6807c3.4395,0,6.4199-0.9395,8.9395-2.8203
				c2.7998-2.04,4.2002-4.7402,4.2002-8.0996c0-1.8799-0.5205-3.3604-1.5596-4.4404c0.0391,1.3604-0.4111,2.4805-1.3506,3.3604
				c-0.9404,0.8799-2.0898,1.3193-3.4492,1.3193c-1.2812,0-2.3613-0.4199-3.2402-1.2598c-0.8809-0.8398-1.3203-1.8994-1.3203-3.1797
				c0-1.3594,0.459-2.4795,1.3799-3.3604c0.9199-0.8789,2.0596-1.3193,3.4199-1.3193c2.4004,0,4.3203,0.8691,5.7607,2.6094
				c1.4395,1.7402,2.1592,3.8311,2.1592,6.2705c0,4.04-1.7002,7.2598-5.0996,9.6602c-3,2.1191-6.5996,3.1797-10.7998,3.1797
				c-6.1201,0-11.1602-1.4805-15.1201-4.4404c-4.4404-3.2793-6.6602-7.8789-6.6602-13.7998c0-6.5195,2.9404-12.2402,8.8203-17.1602
				c4.9199-4.1191,10.9199-7.0596,18-8.8193h-33.6602v-1.8008h46.1396V20.2607z M721.4805,33.3408l-4.2002,3.1797
				c-1.3604-3.1992-3.2402-6.1992-5.6406-9l1.2607-0.96C716.0596,28.0811,718.9199,30.3408,721.4805,33.3408z M727.2402,29.6211
				l-4.0801,3.1797c-1.3604-3-3.2607-6-5.7002-9l1.3203-1.0801C722.2598,24.6406,725.0801,26.9414,727.2402,29.6211z"/>
			<path class="st0" d="M773.7402,18.5205v6.6006h-22.9805l-1.0195,14.5801c2.8799-3.04,6.3193-4.5605,10.3193-4.5605
				c4.2803,0,7.8506,1.2598,10.71,3.7803c2.8594,2.5195,4.29,5.9004,4.29,10.1396c0,4.2812-1.6406,7.6406-4.9199,10.0801
				c-2.96,2.2412-6.6396,3.3604-11.04,3.3604c-3.3594,0-6.3203-0.7402-8.8799-2.2197c-3.04-1.7598-4.5596-4.2197-4.5596-7.3809
				c0-1.4785,0.4297-2.709,1.29-3.6895c0.8594-0.9795,1.9697-1.4697,3.3301-1.4697c1.0801,0,1.9795,0.3594,2.7002,1.0791
				c0.7197,0.7207,1.0791,1.6611,1.0791,2.8203c0,0.8398-0.3994,1.7402-1.1992,2.7002c-0.8008,0.96-1.2002,1.7002-1.2002,2.2197
				c0,1.041,0.6992,1.9902,2.0996,2.8506s2.9404,1.29,4.6201,1.29c2.4395,0,4.3799-1.0098,5.8203-3.0303
				c1.4395-2.0195,2.1602-4.8096,2.1602-8.3701c0-3-0.5811-5.5801-1.7402-7.7402c-1.4805-2.6787-3.6006-4.0195-6.3604-4.0195
				c-3.96,0-6.96,1.7998-9,5.3994h-1.9795l1.6797-24.4199H773.7402z"/>
			<path class="st0" d="M844,50.3203c0,5.0811-2.9004,8.9209-8.7002,11.5205c-4.4004,1.9199-9.5,2.8799-15.2998,2.8799
				c-6.3604,0-11.5195-0.9209-15.4805-2.7598c-5.3994-2.4795-8.0996-6.54-8.0996-12.1797c0-4.1201,2.0195-7.7002,6.0605-10.7402
				c3.0391-2.2803,6.9385-4.0801,11.6992-5.4004L812.5,15.8203h8.4004l1.1396,15.9609c5.4395-1.2002,11.7998-2.0195,19.0801-2.4609
				l0.1797,1.8604c-10.2002,0.6406-17.6797,1.7402-22.4395,3.2998c-9.041,3-13.5605,8.1406-13.5605,15.4199
				c0,8.4814,5.7598,12.7207,17.2803,12.7207c4.2793,0,8.2803-0.8398,12-2.5205c4.6396-2.0791,7.1396-4.9795,7.5-8.7002
				c-0.5996,1.6406-1.8604,2.46-3.7803,2.46c-1.4004,0-2.5498-0.4199-3.4502-1.2598c-0.8994-0.8398-1.3496-1.959-1.3496-3.3594
				c0-1.2803,0.4805-2.3701,1.4404-3.2705s2.0996-1.3496,3.4199-1.3496c1.5986,0,2.9395,0.54,4.0195,1.6201
				C843.46,47.3203,844,48.6807,844,50.3203z"/>
			<path class="st0" d="M902.0195,43.9609c0,6.4795-2.3799,11.6006-7.1396,15.3594c-4.3604,3.4004-9.8799,5.1006-16.5596,5.1006
				c-3.5605,0-6.5605-0.6602-9-1.9805c-3.041-1.6797-4.5605-4.1592-4.5605-7.4395c0-1.6807,0.5303-3.0996,1.5898-4.2598
				s2.4307-1.7402,4.1104-1.7402c1.3994,0,2.5898,0.4004,3.5703,1.2002c0.9795,0.7998,1.4697,1.9004,1.4697,3.2998
				c0,1.2803-0.46,2.3994-1.3799,3.3594c-0.9209,0.96-2.0205,1.4404-3.2998,1.4404c-2.04,0-3.3604-0.7197-3.96-2.1602
				c0.0791,2.0801,1.2988,3.7197,3.6592,4.9199c1.8799,0.96,3.9805,1.4404,6.3008,1.4404c5.1602,0,9.2188-1.9395,12.1797-5.8203
				c2.6797-3.5195,4.0195-7.9395,4.0195-13.2598c0-3.999-1.1094-7.1494-3.3291-9.4502c-2.2207-2.2998-5.3311-3.4502-9.3301-3.4502
				c-7.1211,0-14.8604,1.5-23.2207,4.5l-0.4199-1.8594c10.4404-3.0801,19.04-4.6201,25.7998-4.6201
				c5.7197,0,10.2607,1.1006,13.6201,3.2998C900.0596,34.4805,902.0195,38.5215,902.0195,43.9609z M893.2598,17.3809l-1.6201,8.04
				C880,24.501,870.1602,22.0811,862.1201,18.1611l0.5996-1.6201c4.1201,0.8398,8.9795,1.2803,14.5801,1.3193
				C882.8994,17.9014,888.2197,17.7412,893.2598,17.3809z"/>
			<path class="st0" d="M965.0801,43.9609c0,5.7207-1.5,10.5596-4.5,14.5195c-3.3203,4.3203-7.7607,6.4805-13.3203,6.4805
				c-2.7207,0-4.8809-0.6406-6.4795-1.9199c-1.7207-1.4004-2.5801-3.4199-2.5801-6.0605c0-1.7998,0.54-3.3594,1.6201-4.6797
				s2.5195-1.9805,4.3193-1.9805c1.4004,0,2.5898,0.4209,3.5703,1.2607c0.9795,0.8398,1.4697,1.9404,1.4697,3.2998
				c0,1.3604-0.4492,2.46-1.3496,3.2998s-2.0303,1.2598-3.3896,1.2598c-2.4004,0-3.8613-0.7588-4.3809-2.2793
				c-0.2393,1.7197,0.2598,3.1299,1.5,4.2295c1.2402,1.1006,2.7402,1.6504,4.5,1.6504c3.7998,0,6.6006-2.4004,8.4004-7.2002
				c1.2793-3.3604,1.9199-7.3203,1.9199-11.8799c0-11-3.46-17.2998-10.3799-18.9004c-1.2803,8.001-3.4199,15.501-6.4199,22.5
				c-4.3604,10.2002-9.3408,15.2998-14.9404,15.2998c-3.2803,0-5.7598-1.5-7.4395-4.5c-1.3604-2.3994-2.04-5.3789-2.04-8.9395
				c0-3.1592,0.6992-6.3398,2.0996-9.54c1.3594-3.0801,3.1807-5.7998,5.46-8.1602l-3.5996-12.6602l8.04-2.5195l2.7002,9.6602
				c3.7588-2.1602,8.1797-3.2402,13.2598-3.2402h0.7197c0.1592,0,0.3398,0.0205,0.54,0.0596c0.2793-3.1992,0.46-5.9189,0.54-8.1602
				h1.9199c0,1.7607-0.2002,4.4805-0.5996,8.1602c6,0.5205,10.6396,2.6309,13.9199,6.3301
				C963.4395,33.0508,965.0801,37.9219,965.0801,43.9609z M930.46,58.3008l-7.1396-24.7197
				c-4.2402,4.5205-6.3604,9.8203-6.3604,15.8994c0,3.1201,0.5195,5.7002,1.5596,7.7402c1.3594,2.6396,3.4404,3.96,6.2402,3.96
				C926.4404,61.1807,928.3398,60.2207,930.46,58.3008z M944.1396,24.7607c-0.2393-0.0801-0.46-0.1201-0.6592-0.1201h-0.9004
				c-4.4004,0-8.5,1.0605-12.2998,3.1797l6.0596,22.2002C940.1797,42.6611,942.7793,34.2412,944.1396,24.7607z"/>
			<path class="st0" d="M1016.4404,63.1611l-9.9004,3.1797l-29.8203-26.1602c0-1.04,4.5605-3.6191,13.6807-7.7402
				c5.4795-2.4395,10.9395-4.8994,16.3799-7.3799c0.5195-0.3994,0.8193-0.5996,0.8994-0.5996
				c2.1201-1.3994,3.3203-2.9795,3.6006-4.7402c-0.8008,1.7207-2.1406,2.5801-4.0205,2.5801c-1.3193,0-2.4502-0.4502-3.3896-1.3496
				c-0.9404-0.9004-1.4102-2.0107-1.4102-3.3301c0-1.4404,0.5-2.6406,1.5-3.6006c0.999-0.96,2.2393-1.4395,3.7197-1.4395
				c1.6396,0,3.0303,0.5303,4.1699,1.5898c1.1406,1.0605,1.71,2.4102,1.71,4.0498c0,3.3604-1.8994,6.1406-5.6992,8.3398
				c-7.1211,3.6807-14.2607,7.3799-21.4199,11.1006L1016.4404,63.1611z M1020.9404,32.5605l-4.2607,3.3604
				c-1.5996-3.3193-3.5605-6.2998-5.8799-8.9404l1.1406-0.8994C1015.5791,27.6807,1018.5791,29.8408,1020.9404,32.5605z
				 M1026.4004,28.7812l-4.0205,3.2393c-1.7197-3.5996-3.7197-6.5596-6-8.8799l1.2002-1.0801
				C1021.2998,23.8213,1024.2402,26.0615,1026.4004,28.7812z"/>
		</g>
	</g>
</g>
</svg>
