<?xml version="1.0" encoding="utf-8"?>
<!-- Generator: Adobe Illustrator 25.2.1, SVG Export Plug-In . SVG Version: 6.00 Build 0)  -->
<svg version="1.1" id="レイヤー_1" xmlns="http://www.w3.org/2000/svg" xmlns:xlink="http://www.w3.org/1999/xlink" x="0px"
	 y="0px" viewBox="0 0 1040 80" style="enable-background:new 0 0 1040 80;" xml:space="preserve">
<style type="text/css">
	.st0{fill:#1E1E28;}
</style>
<g>
	<g>
		<path class="st0" d="M52.7803,50.0811c-0.041,0.5205-0.1904,1.3896-0.4502,2.6094c-0.2607,1.2207-0.3896,2.1709-0.3896,2.8506
			c0,0.6396,0.0791,1.2402,0.2393,1.7998c-0.2002,0.2002-0.2803,0.3398-0.2393,0.4199c0.0791,0.2002,0.1191,0.4004,0.1191,0.5996
			c0,0.2803-0.1299,0.7607-0.3896,1.4404c-0.2607,0.6807-0.3701,1.2207-0.3301,1.6201c-0.3594,0.3604-1.04,0.5996-2.04,0.7197
			s-1.6797,0.3809-2.04,0.7803c-0.2803-0.1201-0.54-0.1797-0.7793-0.1797c-0.4414,0-1.001,0.1885-1.6807,0.5693
			c-0.6807,0.3799-1.1797,0.5703-1.5,0.5703s-0.6396-0.1201-0.96-0.3604c-0.2002,0.04-0.46,0.25-0.7803,0.6299
			s-0.5801,0.5703-0.7793,0.5703c-0.1201,0-0.2402-0.04-0.3604-0.1201c-0.04,0.1201-0.1006,0.1807-0.1797,0.1807
			c-0.0811,0-0.1602-0.0605-0.2402-0.1807c-1.4004,0.2402-3.46,0.7402-6.1797,1.5c-0.1201-0.04-0.2607-0.0596-0.4199-0.0596
			c-0.2012,0-0.5312,0.0791-0.9902,0.2402c-0.4609,0.1592-0.8105,0.2393-1.0498,0.2393c-0.2012,0-0.3809-0.0596-0.54-0.1797
			c-0.2803,0.0801-0.8008,0.0801-1.5605,0C28.54,66.2598,28,66.3203,27.6396,66.5205c-0.6807-0.5205-1.8594-0.79-3.54-0.8096
			c-1.6797-0.0205-2.8604-0.25-3.54-0.6904c-0.1602-0.5996-0.6396-1.1396-1.4395-1.6201c-0.9209-0.5195-1.5-1.0391-1.7402-1.5596
			c-0.4004-0.3994-0.6602-1.0996-0.7803-2.0996c-0.1602-1.4404-0.2598-2.2402-0.2998-2.4004
			c-0.2803-0.7197-0.4199-1.5801-0.4199-2.5801c0-0.4395,0.0391-1.1104,0.1201-2.0098c0.0801-0.9004,0.1201-1.5693,0.1201-2.0098
			c0-1.2002-0.2207-2.2002-0.6602-3c0.1592-0.2402,0.2402-0.54,0.2402-0.9004c0-0.1592-0.0605-0.6396-0.1807-1.4404
			c-0.1191-0.5996-0.1406-1.0996-0.0596-1.5c0.0801-0.96,0.0996-2.5996,0.0596-4.9199c-0.04-2.0791,0.0205-3.6992,0.1807-4.8594
			c0-0.0801-0.0811-1.0205-0.2402-2.8203c0.1201-0.6797,0.0596-1.7402-0.1797-3.1797c0-0.2793,0.0693-0.7295,0.21-1.3506
			c0.1396-0.6191,0.21-1.0889,0.21-1.4102c0-0.5186-0.1406-0.96-0.4199-1.3193c0.1201-0.8799,0.1797-1.7998,0.1797-2.7598
			c0-1.5605-0.2207-3.7598-0.6602-6.6006c1.1602-0.7197,2.0791-1.0801,2.7598-1.0801c0.3994,0,0.7598,0.0811,1.0801,0.2402
			c0.3203-0.3193,0.6396-0.4805,0.96-0.4805c0.2793,0,0.6797,0.1709,1.2002,0.5107c0.5195,0.3398,0.9395,0.5098,1.2598,0.5098
			c0.1602,0,0.3008-0.0225,0.4209-0.0674c0.3594-0.3154,0.7988-0.4727,1.3193-0.4727c0.2002,0,0.5703,0.04,1.1104,0.1201
			s0.96,0.0801,1.2598,0s0.5898,0.0205,0.8701,0.2998c0.2793,0.2803,0.54,0.5605,0.7803,0.8398
			C27.9404,15.4609,28,15.8418,28,16.2412c0,0.4795-0.1006,1.1992-0.2998,2.1592c-0.2012,0.96-0.2998,1.6807-0.2998,2.1602
			c0,0.5605,0.0791,1.0801,0.2393,1.5605c-0.3203,0.5996-0.4795,1.3193-0.4795,2.1602c0,0.3594,0.0391,0.9199,0.1201,1.6797
			c0.0791,0.7598,0.1201,1.3203,0.1201,1.6797c0,0.8398-0.1406,1.5605-0.4199,2.1602c0.3594,3.3604,0.2188,5.9199-0.4209,7.6797
			c0.3994,0.8008,0.6006,1.6602,0.6006,2.5801c0,0.5205-0.0811,1.2812-0.2402,2.2803c-0.1602,1-0.2402,1.7803-0.2402,2.3398
			c0,0.6807,0.0996,1.3408,0.3008,1.9805c-0.3213,0.7598-0.4805,1.5-0.4805,2.2197c0,0.7598,0.1592,1.5205,0.4805,2.2803
			c-0.1611,0.1602-0.2207,0.2998-0.1807,0.4199c0.0801,0.0801,0.1201,0.1602,0.1201,0.2393c0,0.0811-0.04,0.1406-0.1201,0.1807
			c0.3994,1.3193,0.96,2.2598,1.6807,2.8193c0.3594-0.1992,0.6387-0.2998,0.8398-0.2998c0.2393,0,0.5195,0.1064,0.8398,0.3164
			c0.1992,0.5898,0.459,0.8838,0.7803,0.8838c0.1592,0,0.4795-0.1289,0.96-0.3896c0.4795-0.2598,0.8398-0.3906,1.0801-0.3906
			c0.1592,0,0.2998-0.0088,0.4199-0.0293c0.1191-0.0205,0.3389,0.0498,0.6592,0.21s0.6006,0.2002,0.8408,0.1201
			c0.3594-0.3604,1.1992-0.6006,2.5195-0.7207c1.1602-0.0791,1.8799-0.4795,2.1602-1.2002
			c0.3604,0.1611,0.7393,0.2402,1.1396,0.2402c0.4805,0,1.7402-0.5195,3.7803-1.5596c0.2793,0.0801,0.54,0.1201,0.7803,0.1201
			c0.6797,0,1.3799-0.3604,2.0996-1.0801c0.8799-0.8799,1.5605-1.4004,2.04-1.5605c0.1592,0.1201,0.3193,0.1807,0.4805,0.1807
			c0.2393,0,0.5889-0.1104,1.0498-0.3301c0.459-0.2197,0.7891-0.3301,0.9902-0.3301C52.3799,49.001,52.6602,49.3604,52.7803,50.0811
			z"/>
		<path class="st0" d="M121.4912,50.8008c0.2002,0.2002,0.2998,0.4004,0.2998,0.5996c0,0.2012-0.1797,0.501-0.54,0.9004
			c-0.3594,0.4004-0.5,0.7402-0.4199,1.0195c-0.4795,0.4805-1.1396,1.4014-1.9795,2.7607
			c-0.7207,1.2002-1.4209,2.0605-2.1006,2.5801c-0.04,0.5996-0.4004,1.1602-1.0801,1.6797
			c-0.7998,0.6406-1.2803,1.1602-1.4395,1.5596c-0.6006,1.04-1.7012,1.96-3.2998,2.7607c-1.8408,0.9189-3.0215,1.6992-3.54,2.3398
			c-2.1211,0.7197-3.9814,1.0801-5.5801,1.0801c-1.3203,0-2.6611-0.2207-4.0205-0.6602c-0.4795,0.1201-1.1201,0.0596-1.9199-0.1797
			c-1.04-0.96-2.0605-1.9502-3.0596-2.9707c-1.001-1.0195-1.4805-2.25-1.4404-3.6895c-0.4004-0.2002-0.5996-0.6201-0.5996-1.2607
			c-0.041-0.7988-0.1201-1.2988-0.2402-1.5c-1.7207-3.8789-3.6406-5.7988-5.7598-5.7598c-4.1201,2.3203-6.2607,5.1006-6.4199,8.3398
			c-0.9209,1.3604-1.5605,2.9199-1.9199,4.6807c-0.3604,0.5596-0.8008,0.8398-1.3203,0.8398c-0.4004,0-1.0107-0.2012-1.8301-0.6006
			c-0.8203-0.3994-1.4102-0.6201-1.7695-0.6592c-0.5205-0.041-1.2207-0.291-2.1006-0.75c-0.8799-0.4609-1.6006-0.7109-2.1602-0.75
			c-0.1201-0.2803-0.4004-0.4297-0.8398-0.4502c-0.4404-0.0195-0.7197-0.0898-0.8398-0.21
			c-0.5605-0.5195-0.8398-1.2197-0.8398-2.1006c0-0.3594,0.0596-0.7197,0.1797-1.0801c1.04-1.1992,1.6797-2.2588,1.9199-3.1797
			c0.3604-0.5996,0.8398-1.9199,1.4404-3.96c0.5195-1.6797,1.1787-2.9189,1.9795-3.7197c0.04-0.7998,0.4297-1.8994,1.1699-3.2998
			s1.1299-2.5205,1.1699-3.3604c0.7598-1.1602,1.5205-2.3398,2.2803-3.54c0.96-1.4404,1.4795-2.7393,1.5605-3.9004
			c0.3994-0.3594,0.8789-1.1396,1.4395-2.3398c0.5195-1.0801,1.1191-1.7998,1.7998-2.1602c0.3203-1.7998,0.96-3.499,1.9199-5.0996
			c0-0.5195,0.2305-1.209,0.6904-2.0703c0.459-0.8594,0.6494-1.5898,0.5703-2.1895c1.7598-2.1602,2.6787-3.9395,2.7598-5.3398
			c0.2793-0.1602,0.5791-0.3301,0.9004-0.5107c0.3193-0.1797,0.459-0.4492,0.4199-0.8096c0.1992-0.1201,0.5791-0.4199,1.1396-0.9004
			c0.4395-0.3994,0.7998-0.5996,1.0801-0.5996c0.3193,0,0.6689,0.1797,1.0498,0.54c0.3799,0.3604,0.8193,0.7402,1.3203,1.1396
			c0.499,0.4004,1.0293,0.5605,1.5898,0.4805c1.8389,1.4805,3.96,2.3398,6.3604,2.5801c0.7588,0.5996,1.0586,1.2402,0.8994,1.9199
			c-0.8799,0.5996-2.0205,1.6602-3.4199,3.1797c-0.8799,1.2803-1.7607,2.5605-2.6396,3.8398
			c-1.001,1.5605-1.7012,2.9209-2.1006,4.0801c-0.8008,0.6006-1.5293,1.7305-2.1895,3.3906s-1.4102,2.8105-2.25,3.4492
			c-0.2012,0.2803-0.5205,0.9404-0.96,1.9805c-0.3604,0.8799-0.7607,1.5-1.2002,1.8604c0.0391,0.5195,0.3193,1,0.8398,1.4395
			c0.3994,0,0.9004-0.1992,1.5-0.5996c-0.1201,0,0.7402-0.0195,2.5801-0.0605c0.9199,0,1.6992,0.1602,2.3398,0.4805
			c0.0801-0.1592,0.2998-0.2402,0.6602-0.2402c3,2.2402,4.9199,5.1602,5.7598,8.7598l0.8398,2.1602
			c0.3203,0.8398,0.8193,1.4004,1.5,1.6797c0.3994,0.2402,0.8408,0.3604,1.3203,0.3604c-0.1602,0,0.5996-0.1201,2.2803-0.3604
			c0-0.3594,0.249-0.75,0.75-1.1699c0.499-0.4199,0.6895-0.8896,0.5693-1.4102c1.5605-1.5195,3.1201-4.0791,4.6807-7.6797
			c0.1992-0.5596,0.4199-1.1396,0.6602-1.7402c0.2393-0.5996,0.6592-0.9395,1.2598-1.0195c0.5195,0.0801,1.04,0.1797,1.5596,0.2998
			s0.7803,0.5205,0.7803,1.2002c0.8799,0.8799,1.9199,2.2197,3.1201,4.0195C119.8906,48.8203,120.8506,50.1211,121.4912,50.8008z"/>
		<path class="st0" d="M187.3828,47.501c-0.3203,0.2002-0.7109,0.71-1.1699,1.5303c-0.46,0.8203-0.9297,1.3105-1.4102,1.4697
			c-0.3594,0.3203-0.7793,1.3799-1.2598,3.1797c-0.4004,1.4004-1.0195,2.1006-1.8604,2.1006c-0.2803,0-0.5801-0.0605-0.8994-0.1807
			c-0.96-0.5195-1.8809-1.5-2.7598-2.9395c-1.0801-1.8008-1.8008-2.8799-2.1602-3.2402c-0.0811-0.6797-0.6406-1.5391-1.6807-2.5801
			c-0.8799,0.1201-1.3193,0.7002-1.3193,1.7402c0,0.1602,0,0.3799,0,0.6602s0,0.5,0,0.6592c0,0.7607-0.2012,1.3008-0.6006,1.6201
			c-0.2002,1.7607-0.8398,3.7607-1.9199,6c0.04,0.1201,0.0996,0.1807,0.1807,0.1807c-2.9209,5.1992-6.2607,8.0596-10.0205,8.5801
			c-0.8008,0.6797-1.8604,1.0195-3.1797,1.0195c-0.4004,0-1.001-0.04-1.7998-0.1201c-0.8008-0.0801-1.4014-0.1201-1.8008-0.1201
			c-0.96,0-1.7607,0.1592-2.3994,0.4805c-0.0811,0-0.1406,0-0.1807,0c-0.0801,0-0.1602,0-0.2393,0
			c-0.041,0-0.9404-0.2012-2.7002-0.6006c-1.2002-0.2803-2.0801-0.7197-2.6406-1.3193c-0.3594,0.0791-0.79-0.0303-1.2891-0.3301
			c-0.501-0.2998-0.8906-0.4502-1.1709-0.4502c-0.1602,0-0.3398,0.0391-0.54,0.1201c-0.2002-0.1201-0.5195-0.4805-0.96-1.0801
			c-0.3203-0.4805-0.6396-0.6807-0.96-0.5996c-1.3193-0.9199-2.2998-2.4199-2.9395-4.5c-0.5205-1.7598-1.041-3.54-1.5605-5.3408
			v-3.4199v-5.9395c0.0801-0.2402,0.3994-1.6592,0.96-4.2607c0.3994-1.7188,0.8799-3.0791,1.4404-4.0791
			c0.0391-0.04,0.4805-0.4805,1.3203-1.3203c0.5996-0.5596,0.8594-1.1191,0.7793-1.6797c0.5605-0.2402,1.2002-0.8799,1.9199-1.9209
			c0.7207-1.0391,1.5-1.5986,2.3408-1.6797c0.5596-0.6797,0.7793-1.3994,0.6592-2.1602c-0.4795-0.3994-1.1602-0.6992-2.0391-0.8994
			c-1.2002-0.2793-1.9414-0.4805-2.2207-0.6006c-0.0801,0.1201-0.1602,0.1807-0.2402,0.1807s-0.1406-0.0605-0.1797-0.1807
			c-0.5205,0.1602-1.0801,0.2402-1.6797,0.2402c-0.6406,0-1.2207-0.0801-1.7402-0.2402c-0.5996-0.6387-0.9004-1.3398-0.9004-2.0996
			c0-0.5195,0.2402-1.3994,0.7207-2.6396c0.4795-1.2402,0.6797-2.2207,0.5996-2.9404c0.3604-0.4395,0.6006-1.2793,0.7197-2.5195
			c0.1201-1.1201,0.4404-1.8994,0.96-2.3408c0.4805,0.2803,1.5,0.5605,3.0605,0.8408c1.4395,0.2393,2.499,0.5996,3.1797,1.0791
			c0.5195,0,1.2998,0.0811,2.3398,0.2402c1.04,0.1602,1.8008,0.2402,2.2803,0.2402c0.6396,0,1.2197-0.0996,1.7402-0.2998
			c0.1592,0.1602,0.3301,0.3301,0.5098,0.5098s0.3691,0.2305,0.5703,0.1504c0.1592-0.1377,0.2402-0.2568,0.2402-0.3604
			c-0.041,0.1367,0.0088,0.2422,0.1494,0.3135c0.1396,0.0713,0.29,0.0869,0.4502,0.0469c0.8789-0.2402,2.2998-0.5195,4.2598-0.8408
			c1.04,0.5205,1.9805,1.9414,2.8203,4.2607c0.5996,0.3594,1.0195,1.04,1.2598,2.04c0.2793,1.1201,0.6396,1.8594,1.0801,2.2197
			c0.0801,0.2803-0.1406,0.9209-0.6602,1.9199c-0.6396-0.0801-1.2998,0.2998-1.9795,1.1396
			c-0.8008,1.041-1.4209,1.6611-1.8604,1.8604c-0.96,0.5605-2.0303,1.6709-3.21,3.3301c-1.1807,1.6602-2.25,2.751-3.21,3.2695
			c-1.2002,1.0801-2.1406,2.4814-2.8203,4.2002c-0.3594,0.8809-0.8398,2.46-1.4395,4.7402c0.1592,0.2402,0.2393,0.54,0.2393,0.9004
			c0,0.2002-0.0596,0.6807-0.1797,1.4395c-0.1201,0.5605-0.1406,1-0.0596,1.3203c-0.2012,0.5205-0.2998,1.0801-0.2998,1.6797
			c0,1.5205,0.5391,2.9404,1.6191,4.2598c0.2402-0.0391,0.5107,0.1113,0.8105,0.4502c0.2998,0.3408,0.5293,0.5098,0.6895,0.5098
			c0.0801,0,0.1396-0.0195,0.1807-0.0596c0.0791,0.0811,0.2793,0.0811,0.5996,0c0.2793-0.0801,0.4395-0.0195,0.4805,0.1797
			c0.3994,0.1602,0.8594,0.2402,1.3799,0.2402c0.2793,0,0.9199-0.0596,1.9199-0.1797c0.8398-0.1201,1.5195-0.1396,2.04-0.0605
			c1.0391-0.8398,2.0791-1.6797,3.1201-2.5195c1.1191-1.1191,1.6992-2.2598,1.7393-3.4199c0.6396-0.6006,1.0801-1.54,1.3203-2.8203
			c0.3193-1.5195,0.6006-2.499,0.8398-2.9404c-0.04-0.5596,0.1104-1.3096,0.4502-2.25c0.3398-0.9385,0.5098-1.6289,0.5098-2.0693
			c0-0.2793-0.04-0.5596-0.1201-0.8398c0.4805-1.04,0.7207-2.2998,0.7207-3.7803c0-0.5996-0.041-1.4199-0.1201-2.46
			c-0.1201-1.2393-0.1797-2.0791-0.1797-2.5205c0.1592-0.3994,0.5996-0.6191,1.3193-0.6592c0.3203,0,0.6006-0.1201,0.8398-0.3604
			c1.04,0.1602,2.4004-0.2002,4.0801-1.0801c0.1201,0.0811,0.2598,0.1201,0.4199,0.1201c0.2002,0,0.5195-0.1504,0.96-0.4502
			s0.7803-0.4502,1.0205-0.4502c0.1201,0,0.2402,0.041,0.3604,0.1201c0.1191-0.0791,0.3193-0.0596,0.5996,0.0605
			c0.3994,0.2393,0.6191,0.3594,0.6602,0.3594c0.1201,0.8008,0.6494,1.8701,1.5898,3.21c0.9395,1.3408,1.4697,2.4102,1.5898,3.21
			c0.999,0.96,2.0791,2.7402,3.2402,5.3398c1.0391,2.4004,2.1797,4.041,3.4199,4.9209c0.8789,0.96,1.3203,2.1201,1.3203,3.4795
			C187.4434,47.001,187.4219,47.2607,187.3828,47.501z M185.4629,20.8008c-0.6807,2.5195-2.3203,4.1602-4.9199,4.9199
			c-0.2002-0.2402-0.54-0.2793-1.0195-0.1201c-0.4805,0.1602-0.8408,0.1201-1.0801-0.1201
			c-0.2012,0.2803-0.5605,0.2207-1.0801-0.1797c-0.041-0.3994-0.2803-0.6201-0.7207-0.6602
			c-0.3594-0.0391-0.7002,0.04-1.0195,0.2402c-0.4805,0.1602-0.9209-0.1201-1.3203-0.8398c-0.4795-0.8799-0.8799-1.3799-1.2002-1.5
			c0.04-0.5596-0.04-1.4199-0.2393-2.5801c0.1992-0.6006,0.2998-1.2393,0.2998-1.9199c0-0.6797-0.1006-1.3203-0.2998-1.9199
			c0.4395-0.9199,0.8789-1.8203,1.3193-2.7002c0.5195-1.0801,1.2998-1.5996,2.3408-1.5605c0.4795,0.0811,0.9795-0.0596,1.5-0.4199
			c0.5186,0.1611,1.4395,0.2207,2.7598,0.1807c1.2002,0,2.1191,0.1406,2.7598,0.4199c1.5996,1.1602,2.4004,2.96,2.4004,5.3994
			C185.9434,18.5205,185.7822,19.6406,185.4629,20.8008z M182.2832,19.7207c0.1592-0.3193,0.2402-0.6992,0.2402-1.1396
			c0-0.4805-0.0811-0.8799-0.2402-1.2002c-1.041-0.999-2.3203-1.2793-3.8398-0.8398c-1.0801,0.4795-1.5215,1.4004-1.3203,2.7598
			c0.2402,0.0811,0.7197,0.501,1.4395,1.2598c0.5605,0.6006,1.1602,0.8203,1.8008,0.6602c0.1992-0.2402,0.5596-0.4395,1.0801-0.5996
			C181.8428,20.501,182.123,20.2012,182.2832,19.7207z"/>
		<path class="st0" d="M250.6943,24.7607c-0.5605,0.8398-1.3604,1.2598-2.4004,1.2598c-0.3594,0-0.9395-0.0791-1.7393-0.2393
			c-0.8008-0.1602-1.4014-0.2402-1.8008-0.2402c-0.8398,0-1.5,0.2998-1.9795,0.8994c-0.8809,0-1.9404,0.3213-3.1797,0.96
			c-1.4404,0.8008-2.4404,1.2607-3,1.3809c-0.2402,0.3203-0.5908,0.5996-1.0508,0.8398c-0.46,0.2393-0.8906,0.46-1.29,0.6602
			c-0.2393-0.0801-0.5098,0.04-0.8096,0.3594c-0.2998,0.3203-0.5908,0.6406-0.8701,0.96c-0.1201,0.4404-0.4199,1.1006-0.8994,1.9805
			c-0.4805,0.8799-0.7607,1.5596-0.8408,2.04c-0.04,0.2803-0.1904,0.8096-0.4492,1.5898c-0.2607,0.7803-0.3906,1.3906-0.3906,1.8301
			c0,0.3594,0.0605,0.7197,0.1807,1.0801c-0.1201,0.2002-0.1807,0.6201-0.1807,1.2598c0.1201,4.4805,2.46,8.4004,7.0205,11.7598
			c0.9189,0.5605,1.9199,0.7607,3,0.6006c0.4795,0,1.1592,0.25,2.04,0.75c0.8789,0.5,1.5596,0.6895,2.04,0.5693
			c0.3594,0.3604,1.0293,0.5908,2.0098,0.6904c0.9795,0.1006,1.6494,0.29,2.0098,0.5693c0.0391,0.2402,0.0605,0.4805,0.0605,0.7207
			c0,0.8008-0.291,1.6699-0.8701,2.6094c-0.5811,0.9404-1.1504,1.8301-1.71,2.6699c-0.041,0.2812-0.1006,0.7002-0.1807,1.2607
			c-0.0801,0.1992-0.2393,0.4199-0.4795,0.6602l-0.96,1.9795c-0.4004,0.7598-0.8613,1.2998-1.3799,1.6201
			c-1.0801-0.4805-2.8008-1.041-5.1602-1.6797c-1.1201-1.041-2.0605-1.5605-2.8203-1.5605c-0.3604,0-0.7002,0.0801-1.0195,0.2402
			c-0.3213-0.3604-1.2607-0.8799-2.8203-1.5596c-1.2803-0.5605-2.1211-1.3203-2.5205-2.2803
			c-0.1191,0.04-0.2393,0.0596-0.3594,0.0596c-0.1602,0-0.3906-0.0996-0.6904-0.2998c-0.2998-0.1992-0.5098-0.3193-0.6299-0.3604
			c0.0391-0.3594-0.1797-0.6299-0.6602-0.8096c-0.4795-0.1797-0.7598-0.4102-0.8398-0.6904
			c-1.2002-1.5596-2.4209-3.0986-3.6602-4.6191c-1.2803-1.8008-2.04-3.54-2.2793-5.2207c-0.0811-0.5195-0.3809-1.2197-0.9004-2.0996
			c0.1992-0.9199,0.2998-1.7793,0.2998-2.5801c0-0.7998-0.1006-1.5801-0.2998-2.3398c0.1992-0.4395,0.2998-0.7998,0.2998-1.0801
			c0-0.2793-0.1006-0.6396-0.2998-1.0801c0.3193-2.7998,1.3994-6.0605,3.2402-9.7803c-0.4805-0.6396-1.2402-0.96-2.2803-0.96
			c-0.3604,0-0.8203,0.04-1.3799,0.1201c-0.7197,0.1201-1.1396,0.1904-1.2598,0.21c-0.1201,0.0205-0.3301,0.1504-0.6299,0.3896
			c-0.3008,0.2402-0.5312,0.3604-0.6904,0.3604c-0.1602,0-0.2998-0.1201-0.4199-0.3604c-0.96,0.4004-2.5205,0.8203-4.6797,1.2607
			c-0.5615,0.3594-1.4209,0.9404-2.5801,1.7393c-0.0811-0.0391-0.1807-0.0596-0.3008-0.0596c-0.2393,0-0.5996,0.1602-1.0791,0.4805
			c-0.4805,0.3203-0.8408,0.4795-1.0801,0.4795c-0.3213,0-0.6211-0.1592-0.9004-0.4795c-0.96-1.0801-1.8203-2.6797-2.5801-4.8008
			c-0.96-2.5586-1.6797-4.2393-2.1602-5.04c-0.4004-0.6797-0.2607-1.1592,0.4199-1.4395c1.0801-0.5195,3.2197-1.0996,6.4199-1.7402
			c0.2002-0.1992,0.5898-0.3193,1.1699-0.3604c0.5801-0.0391,0.9697-0.1992,1.1709-0.4795c0.3193,0.0801,0.8193,0,1.5-0.2402
			c-0.0811,0,0.5186,0.0205,1.7998,0.0605c0.7588,0,1.2988-0.1201,1.6201-0.3604c0.1992,0,0.4199,0,0.6592,0
			c0.3203,0,0.8203-0.1299,1.5-0.3896s1.1797-0.3701,1.5-0.3301c1.1602-0.3203,2.7803-0.7598,4.8604-1.3203
			c0.2402,0.2402,0.5,0.2803,0.7803,0.1201c0.3994-0.2402,0.6191-0.3604,0.6602-0.3604c0.1592,0,0.3193,0.1602,0.4795,0.4805
			c0.2793-0.1201,0.9199-0.1807,1.9199-0.1807c0.7998-0.0391,1.3799-0.2598,1.7402-0.6592c0.2402,0.1602,0.5,0.2393,0.7803,0.2393
			c0.3594,0,0.8789-0.1396,1.5596-0.4199c0.6797-0.2793,1.1797-0.4395,1.5-0.4795c0.2402-0.2002,0.6797-0.2793,1.3203-0.2402
			c0.8789,0,1.3594,0,1.4395,0c0.1201,0,0.2402,0,0.3604,0c0.2002,0,0.5098-0.1201,0.9297-0.3604
			c0.4199-0.2393,0.75-0.3594,0.9902-0.3594s0.4805,0.0996,0.7197,0.2998c0.2002-0.1592,0.5703-0.21,1.1104-0.1504
			c0.54,0.0605,0.8701-0.0293,0.9902-0.2695c0.7588-0.1201,1.8994-0.1807,3.4199-0.1807c1.3203-0.6387,2.4004-0.8594,3.2402-0.6592
			c0.0391-0.1201,0.0986-0.1807,0.1797-0.1807c0.0801,0,0.1592,0.0605,0.2402,0.1807c0.3994-0.2793,0.8994-0.4199,1.5-0.4199
			c1.4795,0,2.1797,0.6396,2.0996,1.9199c-0.0801,0.8799,0.0391,2.1396,0.3604,3.7793c0.3193,1.8008,0.4795,3.1006,0.4795,3.9004
			C250.874,23.5215,250.8145,24.1611,250.6943,24.7607z"/>
		<path class="st0" d="M307.5264,35.3203c-0.1602,0.9609-0.2607,1.541-0.2998,1.7402c-0.2012,0.6406-0.5205,1.1201-0.96,1.4404
			c-0.3213-0.0801-0.8809-0.0605-1.6807,0.0596c-1,0.1201-1.6602,0.1807-1.9795,0.1807c-0.5205,0-0.9404-0.0801-1.2607-0.2402
			c-0.9199,0.2002-1.7002,0.5605-2.3398,1.0801c-0.04,0.6396,0.2002,1.3193,0.7207,2.04c0.3994,0.5996,0.7988,1.1992,1.1992,1.7998
			c0.7998,0.6807,1.5801,1.3604,2.3408,2.04c0.9189,0.8398,1.3799,1.6602,1.3799,2.46c0,0.2002-0.0205,0.4199-0.0605,0.6602
			c-0.7197,0.8008-1.8594,1.7393-3.4199,2.8193c-1.7197,1.2812-2.8604,2.1807-3.4199,2.7002
			c-0.2803-0.0391-0.6201,0.0703-1.0195,0.3301c-0.4004,0.2607-0.7207,0.3896-0.96,0.3896c-0.1201,0-0.2402-0.0195-0.3604-0.0596
			c-0.1201-0.3994-0.5098-0.6602-1.1699-0.7803s-1.0703-0.3594-1.2305-0.7197c-0.7197,0-1.4199,0-2.0996,0
			c-0.8008-0.0391-1.5205-0.1797-2.1602-0.4199c-0.0801,0-0.5605,0-1.4395,0c-0.6006,0.04-1.041-0.0996-1.3203-0.4199
			c-0.1201,0.0801-0.2402,0.1201-0.3604,0.1201c-0.1602,0-0.3896-0.0605-0.6895-0.1807c-0.3008-0.1191-0.5107-0.1797-0.6299-0.1797
			c-0.9209,0.3203-1.8604,0.6406-2.8203,0.96c-1,0.4404-1.5605,1.1807-1.6797,2.2197c0.4795,0.96,1.2598,1.4609,2.3398,1.5
			c0.3193,0.4004,0.8994,0.6602,1.7393,0.7803l2.1006,0.2998c0.4795-0.1592,1.3594-0.2188,2.6396-0.1797
			c1.1602,0,2.0596-0.1592,2.7002-0.4795c0.2793,0.2393,0.6992,0.2803,1.2598,0.1191c0.5596-0.1592,1-0.1191,1.3203,0.1201
			c0.1992-0.2393,0.5488-0.2695,1.0498-0.0898c0.5,0.1797,0.8496,0.0703,1.0498-0.3301c0.2793,0.04,0.5703,0.0898,0.8701,0.1504
			c0.2998,0.0596,0.5098,0.2305,0.6299,0.5098c0.0801,0.9209-0.0898,2.1904-0.5098,3.8096
			c-0.4199,1.6201-0.6104,2.8301-0.5703,3.6309c-0.2803,0.5186-0.5605,1.0195-0.8398,1.5
			c-0.3203,0.6387-0.7402,1.0586-1.2598,1.2598c-1.041-0.2402-1.9004-0.2402-2.5801,0c-0.2803,0-0.7402-0.0703-1.3799-0.21
			c-0.6406-0.1406-1.1396-0.21-1.5-0.21c-0.4004,0-0.7803,0.0791-1.1396,0.2402c-0.4004-0.2402-0.9814-0.3809-1.7402-0.4209
			c-0.6406,0-1.2812,0-1.9199,0c-0.6406-0.04-1.1406-0.1797-1.5-0.4199c-0.1201,0.04-0.2607,0.0605-0.4199,0.0605
			c-0.2402,0-0.6514-0.0811-1.2305-0.2402c-0.5801-0.1602-1.0303-0.2402-1.3496-0.2402c-0.3213,0-0.6006,0.0605-0.8398,0.1807
			c-0.1611-0.2803-0.3809-0.4199-0.6602-0.4199c-0.1201,0-0.3213,0.0488-0.6006,0.1494c-0.2803,0.0996-0.5,0.1504-0.6592,0.1504
			c-0.1611,0-0.3008-0.041-0.4209-0.1201c-1.1992-0.6807-2.3994-1.3799-3.5996-2.1006c-1.2803-0.8799-2.1406-1.959-2.5801-3.2393
			c-0.8799-1.0801-1.4199-2.54-1.6201-4.3799c-0.0801-0.7207-0.1201-2.3799-0.1201-4.9805
			c0.3203-0.1201,0.4697-0.3994,0.4502-0.8398c-0.0205-0.4395,0.0498-0.7197,0.21-0.8398c0.7598-0.96,1.1602-1.46,1.2002-1.5
			c0.5195-0.5596,1.04-0.8604,1.5596-0.9004c0.3203-0.4795,0.9902-0.9199,2.0107-1.3203c1.0195-0.3994,1.71-0.7988,2.0693-1.1992
			c0.2002,0.1201,0.3994,0.1797,0.6006,0.1797c0.2793,0,0.6602-0.0996,1.1396-0.2998c0.4805-0.2002,0.7598-0.2998,0.8398-0.2998
			c0.2402,0.0801,0.5,0.1191,0.7803,0.1191c0.2793,0,0.7393-0.0596,1.3799-0.1797c0.6396-0.1201,1.1191-0.1797,1.4404-0.1797
			c0.5596,0,1.0586,0.1406,1.5,0.4199c0.0791-0.1201,0.2998-0.1797,0.6602-0.1797c0.5996-0.0801,1.4395-0.0205,2.5195,0.1797
			c0.1592-0.2793,0.3398-0.4199,0.54-0.4199c0.1592,0,0.3896,0.1104,0.6904,0.3301c0.2998,0.2197,0.5293,0.3301,0.6895,0.3301
			c0.2402,0,0.459-0.1396,0.6602-0.4199c0.5596-0.6797,0.6396-1.2607,0.2402-1.7402c-0.6807-0.7998-1.1211-1.2998-1.3203-1.5
			c-0.5205-0.5195-1.0195-0.8799-1.5-1.0801c-0.7197,0.2002-2.0303,0.4004-3.9297,0.5996c-1.9004,0.2012-3.291,0.4404-4.1699,0.7207
			c-0.3213,0.2803-0.7412,0.4199-1.2607,0.4199c-0.2002,0-0.5098-0.0303-0.9297-0.0908c-0.4199-0.0596-0.7305-0.0898-0.9297-0.0898
			c-0.6807,0-1.2207,0.251-1.6201,0.75c-0.4004,0.501-0.6006,0.8105-0.6006,0.9307c-0.04-0.0801-0.3994-0.1602-1.0791-0.2402
			c0,0.04-0.0811,0.1299-0.2402,0.2695c-0.1602,0.1406-0.2207,0.2705-0.1807,0.3906c-0.2002,0.0801-0.4199,0.0508-0.6592-0.0898
			c-0.2402-0.1396-0.4414-0.1895-0.6006-0.1504c-1.1602-2.1602-2.3604-3.999-3.5996-5.5205
			c-0.04-0.2793-0.4199-0.8594-1.1406-1.7393c-0.5605-0.7598-0.7598-1.46-0.5996-2.1006c0.3193,0,0.7891-0.1689,1.4102-0.5098
			c0.6191-0.3389,1.0889-0.5098,1.4102-0.5098c0.2793,0,0.5596,0.1201,0.8398,0.3594c1.1191-0.5596,2.8994-0.8789,5.3398-0.96
			c2.5996-0.1191,4.3594-0.3594,5.2803-0.7197c0.999,0.2012,1.8594-0.1592,2.5801-1.0801c0.1201-0.6797-0.0703-1.1191-0.5703-1.3193
			c-0.501-0.2002-1.0107-0.3994-1.5303-0.6006c-0.96,0.04-2.3994,0.1797-4.3193,0.4199c-0.5605-0.4795-1.2607-0.7197-2.1006-0.7197
			c-0.4404,0-1.1006,0.0898-1.9795,0.2695c-0.8809,0.1807-1.5,0.2705-1.8604,0.2705c-1.2402,0-2.0996-0.6396-2.5801-1.9199
			c0.0391-0.5596-0.0703-1.1406-0.3301-1.7402c-0.2607-0.5996-0.5098-1.1592-0.75-1.6797c0.0801-0.2402,0.1201-0.5,0.1201-0.7803
			c0-0.4795-0.1602-1.1592-0.4795-2.04c-0.3213-0.8789-0.4805-1.5-0.4805-1.8604c0-0.7197,0.3604-1.2988,1.0801-1.7393
			c0.0391,0.0801,0.3994,0.1602,1.0801,0.2393h2.3398c0.0801,0.2803,0.2598,0.4609,0.54,0.54
			c0.2793,0.1611,0.5195,0.1201,0.7197-0.1191c0.3203,0.2803,0.96,0.4102,1.9199,0.3896c0.96-0.0195,1.5996,0.1904,1.9199,0.6299
			l0.8408-0.4805c0.3594-0.1992,0.5791-0.459,0.6592-0.7793c0-0.3994-0.2598-0.9199-0.7793-1.5605
			c-0.6406-0.7588-1.0205-1.2988-1.1406-1.6201c0.0801-0.999,0.5801-1.6191,1.5-1.8594c0.1201,0,1-0.0195,2.6406-0.0605
			c0.5996-0.0391,1.0801-0.1201,1.4395-0.2393c0.5195,0.0801,1.2607,0,2.2207-0.2402c1.1191-0.2402,1.9199-0.3604,2.3994-0.3604
			c0.8398,0,1.5605,0.2744,2.1602,0.8232c0.1992,0.2354,0.5195,1.2344,0.96,2.9971c0.3193,1.2939,0.999,1.9014,2.04,1.8223
			c0.1992,0.0791,0.3799,0.1172,0.54,0.1172c0.3604,0,0.7393-0.2588,1.1396-0.7793c0.3994-0.5195,0.7402-0.7803,1.0205-0.7803
			c0.2402,0,0.4795,0.0811,0.7197,0.2402c0.5596-0.5195,1.2002-0.7803,1.9199-0.7803c0.5195,0,1.0205,0.1201,1.5,0.3604
			c0.7598,0.2393,1.04,0.7402,0.8398,1.5c0.2793,0.5605,0.71,1.4102,1.29,2.5498s1.0098,1.9902,1.29,2.5498
			c0.1201,0.4404,0.1807,1.1611,0.1807,2.1602c-0.2012,0.0801-0.3604,0.2998-0.4805,0.6602
			c-0.1201,0.3594-0.2998,0.5605-0.54,0.5996c-0.2803-0.1201-0.5605-0.1797-0.8398-0.1797c-0.2402,0-0.6211,0.0703-1.1396,0.21
			c-0.5205,0.1406-0.9004,0.21-1.1406,0.21c-0.3594,0-0.6807-0.0801-0.96-0.2402c-0.2803,0.4404-0.7197,0.6602-1.3203,0.6602
			c-0.1191,0-0.2803,0-0.4795,0c-0.2002-0.0391-0.3408-0.0596-0.4199-0.0596c-0.6807,0-1.0801,0.3799-1.2002,1.1396
			c0,0.5605,0.4199,1.2598,1.2598,2.0996c0.1602,0.0811,0.3398,0.1201,0.54,0.1201s0.5195-0.0898,0.96-0.2695
			c0.4404-0.1807,0.7803-0.2705,1.0205-0.2705s0.4795,0.0811,0.7197,0.2402c0.2402-0.2793,0.7998-0.4199,1.6797-0.4199
			c0.1602,0.04,0.3398,0.0596,0.54,0.0596c0.4404,0,1.0205-0.1689,1.7402-0.5098c0.7197-0.3389,1.2393-0.5098,1.5605-0.5098
			c0.3994,0,0.7588,0.1602,1.0791,0.4795c0.3203-0.0391,0.8408-0.249,1.5605-0.6299c0.7197-0.3799,1.2793-0.5693,1.6797-0.5693
			c0.3604,0,0.6992,0.1191,1.0205,0.3594c0.4395,0.6406,0.6602,1.3799,0.6602,2.2207c0,0.3994-0.0703,1.0195-0.21,1.8594
			c-0.1406,0.8398-0.2109,1.4805-0.2109,1.9199C307.3457,34.501,307.4062,34.9219,307.5264,35.3203z"/>
		<path class="st0" d="M358.5967,24.8203c-0.0801,0.0811-0.0898,0.2402-0.0303,0.4805c0.0605,0.2402,0.0098,0.4404-0.1494,0.5996
			c-0.1201,0.3213-0.3809,0.4609-0.7803,0.4199c-0.5205-0.0391-0.8398,0.0215-0.96,0.1807
			c-0.2402-0.2793-0.5801-0.2002-1.0195,0.2402c-0.3604-0.0801-0.8008-0.0605-1.3203,0.0596
			c-0.6807,0.1201-1.1006,0.1797-1.2598,0.1797c-0.3213,0-0.6006-0.0791-0.8408-0.2393c-0.3203,0.3594-0.8906,0.4102-1.71,0.1494
			c-0.8203-0.2598-1.3896-0.0303-1.71,0.6904c-0.2393-0.0801-0.5195-0.1201-0.8398-0.1201c-1.4395,0-2.5801,0.54-3.4199,1.6201
			c-0.6406,1.6797-1.7803,4.1797-3.4199,7.5c-0.2002,1-0.8008,2.2197-1.7998,3.6602c-1.1201,1.6406-1.7998,2.8193-2.04,3.54
			l-0.3604,1.6797c-0.1602,0.6406-0.4004,1.1602-0.7197,1.5596c-0.3203,0.041-0.7197-0.1992-1.2002-0.7197
			c-0.4795-0.5195-0.9404-0.7197-1.3799-0.5996c-0.6807-0.2793-1.7402-0.7002-3.1797-1.2607
			c-0.8008-0.1201-1.6406-0.2393-2.5205-0.3594s-1.5996-0.3604-2.1602-0.7207c-0.2002-0.3193-0.2998-0.6592-0.2998-1.0195
			c0-0.4395,0.1592-0.999,0.4805-1.6797c0.2793-0.5195,0.5596-1.04,0.8398-1.5605c0.7197-0.1992,1.5195-0.9795,2.4004-2.3398
			c0.7588-1.2393,1.5986-1.8799,2.5195-1.9199c0.1592-0.1592,0.2402-0.3994,0.2402-0.7197c0-0.6006,0-0.8604,0-0.7803
			c-0.1602-0.4395-0.5801-0.6494-1.2598-0.6299c-0.6807,0.0205-1.1211-0.0498-1.3203-0.21
			c-0.6406,0.3203-1.5605,0.6807-2.7598,1.0801c-0.2803,0.1201-0.7803,0.1797-1.5,0.1797
			c-0.4414-0.3193-0.8008-0.9795-1.0801-1.9795c-0.2803-1-0.7002-1.6807-1.2607-2.04c0.0801-0.2402,0.1201-0.4805,0.1201-0.7207
			c0-0.5996-0.3398-1.3691-1.0195-2.3096c-0.6807-0.9395-0.96-1.71-0.8398-2.3105c-0.0811-0.5996,0.2793-1.0996,1.0801-1.5
			c0.8398,0.041,1.9395-0.21,3.2998-0.75c1.3594-0.54,2.3789-0.8096,3.0596-0.8096c0.2402,0,0.4805,0.0205,0.7207,0.0596
			c0.3594-0.1592,0.7793-0.2393,1.2598-0.2393c0.4795,0,0.8994,0.0801,1.2598,0.2393c0.5195,0.041,1.1299-0.1797,1.8301-0.6592
			c0.6992-0.4805,1.25-0.7207,1.6504-0.7207c0.3193,0,0.6592,0.1006,1.0195,0.2998c0.5195-0.6387,1.0293-1.2988,1.5303-1.9795
			c0.499-0.6797,0.709-1.4404,0.6299-2.2803c0.4795-0.4795,0.7803-1.3799,0.8994-2.7002c0.1201-1.1592,0.5195-1.959,1.2002-2.3994
			c0.2002-0.1201,0.3604-0.1797,0.4805-0.1797c0.1992,0,0.3994,0.1602,0.5996,0.4795c0.2002,0.3203,0.3604,0.4805,0.4805,0.4805
			c0.0791,0,0.1992-0.0605,0.3594-0.1807c0.6006,0.1602,1.5498,0.2402,2.8506,0.2402c1.2988,0,2.2695,0.0898,2.9102,0.2695
			c0.6387,0.1807,1.3096,0.4111,2.0098,0.6904c0.6992,0.2803,1.0293,0.7402,0.9902,1.3799c0.0791,0.0811,0.0898,0.25,0.0293,0.5098
			c-0.0596,0.2607-0.0098,0.4502,0.1504,0.5703c-0.04,0.1602,0.1201,0.4404,0.4795,0.8398
			c0.4404-0.0791,0.7803,0.0605,1.0205,0.4199c0.2402-0.0791,0.7803-0.3193,1.6201-0.7197c0.7197-0.3604,1.2793-0.54,1.6797-0.54
			c0.5596,0,1.04,0.2803,1.4404,0.8398c0.5186,0.7207,0.7793,1.6602,0.7793,2.8203c0,0.4004-0.04,1.0107-0.1201,1.8301
			c-0.0801,0.8203-0.1191,1.4307-0.1191,1.8301C358.1172,23.4209,358.2764,24.1816,358.5967,24.8203z M373.3564,55.7812
			c-0.04,0.4795-0.2803,1.0791-0.7197,1.7998c-0.4404,0.7197-0.7002,1.2598-0.7803,1.6201
			c-0.2393,0.3594-0.7197,1.4004-1.4395,3.1191c-0.5205,1.3203-1.1807,2.2598-1.9805,2.8203
			c-0.4404,0.5596-1.2998,0.6396-2.5801,0.2402c-0.2002-0.5996-0.7998-1.1611-1.7998-1.6797
			c-1.1602-0.6006-1.9004-1.1797-2.2197-1.7402c-0.6006-0.0391-1.0801,0.2803-1.4404,0.96
			c-0.4404,0.7998-0.8203,1.2598-1.1396,1.3799c-0.3604,0.4805-0.7197,0.96-1.0801,1.4404c-0.4404,0.5996-0.9404,0.8994-1.5,0.8994
			c-2.4004,0.3994-4.1807,0.7598-5.3398,1.0801c-0.1201-0.2402-0.291-0.2803-0.5098-0.1201
			c-0.2207,0.1592-0.3906,0.1201-0.5107-0.1201c-0.3594,0.2793-0.7402,0.4199-1.1396,0.4199c-0.0811,0-0.5801-0.1191-1.5-0.3594
			c-0.6406-0.1602-1.1807-0.1006-1.6201,0.1797c-0.1201-0.1602-0.2197-0.2402-0.2998-0.2402c-0.04,0-0.1504,0.0605-0.3301,0.1807
			s-0.3301,0.1396-0.4502,0.0596c-0.5205,0-1.1602-0.0898-1.9199-0.2695c-0.7598-0.1807-1.3408-0.2705-1.7402-0.2705
			c-0.3203,0-0.6592,0.0391-1.0195,0.1201c-0.2803-0.3203-1.4609-1.1396-3.54-2.46c-1.4404-0.9209-2.1602-2.0205-2.1602-3.2998
			c0-0.2793,0.0391-0.5801,0.1201-0.9004c-0.2803-0.1592-0.4199-0.5098-0.4199-1.0498s-0.0811-0.8896-0.2402-1.0498
			c-0.04-0.9199,0.0391-2.1992,0.2402-3.8398c-0.04-0.7598,0.0391-1.8398,0.2402-3.2402c0.4795-1.5996,1.459-2.7998,2.9395-3.6006
			c0.2002-0.6387,0.7207-1.2197,1.5605-1.7393c1.0801-0.6797,1.6992-1.0996,1.8594-1.2607
			c0.4805-0.0791,0.8398,0.0605,1.0801,0.4209c0.3203,0.04,0.71-0.1104,1.1699-0.4502s0.79-0.5107,0.9902-0.5107
			c0.1201,0,0.2402,0.0303,0.3604,0.0908c0.1201,0.0596,0.2393,0.0898,0.3594,0.0898c0.1602,0,0.3604-0.0898,0.6006-0.2705
			c0.2402-0.1797,0.4199-0.2695,0.54-0.2695c0.1592,0,0.3193,0.1006,0.4795,0.2998c0.04-0.1201,0.0996-0.1797,0.1807-0.1797
			c0.0791,0,0.1592,0.0596,0.2393,0.1797c0.3203-0.3193,0.6396-0.4795,0.96-0.4795c0.2402,0,0.6006,0.0996,1.0801,0.2998
			c0.4805,0.2002,0.8604,0.2998,1.1406,0.2998c0.2393,0,0.459-0.0391,0.6592-0.1201c1-0.6797,1.5605-1.8604,1.6807-3.54
			c0.1201-2.2393,0.2598-3.5596,0.4199-3.96c0.0391-0.6797,0.6797-1.6797,1.9199-3c0.4395,0.0811,0.999,0.4404,1.6797,1.0801
			c0.6797,0.6406,1.2607,1,1.7402,1.0801c0.2402,0.3604,1.0205,1.04,2.3398,2.04c1.04,0.7598,1.5605,1.5,1.5605,2.2197
			c0,0.4404-0.1611,0.9404-0.4805,1.5c0.0391,0.2402,0.0605,0.5205,0.0605,0.8398c0,0.3213-0.041,0.7705-0.1201,1.3506
			c-0.0811,0.5801-0.1201,1.0303-0.1201,1.3496c0,0.4004,0.0596,0.7803,0.1797,1.1396c-0.1201,0.6406,0.0195,1.3604,0.4199,2.1602
			c0.2793-0.0791,0.54-0.1201,0.7803-0.1201c0.8398,0,1.8799,0.4609,3.1201,1.3809c1.2393,0.9199,2.2197,1.4199,2.9395,1.5
			C370.7363,52.6406,372.2363,54.1406,373.3564,55.7812z M351.3369,56.3809c0.0391-0.1592,0.0596-0.3193,0.0596-0.4805
			c0-0.2393-0.0996-0.5186-0.2998-0.8398c-0.4004-0.4795-0.5996-0.7393-0.5996-0.7793c-0.3213-0.3203-0.7207-0.4805-1.2002-0.4805
			c-0.6807-0.0391-1.1201-0.0996-1.3203-0.1797c-0.2402,0.3594-0.7793,0.5996-1.6201,0.7197
			c-0.8398,0.1201-1.3799,0.4404-1.6201,0.96c-0.0801,0.5996,0.2002,1.1309,0.8408,1.5898c0.6387,0.4609,0.999,0.8701,1.0801,1.2305
			c0.1992,0.2002,0.4199,0.2998,0.6592,0.2998c0.2002,0,0.5-0.1699,0.9004-0.5098c0.3994-0.3398,0.7197-0.5107,0.96-0.5107
			s0.4805,0.1006,0.7197,0.3008C350.2568,57.6611,350.7363,57.2207,351.3369,56.3809z M373.3564,33.7607
			c-0.5605,0.4805-1.21,1.4404-1.9492,2.8799c-0.7412,1.4404-1.5107,2.4004-2.3105,2.8799
			c0.0391,0.3213-0.1104,0.5811-0.4502,0.7803c-0.3398,0.2002-0.5498,0.3809-0.6299,0.54c-1.4805,0.04-2.6396-0.7998-3.4795-2.5205
			c-1.0801-2.1992-1.9199-3.499-2.5205-3.8994c0-0.0391-0.1406-0.2598-0.4199-0.6602c-0.1602,0.04-0.2998,0.0596-0.4199,0.0596
			c-0.3604,0-0.6699-0.2188-0.9297-0.6592c-0.2607-0.4404-0.5908-0.6602-0.9902-0.6602c-0.0811-1.2803,0.0596-2.0596,0.4199-2.3398
			c0-0.04-0.0205-0.0908-0.0596-0.1504c-0.041-0.0596-0.0811-0.0898-0.1201-0.0898c1.1592-0.5195,2.0488-1.7002,2.6699-3.54
			c0.6191-1.8398,1.3496-3,2.1895-3.4805c0.1201,0.1611,0.2402,0.2402,0.3604,0.2402c0.0801,0,0.2197-0.0596,0.4199-0.1797
			s0.3799-0.1396,0.54-0.0605c0.5596,0.7607,1.5303,1.6709,2.9102,2.7305c1.3799,1.0605,2.3291,1.9307,2.8496,2.6104
			c0.1201,0.3994,0.5195,1.1396,1.2002,2.2197c0.5996,0.9209,0.9004,1.7002,0.9004,2.3398
			C373.5371,33.1211,373.4766,33.4414,373.3564,33.7607z"/>
		<path class="st0" d="M402.8877,35.2607c-0.4795,0.5605-1.2803,1.0205-2.4004,1.3799c-1.3604,0.4404-2.2598,0.8203-2.6992,1.1406
			c-0.2402,0.4795-0.7705,0.8096-1.5908,0.9893c-0.8203,0.1807-1.3496,0.4307-1.5898,0.75c-0.8398,0-1.2598-0.2188-1.2598-0.6602
			c-0.4795-0.8398-1.0605-2.1797-1.7402-4.0195c-0.4004-2.1602-2.0195-4.8799-4.8594-8.1602
			c-0.0811-0.2402-0.1201-0.459-0.1201-0.6602c0-0.6797,0.3994-1.2988,1.2002-1.8594c0.6387-0.4404,1.2793-0.8799,1.9199-1.3203
			c0.7588,0,1.7188-0.4199,2.8799-1.2598c1.1592-0.8398,2.1191-1.2607,2.8799-1.2607c0.3193,0,0.6602,0.0605,1.0195,0.1807
			c0.7207,1.0801,1.7793,2.7207,3.1807,4.9199c0.0391,0.3604,0.2891,0.9209,0.75,1.6797c0.459,0.7607,0.6494,1.4209,0.5693,1.9805
			c0.4404,0.4795,0.9805,1.54,1.6201,3.1797c-0.0801,0.2402-0.0205,0.6211,0.1807,1.1396c0.1992,0.5205,0.2998,0.9004,0.2998,1.1406
			S403.0469,35.0205,402.8877,35.2607z M437.6875,20.3203c-0.1602,0.8408-0.7002,2.1602-1.6201,3.9609
			c-0.8398,1.6406-1.2803,3.0205-1.3193,4.1396c-0.4414,0.7598-1.2207,1.9004-2.3398,3.4199
			c-1.2412,3.9209-3.5615,8.9004-6.9609,14.9404c-0.2393,0.8398-0.7598,1.9199-1.5596,3.2393
			c-0.8799,1.4404-1.4404,2.4805-1.6797,3.1201c-1.4805,1.7207-2.9609,3.4404-4.4404,5.1602
			c-1.7998,2.2002-3.1406,4.1201-4.0195,5.7598c-0.3213,0.1201-0.8008,0.5303-1.4404,1.2305
			c-0.6406,0.6992-1.1807,1.0498-1.6201,1.0498c-0.3203,0-0.6602-0.1201-1.0195-0.3604c-0.5605-0.2002-1.9609-0.8604-4.2002-1.9795
			c-1.7207-0.8809-3.2002-1.3594-4.4404-1.4404c-0.5195-0.3994-0.8799-0.96-1.0801-1.6797c1.04-1.7598,3.0801-3.9004,6.1201-6.4199
			c2.3604-1.96,4.3594-4.7402,6-8.3398c0.7598-0.6797,1.7705-1.96,3.0303-3.8398s2.2891-3.1602,3.0898-3.8408
			c0.1201-0.6387,0.2598-1.2988,0.4199-1.9795c0.1602-0.6797,0.5801-1.0801,1.2607-1.2002c0.1191-1.6797,0.8994-3.54,2.3398-5.5801
			c0-0.6797,0.2598-1.6494,0.7793-2.9102c0.5195-1.2598,0.7598-2.2695,0.7207-3.0293c0.8789-1.4404,1.3193-3.7207,1.3193-6.8408
			c0.2402-0.1592,0.8604-0.2393,1.8604-0.2393c0.1592,0.4404,0.5,0.6592,1.0205,0.6592c0.96,0,1.3994,0,1.3193,0
			c0.2002,0.041,0.54,0.1807,1.0205,0.4209c0.3193-0.1201,0.8994,0.0996,1.7393,0.6592c1.0801,0.1201,2.1602,0.2402,3.2402,0.3604
			C436.4668,19.001,437.2871,19.5215,437.6875,20.3203z M418.3682,28.8408c0.0391,0.96-0.54,1.54-1.7402,1.7402
			c-1.6406,0.3203-2.6006,0.5996-2.8799,0.8398c-0.4004,0.04-1.0713,0.2305-2.0107,0.5703s-1.6299,0.5098-2.0693,0.5098
			c-0.8398,0-1.4805-0.4395-1.9199-1.3203c0.0791-0.6396-0.0811-1.4189-0.4805-2.3398l-0.96-2.3398
			c-0.1201-0.8398-0.5996-1.9502-1.4395-3.3301c-0.8408-1.3799-1.3008-2.4697-1.3809-3.2705
			c-0.4795-0.6797-0.6807-1.1191-0.5996-1.3193c0.4805-0.2793,0.999-0.5801,1.5596-0.9004
			c0.5605-0.3193,1.1006-0.4395,1.6201-0.3604c0.6006-0.5996,1.96-1.1592,4.0801-1.6797c0.1201,0.04,0.2402,0.0605,0.3604,0.0605
			c0.2793,0,0.6797-0.1396,1.2002-0.4199c0.5195-0.2803,0.8994-0.4209,1.1396-0.4209s0.459,0.1006,0.6602,0.3008
			c0.5596,0.5605,1.0195,1.4199,1.3799,2.5801c0.3193,1,0.6396,2,0.96,3c0.0391,0.2002,0.2002,0.5693,0.4805,1.1094
			c0.2793,0.54,0.4199,0.9512,0.4199,1.2305c0,0.1602-0.0205,0.2998-0.0605,0.4199c0.2793,0.5605,0.5498,1.4502,0.8105,2.6699
			C417.7578,27.3916,418.0469,28.2812,418.3682,28.8408z"/>
		<path class="st0" d="M500.999,24.1611c0,0.3203-0.0996,0.6504-0.2998,0.9893c-0.2002,0.3408-0.3809,0.6602-0.54,0.96
			c-0.1602,0.3008-0.54,0.54-1.1396,0.7207c-0.5996,0.1797-0.96,0.4902-1.0801,0.9297h-0.4199
			c-1.0801,1.1201-2.1406,2.2402-3.1797,3.3604c-1.3203,1.3193-2.5205,2.2002-3.6006,2.6396
			c-0.3594,0.8799-1.1201,1.6797-2.2803,2.4004c-1.4395,0.8398-2.3799,1.5205-2.8193,2.04c-0.4404,0.04-0.9404-0.1201-1.5-0.4805
			c-0.8809-0.4795-1.3604-0.7393-1.4404-0.7803c-0.2402-0.3994-0.7402-0.4795-1.5-0.2393c-0.96,0.6807-1.4395,1.8594-1.4395,3.54
			c-0.041,1.7998-0.3408,3.04-0.9004,3.7197c-0.3203,1.7998-1.2402,4.2998-2.7598,7.5c-0.4004,1.04-1.1807,2.5195-2.3398,4.4395
			v0.6602c-0.5205,0.3604-1.1006,1.0205-1.7402,1.9805c-0.7607,1.0801-1.3008,1.7803-1.6201,2.0996
			c-1.1201,1.8809-2.0205,3.2197-2.7002,4.0205c-1.2402,1.4395-2.54,2.2998-3.8994,2.5801c-0.3604,0.0791-0.7109-0.1006-1.0508-0.54
			c-0.3398-0.4414-0.6299-0.6807-0.8691-0.7207c-0.5205-0.1201-1.4209-0.5195-2.7002-1.1992
			c-1.0801-0.6006-1.9404-0.9209-2.5801-0.9609c-1.4004-1.1191-2.04-2.0391-1.9199-2.7598
			c0.1201-0.0791,0.1992-0.3594,0.2402-0.8398c0.0391-0.3193,0.2393-0.459,0.5996-0.4199c0.3994-0.7197,1.25-1.5693,2.5498-2.5498
			c1.2998-0.9795,2.0898-1.8496,2.3701-2.6104c0.999-0.9199,1.9199-2.0996,2.7598-3.54c0.7598-1.3193,1.5195-2.6191,2.2803-3.8994
			c0.0391-0.7598,0.3896-1.6396,1.0498-2.6406c0.6602-0.999,1.0293-1.8389,1.1104-2.5195l0.4199-0.4199
			c0.0391-0.1602,0.2402-1.2197,0.5996-3.1807c0.2402-1.2393,0.6006-2.1592,1.0801-2.7598
			c0.2402-1.2002,0.3799-1.8604,0.4199-1.9795c0.2002-0.7207,0.5596-1.2002,1.0801-1.4404c0.4805,0.04,0.9795,0.0811,1.5,0.1201
			c0.5195,0.04,0.9199,0.2803,1.2002,0.7197c0.0391,0,1.0195-0.0791,2.9404-0.2402c1.1592-0.1191,1.8994-0.6191,2.2197-1.5
			c0.0791-0.0391,0.8193-0.4795,2.2197-1.3193c0.9199-0.5195,1.3799-1.1406,1.3799-1.8604c0-0.2402-0.0801-0.5098-0.2402-0.8096
			c-0.1602-0.3008-0.5801-0.5898-1.2598-0.8701c-0.5605,0.3203-1.4199,0.5605-2.5801,0.7197
			c-0.96,0.0811-1.9404,0.1797-2.9395,0.2998c-0.1201-0.1992-0.2705-0.2891-0.4502-0.2695
			c-0.1797,0.0205-0.3105-0.0303-0.3896-0.1504c-0.3213,0.2012-0.9004,0.3301-1.7402,0.3906
			c-0.8398,0.0596-1.4609,0.2305-1.8604,0.5098c-0.2002,0.04-0.4004,0.0596-0.5996,0.0596c-0.2803,0-0.7109-0.0498-1.29-0.1494
			c-0.5801-0.0996-1.0107-0.1504-1.29-0.1504c-0.7197,0-1.3008,0.2998-1.7402,0.9004c-0.2402-0.2002-0.5605-0.3008-0.96-0.3008
			c-0.2402,0-0.6406,0.0508-1.2002,0.1504c-0.5605,0.1006-0.9805,0.1504-1.2598,0.1504c-0.2402,0-0.4404,0-0.5996,0
			c-0.4805,0.2266-1.3906,0.3496-2.7305,0.3682c-1.3408,0.0186-2.3301,0.2363-2.9697,0.6514
			c-0.3604-0.1592-0.7607-0.2402-1.2002-0.2402c-0.2803,0-0.6904,0.0605-1.2295,0.1807c-0.54,0.1201-0.9307,0.1797-1.1709,0.1797
			c-0.5996,0-1.1201-0.2598-1.5596-0.7803c-0.04-0.3193-0.0596-0.6602-0.0596-1.0195c0-0.3994,0.0391-1.0205,0.1191-1.8604
			s0.1201-1.46,0.1201-1.8594c0-0.9609-0.2002-1.8008-0.5996-2.5205c0.0391-0.1992,0.0596-0.4199,0.0596-0.6602
			c0-0.2793-0.04-0.71-0.1201-1.29c-0.0801-0.5791-0.1191-1.0098-0.1191-1.29c0-0.3994,0.0596-0.7393,0.1797-1.0195
			c0.4795-0.0801,1.1895-0.1895,2.1299-0.3301c0.9395-0.1396,1.6504-0.2295,2.1299-0.2705c0.4805,0.2803,1,0.4199,1.5605,0.4199
			c0.2393,0,0.6094-0.0391,1.1094-0.1191s0.8701-0.1201,1.1104-0.1201c0.5596,0,1.0801,0.1406,1.5596,0.4199
			c0.0801-0.1592,0.2197-0.2197,0.4199-0.1807h0.4199l0.1807,0.1807c0.6396,0,1.6201-0.1396,2.9395-0.4199
			c1.3203-0.2793,2.2998-0.4199,2.9404-0.4199c0.999,0,1.8799,0.2197,2.6396,0.6592c0.7598-0.4395,1.7002-0.6592,2.8203-0.6592
			c0.3994,0,1.0195,0.04,1.8604,0.1201c0.8398,0.0801,1.459,0.1191,1.8594,0.1191c0.9199,0,1.7197-0.1396,2.4004-0.4199
			c0.2793,0.0811,0.6689-0.0088,1.1699-0.2695c0.5-0.2598,0.8496-0.3906,1.0498-0.3906c0.2793,0,0.54,0.1406,0.7803,0.4209
			c0.6396,0,1.2793-0.0205,1.9199-0.0605c0.8789-0.0391,1.5-0.2998,1.8604-0.7803c0.2393,0.1201,0.5186,0.1807,0.8398,0.1807
			c0.1992,0,0.5195-0.04,0.96-0.1201c0.4395-0.0801,0.7793-0.1201,1.0195-0.1201c0.2002,0,0.3799,0.0205,0.54,0.0596
			c0.2793,0.1611,0.54,0.2402,0.7803,0.2402c0.3193,0,0.7598-0.1396,1.3203-0.4199c0.5596-0.2793,0.9395-0.4395,1.1396-0.4795
			c1.7197,0.0801,3.2197,1.3604,4.5,3.8398c0.7998,0.9199,1.5801,1.8398,2.3398,2.7598
			C500.4385,22.6611,500.999,23.6016,500.999,24.1611z"/>
		<path class="st0" d="M564.791,32.0811c-0.1611,1.4004-0.2402,3.2197-0.2402,5.46c0,4.1602,0,5.96,0,5.3994
			c-0.7207,0.4414-1.6807,0.6602-2.8799,0.6602c-1.8809,0-2.8799,0-3,0c-0.4414-0.2793-0.9404-0.4199-1.5-0.4199
			c-0.5605,0-1.0605,0.1406-1.5,0.4199c-0.6807-0.1592-2.0205-0.2188-4.0205-0.1797c-1.7607,0-3.04-0.1592-3.8398-0.4805
			c-0.6807,0.3213-1.6006,0.4805-2.7598,0.4805c-0.3213,0-0.8008-0.0195-1.4404-0.0605c-0.6807,0-1.1797,0-1.5,0
			c-1.1201,0-2,0.1406-2.6396,0.4209c-0.2012,0.04-0.4502-0.0498-0.75-0.2705c-0.2998-0.2197-0.5098-0.3301-0.6299-0.3301
			c-0.2012,0-0.3809,0.1406-0.54,0.4199c-0.0811,0.04-0.2402,0.0107-0.4805-0.0898c-0.2402-0.0996-0.4404-0.1504-0.5996-0.1504
			c-0.2402,0-0.4199,0.1406-0.54,0.4209c-0.7197,0.1602-1.8203,0.2305-3.2998,0.21c-1.4805-0.0205-2.5801,0.0498-3.3008,0.21
			c-0.5195-0.2002-1.0596-0.3008-1.6191-0.3008c-0.6006,0-1.5107,0.1504-2.7305,0.4502c-1.2207,0.2998-2.1504,0.4502-2.79,0.4502
			c-0.4795,0-0.9404-0.0596-1.3799-0.1797c-0.3203,0.4404-0.8604,0.6602-1.6201,0.6602c-0.5996,0-1.1807,0-1.7402,0
			c-0.5195-0.0801-1.04-0.1807-1.5596-0.3008c-0.6406-0.0791-0.9805-0.3994-1.0205-0.96c0.2402-0.7998,0.2803-1.9893,0.1201-3.5693
			s-0.1406-2.75,0.0605-3.5107c0-0.3193-0.1406-0.8486-0.4199-1.5898c-0.2803-0.7393-0.4199-1.2695-0.4199-1.5898
			c0-0.5596,0.2793-0.9795,0.8398-1.2598c0.5596-0.2793,1.4189-0.3301,2.5801-0.1504c1.1592,0.1807,2.0195,0.0898,2.5801-0.2695
			c0.2793,0.1602,0.5596,0.2393,0.8398,0.2393c0.2402,0,0.5791-0.0791,1.0195-0.2393c0.4395-0.1592,0.7803-0.2402,1.0205-0.2402
			c0.3594,0,0.6797,0.1406,0.96,0.4199c0.1201-0.1592,0.2188-0.2402,0.2998-0.2402c0.0391,0,0.1592,0.0605,0.3604,0.1807
			c0.1992,0.1191,0.3789,0.1406,0.54,0.0596c1.8789-0.0391,4.7188-0.3193,8.5195-0.8398c0.2793,0.4004,0.75,0.5098,1.4102,0.3301
			c0.6602-0.1807,1.1104-0.1504,1.3496,0.0898c0.3203-0.2793,0.6797-0.4199,1.0801-0.4199c0.1201,0,0.6602,0.1201,1.6201,0.3604
			c0.6797,0.2002,1.2598,0.1406,1.7402-0.1807c0.6396-0.0391,1.5,0.04,2.5801,0.2402c0.4795-0.3193,1.2988-0.459,2.46-0.4199
			c1.1592,0.04,1.959-0.0996,2.3994-0.4199c0.6396,0.1602,1.3809,0.2402,2.2207,0.2402s1.5195-0.0801,2.04-0.2402
			c0.2393,0.1602,0.5596,0.2402,0.96,0.2402c0.2393,0,0.6992-0.0605,1.3799-0.1807c0.5596-0.0791,0.9795-0.0996,1.2598-0.0596
			c0.2793,0.2402,0.7197,0.2695,1.3203,0.0898c0.5996-0.1797,1.0195-0.0693,1.2598,0.3301
			c0.5996-0.2402,1.3799-0.3799,2.3398-0.4199c1.1191-0.04,1.8799-0.1201,2.2803-0.2402c0.0391,0.1201,0.1494,0.1904,0.3301,0.21
			c0.1797,0.0205,0.3193,0.1104,0.4199,0.2705C564.3203,31.4014,564.5098,31.6816,564.791,32.0811z"/>
		<path class="st0" d="M617.7812,60.6406c0.0391,0.5205-0.04,1.1611-0.2402,1.9199c-0.4795,0.8799-1.4199,1.5-2.8193,1.8604
			c-1.2002,0.2402-2.4004,0.4795-3.6006,0.7197c-0.3604-0.4004-0.9297-0.5205-1.71-0.3594c-0.7803,0.1592-1.3496,0.1396-1.71-0.0605
			c-1,0.1592-2.4805,0.5-4.4404,1.0205c-0.1602-0.1201-0.2998-0.2607-0.4199-0.4209c-0.6396-0.0801-1.4502,0.0703-2.4297,0.4502
			c-0.9805,0.3799-1.6709,0.5703-2.0703,0.5703c-0.6807,0-1.3193-0.3408-1.9199-1.0205h-6.1797
			c-0.7197-0.7998-2.001-1.6895-3.8398-2.6699c-1.8408-0.9795-3.1201-1.8691-3.8398-2.6699
			c-0.4805-0.1592-0.9209-0.5791-1.3203-1.2598c-0.6406-1.0801-0.9805-1.6396-1.0195-1.6797
			c0.0791-0.6797-0.0811-1.6504-0.4805-2.9102c-0.4004-1.2598-0.5996-2.1494-0.5996-2.6699c0-0.9199,0.3594-1.7002,1.0801-2.3398
			c1.7998-1.04,4.4189-2.6797,7.8594-4.9199c0.2002,0.2002,0.3398,0.2803,0.4199,0.2393c0.0801-0.1201,0.1592-0.1797,0.2402-0.1797
			c0.0801,0,0.1992,0.0898,0.3604,0.2705c0.1592,0.1797,0.2598,0.29,0.2998,0.3291c0.1201,0.2012,0.1201,0.5811,0,1.1406
			c-0.0811,0.4404,0.0596,0.7598,0.4199,0.96c0.0391,0.8799,0.54,2.3799,1.5,4.5c0.3604,0.1201,0.8398,0.54,1.4395,1.2598
			c0.4805,0.5996,0.9004,0.9004,1.2607,0.9004c0.1992,0,0.4199-0.0801,0.6602-0.2402c0.2393,0.1201,1.5195,0.4004,3.8398,0.8398
			c0.1201-0.0391,0.4795-0.0195,1.0801,0.0605c0.4395,0.0801,0.7998,0,1.0801-0.2402c0.3193,0.1602,0.6592,0.2402,1.0195,0.2402
			c0.3193,0,0.7891-0.0801,1.4102-0.2402c0.6191-0.1592,1.0889-0.2402,1.4102-0.2402c0.4395,0,0.8594,0.1406,1.2598,0.4199
			c0.5195-0.4795,1.4189-0.8398,2.7002-1.0801c1.2793-0.2402,2.1602-0.5791,2.6396-1.0195
			c0.1592,0.0801,0.3193,0.1201,0.4805,0.1201c0.3193,0,0.7393-0.2197,1.2598-0.6602c0.5195-0.4404,0.9199-0.6602,1.2002-0.6602
			c0.1592,0,0.3193,0.04,0.4795,0.1201c0.2402-0.2402,0.5-0.3604,0.7803-0.3604c0.5195,0,0.9004,0.3408,1.1396,1.0205
			c0.0801,0.3594,0.1592,1.9004,0.2402,4.6191C616.7812,58.1211,617.1406,59.5605,617.7812,60.6406z M622.041,20.7412
			c0.0801,0.8398-0.2803,1.4004-1.0801,1.6797c-0.4404-0.0391-0.9893,0.1299-1.6494,0.5098
			c-0.6602,0.3809-1.1504,0.5703-1.4707,0.5703s-0.6396-0.1396-0.96-0.4199l-0.7793-0.9004
			c-0.2803-0.2793-0.5811-0.4199-0.9004-0.4199c-0.1201,0-0.2607,0.0205-0.4199,0.0596c-0.8398,0.8408-1.5,2.1807-1.9805,4.0205
			c-0.5605,2.1602-1.04,3.5801-1.4395,4.2598c-0.2803,0.0811-0.7109,0.4199-1.29,1.0205c-0.5801,0.5996-1.0703,0.8994-1.4697,0.8994
			c-0.2012,0-0.4199-0.0596-0.6602-0.1797c-2.4805,0.8398-3.9209,1.3203-4.3203,1.4404c-1.6006,0.6396-2.9395,1.3594-4.0195,2.1592
			c-0.7207,0.5205-1.2607,0.7803-1.6201,0.7803c-0.1602,0-0.3213-0.0391-0.4805-0.1201c-0.1602,0.0811-0.3203,0.1201-0.4795,0.1201
			c-0.3213,0-0.7412-0.21-1.2607-0.6299s-0.8799-0.6689-1.0791-0.75l-1.8604-2.1602c-0.6807-0.7998-0.9805-1.5791-0.9004-2.3398
			c0.6396-0.1201,1.2305-0.459,1.7705-1.0205c0.54-0.5596,0.8701-1.1396,0.9902-1.7393c-1.2812-1.2393-2.6807-1.8604-4.2002-1.8604
			c-0.3213,0-0.6211,0.04-0.9004,0.1201c-0.7598-0.1201-1.5-0.2402-2.2197-0.3604c-0.8398-0.1992-1.3799-0.6387-1.6201-1.3193
			c-0.04-0.6006,0.2793-1.29,0.96-2.0703c0.6797-0.7803,0.9395-1.5098,0.7803-2.1904l1.9199-3.6592
			c-0.04-0.1602-0.0605-0.3008-0.0605-0.4209c0-0.3984,0.2197-0.7197,0.6602-0.96c0.6006-0.3193,0.96-0.5596,1.0801-0.7197
			c0.5596,0,1.1299,0.04,1.71,0.1201c0.5791,0.0811,1.0098,0.3809,1.29,0.9004c1.7598-0.2793,3.0996-0.2002,4.0205,0.2393
			c0.2793-0.1191,0.54-0.1797,0.7793-0.1797c0.3604,0,0.9395,0.2207,1.7402,0.6602c0.6797,0.3604,1.2803,0.4795,1.7998,0.3604
			c0.2793,0.2393,0.9395,0.4199,1.9805,0.54c0.9199,0.0801,1.5391,0.3994,1.8594,0.96c0.2402-0.04,0.46-0.0605,0.6602-0.0605
			c0.6396,0,1.4902,0.3105,2.5508,0.9297c1.0586,0.6211,1.8496,0.9307,2.3691,0.9307c0.2002,0,0.3994-0.0195,0.6006-0.0605
			c0.1592,0,0.4395,0.1201,0.8398,0.3604c0.3994,0.2402,0.6797,0.3203,0.8398,0.2402c0.2793-0.7207,0.2793-1.8604,0-3.4199
			c0.1592-0.4805,0.54-0.8604,1.1396-1.1406c0.7598-0.3994,1.2402-0.7197,1.4404-0.96c0.7998-0.1201,1.5195,0.0703,2.1602,0.5703
			c0.6396,0.501,1.2598,1.0107,1.8604,1.5303C621.041,17.6211,621.4805,18.9814,622.041,20.7412z M628.2217,15.8203
			c0.3984,1.041,0.3193,1.9004-0.2402,2.5801c-0.4004,0.4004-0.9805,0.7012-1.7402,0.9004
			c-0.5996,0.2002-1.2207,0.4004-1.8604,0.5996c-0.6807-0.3994-1.25-1.209-1.71-2.4297c-0.46-1.2197-1.0303-1.9893-1.71-2.3096
			c0-0.1602-0.1104-0.4102-0.3301-0.75s-0.3301-0.6094-0.3301-0.8105c0-0.1992,0.0801-0.3799,0.2402-0.54
			c0.5195,0.0811,0.9795-0.0791,1.3799-0.4795c0.5596-0.6006,0.9395-0.9395,1.1406-1.0205c1.0801-0.0391,2.0596,0.54,2.9395,1.7402
			C627.1201,14.7812,627.8613,15.6211,628.2217,15.8203z"/>
		<path class="st0" d="M681.8721,24.6406c0.2002,0.6406-0.0801,1.2812-0.8398,1.9199c-0.3203,0.1602-0.6807,0.2402-1.0801,0.2402
			c-0.3203,0-0.7803-0.0693-1.3799-0.21c-0.5996-0.1396-1.041-0.21-1.3203-0.21c-0.4004,0-0.7793,0.1201-1.1396,0.3604
			c-0.4404-0.0801-1.041-0.04-1.7998,0.1191c-0.7607,0.1611-1.3008,0.2012-1.6201,0.1201c-0.7197,0.4414-1.2207,0.5205-1.5,0.2402
			c-0.4004,0.5205-1.3203,0.7803-2.7598,0.7803c-1.2402,0.04-2.0205,0.5605-2.3408,1.5596
			c-0.7998,0.041-1.7197,0.8203-2.7598,2.3398l0.1807,0.1807c-0.6807,1.4805-1.7402,3.6201-3.1807,6.4199
			c0.1201,0.5996,0.1807,1.8594,0.1807,3.7803c0,1.5996,0.2188,2.8398,0.6592,3.7197c0.7598,1.6006,1.2803,2.5801,1.5605,2.9395
			c0.6797,1.0801,1.5195,1.8008,2.5195,2.1602c0.1201,0.0811,0.1807,0.2998,0.1807,0.6602c0.2793,0.0811,0.8594,0.4004,1.7393,0.96
			c0.7207,0.4805,1.2998,0.7197,1.7402,0.7197c0.2793,0,0.54-0.0791,0.7803-0.2393c0.3604-0.04,0.6895,0.1299,0.9902,0.5098
			c0.2998,0.3809,0.6094,0.5703,0.9297,0.5703c0.1201-0.0801,0.2197-0.1201,0.2998-0.1201c0.2002,0,0.4502,0.1699,0.75,0.5098
			s0.5303,0.5098,0.6904,0.5098c0.0791,0,0.1396-0.0195,0.1797-0.0596c0.1592,0.0801,0.7393,0.1797,1.7402,0.2998
			c0.7197,0.0801,1.2197,0.3398,1.5,0.7803c0.8789-0.2002,1.4395-0.2002,1.6797,0s0.4199,0.4902,0.54,0.8691
			c0.1201,0.3809,0.2197,0.7305,0.2998,1.0508c-0.2002,0.8008-0.8008,1.8301-1.7998,3.0898c-1,1.2598-1.54,2.3701-1.6201,3.3301
			c-0.2002,0.1992-0.54,0.9199-1.0195,2.1602c-0.3604,0.9189-0.9004,1.3799-1.6201,1.3799c-0.2402,0-0.501-0.041-0.7803-0.1201
			c-1.0801-0.4805-2.5605-1.3408-4.4395-2.5801c-0.6807-0.04-1.6504-0.3604-2.9102-0.96c-1.2607-0.6006-2.291-0.8398-3.0898-0.7197
			c-0.6807-0.5205-1.8213-1.2402-3.4209-2.1602c-0.5605,0-1.1201-0.5-1.6797-1.5c-3.1201-2.7998-5.6797-7.4199-7.6797-13.8604
			c0.1592-1.04,0.2402-2.04,0.2402-3c0-0.9199-0.0811-1.8994-0.2402-2.9395c0.6396-2.9199,1.6992-5.9795,3.1797-9.1807
			c-0.1201-0.4795-0.8203-0.9199-2.0996-1.3193c-1.7207,0.1602-3,0.5195-3.8398,1.0791c-0.4004-0.0391-0.9404,0.0908-1.6201,0.3906
			c-0.6807,0.2998-1.2207,0.4502-1.6201,0.4502c-0.2012,0.4795-0.6211,0.8096-1.2598,0.9893
			c-0.6406,0.1807-1.0605,0.4307-1.2607,0.75c-0.2002-0.0791-0.4004-0.1191-0.5996-0.1191c-0.4805,0-1.0703,0.2803-1.7705,0.8398
			c-0.7002,0.5605-1.21,0.8398-1.5293,0.8398c-0.4404,0-0.8701-0.3301-1.29-0.9902s-0.8701-2.21-1.3506-4.6504
			c-0.3594-1.999-1.1006-3.4199-2.2197-4.2598c-0.1201-0.2793-0.1797-0.5195-0.1797-0.7197c0-0.4395,0.2402-0.7998,0.7197-1.0801
			c0.4805-0.1592,0.9395-0.3389,1.3799-0.54c0.2402-0.1201,0.6992-0.1992,1.3799-0.2402c0.4805,0,0.8604-0.1992,1.1406-0.5996
			c0.1592,0.04,0.3193,0.0596,0.4795,0.0596c0.2402,0,0.6904-0.1396,1.3506-0.4199c0.6592-0.2793,1.1895-0.3799,1.5898-0.2998
			c0.2402-0.4395,0.7998-0.6494,1.6797-0.6299c0.8799,0.0205,1.3994-0.1895,1.5605-0.6299
			c0.1992,0.0801,0.4287,0.0596,0.6895-0.0605c0.2598-0.1191,0.4297-0.1797,0.5098-0.1797c0.1602,0,0.3203,0.0811,0.4805,0.2402
			c0.5195-0.2002,1.7998-0.4805,3.8398-0.8398c1.5996-0.2402,2.8203-0.6797,3.6602-1.3203
			c0.0391,0.1201,0.0996,0.1797,0.1797,0.1797s0.1592-0.0596,0.2402-0.1797c0.3193,0.2002,0.6602,0.2998,1.0195,0.2998
			c0.3203,0,0.96-0.1992,1.9199-0.5996c0.8408-0.3604,1.5605-0.4805,2.1602-0.3604c0.6396-0.3193,1.6201-0.459,2.9404-0.4199
			c1.4795,0.04,2.499-0.0195,3.0596-0.1797c0.2402-0.04,0.7402-0.2197,1.5-0.54c0.6006-0.2402,1.0996-0.3604,1.5-0.3604
			c0.2793,0,0.5596,0.0811,0.8398,0.2402c0.1602,0.04,0.3398,0.0596,0.54,0.0596c0.3994,0,0.9199-0.1289,1.5605-0.3896
			c0.6396-0.2598,1.1191-0.3896,1.4395-0.3896s0.6201,0.0996,0.9004,0.2998c0.4805,0,1.1602-0.1797,2.04-0.54
			c0.8789-0.3604,1.5195-0.54,1.9199-0.54c0.3604,0,0.6797,0.0801,0.96,0.2402c0.1592,0.0801,0.3398,0.0596,0.54-0.0605
			s0.3398-0.1797,0.4199-0.1797s0.1797,0.0801,0.2998,0.2402c0.0801,0,0.3203-0.0801,0.7207-0.2402
			c0.3994-0.1592,0.7197-0.2402,0.96-0.2402c0.2793,0,0.5195,0.0811,0.7197,0.2402c0.1592,0.5205,0.3604,1.2998,0.5996,2.3398
			c-0.0801,0.9209,0,2.2607,0.2402,4.0205C681.7314,22.6211,681.8721,23.9209,681.8721,24.6406z M677.6123,39.1611
			c-0.2402,0.2002-0.6602,0.3701-1.2598,0.5098c-0.6006,0.1406-1.041,0.3301-1.3203,0.5703
			c-0.2803,0.0801-0.9209-0.1396-1.9199-0.6602c-0.04-0.5596-0.5205-1.4004-1.4404-2.5205
			c-0.9199-1.1191-1.3799-1.959-1.3799-2.5195c0-0.6797,0.5195-1.2803,1.5605-1.7998c0.1992,0.2002,0.3994,0.2998,0.5996,0.2998
			s0.5-0.1807,0.9004-0.54c0.3994-0.3604,0.7393-0.5,1.0195-0.4199c0.6396,0.4404,1.2393,1.1396,1.7998,2.0996
			c0.4805,0.8008,0.96,1.6006,1.4404,2.4004C678.2119,37.4209,678.2119,38.2812,677.6123,39.1611z M685.7119,35.7412
			c-0.6807,0.6807-1.1602,1.0195-1.4395,1.0195c-0.1602,0-0.3213-0.0596-0.4805-0.1797c-0.3594,0.4795-1.3604,0.7598-3,0.8398
			c-0.5605-0.3604-1.1699-1.0293-1.8301-2.0098c-0.6592-0.9805-1.25-1.6504-1.7695-2.0107c-0.04-0.3193-0.21-0.6387-0.5098-0.96
			c-0.3008-0.3193-0.4502-0.6191-0.4502-0.8994c0-0.1592,0.0195-0.3203,0.0596-0.4805c0.5596-0.9199,2-1.6396,4.3203-2.1602
			c0.5996,0.2803,1.2393,0.7803,1.9199,1.5c0.999,1.041,1.5596,1.6006,1.6797,1.6807c0.04,0.4404,0.3096,0.9502,0.8105,1.5293
			c0.499,0.5811,0.75,1.0908,0.75,1.5303C685.7725,35.3418,685.752,35.541,685.7119,35.7412z"/>
		<path class="st0" d="M738.3438,66.4609c-0.2803-0.04-0.6201,0.0391-1.0195,0.2402c-0.4404,0.0791-1.1396,0.0195-2.0996-0.1807
			s-2.2207-0.2803-3.7803-0.2393c-1.8809,0.0391-3.1201,0.0391-3.7197,0c-0.041,0.0391-0.54,0.1191-1.5,0.2393
			c-0.1611-0.2002-0.5205-0.1406-1.0801,0.1807c-0.4805-0.0811-1.0605-0.0605-1.7402,0.0596
			c-0.8809,0.1201-1.4404,0.1797-1.6797,0.1797c-0.4805,0-0.9004-0.0801-1.2607-0.2393c-0.4795,0.3994-1.25,0.459-2.3096,0.1797
			c-1.0605-0.2803-1.8506-0.2012-2.3701,0.2402c-0.04,0-0.1504-0.0898-0.3301-0.2705c-0.1797-0.1797-0.3701-0.2305-0.5703-0.1494
			c-0.1191,0.1592-0.2598,0.2998-0.4199,0.4199c-0.8799-0.0811-2.3203-0.4199-4.3193-1.0205
			c-1.8008-0.5605-3.2803-0.8604-4.4404-0.8994c-0.3604-0.5205-1.5205-1.1807-3.4795-1.9805
			c-1.6807-0.6797-2.5801-1.7197-2.7002-3.1201c-1.2002-2.1992-1.7998-4.7598-1.7998-7.6797c0-3.3193,0.7393-6.3193,2.2197-9
			c3.2402-2.8398,6.0996-4.7598,8.5801-5.7598c1.3594-1.1602,2.04-2.2002,2.04-3.1201c0-0.2793-0.041-0.5801-0.1201-0.9004
			c0.0391-0.8789-0.04-2.0996-0.2402-3.6602c0.0391-0.0391,0.1201-0.0986,0.2402-0.1797c-0.5605-1.4795-0.8398-3.459-0.8398-5.9404
			c0-0.3193,0-0.8193,0-1.5c0-0.6797,0-1.1787,0-1.5c0-2.7197-0.3604-4.8594-1.0801-6.4199
			c-0.04-0.1592-0.0605-0.3193-0.0605-0.4795c0-0.2002,0.3604-0.7598,1.0801-1.6797c0.3604-0.0801,0.7998-0.0605,1.3203,0.0596
			c0.6797,0.1201,1.0996,0.1797,1.2598,0.1797c0.3203,0,0.6006-0.0791,0.8398-0.2393c0.4404,0.2393,1,0.3594,1.6807,0.3594
			c0.4395,0,1.0801-0.0693,1.9199-0.21c0.8398-0.1396,1.4189-0.1895,1.7402-0.1494c0.2393,0.2803,0.5596,0.4199,0.96,0.4199h1.0791
			c0.2803,0.0801,0.4902,0.3203,0.6309,0.7197c0.1396,0.4004,0.21,0.8604,0.21,1.3799c0,0.4404-0.1113,1.1309-0.3301,2.0703
			c-0.2207,0.9404-0.3301,1.6494-0.3301,2.1299c0,0.5996,0.1201,1.1396,0.3594,1.6201c0,0.2002-0.0596,0.5-0.1797,0.8994
			c-0.1201,0.4004-0.1797,0.7207-0.1797,0.96c0,0.2402,0.0391,0.4805,0.1201,0.7207c-0.041,0.2393-0.1602,0.8799-0.3604,1.9199
			c-0.2002,0.8398-0.2998,1.5205-0.2998,2.04c0,1,0.2998,1.7998,0.8994,2.3994c-0.0801,0.2402-0.0293,0.4199,0.1504,0.54
			s0.3496,0.2207,0.5098,0.2998c0.0801-0.0791,0.2197-0.2188,0.4199-0.4199c-0.04,0.041-0.1201,0.1201-0.2393,0.2402
			c0.1992,0.1602,0.4199,0.2402,0.6592,0.2402c0.2002,0,0.4902-0.0801,0.8701-0.2402c0.3799-0.1592,0.6602-0.249,0.8398-0.2695
			c0.1807-0.0205,0.5703-0.25,1.1709-0.6904c0.4795-0.3193,0.9385-0.4199,1.3799-0.2998c0.6387-0.3203,1.4795-0.6201,2.5195-0.9004
			c0.8799-0.1992,1.7402-0.3994,2.5801-0.5996c0.7197,0.2002,1.1797,0.8604,1.3799,1.9795c0.2002,1.1211,0.5195,1.8008,0.96,2.04
			c0,0.6406,0.21,1.6309,0.6299,2.9707s0.6299,2.3301,0.6299,2.9697c0,1.0801-0.4199,1.96-1.2598,2.6396
			c-0.2402-0.1992-0.5605-0.2998-0.96-0.2998c-0.3594,0-0.6807,0.1006-0.96,0.2998c-0.0801,0.2012-0.2002,0.2607-0.3594,0.1807
			c-0.2402-0.1201-0.4004-0.1807-0.4805-0.1807c-0.5996,0.3604-1.6104,0.5205-3.0303,0.4805s-2.3906,0.1406-2.9102,0.54
			c-2.2002,0.6396-3.3203,0.9805-3.3594,1.0195c-1.2402,0.4404-2.2607,0.96-3.0605,1.5605
			c-0.2803-0.0801-0.5898-0.0205-0.9297,0.1797s-0.6104,0.2803-0.8096,0.2402c-0.1611-0.1201-0.3008-0.1807-0.4199-0.1807
			c-0.2402,0-0.5107,0.2207-0.8105,0.6602c-0.2998,0.4404-0.5703,0.6602-0.8096,0.6602c-0.0811,0-0.1807-0.0195-0.3008-0.0596
			c-1.4395,0.7959-2.9199,2.5654-4.4395,5.3096c-0.1602,0.3584-0.2402,0.7168-0.2402,1.0742c0,0.6768,0.2793,1.5908,0.8398,2.7441
			c0.2402,0.0811,0.7803,0.3789,1.6201,0.8955c0.6797,0.4375,1.2393,0.6562,1.6797,0.6562c0.3994,0,0.7998-0.1396,1.2002-0.4199
			c0.5596,0.4004,1.4404,0.4502,2.6406,0.1494c1.1992-0.2998,2.0996-0.21,2.6992,0.2705c0.8799,0.04,2.0801-0.0391,3.6006-0.2402
			c0.7588,0.2012,1.3994,0.1406,1.9199-0.1797c0.5996-0.1201,1.5801-0.2002,2.9395-0.2402c1.1602,0,2.1006-0.1396,2.8203-0.4199
			c0.2002,0.0811,0.4199,0.1201,0.6602,0.1201c0.3193,0,0.7197-0.1699,1.2002-0.5098c0.4795-0.3398,0.8594-0.5107,1.1396-0.5107
			c0.1592,0,0.2998,0.0215,0.4199,0.0605c0.2002-0.1592,0.5195-0.2402,0.96-0.2402c0.7598,0,1.0801,0,0.96,0
			c0.7207,0.5205,1.0801,1.54,1.0801,3.0605c0,0.2803-0.0596,1.1201-0.1797,2.5195c-0.0811,0.6807,0,1.6006,0.2402,2.7598
			c0.2793,1.2803,0.4199,2.1602,0.4199,2.6406C739.0645,65.7803,738.8242,66.3799,738.3438,66.4609z"/>
		<path class="st0" d="M791.7559,40.3926c-0.0811,0.1201-0.1406,0.2002-0.1807,0.2393c0.1201,0.7998,0.1807,1.6582,0.1807,2.5771
			c0,1.0791-0.3604,4.0557-1.0801,8.9307c-1,1.5986-1.5605,2.4971-1.6797,2.6973c-0.6006,1.0791-0.9609,2.0977-1.0801,3.0557
			c-0.2402,0.2012-0.4902,0.4307-0.75,0.6904c-0.2607,0.2598-0.3711,0.5293-0.3301,0.8086
			c-0.7207,0.4805-1.6602,1.5391-2.8203,3.1768c-1.0801,1.4785-2.0605,2.3975-2.9404,2.7568
			c-0.7197,0.8389-1.46,1.6777-2.2197,2.5176c-0.8799,0.9189-1.7607,1.498-2.6396,1.7383
			c-0.0811-0.1602-0.2207-0.2207-0.4199-0.1807h-0.4805c-0.2002,0.0801-0.5,0.0205-0.8994-0.1797
			c-0.4004-0.2002-0.6807-0.2998-0.8408-0.2998c-0.2393,0-0.4404,0.0791-0.5996,0.2402c-0.4004-0.3213-1.041-0.7412-1.9199-1.2607
			c-0.2402-0.4004-0.8008-0.7402-1.6797-1.0195c-0.8809-0.2803-1.4609-0.7197-1.7402-1.3203
			c-1.2402-0.1602-2.3809-0.5801-3.4199-1.2598c-0.0811-0.3604-0.0107-0.6807,0.21-0.96c0.2188-0.2803,0.4502-0.54,0.6895-0.7803
			c0.7207,0.0811,1.4795-0.2998,2.2803-1.1396c0.7998-0.8398,1.46-1.3203,1.9805-1.4404c0.1201-0.2393,0.5596-0.54,1.3193-0.8994
			c0.6396-0.2793,0.9805-0.6797,1.0205-1.2002c2.6787-2.3594,4.5996-4.3594,5.7598-6c0.1201-0.3604,0.7803-1.5,1.9805-3.4199
			c0.8398-1.3994,1.1787-2.5996,1.0195-3.6006c0.1592-1.6797,0.2402-2.5586,0.2402-2.6396c0-1.0801-0.2998-1.9795-0.9004-2.7002
			c-0.3594-0.1201-0.8604-0.6387-1.5-1.5596c-0.5605-0.7998-1.2002-1.1406-1.9199-1.0205c-1.4004-0.6387-2.54-0.7793-3.4199-0.4199
			c-0.04,0.041-0.1904,0.2012-0.4502,0.4805c-0.2607,0.2803-0.4707,0.4199-0.6299,0.4199c-0.1602,0-0.2998-0.0801-0.4199-0.2402
			c-1.3203,0.5771-2.2803,1.001-2.8799,1.2705c-1.041,0.5391-1.9199,1.1348-2.6396,1.79c-0.2803,0-0.5205,0-0.7207,0
			c-0.6807,0-1.29,0.5195-1.8301,1.5596c-0.54,1.041-1.0498,1.6406-1.5293,1.7998c-0.8809,0.4805-1.4609,0.7197-1.7402,0.7197
			c-0.3604,0-0.7002-0.1777-1.0205-0.5361c-0.8799-0.7529-2.0098-2.042-3.3896-3.8691c-1.3799-1.8262-2.5303-3.1357-3.4502-3.9297
			c-0.04-0.6348,0.2793-1.2295,0.96-1.7871c0.5195-0.3965,1.0596-0.793,1.6201-1.1904c1.3203-0.6348,2.6699-1.2891,4.0498-1.9639
			s2.5898-1.4287,3.6299-2.2627c0.2002,0,0.3994,0,0.6006,0c0.3193,0,0.6689-0.1406,1.0498-0.4209
			c0.3799-0.2793,0.75-0.54,1.1104-0.7793c0.2793,0.2393,0.5596,0.3594,0.8398,0.3594c0.3604,0,0.8398-0.249,1.4395-0.75
			c0.6006-0.499,1.0801-0.75,1.4404-0.75c0.2402,0,0.5,0.1006,0.7803,0.3008c0.0791-0.04,0.5791-0.2402,1.5-0.6006
			c0.5195-0.1992,0.8789-0.5791,1.0801-1.1396c-0.3213-1.04-1.3203-1.7402-3-2.1006c-0.1611,0.1611-0.3213,0.2402-0.4805,0.2402
			c-0.1602,0-0.3896-0.1289-0.6895-0.3896c-0.3008-0.2598-0.5508-0.3691-0.75-0.3301c-1.8809,0.1201-3.6006-0.0801-5.1602-0.6006
			c-0.2803-0.2793-0.4199-0.9189-0.4199-1.9199c1.3193-1.1592,2.2588-2.8799,2.8193-5.1592
			c1.1201-0.6797,1.8203-1.6602,2.1006-2.9404c0.0391-0.0391,0.3389-0.2402,0.8994-0.5996
			c0.3604-0.2002,0.6396-0.3008,0.8398-0.3008s0.5,0.0811,0.9004,0.2402c0.3994,0.1602,0.6992,0.2402,0.9004,0.2402
			c0.2793,0,0.5195-0.0801,0.7197-0.2402c1.2002,0.6807,2.2803,1.041,3.2402,1.0801c0.3594,0.5605,0.9189,0.8398,1.6797,0.8398
			c0.1201,0,0.29,0,0.5098,0s0.3906,0,0.5107,0c0.7588,0,1.2793,0.2803,1.5596,0.8398c0.1592,0,0.3193,0,0.4795,0
			c0.3604,0,0.8799,0.1406,1.5605,0.4199c0.6797,0.2803,1.1396,0.4404,1.3799,0.4795c1.5596,0.9189,2.2598,1.8584,2.0996,2.8174
			c-0.3594,0.2402-0.5,0.5791-0.4199,1.0186c-2.1201,1.8379-3.1797,3.5762-3.1797,5.2148c0,0.3994,0.0596,0.7988,0.1797,1.1982
			c0.2793,0.3203,0.7295,0.6201,1.3506,0.8994c0.6191,0.2793,1.0293,0.4795,1.2295,0.5986
			c0.2402-0.1191,0.5898-0.0391,1.0498,0.2412c0.46,0.2793,0.8301,0.4189,1.1104,0.4189c0.3604,0.4795,1.1797,1.2383,2.46,2.2773
			c1.04,0.8789,1.7793,1.7383,2.2197,2.5771c0.4805,0.959,0.8408,2.3174,1.0801,4.0752
			C791.5156,38.7344,791.7148,40.1523,791.7559,40.3926z"/>
		<path class="st0" d="M860.0469,39.3408c0.3594,1.2002,0.54,2.4404,0.54,3.7197c0,2.9209-1.3203,7.0205-3.96,12.2998
			c-1.0801,0.96-1.6611,1.8213-1.7402,2.5801c-0.5205,0.6006-1.5811,1.3604-3.1807,2.2803c-1.4395,0.8398-2.4395,1.7012-3,2.5801
			c-0.3203-0.0391-0.7002,0.0801-1.1396,0.3604c-0.4404,0.2793-0.7598,0.3789-0.96,0.2998
			c-0.6406,0.5195-1.6904,1.0391-3.1504,1.5596c-1.46,0.5195-2.4893,1-3.0898,1.4404c-0.4795,0-1.3604,0.21-2.6396,0.6299
			c-1.2803,0.4199-2.2402,0.6299-2.8799,0.6299c-1.1611,0-2.0205-0.5605-2.5801-1.6797c-0.8008-2.1602-1.2402-3.3203-1.3203-3.4805
			c-0.5996-1.2393-1.3604-2.1387-2.2803-2.7002c-0.5996-0.5996-0.8994-1.0996-0.8994-1.5c0-0.1592,0.0195-0.2998,0.0596-0.4199
			c1.3203-0.2793,2.0195-0.7197,2.1006-1.3193c-0.4805-0.8799-1.001-1.3203-1.5605-1.3203c-0.5605,0-1.2598,0.4404-2.0996,1.3203
			c-0.96,1.04-1.5811,1.6201-1.8604,1.7393c-0.1201,0.2803-0.2998,0.4209-0.54,0.4209c-0.0801,0-0.2197-0.04-0.4199-0.1201
			s-0.3398-0.1201-0.4199-0.1201c-0.2402,0-0.4199,0.1406-0.54,0.4199c-0.7197,0.5996-1.7998,0.8994-3.2402,0.8994
			c-0.2393,0-0.5996,0-1.0801,0c-0.4795,0-0.8398,0-1.0791,0c-0.7607,0-1.3809,0.0605-1.8604,0.1807
			c-0.3604-0.1201-1.5811-0.1807-3.6602-0.1807c-0.8398-0.2793-1.6406-0.9385-2.4004-1.9795
			c-0.6396-0.8398-1.2598-1.6797-1.8594-2.5205c-0.8398-2.8799-1.2598-5.1797-1.2598-6.8994c0-1.1191,0.1396-2.1602,0.4199-3.1201
			c-0.2012-2.4004,0.2998-4.1797,1.5-5.3398c-0.1201-0.4395,0.0293-0.9307,0.4492-1.4697c0.4209-0.54,0.6309-0.9697,0.6309-1.29
			c1.0391-2.4004,3.0986-5.04,6.1797-7.9209c0-0.1191-0.2607-1.1992-0.7803-3.2393c-0.2803-1.2803-0.3809-2.4004-0.2998-3.3604
			c-0.8398-1.6797-1.2598-3.2598-1.2598-4.7402c0-1.3994,0.6387-2.1797,1.9199-2.3398c0.2402,0,0.4795,0,0.7197,0
			c0.3604,0,0.9795-0.1094,1.8604-0.3301c0.8789-0.2188,1.5791-0.3096,2.0996-0.2695c0.1592,0,0.3398,0,0.54,0
			c0.3994,0,0.9697-0.1504,1.71-0.4502s1.25-0.4502,1.5303-0.4502c0.4795,0,0.8594,0.2998,1.1396,0.9004
			c0.3203,0.7197,0.3994,1.7998,0.2402,3.2402c-0.2002,1.6406-0.2402,2.6992-0.1201,3.1797
			c0.2002,1.0801,0.9395,1.8398,2.2197,2.2803c0.0801-0.0801,0.1602-0.1201,0.2402-0.1201c0.0391,0,0.0996,0.04,0.1797,0.1201
			c0.8408-0.3604,1.9404-0.6201,3.3008-0.7803c1.8789-0.2402,2.9795-0.3994,3.2998-0.4805c0.9199,0.3604,2,0.2207,3.2402-0.4199
			c1.2793-1.7188,1.9199-3.7197,1.9199-6c0.1992-0.6387,0.4092-1.3096,0.6299-2.0098c0.2188-0.6992,0.5703-1.1494,1.0498-1.3496
			c0.3193,0.0801,0.7295,0.2598,1.2305,0.54c0.499,0.2803,0.8896,0.4199,1.1699,0.4199c0.1992,0,0.3994,0,0.5996,0
			c0.4395,0.7969,1.4189,1.252,2.9404,1.3652c1.6797,0.1143,2.7598,0.3984,3.2393,0.8545c0.1602-0.1592,0.3203-0.2402,0.4805-0.2402
			c0.2402,0,0.7197,0.4658,1.4395,1.3975c0.1201,0.7285-0.1191,1.6191-0.7197,2.6719c-0.7197,1.2549-1.1201,2.166-1.2002,2.7324
			c0,0.1621-0.0498,0.4658-0.1494,0.9111c-0.1006,0.4453-0.1504,0.7891-0.1504,1.0322c0,0.5273,0.1797,0.9512,0.54,1.2754
			c0.5195,0,0.7998-0.0605,0.8398-0.1807c4.8398,4.041,7.8203,7.6602,8.9404,10.8604
			C859.7666,37.0605,859.8457,38.0615,860.0469,39.3408z M821.166,45.3408c-0.3203-0.7998-0.6592-1.5996-1.0195-2.4004
			c-0.4004-0.96-0.9805-1.5195-1.7402-1.6797c-1.7607,2.001-2.6396,3.4805-2.6396,4.4404c0,0.4404,0.0996,0.8799,0.2998,1.3193
			c0.4805,0.3604,0.7598,0.4404,0.8398,0.2402c0.5596,0.6807,1.5605,0.96,3,0.8398c0.7207,0.0811,1.1406-0.2402,1.2598-0.96
			C821.166,46.541,821.166,45.9404,821.166,45.3408z M831.0068,36.1611c0-0.2002,0.0986-0.5107,0.2998-0.9307
			c0.1992-0.4199,0.2998-0.75,0.2998-0.9893c0-0.3604-0.21-0.6699-0.6299-0.9307c-0.4199-0.2598-0.8311-0.3896-1.2305-0.3896
			c-0.1602,0.0801-0.46,0.1602-0.8994,0.2402c-0.7197,0.4795-1.001,1.1992-0.8398,2.1592c0.1992,0.4004,0.4287,0.8008,0.6895,1.2002
			c0.2598,0.4004,0.6094,0.5605,1.0498,0.4805C830.0664,36.8809,830.4863,36.6016,831.0068,36.1611z M848.1064,44.2607
			c0.2793-0.7598,0.4199-1.5801,0.4199-2.46c0-1.5195-0.3604-2.8398-1.0801-3.96c-0.4004-0.0391-0.8008-0.3691-1.2002-0.9902
			c-0.4004-0.6191-0.7002-0.999-0.8994-1.1396c-0.2012-0.1396-0.4199-0.21-0.6602-0.21c-0.1602,0-0.4111,0.0703-0.75,0.21
			c-0.3408,0.1406-0.5908,0.21-0.75,0.21c-0.04,0.1201-0.4805,0.7598-1.3203,1.9199c-0.5205,0.7197-0.8008,1.4404-0.8398,2.1602
			c-0.8398,1.2803-1.7002,2.54-2.5801,3.7803c-1,1.5205-1.7002,2.8193-2.0996,3.8994c0.3994,0.2012,0.7998,0.5605,1.2002,1.0801
			c0.2793,0.4004,0.5791,0.8203,0.8994,1.2598c0.04,0.1602,0.0605,0.3213,0.0605,0.4805c0,0.5205-0.251,0.9297-0.75,1.2295
			c-0.501,0.3008-0.9814,0.5908-1.4404,0.8701c-0.46,0.2803-0.7305,0.4199-0.8096,0.4199
			c-0.8809,0.6006-1.3203,1.4404-1.3203,2.5205c0.3604,0.3203,0.7197,0.4795,1.0801,0.4795s0.8193-0.1992,1.3799-0.5996
			c0.7197-0.5195,1.1797-0.8193,1.3799-0.9004c0.1201,0.2012,0.2793,0.2305,0.4805,0.0898
			c0.1992-0.1396,0.3389-0.1094,0.4199,0.0908c0-0.2402,0.1895-0.4902,0.5693-0.75s0.6094-0.4297,0.6904-0.5107
			c0.0801,0.0811,0.1592,0.1201,0.2402,0.1201c0.0791,0,0.1797-0.1094,0.2998-0.3301c0.1201-0.2188,0.2197-0.3301,0.2998-0.3301
			s0.1592,0.041,0.2402,0.1201l1.1396-0.8398c0.4395-0.3193,0.6992-0.6797,0.7803-1.0801c1.1592-0.3594,2.4395-1.5791,3.8398-3.6602
			c0-0.3193,0.2002-0.7695,0.6006-1.3496c0.3984-0.5791,0.5996-1.0293,0.5996-1.3496
			C848.2266,44.5811,848.1865,44.4209,848.1064,44.2607z"/>
		<path class="st0" d="M908.7783,61.8408c0.0791,0.2002,0.1201,0.3809,0.1201,0.54c0,0.4395-0.3008,0.7998-0.9004,1.0801
			c-0.8008,0.3594-1.2598,0.5996-1.3799,0.7197c-0.2012-0.0801-0.3809-0.1201-0.54-0.1201c-0.3604,0-0.8701,0.2002-1.5303,0.6006
			c-0.6602,0.3994-1.1699,0.5996-1.5293,0.5996c-2.8408,2.1992-4.9209,3.2998-6.2402,3.2998c-0.7207,0-1.4004-0.1797-2.04-0.54
			c-0.96-0.7197-1.8213-2.0605-2.5801-4.0195c-0.7607-1.96-1.6797-3.2998-2.7598-4.0205c0.0391-0.6797-0.3809-1.3594-1.2607-2.04
			c-0.8799-0.6797-1.3799-1.1992-1.5-1.5596c-0.3203-0.5996-1.0195-1.5801-2.0996-2.9404c-0.96-1.2393-1.6006-2.2588-1.9199-3.0596
			c-1-0.4805-2.1406-1.3799-3.4199-2.7002c-1.8809-1.959-2.9404-3.0391-3.1797-3.2402c-0.2402-0.5186-0.4209-1.2295-0.54-2.1299
			c-0.1201-0.8994-0.3008-1.6094-0.54-2.1299c0.1992-2.7197,1.5596-5.4199,4.0801-8.0996c0-0.6797,0.5098-1.4404,1.5293-2.2803
			c1.0205-0.8398,1.4902-1.6396,1.4102-2.4004c1.4795-1.5596,3.6797-3.8789,6.5996-6.96c-0.04-0.7588,0.3398-1.6689,1.1406-2.7295
			c0.7998-1.0596,1.2598-1.8691,1.3799-2.4297c0.5195-0.2402,1.2002-1,2.04-2.2803c0.7598-1.1191,1.4795-1.6807,2.1602-1.6807
			c0.4395,0,0.96,0.1807,1.5596,0.54c1.04,0.6807,2.5205,1.7607,4.4404,3.2402c1.1191-0.1201,2.1602,0.2207,3.1201,1.0205
			c0.8398,0.8008,1.6592,1.5996,2.46,2.3994c0,0.6406-0.3711,1.251-1.1104,1.8301c-0.7402,0.5801-1.4502,1.1104-2.1299,1.5898
			c-0.0811,0.6006-0.5801,0.9404-1.5,1.0205c-0.4404,1.1602-1.2598,2.1406-2.46,2.9395c-0.1602-0.0791-0.3701-0.0488-0.6299,0.0908
			c-0.2607,0.1406-0.4111,0.3291-0.4502,0.5693c-0.8398,1.1611-1.4609,1.9609-1.8604,2.4004
			c-0.6807,0.8398-1.4199,1.6006-2.2197,2.2803c-0.5996,0.3594-1.1904,1.0596-1.7695,2.0996
			c-0.5811,1.041-1.1309,1.7607-1.6504,2.1602c-1.4805,1.6797-2.2197,2.9805-2.2197,3.8994c0,0.4004,0.0986,0.8203,0.2998,1.2607
			c0.4795,0.3594,1.0498,1.0801,1.71,2.1592c0.6602,1.0801,1.2295,1.8213,1.71,2.2207c0.5996,0.1201,1.2002,0.5908,1.7998,1.4102
			c0.6006,0.8203,1.2197,1.2695,1.8604,1.3496c0.5596,0.4004,1.3594,1.3799,2.3994,2.9404
			c0.8408,1.4004,1.8008,2.2793,2.8809,2.6396c0,0.5605,0.3691,1.1104,1.1094,1.6504c0.7402,0.5391,1.1494,0.9893,1.2305,1.3496
			c0.2393,0.8398,1.2988,2.04,3.1797,3.5996c0.5195-0.0791,0.9004,0.1406,1.1396,0.6602
			C908.5381,61.4014,908.7373,61.8018,908.7783,61.8408z M920.418,26.3203c-0.3604,0.8008-0.9209,1.3311-1.6797,1.5908
			c-0.7607,0.2607-1.5205,0.5098-2.2803,0.75c-1.041,0.04-1.8809-0.5596-2.5195-1.8008c-0.7607-1.3994-1.5-2.1992-2.2207-2.3994
			c-0.0801,0.4404,0.2197,1.3408,0.9004,2.7002c0.5195,0.96,0.7197,1.9004,0.5996,2.8193
			c-0.2393,0.1201-0.5498,0.4902-0.9297,1.1104c-0.3809,0.6201-0.75,0.9707-1.1104,1.0498
			c-0.3594,0.0811-0.7002,0.1201-1.0195,0.1201c-1.3203,0-2.3604-0.9004-3.1201-2.7002c-0.04-0.5195-0.4307-1.1191-1.1699-1.7998
			c-0.7402-0.6797-1.1104-1.2393-1.1104-1.6797c0-0.2402,0.0605-0.5,0.1807-0.7803c0.4795-0.5996,1.1191-1.0195,1.9199-1.2598
			c0.1592,0.0801,0.3389,0.1201,0.54,0.1201c0.2793,0,0.6992-0.0996,1.2598-0.3008c0.5596-0.1992,0.999-0.2998,1.3203-0.2998
			c0.1592,0,0.3193,0.0205,0.4795,0.0605c0.3604-0.5596,1.0801-1.4199,2.1602-2.5801c0.0801,0.04,0.1797,0.0596,0.2998,0.0596
			c0.2402,0,0.5791-0.2402,1.0205-0.7197c0.4395-0.4805,0.7793-0.7598,1.0195-0.8398c0.3994,0.2002,0.8301,0.4199,1.29,0.6602
			c0.459,0.2393,0.7295,0.5195,0.8096,0.8398c1.0801,1.04,1.8203,1.8203,2.2207,2.3398
			C919.917,24.3408,920.2979,25.3213,920.418,26.3203z"/>
		<path class="st0" d="M962.4893,35.4404c0.1592,5.6406-0.3408,10.0605-1.5,13.2607c0.0791,0.2803,0.1201,0.5605,0.1201,0.8398
			c0,0.8008-0.3604,1.7402-1.0801,2.8193c-0.8008,1.2812-1.2607,2.2012-1.3799,2.7607c-1.3604,1.5596-2.2207,2.9004-2.5801,4.0195
			c-0.7607,0.2803-1.8008,1.2812-3.1201,3c-1.1611,1.4795-2.3203,2.2598-3.4805,2.3398c-0.4404,0.2002-1.3408,0.8799-2.7002,2.04
			c-1.0801,0.96-2.0195,1.4404-2.8193,1.4404c-0.3604,0-0.7207-0.0811-1.0801-0.2402c-0.1602-0.2803-0.6211-0.5605-1.3799-0.8398
			c-0.6006-0.2012-0.9209-0.5801-0.96-1.1396c-0.6807-0.4414-2.6807-2.0615-6-4.8604c0.0791-0.3994,0.3389-0.7998,0.7793-1.2002
			c0.4404-0.3994,0.6797-0.7803,0.7207-1.1396c0.1992-0.1592,1.1592-0.5801,2.8799-1.2598
			c1.1592-0.4404,1.8994-1.1006,2.2197-1.9805c1.3203-0.1201,2.5996-0.9004,3.8398-2.3398c-0.04-0.3203,0.1396-0.6006,0.54-0.8398
			c0.3994-0.2402,0.6602-0.46,0.7803-0.6602c0.7197,0.0801,1.2598-0.3203,1.6201-1.2002c0.3994-1.04,0.7793-1.6396,1.1396-1.7998
			c-0.1201-1.04,0.1592-1.7402,0.8398-2.1006c0.04-0.4395,0.2002-1.1396,0.4805-2.0996c0.2793-0.96,0.4199-1.7197,0.4199-2.2803
			c0-0.4795-0.0811-0.9395-0.2402-1.3799c0.4805-0.999,0.7598-2.1396,0.8398-3.4199c-0.0801-1.2393-0.1406-2.4795-0.1797-3.7197
			c-0.1602-1.3994-0.5205-2.5-1.0801-3.2998c-0.3604-0.5195-0.9004-0.7803-1.6201-0.7803c-0.1201,0-0.5205,0.04-1.2002,0.1201
			c-0.5195,0.0801-0.9404,0.0801-1.2598,0c-1.0801,0.6396-2.2803,1.7803-3.5996,3.4199c-0.1602,0.3203-0.3408,1.0801-0.54,2.2803
			c-0.2012,1-0.5205,1.7197-0.96,2.1592c0,0.2803,0,1.8408,0,4.6807c0.0391,1.9199-0.1006,3.3594-0.4199,4.3193
			c-0.3604,0-0.7109,0.2012-1.0508,0.6006c-0.3398,0.4004-0.6299,0.5996-0.8691,0.5996c-0.1201,0-0.2607-0.0391-0.4209-0.1201
			c-0.5605,0.5605-1.3398,0.8408-2.3398,0.8408c-0.1602,0-0.3799,0-0.6602,0s-0.5,0-0.6592,0c-0.8008,0-1.4404,0.1406-1.9199,0.4199
			c-0.1611-0.1602-0.3408-0.2402-0.54-0.2402c-0.1201,0-0.291,0.0205-0.5107,0.0596c-0.2197,0.041-0.3701,0.0605-0.4492,0.0605
			c-0.2803,0-0.4805-0.1807-0.6006-0.54c-0.2002-0.6797-0.3809-2.1006-0.54-4.2598c-0.1201-1.8008-0.4404-3.1406-0.96-4.0205
			c-0.0801-0.4395-0.1201-0.9199-0.1201-1.4404c0-0.5186,0.0498-1.2793,0.1504-2.2793c0.0996-1,0.1494-1.7402,0.1494-2.2207
			c0-0.999-0.1406-1.8789-0.4199-2.6396c0.0801-0.9199,0.1602-3,0.2402-6.2402c0.0391-2.3594,0.2402-4.3193,0.6006-5.8799
			c-0.3213-0.6387-0.4609-1.5791-0.4209-2.8193c0.04-1.4404-0.0205-2.4199-0.1797-2.9404c0.0801-0.3604,0.1895-0.7197,0.3301-1.0801
			c0.1396-0.3604,0.3896-0.5791,0.75-0.6602c0.1201-0.0791,0.29-0.0596,0.5098,0.0605s0.3701,0.1797,0.4502,0.1797
			s0.1797-0.0801,0.2998-0.2402c2.3193,1.2402,5.4395,1.7402,9.3604,1.5c0.0801,0.8809,0.0391,2.04-0.1201,3.4805
			c-0.2002,1.6797-0.2998,2.8193-0.2998,3.4199c0,0.8398,0.0791,1.6006,0.2402,2.2803c0.8398-0.0801,1.7891-0.6797,2.8496-1.8008
			c1.0596-1.1191,1.9502-1.7188,2.6699-1.7998c0.3604-0.3994,1.0098-0.6602,1.9502-0.7803c0.9395-0.1191,1.5693-0.2998,1.8896-0.54
			c1.2393,0,2.0107-0.0391,2.3105-0.1191s0.5898-0.1201,0.8701-0.1201c0.8789,0,1.8594,0.3799,2.9395,1.1396
			c1.4795,1.1201,2.3594,1.7402,2.6406,1.8604c0.96,0.8799,1.6992,2.2598,2.2197,4.1396c0.5996,2.3604,1.0801,3.8398,1.4395,4.4404
			c-0.0801,0.4004-0.1201,0.8398-0.1201,1.3193c0,0.5205,0.0801,1.4805,0.2402,2.8799
			C962.5488,34.0215,962.5684,34.8809,962.4893,35.4404z"/>
		<path class="st0" d="M1028.3203,42.2812c-0.0811,0.2393-0.0205,0.6396,0.1797,1.1992c0.2002,0.5605,0.2998,0.9404,0.2998,1.1406
			c0,0.4404-0.3594,0.6602-1.0801,0.6602c-0.4795,0.3594-1.1797,0.4795-2.0996,0.3594c-1.1201-0.0791-1.8604-0.0596-2.2197,0.0605
			c-0.2402-0.1602-0.501-0.2402-0.7803-0.2402c-0.2402,0-0.6406,0.1104-1.2002,0.3301c-0.5605,0.2197-0.9805,0.3301-1.2598,0.3301
			c-0.2803,0-0.54-0.0801-0.7803-0.2402c-0.1201,0.0801-0.8604,0.2607-2.2197,0.54c-0.8398,0.1602-1.3203,0.7002-1.4404,1.6201
			c0.1602,1.0801,0.2402,2.9199,0.2402,5.5195c-0.2803,0.3213-0.7793,0.6807-1.5,1.0801c-0.96-0.4395-1.8594-0.6602-2.7002-0.6602
			c-0.7598,0-1.5,0.1602-2.2197,0.4805c-0.2803-0.1592-0.7197-0.2402-1.3203-0.2402c-0.2002,0-0.5,0-0.8994,0
			c-0.4004,0.04-0.7002,0.0605-0.9004,0.0605c-1.3604,0-1.96-0.6602-1.7998-1.9805c-0.1201-0.4395-0.501-0.6494-1.1396-0.6299
			c-0.6406,0.0205-1.041-0.0498-1.2002-0.21c-0.5205,0.5605-1.0605,1.1201-1.6201,1.6797
			c-0.5996,0.7607-0.9004,1.4609-0.9004,2.1006c0,0.3203,0.0605,0.6201,0.1807,0.8994c0.96,0.9209,2.2998,1.3799,4.0195,1.3799
			c0.3994,0,1.0205-0.0293,1.8604-0.0898c0.8398-0.0596,1.46-0.0898,1.8604-0.0898c0.4795,0,0.8994,0.0205,1.2598,0.0596
			c2.8398,0.0811,5.04-0.1992,6.5996-0.8398c0.0391,0.1201,0.0996,0.1807,0.1797,0.1807s0.1602-0.0605,0.2402-0.1807
			c0.7207,0.2031,1.0801,0.8691,1.0801,2c0,0.4443-0.0801,1.1504-0.2402,2.1191c-0.2002,0.7275-0.3398,1.9199-0.4199,3.5752
			c-0.04,1.8164-0.1201,3.0693-0.2393,3.7568c-0.2803,0.6455-0.7012,0.9688-1.2607,0.9688c-0.4004,0-0.96-0.2197-1.6797-0.6602
			c-0.5205,0-1.2002,0.0703-2.04,0.2109c-0.8398,0.1396-1.4609,0.21-1.8604,0.21c-0.6396,0-1.2598-0.1406-1.8594-0.4209
			c-0.2803,0.4404-0.6006,0.6602-0.96,0.6602c-0.2012,0-0.5205-0.1299-0.96-0.3896c-0.4414-0.2607-0.7803-0.3896-1.0205-0.3896
			c-0.3203,0-0.6201,0.1797-0.8994,0.54c-0.2803-0.2402-0.8408-0.2607-1.6807-0.0605c-0.6396,0.1592-1.0801-0.1006-1.3193-0.7803
			c-0.2803-0.0801-1.3604-0.2803-3.2402-0.5996c-1.1201-0.1602-2.1006-0.54-2.9404-1.1396
			c-0.1201,0.0391-0.2197,0.0596-0.2998,0.0596c-0.2002,0-0.4502-0.1602-0.75-0.4795c-0.2998-0.3213-0.5908-0.4805-0.8701-0.4805
			c-0.1201,0-0.2607,0.0195-0.4199,0.0596c-0.2002-0.6797-0.96-1.8398-2.2803-3.4795c-1.1602-1.3994-1.7393-2.6797-1.7393-3.8398
			c0-0.4395,0.0898-0.9502,0.2695-1.5303c0.1797-0.5791,0.29-0.9902,0.3301-1.2295c-0.0811-0.7598-0.0205-1.8799,0.1797-3.3604
			c0.1201-0.7598,0.6396-1.7197,1.5605-2.8799c0.9199-1.1602,1.4795-2.04,1.6797-2.6406c0.5195-0.6797,1.46-1.2393,2.8203-1.6797
			c1.5996-0.5596,2.6396-0.999,3.1201-1.3203c0.2393,0.0811,0.6602-0.1396,1.2598-0.6592c0.0391-0.1201,0.0596-0.2197,0.0596-0.3008
			c0-0.4795-0.2998-0.7988-0.8994-0.96c-0.6406,0.1201-1.001,0.1807-1.0801,0.1807h-1.4404c-0.2803,0.0801-1,0.3799-2.1602,0.8994
			c-0.8799,0.4404-1.5996,0.6406-2.1592,0.6006c-1.6807,1.3193-2.5801,2.04-2.7002,2.1602
			c-1.041,0.8799-1.7607,1.7197-2.1602,2.5195c-0.2002,0.1602-0.4004,0.2402-0.5996,0.2402c-0.2012,0-0.4912-0.1699-0.8701-0.5098
			c-0.3809-0.3398-0.6904-0.5107-0.9307-0.5107c-0.2002,0-0.4004,0.0605-0.5996,0.1807c0.1201-0.1201,0.1797-0.2002,0.1797-0.2402
			c-0.2803-0.96-1.3604-1.5801-3.2393-1.8604c-1.7207-0.2793-2.5801-0.8789-2.5801-1.7998c0-0.3994,0.0986-0.8789,0.2998-1.4404
			c1.0801-1.0791,2.3594-2.6396,3.8398-4.6797c1.6396-2.3193,2.8398-3.8994,3.5996-4.7402v-0.5996
			c0-0.3604-0.1406-0.5791-0.4199-0.6602c-0.3594-0.2793-1.1602-0.2998-2.3994-0.0596c-0.96,0.1602-1.5811-0.1807-1.8604-1.0205
			c-0.3203-0.6396-0.5605-1.6992-0.7197-3.1797c-0.1602-1.4795-0.4199-2.54-0.7803-3.1797
			c0.0801-0.2002,0.1201-0.3994,0.1201-0.6006c0-0.2402-0.1006-0.6094-0.2998-1.1094c-0.2012-0.5-0.2998-0.8701-0.2998-1.1104
			c0-0.2793,0.0986-0.5596,0.2998-0.8398c0.0791-0.04,0.2793-0.2295,0.5996-0.5703c0.3193-0.3389,0.5791-0.5098,0.7803-0.5098
			c0.1992,0,0.3799,0.0596,0.54,0.1797c0.1592,0.1201,0.2998,0.1797,0.4199,0.1797c0.1992,0,0.4502-0.0986,0.75-0.2998
			c0.2998-0.1992,0.5098-0.2998,0.6299-0.2998c0.1992,0,0.3799,0.0811,0.54,0.2402c0.1992-0.1201,0.54-0.1699,1.0195-0.1504
			c0.4805,0.0205,0.8408-0.0693,1.0801-0.2695c0.4805,0.2803,1.04,0.4199,1.6807,0.4199c0.3994,0,1.4189-0.2002,3.0596-0.6006
			c0.1592,0,0.3896,0.0703,0.6904,0.21c0.2998,0.1406,0.5293,0.21,0.6895,0.21c0.2002,0,0.3799-0.0791,0.54-0.2393
			c0.3203-0.0801,0.6396-0.3604,0.96-0.8398c0.3203-0.4805,0.6396-0.7598,0.96-0.8408c-0.1602-2.0791,0.3398-3.8594,1.5-5.3398
			c0.6396-0.3193,1.3398-0.4795,2.1006-0.4795c0.5996,0,1.5391,0.1406,2.8193,0.4199c1.2803,0.2803,2.2598,0.4199,2.9404,0.4199
			c0.5195,0,1.0195-0.0605,1.5-0.1797c0.4395,0.04,1.1396,0.1191,2.0996,0.2393c0.5596,0.041,1,0.3213,1.3203,0.8398
			c0.0801,0.1611,0.1201,0.3213,0.1201,0.4805c0,0.3604-0.2207,0.7305-0.6602,1.1104c-0.4404,0.3799-0.6602,0.6504-0.6602,0.8096
			c0,0.2012,0.2598,0.4004,0.7803,0.5996c0.4395-0.4395,1.5-0.6592,3.1797-0.6592c1.2002,1.6797,1.7793,3.04,1.7402,4.0801
			c0.0391,0.4404,0.2998,1.25,0.7803,2.4297c0.4795,1.1807,0.7197,2.0908,0.7197,2.7295c0,0.96-0.501,1.7207-1.5,2.2803
			c-0.4404-0.0791-1.1602-0.0391-2.1602,0.1201c-1,0.1602-1.7002,0.2002-2.0996,0.1201c-0.6006,0-1.3408,0.2002-2.2207,0.5996
			c-0.8799,0.4004-1.5801,0.6006-2.0996,0.6006c-0.2803,0-0.5605-0.04-0.8398-0.1201c-0.2803,0.2803-0.6406,0.4199-1.0801,0.4199
			c-0.2002,0-0.5098-0.0391-0.9297-0.1201c-0.4199-0.0801-0.7305-0.1201-0.9307-0.1201c-0.4404,0-0.7705,0.1309-0.9893,0.3896
			c-0.2207,0.2607-0.8701,0.6709-1.9502,1.2305c-0.8398,0.4404-1.2207,1.041-1.1406,1.7998c0.4805,0.6006,1.1602,0.9004,2.04,0.9004
			c2.1201,0,3,0,2.6406,0c0.4795,0.1201,1.0596,0.1797,1.7402,0.1797c0.2393,0,0.5791,0,1.0195,0
			c0.4805-0.1201,0.8398-0.1797,1.0801-0.1797c1.0801,0,1.9395,0.3105,2.5801,0.9307c0.999,0.4971,2.3398,1.3867,4.0195,2.6689
			c1.4404,0.1602,3.3799-0.1992,5.8203-1.0801c2.4395-0.8789,4.2793-1.2988,5.5195-1.2598
			c0.6797-0.4395,1.8203-0.5195,3.4209-0.2402c0.5596,0.8809,0.8789,2.3203,0.96,4.3203
			C1027.7197,39.9609,1027.96,41.4404,1028.3203,42.2812z"/>
	</g>
</g>
</svg>
