<?xml version="1.0" encoding="utf-8"?>
<!-- Generator: Adobe Illustrator 25.2.1, SVG Export Plug-In . SVG Version: 6.00 Build 0)  -->
<svg version="1.1" id="レイヤー_1" xmlns="http://www.w3.org/2000/svg" xmlns:xlink="http://www.w3.org/1999/xlink" x="0px"
	 y="0px" viewBox="0 0 1040 80" style="enable-background:new 0 0 1040 80;" xml:space="preserve">
<style type="text/css">
	.st0{fill:#1E1E28;}
</style>
<g>
	<g>
		<g>
			<path class="st0" d="M34.3604,47.501c0.3994,0.4795,0.5996,0.9805,0.5996,1.5c0,0.5205-0.2305,0.9502-0.6904,1.29
				s-0.9697,0.5098-1.5293,0.5098c-0.7207,0-1.6602-0.5996-2.8203-1.7998c-0.8398-0.8799-1.6602-1.7598-2.46-2.6406
				c-0.0811-0.0791-0.7402-0.6992-1.9795-1.8594c0,1.0801,0,1.9404,0,2.5801c0.0791,2.96,0.0791,4.7998,0,5.5195
				c0,0.7607-0.0215,1.8809-0.0605,3.3604c-0.0801,0.9209-0.1201,2.4404-0.1201,4.5596c0,0.9209,0,2.1406,0,3.6602
				c0.1201,2.0791-0.5801,3.1396-2.0996,3.1797c-1.4004,0.04-2.1211-0.5195-2.1602-1.6797c-0.04-0.5205-0.0205-1.2803,0.0596-2.2803
				c0.04-1.2393,0.0605-2.0186,0.0605-2.3398c0-1.1191,0.0391-1.8594,0.1201-2.2197c0.1201-0.8398,0.1797-2.2803,0.1797-4.3203
				c0.1201-0.7197,0.1592-1.7188,0.1201-3c-0.04-1.4395-0.0205-2.46,0.0596-3.0596c0-0.8799,0.04-2.1797,0.1201-3.9004
				c-0.5205,0.7607-1.04,1.4912-1.5596,2.1904c-0.5205,0.7002-1.3604,1.7695-2.5205,3.21c-0.5195,0.6406-1.3398,1.5801-2.46,2.8203
				c-0.5205,0.4795-0.9805,0.7197-1.3799,0.7197c-0.4404,0-0.9805-0.2598-1.6201-0.7803c-0.3203-0.3994-0.4795-0.8594-0.4795-1.3799
				c0-0.5195,0.1797-1.0205,0.54-1.5c0.5596-0.5195,1.3291-1.3096,2.3096-2.3701c0.9795-1.0596,2.4297-2.7295,4.3506-5.0098
				c0.5186-0.5596,1.1992-1.4199,2.04-2.5801c0.7197-0.999,1.7998-2.46,3.2393-4.3799c1.2803-1.9199,2.3604-3.6201,3.2402-5.1006
				c0.5195-0.8398,0.7803-1.4395,0.7803-1.7998c0-0.3994-0.3604-0.5791-1.0801-0.54c-0.8809,0.041-2.1406,0.1006-3.7803,0.1807
				c-1.0801,0.04-2.6201,0.1406-4.6201,0.2998c-0.8398,0.0801-1.9795,0.1602-3.4199,0.2402
				c-1.4395,0.2002-2.2803-0.4404-2.5195-1.9209c-0.2012-1.1992,0.459-1.9199,1.9795-2.1592
				c0.3203-0.04,1.1797-0.0801,2.5801-0.1201c0.3193,0,0.8193-0.0303,1.5-0.0898c0.6797-0.0605,1.1602-0.0908,1.4404-0.0908
				c0.6387,0,0.9395-0.2793,0.8994-0.8398c0.2402-0.9199,0.2998-1.7793,0.1807-2.5801c0.0391-3.0791,0.0391-4.8193,0-5.2197
				c-0.0811-1.2393,0.5596-1.9199,1.9199-2.04c0.6387-0.0391,1.1992,0.1104,1.6797,0.4502s0.6992,0.8506,0.6602,1.5303
				c-0.04,0.7598-0.1006,2.0996-0.1797,4.0195l-0.0605,3.7197c0,0.2402,0.0605,0.4307,0.1797,0.5703
				c0.1201,0.1406,0.2197,0.1904,0.3008,0.1504c1.5596,0.04,2.5195-0.0205,2.8799-0.1807c2.1602-0.2393,3.5791-0.1592,4.2598,0.2402
				c0.5195,0.4404,0.7803,1.041,0.7803,1.7998c0,0.4805-0.1113,0.9805-0.3301,1.5c-0.2207,0.5205-0.8311,1.6006-1.8301,3.2402
				c-0.4404,0.8398-1.1807,2.001-2.2197,3.4805c-0.1201,0.3203-0.9404,1.5596-2.46,3.7197
				c-0.4414,0.5996-0.6602,1.0801-0.6602,1.4395c0,0.2803,0.1396,0.5811,0.4199,0.9004c0.5996,0.6807,1.5996,1.6602,3,2.9404
				c0.7998,0.6807,1.8389,1.5996,3.1201,2.7598C33.1797,46.2412,33.6797,46.7412,34.3604,47.501z M65.9199,50.5605
				c0,0.7607-0.4004,1.3203-1.2002,1.6807c-0.5605,0.2002-1.2998,0.2998-2.2197,0.2998c-1.4805,0-2.6807,0.04-3.5996,0.1201
				c-1.0801-0.0801-2.8604-0.04-5.3408,0.1201c-0.7197,0.04-0.9395,0.5996-0.6592,1.6797v3.5996
				c-0.0811,0.4404-0.1006,1.1006-0.0605,1.9805c0,0.8008,0.0391,2.0801,0.1201,3.8398c0.0801,1.2793-0.1104,2.2295-0.5703,2.8496
				s-1.0498,0.9102-1.7695,0.8701c-1.041-0.0801-1.7012-0.5801-1.9805-1.5c-0.1602-0.5605-0.2197-1.2998-0.1797-2.2197
				c0.1201-1.1602,0.1592-1.8994,0.1201-2.2197c0.1201-0.3994,0.1592-0.8408,0.1201-1.3203c-0.04-0.6396-0.04-1.0801,0-1.3203
				c0.0391-0.3594,0.0596-1.0195,0.0596-1.9795c0-0.3604,0-0.9199,0-1.6807c-0.04,0.4004-0.0596-0.1992-0.0596-1.7998
				c-0.04-0.1992-0.2607-0.4199-0.6602-0.6602c-0.2402-0.1191-0.6807-0.1396-1.3203-0.0596
				c-0.8398,0.0811-1.2998,0.1201-1.3799,0.1201c-1.2402,0-3.1406,0.1201-5.7002,0.3594c-0.6807,0.1201-1.3799,0-2.0996-0.3594
				c-0.7197-0.3604-1.0801-0.9395-1.0801-1.7402c-0.04-2.4004-0.04-4.2793,0-5.6396c0.1201-2.9199,0.1396-4.7002,0.0596-5.3398
				c0.0801-0.4805,0.1201-2.6602,0.1201-6.54c0-1.6396,0-2.5205,0-2.6406c0.04-0.7197,0.0205-1.7998-0.0596-3.2402
				c0.1201-1.5596,0.2598-2.5195,0.4199-2.8799c0.3994-0.7197,1.3203-1.0195,2.7598-0.8994c1.4404,0.1201,2.4395,0.0596,3-0.1807
				c0.7598-0.0791,1.8604-0.0986,3.2998-0.0596c0.9199-0.1592,1.6807-0.2197,2.2803-0.1797c0.2002,0,0.3301-0.1104,0.3906-0.3301
				c0.0596-0.2197,0.0898-0.4502,0.0898-0.6904c-0.041-0.5996-0.041-1.4795,0-2.6396c-0.041-1.1191-0.0605-2.7393-0.0605-4.8604
				c0.04-1.0801,0.6396-1.7598,1.7998-2.04c0.2402-0.0791,0.4805-0.1201,0.7207-0.1201c1.4795,0,2.0996,0.8809,1.8594,2.6406
				c-0.04,0.9199-0.0596,2.0605-0.0596,3.4199c-0.04,0.2803-0.0811,1.3408-0.1201,3.1797c0,0.6807,0.0391,1.0703,0.1201,1.1699
				c0.0801,0.1006,0.3994,0.1309,0.96,0.0898c1.6797-0.0791,3.8398-0.1992,6.4795-0.3594c0.5605,0,1.3809-0.04,2.4609-0.1201
				c0.5596-0.0391,1.1484,0.1406,1.7695,0.54c0.6201,0.4004,0.9697,0.8994,1.0498,1.5c-0.0801,1.0801-0.0596,2.6797,0.0605,4.7998
				c-0.1201,0.3604-0.1611,0.9004-0.1201,1.6201c0.1201,0.8008,0.1396,1.3604,0.0596,1.6797c-0.04,0.5605-0.04,1.4004,0,2.5205
				c0.0801,0.96,0.0605,2.0801-0.0596,3.3594c0.1992,1.2812,0.2402,3.041,0.1201,5.2803c-0.041,0.5205-0.0205,1.4004,0.0596,2.6396
				C65.9199,47.7012,65.9199,48.9209,65.9199,50.5605z M48.9404,32.501C48.9795,31.7812,49,31.3115,49,31.0908
				c0-0.2197-0.0205-0.5703-0.0596-1.0498c-0.0811-0.6006-0.1201-1.1191-0.1201-1.5605c0-0.4395-0.3008-0.6387-0.9004-0.5996
				c-0.6807-0.0391-1.54-0.0391-2.5801,0c-0.8799,0.04-2.0605,0.1006-3.54,0.1797c-0.7197,0.041-1.1201,0.5205-1.2002,1.4404
				c-0.1191,1.5596-0.1602,2.9199-0.1191,4.0801c0,0.3203,0.0195,0.96,0.0596,1.9199c0.0801,0.3203,0.1699,0.5996,0.2695,0.8398
				s0.3301,0.3604,0.6904,0.3604c1.3203,0.04,2.2803,0.0205,2.8799-0.0605c0.7998,0,2.04-0.0791,3.7197-0.2402
				c0.4404-0.0791,0.7002-0.2793,0.7803-0.5996C48.8799,35.001,48.8994,33.9014,48.9404,32.501z M48.9404,43.2412
				c0-0.7207,0-1.2197,0-1.5c-0.041-0.9199-0.2607-1.3594-0.6602-1.3203c-0.1201-0.0801-1.0801-0.0801-2.8799,0
				c-2.04,0.0801-2.9805,0.1201-2.8203,0.1201c-0.4404,0.04-0.8809,0.0898-1.3203,0.1494c-0.4404,0.0605-0.6602,0.291-0.6602,0.6904
				c0,0.8008,0,1.2207,0,1.2598c0.04,0.8398,0,2.0205-0.1191,3.54c0,0.4004,0.0195,1.041,0.0596,1.9199
				c0.0801,0.6807,0.5,1.041,1.2598,1.0801c0.6006-0.0391,1.3994-0.0791,2.4004-0.1201c2.0791,0,3.3594-0.0791,3.8398-0.2402
				c0.4395,0,0.6992-0.2188,0.7803-0.6592c0.1201-0.7207,0.1396-1.2002,0.0596-1.4404
				C48.8398,45.9609,48.8594,44.8008,48.9404,43.2412z M61.7803,46.541c0.0391-0.2793,0.0391-1.7402,0-4.3799
				c0-0.3203-0.0205-0.8604-0.0605-1.6201c-0.04-0.3604-0.2393-0.5801-0.5996-0.6602c-1.2002,0.0801-2.7002,0.1406-4.5,0.1797
				c0.0391,0-0.9004,0.0205-2.8203,0.0605c-0.5605,0.1201-0.8799,0.4199-0.96,0.8994c-0.2002,2.2803-0.2002,3.7207,0,4.3203v2.5195
				c0,0.6006,0.46,0.9004,1.3799,0.9004c1.2002,0,2.1992-0.0391,3-0.1201c1.0801,0,2.4395-0.1201,4.0801-0.3594
				C61.7393,48.0811,61.9004,47.501,61.7803,46.541z M61.6602,32.9805c0.0391-1.1592,0.0391-2.7988,0-4.9199
				c-0.04-0.6797-0.4609-0.8994-1.2598-0.6602c-1.001,0.041-2.501,0.0811-4.5,0.1201c-0.4004,0.0811-1.001,0.1006-1.8008,0.0605
				c-0.6807,0.1602-1.0596,0.29-1.1396,0.3896c-0.0811,0.1006-0.1406,0.6299-0.1797,1.5898c0,1.2402,0,2.9609,0,5.1602
				c0,0.8008,0.0791,1.2598,0.2393,1.3799s0.5605,0.1602,1.2002,0.1201c1.1602-0.1201,2.8203-0.2197,4.9805-0.2998
				c1.3594,0,2.1396-0.1396,2.3398-0.4199C61.7393,34.3008,61.7803,33.4609,61.6602,32.9805z"/>
			<path class="st0" d="M93.3398,30.041c0.0391,1.3604-0.7402,2.1201-2.3398,2.2793c-0.8398,0-1.9199,0.0215-3.2402,0.0605
				c-0.2803,0.04-0.8096,0.0596-1.5898,0.0596s-1.1904,0.1807-1.2295,0.54c0.0391,0.4414,0.0391,1.2002,0,2.2803
				c0.1592,0.3203,0.4199,0.7402,0.7793,1.2598c0.4805,0.8398,1.1797,1.8809,2.1006,3.1201
				c0.9189,1.4004,1.959,2.7402,3.1201,4.0205c0.8789,1,1.3193,1.8594,1.3193,2.5801c0,0.4795-0.21,0.9297-0.6299,1.3496
				s-0.8701,0.6299-1.3496,0.6299c-0.6006,0-1.1611-0.3389-1.6807-1.0195c-0.7197-1.1201-1.7803-2.7197-3.1797-4.8008
				c-0.2402-0.2793-0.5205-0.6387-0.8398-1.0801v5.9404c0.0391,0.8008,0.0195,1.96-0.0605,3.4805
				c-0.0801,1.9199-0.0996,4.2598-0.0596,7.0195c0,1.3604-0.04,3.291-0.1201,5.79s-0.7803,3.75-2.0996,3.75
				c-1.6406,0-2.4004-0.9209-2.2803-2.7598c0-0.4805,0.0391-1.2812,0.1201-2.4004c0.1992-2.5596,0.3193-5.1797,0.3604-7.8594
				c0.0791-1.4795,0.1797-3.7402,0.2998-6.7803c0-1.04,0.0596-2.7803,0.1797-5.2197c-0.4004,0.96-1.1006,2.3994-2.0996,4.3193
				c-0.3604,0.6807-0.8809,1.7402-1.5605,3.1807c-0.4004,0.7598-0.9404,1.8398-1.6201,3.2393
				c-0.6807,1.4014-1.4395,2.1006-2.2793,2.1006c-1.1211,0-1.6807-0.7598-1.6807-2.2803c0-0.6797,0.2402-1.4795,0.7207-2.4004
				c0.4395-0.7197,0.8789-1.459,1.3193-2.2197c0.4404-0.7598,1-1.8193,1.6807-3.1797c0.3594-0.4805,0.9189-1.5,1.6797-3.0605
				c0.5596-1.0391,1.2393-2.4395,2.04-4.1992c0.1592-0.2803,0.7197-1.6602,1.6797-4.1406c0-0.0391,0.0195-0.1992,0.0605-0.4795
				c0.0391-0.2793,0.0596-0.4404,0.0596-0.4805c-1.4805-0.0391-2.6309,0-3.4502,0.1201c-0.8203,0.1201-1.75,0.2002-2.79,0.2402
				c-0.8008,0.04-1.4199-0.0898-1.8594-0.3906c-0.4414-0.2998-0.6406-0.8291-0.6006-1.5898c0.04-1.1592,0.54-1.8389,1.5-2.04
				c0.6006-0.1201,1.3398-0.1797,2.2207-0.1797c0.0791,0,0.2998,0,0.6592,0c0.3203-0.0391,0.5195-0.0596,0.6006-0.0596
				c0.3994,0,0.8701-0.0303,1.4102-0.0908c0.54-0.0596,1.0293-0.0898,1.4697-0.0898c0.6396,0,0.96-0.3594,0.96-1.0801
				c0,0.1201,0.0391-0.8994,0.1201-3.0596c0.0391-0.5596,0.0195-1.5996-0.0605-3.1201c0-0.3994-0.2393-0.5195-0.7197-0.3604
				c-0.3203,0.1201-0.8203,0.2803-1.5,0.4805l-3.0596,1.0195c-0.6006,0.2012-1.1006,0.3008-1.5,0.3008
				c-0.8008,0-1.3408-0.46-1.6201-1.3809c-0.3604-1.2393-0.0811-2.0596,0.8398-2.46c0.6396-0.1592,1.5801-0.459,2.8203-0.8994
				c0.2393-0.04,1.459-0.3994,3.6592-1.0801c0.9199-0.2402,2.2998-0.6201,4.1406-1.1406c0.4395-0.2393,1.2295-0.4893,2.3701-0.75
				c1.1396-0.2588,1.8301-0.4492,2.0693-0.5693c0.1602,0,0.4199-0.0898,0.7803-0.2705c0.3604-0.1797,0.6602-0.2695,0.9004-0.2695
				c0.5195,0,0.9893,0.2305,1.4102,0.6895c0.4199,0.4609,0.6299,0.9512,0.6299,1.4707c0,0.3203-0.0811,0.6602-0.2402,1.0195
				c-0.4404,0.8008-1.4404,1.3604-3,1.6797c-0.7607,0.1611-1.8408,0.4609-3.2402,0.9004c-0.4404,0.1201-0.6807,0.6406-0.7197,1.5605
				c0,1.1992-0.04,2.7402-0.1201,4.6191c0.0391,0.4805,0.0391,1.0801,0,1.8008c0,0.2002,0.0498,0.3701,0.1504,0.5098
				c0.0986,0.1406,0.249,0.21,0.4492,0.21c0.4404-0.0391,1.2803-0.0996,2.5205-0.1797c1.1191-0.04,2.0996-0.1201,2.9395-0.2402
				C92.5,27.8008,93.2598,28.4805,93.3398,30.041z M123.8203,25.3604c-0.2803,0.6406-0.7607,1.5811-1.4404,2.8203
				c-0.5605,1-1.4199,2.5-2.5801,4.5c-0.8398,1.4404-2.1602,3.5605-3.96,6.3604c-0.6406,1.1201-1.6006,2.6602-2.8799,4.6201
				c-1.041,1.3604-2.4404,3.2607-4.2002,5.6992c-0.2803,0.4414-0.5605,0.8809-0.8398,1.3203
				c-0.0801,0.1602-0.1406,0.5205-0.1797,1.0801c-0.1201,1.4004-0.1602,2.3008-0.1201,2.7002c-0.04,0.4404-0.04,1.8809,0,4.3203
				c0,1.1992,0.0391,1.8799,0.1201,2.0391c0.1592,0.5205,0.6602,0.8008,1.5,0.8408c0.1992,0,0.54,0,1.0195,0
				c0.5596-0.04,1.0205-0.0605,1.3799-0.0605c1.8398,0,3.3398-0.1201,4.5-0.3594c0.7998-0.1602,1.3096-0.3994,1.5303-0.7207
				c0.2197-0.3193,0.3691-0.9395,0.4502-1.8594c0.1992-2.3193,0.2402-3.96,0.1201-4.9199
				c-0.1602-1.5205,0.5596-2.3799,2.1602-2.5801c1.4395-0.1602,2.1592,0.8398,2.1592,3c-0.04,0.3203-0.0801,1.1396-0.1191,2.46
				c-0.1201,1.1201-0.2803,2.7207-0.4805,4.7998s-1.5811,3.3994-4.1396,3.96c-0.6807,0.1592-2.8203,0.2793-6.4199,0.3604
				c-1.7207,0.0391-3.0215,0.0195-3.9004-0.0605c-1.4805-0.1602-2.5-0.5098-3.0596-1.0498c-0.5615-0.54-0.8408-1.5703-0.8408-3.0898
				v-3.0605c0.04-0.6387,0.0801-1.5596,0.1201-2.7598c-0.04-0.3604-0.1406-0.54-0.2998-0.54
				c-0.1201,0.04-0.2607,0.1201-0.4199,0.2402c-0.7197,0.8398-1.4805,1.6299-2.2803,2.3701
				c-0.8008,0.7402-2.2598,2.1699-4.3799,4.29c-1.8398,1.8389-3.2803,2.7598-4.3203,2.7598c-1.3594,0-2.0391-0.6602-2.0391-1.9805
				c0-0.7588,0.3594-1.459,1.0791-2.0996c0.5195-0.4795,1.8799-1.6201,4.0801-3.4199c0.4404-0.2793,1.0205-0.7695,1.7402-1.4697
				c0.7197-0.6992,1.8604-1.7705,3.4199-3.21c0.6396-0.6797,1.29-1.3896,1.9502-2.1299s1.1494-1.4502,1.4697-2.1309
				c0.0801-2.1191,0.0996-4.0195,0.0605-5.6992l-0.1201-6.96c-0.0811-3.3604-0.1201-4.9805-0.1201-4.8604
				c-0.04-0.5996-0.04-1.3799,0-2.3398c0.0801-0.5195,0.3389-0.9902,0.7803-1.4102c0.4395-0.4199,0.9189-0.6299,1.4395-0.6299
				c0.4805,0,0.96,0.2305,1.4404,0.6895c0.4795,0.4609,0.7197,0.9307,0.7197,1.4102c0.0391,2.001,0.0391,3.3301,0,3.9902
				c-0.04,0.6602-0.1006,1.9707-0.1797,3.9297c-0.0811,1.6807-0.1006,3.8613-0.0605,6.54c-0.04,0.3213,0.0195,0.4805,0.1807,0.4805
				c0.1592,0.04,0.3193-0.0605,0.4795-0.2998c0.8799-1.3203,1.6797-2.5205,2.4004-3.6006c0.5195-0.6797,1.1191-1.6201,1.7998-2.8203
				c1.2393-1.9199,2.8994-4.8193,4.9795-8.6992c0.3604-0.7207,0.9395-1.8008,1.7402-3.2402
				c0.5195-1.2393,0.9395-2.1797,1.2598-2.8203c0.1602-0.4795,0.46-1.1592,0.9004-2.04c0.5596-0.7588,1.2393-1.1396,2.04-1.1396
				c0.5996,0,1.1299,0.21,1.5898,0.6299s0.6904,0.9297,0.6904,1.5303C125.7402,21.6016,125.0996,23.041,123.8203,25.3604z
				 M99.5801,35.0205c-0.1201,0.9209-0.3809,2.2607-0.7803,4.0205c-0.3203,1.4395-0.7002,3.2998-1.1396,5.5801
				c-0.3203,1.3193-0.7197,3.0596-1.2002,5.2197c-0.3604,1.6406-1.1396,2.4805-2.3398,2.5195
				c-0.5205,0.1201-0.9902-0.0391-1.4102-0.4795c-0.4199-0.4395-0.6299-0.999-0.6299-1.6797c0-0.2793,0.0391-0.54,0.1201-0.7803
				c0.2402-0.8799,0.5596-2.04,0.96-3.4805c0.5195-1.8789,0.8994-3.499,1.1396-4.8594l0.7803-4.7402
				c0.0801-0.9199,0.3799-2.1602,0.9004-3.7197c0.3594-0.5195,0.9795-0.7402,1.8594-0.6602
				c1.2393,0.1201,1.8604,0.8203,1.8604,2.0996C99.7002,34.3818,99.6602,34.7012,99.5801,35.0205z M112.1797,25.4209
				c-0.4404,0-0.9199-0.2002-1.4395-0.6006c-0.5205-0.3984-1.001-0.7793-1.4404-1.1396c-0.8799-0.6396-2.2402-1.5996-4.0801-2.8799
				c-0.96-0.5996-2.3994-1.5195-4.3193-2.7598c-0.6406-0.4395-0.96-1.0801-0.96-1.9199c0-0.4805,0.1396-0.8799,0.4199-1.2002
				c0.6387-0.6797,1.2393-1.0205,1.7998-1.0205c0.5195,0,1.2197,0.2803,2.0996,0.8408c0.6396,0.4795,1.2598,0.9297,1.8604,1.3496
				c0.5996,0.4199,1.4795,1.0107,2.6396,1.7695c0.5195,0.3213,1.4199,0.9209,2.7002,1.8008c1.04,0.7197,1.8193,1.2998,2.3398,1.7393
				c0.5195,0.4414,0.7803,0.9404,0.7803,1.5c0,0.6006-0.2607,1.1699-0.7803,1.71
				C113.2793,25.1504,112.7393,25.4209,112.1797,25.4209z M128.6201,49.0605c0.1201,0.6807,0,1.29-0.3604,1.8301
				c-0.3594,0.54-0.8799,0.8105-1.5596,0.8105c-0.9209,0-1.54-0.3203-1.8604-0.96c-0.6406-1.3203-1.6006-3.3203-2.8799-6
				c-0.4404-0.9199-1.1602-2.2998-2.1602-4.1406c-0.6807-1.0801-1.0195-1.8193-1.0195-2.2197c0-1.3203,0.54-2.1201,1.6201-2.4004
				c0.2393-0.0791,0.4795-0.1201,0.7197-0.1201c0.9199,0,1.6992,0.7607,2.3398,2.2803c0.3604,0.7607,0.9004,1.9004,1.6201,3.4199
				c0.5596,1.1611,1.4395,2.8604,2.6396,5.1006C128.2002,47.4209,128.5,48.2207,128.6201,49.0605z"/>
			<path class="st0" d="M185.4404,25.3604c0,1.4014-0.0811,3.3213-0.2402,5.7607c0.0391,0.7598,0,1.9004-0.1201,3.4199
				c-0.0811,0.7197-0.1602,1.46-0.2402,2.2197c-0.0801,0.8008-0.0596,1.54,0.0605,2.2197
				c-0.1611,0.3604-0.2402,0.8906-0.2402,1.5898c0,0.7012-0.04,1.2109-0.1201,1.5303c0.0391,0.6406-0.1201,2.2412-0.4805,4.7998
				c-0.04,1.041-0.2598,2.541-0.6592,4.5c-0.041,0.6807-0.2012,1.7012-0.4805,3.0605c0.0391,0.3203-0.0898,1.2998-0.3896,2.9395
				c-0.2998,1.6406-0.5312,2.6006-0.6904,2.8809c0,0.1602-0.1602,0.8799-0.4795,2.1592c-0.7207,2.6797-1.8604,4.0205-3.4199,4.0205
				c-0.3604,0-0.7412-0.0605-1.1406-0.1797c-0.7598-0.2402-1.6006-0.4805-2.5195-0.7207l-5.7607-2.1602
				c-1.1201-0.4004-1.6797-1.1992-1.6797-2.3994c0-1.3594,0.7197-2.04,2.1602-2.04c0.5596,0,1.1602,0.1406,1.7998,0.4199
				c0.3994,0.2803,1.0205,0.6201,1.8604,1.0195c0.5596,0.2402,1.3994,0.5605,2.5195,0.96c1.04,0.3604,1.7197,0.1611,2.04-0.5996
				c0.2402-0.5596,0.4502-1.3896,0.6299-2.4902c0.1807-1.0996,0.3096-1.8301,0.3906-2.1895
				c0.0791-0.3604,0.2188-0.9395,0.4199-1.7402c0.4395-2.1602,0.8789-5.3799,1.3203-9.6602c0.0391-2.6396,0.2188-4.6396,0.5391-6
				c0.2803-1.0801,0.3398-2.499,0.1807-4.2598c0.1592-0.6797,0.21-1.7197,0.1494-3.1201c-0.0596-1.3994-0.0293-2.4199,0.0908-3.0596
				c-0.041-0.9199-0.0811-1.4199-0.1201-1.5c-0.1201-0.2402-0.54-0.3799-1.2607-0.4209c-1.6797,0.041-3.5,0.0811-5.46,0.1201
				c-2,0.2402-3.5605,0.3213-4.6797,0.2402c-0.3604-0.0391-0.8008-0.0195-1.3203,0.0605c-0.6396,0.0801-1.0801,0.1191-1.3193,0.1191
				c-0.8398,0-1.5205,0.2803-2.04,0.8408c-0.3213,0.5195-1.041,1.7393-2.1602,3.6592c-0.6406,1.1611-1.2803,2.3203-1.9199,3.4805
				c-0.96,1.5596-1.9004,2.3398-2.8203,2.3398c-0.8008,0-1.4199-0.3604-1.8594-1.0801c0-0.1992-0.041,1.0801-0.1201,3.8398
				c-0.041,0.8408-0.0811,2.1211-0.1201,3.8408c0.1201,0.5195,0.1396,1.3398,0.0596,2.46c0.04,0.96,0.04,2.2002,0,3.7197
				c-0.04,2.1602-0.0596,3.4199-0.0596,3.7803c0,2.6006-0.041,4.3799-0.1201,5.3398c0.1201,0.7598,0,1.5205-0.3604,2.2793
				c-0.4004,0.8809-1.0195,1.3408-1.8594,1.3809c-2.5605,0.1191-4.3809,0.0986-5.46-0.0605
				c-1.2812,0.04-3.2012,0.1201-5.7607,0.2402c-1.1201,0.0391-2.6396,0.0596-4.5596,0.0596
				c-1.5205-0.04-2.4805-0.4795-2.8799-1.3193c-0.2402-0.5195-0.3408-1.5996-0.2998-3.2402c0-1.2393,0.0391-3,0.1191-5.2803
				c0.04-1.2002,0.0801-3,0.1201-5.3994c0.0801-1.04,0.1201-2.5801,0.1201-4.6201c-0.1602-1.4004-0.1201-2.9004,0.1201-4.5
				c-0.1201-0.3994-0.1406-1-0.0596-1.8008c0.1201-0.7988,0.1396-1.3594,0.0596-1.6797c0.0391-1.5996,0.0801-3.8994,0.1201-6.8994
				c0-1.3594,0-2.1396,0-2.3408c0.0801-1.1191,0.6992-1.7598,1.8604-1.9199c0.5596-0.0791,1.0801-0.0596,1.5596,0.0605
				c-0.2402-0.0801,0.8799-0.1592,3.3604-0.2402c0.4395,0,0.7393-0.2402,0.8994-0.7197l0.4805-1.4404
				c0.6797-1.9199,1.2197-4.0195,1.6201-6.2998c0.1201-0.7197,0.4492-1.2305,0.9893-1.5303s1.0898-0.3896,1.6504-0.2695
				c1.3203,0.3203,1.9805,1.0801,1.9805,2.2793c0,1.1211-0.4209,2.541-1.2607,4.2607c-0.2393,0.4795-0.5605,1.4805-0.96,3
				c-0.04,0.1602-0.0205,0.3096,0.0605,0.4502c0.0791,0.1406,0.2188,0.1895,0.4199,0.1494c0.1992-0.0391,1.2002-0.0791,3-0.1201
				c0.5996-0.0791,1.5391-0.1592,2.8193-0.2402c1.8398,0.2812,2.7607,1.0801,2.7607,2.4004c0,0.2803-0.0205,0.5996-0.0605,0.96
				c-0.1602,0.8809-0.2393,2.3398-0.2393,4.3799c0,0.3213,0,0.7607,0,1.3203c0.0391,0.5996,0.0596,1.0195,0.0596,1.2598
				c0.3193-0.3594,0.7598-0.9795,1.3203-1.8594c0.1992-0.2402,0.7998-1.2002,1.7998-2.8809l2.6396-4.3799
				c0.2002-0.4395,0.4805-1.0801,0.8398-1.9199c0.8408-1.5596,1.7197-3.459,2.6406-5.7002c0.1201-0.1992,0.499-1.0391,1.1396-2.5195
				c0.3193-0.7598,1.0205-1.1396,2.0996-1.1396c0.3994,0,0.7803,0.0596,1.1406,0.1797c0.7998,0.4404,1.2002,1.0195,1.2002,1.7402
				c0,0.4795-0.1807,0.9805-0.54,1.5c-0.2803,0.6396-0.8203,1.6797-1.6201,3.1201c-0.04,0.0801-0.3408,0.5996-0.9004,1.5596
				c-0.1602,0.4004-0.1797,0.7002-0.0596,0.9004c0.1201,0.2393,0.3799,0.3398,0.7793,0.2998c0.3203,0.04,1.1201-0.04,2.4004-0.2402
				c0.3193,0.1201,0.8594,0.1201,1.6201,0c0.9199-0.1201,1.5391-0.1592,1.8604-0.1201c-0.2803,0,0.6387-0.0596,2.7598-0.1797
				c3.9199-0.2002,6.1396-0.2402,6.6602-0.1201c0.7998,0.1602,1.2988,0.6201,1.5,1.3799
				C185.3594,23.3809,185.3994,24.0811,185.4404,25.3604z M151.4805,54.3408c0.0391-1.4404,0.0391-4.1191,0-8.04
				c-0.041-0.3994-0.1006-0.7803-0.1807-1.1396c-0.0801-0.1602-0.46-0.2793-1.1396-0.3604
				c-1.2812,0.1201-2.5801,0.1602-3.9004,0.1201c-1.5996,0.0801-3.6396,0.1406-6.1201,0.1797
				c-0.5195,0.0811-0.8398,0.2607-0.96,0.54c-0.04,0.0811-0.0996,0.4502-0.1797,1.1104c-0.0811,0.6602-0.1201,1.6299-0.1201,2.9102
				c-0.04,0.6807-0.0801,1.5898-0.1201,2.7295c-0.04,1.1406-0.0596,2.8105-0.0596,5.0098c0.0391,0.9209,0.3193,1.3604,0.8398,1.3203
				c0.7998-0.0391,2-0.0391,3.5996,0c0.7598,0,2-0.0391,3.7207-0.1201c0.9189,0,2.1797-0.0791,3.7793-0.2402
				c0.5195-0.1191,0.7803-0.6992,0.7803-1.7393C151.3799,56.1016,151.3994,55.3408,151.4805,54.3408z M151.7197,35.6211
				c-0.04-1.4404-0.0596-3.5195-0.0596-6.2402c-0.04-0.3193-0.0605-0.6201-0.0605-0.9004
				c-0.1191-0.3994-0.3799-0.6191-0.7793-0.6602c-0.8809,0-2.1807,0.0605-3.9004,0.1807c-1.7207,0.1201-3.3604,0.1602-4.9199,0.1201
				c-0.96-0.04-1.5596-0.0195-1.7998,0.0596c-0.6406,0.1602-0.9404,0.5801-0.9004,1.2598c0.04,0.8008-0.0205,2.6807-0.1797,5.6406
				C139.0391,36.2012,139,37.9219,139,40.2412c0,0.4795,0.3994,0.7197,1.2002,0.7197c2.0791,0.04,3.499-0.0195,4.2598-0.1797
				c0.3193,0.1191,1.1396,0.1191,2.46,0c1.6797-0.1201,2.5596-0.1807,2.6396-0.1807c1.4795,0,2.2002-0.4502,2.1602-1.3496
				C151.6797,38.3506,151.6797,37.1416,151.7197,35.6211z M174.5801,47.2607c0,0.5996-0.21,1.1504-0.6299,1.6504
				s-0.9102,0.75-1.4697,0.75c-0.7207,0-1.4014-0.3398-2.04-1.0205c-0.0811-0.1201-0.6602-0.9795-1.7402-2.5801
				c-0.8398-1.0801-1.7207-2.2793-2.6406-3.5996c-0.5996-0.6797-1.4395-1.8398-2.5195-3.4805
				c-0.1201-0.1592-0.1797-0.3789-0.1797-0.6602c0-0.7197,0.3193-1.3799,0.96-1.9795c0.4795-0.2402,0.96-0.3604,1.4395-0.3604
				c0.8398,0,1.3896,0.2705,1.6504,0.8105c0.2598,0.54,0.71,1.1797,1.3496,1.9199s1.4404,1.8506,2.4004,3.3301
				c0.4395,0.6396,1.1396,1.5596,2.0996,2.7598C174.1396,45.7607,174.5801,46.5811,174.5801,47.2607z"/>
			<path class="st0" d="M225.2803,25.7207c-0.041,1.3604-0.6006,2.1211-1.6807,2.2803c-0.7598,0.1201-1.7598,0.1797-3,0.1797
				c-0.6807,0-1.6602,0.0811-2.9395,0.2402c-0.1201,0-1,0.1006-2.6406,0.2998c-0.3994,0.04-1.0195,0.1006-1.8594,0.1797
				c-0.6006,0.1611-1.0205,0.5605-1.2598,1.2002c-0.3604,0.6807-0.8203,1.7402-1.3809,3.1807
				c-0.1602,0.6396-0.5391,1.5801-1.1396,2.8193c-0.1602,0.6807-0.5703,1.6504-1.2295,2.9102
				c-0.6602,1.2598-1.0508,2.1299-1.1699,2.6104c-0.2812,0.8398-0.8408,2.0801-1.6807,3.7197
				c-0.1602,0.7197-0.4004,1.2402-0.7197,1.5596c-0.4004,0.6807-0.9004,1.7402-1.5,3.1807
				c-0.4004,0.8398-1.0605,2.0801-1.9805,3.7197c-0.3203,0.7197-0.8398,1.7002-1.5596,2.9404
				c-0.4404,0.5996-1.1006,0.8994-1.9805,0.8994c-0.5195,0-1-0.1201-1.4395-0.3594c-0.6406-0.4805-0.96-1.1797-0.96-2.1006
				c0-0.3994,0.0791-0.7197,0.2402-0.96c0.3594-0.6396,0.96-1.6201,1.7998-2.9395c0.6797-1,1.6396-2.7402,2.8799-5.2207
				c0.8398-1.5596,1.5596-3,2.1602-4.3193c0.9199-1.8008,1.3594-2.7998,1.3193-3c0.7207-1.3594,1.2607-2.54,1.6201-3.54
				c0.3994-1.1602,1.04-2.7803,1.9199-4.8604c0.0801-0.3604,0.0303-0.5898-0.1494-0.6904
				c-0.1807-0.0986-0.4111-0.1289-0.6904-0.0898c-0.96,0.1602-1.7803,0.2402-2.46,0.2402c-1.1201,0.0811-2.9199,0.2607-5.3994,0.54
				c-1.041-0.1201-1.7012-0.6992-1.9805-1.7402c-0.1201-0.5195-0.0508-1.0889,0.21-1.71c0.2598-0.6191,0.6494-0.9902,1.1699-1.1094
				c0.4805,0,1.1191-0.0205,1.9199-0.0605c1.4795-0.1592,2.5-0.2402,3.0605-0.2402c1.0391-0.0791,2.5996-0.2188,4.6797-0.4199
				c0.7998-0.0791,1.3203-0.4199,1.5596-1.0195c0.1602-0.3203,0.3008-0.6396,0.4209-0.96c0.1191-0.7598,0.4395-1.8799,0.96-3.3604
				c0.1992-0.8398,0.4795-2.0996,0.8398-3.7803c0.0791-0.5186,0.4395-0.8896,1.0801-1.1094
				c0.6387-0.2197,1.2393-0.2705,1.7998-0.1504c0.5596,0.1201,1.0293,0.4004,1.4102,0.8398
				c0.3799,0.4404,0.5098,0.9209,0.3896,1.4404c-0.2402,0.7197-0.5996,1.8203-1.0801,3.2998c-0.1201,0.3604-0.2695,0.79-0.4502,1.29
				c-0.1797,0.501-0.4297,1.2305-0.75,2.1904c-0.0801,0.2803-0.0498,0.4795,0.0908,0.5996
				c0.1396,0.1201,0.4287,0.1602,0.8691,0.1201c0.3604,0,0.8105-0.0605,1.3506-0.1797c0.54-0.1201,1.0498-0.2002,1.5303-0.2402
				c0.8789-0.04,2.0596-0.2002,3.5391-0.4805c-0.2393,0,0.3604-0.0596,1.8008-0.1797c0.8398-0.0391,1.4697,0.1709,1.8896,0.6299
				C225.1299,24.4707,225.3193,25.041,225.2803,25.7207z M242.0195,62.7412c-0.5195,0-0.9805-0.1895-1.3799-0.5703
				c-0.4004-0.3799-0.9805-0.9092-1.7393-1.5898c-0.6406-0.4805-1.6201-1.2803-2.9404-2.4004
				c-0.3604-0.3604-0.9102-0.75-1.6504-1.1699s-1.25-0.7695-1.5293-1.0498c-0.8398-0.3994-1.2812-0.2598-1.3203,0.4199
				c0.0391,0.3604,0,0.8203-0.1201,1.3799c-0.1201,0.7197-0.2002,1.1699-0.2402,1.3496c-0.04,0.1807-0.2998,0.8906-0.7793,2.1309
				c-0.3213,0.8799-0.7002,1.5205-1.1406,1.9199c-1.3193,1.7598-3.5,2.7988-6.54,3.1201c-1.7607,0.1992-2.8193,0.2793-3.1797,0.2393
				c-1.7207-0.1201-3.2607-0.4404-4.6201-0.96c-1.4395-0.8008-2.4805-1.5996-3.1201-2.3994
				c-0.5205-0.6396-0.8994-1.4199-1.1396-2.3408c-0.1602-1.1191-0.2207-1.9395-0.1797-2.46c0-0.0391,0.2393-1.0195,0.7197-2.9395
				c1.3203-2.5996,2.9395-4.2393,4.8604-4.9199c0.999-0.6396,2.2197-1.0801,3.6592-1.3203
				c0.7207-0.2402,1.7002-0.3994,2.9404-0.4795c1.4795-0.0801,2.7002-0.04,3.6602,0.1191c0.6797,0.1201,1.0195-0.0986,1.0195-0.6592
				c0-0.1602-0.04-1.1406-0.1201-2.9404c0.04-0.8789-0.04-2.2393-0.2393-4.0801c0.1191-1.3203,0.0596-2.3193-0.1807-3
				c0.04-0.2793,0.04-0.5996,0-0.96c-0.0801-0.4795-0.1201-0.7588-0.1201-0.8398c-0.04-1.0801,0.6602-1.7793,2.1006-2.0996
				c1.4395-0.2002,2.3594,0.3799,2.7598,1.7393c-0.04,1.7207-0.04,2.6611,0,2.8203c0.0391,0.6807,0.0195,1.5596-0.0596,2.6396
				c0.0791,3.5605,0.1094,5.5713,0.0898,6.0303c-0.0205,0.46-0.0205,1.0303,0,1.71c0.0195,0.6807,0.1289,1.1201,0.3301,1.3203
				c0.0391,0.04,0.3389,0.2197,0.8994,0.54c1.1201,0.5996,2.4395,1.3604,3.96,2.2793c0.6006,0.2402,1.2803,0.6602,2.04,1.2607
				c0.96,0.7598,1.5605,1.2207,1.7998,1.3799c0.7598,0.4795,1.7598,1.2803,3,2.3994c0.5605,0.5205,0.8408,1.1406,0.8408,1.8604
				c0,0.5996-0.2314,1.1699-0.6904,1.71C243.21,62.4707,242.6592,62.7412,242.0195,62.7412z M227.3799,54.5811
				c0-0.8799-0.3203-1.3799-0.96-1.5c-0.4795-0.1592-1.1807-0.2793-2.0996-0.3604c-1.2402-0.1201-2.5801-0.0195-4.0205,0.2998
				c-0.8398,0.2803-1.54,0.5811-2.0996,0.9004c-1.2402,0.5605-2.1211,1.3799-2.6406,2.46c-0.7598,1.1201-0.96,2.2803-0.5996,3.4795
				c0.2402,0.8008,0.6201,1.2812,1.1396,1.4404c0.3994,0.4404,1.0596,0.7607,1.9805,0.96c0.7197,0.2402,1.6396,0.3203,2.7598,0.2402
				c0.3604,0.04,1.4795-0.2002,3.3604-0.7197c1.2393-0.3203,2.0996-1.1797,2.5801-2.5801
				C227.1797,58.4014,227.3799,56.8604,227.3799,54.5811z M244.96,35.3203c0.2793,0.3213,0.4199,0.7207,0.4199,1.2002
				c0,0.6807-0.2402,1.2812-0.7197,1.7998c-0.4805,0.5205-1.041,0.7803-1.6797,0.7803c-0.5615,0-1.0605-0.1992-1.5-0.5996
				c-0.2402-0.3203-0.6006-0.7803-1.0801-1.3799c-0.3213-0.2793-0.9814-1.1406-1.9805-2.5801
				c-0.3203-0.2793-0.8604-0.9092-1.6201-1.8906c-0.7598-0.9795-1.8809-2.3096-3.3594-3.9893
				c-0.2402-0.4805-0.8203-1.1797-1.7402-2.1006c-0.3213-0.3994-0.4805-0.8789-0.4805-1.4395c0-0.7598,0.2793-1.3799,0.8398-1.8604
				c0.4404-0.3604,0.9004-0.54,1.3809-0.54c0.7988,0,1.459,0.3408,1.9795,1.0205c0.1592,0.2002,0.3799,0.4795,0.6602,0.8398
				c0.5596,0.6396,1.2793,1.5801,2.1602,2.8193c0.6797,0.8809,1.6201,2.0205,2.8193,3.4199
				c0.4805,0.6406,1.2803,1.5215,2.4004,2.6406L244.96,35.3203z"/>
			<path class="st0" d="M300.5195,60.5205c0,1.3203-0.4404,2.1406-1.3193,2.46c-0.3213,0.1602-0.6807,0.2402-1.0801,0.2402
				c-1.2803,0-2.1406-0.5-2.5801-1.5c-0.2002-0.7197-0.6211-1.7793-1.2598-3.1797c-0.1602-0.96-0.6006-2.04-1.3203-3.2402
				c-0.7607-2.1602-1.4404-3.6602-2.04-4.5c-0.2402-0.7197-0.7803-1.0801-1.6201-1.0801c-0.8008,0-1.8594,0-3.1797,0
				c-3.1201,0.1201-4.7012,0.1797-4.7402,0.1797c-1.4004,0-2.2197,0.0215-2.46,0.0605c-0.2803-0.1201-0.6406-0.1592-1.0801-0.1201
				c-0.6406,0.0811-1,0.1201-1.0801,0.1201c-0.7197-0.0391-1.7402-0.0195-3.0596,0.0596c-0.7607-0.0791-1.9004-0.0195-3.4199,0.1807
				c-0.6406,0-1.1201,0.2998-1.4404,0.8994c-0.2803,0.3604-0.5605,0.8809-0.8398,1.5605c-0.2803,0.6807-0.7402,1.7998-1.3799,3.3594
				c-0.2402,0.4805-0.5508,1.2305-0.9297,2.25c-0.3809,1.0205-0.9512,2.3906-1.71,4.1104
				c-0.4805,0.7998-1.2207,1.2002-2.2207,1.2002c-1.5996,0-2.3994-0.8604-2.3994-2.5801c0-0.3994,0.0898-0.7803,0.2695-1.1406
				c0.1797-0.3594,0.4297-0.9189,0.75-1.6797c0.5195-0.96,1.2197-2.4795,2.1006-4.5596c0.2393-0.6797,0.499-1.1602,0.7793-1.4404
				l1.4404-3.3604c0.3594-0.8789,0.8994-2.1191,1.6201-3.7197c0.3193-0.6396,0.7393-1.5996,1.2598-2.8799
				c0.1592-0.3193,0.459-0.96,0.9004-1.9199c0.5186-1.2793,1.2793-3.2402,2.2793-5.8799c0.0801-0.3193,0.2598-0.7803,0.54-1.3799
				c0.2002-0.3994,0.4805-1.0205,0.8398-1.8604c0.3604-1.4795,1-3.1396,1.9199-4.9795c0.3604-0.5605,0.7598-1.4404,1.2002-2.6406
				c0.3604-0.6797,0.96-2.2588,1.7998-4.7402c0.5195-1.4395,1.54-2.2197,3.0605-2.3398c1.5596-0.1201,2.6592,0.8398,3.2998,2.8799
				c0.4805,1.041,1.0801,2.501,1.7998,4.3809c0.1201,0.3994,0.3994,1,0.8398,1.7998c0.0801,0.5205,0.6006,1.9199,1.5605,4.2002
				c0.1201,0.3594,0.3389,0.8398,0.6602,1.4395c0.3193,0.6006,0.6797,1.4805,1.0801,2.6396
				c0.0791,0.4805,0.3389,1.1406,0.7793,1.9805c0.2402,0.5605,0.5596,1.4004,0.96,2.5195c0.4805,1.4805,0.9805,2.5801,1.5,3.3008
				c0.3604,0.8008,0.8193,2.0195,1.3809,3.6602c0.2793,0.7197,0.7588,1.7393,1.4395,3.0596
				c0.3994,0.9209,0.9199,2.2197,1.5605,3.9004c0.4395,0.5605,0.8398,1.4395,1.1992,2.6396
				c0.2002,0.2402,0.4199,0.7002,0.6602,1.3799C299.959,58.3008,300.5195,59.7207,300.5195,60.5205z M288.4004,44.1406
				c-0.4004-0.999-0.96-2.4795-1.6807-4.4395c-0.1201-0.6396-0.46-1.3809-1.0195-2.2207c-0.1602-0.5996-0.5205-1.459-1.0801-2.5801
				c-0.04-0.3594-0.2207-0.8291-0.54-1.4092c-0.3203-0.5801-0.5205-1.0703-0.5996-1.4707
				c-0.3604-0.8789-0.9004-2.1797-1.6201-3.8994c-0.3604-0.7998-0.8613-2.0195-1.5-3.6602
				c-0.0811-0.2793-0.2012-0.4199-0.3604-0.4199c-0.1602,0.04-0.2803,0.2002-0.3604,0.4795
				c-0.4404,1.0801-1.1006,2.7207-1.9795,4.9199c-0.3604,0.96-0.6807,1.7207-0.96,2.2803
				c-0.8809,1.7207-1.4609,3.1797-1.7402,4.3799c-0.2402,0.2803-0.4707,0.7803-0.6904,1.5s-0.4297,1.2402-0.6299,1.5605
				c-0.2002,0.5605-0.54,1.3604-1.0195,2.3994c-0.1602,0.3604-0.5605,1.4209-1.2002,3.1807
				c-0.0801,0.1191-0.1201,0.2393-0.1201,0.3594c0,0.4805,0.2793,0.7002,0.8398,0.6602c0.2793,0,1.0801,0,2.4004,0
				c0.7998,0.04,1.8604,0,3.1797-0.1201c0.8799,0.1602,1.8994,0.1797,3.0605,0.0605c1.3193-0.1201,2.3398-0.1396,3.0596-0.0605
				c0.3994-0.1201,0.9395-0.1592,1.6201-0.1201c0.7998,0.041,1.3398,0.041,1.6201,0c0.96-0.0391,1.4395-0.2998,1.4395-0.7793
				C288.5195,44.6211,288.4795,44.4209,288.4004,44.1406z"/>
			<path class="st0" d="M358.96,59.3203c0.3193,0.4805,0.4805,0.9404,0.4805,1.3809c0,0.6807-0.2705,1.2598-0.8105,1.7393
				c-0.54,0.4805-1.1504,0.7207-1.8301,0.7207c-1,0-1.7998-0.3799-2.3994-1.1406c-0.3604-0.3193-0.8408-0.8994-1.4404-1.7393
				c-0.7197-0.8408-1.4609-1.8604-2.2197-3.0605c-0.4805-0.6797-1.0801-1.46-1.7998-2.3398c-0.4805-0.7197-1.3008-1.7197-2.46-3
				c-0.6006-0.7998-1.5811-2.0596-2.9404-3.7803c-0.4404-0.4795-1.0801-1.2988-1.9199-2.46
				c-0.2402-0.2402-0.6006-0.6797-1.0801-1.3203c-0.2803-0.4395-0.8604-0.6797-1.7402-0.7197
				c-1.4805,0.04-3.7002,0.0811-6.6602,0.1201c-0.4404,0-0.96,0-1.5596,0c-0.5605,0.04-0.9004,0.1201-1.0205,0.2402
				c-0.1191,0.1201-0.2197,0.4404-0.2998,0.96c-0.04,1.5596-0.04,3.2197,0,4.9795c-0.1201,0.7607-0.1797,1.5811-0.1797,2.46
				c0.0391,1.2412,0.0596,2.001,0.0596,2.2803c-0.04,1.2402-0.04,2.5,0,3.7803c0,0.8398-0.0205,1.9199-0.0596,3.2402
				c-0.1201,1.0801-0.8604,1.6797-2.2197,1.7998c-1.1611-0.0811-1.9199-0.3604-2.2803-0.8398c-0.2803-0.3604-0.4199-1-0.4199-1.9199
				c0-0.4805,0.0596-1.3809,0.1797-2.7002c-0.04-1.2393-0.0205-2.6602,0.0605-4.2598c-0.1611-1.5996-0.1406-2.8809,0.0596-3.8408
				c-0.1201-0.7588-0.1006-1.4785,0.0596-2.1592c-0.0801-1.3203-0.0996-3.0801-0.0596-5.2803
				c0.0801-2.6406,0.1201-4.3994,0.1201-5.2803c0.0391-0.5596,0.0195-1.4189-0.0605-2.5801
				c-0.1191-0.5596-0.1299-1.3994-0.0293-2.5195c0.0996-1.1201,0.1094-1.9404,0.0293-2.46c0-0.96-0.0205-2.2207-0.0596-3.7803
				c0-0.8799-0.0205-2.1602-0.0596-3.8398c-0.5205-0.5195-0.6602-1.3594-0.4199-2.5205c0.2793-1.4795,1.4189-2.0996,3.4199-1.8594
				c0.7988,0.0801,2.6992,0.0801,5.6992,0c0.5195,0,1.3594-0.0195,2.5205-0.0605c1.4395-0.0791,2.5801-0.1201,3.4199-0.1201
				c3.3604-0.0791,5.7793,0.0605,7.2598,0.4199c0.7197,0.2012,1.7598,0.4414,3.1201,0.7207
				c0.3994,0.2393,1.3203,0.6602,2.7598,1.2598c0.3203,0.2402,0.8799,0.6602,1.6807,1.2598c0.96,0.6807,1.7998,1.751,2.5195,3.21
				c0.7197,1.4609,1.1191,2.9912,1.2002,4.5898c0.0801,1.9199-0.0205,3.3809-0.2998,4.3809
				c-0.2402,1.8398-1.001,3.5801-2.2803,5.2197c-1.0801,1.4004-2.6807,2.5195-4.7998,3.3594
				c-0.7607,0.3213-2.0605,0.6406-3.9004,0.96c-0.5205,0.2402-0.6396,0.54-0.3594,0.9004c0.5996,0.6807,1.2793,1.5811,2.04,2.7002
				c1.2393,1.1602,2.1191,2.1807,2.6396,3.0596c0.3193,0.4004,0.7197,0.8613,1.2002,1.3799c0.7197,1.001,1.9395,2.46,3.6602,4.3809
				c0.4395,0.5996,1.0791,1.3604,1.9199,2.2793C357.8799,57.8809,358.3994,58.4805,358.96,59.3203z M352.6602,29.4404
				c0-1.5195-0.6006-2.9795-1.7998-4.3799c-0.4805-0.4395-1.3008-1.0195-2.46-1.7402c-0.8408-0.3594-1.8408-0.6592-3-0.8994
				c-1.4404-0.3193-4.1006-0.4199-7.9805-0.2998c0.6396,0.04-1.4805,0.0996-6.3604,0.1797c-0.7598,0-1.2402,0.1406-1.4395,0.4199
				c-0.0811,0.1201-0.1602,0.4805-0.2402,1.0801c0.1201,1.3604,0.0996,2.4805-0.0596,3.3604c0,0.4795,0,1.0801,0,1.7998
				c-0.041,0.7598-0.0605,1.3799-0.0605,1.8594c0,2.9609-0.0205,4.3604-0.0596,4.2002c0.0391,0.2012,0.0195,1.2607-0.0605,3.1807
				c0.04,0.8398,0.4805,1.2402,1.3203,1.1992c0.8799,0,2,0,3.3604,0c0.5195,0.041,1.2598,0.0215,2.2197-0.0596
				c3.1201,0.0811,6.0391-0.2002,8.7598-0.8398c0.7598-0.1592,1.7598-0.4199,3-0.7803c1.1602-0.5596,2.04-1.1191,2.6406-1.6797
				c0.7988-0.7207,1.3193-1.5801,1.5596-2.5801c0.1992-0.2002,0.3691-0.8398,0.5098-1.9199
				C352.6494,30.4609,352.6992,29.7617,352.6602,29.4404z"/>
			<path class="st0" d="M388.4805,40.4209c0.1191,0.4795,0.1797,0.8799,0.1797,1.2002c0,0.7598-0.4404,1.4004-1.3203,1.9199
				c-0.3203,0.2002-0.7002,0.2998-1.1396,0.2998c-1.3203,0-2.1006-0.5-2.3398-1.5c-0.3213-0.7998-0.7207-2.0195-1.2002-3.6602
				c-0.2012-0.7998-0.5605-1.7998-1.0801-3c-0.1602-0.7197-0.5605-1.7402-1.2002-3.0596c0-0.2402-0.1104-0.5801-0.3301-1.0205
				c-0.2197-0.4395-0.3506-0.7588-0.3896-0.96c-0.2012-0.4795-0.4609-1.2197-0.7803-2.2197c-0.04-0.1201-0.54-1.2803-1.5-3.4805
				c-0.1602-0.3594-0.2402-0.7393-0.2402-1.1396c0-0.7197,0.2705-1.3096,0.8105-1.7695s1.1699-0.6904,1.8896-0.6904
				c1.04,0,1.7793,0.5205,2.2197,1.5596c0.4404,1.041,1,2.6006,1.6807,4.6807c0.96,2.5195,1.6396,4.5,2.04,5.9395
				c0.1992,0.6006,0.54,1.4805,1.0195,2.6406c0.2002,0.5195,0.4805,1.2402,0.8398,2.1592
				C387.8799,38.8818,388.1592,39.5811,388.4805,40.4209z M402.8799,38.8604c0.0391,0.1611,0.0605,0.3213,0.0605,0.4805
				c0,0.5605-0.2803,1.0801-0.8408,1.5596c-0.5605,0.4805-1.1396,0.7207-1.7393,0.7207c-1.2402,0-1.9414-0.5-2.1006-1.5
				c-0.0801-0.1602-0.1797-0.46-0.2998-0.9004c-0.2002-0.6396-0.4795-1.6201-0.8398-2.9395
				c-0.1201-0.7598-0.4004-1.8008-0.8398-3.1201c-0.1201-0.3604-0.2998-0.9307-0.54-1.71
				c-0.2402-0.7803-0.5801-1.9297-1.0205-3.4502c-0.2393-0.6006-0.4795-1.2998-0.7197-2.1006
				c-0.2402-0.7988-0.6406-1.999-1.2002-3.5996c-0.1201-0.3604-0.1797-0.6992-0.1797-1.0195c0-0.6797,0.2402-1.2803,0.7197-1.8008
				c0.4805-0.5195,1.0596-0.7793,1.7402-0.7793c1.3594,0,2.2393,0.7002,2.6396,2.0996c0.2002,0.6807,0.6006,2.0996,1.2002,4.2598
				c0.0801,0.4004,0.2002,0.9209,0.3604,1.5605c0.3594,1.04,0.7998,2.6006,1.3193,4.6797c0.1201,0.5605,0.3799,1.4404,0.7803,2.6396
				c0.2002,0.6807,0.5,1.6006,0.9004,2.7607C402.5195,37.3818,402.7197,38.1016,402.8799,38.8604z M422.6797,25.1211
				c-0.1201,0.5195-0.4004,1.1992-0.8398,2.04c-0.4795,0.96-0.7803,1.6602-0.8994,2.0996c-0.1201,0.4404-0.4004,1.1201-0.8408,2.04
				c-0.9199,2.2803-2,4.7998-3.2393,7.5596c-0.3213,0.6006-0.7002,1.4609-1.1406,2.5801c-0.1602,0.3213-0.4199,0.8408-0.7793,1.5605
				c-0.6006,1.04-1.1006,2.0205-1.5,2.9395c-0.2803,0.7207-0.6807,1.5605-1.2002,2.5205c-0.3604,0.6406-0.8398,1.6602-1.4404,3.0596
				c-0.6396,1.2002-1.4805,2.8203-2.5195,4.8604c-0.2803,0.4795-0.7002,1.2598-1.2607,2.3398
				c-0.3203,0.6406-0.8203,1.6006-1.5,2.8799c-0.2393,0.4004-0.5898,0.9404-1.0498,1.6201s-1.1094,1.0205-1.9502,1.0205
				c-0.7197,0-1.3193-0.2607-1.7998-0.7803C400.2402,62.9404,400,62.3203,400,61.6006c0-0.5596,0.1289-1.0996,0.3896-1.6201
				c0.2598-0.5195,0.5498-0.9795,0.8701-1.3799c0.4395-0.7998,1.1406-1.9395,2.1006-3.4199
				c0.6797-1.3994,1.6201-3.0996,2.8193-5.0996c0.2402-0.3994,0.5596-1.04,0.96-1.9199c0.04-0.1602,0.3994-0.7998,1.0801-1.9199
				c0.3994-0.6396,0.7598-1.4004,1.0801-2.2803c0.4805-1.1602,1.2803-2.7998,2.4004-4.9199c0.4395-0.9199,0.9395-2.1602,1.5-3.7207
				c0.3994-0.5996,0.7197-1.3799,0.96-2.3398c0.6396-1.3994,1.2988-3.0791,1.9795-5.04c0.7598-1.8389,1.3594-3.5596,1.8008-5.1592
				c0.1191-0.3203,0.2998-0.7803,0.54-1.3809c0.4395-0.8789,1.1191-1.3193,2.0391-1.3193c0.7598,0,1.4199,0.2803,1.9805,0.8398
				c0.5596,0.5605,0.8398,1.2207,0.8398,1.9795C423.3398,23.501,423.1201,24.2412,422.6797,25.1211z"/>
			<path class="st0" d="M483.9404,23.8008c-0.4004,0.4404-0.8809,1.1201-1.4404,2.04c-0.8008,1.0801-2.0801,2.6602-3.8398,4.7402
				c-0.5205,0.6807-1.2598,1.6201-2.2197,2.8193c-0.4805,0.5205-1.2002,1.3408-2.1602,2.46c-0.96,1.1211-2.46,2.7607-4.5,4.9209
				c-0.6006,0.9199-1.3799,1.3799-2.3398,1.3799c-0.6406,0-1.2412-0.2197-1.8008-0.6602c-0.5605-0.4395-0.8398-0.9795-0.8398-1.6201
				c0-0.5996,0.2793-1.2002,0.8398-1.7998c0.7598-0.6006,1.7598-1.54,3-2.8203c0.6396-0.7598,1.6201-1.8604,2.9404-3.2998
				c0.1592-0.1201,1.4395-1.6396,3.8398-4.5605c0.3994-0.4795,0.999-1.2988,1.7998-2.46c0.1201-0.2793,0.1396-0.499,0.0605-0.6592
				c-0.0811-0.2002-0.3604-0.2598-0.8398-0.1807c-0.6006-0.0391-1.5-0.0596-2.7002-0.0596l-3.4199,0.2402
				c-0.5205,0-1.3105,0.0293-2.3701,0.0898c-1.0605,0.0596-2.6309,0.1299-4.71,0.21c-0.7207,0-1.2598,0.0801-1.6201,0.2393
				c-1.041-0.0791-2.6611-0.0391-4.8604,0.1201c-1.1201,0.0811-1.7002,0.1201-1.7402,0.1201
				c-1.1992-0.0391-3.6592,0.1006-7.3799,0.4199c-1.5205,0.1201-2.3604,0.1807-2.5195,0.1807
				c-1.2402,0.0801-3.0811,0.2002-5.5205,0.3594c-0.5605,0.041-1.0596-0.1592-1.5-0.5996c-0.4404-0.4395-0.7002-0.96-0.7793-1.5605
				C437.1191,21.9814,438,21.041,439.96,21.041h1.7998c1.04-0.04,2.6602-0.1592,4.8604-0.3604
				c1.2002,0.2012,2.1602,0.1602,2.8799-0.1201c1.04,0.1602,3.1992,0.1006,6.4805-0.1797c1.4785,0.04,3.6592-0.0391,6.5391-0.2402
				c0.6797-0.0391,1.5996-0.1201,2.7607-0.2402c1.6797,0,2.5801-0.0195,2.7002-0.0596c5.6396-0.3994,9.9795-0.6201,13.0195-0.6602
				c0.999-0.1201,1.8398,0.0508,2.5195,0.5098c0.6797,0.4609,1.0205,1.1309,1.0205,2.0107
				C484.54,22.3408,484.3398,23.041,483.9404,23.8008z M461.5596,31.7207c0,0.2803-0.0205,0.7607-0.0596,1.4404
				c-0.04,0.6807-0.0596,1.1504-0.0596,1.4092c0,0.2607-0.0303,0.7012-0.0908,1.3203c-0.0596,0.6211-0.0898,1.0303-0.0898,1.2305
				c-0.04,1.7197-0.3809,4.0596-1.0195,7.0195c-0.0811,0.5205-0.2803,1.3203-0.6006,2.4004
				c-0.2803,0.7598-0.7002,1.8594-1.2598,3.2998c-0.1201,0.4404-0.4199,1.0605-0.8994,1.8604
				c-0.2812,0.8398-1.0205,2.1807-2.2207,4.0195c-2.2402,3.5205-4.7002,6.3809-7.3799,8.5801
				c-0.4404,0.3604-0.9209,0.54-1.4395,0.54c-0.8809,0-1.5811-0.3809-2.1006-1.1396c-0.3594-0.4414-0.54-0.9004-0.54-1.3809
				c0-0.7988,0.3994-1.5596,1.2002-2.2793c0.4395-0.3203,0.9795-0.7998,1.6201-1.4404c0.4395-0.3193,1.5391-1.46,3.2998-3.4199
				c0.4395-0.5596,1.0596-1.4189,1.8604-2.5801c0.3193-0.4795,0.7197-1.2002,1.2002-2.1602
				c0.7588-0.9189,1.3994-2.4395,1.9199-4.5596c0.6797-1.6396,1.0996-3.2998,1.2598-4.9805
				c0.2402-0.8789,0.3389-1.999,0.2998-3.3594c0-0.3994,0.0195-0.96,0.0596-1.6807c0.04-0.7197,0.0605-1.2393,0.0605-1.5596v-2.3398
				c0.1201-1.2803,0.9004-2.04,2.3398-2.2803c0.6396-0.1201,1.2305,0.0107,1.7705,0.3896
				C461.2305,30.4512,461.5195,31.001,461.5596,31.7207z"/>
			<path class="st0" d="M544.4199,37.4209c-0.0801,1.5596-1.0605,2.3994-2.9395,2.5195c-2.5605,0.041-3.6406,0.0811-3.2402,0.1201
				c-1.7207,0-4.2002,0.0605-7.4404,0.1807c-0.0801,0-0.7803-0.0205-2.0996-0.0605c-1.001,0.0811-2.4805,0.1406-4.4404,0.1797
				c-1.0801,0-1.9199,0.041-2.5195,0.1201c-1.0801,0.041-2.6807,0.0605-4.7998,0.0605c-0.3604,0.1602-1.3809,0.2002-3.0605,0.1201
				c-1.6006,0.04-4.1006,0.0996-7.5,0.1797c-0.7197-0.0391-1.7197,0-3,0.1201s-2.9199,0.2002-4.9199,0.2402
				c-0.8398,0.1191-1.5205-0.0801-2.04-0.6006c-0.5205-0.5195-0.8008-1.1592-0.8398-1.9199
				c0.0391-1.6396,0.9795-2.499,2.8203-2.5801c0.3193,0,0.7988,0,1.4395,0c2.1992,0.04,5.6406,0,10.3203-0.1201
				c1.7188,0,4.3203-0.0791,7.7998-0.2393c2.2393,0.1602,4.3398,0.0996,6.2998-0.1807c2.8799,0.041,5.2402-0.0391,7.0801-0.2402
				c2,0.041,3.5791-0.0596,4.7402-0.2998c1.3594-0.0391,3.3389-0.1201,5.9395-0.2393c0.7998,0,1.4102,0.2598,1.8301,0.7793
				C544.2695,36.0811,544.459,36.7012,544.4199,37.4209z"/>
			<path class="st0" d="M601.4199,21.041c-0.04,1.4395-0.6406,2.3203-1.7998,2.6396c-0.5605,0.1602-1.0801,0.291-1.5605,0.3896
				c-0.4795,0.1006-1.1602,0.3906-2.04,0.8701c-0.7197,0.6006-1.7803,1.5-3.1797,2.7002c-0.4404,0.3203-1.0605,0.8203-1.8594,1.5
				c-1.041,1-2.7207,2.4805-5.04,4.4404c-0.2803,0.2393-0.6807,0.6201-1.2002,1.1396c-1.2402,1.2402-2.3398,2.2803-3.2998,3.1201
				l-3.0605,3.2402c-0.5605,0.5605-1.2402,1.4395-2.04,2.6396c-0.2002,0.2803-0.54,0.7803-1.0195,1.5
				c-0.2402,0.4004-0.6006,1.1611-1.0801,2.2803c-0.3604,1-0.3604,1.9199,0,2.7598c0.3994,1,1.4395,2.1602,3.1201,3.4805
				c1.0801,0.8398,1.9795,1.3799,2.6992,1.6191c1.4004,1.2002,4.0801,2.4004,8.04,3.6006c0.2793,0.04,0.7207,0.1797,1.3203,0.4199
				c0.999,0.4004,1.5,1.1006,1.5,2.0996c0,0.4805-0.1406,0.9805-0.4199,1.5c-0.4404,0.8799-1.1807,1.3203-2.2197,1.3203
				c-0.3604,0-0.7002-0.0596-1.0205-0.1797c-0.1201-0.041-0.8203-0.3408-2.0996-0.9004c-3.1201-1.3203-5.46-2.4795-7.0205-3.4795
				c-1.04-0.5195-2.4199-1.4199-4.1396-2.7002c-1-0.7598-1.9199-1.5996-2.7598-2.5205c-1.3604-1.4795-2.0605-3.0391-2.1006-4.6797
				c-0.0801-1.8799,0.4404-3.7998,1.5605-5.7598c0.9199-1.5996,2.0791-3.1592,3.4795-4.6807c0.7998-0.7988,1.8008-1.8594,3-3.1797
				c1.0801-1.0801,2.7393-2.6797,4.9805-4.7998c0.7588-0.6396,1.8994-1.6396,3.4199-3c0.8789-0.6396,1.6396-1.3203,2.2803-2.04
				c0.3994-0.3604,0.999-0.8594,1.7998-1.5c0.4395-0.3193,0.6602-0.5596,0.6602-0.7197c0-0.2002-0.3213-0.2598-0.96-0.1807
				c-0.7607,0.1201-1.9004,0.2402-3.4199,0.3604c-1.9609,0.1201-4.0605,0.2998-6.3008,0.54
				c-0.5605,0.04-1.4395,0.1406-2.6396,0.2998c-1.6797,0.1201-3.7197,0.2998-6.1201,0.54
				c-1.2002,0.1201-2.2598,0.2402-3.1797,0.3604c-1.041,0.1602-2.6006,0.3203-4.6807,0.4795
				c-1.4004,0.1201-2.8594,0.2998-4.3799,0.54c-0.8799,0.1602-1.6699,0-2.3701-0.4795c-0.7002-0.4805-1.0498-1.1602-1.0498-2.04
				c0-1.3594,0.6006-2.1201,1.7998-2.2803c0.04,0,0.8799-0.0596,2.5205-0.1797c3.9199-0.2793,5.7197-0.4199,5.4004-0.4199
				c0.5996-0.04,1.5391-0.1201,2.8193-0.2402c0.3604-0.0391,1.04-0.1201,2.04-0.2402c0.8799-0.1201,1.5605-0.1797,2.04-0.1797
				c0.2002,0.04,0.4805,0.04,0.8398,0c0.4805-0.0801,0.8193-0.1201,1.0205-0.1201c0.6396,0,1.6201-0.0996,2.9395-0.2998
				c0.1201,0,1.54-0.1201,4.2607-0.3604c0.5596,0.04,1.4189-0.0391,2.5801-0.2402c0.5186,0.0811,0.96,0.0811,1.3193,0
				c0.5596-0.1201,1.0205-0.1992,1.3799-0.2393c1.2393-0.1201,3.1201-0.2803,5.6406-0.4805
				c1.3594-0.0801,2.5996-0.2197,3.7197-0.4199c-0.2402,0,0.7998-0.1201,3.1201-0.3604c0.9199-0.0791,1.6094,0.1309,2.0703,0.6299
				C601.1895,19.6514,601.4199,20.2812,601.4199,21.041z M601.3604,39.1611c0.1992,1.0801-0.1807,1.7998-1.1406,2.1592
				c-0.4004,0.2402-0.8203,0.3604-1.2598,0.3604c-0.5996,0-1.041-0.249-1.3203-0.75c-0.2803-0.5-0.6396-1.25-1.0801-2.25
				c-0.3203-0.7588-0.8994-1.8389-1.7393-3.2402c-0.3213-0.5596-0.7803-1.3799-1.3799-2.46
				c-0.1611-0.3594-0.2402-0.6992-0.2402-1.0195c0-0.5596,0.2295-1.0205,0.6895-1.3799c0.46-0.3604,0.9697-0.54,1.5303-0.54
				c0.7197,0,1.3799,0.5,1.9805,1.5c0.3994,0.8398,0.7891,1.6602,1.1699,2.46c0.3789,0.8008,0.9688,1.9004,1.7695,3.2998
				C600.7793,37.9004,601.1201,38.5215,601.3604,39.1611z M609.04,37.541c0.1992,1.0801-0.1797,1.7998-1.1396,2.1602
				c-0.4004,0.2393-0.8203,0.3594-1.2607,0.3594c-0.5996,0-1.04-0.249-1.3193-0.75c-0.2803-0.499-0.6406-1.249-1.0801-2.25
				c-0.3213-0.7588-0.9004-1.8389-1.7402-3.2402c-0.3203-0.5596-0.7803-1.3799-1.3799-2.46
				c-0.1602-0.3594-0.2402-0.6992-0.2402-1.0195c0-0.5596,0.2295-1.0205,0.6904-1.3799c0.459-0.3604,0.9688-0.54,1.5293-0.54
				c0.7207,0,1.3809,0.501,1.9805,1.5c0.3994,0.8398,0.7891,1.6602,1.1699,2.46c0.3799,0.8008,0.9697,1.9004,1.7695,3.2998
				C608.46,36.2812,608.7998,36.9014,609.04,37.541z"/>
			<path class="st0" d="M659.0195,20.6211c-0.2002,1.5996-1.2402,2.3604-3.1191,2.2793c-2.2012-0.1191-3.6006-0.1396-4.2002-0.0596
				c-0.6406,0.0811-1.6406,0.0811-3,0c-4.3203,0-6.2803,0.0205-5.8799,0.0596c-3.2402,0.0811-4.9199,0.1201-5.04,0.1201
				c-1.1201,0-2.8008,0.0205-5.04,0.0605c-0.6406,0-1.0303,0.0703-1.1699,0.21c-0.1406,0.1406-0.2705,0.5098-0.3906,1.1094
				C631.0596,25.001,631,25.6816,631,26.4404c-0.2803,1.5205-0.4004,2.5605-0.3604,3.1201c0,0.3213-0.0801,1.2812-0.2393,2.8799
				c-0.1201,1.3203-0.1611,2.1807-0.1201,2.5801c-0.0811,0.6406-0.041,1.041,0.1201,1.2002
				c0.1592,0.1602,0.499,0.2607,1.0195,0.2998c1.0801,0.041,2.4004,0.1006,3.96,0.1807c1.2002-0.0801,3.7598,0.0596,7.6797,0.4199
				c1.4004,0.0801,2.6406,0.2197,3.7207,0.4199c0.7998,0.1201,2.0791,0.4199,3.8398,0.8994c1.04,0.4004,2.4199,1.0801,4.1396,2.04
				c2.4795,1.8408,3.7207,4.3008,3.7207,7.3799c-0.041,1.2002-0.3604,2.6211-0.9609,4.2607
				c-0.96,1.6406-2.0605,2.9199-3.2998,3.8398c-0.2803,0.2002-1.7002,1.0801-4.2598,2.6396
				c-0.4795,0.1201-1.2705,0.4307-2.3701,0.9307c-1.1006,0.5-2.0098,0.8096-2.7295,0.9297
				c-0.9209,0.4004-2.0605,0.7598-3.4199,1.0801c-1.2002,0.2002-2.4004,0.4199-3.6006,0.6602
				c-0.9209,0.1191-2.3008,0.2998-4.1396,0.54c-2.04,0.3193-3.7197,0.499-5.04,0.54c-0.7197,0.0391-1.3408-0.1807-1.8604-0.6602
				c-0.5205-0.4805-0.7803-1.0801-0.7803-1.8008c0-1.3594,0.6006-2.1191,1.8008-2.2793c1.5596-0.0801,2.4395-0.1201,2.6396-0.1201
				c1.1602-0.0391,2.7598-0.1797,4.7998-0.4199c1.2393-0.2402,3.1396-0.5791,5.7002-1.0205
				c0.2002-0.0791,1.3398-0.4199,3.4199-1.0195c1.3994-0.3994,2.4795-0.8398,3.2402-1.3203
				c2.5195-1.1191,4.2598-2.499,5.2197-4.1396c0.6006-0.6797,0.7998-1.8203,0.6006-3.4199c-0.2012-0.7998-0.501-1.5-0.9004-2.1006
				c-0.7607-0.999-1.8809-1.6992-3.3604-2.0996c-0.5605-0.1592-1.54-0.459-2.9395-0.9004
				c-0.7607-0.1592-1.9004-0.3193-3.4199-0.4795c-1.2402-0.2002-5.001-0.3799-11.2803-0.54c-0.9209,0-2.1807-0.0195-3.7803-0.0605
				c-2.04,0-2.9199-1.0195-2.6396-3.0596c0.0791-0.4805,0.1396-0.9795,0.1797-1.5c0.0801-1.04,0.2402-2.46,0.4805-4.2598
				c-0.0811-0.3994-0.0605-0.9004,0.0596-1.5c0.1201-1.2002,0.2598-3,0.4199-5.4004c0.0801-2.0791,0.1807-3.3604,0.2998-3.8398
				c-0.2002-0.7998,0.04-1.4795,0.7207-2.04c0.6797-0.5596,1.4395-0.7803,2.2793-0.6602c-0.5996,0,1.2402-0.0391,5.5205-0.1201
				c1.8389-0.0391,3.1201-0.0391,3.8398,0c0.4805,0,1.1396-0.0195,1.9805-0.0596c1.0391-0.0391,1.6797-0.0605,1.9199-0.0605
				c4.2393-0.0791,7.8193-0.1797,10.7393-0.2998c0.3604,0.0811,0.8799,0.0811,1.5605,0c0.7998-0.1201,1.2793-0.1797,1.4395-0.1797
				C658.3994,18.041,659.2197,18.9404,659.0195,20.6211z"/>
			<path class="st0" d="M727.9004,42.7607c0,1.3604-1.0605,2.04-3.1807,2.04c-0.7197,0-1.7607,0-3.1201,0
				c-1.4395-0.0391-2.4805-0.0596-3.1191-0.0596c-0.3213,0-0.8105,0.0293-1.4707,0.0898c-0.6602,0.0596-1.1504,0.0898-1.4697,0.0898
				c-1.2402-0.0391-3.1006-0.0391-5.5801,0c-4.7207,0.2002-7.5,0.2803-8.3398,0.2402c-0.6406,0.1201-1.7803,0.1797-3.4199,0.1797
				c-1.8408-0.0391-2.9209-0.0391-3.2402,0c-1.1201-0.1201-2.6396-0.1201-4.5596,0c-2.9609,0.1602-4.4805,0.2402-4.5605,0.2402
				c-0.3203,0-0.9209,0-1.7998,0c-0.6406,0-0.9805,0.1797-1.0205,0.54c-0.1602,0.5605-0.1797,1.2803-0.0596,2.1602
				c0.0391,0.2002,0.2793,0.3994,0.7197,0.5996c1.6807,0.0801,3.96,0.04,6.8398-0.1201c3.3604-0.1592,5.6406-0.2402,6.8408-0.2402
				c0.1592,0,1.959-0.0391,5.3994-0.1201c1.7197,0,4.2998-0.0596,7.7402-0.1797c1.8799-0.1201,3.5-0.1592,4.8604-0.1201
				c0.96-0.1201,2.46-0.1592,4.5-0.1201c0.3594-0.0391,0.6797-0.0596,0.96-0.0596c1.999,0,2.959,1.3604,2.8799,4.0801
				c0,0.5996-0.0605,1.4004-0.1807,2.3994c0,1.4805-0.1602,2.7402-0.4795,3.7803c-0.1201,0.5605-0.2002,1.2002-0.2402,1.9199
				c0,0.2402-0.2998,1.6406-0.8994,4.2002c-0.5205,2.1992-1.541,3.2998-3.0605,3.2998c-0.5996,0-1.6006-0.1406-3-0.4199
				c-1.7998-0.3203-3.2803-0.7002-4.4395-1.1396c-0.2402-0.041-1.2607-0.3408-3.0605-0.9004
				c-0.8008-0.2402-1.1396-0.9209-1.0195-2.04c-0.2803,0.04-0.5811,0.0605-0.9004,0.0605c-0.04,0-1.7998,0.0791-5.2803,0.2393
				c-0.04-0.04-1.1006-0.04-3.1797,0c-2.1201,0-3.3809,0.0098-3.7803,0.0303c-0.4004,0.0195-2.3604,0.0898-5.8799,0.21
				c-1.04-0.0801-2.7598-0.0596-5.1602,0.0605c-0.6807-0.041-1.6797-0.0215-3,0.0596c-1.7607,0.0801-2.7998,0.1201-3.1201,0.1201
				c-1.7197,0.0391-2.6006-0.8008-2.6396-2.5205c0.0801-0.9189,0.0996-2.0791,0.0605-3.4795c0.0391-0.6797,0.0898-1.6797,0.1494-3
				c0.0605-1.3203,0.8496-1.9395,2.3701-1.8604c1.3594,0.0811,2,0.8203,1.9199,2.2207c0,0.0801-0.04,1.2402-0.1201,3.4795
				c-0.04,0.7197,0.2197,1.1006,0.7803,1.1396c0.3604,0,0.7197,0,1.0801,0c0.4395-0.0391,0.6992-0.0596,0.7803-0.0596h3.1797
				c0.4795,0,1.1104-0.0391,1.8896-0.1201c0.7803-0.0791,1.5303-0.1201,2.25-0.1201c0.5195-0.0791,0.7803-0.4199,0.7803-1.0195
				c0-0.6006,0.0195-1.2393,0.0596-1.9199c0.1201-0.5195,0.1201-1.4795,0-2.8799c-0.04-0.3604-0.0898-0.5898-0.1494-0.6904
				c-0.0605-0.0996-0.21-0.21-0.4502-0.3301h-1.0801c-0.3604,0-1.2803,0.04-2.7598,0.1201c-1.1201,0.0811-2.04,0.0811-2.7598,0
				c-0.2803,0.04-0.5605,0.0596-0.8408,0.0596c-1.9199,0-2.8799-0.6797-2.8799-2.04c0.0801-0.3994,0.0801-1.2988,0-2.6992
				c-0.0801-1.2803,0-2.2207,0.2402-2.8203c-0.1201-0.7998-0.1006-1.6797,0.0605-2.6396c0-0.1602,0.0391-1.7002,0.1191-4.6201
				c-0.04-1.4004,0.0205-3.2793,0.1807-5.6406c-0.0811-0.4795-0.0605-3.7793,0.0596-9.8994
				c-0.0801-0.8799,0.1396-1.6592,0.6602-2.3398c0.5195-0.6797,1.2393-1,2.1602-0.96c0.2793,0,1.7402,0,4.3799,0
				c1.5596,0,3.6396-0.0801,6.2402-0.2402c0.6387-0.04,1.1787-0.4199,1.6201-1.1406c0.4395-0.5996,0.6592-1.0791,0.6592-1.4395
				c0.3604-0.7998,0.7402-1.6299,1.1406-2.4902c0.3994-0.8594,1.0391-1.29,1.9199-1.29c0.2402,0,0.5293,0.0303,0.8701,0.0898
				c0.3389,0.0605,0.7295,0.3506,1.1699,0.8701c0.4395,0.5205,0.6396,1.001,0.5996,1.4404
				c-0.2803,0.7197-0.8604,1.8594-1.7393,3.4199c-0.1611,0.4404,0.0791,0.6602,0.7197,0.6602c0.8789,0,2.0996-0.04,3.6602-0.1201
				c1.7188-0.0801,2.8994-0.1201,3.54-0.1201c0.8398,0,2.2988-0.0801,4.3799-0.2402c1.8389-0.1201,3.2998-0.1592,4.3799-0.1201
				c0.4795-0.0791,1.3398,0,2.5801,0.2402c0.4795,0.2002,0.7998,0.8604,0.96,1.9805c0.0391,0.8398,0.0791,1.6602,0.1201,2.46
				c-0.1201,0.3594-0.1602,0.7402-0.1201,1.1396c0.0391,0.6406,0.0596,1.0801,0.0596,1.3203c0.0801,0.96,0.0801,2.3398,0,4.1396
				c0.0801,0.8799,0.1201,2.6396,0.1201,5.2803c0.0801,0.8398-0.1006,1.5-0.54,1.9795c-0.4404,0.4805-1.1201,0.7207-2.04,0.7207
				c-1.8398,0.0801-4.6006,0.1406-8.2803,0.1797c-1-0.0391-2.2793,0-3.8398,0.1201c-1.5205-0.04-3.5996,0-6.2393,0.1201
				c-1.4805,0.0801-3.6006,0.1299-6.3604,0.1494c-2.7598,0.0205-4.3203,0.0508-4.6797,0.0898
				c-0.6406,0.0811-1.7607,0.1006-3.3604,0.0605c-0.3203,0.04-0.54,0.0898-0.6602,0.1494c-0.1201,0.0605-0.2002,0.21-0.2402,0.4502
				c-0.0801,1.0801-0.1201,1.7607-0.1201,2.04c0,0.2803,0.0498,0.4707,0.1504,0.5703c0.0996,0.1006,0.3096,0.1299,0.6299,0.0898
				c0.1592,0.04,1.2393,0.0205,3.2402-0.0596c1.6396-0.04,4.04-0.0996,7.2002-0.1807c5.4395-0.0791,13.5791-0.3389,24.4199-0.7793
				c1.5195-0.0801,3.6191-0.1807,6.2998-0.3008C726.9189,40.3604,727.9004,41.1211,727.9004,42.7607z M714.9404,33.2812
				c0-0.5195,0-1.1602,0-1.9209c-0.041-0.7197-0.3809-1.0586-1.0205-1.0195c-1.2803,0.1201-2.3008,0.1406-3.0596,0.0596
				c-1.0801,0.0811-2.6611,0.1006-4.7402,0.0605c-0.6807,0.1602-1.5811,0.2197-2.7002,0.1797
				c-1.4395-0.0791-2.3604-0.0996-2.7598-0.0596c-2.4805,0-6.1602,0.1201-11.04,0.3594c-1.2402-0.0391-2.9805-0.0195-5.2197,0.0605
				c-0.5605,0.04-0.9004,0.2803-1.0205,0.7197c0,0.3203,0,0.7607,0,1.3203c-0.04,0.5996-0.0596,0.9805-0.0596,1.1396
				c0,0.5605,0.6191,0.7607,1.8594,0.6006c0.4805,0,1.4004-0.0205,2.7607-0.0605c1.6797-0.0801,2.6191-0.1201,2.8193-0.1201
				c1.5195-0.0391,4.1406-0.0996,7.8604-0.1797c2.1992-0.0391,3.8193-0.0605,4.8604-0.0605
				c0.4795-0.0391,1.1191-0.0791,1.9199-0.1191h2.3398c0.5596,0,1.4189-0.0303,2.5801-0.0908
				c1.1592-0.0596,2.04-0.0898,2.6396-0.0898C714.3193,34.0605,714.9795,33.8008,714.9404,33.2812z M714.8799,25.4805
				l-0.0596-1.3193c0-0.3203-0.0508-0.6299-0.1504-0.9307c-0.1006-0.2998-0.291-0.4287-0.5703-0.3896
				c-1.4395-0.1201-3.5-0.0801-6.1797,0.1201c-0.3604-0.1201-0.8398-0.1592-1.4395-0.1201c-0.8809,0.04-1.4609,0.0596-1.7402,0.0596
				c-1.1201,0-2.8203,0.041-5.1006,0.1201c-1.5996-0.0391-4.0195,0-7.2598,0.1201c-0.1201,0.04-0.9404,0.0605-2.46,0.0605
				c-1.3604,0-3.2207,0.04-5.5801,0.1191c-0.5205,0.041-0.79,0.2109-0.8096,0.5107c-0.0205,0.2998-0.0508,1.1699-0.0898,2.6094
				c0.1592,0.6006,0.5596,0.8613,1.1992,0.7803c0.7998-0.0801,1.8604-0.0996,3.1807-0.0596c0.9189,0.04,3.4395-0.04,7.5596-0.2402
				c1.6396-0.0801,2.96-0.0996,3.96-0.0605c1.3594,0.041,2.96,0,4.7998-0.1191c2.2402,0,5.5996-0.1396,10.0801-0.4209
				C714.7002,26.2412,714.9189,25.9609,714.8799,25.4805z M719.2002,53.4404c0-0.7197-0.3301-1.1191-0.9902-1.1992
				s-1.6504-0.1201-2.9697-0.1201c-0.96-0.04-2.5205,0-4.6807,0.1201c-1.04,0.0801-2.6006,0.1191-4.6797,0.1191
				c-0.5205-0.0391-1.7197-0.0195-3.5996,0.0605c-2.2412,0.04-3.3809,0.0596-3.4199,0.0596c-1.8408,0-3.3408,0.0205-4.5,0.0605
				c-0.2012,0.1201-0.3809,0.4795-0.54,1.0801c0.0391,1.2402,0,2.2002-0.1201,2.8799c0.0391,0.4795,0.0391,1.2207,0,2.2197
				c0.0391,0.5996,0.3389,0.8809,0.8994,0.8398c0.8799-0.1201,2.2402-0.1396,4.0801-0.0596c1.3203,0,3.0195-0.0996,5.1006-0.2998
				c0.7998-0.0801,1.2002-0.4805,1.2002-1.2002c0-0.4395-0.041-1.2598-0.1201-2.46c-0.0811-0.7598,0.0898-1.3398,0.5098-1.7402
				c0.4199-0.3994,0.9902-0.5791,1.71-0.54c1.6797,0.0811,2.4395,0.7803,2.2803,2.0996c0.0391,0.3604,0.0596,0.9404,0.0596,1.7402
				c0.0391,1.001,0,2.2197-0.1201,3.6602c0,0.0811,0.0195,0.2002,0.0605,0.3604c0.2393,0,0.6191,0.0996,1.1396,0.2998
				c0.3604,0.1602,0.9199,0.3809,1.6797,0.6602c2.4805,0.7588,4.0205,1.1396,4.6201,1.1396c0.7197,0,1.2002-0.6191,1.4404-1.8604
				c0.3193-1.5596,0.459-2.4795,0.4199-2.7598C719.0195,54.8809,719.2002,53.1611,719.2002,53.4404z"/>
			<path class="st0" d="M787.4805,63.4609c-0.0811,1.5195-0.8809,2.2803-2.4004,2.2803c-1.5205,0-3.1201,0.0195-4.7998,0.0596
				c-0.8809-0.1201-3.6807-0.1406-8.4004-0.0596c-1.4805,0.0391-3.9404-0.0811-7.3799-0.3604
				c-1.8809-0.1201-4.4609-0.3809-7.7402-0.7803c-0.2002-0.04-0.5498-0.1201-1.0498-0.2402
				c-0.501-0.1191-0.8906-0.1797-1.1699-0.1797c-1.041-0.2402-2.5-0.7002-4.3799-1.3799c-0.6006-0.3193-1.5205-0.7803-2.7598-1.3799
				c-0.4414-0.3604-1.1807-0.9199-2.2207-1.6797c-0.2803-0.1602-0.8008,0.2197-1.5596,1.1396
				c-0.1602,0.0801-0.9004,0.6807-2.2197,1.7998c-0.9209,0.7197-2.2412,1.8604-3.96,3.4199
				c-0.4805,0.5195-1.0605,0.7803-1.7402,0.7803c-0.6807,0-1.3105-0.2705-1.8906-0.8105c-0.5801-0.5391-0.8691-1.1494-0.8691-1.8291
				c0-0.7607,0.499-1.4014,1.5-1.9209c0.5996-0.3193,1.2793-0.8193,2.04-1.5c0.7588-0.5186,1.6992-1.2793,2.8193-2.2793
				c1-0.6006,1.96-1.5801,2.8799-2.9404c0.2002-0.3193,0.3604-1.4395,0.4805-3.3594c0.1992-3.2803,0.2598-6.3203,0.1797-9.1201
				c-0.04-1.1201-0.3594-1.6807-0.96-1.6807c-0.2803,0-0.9209,0.041-1.9199,0.1201c-0.8398,0.041-1.5205,0.0605-2.04,0.0605
				c-0.3203,0-0.8096,0.0293-1.4697,0.0898c-0.6602,0.0596-1.1504,0.0898-1.4697,0.0898c-1.6006,0-2.4004-0.7197-2.4004-2.1602
				c0-0.5996,0.2295-1.1494,0.6895-1.6494s0.9902-0.7295,1.5908-0.6904c0.96,0.04,2.2393,0.0205,3.8398-0.0596
				c0.5996,0,1.5596-0.04,2.8799-0.1201c0.5195-0.04,1.3398-0.0996,2.46-0.1807c1.2393-0.0391,2.0791,0.1611,2.5195,0.6006
				c0.4404,0.4404,0.6201,1.2598,0.54,2.46c0,0.9209-0.0205,2.2002-0.0596,3.8398c-0.0811,0.6406-0.1006,1.7998-0.0596,3.4795
				c0.0791,1.4805,0.0195,2.6211-0.1807,3.4209c-0.0801,0.96-0.0801,2.3994,0,4.3193c0.1201,0.6807,0.7197,1.3799,1.7998,2.1006
				c0.6797,0.4795,1.7598,1.0596,3.2402,1.7393c1.6797,0.8809,4.0596,1.4805,7.1406,1.8008c0.1592,0.04,1.7793,0.2002,4.8594,0.4795
				c1.2393,0.04,3.1299,0.1104,5.6699,0.21c2.54,0.1006,5.5898,0.1504,9.1504,0.1504c1.3994-0.04,3.5791-0.1396,6.54-0.2998
				c0.7588-0.04,1.3398,0.1602,1.7402,0.5996C787.3398,62.2812,787.5195,62.8203,787.4805,63.4609z M746.6797,26.8906
				c-0.5195,0.4609-1.04,0.6904-1.5596,0.6904c-0.8008,0-1.7207-0.5596-2.7598-1.6807c-0.6807-0.7588-1.6406-1.7188-2.8799-2.8799
				c-0.2402-0.2793-1.3809-1.3994-3.4209-3.3594c-0.5195-0.5195-0.7793-1.0801-0.7793-1.6807c0-0.5996,0.1992-1.1592,0.5996-1.6797
				c0.3994-0.5195,0.96-0.7803,1.6797-0.7803c0.6396,0,1.2002,0.2402,1.6807,0.7207c0.3594,0.4404,0.9395,1.04,1.7402,1.7998
				c0.2393,0.4004,0.6797,0.8604,1.3193,1.3799c0.4805,0.4795,1.2197,1.2402,2.2197,2.2803c0.4805,0.4004,1.1797,1.04,2.1006,1.9199
				c0.5596,0.6396,0.8398,1.2402,0.8398,1.7998C747.46,25.9414,747.1992,26.4316,746.6797,26.8906z M762.9404,18.1611
				c-0.3604,0.6807-0.8613,1.7002-1.5,3.0596c-0.3604,0.5205-0.8809,1.3408-1.5605,2.46c-0.4795,1-1.04,2.0801-1.6797,3.2402
				c-0.4805,1.1602-1.1807,2.3799-2.1006,3.6602c-0.5195,0.8398-1.1396,2.0205-1.8594,3.54
				c-0.2402,0.3594-0.2607,1.0195-0.0605,1.9795c0.3203,0.8008,0.7207,1.8809,1.2002,3.2402c0.3604,1,0.9395,2.4805,1.7402,4.4404
				c0.2793,0.5195,0.5596,1.2998,0.8398,2.3398c0.3604,0.7598,0.7998,1.96,1.3203,3.5996c0.1201,0.2012,0.4287,0.8906,0.9297,2.0703
				c0.5,1.1797,0.7891,1.9102,0.8701,2.1895c0.1201,0.5205,0.1797,0.96,0.1797,1.3203c0,0.9209-0.4004,1.54-1.2002,1.8604
				c-0.2803,0.1201-0.5801,0.1797-0.8994,0.1797c-1,0-1.6602-0.3604-1.9805-1.0801c-0.4404-0.96-0.7793-1.8994-1.0195-2.8203
				c-0.7197-1.1191-1.5-3.1396-2.3398-6.0596c-0.2803-0.5996-0.6006-1.5-0.96-2.7002c-0.3213-0.7588-0.7207-1.7402-1.2002-2.9395
				c-0.1201-0.5195-0.4111-1.2695-0.8701-2.25c-0.46-0.9805-0.75-1.8096-0.8701-2.4902c-0.3203-0.5596-0.4795-1.1602-0.4795-1.7998
				c0-0.8408,0.2891-1.8008,0.8691-2.8809c0.5801-1.0791,1.4297-2.5586,2.5508-4.4395c0.4395-0.999,0.8398-1.7998,1.1992-2.4004
				c0.3203-0.4795,0.7207-1.3193,1.2002-2.5195c0.3604-0.3604,0.7695-1.0596,1.2305-2.1006c0.459-1.0391,0.8193-1.7188,1.0801-2.04
				c0.2598-0.3193,0.4795-0.8193,0.6602-1.5c0.1797-0.6797,0.3496-1.1396,0.5098-1.3799c0.5195-0.7588,1.1787-1.1396,1.9795-1.1396
				c0.6006,0,1.1699,0.2607,1.71,0.7803c0.54,0.5205,0.8105,1.0801,0.8105,1.6797
				C763.2402,17.5811,763.1396,17.8818,762.9404,18.1611z M774.4004,18.7607c-0.4004,0.6807-0.9404,1.6602-1.6201,2.9404
				c-0.3604,0.4795-0.9004,1.2803-1.6201,2.3994c-1,1.8408-1.6201,2.8604-1.8604,3.0605c-0.5605,1.1992-1.2998,2.3799-2.2197,3.54
				c-0.4805,0.8398-1.1006,2-1.8604,3.4795c-0.3203,0.4004-0.3799,0.96-0.1797,1.6797c0.3193,0.7607,0.7393,1.8008,1.2598,3.1201
				c0.3994,1.041,1.0596,2.541,1.9805,4.5c0.2793,0.4805,0.5996,1.2207,0.96,2.2207c0.4795,0.7197,1.0596,1.8799,1.7402,3.4795
				c0.1592,0.2012,0.5186,0.8701,1.0791,2.0098c0.5605,1.1406,0.8799,1.8301,0.96,2.0703c0.1201,0.4004,0.1807,0.7607,0.1807,1.0801
				c0,1.4404-0.6807,2.1602-2.04,2.1602c-0.8809,0-1.5-0.3398-1.8604-1.0205c-0.5205-1.0391-0.9209-1.9395-1.2002-2.6992
				c-0.7598-1.0801-1.6602-3.04-2.6992-5.8809c-0.3213-0.5596-0.7012-1.4189-1.1406-2.5801
				c-0.3594-0.7197-0.8203-1.6592-1.3799-2.8193c-0.4795-0.9199-1.1396-2.46-1.9795-4.6201c-0.3604-0.5596-0.54-1.1602-0.54-1.7998
				c0-0.7998,0.2998-1.6592,0.8994-2.5801c0.5596-1.0801,1.4404-2.54,2.6406-4.3799c0.2793-0.5596,0.6992-1.3398,1.2598-2.3398
				c0.3594-0.4404,0.7998-1.2402,1.3203-2.4004c0.3984-0.3604,0.8594-1.04,1.3799-2.04c0.5186-0.999,0.9189-1.6592,1.1992-1.9805
				c0.2002-0.6387,0.6006-1.5596,1.2002-2.7598c0.5596-0.7197,1.2393-1.0801,2.04-1.0801c0.6006,0,1.1494,0.2402,1.6504,0.7207
				c0.499,0.4795,0.75,1,0.75,1.5596C774.7002,18.1611,774.5996,18.4814,774.4004,18.7607z M786.4004,17.8008
				c-0.4004,0.6807-0.9404,1.7002-1.6201,3.0596c-0.4805,0.7607-0.96,1.5811-1.4404,2.46c-1.04,2.001-1.6602,3.0811-1.8594,3.2402
				c-0.5615,1.2002-1.3008,2.4209-2.2207,3.6602c-0.5205,0.8398-1.1602,2.0205-1.9199,3.54
				c-0.3203,0.4404-0.3594,1.041-0.1201,1.7998c0.3994,0.8008,0.9004,1.8809,1.5,3.2402c0.4404,1.0801,1.1602,2.6201,2.1602,4.6201
				c0.3193,0.5205,0.6797,1.2998,1.0801,2.3398c0.4805,0.7607,1.0996,1.96,1.8604,3.5996c0.1592,0.2012,0.5693,0.8906,1.2295,2.0703
				c0.6602,1.1807,1.0293,1.9111,1.1104,2.1904c0.1592,0.4404,0.2402,0.8398,0.2402,1.1992c0,1.4404-0.7412,2.1602-2.2207,2.1602
				c-1.04,0-1.7607-0.3594-2.1602-1.0801c-0.5195-0.96-0.96-1.8994-1.3193-2.8193c-0.8398-1.1201-1.8408-3.1396-3-6.0605
				c-0.3213-0.5996-0.7197-1.5-1.2002-2.7002c-0.4004-0.7588-0.9004-1.7393-1.5-2.9395c-0.1602-0.5195-0.5205-1.2695-1.0801-2.25
				c-0.5605-0.9795-0.9404-1.8096-1.1396-2.4902c-0.4004-0.5596-0.6006-1.1797-0.6006-1.8594c0-0.8408,0.3096-1.79,0.9307-2.8506
				c0.6191-1.0596,1.5498-2.5293,2.79-4.4102c0.2793-0.5596,0.6992-1.3594,1.2598-2.3994c0.3594-0.4805,0.7998-1.3203,1.3203-2.5205
				c0.3984-0.3594,0.8486-1.0596,1.3496-2.0996c0.5-1.04,0.8789-1.7197,1.1396-2.04c0.2598-0.3203,0.4805-0.8193,0.6602-1.5
				c0.1797-0.6797,0.3691-1.1406,0.5703-1.3799c0.5596-0.7598,1.2598-1.1406,2.0996-1.1406c0.6006,0,1.1494,0.251,1.6504,0.75
				c0.499,0.501,0.75,1.0303,0.75,1.5908C786.7002,17.1406,786.5996,17.4814,786.4004,17.8008z"/>
			<path class="st0" d="M819.6396,44.2012c0,0.6807-0.2803,1.2402-0.8398,1.6797c-0.0801,0.0801-0.5996,0.5205-1.5596,1.3203
				c-0.4805,0.4004-1.4805,1.1201-3,2.1592c-1.3604,0.9209-2.501,1.6201-3.4199,2.1006c-0.7207,0.2803-1.3604,0.4199-1.9199,0.4199
				c-1.1211,0-2.04-0.5195-2.7607-1.5605c-0.4404-0.6387-0.7598-1.3994-0.96-2.2793c-0.04-0.0801-0.2998-1.2803-0.7793-3.6006
				l-0.3604-3.2393c-0.04-0.1602-0.0596-0.8193-0.0596-1.9805c-0.0811-3.0801-0.0605-5.7393,0.0596-7.9795
				c0-0.2002,0.0391-0.6006,0.1201-1.2002c0.0791-0.4805,0.1201-0.8604,0.1201-1.1406c0.0391-0.7197,0.1797-1.8193,0.4199-3.2998
				c0.1201-0.6396,0.2402-1.5391,0.3594-2.7002c0.1201-0.7588,0.3398-1.8789,0.6602-3.3594
				c0.2402-1.2393,1.2002-1.7998,2.8799-1.6807c1.4004,0.1201,2.1006,0.8008,2.1006,2.04c0,0.4805-0.1406,1.2207-0.4199,2.2207
				c-0.3604,1.1602-0.5605,1.9199-0.6006,2.2793c-0.0801,0.5205-0.2002,1.2812-0.3594,2.2803
				c-0.2803,1.4404-0.4199,2.4209-0.4199,2.9404c-0.1201,0.4404-0.2207,1.2207-0.3008,2.3398c0,0.1201-0.0596,1-0.1797,2.6396
				v2.5801v3.7803c0,0.2402,0.0605,0.7402,0.1797,1.5c0.1201,0.7598,0.1807,1.2002,0.1807,1.3203
				c0.0791,0.3203,0.1992,0.8691,0.3594,1.6494s0.4404,1.1699,0.8408,1.1699c0.1592,0,0.3789-0.0791,0.6592-0.2402
				c0.6396-0.4395,1.6807-1.1396,3.1201-2.0996c0.4805-0.3994,1.2002-1.0596,2.1602-1.9795c0.3193-0.3604,0.7402-0.54,1.2598-0.54
				c0.6797,0,1.2607,0.2393,1.7402,0.7197C819.4004,42.9404,819.6396,43.5215,819.6396,44.2012z M836.6797,34.541
				c-0.04,1.5205-0.1406,2.7002-0.2998,3.54c-0.1602,2.0801-0.54,4.1797-1.1396,6.2998c-0.2402,1.1602-0.7607,2.9004-1.5605,5.2197
				c-1.0801,3.6406-3.0596,7.7207-5.9395,12.2402c-0.3213,0.4795-1.1807,1.6992-2.5801,3.6602
				c-0.5605,0.7588-1.3203,1.1396-2.2803,1.1396c-0.7197,0-1.3301-0.2402-1.8301-0.7197c-0.5-0.4805-0.75-1.0801-0.75-1.7998
				c0-0.4414,0.1201-0.8203,0.3604-1.1406c0.3994-0.4395,0.96-1.1191,1.6797-2.04c0.3994-0.5186,1.1406-1.5596,2.2197-3.1201
				c0.4805-0.6797,1-1.5391,1.5605-2.5791c1.2793-2.3193,2.4199-4.9805,3.4199-7.9805c0.6797-2,1.2393-4.0801,1.6797-6.2402
				c0-0.3193,0.0801-0.8994,0.2402-1.7393c0.1592-0.7207,0.2402-1.2695,0.2402-1.6504c0-0.3799,0.0596-1.0898,0.1797-2.1299
				C831.96,34.9814,832,34.2012,832,33.1611c0.1201-2.5596-0.1406-5.0195-0.7803-7.3799c-0.2393-1.0801-0.7002-2.6406-1.3799-4.6807
				c-0.3203-0.5195-0.7197-1.3398-1.2002-2.46c-0.1201-0.1992-0.1797-0.4395-0.1797-0.7197c0-1.1191,0.4805-1.9199,1.4404-2.4004
				c0.3994-0.1992,0.8193-0.2998,1.2598-0.2998c1.2793,0,2.0791,0.5605,2.3994,1.6797c0.3994,0.6406,0.7998,1.6807,1.2002,3.1201
				c0.1592,0.8008,0.46,1.8809,0.9004,3.2402c0.0391,1.041,0.1992,1.96,0.4795,2.7598c0.1201,0.8008,0.2793,2.2607,0.4805,4.3799
				C836.6992,31.5215,836.7197,32.9014,836.6797,34.541z"/>
			<path class="st0" d="M897.7002,26.7412c-3.2402,0.1602-5.0801,0.2197-5.5205,0.1797c-0.9199,0.1602-2.2197,0.2607-3.8994,0.2998
				c-1.8809,0-3.1807,0.04-3.9004,0.1201c-1.5205,0-3,0.0811-4.4395,0.2402c-0.7607,0.0801-1.3604,0.4795-1.8008,1.2002
				c-0.1201,0.2393-0.2803,0.5801-0.4795,1.0195c-0.5605,1.0801-1.5205,2.7598-2.8799,5.04
				c-0.3604,0.7607-0.6904,1.3799-0.9902,1.8604c-0.2998,0.4795-0.4502,0.8203-0.4502,1.0195c0,0.3203,0.2002,0.6406,0.6006,0.96
				c0.5596,0.3604,1.2988,0.96,2.2197,1.7998c0.4395,0.2402,1.0391,0.7002,1.7998,1.3799c0.3193,0.2803,0.5996,0.4209,0.8398,0.4209
				c0.2793,0,0.5195-0.1602,0.7197-0.4805c0.5605-0.6396,1.5-1.6592,2.8203-3.0596c0.3203-0.3203,0.8193-0.8193,1.5-1.5
				c0.2402-0.3203,0.6201-0.7598,1.1406-1.3203c0.96-0.9199,2.1592-2.2998,3.5996-4.1396c0.4795-0.5605,1.0996-0.8408,1.8604-0.8408
				c0.5996,0,1.1787,0.2803,1.7393,0.8408c0.5596,0.5605,0.8398,1.1396,0.8398,1.7393c0,0.3604-0.1602,0.7607-0.4795,1.2002
				c-0.3203,0.2803-0.7197,0.7109-1.2002,1.29c-0.4795,0.5801-1.2803,1.3301-2.3994,2.25
				c-0.6006,0.6406-1.5605,1.5596-2.8809,2.7598c-0.6807,0.7607-1.7002,1.8408-3.0596,3.2402
				c-0.5996,0.5996-0.6406,1.1006-0.1201,1.5c0.5195,0.3604,1.2803,0.96,2.2803,1.7998c0.5596,0.4004,1.3594,1.001,2.3994,1.7998
				c0.7998,0.5615,1.2002,1.2812,1.2002,2.1602c0,0.4805-0.1797,0.9209-0.54,1.3203c-0.7197,0.5605-1.4395,0.8398-2.1602,0.8398
				c-0.3594,0-0.6592-0.0791-0.8994-0.2402c-1.4805-1.3594-2.6807-2.4189-3.6006-3.1797c-0.7598-0.6396-1.3799-1.1396-1.8594-1.5
				c-0.4805-0.2793-1.0605-0.1201-1.7402,0.4805c-0.5205,0.5195-1.0195,1.04-1.5,1.5596c-0.2002,0.2002-0.5205,0.501-0.96,0.9004
				c-0.2803,0.2002-0.6602,0.5801-1.1396,1.1396c-1.8008,1.7207-3.1406,3.1797-4.0205,4.3799
				c-0.2002,0.3604-0.2998,0.7002-0.2998,1.0205c0,0.4404,0.2402,0.8398,0.7197,1.1992c1.3203,0.6006,2.9199,0.9209,4.7998,0.96
				c2.1201,0.1201,3.3008,0.1611,3.54,0.1201c0.6006,0.0811,1.4795,0.0811,2.6406,0c3.3594-0.1992,6.1797-0.459,8.46-0.7793
				c0.8789-0.1602,2.1602-0.4209,3.8398-0.7803c1.5996-0.6006,2.8398-0.9004,3.7197-0.9004c1,0,1.7002,0.6807,2.1006,2.04
				c0.0391,0.2402,0.0596,0.4609,0.0596,0.6602c0,1.0801-0.4795,1.7998-1.4395,2.1602c-1.5215,0.3994-4.2812,0.8398-8.2803,1.3203
				c-0.8398,0-1.3408,0.0195-1.5,0.0596c-0.7607,0.1201-1.9404,0.1992-3.54,0.2402c-0.96,0.0391-2.4805,0.1201-4.5605,0.2402
				c-1.5996,0-2.7998-0.041-3.5996-0.1201c-0.3604,0.0391-0.9805,0-1.8604-0.1201c-1.5596-0.041-2.8799-0.1807-3.96-0.4199
				c-2.2793-0.4414-3.96-1.2207-5.04-2.3398c-0.9199-0.7998-1.2803-1.8799-1.0801-3.2402c0.0801-0.6006,0.2002-1.1191,0.3604-1.5605
				c0.5195-1.5596,1.5605-3,3.1201-4.3193c0.2402-0.3994,0.6904-0.8701,1.3496-1.4102c0.6602-0.54,1.0703-0.9502,1.2305-1.2305
				c0.3994-0.4395,1.0596-1.0596,1.9795-1.8594c0.3994-0.3604,0.9395-0.9004,1.6201-1.6201
				c0.4805-0.4805,0.7207-0.8193,0.7207-1.0205c0-0.1201-0.1201-0.3193-0.3604-0.5996c-0.2402-0.2793-0.6504-0.6602-1.2305-1.1396
				c-0.5801-0.4805-1.79-1.3594-3.6299-2.6406c-0.2803-0.2402-0.7598-0.5996-1.4395-1.0801
				c-0.4805-0.3994-0.7207-0.8594-0.7207-1.3799c0-0.5596,0.2598-1.2393,0.7803-2.04c1.4404-2.1992,2.2998-3.6396,2.5801-4.3203
				c0.3604-0.8789,0.7402-1.5596,1.1396-2.0391c0.1602-0.2402,0.3604-0.6201,0.6006-1.1406
				c0.3994-0.7588,0.2998-1.1592-0.2998-1.2002c-0.3213,0-0.7002-0.0195-1.1406-0.0596c-0.3594,0-0.7197,0-1.0801,0
				c-0.96,0.04-2.3994,0.1006-4.3193,0.1797c-1.2812,0.1201-3.2207,0.2607-5.8203,0.4199
				c-0.3203,0.0811-0.6211,0.1201-0.9004,0.1201c-1.4004,0-2.0996-0.7588-2.0996-2.2803c0-0.9189,0.2598-1.5391,0.7803-1.8594
				c0.2793-0.2002,0.8398-0.3398,1.6797-0.4199l6.0596-0.1807c0.2402,0,0.5801-0.0195,1.0205-0.0596c0.4395,0,0.7803,0,1.0195,0
				c1.8008,0,2.7402-0.0195,2.8203-0.0596c1.3994,0,2.6602-0.0605,3.7803-0.1807c0.7197-0.0791,1.3203-0.4795,1.7998-1.2002
				c0.3604-0.6797,0.7393-1.459,1.1396-2.3398c0-0.0791,0.1807-0.5195,0.54-1.3193c0.3604-0.7998,0.9199-1.9805,1.6807-3.54
				c0.2793-0.7598,0.9189-1.1406,1.9199-1.1406c0.4395,0,0.8594,0.1006,1.2598,0.2998c0.9199,0.4414,1.3799,1.0605,1.3799,1.8604
				c0,0.5605-0.2002,1.1611-0.5996,1.7998c-0.4004,0.6406-1.001,1.6406-1.7998,3c-0.1611,0.2803-0.4209,0.7607-0.7803,1.4404
				c-0.2803,0.5605-0.1406,0.8604,0.4199,0.8994c0.7197,0,1.1191-0.0195,1.2002-0.0596c1.4395,0,2.6592-0.0801,3.6602-0.2402
				c1.1992,0,2.3193-0.0596,3.3594-0.1797c0.6797,0,1.7002-0.0996,3.0605-0.2998c1.5596,0.04,3.5596-0.0996,6-0.4199
				c0.96-0.1201,1.5986-0.1807,1.9199-0.1807c1.5986,0,2.46,0.7412,2.5801,2.2207c0.1191,1.4795-0.6006,2.2998-2.1602,2.46
				C900.4395,26.6611,899.2598,26.7012,897.7002,26.7412z"/>
			<path class="st0" d="M930.5801,17.7412c-0.7607,1.2803-1.8604,3.2393-3.2998,5.8799c-0.4004,0.6807-0.8105,1.3799-1.2305,2.0996
				s-0.6504,1.4199-0.6895,2.0996c0.0391,0.9209-0.0205,2.1807-0.1807,3.7803c0,0.8008-0.0205,1.8906-0.0596,3.2705
				c-0.04,1.3799-0.0605,2.4697-0.0605,3.2695c0,2.7207-0.0205,4.3799-0.0596,4.9805c0.0801,1.1602,0.0195,2.7598-0.1797,4.7998
				c-0.041-0.4805-0.0605,0.8398-0.0605,3.96c0.0801,0.4004,0.0605,1.54-0.0596,3.4199c0.1201,0.8799,0.0791,2.2002-0.1201,3.96
				c0.0391,0.4004,0.0596,2.0801,0.0596,5.04c0.1201,0.8398-0.0703,1.5391-0.5693,2.0996c-0.501,0.5605-1.1504,0.8193-1.9502,0.7803
				c-1.5205-0.0801-2.2197-1.0195-2.1006-2.8203c0.0801-1.9199,0.2402-4.7588,0.4805-8.5195
				c-0.0811-0.5195-0.0596-1.2793,0.0596-2.2803c0.0801-0.999,0.0801-1.7402,0-2.2197c0.0801-0.6396,0.1201-1.9395,0.1201-3.9004
				c0-1.2793,0.04-2.749,0.1201-4.4092s0.1592-4.0508,0.2402-7.1709c0.0391-0.5996,0-0.8994-0.1201-0.8994
				c-0.0801,0-0.2607,0.2002-0.54,0.5996c-0.6807,1.1611-1.6602,2.9004-2.9395,5.2207c-0.7607,1.4395-1.3408,2.3994-1.7402,2.8799
				c-0.4404,1.2803-1.1807,1.9199-2.2197,1.9199c-0.5205,0-1.0107-0.1592-1.4707-0.4805c-0.46-0.3193-0.7305-0.6797-0.8096-1.0801
				c0-0.4395,0-0.8789,0-1.3193c0.3994-0.5605,0.8994-1.3594,1.5-2.4004c0.3193-0.2402,0.6689-0.71,1.0498-1.4102
				c0.3799-0.6992,0.6494-1.1494,0.8096-1.3496c0.3203-0.7207,0.9395-1.7197,1.8604-3c0.0391-0.0801,0.5791-1.04,1.6201-2.8799
				c0.1201-0.2002,0.6602-1.1406,1.6201-2.8203c1.0391-1.959,2.6191-4.9199,4.7402-8.8799c0.5596-1.1191,1.3799-2.7598,2.46-4.9199
				c0.3594-1.0801,1.0996-1.6201,2.2197-1.6201c1.5596,0,2.3398,0.6807,2.3398,2.04
				C931.4199,16.0215,931.1396,16.7812,930.5801,17.7412z M968.4404,52.4209c0.2793,0.4404,0.4199,0.8799,0.4199,1.3203
				c0,0.7598-0.4004,1.3604-1.2002,1.7998c-0.3604,0.2002-0.7197,0.2998-1.0801,0.2998c-0.7197,0-1.4004-0.3398-2.04-1.0205
				c-0.4004-0.5996-1.0205-1.3994-1.8604-2.3994c-0.4004-0.6396-1.4199-2.04-3.0596-4.2002
				c-0.6807-1.1191-1.8203-2.6592-3.4199-4.6201c-0.2803-0.5996-0.8809-1.46-1.7998-2.5801
				c-0.9209-1.1191-1.541-1.959-1.8604-2.5195c-0.4004-0.4395-0.9805-1.1797-1.7402-2.2197
				c-0.1602-0.2002-0.4795-0.6201-0.96-1.2607c-0.1602-0.0791-0.2607,0.1201-0.2998,0.6006
				c0.1201,0.7197,0.1797,1.5205,0.1797,2.3994c-0.04,1.5205-0.0596,2.3398-0.0596,2.46c0,1.2402,0.0391,3.0205,0.1201,5.3398
				c0.0391,0.6406,0.0391,1.5605,0,2.7607c0,0.4004,0,1.04,0,1.9199c0,0.5205,0.2793,0.8008,0.8398,0.8398
				c1.6396-0.0391,4.1191-0.1396,7.4395-0.2998c1.4004,0.1602,2.1201,0.8203,2.1602,1.9795c0.04,1.2002-0.8203,1.9004-2.5801,2.1006
				c-0.7598,0-1.8203,0.04-3.1797,0.1201c-1.4805,0.0801-2.541,0.1191-3.1797,0.1191c-0.6406,0-1.0205,0.041-1.1406,0.1201
				c-0.1201,0.0811-0.2002,0.4004-0.2393,0.96c0.0791,0.5605,0.0986,1.4609,0.0596,2.7002l0.0596,2.1602
				c-0.04,0.9209-0.04,2.2803,0,4.0801c0.0801,0.96-0.6201,1.5391-2.0996,1.7402c-0.5996,0.0791-1.1602-0.0898-1.6797-0.5107
				c-0.5205-0.4199-0.7803-0.9297-0.7803-1.5293v-2.9404c0-0.2402,0.0391-0.6992,0.1201-1.3799
				c0.0801-0.5195,0.0996-0.9395,0.0596-1.2598c0.1201-1.1191,0.1201-2.2598,0-3.4199c0-0.3994-0.2607-0.6006-0.7793-0.6006
				c-0.4004,0-0.9209,0-1.5605,0c-0.7598,0.041-1.2598,0.0605-1.5,0.0605c-0.4004,0-1.0303,0.0508-1.8896,0.1494
				c-0.8604,0.1006-1.5107,0.1504-1.9502,0.1504c-1.96,0-2.9199-0.6797-2.8799-2.04c0.0391-1.3203,0.7803-2.04,2.2197-2.1602
				c0.6797-0.0391,1.7598-0.0596,3.2402-0.0596c0.8789,0.04,2.2998,0,4.2598-0.1201c0.4805-0.0391,0.7197-0.4199,0.7197-1.1406
				c0-1.0391,0.0205-2.2988,0.0605-3.7793c0.1201-2,0.1396-3.5596,0.0596-4.6807c-0.04-0.7197-0.04-1.4395,0-2.1592
				c0.0801-1.2402,0.0996-2.2598,0.0605-3.0605c0.0391-0.8398,0.0195-1.2598-0.0605-1.2598h-0.0596
				c-0.0811,0.04-0.2402,0.2002-0.4805,0.4795c-0.6807,1.041-1.7002,2.6211-3.0596,4.7402c-0.4004,0.5205-0.9707,1.3301-1.71,2.4307
				c-0.7402,1.1006-1.71,2.4697-2.9102,4.1094c-0.8799,1.2812-1.96,2.7812-3.2402,4.5c-0.7197,0.9209-1.7803,2.2803-3.1797,4.0801
				c-0.4805,0.5605-1.0605,0.8398-1.7402,0.8398c-0.5996,0-1.1309-0.1992-1.5898-0.5996c-0.46-0.3994-0.6895-0.8799-0.6895-1.4404
				c0-0.6387,0.2588-1.2793,0.7793-1.9199c0.7207-0.8398,1.7998-2.1191,3.2402-3.8398c0.5195-0.7598,1.3594-1.8604,2.5195-3.2998
				c0.7207-0.9199,1.6406-2.1992,2.7607-3.8398c0.4395-0.5195,1.0801-1.3398,1.9199-2.46c0.6797-1.04,1.6592-2.6602,2.9395-4.8604
				c0.3604-0.5195,0.8799-1.2998,1.5605-2.3398c0.3994-0.6797,0.999-1.8604,1.7998-3.54c0.1592-0.2402,0.1797-0.4395,0.0596-0.6006
				c-0.1191-0.1992-0.3594-0.2793-0.7197-0.2393c-1.8398,0.1201-2.9902,0.1699-3.4502,0.1494
				c-0.46-0.0195-1.1904,0.0303-2.1895,0.1504c-1.1201,0.0801-1.8213,0.1201-2.1006,0.1201
				c-1.7998,0.04-3.3799,0.1006-4.7393,0.1797c-1.4014,0.0811-2.1602-0.54-2.2803-1.8604c-0.1201-1.4785,0.5791-2.2988,2.0996-2.46
				c0.96-0.1191,1.9404-0.1592,2.9404-0.1191c1.6396,0.04,4.1592-0.0205,7.5596-0.1807c0.2002,0,0.6006-0.0195,1.2002-0.0596
				c0.4805-0.04,0.8799-0.0605,1.2002-0.0605c0.5195,0,0.8701-0.1094,1.0498-0.3301c0.1797-0.2188,0.249-0.5889,0.21-1.1094
				c0.0391-2.3604,0.0391-3.8398,0-4.4404c-0.1201-1.5596-0.1406-2.499-0.0596-2.8193c0.0791-0.4404,0.3496-0.8301,0.8096-1.1709
				c0.46-0.3389,0.9502-0.5098,1.4697-0.5098c1.5996,0,2.4004,0.7607,2.4004,2.2803c0,0.3203-0.0205,0.8506-0.0596,1.5898
				c-0.041,0.7412-0.0605,1.3301-0.0605,1.7705s-0.0205,1.0596-0.0596,1.8594c-0.041,0.8008-0.0605,1.4209-0.0605,1.8604
				c0,0.5996,0.2402,0.8994,0.7207,0.8994c0.1592,0,1.8594-0.0596,5.0996-0.1797c2.1201-0.0791,3.2598-0.1201,3.4199-0.1201
				c0.4805,0,1.3398-0.0693,2.5801-0.21c1.2393-0.1396,2.0791-0.21,2.5195-0.21c1.8008,0,2.7402,0.7197,2.8203,2.1602
				c0.0801,1.4805-0.8604,2.3008-2.8203,2.46c-1.5596,0-3.0996,0.0205-4.6191,0.0605c-0.8809,0.04-2.001,0.0596-3.3604,0.0596
				c-0.4805,0-1.2207,0-2.2197,0c-0.1611,0-1.2402,0.0596-3.2402,0.1797c-0.4805,0.041-0.6006,0.2803-0.3604,0.7207
				c0.3203,0.4404,0.7598,1.1006,1.3203,1.9795c0.3994,0.7197,1.1592,1.7207,2.2803,3c0.7197,0.96,1.5986,2.2002,2.6396,3.7197
				c0.8398,1.001,1.9199,2.4404,3.2402,4.3203c0.3994,0.5605,1.0391,1.3604,1.9199,2.4004
				c0.2402,0.5195,0.7998,1.2598,1.6797,2.2197s1.4404,1.6602,1.6797,2.0996C966.499,49.5811,967.6396,51.0615,968.4404,52.4209z"/>
			<path class="st0" d="M977.3799,50.9209c0,0.3604-0.1201,0.8799-0.3604,1.5596c-0.2002,0.8398-0.4795,2.0605-0.8398,3.6602
				c-0.2002,0.8398-0.4492,2.0908-0.75,3.75c-0.2998,1.6602-0.9102,2.4902-1.8301,2.4902c-0.2803,0-0.5605-0.0801-0.8398-0.2402
				c-0.8398-0.3994-1.1006-1.3799-0.7793-2.9395c0.2793-0.7998,0.6191-2.04,1.0195-3.7207
				c0.1201-0.6387,0.3193-1.5391,0.5996-2.6992c0.0801-0.5605,0.2598-1.4795,0.54-2.7607c0.3604-0.9189,0.8604-1.3799,1.5-1.3799
				C976.8398,48.6406,977.4189,49.4014,977.3799,50.9209z M998.2598,17.501c-0.1602,1.3604-0.8203,2.04-1.9795,2.04
				c-0.1201,0-0.6104,0.0205-1.4707,0.0596c-0.8604,0.04-1.5898,0.0605-2.1895,0.0605c-1.1201,0.04-2.3604,0.0996-3.7197,0.1797
				c-0.2402,0.1602-0.3809,0.5205-0.4199,1.0801c-0.1611,0.8799-0.2207,1.96-0.1807,3.2402c-0.04,0.3594-0.0098,0.6104,0.0898,0.75
				c0.0996,0.1406,0.25,0.1904,0.4502,0.1494c0.3203-0.0391,0.9795-0.0996,1.9805-0.1797c0.8398-0.0801,1.8994-0.1592,3.1797-0.2402
				c1.4795-0.1201,2.2393,0.54,2.2803,1.9805c0.0391,1.2402-0.4805,1.96-1.5605,2.1602c-0.6396,0.1191-1.5596,0.1602-2.7598,0.1191
				c-0.1201,0-0.54,0-1.2598,0c-0.7197,0.041-1.2402,0.0605-1.5605,0.0605c-0.6396,0-0.96,0.1602-0.96,0.4795
				c-0.0801,1.041-0.0996,2.2803-0.0596,3.7207c0.0791,0.1602,0.2793,0.3203,0.5996,0.4795c0.96-0.0391,2.4004-0.1201,4.3203-0.2402
				c1.1592-0.1191,1.6992-0.1797,1.6201-0.1797c0.5996,0.04,1.0098,0.291,1.2295,0.75c0.2197,0.46,0.29,1.0107,0.21,1.6504
				c-0.0801,0.6807-0.2695,1.1201-0.5693,1.3193c-0.2998,0.2012-1.4502,0.3408-3.4502,0.4199
				c-1.7607,0.0811-2.8711,0.1201-3.3301,0.1201c-0.46,0-0.7109,0.2207-0.75,0.6602c-0.0811,0.8008-0.0811,1.9199,0,3.3604
				c0.0391,0.6807,0.3193,0.9805,0.8398,0.8994c0.3203-0.0391,1.2598-0.0986,2.8203-0.1797l4.2002-0.1797
				c1.3994,0.2803,2.0996,1.2002,2.0996,2.7598c0-0.1992-0.0107,0.3809-0.0303,1.7402c-0.0205,1.3604-0.1104,3.0801-0.2695,5.1602
				c0.0391,0.7197-0.0205,1.7393-0.1797,3.0596c-0.1201,0.9209-0.2402,1.8408-0.3604,2.7598
				c-0.2402,2.7207-0.7002,5.2207-1.3799,7.5c-0.3604,1.2002-1.2207,1.7998-2.5801,1.7998c-0.5205,0-1.041-0.0996-1.5605-0.2998
				c-2.2002-0.3203-3.7998-0.8994-4.7998-1.7393c-0.6807-0.5615-1.0195-1.1406-1.0195-1.7402c0-0.3203,0.0791-0.6602,0.2393-1.0205
				c0.3203-0.7588,0.7598-1.1396,1.3203-1.1396c0.2793,0,0.6494,0.1006,1.1104,0.2998c0.459,0.2012,1.2295,0.54,2.3096,1.0205
				c0.6006,0.2803,1,0.4199,1.2002,0.4199c0.3604,0,0.6396-0.3799,0.8398-1.1406c0.1201-0.6387,0.2998-1.6201,0.54-2.9395
				c0-0.3203,0.0605-0.7695,0.1797-1.3506c0.1201-0.5791,0.1807-0.9688,0.1807-1.1699c0.1201-1.8389,0.1592-2.9795,0.1201-3.4199
				c0.0391-1.0801,0.1201-2.7197,0.2393-4.9199c-0.04-0.5996-0.0801-0.96-0.1191-1.0801c-0.041-0.1201-0.2012-0.2402-0.4805-0.3594
				c-1.1201,0-2.4004,0-3.8398,0c-0.8008-0.04-1.8408-0.0205-3.1201,0.0596c-1.5205,0.0811-2.5605,0.1201-3.1201,0.1201
				c-0.2402,0-0.9209,0.0596-2.04,0.1797c-0.9209,0.0811-1.6406,0.0811-2.1602,0c-0.4404,0.04-1.3604,0.1006-2.7598,0.1807
				c-1.3604,0.0801-2.0801-0.8203-2.1602-2.7002c0.04-0.6006,0.0801-1.5195,0.1201-2.7607
				c0.0391-0.6797,0.0605-1.6992,0.0605-3.0596c-0.041-0.96,0.0195-2.7393,0.1797-5.3398c-0.04-0.4805-0.04-1.7197,0-3.7197
				l0.1201-6.1807c0-2.04,0-3.1396,0-3.2998c0-1.2002,0.0596-2,0.1797-2.4004c0.2793-0.7588,0.8799-1.1787,1.7998-1.2598
				c0.2002,0.041,1.4404,0.0205,3.7207-0.0596c1.4395,0.04,3.1992-0.0195,5.2793-0.1807c0.5596,0.1201,1.7002,0.1201,3.4199,0
				c1.9199-0.1592,3.1396-0.2188,3.6602-0.1797c0.2002,0,1.0996-0.0791,2.7002-0.2402c0.8789-0.0791,1.46-0.0596,1.7402,0.0605
				C998.04,15.8613,998.3799,16.541,998.2598,17.501z M984.4004,39.9404c0.0391-0.6797-0.041-1.4189-0.2402-2.2197
				c-0.9209,0.04-2.001,0.0205-3.2402-0.0596c-0.5205,0.1201-0.9805,0.1797-1.3799,0.1797c-0.6807,0.04-1.0703,0.1104-1.1699,0.21
				c-0.1006,0.1006-0.1904,0.5508-0.2705,1.3496c0,0.5605-0.0205,1.4805-0.0596,2.7607c0.0391,0.2803,0.1797,0.54,0.4199,0.7793
				c0.7197-0.0791,1.8301-0.1201,3.3301-0.1201s2.2891-0.1191,2.3701-0.3594C984.3193,41.9414,984.4004,41.1016,984.4004,39.9404z
				 M984.5801,29.4404c0-0.1992-0.4404-0.3389-1.3203-0.4199c-0.1602,0-0.96,0.0605-2.3994,0.1807
				c-0.5205-0.04-1.3604,0.0205-2.5205,0.1797c-0.0801,0.4004-0.1406,1.2598-0.1797,2.5801
				c-0.0811,1.5205,0.1797,2.2402,0.7803,2.1602c1.0391-0.1201,1.7393-0.1602,2.0996-0.1201
				c0.7197-0.0801,1.5801-0.0996,2.5801-0.0605c0.6797-0.0391,0.9795-0.3389,0.8994-0.8994
				C984.5996,32.2812,984.6191,31.0811,984.5801,29.4404z M982.1797,50.4404c0.04,0.2012,0,0.8203-0.1201,1.8604
				c-0.04,1.2402-0.1406,3.1201-0.2998,5.6396c-0.1602,1.5205-0.4004,2.5908-0.7197,3.21
				c-0.3203,0.6211-0.8799,0.8311-1.6797,0.6309c-0.8008-0.2002-1.1807-0.9004-1.1406-2.1006
				c0.0801-0.2793,0.2197-1.6396,0.4199-4.0801c0.3203-4.0391,0.4805-5.7793,0.4805-5.2197c0-1.1602,0.5791-1.6396,1.7402-1.4404
				C981.54,48.9404,981.9795,49.4414,982.1797,50.4404z M984.6396,21.0703c0-0.499,0-0.7695,0-0.8096
				c-0.1201-0.2402-0.4004-0.3604-0.8398-0.3604c-2.6006,0.0811-3.96,0.1201-4.0801,0.1201
				c-0.7197-0.1201-1.1201,0.1807-1.2002,0.9004c0,0.4004-0.04,0.9209-0.1191,1.5596c-0.0811,0.4805-0.0811,1.3203,0,2.5205
				c0.0391,0.4404,0.459,0.6201,1.2598,0.54c0.6396,0.1201,1.2002,0.1104,1.6797-0.0303c0.4805-0.1396,1.3203-0.1895,2.5205-0.1504
				c0.3193-0.1191,0.5186-0.2188,0.5996-0.2998c0.0801-0.0791,0.1201-0.2695,0.1201-0.5693c0-0.3008,0.0195-0.8701,0.0596-1.71
				C984.6396,22.1416,984.6396,21.5713,984.6396,21.0703z M987.1602,58.7812c-0.2402,1.0791-0.8398,1.5801-1.7998,1.5
				s-1.4209-0.6797-1.3799-1.8008c0.0791-2.1602-0.0215-4.7188-0.3008-7.6797C983.5596,49.3604,984,48.6016,985,48.5205
				c1.1191-0.0791,1.7197,0.7002,1.7998,2.3398c0.0801,1.4404,0.1201,2.5801,0.1201,3.4209c0,0.3203,0.0605,1.0596,0.1797,2.2197
				C987.2197,57.4609,987.2393,58.2207,987.1602,58.7812z M992.3799,56.9805c0.0801,0.2402,0.1201,0.4609,0.1201,0.6602
				c0,0.8809-0.46,1.4609-1.3799,1.7402c-0.9209,0.1201-1.5-0.3799-1.7402-1.5c-0.0801-1.04-0.2197-2.54-0.4199-4.5
				c-0.1602-0.6797-0.3203-1.7002-0.4795-3.0605c0-0.5596,0.1592-1.0889,0.4795-1.5898c0.3193-0.499,0.7393-0.75,1.2598-0.75
				c0.6797,0,1.1201,0.6006,1.3203,1.8008c0.0391,0.7998,0.1992,2.0195,0.4795,3.6592
				C992.0596,55.041,992.1797,56.2217,992.3799,56.9805z M1028.5596,30.4004c0.2803,0.3213,0.4209,0.7412,0.4209,1.2607
				c0,0.6396-0.1611,1.1797-0.4805,1.6201c-0.5605,0.5605-1.1201,0.8398-1.6797,0.8398c-0.4414,0-1.2207-0.7207-2.3398-2.1602
				c-0.5205-0.7197-1.3408-1.7402-2.4609-3.0605c-0.2803-0.3994-0.7402-0.8398-1.3799-1.3193
				c-0.3594,0.6396-1.2402,0.9404-2.6396,0.8994c-0.3604,0-0.8799,0.0205-1.5596,0.0605c-0.8008,0.0801-1.3408,0.1406-1.6201,0.1797
				c-0.2803,0.04-0.4004,0.3408-0.3604,0.9004c-0.04,0.4004-0.0205,1.46,0.0596,3.1797c-0.04,0.4404,0.0801,0.7002,0.3604,0.7803
				c0.0391,0,0.2998,0,0.7803,0c0.5195-0.0801,1.3799-0.1592,2.5801-0.2402c0.6797-0.0391,1.7998-0.1201,3.3594-0.2402
				c-0.0801-0.0391,0.3799-0.0596,1.3809-0.0596c0.999,0,1.6396,0.3398,1.9199,1.0195c0.1191,0.6406,0.2188,1.2812,0.2998,1.9199
				c0.0791,0.96,0.1201,2.3613,0.1201,4.2002c-0.041,0.5205-0.0605,1.2803-0.0605,2.2803c0.0801,1.1602,0.0996,2.1201,0.0605,2.8799
				c0.0391,0.8398-0.1504,1.5107-0.5703,2.0098c-0.4199,0.501-1.0703,0.7109-1.9502,0.6299
				c-0.4795,0.1201-1.1201,0.1807-1.9199,0.1807c-0.96-0.04-1.6201-0.0205-1.9795,0.0596c-0.4004-0.0801-0.8203-0.0801-1.2607,0
				c-0.5605,0.1201-1.0195,0.1797-1.3799,0.1797c-0.3594,0-0.5605,0.0811-0.5996,0.2402c-0.0811,0.1201-0.0605,0.2607,0.0596,0.4199
				c0.3604,0.5205,0.9004,1.2812,1.6201,2.2803c1.1191,1.3604,2.7393,3.46,4.8604,6.2998c0.5195,0.4805,1.2197,1.3008,2.0996,2.46
				c0.5195,0.5205,1.4404,1.6006,2.7598,3.2402c0.4805,0.5596,0.7207,1.1191,0.7207,1.6797c0,0.6006-0.2402,1.1602-0.7207,1.6807
				c-0.7998,0.6387-1.6602,0.6191-2.5791-0.0605c-0.4414-0.3203-0.9404-0.8398-1.5-1.5596l-1.2607-1.7402
				c-0.4004-0.4404-0.8994-1.1191-1.5-2.04c-1-1.2793-2.5195-3.2197-4.5596-5.8203c-0.4004-0.5596-1-1.3799-1.7998-2.46
				c-0.1611-0.1592-0.3809-0.4199-0.6602-0.7793c-0.2012-0.2402-0.3604-0.3604-0.4805-0.3604c-0.2002,0-0.5,0.3203-0.8994,0.96
				c-0.6006,0.7607-1.3799,1.8203-2.3398,3.1797c-0.5205,0.6807-1.2812,1.7207-2.2803,3.1201
				c-0.7197,0.8398-1.7607,2.1211-3.1201,3.8398c-0.7197,1.1201-1.8408,2.4395-3.3604,3.96c-0.2803,0.3604-0.6602,0.54-1.1396,0.54
				c-0.5205,0-0.9512-0.2197-1.29-0.6602c-0.3408-0.4404-0.5098-0.9199-0.5098-1.4395c0-0.8398,0.2998-1.5605,0.8994-2.1602
				c0.8398-0.8398,2.04-2.1191,3.6006-3.8398c0.4395-0.3994,0.999-1.0596,1.6797-1.9805c0.6797-0.9189,1.7002-2.2793,3.0596-4.0801
				c0.4805-0.6387,1.2197-1.6992,2.2207-3.1797c0.4795-0.8398,0.7197-1.2197,0.7197-1.1396c0-0.2002-0.4795-0.2598-1.4404-0.1807
				c-1.7197,0.1201-2.9004,0.1611-3.5391,0.1201c-1.001,0.1611-1.9209,0.2012-2.7607,0.1201
				c-0.2002,0.0811-0.4004,0.1201-0.5996,0.1201c-1.2402,0-1.7803-0.9395-1.6201-2.8203c0-0.7988,0.0195-1.7793,0.0596-2.9395
				c0.1201-0.6797,0.1201-1.2998,0-1.8604c-0.04-0.9199,0-2.2998,0.1201-4.1396c-0.1602-1.3994,0-2.3193,0.4805-2.7598
				c0.3193-0.3203,0.9688-0.5,1.9502-0.54c0.9795-0.04,2.3096-0.0605,3.9893-0.0605c1.6396,0.1201,2.8203,0,3.54-0.3594
				c0.3604,0.0801,0.54-0.3008,0.54-1.1406c0.2002-1.0391,0.1807-2.0596-0.0596-3.0596c-0.1201-0.4805-0.3408-0.7197-0.6602-0.7197
				c-0.4004,0-1.1006,0.0801-2.0996,0.2393c-0.5205,0.041-1.2607,0.0605-2.2207,0.0605c-0.4004-0.04-0.7197-0.2793-0.96-0.7207
				c-0.9199,1.041-2.2402,2.6406-3.96,4.8008c-0.3594,0.4404-0.8203,1-1.3799,1.6797c-0.4795,0.4404-0.9404,0.6602-1.3799,0.6602
				c-0.5205,0-0.9707-0.2295-1.3496-0.6904c-0.3809-0.459-0.5703-0.9492-0.5703-1.4697c0-0.5996,0.1992-1.0801,0.5996-1.4404
				c0.7598-0.7988,1.6807-1.8193,2.7607-3.0596c0.5186-0.6396,1.4395-1.7197,2.7598-3.2402
				c1.1592-1.3594,2.3994-2.9795,3.7197-4.8594c0.2402-0.3994,0.6299-0.9697,1.1699-1.71s1.3701-1.8301,2.4902-3.2705
				c0.4795-0.5195,0.8594-1.0596,1.1396-1.6201c0.3994-0.7998,1.1201-1.2002,2.1602-1.2002c0.7598,0,1.3594,0.3213,1.7998,0.96
				c0.3604,0.4805,0.8408,1.1406,1.4404,1.9805c0.4795,0.4404,0.9697,1.0498,1.4697,1.8301s0.9902,1.3701,1.4697,1.7695
				c0.3994,0.5205,1.04,1.2812,1.9209,2.2803c0.7197,0.6807,1.4395,1.6006,2.1592,2.7598c0.2402,0.1602,1.4004,1.4805,3.4805,3.96
				C1027.0596,28.8809,1027.7197,29.5215,1028.5596,30.4004z M1010.6797,41.5605c-0.04-0.5996-0.04-1.5791,0-2.9395
				c-0.0801-0.2793-0.1406-0.5596-0.1797-0.8398c-0.1201-0.1201-0.4004-0.2002-0.8398-0.2402c-0.3604,0.0801-1,0.1201-1.9199,0.1201
				c-0.5605,0-1.5205,0.0596-2.8799,0.1797c-0.5205,0-0.8408,0.1602-0.96,0.4795c-0.0811,0.1611-0.1309,0.5508-0.1504,1.1709
				c-0.0205,0.6201-0.0303,1.5703-0.0303,2.8496c0.04,1.6797,0.0605,2.3604,0.0605,2.04c-0.041,0.4795,0.1992,0.8008,0.7197,0.96
				c1.04,0.0811,1.7793,0,2.2197-0.2402c0.4404,0.1602,1.4004,0.1201,2.8799-0.1201c0.6396-0.0791,0.96-0.459,0.96-1.1396
				c0-0.2002,0.0205-0.5898,0.0605-1.1699C1010.6592,42.0918,1010.6797,41.7207,1010.6797,41.5605z M1018.4805,24.6406
				c-0.6406-0.6396-1.1406-1.2598-1.5-1.8594c-0.4414-0.4404-1.0205-1.1602-1.7402-2.1602
				c-0.4004-0.4805-0.9404-1.1406-1.6201-1.9805c-0.3604-0.4395-0.6211-0.6602-0.7803-0.6602c-0.1602,0-0.4004,0.2207-0.7197,0.6602
				c-0.4404,0.4004-1.0107,1.1104-1.71,2.1299c-0.7002,1.0205-1.2705,1.7305-1.71,2.1299
				c-0.2402,0.4805-0.7803,1.2402-1.6201,2.2803c1.3994-0.0391,2.2393-0.0898,2.5195-0.1494
				c0.2793-0.0605,0.6396-0.0703,1.0801-0.0303c0.5195,0.0801,0.8604,0.1006,1.0205,0.0596
				c1.0801,0.041,2.6592-0.0791,4.7402-0.3594C1017.04,24.8203,1017.7197,24.8008,1018.4805,24.6406z M1021.54,41.1406
				c0.0391-0.8398,0-1.8389-0.1201-3c-0.0801-0.7197-0.3398-1.0996-0.7803-1.1396c-0.6807,0.0801-1.5596,0.1201-2.6396,0.1201
				c-0.5605,0.04-1.54,0.1201-2.9404,0.2393c-0.4404,0.0811-0.6396,0.3906-0.5996,0.9307c0.0391,0.54,0,1.29-0.1201,2.25
				c0,0.96,0.0195,1.96,0.0605,3c0,0.2803,0.0596,0.5303,0.1797,0.75s0.2402,0.3105,0.3604,0.2695
				c0.6387-0.1592,1.0791-0.1797,1.3193-0.0596c0.2402-0.04,1.0205-0.0605,2.3398-0.0605c0.3604-0.0791,1.04-0.1592,2.04-0.2393
				c0.4805,0,0.7402-0.2197,0.7803-0.6602C1021.459,42.9404,1021.5,42.1406,1021.54,41.1406z"/>
		</g>
	</g>
</g>
</svg>
